<?xml version="1.0" encoding="UTF-8" standalone="no"?>
<svg xmlns:rdf="http://www.w3.org/1999/02/22-rdf-syntax-ns#" xmlns="http://www.w3.org/2000/svg" enable-background="new 0 0 152.75 75.5" xml:space="preserve" height="73.462" viewBox="0 0 144.707 73.461998" width="144.71" version="1.1" xmlns:cc="http://creativecommons.org/ns#" xmlns:dc="http://purl.org/dc/elements/1.1/"><path fill="#002a5b" d="m99.027 1l-34.679 0.0332-0.014 10.789h-16.318l-5.446 6.467 0.034 33.098 5.509 6.633 18.182-0.018v-31.033h-11.746l-0.033 9.601h2.111v10.131h-3.762v-25.508h10.031l3.399-9.371h9.404v46.231h12.043v-30.918l-3.43-0.006v-6.145l3.43-9.162h9.406v46.231h20.922v-11.385l-11.19 0.033v-10.164h9.84v-9.535h-9.81v-5.809h11.16v-9.371h-19.043v-10.822zm-97.935 0.0332v56.987h20.955l5.543-6.7v-19.502l-4.125-4.916 3.299-3.959v-16.4l-4.653-5.5098h-21.019zm118.78 10.731v46.359h9.81v-21.775l4.79 21.775h9.24v-46.359h-9.9v21.119l-4.62-21.119h-9.32zm-106.96 0.054h3.756v9.371h-3.756v-9.371zm16.393 0.004v46.198h11.648v-46.198h-11.648zm-16.346 19.994h3.729v14.883h-3.729v-14.883zm-5.7129 30.727c-4.262 0-6.2461 0.96-6.2461 3.018v3.884c0 1.932 1.6671 3.018 5.9551 3.018 4.7639 0 6.7249-1.137 6.7249-2.766v-1.16h-4.6585v0.861c0 0.58-0.1327 1.362-1.7207 1.362-1.218 0-1.668-0.316-1.668-0.846l0.0254-4.682c0-0.618 0.3448-0.996 1.8008-0.982 0.873 0 1.4824 0.417 1.4824 1.225v0.601h4.6586v-0.795c0-1.929-2.384-2.738-6.3539-2.738zm116.66 0c-4.26 0-6.24 0.96-6.24 3.018v3.884c0 1.932 1.66 3.018 5.95 3.018 4.77 0 6.73-1.137 6.73-2.766v-1.16h-4.66v0.861c0 0.58-0.14 1.362-1.72 1.362-1.22 0-1.67-0.316-1.67-0.846l0.02-4.682c0-0.618 0.35-0.996 1.8-0.982 0.88 0 1.49 0.417 1.49 1.225v0.601h4.66v-0.795c0-1.929-2.39-2.738-6.36-2.738zm-101.39 0.002c-4.076 0-6.354 1.009-6.354 2.826v3.85c0 2.132 1.643 3.242 6.354 3.242 4.712 0 6.273-1.11 6.273-3.242v-3.85c0-1.817-2.196-2.826-6.273-2.826zm8.865 0.226v9.465h4.42l-0.424-5.273 0.053-0.027 3.627 5.3h4.763v-9.465h-4.42l0.45 5.288h-0.079l-3.599-5.288h-4.791zm15.297 0v9.465h4.658v-4h5.797v-1.892h-5.797v-1.68h6.299v-1.893h-10.957zm13.578 0v9.465h10.984v-1.892h-6.324v-2.045h5.822v-1.893h-5.822v-1.742h6.008v-1.893h-10.668zm13.553 0v9.465h4.658v-3.734h1.535c1.085 0.037 1.457 0.414 1.59 0.994 0.13 0.58 0.023 1.363 0.103 2.197 0.026 0.189 0.134 0.363 0.266 0.541h5.082v-0.125c-0.211-0.088-0.344-0.203-0.449-0.328-0.265-0.606-0.291-2.234-0.424-2.992-0.078-0.656-1.007-1.083-2.305-1.223v-0.023c1.959-0.429 2.463-1.148 2.463-2.158 0-1.881-1.907-2.614-5.719-2.614h-6.8zm15.244 0v9.465h10.985v-1.892h-6.327v-2.045h5.822v-1.893h-5.822v-1.742h6.008v-1.893h-10.666zm13.575 0v9.465h4.42l-0.42-5.273 0.05-0.027 3.63 5.3h4.76v-9.465h-4.42l0.45 5.288h-0.07l-3.61-5.288h-4.79zm30.36 0v9.465h10.72v-1.892h-6.06v-2.045h5.82v-1.893h-5.82v-1.742h6.06v-1.893h-10.72zm-110.5 1.479c1.535 0 1.643 0.693 1.643 1.273v3.887c0 0.543-0.106 1.35-1.615 1.35-1.508 0-1.696-0.807-1.696-1.35v-3.887c0-0.58 0.186-1.273 1.668-1.273zm55.979 0.227c2.276-0.026 3.256 0.023 3.256 1.146 0 0.58-0.316 1.174-1.668 1.174h-1.588v-2.32z"/></svg>
