<?xml version="1.0" encoding="utf-8"?>
<!-- Generator: Adobe Illustrator 14.0.0, SVG Export Plug-In . SVG Version: 6.00 Build 43363)  -->
<!DOCTYPE svg PUBLIC "-//W3C//DTD SVG 1.1//EN" "http://www.w3.org/Graphics/SVG/1.1/DTD/svg11.dtd">
<svg version="1.1" id="Layer_1" xmlns="http://www.w3.org/2000/svg" xmlns:xlink="http://www.w3.org/1999/xlink" x="0px" y="0px"
	 width="250px" height="207px" viewBox="0 0 250 207" enable-background="new 0 0 250 207" xml:space="preserve">
<g>
	<g>
		<polygon fill="none" stroke="#FFFFFF" stroke-width="21.5889" points="124.976,20.611 20.499,103.35 124.979,186.218 
			229.566,103.35 		"/>
		<polygon fill="none" stroke="#812990" stroke-width="15.2899" points="124.976,20.611 20.499,103.35 124.979,186.218 
			229.566,103.35 		"/>
	</g>
	<polygon fill="none" stroke="#F7941E" stroke-width="4.1601" points="124.976,20.611 20.499,103.35 124.979,186.218 
		229.566,103.35 	"/>
	<polygon points="229.424,103.384 124.979,20.607 20.533,103.384 124.979,186.162 	"/>
	<polygon points="229.424,103.384 124.979,20.607 20.533,103.384 124.979,186.162 	"/>
	<polygon points="209.549,103.384 124.979,36.361 40.409,103.384 124.979,170.408 	"/>
	<polygon fill="#F7941E" points="209.549,103.384 124.979,36.361 40.409,103.384 124.979,170.408 	"/>
	<polygon fill="#812990" points="198.909,103.384 124.979,44.794 51.048,103.384 124.979,161.966 	"/>
	<polygon fill="none" stroke="#000000" stroke-width="3.1527" points="198.909,103.384 124.979,44.794 51.048,103.384 
		124.979,161.966 	"/>
	<polygon fill="#FFFFFF" points="39.236,114.667 38.525,114.103 41.929,109.808 40.853,108.963 40.437,109.491 39.716,108.92 
		40.71,107.672 45.002,111.079 44.006,112.321 43.292,111.756 43.717,111.229 42.644,110.384 	"/>
	<path fill="#FFFFFF" d="M49.397,120.787c-0.655,0.069-1.235-0.093-1.754-0.502c-0.506-0.41-0.804-0.938-0.878-1.59
		c-0.081-0.651,0.09-1.229,0.494-1.743c0.406-0.51,0.934-0.801,1.585-0.87c0.649-0.08,1.232,0.087,1.741,0.491
		c0.518,0.409,0.813,0.943,0.888,1.602c0.081,0.646-0.081,1.229-0.487,1.743C50.583,120.428,50.048,120.713,49.397,120.787
		 M49.499,121.693c0.903-0.105,1.633-0.515,2.191-1.216c0.565-0.708,0.794-1.521,0.692-2.415c-0.1-0.906-0.509-1.638-1.227-2.203
		c-0.708-0.56-1.508-0.795-2.417-0.689c-0.903,0.1-1.629,0.509-2.204,1.217c-0.559,0.707-0.785,1.515-0.679,2.414
		c0.105,0.9,0.512,1.634,1.216,2.197C47.792,121.558,48.596,121.793,49.499,121.693"/>
	<path fill="#FFFFFF" d="M59.334,127.119c-0.478,0.602-1.099,0.956-1.865,1.062c-0.77,0.105-1.449-0.087-2.039-0.547
		c-0.586-0.471-0.918-1.093-0.993-1.855c-0.075-0.776,0.13-1.465,0.605-2.062l2.271-2.86l0.717,0.563l-2.265,2.862
		c-0.326,0.41-0.459,0.869-0.416,1.391c0.043,0.516,0.267,0.931,0.652,1.247c0.394,0.311,0.847,0.429,1.369,0.349
		c0.509-0.075,0.928-0.311,1.254-0.714l2.262-2.868l0.724,0.577L59.334,127.119"/>
	<path fill="#FFFFFF" d="M64.809,130.315l1.139-1.434l1.968,1.558c0.174,0.144,0.289,0.342,0.32,0.59
		c0.037,0.255-0.019,0.479-0.183,0.689c-0.152,0.192-0.36,0.304-0.611,0.335c-0.254,0.038-0.472-0.031-0.667-0.186L64.809,130.315
		 M66.209,132.575c0.391,0.323,0.848,0.447,1.347,0.385c0.5-0.062,0.906-0.292,1.213-0.676c0.313-0.392,0.441-0.839,0.382-1.348
		c-0.056-0.497-0.279-0.906-0.674-1.217l-2.675-2.129l-1.707,2.153l-0.541-0.428l-0.567,0.72l0.543,0.422l-1.704,2.143l0.716,0.57
		l1.698-2.142l1.077,0.857l-0.596,3.017l0.854,0.67L66.209,132.575z"/>
	<polygon fill="#FFFFFF" points="69.586,138.758 73.556,133.754 74.58,139.807 77.134,136.592 77.857,137.162 73.878,142.165 
		72.857,136.113 70.306,139.329 	"/>
	<path fill="#FFFFFF" d="M81.069,144.362l1.723-0.825l-0.41,1.881L81.069,144.362z M80.3,143.767l-0.723-0.583l-0.568,0.713
		l0.354,0.286l-1.85,0.863l0.789,0.633l1.868-0.862l1.978,1.576l-0.429,1.992l0.794,0.64l1.471-6.995L80.3,143.767z"/>
	<polygon fill="#FFFFFF" points="86.122,151.898 90.104,146.889 90.623,151.377 95.11,150.862 91.141,155.871 90.417,155.3 
		92.968,152.085 89.763,152.451 89.393,149.242 86.848,152.464 	"/>
	<polygon fill="#FFFFFF" points="99.334,154.214 103.434,157.467 102.447,158.714 101.727,158.137 102.149,157.609 99.48,155.492 
		98.344,156.926 99.769,158.056 99.198,158.776 97.773,157.652 96.646,159.068 99.313,161.185 99.731,160.65 100.452,161.228 
		99.461,162.469 95.355,159.217 97.053,157.069 96.516,156.646 97.084,155.933 97.621,156.361 	"/>
	<polygon fill="#FFFFFF" points="103.232,165.474 107.208,160.471 108.226,166.517 110.787,163.302 111.5,163.872 107.521,168.875 
		106.503,162.823 103.949,166.032 	"/>
	<polygon fill="#FFFFFF" points="113.815,173.866 113.096,173.295 116.51,169.006 115.436,168.161 115.02,168.688 114.296,168.124 
		115.287,166.87 119.579,170.284 118.589,171.526 117.872,170.955 118.288,170.428 117.22,169.576 	"/>
	
		<rect x="132.386" y="31.514" transform="matrix(-0.781 -0.6245 0.6245 -0.781 214.9198 144.78)" fill="#FFFFFF" width="0.914" height="6.392"/>
	<polygon fill="#FFFFFF" points="136.234,41.507 140.214,36.507 141.226,42.563 143.788,39.347 144.502,39.918 140.518,44.918 
		139.513,38.866 136.948,42.075 	"/>
	<polygon fill="#FFFFFF" points="153.534,47.119 154.322,47.746 147.843,50.753 149.332,43.764 150.12,44.387 149.034,49.254 	"/>
	<polygon fill="#FFFFFF" points="159.108,51.554 159.815,52.128 155.837,57.127 155.117,56.557 	"/>
	<polygon fill="#FFFFFF" points="163.267,63.043 162.553,62.476 165.955,58.192 164.9,57.342 164.471,57.863 163.757,57.295 
		164.744,56.051 169.027,59.468 168.04,60.713 167.32,60.138 167.749,59.611 166.681,58.76 	"/>
	<path fill="#FFFFFF" d="M173.261,67.503l1.726-0.832l-0.416,1.878L173.261,67.503z M172.497,66.892l-0.727-0.578l-0.571,0.714
		l0.36,0.286l-1.862,0.862l0.795,0.63l1.875-0.854l1.968,1.574l-0.441,1.996l0.807,0.636l1.484-6.99L172.497,66.892z"/>
	<polygon fill="#FFFFFF" points="181.913,77.9 181.193,77.333 184.607,73.049 183.533,72.199 183.111,72.727 182.404,72.159 
		183.391,70.914 187.681,74.325 186.681,75.573 185.974,75.004 186.396,74.477 185.321,73.621 	"/>
	<polygon fill="#FFFFFF" points="192.584,78.242 193.305,78.807 189.319,83.81 188.599,83.238 	"/>
	<path fill="#FFFFFF" d="M199.002,89.579c-0.651,0.068-1.241-0.102-1.757-0.512c-0.509-0.407-0.8-0.935-0.875-1.586
		c-0.074-0.655,0.093-1.232,0.503-1.744c0.403-0.512,0.932-0.798,1.577-0.872c0.651-0.075,1.234,0.096,1.743,0.503
		c0.522,0.407,0.813,0.934,0.888,1.589c0.081,0.655-0.08,1.238-0.49,1.744C200.182,89.216,199.654,89.504,199.002,89.579
		 M199.102,90.479c0.899-0.1,1.633-0.503,2.197-1.21c0.559-0.711,0.794-1.515,0.683-2.418c-0.1-0.903-0.503-1.632-1.217-2.2
		c-0.707-0.565-1.514-0.801-2.408-0.695c-0.9,0.099-1.639,0.506-2.203,1.21c-0.565,0.71-0.795,1.518-0.689,2.417
		c0.1,0.9,0.503,1.636,1.217,2.201C197.388,90.346,198.195,90.582,199.102,90.479"/>
	<polygon fill="#FFFFFF" points="204.136,95.625 208.127,90.628 209.132,96.68 211.696,93.465 212.41,94.033 208.425,99.036 
		207.419,92.981 204.855,96.193 	"/>
	<polygon fill="#FFFFFF" points="134.895,174.89 130.927,169.874 137.06,170.26 134.509,167.044 135.217,166.473 139.189,171.476 
		133.063,171.097 135.614,174.318 	"/>
	<polygon fill="#FFFFFF" points="141.87,161.197 145.979,157.944 146.967,159.192 146.247,159.763 145.831,159.229 143.149,161.346 
		144.298,162.779 145.72,161.649 146.284,162.369 144.856,163.5 145.986,164.921 148.661,162.805 148.239,162.277 148.96,161.712 
		149.953,162.959 145.838,166.2 144.143,164.064 143.603,164.493 143.038,163.772 143.577,163.351 	"/>
	<polygon fill="#FFFFFF" points="157.625,148.714 160.157,154.847 156.464,153.121 157.302,157.125 151.901,153.245 
		152.727,152.588 155.781,154.834 155.148,151.464 158.283,152.849 156.787,149.366 	"/>
	<polygon fill="#FFFFFF" points="177.681,140.967 176.96,141.539 175.88,140.179 170.853,138.224 171.635,137.604 175.626,139.118 
		175.073,134.878 175.861,134.257 176.606,139.608 	"/>
	<path fill="#FFFFFF" d="M188.581,130.385c-0.081,0.65-0.379,1.186-0.895,1.595c-0.509,0.403-1.093,0.57-1.745,0.49
		c-0.65-0.068-1.178-0.366-1.582-0.875c-0.403-0.509-0.571-1.093-0.496-1.738c0.08-0.658,0.372-1.179,0.887-1.589
		c0.51-0.403,1.093-0.577,1.745-0.503c0.657,0.068,1.191,0.366,1.595,0.875S188.654,129.726,188.581,130.385 M189.48,130.496
		c0.105-0.906-0.125-1.707-0.683-2.415c-0.565-0.714-1.298-1.117-2.197-1.223c-0.9-0.105-1.707,0.131-2.421,0.688
		c-0.714,0.565-1.123,1.298-1.229,2.197c-0.099,0.906,0.131,1.707,0.695,2.415c0.559,0.714,1.284,1.118,2.19,1.224
		c0.9,0.099,1.707-0.131,2.421-0.689C188.972,132.128,189.368,131.396,189.48,130.496"/>
	<path fill="#FFFFFF" d="M195.645,122.066l-1.136-1.428l1.954-1.558c0.187-0.149,0.41-0.205,0.652-0.187
		c0.261,0.024,0.472,0.137,0.633,0.342c0.155,0.192,0.211,0.422,0.192,0.67c-0.03,0.255-0.136,0.459-0.335,0.608L195.645,122.066
		 M198.17,121.229c0.392-0.317,0.621-0.727,0.677-1.229c0.05-0.503-0.08-0.949-0.385-1.334c-0.311-0.392-0.72-0.614-1.223-0.677
		c-0.496-0.056-0.95,0.068-1.334,0.379l-2.682,2.122l1.7,2.148l-0.533,0.428l0.564,0.721l0.547-0.429l1.693,2.142l0.715-0.571
		l-1.694-2.142l1.073-0.844l2.806,1.254l0.845-0.671L198.17,121.229z"/>
	<polygon fill="#FFFFFF" points="203.738,112.147 204.452,111.582 206.159,113.736 206.693,113.314 206.842,109.689 
		207.767,108.956 207.617,113.152 211.752,113.953 210.82,114.698 207.265,114.034 206.729,114.45 208.425,116.591 207.711,117.156 
		206.016,115.021 205.477,115.449 204.905,114.729 205.445,114.301 	"/>
	<path fill="none" stroke="#F7941E" stroke-width="1.7829" d="M124.979,166.088v21.278 M124.979,19.633v21.282 M20.434,103.452
		h21.281 M208.177,103.452h21.278"/>
	<path fill="none" stroke="#000000" stroke-width="7.1952" stroke-miterlimit="5" d="M119.014,65.56c0,0-15.866-14.09-34.211,5.062
		c0,0,14.183,9.094,34.897-2.051L119.014,65.56z"/>
	<path fill="#00904C" d="M119.014,65.56c0,0-15.866-14.09-34.211,5.062c0,0,14.183,9.094,34.897-2.051L119.014,65.56"/>
	<path fill="none" stroke="#000000" stroke-width="7.7927" d="M84.356,85.849c0,0,7.073-21.415,36.84-18.811
		c0,0,36.838-11.577,45.094,19.392C166.29,86.429,89.074,102.925,84.356,85.849z"/>
	<path fill="#ED1C24" d="M84.356,85.849c0,0,7.073-21.415,36.84-18.811c0,0,36.838-11.577,45.094,19.392
		C166.29,86.429,89.074,102.925,84.356,85.849"/>
	<path fill="#F7941E" d="M111.935,72.683l-3.463-2.43c0,0-21.35,5.639-20.224,23.883C88.248,94.136,91.901,76.86,111.935,72.683"/>
	<path d="M111.892,72.671c0.757,0.316,13.02,12.209,22.847-1.139C134.738,71.532,124.631,78.012,111.892,72.671"/>
	<path fill="none" stroke="#000000" stroke-width="4.9928" stroke-linejoin="round" d="M122.028,59.524l-5.217-0.456
		c0,0,4.714,12.163,5.167,15.071l2.188,1.021C124.166,75.16,122.208,61.693,122.028,59.524z"/>
	<path fill="#00904C" d="M122.484,59.524l-5.674-0.456c0,0,5.177,13.941,5.043,15.596l2.765,0.497
		C124.619,75.16,121.981,61.821,122.484,59.524"/>
	<path d="M82.143,125.107c0,0,16.372,25.208,46.072,23.477c0,0,25.14,0.875,40.285-24.376
		C168.5,124.208,92.323,110.086,82.143,125.107"/>
	<path fill="#F7941E" d="M87.702,124.953c0,0,11.483,18.938,36.632,20.378c0,0,26.824,1.148,38.381-20.819l-7.442-29.15
		l-51.708-4.162L87.702,124.953"/>
	<path d="M165.253,113.836c0,0-34.264,9.074-40.994,27.23c0,0-1.015,3.179,0.935,6.599l4.989-0.074c0,0-5.582-2.129-3.168-7.853
		C127.015,139.738,129.04,129.298,165.253,113.836"/>
	<path d="M94.691,111.955c0,0,13.5,35.548,55.671,27.367l-5.214,3.061C145.148,142.383,104.62,147.882,94.691,111.955"/>
	<path d="M127.233,102.49c0,0,0.188,21.265-14.976,32.543c0,0-7.182,7.045-12.3,3.582l4.491,3.309c0,0,0.041,2.092,10.978-6.798
		C115.426,135.126,131.132,122.104,127.233,102.49"/>
	<polygon fill="#FFFFFF" points="72.851,119.646 78,117.237 78,93.937 72.696,91.51 89.862,91.51 102.45,108.46 102.45,93.815 
		96.74,91.51 115.42,91.51 109.914,93.996 109.914,119.72 101.392,119.72 85.548,98.275 85.548,117.001 91.371,119.658 	"/>
	<polygon fill="none" stroke="#000000" stroke-width="11.2187" stroke-linejoin="round" points="72.851,119.646 78,117.237 
		78,93.937 72.696,91.51 89.862,91.51 102.45,108.46 102.45,93.815 96.74,91.51 115.42,91.51 109.914,93.996 109.914,119.72 
		101.392,119.72 85.548,98.275 85.548,117.001 91.371,119.658 	"/>
	<polygon fill="#FFFFFF" points="118.39,91.575 124.291,93.918 124.291,117.001 118.27,119.664 139.94,119.72 134.037,116.777 
		134.037,94.216 140.058,91.519 	"/>
	<polygon fill="none" stroke="#000000" stroke-width="11.2187" stroke-linejoin="round" points="118.39,91.575 124.291,93.918 
		124.291,117.001 118.27,119.664 139.94,119.72 134.037,116.777 134.037,94.216 140.058,91.519 	"/>
	<polygon fill="#FFFFFF" points="172.59,119.664 150.921,119.664 156.824,117.38 156.824,93.335 151.101,93.335 143.894,101.335 
		142.361,101.335 142.361,91.519 181.02,91.519 181.02,101.444 179.443,101.444 172.298,93.369 166.575,93.369 166.575,117.156 	"/>
	<polygon fill="none" stroke="#000000" stroke-width="11.2187" stroke-linejoin="round" points="172.59,119.664 150.921,119.664 
		156.824,117.38 156.824,93.335 151.101,93.335 143.894,101.335 142.361,101.335 142.361,91.519 181.02,91.519 181.02,101.444 
		179.443,101.444 172.298,93.369 166.575,93.369 166.575,117.156 	"/>
	<polygon fill="#FFFFFF" points="72.851,119.646 78,117.237 78,93.937 72.696,91.51 89.862,91.51 102.45,108.46 102.45,93.815 
		96.74,91.51 115.42,91.51 109.914,93.996 109.914,119.72 101.392,119.72 85.548,98.275 85.548,117.001 91.371,119.658 	"/>
	<polygon fill="none" stroke="#F7941E" stroke-width="4.2078" stroke-linejoin="round" points="72.851,119.646 78,117.237 
		78,93.937 72.696,91.51 89.862,91.51 102.45,108.46 102.45,93.815 96.74,91.51 115.42,91.51 109.914,93.996 109.914,119.72 
		101.392,119.72 85.548,98.275 85.548,117.001 91.371,119.658 	"/>
	<polygon fill="#FFFFFF" points="118.39,91.575 124.291,93.918 124.291,117.001 118.27,119.664 139.94,119.72 134.037,116.777 
		134.037,94.216 140.058,91.519 	"/>
	<polygon fill="none" stroke="#F7941E" stroke-width="4.2078" stroke-linejoin="round" points="118.39,91.575 124.291,93.918 
		124.291,117.001 118.27,119.664 139.94,119.72 134.037,116.777 134.037,94.216 140.058,91.519 	"/>
	<polygon fill="#FFFFFF" points="172.59,119.664 150.921,119.664 156.824,117.38 156.824,93.335 151.101,93.335 143.894,101.335 
		142.361,101.335 142.361,91.519 181.02,91.519 181.02,101.444 179.443,101.444 172.298,93.369 166.575,93.369 166.575,117.156 	"/>
	<polygon fill="none" stroke="#F7941E" stroke-width="4.2078" stroke-linejoin="round" points="172.59,119.664 150.921,119.664 
		156.824,117.38 156.824,93.335 151.101,93.335 143.894,101.335 142.361,101.335 142.361,91.519 181.02,91.519 181.02,101.444 
		179.443,101.444 172.298,93.369 166.575,93.369 166.575,117.156 	"/>
	<polygon fill="#FFFFFF" points="72.851,119.646 78,117.237 78,93.937 72.696,91.51 89.862,91.51 102.45,108.46 102.45,93.815 
		96.74,91.51 115.42,91.51 109.914,93.996 109.914,119.72 101.392,119.72 85.548,98.275 85.548,117.001 91.371,119.658 	"/>
	<polygon fill="#FFFFFF" points="118.39,91.575 124.291,93.918 124.291,117.001 118.27,119.664 139.94,119.72 134.037,116.777 
		134.037,94.216 140.058,91.519 	"/>
	<polygon fill="#FFFFFF" points="172.59,119.664 150.921,119.664 156.824,117.38 156.824,93.335 151.101,93.335 143.894,101.335 
		142.361,101.335 142.361,91.519 181.02,91.519 181.02,101.444 179.443,101.444 172.298,93.369 166.575,93.369 166.575,117.156 	"/>
	<polygon fill="#FFFFFF" points="41.843,98.201 37.889,93.177 44.015,93.586 41.476,90.349 42.2,89.784 46.144,94.815 
		40.021,94.402 42.557,97.633 	"/>
	<path fill="#FFFFFF" d="M52.622,86.233l-0.413-1.871l1.732,0.838L52.622,86.233z M51.858,86.835l-0.735,0.571l0.568,0.723
		l0.357-0.28l0.419,2.002l0.785-0.624l-0.397-2.014l1.99-1.561l1.843,0.884l0.801-0.633l-6.464-3.054L51.858,86.835z"/>
	<polygon fill="#FFFFFF" points="66.2,79.058 65.48,79.623 62.094,75.318 61.023,76.159 61.439,76.69 60.713,77.258 59.735,76.004 
		64.046,72.624 65.027,73.872 64.307,74.437 63.885,73.906 62.814,74.75 	"/>
	
		<rect x="72.323" y="66.624" transform="matrix(-0.7851 0.6193 -0.6193 -0.7851 173.1642 79.566)" fill="#FFFFFF" width="0.913" height="6.395"/>
	<path fill="#FFFFFF" d="M84.418,62.804c-0.084,0.652-0.382,1.18-0.9,1.586c-0.515,0.407-1.099,0.571-1.748,0.488
		c-0.646-0.072-1.176-0.37-1.576-0.879c-0.4-0.512-0.568-1.096-0.488-1.747c0.075-0.649,0.376-1.179,0.894-1.58
		c0.509-0.404,1.096-0.568,1.75-0.494c0.652,0.071,1.179,0.363,1.586,0.878C84.337,61.569,84.499,62.155,84.418,62.804
		 M85.318,62.919c0.108-0.9-0.118-1.71-0.677-2.418c-0.559-0.711-1.285-1.121-2.188-1.226c-0.9-0.108-1.71,0.118-2.424,0.677
		c-0.711,0.562-1.118,1.291-1.232,2.191c-0.112,0.903,0.112,1.707,0.673,2.424c0.559,0.711,1.291,1.118,2.191,1.223
		c0.897,0.108,1.71-0.115,2.424-0.677C84.797,64.552,85.209,63.822,85.318,62.919"/>
	<polygon fill="#FFFFFF" points="92.95,58.037 89.002,53.012 95.122,53.428 92.587,50.194 93.31,49.629 97.255,54.654 
		91.125,54.245 93.667,57.475 	"/>
	<path fill="#FFFFFF" d="M103.732,46.073l-0.413-1.868l1.731,0.832L103.732,46.073z M102.965,46.678l-0.729,0.571l0.562,0.72
		l0.364-0.283l0.413,2.005l0.788-0.621l-0.4-2.018l1.99-1.561l1.843,0.882l0.801-0.627l-6.465-3.05L102.965,46.678z"/>
	<polygon fill="#FFFFFF" points="110.936,35.778 111.652,35.213 115.038,39.524 117.552,37.547 117.136,37.013 117.853,36.445 
		118.837,37.699 114.886,40.806 	"/>
	<polygon points="79.943,124.108 83.189,124.556 84.663,128.242 	"/>
	<path d="M166.011,123.755c0.235,0.074,3.941,0.708,3.941,0.708l-3.706,3.712L166.011,123.755"/>
</g>
</svg>
