<?xml version="1.0" encoding="UTF-8" standalone="no"?>
<svg
   xmlns="http://www.w3.org/2000/svg"
   xmlns:sodipodi="http://sodipodi.sourceforge.net/DTD/sodipodi-0.dtd"
   xmlns:inkscape="http://www.inkscape.org/namespaces/inkscape"
   version="1.1"
   width="1000"
   height="1000">
  <rect
     style="fill:#000000"
     width="1000"
     height="1000"
     x="0"
     y="0"
     id="background" />
  <circle
     style="stroke:#5e9f41;stroke-width:62"
     cx="500"
     cy="500"
     r="389" />
  <rect
     style="fill:#000000"
     id="cross_left"
     width="60"
     height="1414.2136"
     x="-30"
     y="0"
     transform="matrix(0.70710678,-0.70710678,0.70710678,0.70710678,0,0)" />
  <rect
     transform="matrix(-0.70710678,-0.70710678,0.70710678,-0.70710678,0,0)"
     y="-707.10675"
     x="-737.10675"
     height="1414.2136"
     width="60"
     id="cross_right"
     style="fill:#000000" />
  <path
     sodipodi:type="star"
     style="fill:#5e9f41"
     id="star"
     sodipodi:sides="5"
     sodipodi:cx="500"
     sodipodi:cy="510"
     sodipodi:r1="315"
     sodipodi:r2="120"
     sodipodi:arg1="-1.5707963"
     sodipodi:arg2="-0.9424778"
     inkscape:flatsided="false"
     inkscape:rounded="0"
     inkscape:randomized="0"
     d="M 500,195 570.53423,412.91796 799.58281,412.65965 614.12678,547.08204 685.15235,764.84036 500,630 314.84764,764.84035 385.87322,547.08204 200.4172,412.65964 l 229.04857,0.25832 z"
     inkscape:transform-center-y="-30.116161" />
  <circle
     style="fill:#000000"
     id="joystick_ball"
     cx="500"
     cy="438.5"
     r="35.5" />
  <rect
     style="fill:#000000"
     id="joystick_stick"
     width="24"
     height="58"
     x="488"
     y="472" />
  <rect
     style="fill:#000000"
     id="joystick_base"
     width="150"
     height="67.71138"
     x="425"
     y="529"
     rx="10" />
</svg>
