<svg id="bd20a9b0-cdad-4030-9c8a-a31cdbdc86dd" data-name="Layer 1" xmlns="http://www.w3.org/2000/svg" viewBox="0 0 126.9 127"><title>crew</title><path d="M126.9,63.5A63.45,63.45,0,1,1,63.5,0a63.52572,63.52572,0,0,1,63.4,63.5" fill="#fff"/><path d="M63.5,6.6a56.9,56.9,0,1,0,56.9,56.9A56.80425,56.80425,0,0,0,63.5,6.6m0,93.4A36.5,36.5,0,1,1,100,63.5,36.51073,36.51073,0,0,1,63.5,100" fill="#010202"/><path d="M63.5,29.6a33.80072,33.80072,0,1,0,23.9,9.9,34.00859,34.00859,0,0,0-23.9-9.9m17.7,8.3L65.4,53.7q0.15-2.85.3-5.4L78,35.9a34.47025,34.47025,0,0,1,3.2,2m-6.8-3.6L65.8,43V41.2a16.26063,16.26063,0,0,0-2.6-.7l7.3-7.3c1.3,0.3,2.7.7,3.9,1.1m-10.9-2a22.60238,22.60238,0,0,1,2.6.1l-7.3,7.3a10.86886,10.86886,0,0,0-1.8-.1H53.8l7.1-7.1a21.1154,21.1154,0,0,1,2.6-.2m1.9,62.2H63.5a31.07534,31.07534,0,0,1-13.8-3.2V79.7l-7,6.9c-0.4-.4-0.9-0.8-1.3-1.2A16.60466,16.60466,0,0,1,40.1,84L54.6,69.5l-0.8-.4a21.48135,21.48135,0,0,1-2.6-1.4L37.9,81.2A20.74183,20.74183,0,0,1,36,78L48,66c-1.1-.7-2.2-1.3-3.2-2L34.4,74.4a26.42828,26.42828,0,0,1-1.2-4l9.2-9.2c-0.2-1.5-.3-3.1-0.5-4.7L32.5,66a43.38814,43.38814,0,0,1,0-5.1l9.1-9.1c-0.1-1.8-.2-3.4-0.2-4.9l-7.7,7.7A31.01262,31.01262,0,0,1,54.6,33.7L48.2,40A28.68259,28.68259,0,0,0,43,41.2c-0.1,3.9.1,8.5,0.4,13.2,0.2,2.3.4,4.6,0.6,6.8,1.6,1.1,3.3,2.3,5.2,3.4q2.55,1.5,5.1,2.7,2.55-1.2,5.1-2.7a51.92562,51.92562,0,0,0,5.2-3.4c0.1-.6.1-1.3,0.2-1.9L83.9,40.2a16.60529,16.60529,0,0,1,1.4,1.3,15.3788,15.3788,0,0,1,1.2,1.3l-37,37H65.2V94.5h0.2Zm29.2-31v0.6H80.9V79.8H90a31.39575,31.39575,0,0,1-4.5,5.7A30.42707,30.42707,0,0,1,81,89.2V79.7H65.4V64H80.9V48.5h9.8a30.75265,30.75265,0,0,1,3.9,15" fill="#010202"/><path d="M63.5,3.8A59.6501,59.6501,0,1,0,123,63.5,59.66342,59.66342,0,0,0,63.5,3.8m0,116.6a56.9,56.9,0,1,1,56.9-56.9,56.868,56.868,0,0,1-56.9,56.9" fill="#f9e528"/><path d="M27.7,39.3l-6-5c-1.8-1.5-1.2-3.3-.1-4.6l1.5-1.8c1.1-1.3,3-2.7,4.8-1.1l6,5c1.9,1.5.9,3.7-.2,5l-1.5,1.8c-1.1,1.2-2.7,2.2-4.5.7m1-2.6c1.1,0.9,1.6.6,2.1-.1l0.7-.8a1.59916,1.59916,0,0,0,0-2.5l-4.7-3.9a1.25152,1.25152,0,0,0-2.1.2l-0.9,1.1a1.2742,1.2742,0,0,0,.2,2.1Z" fill="#fff"/><path d="M84.9,29.8l-5.1-3.1L87,14.8l4.9,3c1.5,0.9,2.8,2.4,1.4,4.7l-0.4.5a2.47633,2.47633,0,0,1-2.7,1.4,2.84487,2.84487,0,0,1,.1,3.5l-0.5.9c-1.5,2.3-3.4,1.9-4.9,1m2.5-2.5,0.7-1.2a1.069,1.069,0,0,0-.3-1.6c-0.2-.1.4,0.2-2.6-1.6l-1.8,3L86,27.5a0.87281,0.87281,0,0,0,1.4-.2M90.3,22l0.4-.7a0.97142,0.97142,0,0,0-.3-1.6L88,18.3l-1.6,2.6,2.4,1.5a0.96311,0.96311,0,0,0,1.5-.4" fill="#fff"/><path d="M32.5,100.6L31,106.3l-2.4-1.9,1.6-5.7-1.1-1-3.6,3.9-1.9-1.9,9.2-10.1L37,93.8c1.2,1.1,2.1,2.9.4,4.8l-1,1.1c-1.2,1.4-2.4,1.7-3.9.9m2-2.7,0.9-1c0.6-.7.4-1.1-0.2-1.7l-2-1.9-2.4,2.6,2.1,1.9c0.6,0.6,1,.7,1.6.1" fill="#fff"/><polygon points="68.3 103.1 66 111.6 64.4 104.3 61.4 104.2 59.6 111.1 57.8 103 54.7 102.5 57.9 117 60.9 117.2 62.8 110.2 64.3 117.3 67.5 117.1 71.4 102.6 68.3 103.1" fill="#fff"/><polygon points="68.3 103.1 66 111.6 64.4 104.3 61.4 104.2 59.6 111.1 57.8 103 54.7 102.5 57.9 117 60.9 117.2 62.8 110.2 64.3 117.3 67.5 117.1 71.4 102.6 68.3 103.1" fill="none" stroke="#000" stroke-miterlimit="10" stroke-width="0.088"/><path d="M41.3,109.8c0.3,0.1,1.9.9,2.6,1.1a27.89716,27.89716,0,0,0,3.4,1.2l-1,2.3s-2.7-1-4.4-1.7c-1.9-.9-3.9-1.9-3.9-1.9L43.3,98s1.5,0.9,3.6,1.9c1.8,0.8,3.3,1.3,3.9,1.5,0,0.2-.1,2.5-0.1,2.5s-1.8-.6-3.2-1.2c-1.2-.5-2.7-1.2-2.7-1.2l-1.2,2.8c0.5,0.3,1.3.6,2.1,1,1.1,0.5,2.5,1,2.5,1l-1,2.2s-1.1-.4-2.1-0.8-2.5-1.1-2.5-1.1Z" fill="#fff"/><path d="M39.5,31.4l-7-12,2.3-1.5,5.7,9.9a38.4486,38.4486,0,0,1,4.9-2.7l1.1,2.1s-1.9.9-3.6,1.9c-1.5,1-2.6,1.7-3.4,2.3" fill="#fff"/><path d="M94.5,97c-1.7,1-2.8,2-3.3,1.4l-0.5-.6c-0.8-1-.6-1.4.3-2.3,0.3-.3,1.1-1,1.1-1,0.7-.6,1.2-0.9,2-0.1l0.5,0.5,2-1.8-0.9-1h0a2.75987,2.75987,0,0,0-2.9-1c-0.2.1-.5,0.2-0.7,0.3a4.43979,4.43979,0,0,0-1.1.8l-1.8,1.6-0.4.4a3.35049,3.35049,0,0,0-1.4,3,2.5737,2.5737,0,0,0,.7,1.5l0.1,0.2,0.5,0.6,1.1,1.3c1.5,1.7,4.3-.6,5.9-1.5,1.3-.7,1.9-1.1,2.6-0.3l0.2,0.3a1.30857,1.30857,0,0,1,.5,1.1,3.37747,3.37747,0,0,1-.7,1.1,15.55644,15.55644,0,0,0-1.2,1.1,1.212,1.212,0,0,1-2,.1l-0.6-.7-2,1.8,1.2,1.3h0a2.59769,2.59769,0,0,0,2,1,3.37111,3.37111,0,0,0,1.7-.5,6.07053,6.07053,0,0,0,1-.7l1.8-1.6,0.5-.5c1.2-1,2-2.5,1-4.1,0-.1-0.1-0.1-0.1-0.2h0a0.378,0.378,0,0,0-.2-0.2l-0.1-.1a10.56635,10.56635,0,0,1-1-1.2,2.18142,2.18142,0,0,1-.4-0.5c-2-1.9-3.4-.7-5.4.5" fill="#fff"/><path d="M104.6,80.7l-1.1-.6c-2.1-1.2-3.6.1-4.4,1.5l-1.5,2.6c-0.8,1.4-1.2,3.3.9,4.5l2.8,1.6,1.1,0.6,2.8,1.6c2.1,1.2,3.5,0,4.4-1.5l1.5-2.6c0.8-1.4,1.2-3.4-.9-4.6l-1.3-.7-1.4,2.3,0.6,0.3c1.2,0.7,1,1.3.6,2l-0.9,1.5c-0.4.7-.9,1.2-2.1,0.5l-2-1.2-1.1-.6-2-1.2c-1.2-.7-1-1.3-0.6-2l0.9-1.5c0.4-.7.9-1.2,2.1-0.5l0.3,0.2Z" fill="#fff"/><path d="M18.9,41.1l-1.2-.4c-2.2-.8-3.5.7-4.1,2.3l-1,2.8c-0.6,1.6-.6,3.5,1.6,4.3l3,1.1,1.2,0.4,3,1.1c2.2,0.8,3.5-.6,4-2.2l1-2.8c0.6-1.6.6-3.5-1.6-4.4l-1.4-.5-0.9,2.5,0.6,0.2c1.3,0.5,1.2,1.1.9,1.9L23.4,49c-0.3.8-.7,1.3-1.9,0.8L19.3,49l-1.2-.4L16,47.8c-1.3-.5-1.2-1.1-0.9-1.9l0.6-1.6c0.3-.8.7-1.3,1.9-0.8L18,43.6Z" fill="#fff"/><path d="M26.8,88.5l1.1-.6c2.1-1.2,1.7-3.1.9-4.6l-1.5-2.6C26.5,79.2,25,78,23,79.2l-2.8,1.6-1.2.6L16.2,83c-2.1,1.2-1.8,3-.9,4.5l1.5,2.6c0.8,1.5,2.3,2.7,4.4,1.6l1.3-.7-1.3-2.4-0.6.3c-1.2.7-1.6,0.2-2.1-.5l-0.9-1.5a1.21539,1.21539,0,0,1,.6-2l2-1.2,1.1-.6,2-1.2c1.2-.7,1.6-0.2,2.1.5l0.9,1.5a1.21539,1.21539,0,0,1-.6,2l-0.3.2Z" fill="#fff"/><path d="M108.8,47.3c-0.3-1.9-.9-3.3-0.1-3.6l0.7-.3c1.3-.4,1.5-0.3,2,1a12.25224,12.25224,0,0,0,.5,1.3c0.3,0.8.4,1.4-.7,1.9l-0.6.2,0.9,2.5,1.2-.5a2.83825,2.83825,0,0,0,2-2.3V46.8a6.10615,6.10615,0,0,0-.3-1.3l-0.9-2.3-0.2-.5a3.46838,3.46838,0,0,0-2.3-2.4,2.96836,2.96836,0,0,0-1.6.1l-0.2.1-0.7.3-1.6.6c-2.1.8-1,4.2-.7,6,0.2,1.4.3,2.2-.6,2.5l-0.3.1a1.74924,1.74924,0,0,1-1.2.1,3.46655,3.46655,0,0,1-.8-1.1c-0.1-.3-0.6-1.5-0.6-1.5-0.3-.8-0.4-1.4.7-1.9l0.9-.4-0.9-2.5-1.6.6h0a2.64558,2.64558,0,0,0-1.6,1.5,3.20992,3.20992,0,0,0-.2,1.7c0.1,0.4.2,0.8,0.3,1.1l0.8,2.3,0.2,0.6c0.5,1.4,1.6,2.7,3.4,2.4a0.36738,0.36738,0,0,0,.3-0.1h0c0.1,0,.2-0.1.3-0.1h0.1c0.1-.1.5-0.2,1.4-0.6a4.16959,4.16959,0,0,1,.6-0.2c2.3-.6,1.7-2.4,1.4-4.6" fill="#fff"/><path d="M71.3,16.5l4-5.6c1.3,0.3,3,.7,3,0.7L75.9,25.2l-2.7-.6,1.4-8.1L71.2,21l-1.5-.2-1.6-5.4-1.4,8.2L64,23.4,66.4,9.7c0.9,0,2.2.2,3.1,0.3Z" fill="#fff"/><path d="M47.3,12.1l2.6-.7L52,21c0.3,1.3.9,1.4,1.8,1.2l1.5-.3c0.9-.2,1.4-0.5,1.1-1.8l-2.1-9.7L57,10l2.3,10.3c0.5,2.4-1.1,3.4-2.8,3.8l-2.7.6c-1.7.4-3.6,0.1-4.1-2.2Z" fill="#fff"/><path d="M101.1,25l1.9,1.9-7.5,6.4c-1,.9-0.8,1.5-0.2,2.1l1,1.1c0.6,0.7,1.1,1,2.1.1l7.5-6.4,1.6,2.2-8,6.8c-1.8,1.6-3.5.6-4.6-.7l-1.8-2.1c-1.1-1.3-1.8-3.1,0-4.7Z" fill="#fff"/><path d="M49.2,60.7h1.7a2.26987,2.26987,0,0,0,2.6-2.4v-12c0-2.4-1.8-2.7-2.9-2.7H49.2a2.57835,2.57835,0,0,0-2.9,2.7v4.5c0,2.4,1.8,2.7,2.9,2.7h1a2.95844,2.95844,0,0,0,1-.2l0.2-.1v4.3c0,1.2-.5,1.4-1.2,1.4H49.7c-0.8,0-1.2-.2-1.2-1.4V55.8H46.6v2.5a2.26988,2.26988,0,0,0,2.6,2.4M51.4,50c0,1.3-.5,1.5-1.4,1.5H49.8c-0.9,0-1.4-.3-1.4-1.5V47c0-1.3.5-1.6,1.4-1.6H50c0.8,0,1.4.3,1.4,1.6v3Z" fill="#fff"/><path d="M59.7,43.5H58a2.26987,2.26987,0,0,0-2.6,2.4v12c0,2.4,1.8,2.7,2.9,2.7h1.4a2.57835,2.57835,0,0,0,2.9-2.7V53.4c0-2.4-1.8-2.7-2.9-2.7h-1a3.5529,3.5529,0,0,0-1,.2l-0.2.1V47.4h0V46.7c0-1.2.5-1.4,1.2-1.4h0.5c0.8,0,1.2.2,1.2,1.4v1.7h1.9V45.9a2.26987,2.26987,0,0,0-2.6-2.4M57.5,54.2c0-1.3.5-1.5,1.4-1.5h0.2c0.9,0,1.4.3,1.4,1.5v2.9c0,1.3-.5,1.6-1.4,1.6H58.8c-0.8,0-1.4-.3-1.4-1.6V54.2h0.1Z" fill="#fff"/><polygon points="104.6 118 103.9 118 103.9 115.4 103 115.4 103 114.9 105.5 114.9 105.5 115.4 104.6 115.4 104.6 118" fill="#010202"/><polygon points="106.5 118 105.9 118 105.9 114.9 106.9 114.9 107.4 117 108 114.9 108.9 114.9 108.9 118 108.4 118 108.4 115.5 107.7 118 107.1 118 106.5 115.5 106.5 118" fill="#010202"/><path d="M49.7,91.4a30.76269,30.76269,0,0,0,13.8,3.2h1.9V79.8H49.7V91.4Z" fill="#f9e528"/><path d="M85.5,41.5a16.60466,16.60466,0,0,0-1.4-1.3L64.9,59.3c-0.1.6-.1,1.3-0.2,1.9-1.6,1.1-3.3,2.3-5.2,3.4q-2.55,1.5-5.1,2.7-2.55-1.2-5.1-2.7a51.92563,51.92563,0,0,1-5.2-3.4c-0.3-2.2-.5-4.5-0.6-6.8a122.78788,122.78788,0,0,1-.4-13.2A28.68259,28.68259,0,0,1,48.3,40l6.3-6.3a31.41,31.41,0,0,0-13.1,7.8,30.57833,30.57833,0,0,0-7.8,13.1l7.7-7.7c0,1.6.1,3.2,0.2,4.9l-9.1,9.1a43.38814,43.38814,0,0,0,0,5.1l9.4-9.4c0.1,1.6.3,3.2,0.5,4.7l-9.2,9.2a30.37907,30.37907,0,0,0,1.2,4L44.8,64c1,0.7,2.1,1.3,3.2,2L36,78a33.71231,33.71231,0,0,0,1.9,3.2L51.2,67.9c0.9,0.5,1.7.9,2.6,1.4l0.8,0.4L40.2,84.1a16.6053,16.6053,0,0,0,1.3,1.4,15.3788,15.3788,0,0,0,1.3,1.2l7-6.9,37-37-1.3-1.3" fill="#f9e528"/><path d="M85.5,85.5A29.65019,29.65019,0,0,0,90,79.8H80.9v9.4a41.36462,41.36462,0,0,0,4.6-3.7" fill="#f9e528"/><path d="M53.9,39.6H57c0.6,0,1.2.1,1.8,0.1l7.3-7.3a22.60238,22.60238,0,0,0-2.6-.1,22.60234,22.60234,0,0,0-2.6.1l-7.1,7.1Z" fill="#f9e528"/><path d="M65.8,41.1v1.8l8.6-8.6a26.42828,26.42828,0,0,0-4-1.2l-7.3,7.3a25.57552,25.57552,0,0,1,2.7.7" fill="#f9e528"/><path d="M65.4,53.7L81.2,37.9a34.47025,34.47025,0,0,0-3.2-2L65.7,48.2c-0.1,1.8-.2,3.6-0.3,5.5" fill="#f9e528"/><rect x="65.4" y="64" width="15.5" height="15.7" fill="#f9e528"/><path d="M94.6,63.5a30.95365,30.95365,0,0,0-3.8-15H81V64H94.6V63.5" fill="#f9e528"/><path d="M63.5,26.9A36.5,36.5,0,1,0,100,63.4,36.51073,36.51073,0,0,0,63.5,26.9M87.4,87.4a33.799,33.799,0,1,1,9.9-23.9,33.5881,33.5881,0,0,1-9.9,23.9" fill="#f9e528"/><path d="M63.5,1.1a62.3501,62.3501,0,1,0,62.2,62.4A62.35214,62.35214,0,0,0,63.5,1.1m0,122a59.6,59.6,0,1,1,59.6-59.6,59.62072,59.62072,0,0,1-59.6,59.6" fill="#010202"/></svg>