<svg id="bst-logo" xmlns="http://www.w3.org/2000/svg" width="48.72" height="62.19" viewBox="0 0 48.72 62.19">
  <title>logo</title>
  <g id="background">
    <path d="M24.36,0,24,.07,1.2,5,0,5.25V57.09l1.21.25L24,62.12l.31.07.31-.07,22.86-4.78,1.21-.25V5.25L47.52,5,24.67.07Zm-.22,61.63L1.31,56.85l-.81-.17v-51l.8-.17L24.14.56l.21,0,.21,0L47.41,5.48l.8.17v51l-.81.17L24.55,61.63l-.21,0Z" style="fill: #0a141f"/>
    <path d="M24.57.56l-.21,0-.21,0L1.31,5.49l-.8.17v51l.81.17,22.82,4.78.21,0,.21,0,22.86-4.78.81-.17v-51l-.8-.17Zm-23,5.91L24.36,1.56,47.2,6.48V55.85L24.34,60.63,1.52,55.85Z" style="fill: #231f20"/>
    <path d="M24.57,1.05l-.21,0-.21,0L1.67,5.89l-.79.17V56.27l.79.17,22.46,4.7.2,0,.21,0L47,56.44l.79-.16V6.06L47,5.89ZM1.88,6.87,24.36,2,46.84,6.87V55.46l-22.5,4.7L1.88,55.46Z" style="fill: #6b5224"/>
    <polygon points="24.36 1.55 1.52 6.47 1.52 55.85 24.34 60.63 47.2 55.85 47.2 6.47 24.36 1.55" style="fill: #0a141f"/>
  </g>
  <path id="trademark" d="M44.56,59.46v.89h-.19v-.89h-.28v-.17h.76v.17Zm1.28.89v-.7l-.23.45h-.18l-.22-.45v.7H45V59.29h.19l.31.61.31-.61H46v1.06Z" style="fill: #231f20"/>
  <g id="circular_bolts" data-name="circular bolts">
    <path d="M24.36,5.58a1.14,1.14,0,1,0-1.15-1.15,1.15,1.15,0,0,0,1.15,1.15m-.23-.35A1,1,0,0,0,25,3.61,1,1,0,1,1,23.53,5a1,1,0,0,0,.6.2" style="fill: #231f20"/>
    <path d="M24.36,5.46A1,1,0,0,0,25,3.61,1,1,0,0,1,23.53,5a1,1,0,0,0,.83.42" style="fill: #0a141f"/>
    <path d="M3.85,7A1.33,1.33,0,1,0,5.18,8.35,1.33,1.33,0,0,0,3.85,7m0,2.47A1.14,1.14,0,1,1,5,8.35,1.15,1.15,0,0,1,3.85,9.49" style="fill: #6b5224"/>
    <path d="M4.45,7.52A1,1,0,0,1,3,8.95,1,1,0,1,0,4.45,7.52" style="fill: #0a141f"/>
    <path d="M3.85,7.2A1.14,1.14,0,1,0,5,8.35,1.15,1.15,0,0,0,3.85,7.2m0,2.17A1,1,0,0,1,3,8.95,1,1,0,0,0,4.45,7.52a1,1,0,0,1-.6,1.85" style="fill: #231f20"/>
    <path d="M24.36,3.11a1.33,1.33,0,1,0,1.33,1.33,1.33,1.33,0,0,0-1.33-1.33m0,2.47A1.14,1.14,0,1,1,25.5,4.44a1.15,1.15,0,0,1-1.15,1.14" style="fill: #6b5224"/>
    <path d="M25,3.61A1,1,0,0,1,23.53,5,1,1,0,1,0,25,3.61" style="fill: #0a141f"/>
    <path d="M24.36,3.29A1.14,1.14,0,1,0,25.5,4.44a1.15,1.15,0,0,0-1.15-1.15m0,2.17A1,1,0,0,1,23.53,5,1,1,0,0,0,25,3.61a1,1,0,0,1-.6,1.85" style="fill: #231f20"/>
    <path d="M44.87,7.12A1.33,1.33,0,1,0,46.2,8.45a1.33,1.33,0,0,0-1.33-1.33m0,2.47A1.14,1.14,0,1,1,46,8.45a1.15,1.15,0,0,1-1.15,1.14" style="fill: #6b5224"/>
    <path d="M45.47,7.62A1,1,0,0,1,44,9a1,1,0,1,0,1.43-1.43" style="fill: #0a141f"/>
    <path d="M44.87,7.3A1.14,1.14,0,1,0,46,8.45,1.15,1.15,0,0,0,44.87,7.3m0,2.17A1,1,0,0,1,44,9a1,1,0,0,0,1.43-1.43,1,1,0,0,1-.6,1.85" style="fill: #231f20"/>
    <path d="M3.85,52.81a1.33,1.33,0,1,0,1.33,1.33,1.33,1.33,0,0,0-1.33-1.33m0,2.47A1.14,1.14,0,1,1,5,54.14a1.15,1.15,0,0,1-1.15,1.14" style="fill: #6b5224"/>
    <path d="M4.45,53.31A1,1,0,0,1,3,54.74a1,1,0,1,0,1.43-1.43" style="fill: #0a141f"/>
    <path d="M3.85,53A1.14,1.14,0,1,0,5,54.14,1.15,1.15,0,0,0,3.85,53m0,2.17A1,1,0,0,1,3,54.74a1,1,0,0,0,1.43-1.43,1,1,0,0,1-.6,1.85" style="fill: #231f20"/>
    <path d="M44.87,52.81a1.33,1.33,0,1,0,1.33,1.33,1.33,1.33,0,0,0-1.33-1.33m0,2.47A1.14,1.14,0,1,1,46,54.14a1.15,1.15,0,0,1-1.15,1.14" style="fill: #6b5224"/>
    <path d="M45.47,53.31A1,1,0,0,1,44,54.74a1,1,0,1,0,1.43-1.43" style="fill: #0a141f"/>
    <path d="M44.87,53A1.14,1.14,0,1,0,46,54.14,1.15,1.15,0,0,0,44.87,53m0,2.17a1,1,0,0,1-.83-.42,1,1,0,0,0,1.43-1.43,1,1,0,0,1-.6,1.85" style="fill: #231f20"/>
    <path d="M44.87,53A1.14,1.14,0,1,0,46,54.14,1.15,1.15,0,0,0,44.87,53m0,2.17a1,1,0,0,1-.83-.42,1,1,0,0,0,1.43-1.43,1,1,0,0,1-.6,1.85" style="fill: #231f20"/>
  </g>
  <g id="text_divider" data-name="text divider">
    <rect x="3.24" y="16.86" width="42.27" height="0.46" style="fill: #571226"/>
    <rect x="3.24" y="17.09" width="42.27" height="0.23" style="fill: #910d24"/>
  </g>
  <g id="STEEL">
    <path d="M8.33,21c-.59-.11-1.11-.12-1.11-.85s.46-.74,1-.74c1,0,1.42.29,1.5,1.3h1v-2.4c-.9,0-1.78-.12-2.68-.12-1.73,0-2.85.24-2.85,2.21a2,2,0,0,0,.52,1.58,6.46,6.46,0,0,0,2.38.78c.26.05.76.14.91.38a.76.76,0,0,1,.12.45c0,.78-.53.89-1.2.89-1.26,0-1.6-.6-1.72-1.74h-1v2.93a2.55,2.55,0,0,1,.85-.12c.8,0,1.6.14,2.4.14,1.79,0,2.65-.43,2.65-2.33s-1.18-2-2.8-2.34" style="fill: #231f20"/>
    <path d="M14.12,18.29a4.36,4.36,0,0,1-1.24-.16v2.35h.9l0-.11c.05-.59.22-1,.88-1,.43,0,.55.13.55.56v3.79c0,.81-.2,1-1,1v.72h4v-.72c-.79,0-1-.22-1-1V20c0-.45.07-.55.54-.55.73,0,.82.43.9,1.07h.9V18.13a4.39,4.39,0,0,1-1.35.16Z" style="fill: #231f20"/>
    <path d="M21.21,24.78v.72h6.27V23.18h-.9a1.57,1.57,0,0,1-.33,1,.93.93,0,0,1-.76.21h-.83c-.18,0-.41,0-.48-.24a1.67,1.67,0,0,1,0-.47V22.4h1.48a3.45,3.45,0,0,1,.76.05V21.18a3,3,0,0,1-.69.07H24.16V19.88c0-.54.35-.51.8-.51,1,0,1.33.1,1.44,1.14h.89V18.15a5.24,5.24,0,0,1-1.36.14H21.21V19c.77,0,.94.27.94,1v3.72c0,.76-.18,1-.94,1" style="fill: #231f20"/>
    <path d="M34.31,24.2a.94.94,0,0,1-.76.21h-.83c-.18,0-.41,0-.48-.24a1.67,1.67,0,0,1,0-.47V22.4H33.7a3.49,3.49,0,0,1,.76.05V21.18a2.92,2.92,0,0,1-.69.07H32.22V19.88c0-.54.34-.51.8-.51,1,0,1.33.1,1.44,1.14h.89V18.15a5.25,5.25,0,0,1-1.36.14H29.27V19c.77,0,.94.27.94,1v3.72c0,.76-.18,1-.94,1v.72h6.27V23.18h-.9a1.56,1.56,0,0,1-.32,1" style="fill: #231f20"/>
    <path d="M41.51,24.42H41c-.52,0-.74,0-.74-.59V20c0-.77.17-1,.95-1v-.72H37.33V19c.77,0,.94.27.94,1v3.72c0,.76-.18,1-.94,1v.72h6.16V23.18h-.9c0,.81-.21,1.24-1.08,1.24" style="fill: #231f20"/>
    <g id="L">
      <path d="M39.28,19v5.4c0,.71,1,.71,1,.71h2.29a.43.43,0,0,0,.36-.28l-.6-.72a1,1,0,0,1-.83.29h-.48c-.52,0-.75,0-.75-.59V20c0-.77.17-1,.95-1v-.36h-.95c-1,0-1,.36-1,.36" style="fill: #231f20"/>
      <path d="M39.28,19s0-.36,1-.36h.95v-.37H37.35v.37h.94c1,0,1,.36,1,.36" style="fill: #231f20"/>
      <path d="M43,24.41V23.18h-.43a1.6,1.6,0,0,1-.25,1l.6.72a1,1,0,0,0,.08-.43" style="fill: #6b5224"/>
      <path d="M43,23.18v1.24a1,1,0,0,1-.08.43l.54.65V23.18Z" style="fill: #231f20"/>
      <path d="M39.28,24.41V19s0-.36-1-.36h-.94V19c.77,0,.94.27.94,1v3.72c0,.76-.18,1-.94,1v.35h.94s1,0,1-.71" style="fill: #6b5224"/>
      <path d="M42.61,25.12H40.31s-1,0-1-.71c0,.73-1,.71-1,.71h-.94v.38h6.16L43,24.85a.43.43,0,0,1-.36.28" style="fill: #6b5224"/>
    </g>
    <g id="E_2" data-name="E 2">
      <path d="M34.48,21.82v-.64a3,3,0,0,1-.69.07H32.24l-1.07.58Z" style="fill: #231f20"/>
      <path d="M32.25,22.4h1.47a3.45,3.45,0,0,1,.76.06v-.64h-3.3Z" style="fill: #6b5224"/>
      <path d="M31.17,19.37v2.45l1.07-.58h0V19.88a.47.47,0,0,1,.15-.41l-.92-.63a.72.72,0,0,0-.3.53" style="fill: #231f20"/>
      <path d="M31.17,24.41s0,.72,1.07.72h2.41a.42.42,0,0,0,.32-.21l-.68-.68a1,1,0,0,1-.72.17h-.83c-.18,0-.41,0-.48-.24a1.63,1.63,0,0,1,0-.46V22.4h0l-1.08-.58Z" style="fill: #231f20"/>
      <path d="M34.47,18.63H32.25a1.27,1.27,0,0,0-.77.21l.92.63a1.15,1.15,0,0,1,.64-.1c.61,0,1,0,1.19.32l.58-.79a.42.42,0,0,0-.35-.27" style="fill: #6b5224"/>
      <path d="M35.09,24.41V23.18h-.43a1.57,1.57,0,0,1-.32,1l0,0,.68.68a.94.94,0,0,0,.12-.51" style="fill: #6b5224"/>
      <path d="M34.9,19.37v1.14h.46V18.15l-.55.75a1.09,1.09,0,0,1,.09.47" style="fill: #231f20"/>
      <path d="M34.66,25.13H32.25c-1.07,0-1.07-.72-1.07-.72,0,.71-.94.72-.94.72h-.94v.37h6.27L35,24.91a.42.42,0,0,1-.32.21" style="fill: #6b5224"/>
      <path d="M34.81,18.9l-.58.8a1.61,1.61,0,0,1,.24.81h.43V19.37a1.08,1.08,0,0,0-.09-.47" style="fill: #6b5224"/>
      <path d="M31.17,24.41v-5c0-.71,0-.74-.94-.74h-.94V19c.77,0,.94.27.94,1v3.72c0,.76-.18,1-.94,1v.35h.94s.94,0,.94-.72" style="fill: #6b5224"/>
      <path d="M35.09,23.18v1.23a.94.94,0,0,1-.12.51l.58.58V23.18Z" style="fill: #231f20"/>
      <path d="M31.17,19.37a.72.72,0,0,1,.3-.53h0a1.27,1.27,0,0,1,.77-.21h2.22a.42.42,0,0,1,.35.27l.55-.75a5.25,5.25,0,0,1-1.36.14H29.29v.34h.94c.94,0,.94,0,.94.74" style="fill: #231f20"/>
    </g>
    <g id="E_1" data-name="E 1">
      <path d="M26.41,21.82v-.64a3,3,0,0,1-.69.07H24.18l-1.07.58Z" style="fill: #231f20"/>
      <path d="M24.19,22.4h1.47a3.45,3.45,0,0,1,.76.06v-.64h-3.3Z" style="fill: #6b5224"/>
      <path d="M23.11,19.37v2.45l1.07-.58h0V19.88a.47.47,0,0,1,.15-.41l-.92-.63a.72.72,0,0,0-.3.53" style="fill: #231f20"/>
      <path d="M23.11,24.41s0,.72,1.07.72h2.41a.42.42,0,0,0,.32-.21l-.68-.68a1,1,0,0,1-.72.17h-.83c-.18,0-.41,0-.48-.24a1.63,1.63,0,0,1,0-.46V22.4h0l-1.08-.58Z" style="fill: #231f20"/>
      <path d="M26.4,18.63H24.18a1.27,1.27,0,0,0-.77.21l.92.63a1.14,1.14,0,0,1,.64-.1c.61,0,1,0,1.19.32l.58-.79a.42.42,0,0,0-.35-.27" style="fill: #6b5224"/>
      <path d="M27,24.41V23.18H26.6a1.57,1.57,0,0,1-.33,1l0,0,.68.68a.93.93,0,0,0,.12-.51" style="fill: #6b5224"/>
      <path d="M26.84,19.37v1.14h.46V18.15l-.55.75a1.09,1.09,0,0,1,.09.47" style="fill: #231f20"/>
      <path d="M26.59,25.13H24.18c-1.07,0-1.07-.72-1.07-.72,0,.71-.94.72-.94.72h-.94v.37h6.27l-.58-.58a.42.42,0,0,1-.32.21" style="fill: #6b5224"/>
      <path d="M26.75,18.9l-.58.8a1.61,1.61,0,0,1,.24.81h.43V19.37a1.08,1.08,0,0,0-.09-.47" style="fill: #6b5224"/>
      <path d="M23.11,24.41v-5c0-.71,0-.74-.94-.74h-.94V19c.77,0,.94.27.94,1v3.72c0,.76-.18,1-.94,1v.35h.94s.94,0,.94-.72" style="fill: #6b5224"/>
      <path d="M27,23.18v1.23a.93.93,0,0,1-.12.51l.58.58V23.18Z" style="fill: #231f20"/>
      <path d="M23.11,19.37a.72.72,0,0,1,.3-.53h0a1.27,1.27,0,0,1,.77-.21H26.4a.42.42,0,0,1,.35.27l.55-.75a5.26,5.26,0,0,1-1.36.14H21.23v.34h.94c.94,0,.94,0,.94.74" style="fill: #231f20"/>
    </g>
    <g id="T">
      <path d="M13.37,19.4v1.09h.44l0-.11a1.37,1.37,0,0,1,.21-.7L13.51,19c-.14,0-.14.15-.14.45" style="fill: #231f20"/>
      <path d="M16.25,18.94H13.92a1.88,1.88,0,0,0-.41,0l.53.72a.77.77,0,0,1,.66-.27.75.75,0,0,1,.37.07l1.17-.54Z" style="fill: #6b5224"/>
      <path d="M16.24,25h0a.65.65,0,0,1,0-.18.72.72,0,0,1,0,.19" style="fill: #231f20"/>
      <path d="M13.92,18.93h2.33v-.64h-2.1a4.32,4.32,0,0,1-1.24-.16h0l.6.82a1.89,1.89,0,0,1,.41,0" style="fill: #231f20"/>
      <path d="M18.6,18.93a1.28,1.28,0,0,1,.4,0l.59-.83a4.38,4.38,0,0,1-1.35.16h-2v.64Z" style="fill: #231f20"/>
      <path d="M16.25,24.78V18.94h0l-1.17.54c.14.08.18.23.18.5v3.79c0,.47-.07.72-.29.86l1.27.34a.72.72,0,0,0,0-.19" style="fill: #6b5224"/>
      <path d="M13.51,19l-.6-.82v2.35h.46V19.4c0-.3,0-.41.14-.45" style="fill: #6b5224"/>
      <path d="M19,19l-.52.73a1.74,1.74,0,0,1,.22.8h.41V19.4c0-.28,0-.39-.11-.44" style="fill: #6b5224"/>
      <path d="M19,19c.11,0,.11.16.11.44v1.09h.49V18.13h0Z" style="fill: #231f20"/>
      <path d="M18.6,18.93H16.25l1.17.53a.84.84,0,0,1,.38-.06.76.76,0,0,1,.68.27L19,19a1.28,1.28,0,0,0-.4,0" style="fill: #6b5224"/>
      <path d="M16.24,25,15,24.62a1.4,1.4,0,0,1-.72.15v.35h1c.79,0,1,0,1-.16" style="fill: #231f20"/>
      <path d="M16.27,25h0c0,.15-.23.16-1,.16h-1v.37h4v-.37h-.89c-.86,0-1.06,0-1.11-.17" style="fill: #6b5224"/>
      <path d="M16.25,22.27v2.51a.61.61,0,0,0,0,.18l1.23-.38c-.17-.15-.24-.4-.24-.82V20c0-.28,0-.42.16-.49l-1.17-.53Z" style="fill: #231f20"/>
      <path d="M17.37,25.13h.89v-.35a1.22,1.22,0,0,1-.77-.2L16.27,25c0,.15.24.17,1.11.17" style="fill: #231f20"/>
    </g>
    <g id="S">
      <path d="M9.48,19a2,2,0,0,0-.42.49c.43.16.65.51.7,1.18h.51c0-.54.06-1.33-.79-1.67" style="fill: #6b5224"/>
      <path d="M10.28,20.67h.52V18.29a4.2,4.2,0,0,0-1.31.7c.85.35.81,1.13.79,1.67" style="fill: #231f20"/>
      <path d="M9.48,19a2.88,2.88,0,0,0-1.09-.18,5,5,0,0,0-1.19.11,3.16,3.16,0,0,1,.44.52,1.88,1.88,0,0,1,.62-.08,2.31,2.31,0,0,1,.8.11A2,2,0,0,1,9.48,19" style="fill: #6b5224"/>
      <path d="M8.39,18.82A2.88,2.88,0,0,1,9.48,19a4.21,4.21,0,0,1,1.31-.7v0c-.9,0-1.78-.12-2.68-.12a5.13,5.13,0,0,0-1.77.22,2.85,2.85,0,0,1,.86.56,5,5,0,0,1,1.19-.11" style="fill: #231f20"/>
      <path d="M6.45,21.29a2.71,2.71,0,0,0,1.9.52c1,0,1.69.32,1.69,1.51a2,2,0,0,1-.2,1,4.1,4.1,0,0,1,.84.71,2.48,2.48,0,0,0,.48-1.71c0-2-1.18-2-2.8-2.34-.41-.08-.79-.1-1-.36a2.45,2.45,0,0,0-.92.69" style="fill: #231f20"/>
      <path d="M7.2,18.93c-1,.24-1,.86-1,1.74a.91.91,0,0,0,.22.62,2.45,2.45,0,0,1,.92-.7.8.8,0,0,1-.13-.49.61.61,0,0,1,.4-.66,3.12,3.12,0,0,0-.44-.52" style="fill: #231f20"/>
      <path d="M6.79,24.09a2.07,2.07,0,0,1-.53-1.4H5.73c0,1.1,0,1.68.28,2a7.24,7.24,0,0,1,.78-.6" style="fill: #231f20"/>
      <path d="M6,24.68c-.27-.31-.28-.9-.28-2H5.25v2.93h0A2.94,2.94,0,0,1,6,24.68" style="fill: #6b5224"/>
      <path d="M9.84,24.3c-.28.5-.9.72-2.06.72-1,0-1.5,0-1.76-.35a2.94,2.94,0,0,0-.75.93,2.57,2.57,0,0,1,.84-.12c.8,0,1.6.14,2.4.14A2.78,2.78,0,0,0,10.67,25a4.1,4.1,0,0,0-.83-.71" style="fill: #6b5224"/>
      <path d="M6.23,20.67c0-.88,0-1.49,1-1.74a2.86,2.86,0,0,0-.86-.56c-.68.26-1.08.82-1.08,2a2,2,0,0,0,.52,1.58,1.67,1.67,0,0,0,.29.19,1.92,1.92,0,0,1,.38-.83.91.91,0,0,1-.22-.62" style="fill: #6b5224"/>
      <path d="M7.77,25c1.17,0,1.78-.23,2.06-.72a3.64,3.64,0,0,0-.72-.36c-.16.42-.6.49-1.13.49a1.72,1.72,0,0,1-1.19-.34,7.33,7.33,0,0,0-.78.59c.26.3.77.34,1.76.34" style="fill: #231f20"/>
      <path d="M10,23.33c0-1.13-.65-1.44-1.69-1.51a3.59,3.59,0,0,1-1.9-.52,1.92,1.92,0,0,0-.38.83,9,9,0,0,0,2.09.59c.26.05.75.16.9.4a.7.7,0,0,1,.11.43,1.11,1.11,0,0,1-.07.4,3.61,3.61,0,0,1,.74.36,2,2,0,0,0,.2-1" style="fill: #6b5224"/>
    </g>
  </g>
  <g id="ball">
    <path d="M25.21,53.54c-.79.39-1.47.93-2.21,1.39-.08.05,0,.1,0,.16.11.24.23.48.33.72s.1.16.23.08a21.12,21.12,0,0,1,3.26-1.8s.06,0,.06-.06l0-.07c-.46-.69-.79-.79-1.55-.45l-.07,0" style="fill: #231f20"/>
    <path d="M27.26,54.8c-.26-.65-.13-.56-.7-.32A20.51,20.51,0,0,0,24,55.95c-.15.09-.38.16-.42.29s.11.32.16.49.07.13.19.1A11,11,0,0,0,26,56.09a4.11,4.11,0,0,0,1.25-.87c0-.05.12-.1.11-.19s0-.15-.07-.23m-.46.51h0a.06.06,0,0,1-.06,0l-.08-.14-.18.15.09.16a.06.06,0,0,1,0,.09h0a.07.07,0,0,1-.06,0l-.09-.15-.22.13.09.16a.07.07,0,0,1,0,.09h0a.06.06,0,0,1-.06,0L26,55.54l-.25.13.08.16a.07.07,0,0,1,0,.09h0a.06.06,0,0,1-.06,0l-.08-.17-.27.12.08.17a.07.07,0,0,1,0,.09h0a.07.07,0,0,1-.06,0l-.21-.47a.07.07,0,1,1,.12-.05l.08.18.27-.11-.09-.18a.07.07,0,1,1,.12-.06l.09.18.25-.12-.09-.17a.06.06,0,0,1,0-.09.07.07,0,0,1,.09,0l.09.17.21-.12-.1-.18a.06.06,0,0,1,0-.09.07.07,0,0,1,.09,0l.1.17a1,1,0,0,0,.18-.16l-.1-.19a.07.07,0,0,1,0-.09.07.07,0,0,1,.09,0l.24.45a.07.07,0,0,1,0,.09" style="fill: #231f20"/>
    <path d="M24,57.07c-.13,0-.15.07-.1.19s.21.51.31.77c0,.08.06.11.16.08.46-.12.91-.24,1.36-.4a3.44,3.44,0,0,0,1.15-.65,1.33,1.33,0,0,0,.51-.93,4.5,4.5,0,0,0,0-.7,4.53,4.53,0,0,1-.94.7,10.29,10.29,0,0,1-2.45.94" style="fill: #231f20"/>
    <path d="M23.89,58.4c.07-.07.15-.14.1-.27-.39-.92-.73-1.86-1.15-2.77a.44.44,0,0,0-.49-.31c-.15,0-.21,0-.18.19a.72.72,0,0,1,0,.09,5.5,5.5,0,0,0,1.24,3c.22.28.23.28.48,0" style="fill: #231f20"/>
    <path d="M21.91,55.42c0-.38,0-.37-.4-.29a.25.25,0,0,0-.23.24,3.11,3.11,0,0,0,1.84,3.25s.07,0,.11,0-.08-.14-.12-.2a5.73,5.73,0,0,1-1.2-3" style="fill: #231f20"/>
    <path d="M23.88,54a.12.12,0,0,0,.14,0l.63-.41a1.83,1.83,0,0,0-2.71.34h0a2.38,2.38,0,0,1,1.91.08" style="fill: #231f20"/>
    <path d="M22.62,54.8a.24.24,0,0,0,.16,0l.9-.59A.64.64,0,0,0,23.4,54a2.42,2.42,0,0,0-1.44.11.73.73,0,0,0-.54.72,4,4,0,0,1,1.2-.08" style="fill: #231f20"/>
    <path d="M24.85,53.34c.06.05.11,0,.17,0a3.17,3.17,0,0,1,.75-.26,2.81,2.81,0,0,0-2.24-.25l.05,0a2.31,2.31,0,0,1,1.27.49" style="fill: #231f20"/>
    <path d="M25.3,58.12c-.5.21-1.12.14-1.44.69a1.08,1.08,0,0,0,1.44-.69" style="fill: #231f20"/>
    <path d="M25.65,58.06c-.05.12-.1.23-.16.34s-.13.2-.21.31c.5-.14.9-.35,1-.92l-.51.2s-.08,0-.1.07" style="fill: #231f20"/>
    <path d="M26.87,57.42a.52.52,0,0,0-.33.5,1.84,1.84,0,0,0,.37-.46.14.14,0,0,0,.06-.12.14.14,0,0,0-.11.07" style="fill: #231f20"/>
    <path d="M24.26,53.79a2.05,2.05,0,0,0-2.24,0l-.08.13h0a2.39,2.39,0,0,1,1.91.08.12.12,0,0,0,.14,0l.24-.15" style="fill: #6b5224"/>
    <path d="M23.68,52.77l-.15.06.06,0a2.3,2.3,0,0,1,1.26.49c.06.05.11,0,.17,0l.28-.12a2.28,2.28,0,0,0-1.62-.45" style="fill: #6b5224"/>
    <path d="M21.49,54.56a1,1,0,0,0-.07.32,4,4,0,0,1,1.2-.08.24.24,0,0,0,.16,0l.34-.23a2.72,2.72,0,0,0-1.63,0" style="fill: #6b5224"/>
    <path d="M26.87,54l0-.07-.16-.22a12.14,12.14,0,0,0-3.49,1.77l.14.31c.06.13.1.16.24.08a21.17,21.17,0,0,1,3.26-1.8s.06,0,.07-.06" style="fill: #6b5224"/>
    <path d="M27.28,54.88h0a2.42,2.42,0,0,1-.45.38.06.06,0,0,1,0,.05h-.05l-.21.13h0a.06.06,0,0,1,0,.09h0a.07.07,0,0,1-.06,0h0l-.23.12v0a.06.06,0,0,1,0,.09h0a.06.06,0,0,1-.06,0v0l-.26.13v0a.07.07,0,0,1,0,.09h0a.07.07,0,0,1-.06,0v0l-.28.12,0,0a.07.07,0,0,1,0,.09h0a.06.06,0,0,1-.06,0l0,0c-.72.29-1.41.5-1.67.58l.06.13c0,.1.07.13.19.1A11,11,0,0,0,26,56.09a4.11,4.11,0,0,0,1.25-.87.41.41,0,0,0,.1-.13.17.17,0,0,0,0-.06l0-.16" style="fill: #6b5224"/>
    <path d="M27.41,56.07c-.52.94-2.77,1.45-3.34,1.57l.15.39c0,.08.06.11.16.08.46-.12.91-.24,1.36-.4a3.45,3.45,0,0,0,1.15-.65,1.33,1.33,0,0,0,.51-.93v-.06" style="fill: #6b5224"/>
    <path d="M26.75,57.49a.51.51,0,0,0-.2.43,1.69,1.69,0,0,0,.22-.24l0-.19" style="fill: #6b5224"/>
    <path d="M25.76,58s-.08,0-.1.07-.1.23-.16.34-.13.2-.21.31l.27-.09a1,1,0,0,0,.4-.71l-.19.07" style="fill: #6b5224"/>
    <path d="M23.86,58.81a1.46,1.46,0,0,0,.47.06,1.28,1.28,0,0,0,.42-.59,1.22,1.22,0,0,0-.89.53" style="fill: #6b5224"/>
    <path d="M23.78,58.52A9.46,9.46,0,0,1,22.35,55h0c-.14,0-.21,0-.18.19a.49.49,0,0,1,0,.09,5.51,5.51,0,0,0,1.24,3c.19.23.22.27.36.13" style="fill: #6b5224"/>
    <path d="M21.51,55.13h0a.25.25,0,0,0-.23.24,3.11,3.11,0,0,0,1.84,3.25.1.1,0,0,0,.11,0,4.53,4.53,0,0,1-1.71-3.49" style="fill: #6b5224"/>
  </g>
  <g id="FC_16" data-name="FC 16">
    <g id="_6" data-name="6">
      <path d="M31.69,56.74a.67.67,0,0,0,.76-.76c0-.5-.17-.93-.89-.57l.06.14a.47.47,0,0,1,.23-.08c.24,0,.24.28.24.45s0,.6-.38.6h0v.22h0" style="fill: #571226"/>
      <path d="M30.91,55.9c0,.56.27.84.77.84v-.22c-.36,0-.38-.43-.38-.7a1.67,1.67,0,0,1,.7-1.45l-.1-.16c-1,.79-1,1.19-1,1.7" style="fill: #910d24"/>
      <path d="M30.91,55.9c0-.52,0-.91,1-1.7l-.08-.13a1.79,1.79,0,0,0-1.25,1.77A1,1,0,0,0,31.69,57v-.23c-.51,0-.77-.28-.77-.84" style="fill: #571226"/>
      <path d="M32.1,55a1,1,0,0,0-.62.21l.07.16c.72-.36.89.07.89.57a.67.67,0,0,1-.76.76h0V57h0c.73,0,1.11-.32,1.11-1.05,0-.49-.14-.88-.7-.88" style="fill: #910d24"/>
    </g>
    <g id="_1" data-name="1">
      <polygon points="29.79 56.79 29.06 56.79 28.79 56.79 28.63 56.79 28.63 56.92 30.22 56.92 30.22 56.79 29.79 56.79" style="fill: #571226"/>
      <path d="M29.43,56.54v.11s0,.14.36.14h.43v-.13a.55.55,0,0,1-.35-.08c-.09-.08-.08-.22-.08-.33v-2h-.33a.89.89,0,0,1-.86.44v.15a2.16,2.16,0,0,0,.82-.16Z" style="fill: #910d24"/>
      <path d="M29.43,56.65s0,.14-.36.14h.73c-.36,0-.36-.14-.36-.14" style="fill: #910d24"/>
      <path d="M29.06,56.79c.37,0,.36-.14.36-.14v-2a2.17,2.17,0,0,1-.82.16V55a1.8,1.8,0,0,0,.46-.06v1.26c0,.37-.07.44-.44.44v.13h.43Z" style="fill: #571226"/>
    </g>
    <g id="C">
      <path d="M18.93,54.45a1.39,1.39,0,0,0-.66.13.47.47,0,0,0,.18.27.59.59,0,0,1,.5-.18.5.5,0,0,1,.54.3,1.74,1.74,0,0,1,.05.29h.17v-.54c0-.25-.29-.27-.79-.27" style="fill: #571226"/>
      <path d="M18.27,54.58a.7.7,0,0,0-.36.68c0,.49-.08,1.49.94,1.49a1.23,1.23,0,0,0,1-.48l-.13-.11a1,1,0,0,1-.76.36c-.63,0-.69-.4-.69-.93a2.1,2.1,0,0,1,0-.45.65.65,0,0,1,.12-.29.47.47,0,0,1-.18-.27" style="fill: #910d24"/>
      <path d="M18.27,54.58a1.38,1.38,0,0,1,.66-.13c.5,0,.78,0,.78.27v.54h.18v-1l-.36,0-.6,0a2.62,2.62,0,0,0-.65.07.57.57,0,0,0,0,.29" style="fill: #910d24"/>
      <path d="M19.88,56.27a1.23,1.23,0,0,1-1,.48c-1,0-.94-1-.94-1.49a.71.71,0,0,1,.36-.67.57.57,0,0,1,0-.29c-.52.14-.76.49-.76,1.24a1.56,1.56,0,0,0,.37,1.17,1.44,1.44,0,0,0,1,.27A1.15,1.15,0,0,0,20,56.38Z" style="fill: #571226"/>
    </g>
    <g id="F">
      <path d="M15.65,56.73l-.37-.13a.54.54,0,0,1-.22,0v.11h.34a.8.8,0,0,0,.26,0" style="fill: #910d24"/>
      <path d="M15.86,56.73h0c-.11,0-.11-.09-.11-.09h0s0,.05-.1.09a.85.85,0,0,1-.26,0h-.33v.15h1.45v-.15h-.38a.84.84,0,0,1-.27,0" style="fill: #571226"/>
      <path d="M15.75,56.64h0v-2a.27.27,0,0,0-.09-.2l-.28.23a.64.64,0,0,1,0,.22v1.36c0,.18,0,.27-.12.32l.37.13c.1,0,.1-.09.1-.09" style="fill: #571226"/>
      <path d="M15.39,54.4h-.34v.15c.19,0,.28.05.32.16l.28-.23a.39.39,0,0,0-.26-.08" style="fill: #571226"/>
      <path d="M16.13,56.76h.38v-.12a.61.61,0,0,1-.26,0l-.39.13a.85.85,0,0,0,.27,0" style="fill: #910d24"/>
      <path d="M16.95,55.57v-.23a1,1,0,0,1-.23,0h-.58l-.39.21Z" style="fill: #910d24"/>
      <path d="M17.27,54.23a1.68,1.68,0,0,1-.51.06h-1.7v.11h.33a.39.39,0,0,1,.27.08.27.27,0,0,1,.09.2.28.28,0,0,1,.11-.2h0a.44.44,0,0,1,.28-.08h.8s.16,0,.16.28v.41h.17Z" style="fill: #910d24"/>
      <path d="M15.75,56.64s0,.05.11.09l.39-.12c-.09,0-.12-.14-.12-.33v-.5h0l-.39-.21Z" style="fill: #910d24"/>
      <path d="M16.94,54.4h-.8a.43.43,0,0,0-.28.08l.33.24h0a.56.56,0,0,1,.22,0c.34,0,.51,0,.54.41h.15v-.41c0-.28-.16-.28-.16-.28" style="fill: #571226"/>
      <path d="M16.14,55.78h.63l.18,0v-.23h-1.2Z" style="fill: #571226"/>
      <path d="M15.75,54.68v.89l.39-.21v-.41c0-.06,0-.19.05-.23l-.33-.24a.28.28,0,0,0-.11.2" style="fill: #910d24"/>
    </g>
  </g>
  <g id="outline">
    <polygon points="47.63 6.03 47.63 6.14 48.23 5.66 47.43 5.49 24.59 0.56 24.38 0.52 24.38 1.02 47.63 6.03" style="fill: #231f20"/>
    <polygon points="1.13 6.03 24.38 1.02 24.38 1.02 24.38 0.52 24.38 0.52 24.16 0.56 1.33 5.49 0.53 5.66 0.53 5.66 1.13 6.14 1.13 6.03" style="fill: #231f20"/>
    <polygon points="47.63 6.14 47.63 56.19 48.23 56.68 48.23 56.68 48.23 55.85 48.23 6.47 48.23 5.66 47.63 6.14" style="fill: #231f20"/>
    <polygon points="0.53 6.47 0.53 55.85 0.53 56.68 1.13 56.19 1.13 6.14 0.53 5.66 0.53 6.47" style="fill: #6b5224"/>
    <polygon points="47.63 56.19 47.63 56.3 24.38 61.16 24.38 61.67 24.57 61.63 47.43 56.85 48.23 56.68 47.63 56.19" style="fill: #6b5224"/>
    <polygon points="24.36 61.17 1.13 56.3 1.13 56.19 0.53 56.68 1.33 56.85 24.15 61.63 24.36 61.67 24.38 61.66 24.38 61.16 24.36 61.17" style="fill: #6b5224"/>
    <polygon points="47.22 6.48 47.22 6.48 47.63 6.14 47.63 6.03 24.38 1.02 24.38 1.56 47.22 6.48" style="fill: #6b5224"/>
    <polygon points="1.54 6.48 24.38 1.56 24.38 1.56 24.38 1.02 24.38 1.02 1.13 6.03 1.13 6.14 1.54 6.48" style="fill: #6b5224"/>
    <polygon points="47.22 6.47 47.22 55.85 47.63 56.19 47.63 6.14 47.22 6.47" style="fill: #6b5224"/>
    <polygon points="24.38 60.63 24.38 61.16 47.63 56.3 47.63 56.19 47.22 55.85 24.38 60.63" style="fill: #231f20"/>
    <polygon points="24.36 60.63 1.54 55.85 1.13 56.19 1.13 56.3 24.36 61.17 24.38 61.16 24.38 60.63 24.36 60.63" style="fill: #231f20"/>
    <polygon points="1.13 56.19 1.54 55.85 1.54 6.48 1.13 6.14 1.13 56.19" style="fill: #231f20"/>
  </g>
  <g id="snake">
    <g id="snake_colored" data-name="snake colored">
      <path d="M24.78,30.24a1.21,1.21,0,0,0,0,.23V47.54l0,.06s.13-.62,1.58-1V41h0V31.47a.59.59,0,0,1,0-.18c-1.44-.41-1.61-1-1.61-1" style="fill: #910d24"/>
      <path d="M24.78,47.61l0-.06v.06a1.41,1.41,0,0,0,1.6,1.28H36.92V47.71l-5.15-.19-2.14-.08-2.87-.11a.56.56,0,0,1-.29-.19l-.06-.1a.55.55,0,0,1-.06-.26v-.22c-1.45.42-1.58,1-1.58,1" style="fill: #910d24"/>
      <path d="M24.78,30.24s.17.64,1.61,1a.56.56,0,0,1,.18-.26.55.55,0,0,1,.2-.1l10.15-.46V29.26H26.35s-1.38,0-1.57,1" style="fill: #571226"/>
      <path d="M24.78,30.23a.4.4,0,0,1,0,.09,1.12,1.12,0,0,1,0,.15,1.13,1.13,0,0,1,0-.23h0" style="fill: #571226"/>
      <path d="M26.36,48.88a1.41,1.41,0,0,1-1.6-1.27s0,1.27-1.48,1.27H12.75v1.31H36.92V48.88Z" style="fill: #571226"/>
      <path d="M24.74,30.32a.48.48,0,0,0,0-.09h0c.19-1,1.57-1,1.57-1H36.92V28.2H12.75v1.07H23.25s1.37,0,1.49,1.06" style="fill: #910d24"/>
      <path d="M24.76,47.54V30.47a1.14,1.14,0,0,0,0-.15c-.09.18-.42.62-1.49.94a.49.49,0,0,1,0,.19V46.59c1.1.33,1.39.79,1.47.95" style="fill: #571226"/>
      <path d="M24.74,30.32c-.12-1-1.49-1.06-1.49-1.06H12.75v1.21l10.15.46a.58.58,0,0,1,.26.18.61.61,0,0,1,.08.14c1.08-.32,1.4-.75,1.5-.94" style="fill: #571226"/>
      <path d="M24.76,47.61v-.06c-.07-.16-.37-.62-1.47-.95v.19a.55.55,0,0,1-.06.24.56.56,0,0,1-.16.2.55.55,0,0,1-.18.09l-2.75.08-7.4.22v1.26c2.92,0,9.36.06,10.53.06a1.32,1.32,0,0,0,1.48-1.34" style="fill: #571226"/>
      <path d="M26.36,48.88a1.41,1.41,0,0,1-1.6-1.27s0,1.27-1.48,1.27H20.66v0H27.8v0Z" style="fill: #910d24"/>
      <path d="M15.83,38.78a4.43,4.43,0,0,1-1.48.86l-.16.2h0l-.16.24A5.48,5.48,0,0,1,13,41.16l0,0a35.17,35.17,0,0,0,2.81-2.36" style="fill: #231f20"/>
      <path d="M11.8,40.25l.44,0A4.16,4.16,0,0,0,14,39.94l.24-.09.16-.2a11.49,11.49,0,0,1-2.56.6" style="fill: #6b5224"/>
      <path d="M15.83,38.78h0A35.17,35.17,0,0,1,13,41.14a13.31,13.31,0,0,0,3.22-2.49L16,38.57a1.67,1.67,0,0,1-.17.21" style="fill: #6b5224"/>
      <path d="M14.35,39.64h0a4.41,4.41,0,0,0,1.48-.86,1.67,1.67,0,0,0,.18-.21l-.11,0a9.65,9.65,0,0,1-4.1,1.72A11.49,11.49,0,0,0,14.35,39.64Z" style="fill: #231f20"/>
      <path d="M20.66,35.37c.34-.62,1.94-1,2.63-1.14v-1l-.18,0a7.4,7.4,0,0,0-.74.25h0a3.32,3.32,0,0,1-.47.17,1.47,1.47,0,0,1-.68.05,2,2,0,0,0-.47-.05,2,2,0,0,0-.36,0h0A13.29,13.29,0,0,0,16,37.32l0,0c1.26.28,4.28-1.19,4.72-2m-1-.4a1.16,1.16,0,0,1,.08.78c-.1.46-1.41.43-1.64.36A11.7,11.7,0,0,1,19.69,35" style="fill: #231f20"/>
      <path d="M21.49,36a1.65,1.65,0,0,1,1-.89h.06a5.17,5.17,0,0,1,.72-.15v-.7c-.7.14-2.29.51-2.63,1.14-.43.8-3.45,2.28-4.72,2l0,0a1.68,1.68,0,0,0,1.36.67,2.52,2.52,0,0,0,1-.23,11.67,11.67,0,0,1,1.33-.48A2.33,2.33,0,0,0,21.49,36" style="fill: #6b5224"/>
      <path d="M19.78,35.75a1.16,1.16,0,0,0-.09-.78,1.3,1.3,0,0,1-.16.7,5,5,0,0,1-1.39.45c.23.06,1.54.1,1.64-.36" style="fill: #231f20"/>
      <path d="M27.21,39c-1.77,2.35-8.37,4.46-5.85,8.37l1.54,0a.54.54,0,0,0,.18-.09.55.55,0,0,0,.16-.2,2.77,2.77,0,0,1-.85-1.78c-.07-1.54,2.53-3.18,2.53-3.18l.21-.14.32-.23a11.06,11.06,0,0,0,2.5-1.85l0,0,.1-.1.25-.28,0-.05a4,4,0,0,0,.25-.35l.06-.1,0-.09A3.4,3.4,0,0,0,29,35.67l-.1-.25,0-.06,0-.06h0a4,4,0,0,0-2.53-2v1.23c.85.39,3,1.7.85,4.49" style="fill: #231f20"/>
      <path d="M27.21,39c2.1-2.79,0-4.1-.85-4.49v1.22a1.64,1.64,0,0,1,.41.72,1.71,1.71,0,0,1,0,.27,2.67,2.67,0,0,1-.06.48l0,.15v0l-.05.16h0a3.57,3.57,0,0,1-.24.48,4.33,4.33,0,0,1-1.5,1.35c-1.1.65-7.06,3.3-5,7.68a3.26,3.26,0,0,0,.23.33l1.21,0c-2.52-3.91,4.08-6,5.85-8.37" style="fill: #6b5224"/>
      <path d="M31.32,48.57h0l-.22.25a2.82,2.82,0,0,0,.22-.25" style="fill: #231f20"/>
      <path d="M31.46,48.37l0,.07,0-.07" style="fill: #231f20"/>
      <path d="M28.77,48.14l.36-.24-.36.24" style="fill: #231f20"/>
      <path d="M28.4,48.36l.28-.16-.28.16" style="fill: #231f20"/>
      <path d="M31.82,47.19h0v-.08h0v-.16l0-.11c0-.08,0-.16-.07-.24a1.7,1.7,0,0,0-.29-.49,1.57,1.57,0,0,0-.46-.37,1.89,1.89,0,0,0-.86-.22,2.92,2.92,0,0,0-.63.05,4,4,0,0,0-.51.13l-.45.17a7.75,7.75,0,0,0-.79.38,11.1,11.1,0,0,0-1.27.82l.06.1a.57.57,0,0,0,.28.19l2.85.11-2.3-.09c.65-.41,2.36,0,2.36,0l-.06.06a7.67,7.67,0,0,1-3.33,2.15,51.71,51.71,0,0,1-6.83,1.9,31.24,31.24,0,0,0,9.43-1.29,6.74,6.74,0,0,0,2.19-1.36,3.13,3.13,0,0,0,.22-.25l.1-.13,0-.07,0-.07h0l0-.06,0-.08,0,0a1.81,1.81,0,0,0,.19-.61,1.08,1.08,0,0,0,0-.14s0-.1,0-.15Z" style="fill: #231f20"/>
      <path d="M29.42,47.67h0" style="fill: #6b5224"/>
      <path d="M29.94,47c.32-.55,0-.92-3.23.3l2.94.11a5,5,0,0,0,.3-.41" style="fill: #6b5224"/>
      <path d="M29.78,47.44s.81-.59.3-1.19c0,0,.18,1.09-1.33,1.12Z" style="fill: #6b5224"/>
      <path d="M31.1,48.83l.22-.25.1-.13,0-.07,0-.07h0l0-.06,0-.08,0,0a1.81,1.81,0,0,0,.19-.61,1.1,1.1,0,0,0,0-.14s0-.1,0-.15v0h0v-.08h0v-.15l0-.11c0-.08,0-.15-.07-.24a2,2,0,0,0-.08-.18c.77,1.67-2.1,2.83-4.59,3.69a45.31,45.31,0,0,1-7.4,1.37l-.14,0a31.23,31.23,0,0,0,9.43-1.29,6.71,6.71,0,0,0,2.19-1.36" style="fill: #6b5224"/>
    </g>
    <path d="M29.64,47.44l-.47,0Z" style="fill: #6b5224"/>
    <g id="snake_black_outline" data-name="snake black outline">
      <path d="M15.89,38.61l.06,0h0l.14,0a15.24,15.24,0,0,1-2.66,2.15,4.86,4.86,0,0,0,.65-.72l.16-.24.11-.17-.19.08h0l-.24.09a4.19,4.19,0,0,1-1.6.34,9.78,9.78,0,0,0,3.57-1.61m-.05-.42-.17.12a9.41,9.41,0,0,1-3.43,1.55l-3.32.74h3.4a4.35,4.35,0,0,0,1-.12l-.1.1L10.7,42.91l2.93-1.75A15.68,15.68,0,0,0,16.37,39l.42-.43-.57-.18-.12,0h0l-.06,0Z" style="fill: #0a141f"/>
      <path d="M23,33.43v1.49l-.42.09-.06,0a1.72,1.72,0,0,0-1.06.93,2.28,2.28,0,0,1-1.78,1.35,11.54,11.54,0,0,0-1.34.48,2.47,2.47,0,0,1-1,.23A1.6,1.6,0,0,1,16,37.37h0a13.2,13.2,0,0,1,4.35-3.52h0a1.93,1.93,0,0,1,.35,0,2.06,2.06,0,0,1,.46.05l.21,0a1.89,1.89,0,0,0,.5-.08,3.25,3.25,0,0,0,.48-.18h0l.58-.2m-5.07,2.81.25-.06a5.06,5.06,0,0,0,1.42-.47,1.36,1.36,0,0,0,.18-.74v-.12l-.1.06a12,12,0,0,0-1.56,1.15Zm5.44-3.31-.48.15-.61.21h0a2.92,2.92,0,0,1-.41.15,1.54,1.54,0,0,1-.4.06h-.13a2.44,2.44,0,0,0-.95,0h-.12a13.58,13.58,0,0,0-4.47,3.63l0,.07,0,.08,0,.16.1.13a2,2,0,0,0,1.61.8,2.81,2.81,0,0,0,1.13-.26,11.3,11.3,0,0,1,1.3-.47,2.63,2.63,0,0,0,2-1.54,1.35,1.35,0,0,1,.82-.73h.06l.39-.09.3-.06v-2.3Z" style="fill: #0a141f"/>
      <path d="M26.28,41.58v5.22a.63.63,0,0,0,.07.29l.07.11a.64.64,0,0,0,.32.21h0l2.14.08h.23l-.13.15a9.17,9.17,0,0,1-2.82,1.65,25.86,25.86,0,0,1-2.56.85H12.8V47.7l10.09-.3h0a.57.57,0,0,0,.2-.1,1.13,1.13,0,0,0,.14-.15l0-.07a.61.61,0,0,0,.06-.27v-3a8.32,8.32,0,0,1,1.73-1.49l.11-.08.11-.07.2-.14.1-.07.69-.41m.37-.68-.57.37-.67.4h0l-.1.07-.2.14L25,42l0,0-.11.07a8.85,8.85,0,0,0-1.81,1.56l-.09.1V46.8a.25.25,0,0,1,0,.11l0,0-.06.06h0l0,0-10,.3h-.36v3.17H23.72a26.22,26.22,0,0,0,2.59-.86,9.53,9.53,0,0,0,2.93-1.73h0v0l.13-.14.5-.58-.77,0h-.23L26.81,47a.25.25,0,0,1-.1-.07l0,0a.28.28,0,0,1,0-.12V40.9Z" style="fill: #0a141f"/>
      <path d="M32.1,47.6l4.74.18v2.35h-7a6.63,6.63,0,0,0,1.51-1.07,3.47,3.47,0,0,0,.25-.28l.11-.15,0-.07,0,0,.09-.16h0l0-.06v0a2,2,0,0,0,.2-.62v0Zm-.31-.38-.06.32v0a1.6,1.6,0,0,1-.15.47l-.07.14-.08.14,0,0,0,.06-.1.13-.22.25a6.29,6.29,0,0,1-1.42,1l-1.3.7h8.88V47.43h-.36l-4.74-.18Z" style="fill: #0a141f"/>
      <path d="M30,45.57h0a1.82,1.82,0,0,1,.84.21,1.44,1.44,0,0,1,.63.65l0,.05.05.12a1.67,1.67,0,0,1,.05.17v.05l0,.11V47h0v.21s0,.08,0,.12a1,1,0,0,1,0,.13v.07a1.6,1.6,0,0,1-.17.52v0h0l0,.08v.05h0l0,0,0,0h0l0,.06-.1.13-.22.25a6.66,6.66,0,0,1-2.16,1.35l-.11,0h0l-.09,0h-.06l-.09,0h-.08l-.08,0-.07,0-.1,0-.06,0h0l-.11,0-.09,0-.12,0-.07,0h0l-.13,0-.1,0-.14,0-.1,0-.15,0-.11,0-.13,0h0l-.08,0h0l-.18,0-.09,0-.19,0h-.1l-.18,0h-.12l-.62.11h0l-.28,0h-.09l-.23,0-.12,0-.22,0h-.13l-.21,0-.14,0-.21,0-.14,0-.2,0-.15,0-.2,0-.15,0-.2,0h-.15l-.21,0H20a47.39,47.39,0,0,0,6.3-1.79,9.64,9.64,0,0,0,3.6-2.37l0,0,.13-.14h-.86L26.81,47a.22.22,0,0,1-.09-.07v0l.13-.09.11-.06c.51-.29,1.36-.78,1.57-.86l.44-.16a3.94,3.94,0,0,1,.5-.13l.27,0H30m0-.37H29.7l-.3,0a4.52,4.52,0,0,0-.55.14l-.47.17c-.19.08-.76.4-1.61.89l-.11.06h0l0,0-.09.06-.29.2.19.3,0,0h0a.62.62,0,0,0,.23.17l.06,0h.07l2.43.07h0a9.88,9.88,0,0,1-3.05,1.86,46.93,46.93,0,0,1-6.24,1.77l-3.18.7,3.26,0h2.19l.18,0h.15l.21,0h.15l.21,0,.15,0,.21,0,.14,0,.21,0,.14,0,.21,0h.13l.22,0,.11,0,.24,0H25l.23,0h0l.63-.11H26l.18,0h.1l.19,0,.1,0,.18,0h0l.08,0h0L27,51l.11,0,.15,0,.1,0,.14,0,.1,0,.13,0h0l.07,0,.12,0,.09,0,.11,0h0l.06,0,.11,0,.07,0,.08,0h.09l.09,0h.06l.1,0h0l.12,0a7,7,0,0,0,2.3-1.43,3.37,3.37,0,0,0,.24-.28l.11-.15,0-.07h0l0,0h0l0-.06,0,0v0l0-.08h0v0a2,2,0,0,0,.21-.63v-.06a1.25,1.25,0,0,0,0-.18s0-.07,0-.11v0h0v0h0v0h0v-.05h0V47h0v0h0v0l0-.11v0l0-.05a2.11,2.11,0,0,0-.06-.2l-.07-.15,0-.06a1.93,1.93,0,0,0-.24-.37,1.89,1.89,0,0,0-.55-.45,2.2,2.2,0,0,0-1-.25H30" style="fill: #0a141f"/>
      <path d="M36.84,28.27v2.15l-10.09.45h0a.63.63,0,0,0-.22.11.61.61,0,0,0-.2.29.63.63,0,0,0,0,.2v6.08c0,.1-.12.23-.18.34a4,4,0,0,1-1.38,1.23l-.48.26-.9.48V31.46a.54.54,0,0,0,0-.21.62.62,0,0,0-.39-.36h0L12.8,30.42V28.27Zm.37-.37H12.43v2.87l.35,0,10,.46a.29.29,0,0,1,.09.07l0,.07a.2.2,0,0,1,0,.07v9l.55-.31.89-.47.5-.27a4.3,4.3,0,0,0,1.51-1.35h0c.07-.12.14-.26.2-.37l0-.07V31.48a.3.3,0,0,1,0-.08.25.25,0,0,1,.08-.12l.06,0,10-.45.35,0V27.9Z" style="fill: #0a141f"/>
      <path d="M26.66,33.46a3.84,3.84,0,0,1,2.16,1.89s.13.29.16.35a3.29,3.29,0,0,1-.17,2.87l-.15.26,0,0,0,0v0l-.05.08c-.08.12-.16.23-.25.35l0,0,0,0-.25.28-.05.05-.06.06h0a11.11,11.11,0,0,1-2.49,1.85l-.12.08-.2.14L25,42l-.09.07c-.11.07-2.63,1.68-2.56,3.24,0,.09,0,.18,0,.29a3,3,0,0,0,.59,1.29.15.15,0,0,1,0,0,.23.23,0,0,1-.07.09l0,0L20,47.09l0,0a4.51,4.51,0,0,1-.34-1c-.92-3.39,3.08-5.47,4.79-6.36l.5-.27a4.33,4.33,0,0,0,1.52-1.37,3.59,3.59,0,0,0,.25-.49h0l.05-.16v0l0-.16a2.81,2.81,0,0,0,.06-.49,1.81,1.81,0,0,0,0-.28,1.22,1.22,0,0,0-.09-.26l-.06-.13Zm-.37-.53v3.22l0,.08.05.1a.9.9,0,0,1,.07.19,1.24,1.24,0,0,1,0,.21,2.32,2.32,0,0,1,0,.41l0,.15h0v0l0,.14h0a3.13,3.13,0,0,1-.22.42,4,4,0,0,1-1.39,1.24l-.49.26a14.84,14.84,0,0,0-3.47,2.3,4.38,4.38,0,0,0-1.51,4.47,4.91,4.91,0,0,0,.36,1v0l0,0,0,0,.11.16H20l2.84-.08h.08l.07,0,.11-.07a.61.61,0,0,0,.17-.21.53.53,0,0,0,0-.16l0-.16-.11-.13a2.64,2.64,0,0,1-.51-1.13c0-.09,0-.17,0-.24,0-1.12,1.71-2.47,2.39-2.9h0l.09-.07.11-.08.2-.14.1-.07a11.51,11.51,0,0,0,2.55-1.89h0L28.2,40l.05-.05h0l.26-.29,0,0,0,0h0a4.34,4.34,0,0,0,.27-.37l.06-.1v0l0-.05h0l0,0,.16-.28a3.65,3.65,0,0,0,.19-3.17l-.17-.38h0a4.21,4.21,0,0,0-2.36-2.07Z" style="fill: #0a141f"/>
    </g>
  </g>
  <g id="BETHLEHEM">
    <g id="bethlehem_M" data-name="bethlehem M">
      <polygon points="42.83 11.88 42.38 12.35 42.4 12.35 42.4 15.95 42.84 15.95 42.84 11.88 42.83 11.88" style="fill: #6b5224"/>
      <circle cx="42.83" cy="11.88" style="fill: #231f20"/>
      <polygon points="42.83 11.88 42.83 15.95 43.3 15.95 43.3 12.35 43.3 12.35 42.84 11.88 42.83 11.88" style="fill: #231f20"/>
      <path d="M44.49,11.88H42.84l.46.47h1.18l.4-.41-.4.41h0v3.59H45V12.36c0-.48,0-.48-.46-.48" style="fill: #6b5224"/>
      <path d="M40.53,11.54a.55.55,0,0,0-.23.51v3.89h.42V12.36c0-.24,0-.36.06-.42s-.26-.2-.25-.4" style="fill: #6b5224"/>
      <path d="M44.79,11.46H40.9a.69.69,0,0,0-.37.09c0,.2.25.4.25.4l0,0,0,0c.06-.06.18-.06.42-.06h3.29c.46,0,.46,0,.46.48v3.59h.44V12.05a.53.53,0,0,0-.6-.6" style="fill: #231f20"/>
      <path d="M41.2,11.88c-.24,0-.36,0-.42.06l.42.41h1.19l.45-.47Z" style="fill: #6b5224"/>
      <path d="M40.72,12.36v3.59h.48V12.36l-.42-.41c-.06.06-.06.18-.06.42" style="fill: #231f20"/>
    </g>
    <g id="bethlehem_E_3" data-name="bethlehem E 3">
      <polygon points="36.83 13.25 36.38 13.7 37.87 13.7 38.02 13.25 36.83 13.25" style="fill: #231f20"/>
      <polygon points="36.38 13.7 36.38 13.71 36.83 14.15 37.72 14.15 37.87 13.7 36.38 13.7" style="fill: #6b5224"/>
      <path d="M36.38,15.07V13.71h0V12.35a.83.83,0,0,1,0-.39l-.35-.35a.61.61,0,0,0-.15.45v3.3a.53.53,0,0,0,.6.6h2.4v-.48H36.83s-.45,0-.45-.4" style="fill: #6b5224"/>
      <path d="M36.38,15.07c0,.41.45.4.45.4h2.09v-.41h-2.1l-.31.31.31-.31v-.9l-.44-.44Z" style="fill: #231f20"/>
      <path d="M36.38,12.35V13.7l.44-.45h0v-.9l-.4-.4a.82.82,0,0,0,0,.39" style="fill: #231f20"/>
      <path d="M36.52,11.46a.61.61,0,0,0-.45.15l.35.35c0-.07.15-.08.38-.08h2.11v-.42Z" style="fill: #231f20"/>
      <path d="M36.43,12l.4.4h2.1v-.48H36.81c-.23,0-.34,0-.38.08" style="fill: #6b5224"/>
    </g>
    <g id="bethlehem_H_2" data-name="bethlehem H 2">
      <polygon points="31.42 11.46 31.42 13.7 31.87 13.25 31.87 11.46 31.42 11.46" style="fill: #231f20"/>
      <polygon points="31.87 13.25 31.42 13.7 34.11 13.7 33.67 13.25 31.87 13.25" style="fill: #231f20"/>
      <polygon points="30.97 11.46 30.97 15.95 31.42 15.95 31.42 13.7 31.42 11.46 30.97 11.46" style="fill: #6b5224"/>
      <polygon points="33.67 11.46 33.67 13.25 33.67 13.25 34.11 13.7 34.11 11.46 33.67 11.46" style="fill: #6b5224"/>
      <polygon points="31.42 13.7 31.87 14.15 31.87 14.15 33.66 14.15 34.11 13.7 31.42 13.7" style="fill: #6b5224"/>
      <polygon points="34.11 11.46 34.11 13.7 34.11 15.95 34.57 15.95 34.57 11.46 34.11 11.46" style="fill: #231f20"/>
      <polygon points="31.42 15.95 31.87 15.95 31.87 14.15 31.42 13.7 31.42 15.95" style="fill: #231f20"/>
      <polygon points="33.66 14.15 33.67 14.15 33.67 15.95 34.11 15.95 34.11 13.7 33.66 14.15" style="fill: #6b5224"/>
    </g>
    <g id="bethlehem_E_2" data-name="bethlehem E 2">
      <path d="M27.12,15.07V13.71h0V12.35a.81.81,0,0,1,0-.39l-.35-.35a.61.61,0,0,0-.15.45v3.3a.53.53,0,0,0,.6.6h2.4v-.48H27.57s-.45,0-.45-.4" style="fill: #6b5224"/>
      <path d="M27.12,15.07c0,.41.45.4.45.4h2.09v-.41h-2.1l-.31.31.31-.31v-.9l-.44-.44Z" style="fill: #231f20"/>
      <path d="M27.12,12.35V13.7l.44-.45h0v-.9l-.4-.4a.81.81,0,0,0,0,.39" style="fill: #231f20"/>
      <path d="M27.26,11.46a.61.61,0,0,0-.45.15l.35.35c0-.07.15-.08.38-.08h2.11v-.42Z" style="fill: #231f20"/>
      <path d="M27.17,12l.4.4h2.1v-.48H27.55c-.23,0-.34,0-.38.08" style="fill: #6b5224"/>
      <polygon points="27.57 13.25 27.12 13.7 28.61 13.7 28.76 13.25 27.57 13.25" style="fill: #231f20"/>
      <polygon points="27.12 13.7 27.12 13.71 27.56 14.15 28.46 14.15 28.61 13.7 27.12 13.7" style="fill: #6b5224"/>
    </g>
    <g id="bethlehem_L" data-name="bethlehem L">
      <path d="M22.78,15.44l.38-.38v-3.6h-.45v3.61c0,.22,0,.32.07.37" style="fill: #231f20"/>
      <path d="M23.17,15.48h2.09v-.43h-2.1l-.38.38c.06,0,.17,0,.39,0" style="fill: #231f20"/>
      <path d="M23.17,15.48c-.22,0-.33,0-.39,0h0c-.06,0-.07-.15-.07-.37V11.46h-.45v3.9a.53.53,0,0,0,.6.6h2.4v-.47Z" style="fill: #6b5224"/>
    </g>
    <g id="bethlehem_H_1" data-name="bethlehem H 1">
      <polygon points="17.72 11.46 17.72 13.7 18.18 13.25 18.18 11.46 17.72 11.46" style="fill: #231f20"/>
      <polygon points="18.18 13.25 17.72 13.7 20.41 13.7 19.97 13.25 18.18 13.25" style="fill: #231f20"/>
      <polygon points="17.28 11.46 17.28 15.95 17.72 15.95 17.72 13.7 17.72 11.46 17.28 11.46" style="fill: #6b5224"/>
      <polygon points="19.97 11.46 19.97 13.25 19.97 13.25 20.41 13.7 20.41 11.46 19.97 11.46" style="fill: #6b5224"/>
      <polygon points="17.72 13.7 18.18 14.15 18.18 14.15 19.96 14.15 20.41 13.7 17.72 13.7" style="fill: #6b5224"/>
      <polygon points="20.41 11.46 20.41 13.7 20.41 15.95 20.87 15.95 20.87 11.46 20.41 11.46" style="fill: #231f20"/>
      <polygon points="17.72 15.95 18.18 15.95 18.18 14.15 17.72 13.7 17.72 15.95" style="fill: #231f20"/>
      <polygon points="19.96 14.15 19.97 14.15 19.97 15.95 20.41 15.95 20.41 13.7 19.96 14.15" style="fill: #6b5224"/>
    </g>
    <g id="bethlehem_T" data-name="bethlehem T">
      <polygon points="13.84 12.35 13.84 15.95 14.27 15.95 14.27 11.88 13.84 12.35" style="fill: #6b5224"/>
      <polygon points="14.27 15.95 14.74 15.95 14.74 12.35 14.75 12.35 14.27 11.88 14.27 15.95" style="fill: #231f20"/>
      <polygon points="13.98 11.88 12.64 11.88 12.64 12.35 13.84 12.35 14.27 11.88 13.98 11.88" style="fill: #6b5224"/>
      <polygon points="14.27 11.88 14.75 12.35 15.94 12.35 15.94 11.88 14.27 11.88" style="fill: #6b5224"/>
      <polygon points="12.64 11.46 12.64 11.88 13.98 11.88 14.27 11.88 15.94 11.88 15.94 11.46 12.64 11.46" style="fill: #231f20"/>
    </g>
    <g id="bethlehem_E_1" data-name="bethlehem E 1">
      <path d="M8.75,15.07V13.71h0V12.35a.83.83,0,0,1,0-.39l-.35-.35a.61.61,0,0,0-.15.45v3.3a.53.53,0,0,0,.6.6h2.4v-.48H9.2s-.45,0-.45-.4" style="fill: #6b5224"/>
      <path d="M8.75,15.07c0,.41.45.4.45.4h2.09v-.41H9.19l-.31.31.31-.31v-.9l-.44-.44Z" style="fill: #231f20"/>
      <path d="M8.75,12.35V13.7l.44-.45h0v-.9l-.4-.4a.82.82,0,0,0,0,.39" style="fill: #231f20"/>
      <path d="M8.89,11.46a.61.61,0,0,0-.45.15l.35.35c0-.07.15-.08.38-.08h2.11v-.42Z" style="fill: #231f20"/>
      <path d="M8.79,12l.4.4h2.1v-.48H9.17c-.23,0-.34,0-.38.08" style="fill: #6b5224"/>
      <polygon points="9.19 13.25 8.75 13.7 10.23 13.7 10.38 13.25 9.19 13.25" style="fill: #231f20"/>
      <polygon points="8.75 13.7 8.75 13.71 9.19 14.15 10.08 14.15 10.23 13.7 8.75 13.7" style="fill: #6b5224"/>
    </g>
    <g id="bethlehem_B" data-name="bethlehem B">
      <path d="M3.75,11.93h0l.48.48h1.5l.4-.4c0-.12-.14-.12-.35-.12H3.71Z" style="fill: #6b5224"/>
      <path d="M4.23,13.3h0l-.4.4H5.75a.75.75,0,0,0,.34,0l-.36-.36Z" style="fill: #231f20"/>
      <path d="M5.73,12.41v.9l.36.36c.06,0,.07-.13.07-.34v-.92a1.42,1.42,0,0,0,0-.4Z" style="fill: #6b5224"/>
      <path d="M6.38,15.46h0a.68.68,0,0,1-.35,0H3.83l-.09.08L3.33,16h3a.74.74,0,0,0,.32-.07.77.77,0,0,0-.27-.48" style="fill: #6b5224"/>
      <path d="M6.63,13.81v-1.7a.53.53,0,0,0-.6-.6H3.33l.38.38H5.78c.21,0,.31,0,.35.12h0a1.42,1.42,0,0,1,0,.4s0,.92,0,.92c0,.2,0,.29-.07.34h0a.76.76,0,0,1-.34,0H6c.2,0,.3.06.35.15h0a.74.74,0,0,1,.05.35v.92c0,.19,0,.29-.06.33h0a.78.78,0,0,1,.27.48.53.53,0,0,0,.28-.53v-1a.53.53,0,0,0-.29-.55" style="fill: #231f20"/>
      <polygon points="3.33 13.31 3.84 13.81 3.84 13.79 3.84 12.01 3.71 11.89 3.33 11.51 3.33 13.31" style="fill: #6b5224"/>
      <path d="M3.78,13.76l.45.45H6l.36-.36c-.05-.09-.15-.15-.35-.15H3.83Z" style="fill: #6b5224"/>
      <polygon points="3.33 14.2 3.77 13.81 3.81 13.78 3.33 13.31 3.33 14.2" style="fill: #6b5224"/>
      <polygon points="3.33 14.2 3.33 16 3.84 15.49 3.84 13.69 3.33 14.2" style="fill: #6b5224"/>
      <polygon points="3.75 13.78 3.78 13.76 3.75 13.73 3.75 13.78" style="fill: #231f20"/>
      <polygon points="3.75 13.7 3.83 13.7 4.23 13.3 4.23 12.41 3.75 11.93 3.75 13.7" style="fill: #231f20"/>
      <polygon points="3.75 13.7 3.75 13.73 3.78 13.76 3.83 13.7 3.75 13.7" style="fill: #231f20"/>
      <polygon points="3.75 13.78 3.75 15.59 3.83 15.5 3.77 15.5 3.83 15.5 4.23 15.1 4.23 14.21 3.78 13.76 3.75 13.78" style="fill: #231f20"/>
      <path d="M4.23,15.1h0l-.4.4H6a.69.69,0,0,0,.35,0L6,15.1Z" style="fill: #231f20"/>
      <path d="M6,15.1l.35.35c.06,0,.06-.14.06-.33V14.2a.74.74,0,0,0-.05-.36L6,14.21Z" style="fill: #6b5224"/>
    </g>
  </g>
</svg>
