<?xml version="1.0" encoding="utf-8"?>
<!-- Generator: Adobe Illustrator 15.0.0, SVG Export Plug-In . SVG Version: 6.00 Build 0)  -->
<!DOCTYPE svg PUBLIC "-//W3C//DTD SVG 1.1//EN" "http://www.w3.org/Graphics/SVG/1.1/DTD/svg11.dtd">
<svg version="1.1" id="Layer_1" xmlns="http://www.w3.org/2000/svg" xmlns:xlink="http://www.w3.org/1999/xlink" x="0px" y="0px"
	 width="772.878px" height="500px" viewBox="0 0 772.878 500" enable-background="new 0 0 772.878 500" xml:space="preserve">
<path fill="#7BAFDE" d="M247.618,59.25c-2.24-11.444-8.512-23.092-16.37-30.397c-3.648-3.375-8.469-6.862-9.859-7.85
	c-2.764-1.954-5.521-2.179-7.735-2.359c-0.867-0.073-1.688-0.138-2.36-0.305c-1.473-0.368-2.685-1.33-4.361-2.661
	c-0.801-0.635-1.708-1.355-2.724-2.057c-4.38-3.017-8.858-4.434-13.189-5.804c-2.639-0.835-5.131-1.623-7.508-2.742
	c-4.772-2.248-10.397-4.602-15.938-5.009c-7.046-0.518-12.702,2.099-16.813,7.779c0,0-0.411,0.567-0.444,0.614
	c-5.999,2.808-9.072,8.212-12.9,14.947l-0.648,1.139c-0.724,1.272-1.369,2.112-2.052,3.001c-1.097,1.43-2.341,3.05-3.644,6.083
	c-0.817,1.89-1.528,2.738-2.818,4.277c-0.545,0.651-1.189,1.42-1.916,2.37c-0.956,0.623-1.48,1.725-1.521,2.797l-0.214,0.527
	l-0.612,1.521c-0.174,0.47-0.284,0.903-0.352,1.309c-0.355,0.801-0.836,1.884-0.836,1.884c-1.656,3.649-2.219,5.108-3.022,11.473
	c-0.157,1.248-0.282,2.474-0.382,3.687l-2.55-4.009c-2.452-3.84-6.841-9.502-11.14-12.824c-2.096-1.62-4.271-2.799-6.375-3.94
	c-1.906-1.032-3.708-2.009-5.255-3.22c-0.974-0.762-1.969-2.087-2.932-3.369c-0.866-1.156-1.762-2.348-2.812-3.399
	c-6.409-6.43-18.37-11.538-28.538-9.022c-7.914-1.738-14.419,4.886-16.63,7.155c-3.629,3.723-8.695,9.394-12.234,15.264
	c-0.74,1.229-1.282,2.473-1.805,3.676c-0.594,1.367-1.156,2.657-1.86,3.522c-0.838,1.028-1.514,1.639-2.229,2.284
	c-1.282,1.161-2.736,2.475-4.189,5.396c-3.308,6.649-4.52,14.725-5.589,21.849l-1.051,6.523l-0.927,4.595
	c-0.709,3.392-1.442,6.898-1.785,10.164l-0.578,5.505l5.453-0.949c3.782-0.658,7.689-3.662,11.468-6.566
	c1.456-1.12,2.831-2.177,3.971-2.91c0.005-0.004,4.189-2.853,4.199-2.86c-0.042,0.441-0.162,0.896-0.162,1.325
	c0,1.302,0.201,2.54,0.669,3.645l1.752,4.141l8.834-4.525c3.11-1.665,5.794-3.104,9.093-3.964c1.026-0.271,2.131-0.415,3.26-0.567
	c-0.758,1.278-1.5,2.668-2.249,3.989l-4.317,7.495l6.17,0.813c3.396,0.44,6.221-1.484,8.491-3.031
	c0.891-0.609,1.9-1.296,2.471-1.484c1.094-0.359,2.275-0.343,3.771-0.325l2.852-0.045c6.126-0.407,12.555-0.475,18.774-0.542
	l1.48-0.016c-0.398,0.279-0.796,0.568-1.19,0.869c-4.847-0.192-9.835-0.188-14.949,1.402c-1.796,0.557-3.394,1.276-4.94,1.971
	c-2.108,0.949-3.928,1.767-5.618,1.886l-1.614,0.066c-2.066,0.057-4.409,0.122-7.16,1.427c-7.271,3.465-13.051,6.796-17.184,9.908
	c-1.113,0.836-1.973,1.846-2.731,2.738c-0.482,0.564-1.207,1.417-1.539,1.584c0,0-0.012,0.005-0.016,0.007
	c-0.044-0.01-0.097-0.019-0.097-0.019c-0.696-0.141-1.992-0.403-3.646,0.026c-3.498,0.894-4.448,1.459-7.243,4.312
	c-7.074,7.211-15.028,15.77-20.375,24.553c-4.406,7.249-9.298,23.933-8.514,32.354c0.123,1.346,0.666,2.854,1.42,4.839l0.558,1.539
	c1.264,4.237,1.594,9.718,1.911,15.019c0.445,7.417,0.975,15.06,3.933,21.042c2.392,4.847,6.709,7.339,10.233,9.319
	c1.529,0.858,2.972,1.668,4.079,2.552l3.445,2.794c5.182,4.228,10.54,8.601,15.982,11.513l2.039,1.092
	C33.084,294.67,23.193,347.86,23.193,387.793c0,2.597,0.042,5.138,0.128,7.615l0.003,0.101l0.008,0.101
	c0.947,11.329,6.811,14.597,11.091,16.986l0.456,0.254l0.521,0.143c18.089,4.806,31.341,3.535,40.514-3.884
	c9.13-7.385,13.298-20.558,12.387-39.153c0.001,0.035-0.673-15.338-0.673-15.338c-1.439-31.635-3.412-74.96,0.044-105.521
	c0.854-7.602,1.971-14.665,3.413-21.593c4.528-23.145,14.533-36.848,25.436-50.587c-0.383,3.564-0.693,7.165-0.756,10.711
	l-0.181,10.379l7.325-7.356c0.135-0.136,0.282-0.285,0.423-0.427c-0.051,0.462-0.088,0.933-0.088,1.408
	c0,1.52,0.364,3.058,1.764,4.277c2.21,1.926,5.014,1.129,5.936,0.867c2.437-0.692,4.136-2.709,5.635-4.49
	c0.267-0.317,0.62-0.735,0.96-1.113c-0.085,0.494-0.169,0.984-0.257,1.484c-0.481,2.767-0.978,5.626-1.325,8.454l-0.453,3.693
	l3.614,0.88c1.384,0.335,2.687,0.333,3.919,0.149c-0.066,0.743-0.113,1.492-0.113,2.236c0,2.984,0.679,5.867,3.282,7.753
	c1.087,0.788,2.243,1.119,3.396,1.193c-0.026,0.057-0.131,0.288-0.131,0.288l1.936,2.048c3.445,3.644,7.564,3.212,10.025,2.956
	c0.266-0.028,0.596-0.061,0.895-0.084c0.053,0.249,0.107,0.59,0.15,1.048c0,0.001,0.121,1.533,0.121,1.533
	c0.294,3.982,0.695,9.435,5.292,12.055c2.315,1.312,4.839,1.404,7.121,0.266c3.845-1.92,6.643-7.063,9.074-16.675
	c1.651-6.528,2.625-13.354,2.967-15.984c1.822-13.857,1.438-28.983-1.172-46.236c-0.918-6.103-2.896-9.217-5.186-12.823
	l-0.377-0.596c-0.806-1.272-1.313-2.733-1.899-4.424c-0.655-1.889-1.397-4.03-2.7-6.137c-1.434-2.313-2.525-5.174-3.68-8.205
	c-1.442-3.787-2.935-7.702-5.288-10.889c-3.596-4.871-9.129-8.592-15.179-10.205c-1.524-0.404-3.093-1.081-4.755-1.798
	c-1.034-0.445-2.104-0.906-3.221-1.327c-0.843-0.315-1.698-0.503-2.545-0.621c-1.153-1.074-2.37-1.928-3.551-2.658
	c0.125-0.076,0.248-0.148,0.369-0.214c3.24-1.784,7.317-1.8,8.245-1.331l5.477,2.773l0.602-6.098
	c0.111-1.181,0.174-2.435,0.197-3.791c1.29,0.188,2.839,0.328,4.474,0.285c8.103-0.214,12.958-4.739,12.988-12.103
	c0-0.01,0-0.019,0-0.028c0-1.251-0.36-2.69-0.957-4.787c0.045,0.012,0.131,0.035,0.131,0.035c1.123,0.286,2.373,0.821,3.697,1.389
	c3.589,1.539,8.505,3.648,13.632,1.007l2.709-1.396l-0.499-3.005c-0.212-1.282-0.521-2.549-0.819-3.777
	c-0.055-0.227-0.108-0.449-0.162-0.675c2.07,0.715,4.583,1.868,5.955,2.498c2.786,1.281,4.987,2.291,6.837,2.543
	c5.423,0.753,9.316,0.023,14.359-2.697l2.712-1.462l-0.593-3.023c-0.386-1.967-1.083-4.242-2.021-6.601
	c2.246,0.554,4.43,0.989,6.435,1.384l3.607,0.744c1.863,0.42,3.64,0.593,5.358,0.761c1.473,0.144,2.864,0.279,4.178,0.56
	c0.365,0.085,1.396,0.6,2.076,0.941c2.511,1.256,5.949,2.978,9.082,1.212l2.632-1.481L247.618,59.25z M52.221,227.26l-3.219,10.635
	c0.062-1.946,0.152-3.828,0.376-5.714c0.473-3.949,0.987-8.031,1.522-12.122c0.936,1.16,1.961,1.787,2.871,2.12
	c-0.179,0.581-0.358,1.163-0.535,1.744C53.233,223.929,52.221,227.26,52.221,227.26z"/>
<path fill="#7BAFDE" d="M515.46,115.628c-3.581-4.119-9.236-4.983-13.346-4.983c-9.343,0-19.896,4.109-21.512,15.642
	c-0.102,0.711-0.144,1.387-0.144,2.033c0,2.83,0.852,5.055,1.563,6.912c0.602,1.569,1.067,2.784,1.067,4.257
	c0,0.333-0.023,0.679-0.075,1.044c-0.444,3.008-5.83,15.451-9.326,21.068c-3.993-6.186-5.096-11.146-5.096-15.328
	c0-2.543,0.392-4.806,0.754-6.896l0.407-2.503c0.372-2.65,1.115-5.41,2.061-8.903l1.046-3.928l0.029-0.242
	c0,0,0.101-0.75,0.149-1.116c0.123-0.438,0.613-2.196,0.613-2.196l0.018-0.07c0.418-1.727,0.801-3.571,0.801-5.344
	c0-1.79-0.391-3.507-1.534-4.96c-1.405-1.785-3.53-2.691-6.317-2.691c-7.984,0-18.94,3.817-27.915,9.722
	c-1.954,1.271-4.172,2.843-6.246,4.764c-0.062-2.479-0.618-4.715-2.215-6.317c-2.396-2.4-5.569-1.964-7.67-1.675
	c-2.879,0.395-3.747,0.515-5.014-2.257c-1.083-2.325-0.311-6.741,0.371-10.636c1.048-6.002,2.135-12.209-1.584-16.634
	c-2.294-2.73-5.825-4.058-10.79-4.058c-11.473-0.01-15,9.028-18.111,17.001c-1.717,4.396-3.492,8.942-6.511,12.939
	c-0.885,1.188-1.901,1.334-5.198,1.262c-6.585-0.145-13.73,0.906-15.131,15.297c-0.085,0.776-0.155,1.659-0.155,2.587
	c0,2.293,0.431,4.867,2.141,6.824c2.285,2.616,5.498,2.695,7.624,2.75c0.657,0.017,1.602,0.045,1.988,0.166
	c0.098,0.219,0.318,0.88,0.318,2.447c0,0.909-0.077,2.118-0.3,3.708c-1.229,8.773-3.934,17.467-6.55,25.874
	c-2.646,8.505-5.382,17.3-6.645,26.289c-0.403,2.878-0.604,5.599-0.604,8.159c0,8.262,2.099,14.851,6.274,19.653
	c4.762,5.477,11.844,8.254,21.047,8.254c13.65,0.013,34.169-9.25,37.055-29.879c0.194-1.376,0.285-2.613,0.285-3.724
	c0-7.251-3.871-9.165-7.917-10.452c-0.996-0.317-1.933-0.623-2.705-1.106c-2.535-2.541-3.978-17.749-3.978-29.64
	c0-4.2,0.178-7.985,0.554-10.65c1.414-10.104,3.877-9.955,8.783-9.653c1.946,0.119,4.632,0.282,7.172-0.635
	c0.131,5.099,2.771,7.313,5.336,8.984l0.937,0.639c0,0,0.061,0.045,0.122,0.087c0.024,0.022,0.277,0.291,0.701,1.012
	c0.541,1.415,1.097,2.879,1.448,4.924l-0.019-0.125l0.767,4.683c1.835,10.949,7.023,41.907,7.023,55.949
	c0,1.659-0.072,3.08-0.229,4.206c-0.04,0.275-0.099,0.499-0.144,0.755c-1.491-2.416-4.428-4.356-10.42-4.362
	c-10.865,0-16.871,14.029-18.104,22.873c-1.368,9.743,0.677,18.587,5.615,24.267c3.733,4.295,8.85,6.566,14.793,6.566
	c26.895,0.013,46.122-54.096,60.161-93.602c3.296-9.274,6.142-17.284,8.522-22.885c2.084-4.783,5.231-8.009,8.269-11.129
	c3.733-3.828,7.591-7.786,8.469-13.984C519.02,121.076,517.16,117.578,515.46,115.628z"/>
<path fill="#7BAFDE" d="M740.041,305.302c0.887-6.419-3.741-15.482-5.599-18.434c-4.939-8.093-14.84-13.563-24.61-13.563
	c-13.775,0-29.776,8.833-34.079,28.118c0.655-7.448-0.42-16.519-5.293-22.17c-2.779-3.223-6.504-4.926-10.769-4.926
	c-9.32,0-13.905,5.008-17.587,9.031c-0.026,0.031-0.053,0.057-0.08,0.087c0.054-0.474,0.123-0.948,0.123-1.43
	c0-1.572-0.356-3.151-1.491-4.544c-1.387-1.707-3.53-2.571-6.368-2.571c-9.486,0-35.555,7.52-38.064,24.455
	c-0.777,5.262,1.361,7.739,3.081,9.73l1.06,1.274l0.157,0.185c3.229,3.524,3.229,3.524,1.893,12.165l-0.498,3.27
	c-1.605,10.92-11.033,29.666-15.564,38.676c-2.404,4.78-2.719,5.427-2.864,6.41c-0.808,5.482,0.383,10.109,3.541,13.765
	c5.771,6.689,16.77,8.104,24.978,8.11c20.896,0,32.428-6.307,34.275-18.746c0.098-0.68,0.146-1.35,0.146-2.016
	c0-4.084-1.763-7.973-3.763-12.379c-2.662-5.871-5.852-12.907-5.852-22.854c0-2.322,0.176-4.802,0.57-7.461
	c0.602-4.16,1.914-9.376,3.254-12.984c1.07,5.203,3.769,10.251,12.039,10.251c9.925,0,19.429-8.78,22.241-20.061
	c-0.969,10.605,3.073,17.458,6.358,23.016c1.936,3.272,3.605,6.098,3.914,9.076c0.17,2.162-0.432,4.463-1.506,5.627
	c-0.501,0.541-1.028,0.773-1.766,0.773c-0.349,0-1.187-0.449-1.861-0.808c-1.414-0.753-3.349-1.785-5.777-1.785
	c-5.373,0-9.544,4.941-10.628,12.589c-2.141,15.232-0.138,26.134,6.121,33.339c5.543,6.381,14.047,9.486,25.99,9.491
	c17.147,0,37.69-15.605,40.944-38.839c0.496-3.504,0.721-6.745,0.721-9.745c0-17.533-7.715-26.888-14.928-33.185
	c0.902,0.276,1.872,0.468,2.982,0.468C736.185,316.709,739.305,310.506,740.041,305.302z M710.26,303.561
	c0-0.22,0.015-0.442,0.047-0.671c0.159-1.106,1.208-1.9,1.829-2.114c0.596,0.751,1.366,2.933,1.845,4.323
	c0.692,2.011,1.571,4.449,2.927,6.585C712.341,308.052,710.26,306.031,710.26,303.561z"/>
<path fill="#7BAFDE" d="M754.63,132.617c0,0-4.957,2.202-5.202,2.31c-0.248,0.037-4.662,0.702-5.264,0.792
	c-0.517-0.285-3.336-1.839-3.336-1.839l-5.229-2.061l-5.589-1.423l-2.258-0.038c-0.474-10.17-2.819-19.831-6.687-28.611
	c2.028-2.165,3.732-3.981,3.839-4.096c0.362-0.164,8.456-3.839,8.456-3.839l5.609-6.557c0,0,2.817-2.946,2.963-3.097
	c0.165-0.113,3.373-2.303,3.596-2.455c0.256-0.084,3.16-1.042,3.16-1.042l3.336-1.113l1.797-0.861l2.276-1.111l4.467-3.924
	l-3.299,0.37l-17.271,1.938c0,0-2.981,4.755-3.117,4.97c-0.173,0.165-3.544,3.345-3.983,3.759c-0.581,0.065-3.765,0.419-3.765,0.419
	l-5.423,1.352l-5.391,2.102l-3.192,2.167c-5.721-8.843-13.134-16.393-21.749-22.121c0.438-2.558,0.783-4.565,0.806-4.695
	c0.191-0.319,4.92-8.242,4.92-8.242l1.137-8.766c0,0,0.743-4.154,0.78-4.351c0.072-0.18,1.571-3.973,1.661-4.208
	c0.152-0.204,2.05-2.766,2.05-2.766l2.157-2.92l2.297-4.059l1.603-6.025l-2.618,2.373l-13.179,11.961c0,0,0.088,5.692,0.091,5.936
	c-0.051,0.227-1.156,4.984-1.286,5.541c-0.411,0.373-2.892,2.623-2.892,2.623l-3.74,4.37l-3.323,4.954l-0.979,2.487
	c-8.201-3.676-17.146-5.864-26.536-6.186c-1.086-3.35-2.076-6.409-2.13-6.566c0.019-0.367,0.472-9.749,0.472-9.749l-3.07-8.22
	c0,0-1.267-4.011-1.329-4.203c-0.021-0.193-0.455-4.297-0.479-4.536c0.035-0.239,1.017-7.09,1.017-7.09l0.074-2.139l0.069-2.653
	l-1.438-6.16l-1.176,3.43l-5.924,17.242c0,0,2.681,4.922,2.798,5.137c0.058,0.225,1.293,4.973,1.432,5.51
	c-0.176,0.51-1.302,3.792-1.302,3.792l-1.235,5.752l-0.591,6.04l0.528,5.043c-8.188,1.15-15.956,3.706-23.075,7.437
	c-4.101-1.837-10.205-4.574-10.447-4.682c-0.272-0.288-6.523-6.88-6.523-6.88l-7.835-3.088c0,0-3.619-1.658-3.813-1.747
	c-0.165-0.124-3.293-2.475-3.501-2.63c-0.157-0.207-2.087-2.707-2.087-2.707l0.002,0.003l-2.205-2.877l-3.248-3.274l-5.248-2.99
	l1.539,3.076l5.701,11.376l2.444,4.867c0,0,5.236,1.162,5.495,1.22c0.223,0.118,4.271,2.255,4.779,2.524
	c0.256,0.506,1.789,3.547,1.789,3.547l3.189,4.822l3.853,4.523l3.919,2.953c-6.768,5.488-12.611,12.173-17.228,19.756
	c-3.075-0.985-5.825-1.864-5.991-1.918c-0.307-0.259-7.178-6.116-7.178-6.116l-8.093-2.185c0,0-3.762-1.235-3.969-1.305
	c-0.185-0.108-3.5-2.088-3.72-2.22c-0.181-0.189-2.354-2.461-2.354-2.461v0.002l-2.489-2.613l-1.577-1.278l-1.985-1.605
	l-5.508-2.387l1.831,2.873l6.811,10.671l2.915,4.579c0,0,5.335,0.556,5.604,0.583c0.24,0.094,4.452,1.758,4.998,1.974
	c0.306,0.482,2.117,3.322,2.117,3.322l3.666,4.439l4.272,4.064l4.941,2.949c-2.758,6.8-4.635,14.087-5.442,21.711
	c-3.216,0.595-6.39,1.181-6.586,1.217c-0.403-0.091-9.005-2.053-9.005-2.053l-8.155,1.911c0,0-3.875,0.675-4.091,0.711
	c-0.211-0.01-3.994-0.191-4.26-0.205c-0.256-0.086-3.134-1.063-3.139-1.066c-0.003-0.001-3.331-1.15-3.331-1.15l-4.403-0.894
	l-5.831,0.483l13.408,7.967l4.563,2.707c0,0,5.016-2.044,5.266-2.145c0.252-0.029,4.68-0.544,5.282-0.615
	c0.505,0.301,3.286,1.951,3.286,1.951l5.162,2.222l5.548,1.607l5.948,0.289c0.41,7.797,1.914,15.293,4.372,22.314
	c-1.944,3.692-4.896,9.302-5.016,9.532c-0.293,0.249-7.159,6.124-7.159,6.124l-3.729,7.917c0,0-1.968,3.66-2.064,3.839
	c-0.125,0.15-2.678,3.203-2.843,3.402c-0.216,0.149-2.771,1.915-2.771,1.915l0,0l-2.942,2.026l-1.497,1.354l-1.903,1.706l-3.312,5.1
	l19.243-8.151c0,0,1.662-5.428,1.736-5.667c0.12-0.201,2.596-4.282,2.902-4.785c0.521-0.221,3.499-1.479,3.499-1.479l4.885-2.864
	l4.656-3.561l2.479-2.961c4.393,7.601,9.987,14.355,16.509,19.964c-0.623,3.486-1.243,6.97-1.275,7.154
	c-0.192,0.318-4.974,8.214-4.974,8.214l-1.187,8.747c0,0-0.769,4.148-0.807,4.348c-0.074,0.183-1.615,3.967-1.706,4.192
	c-0.144,0.194-2.031,2.745-2.037,2.752c-0.005,0.007-2.188,2.905-2.188,2.905l-1.02,1.792l-1.3,2.243l-1.629,6.014l11.901-10.666
	l3.94-3.556c0,0-0.021-5.699-0.021-5.938c0.053-0.22,1.19-4.97,1.321-5.523c0.41-0.369,2.894-2.605,2.894-2.605l3.778-4.34
	l3.347-4.93l1.339-3.323c9.828,5.859,21.041,9.436,32.995,10.01c0.615,2.847,1.152,5.33,1.187,5.48
	c-0.056,0.361-1.438,9.648-1.438,9.648l2.223,8.519c0,0,0.868,4.128,0.911,4.325c0,0.194,0.029,4.317,0.029,4.561
	c-0.059,0.238-0.852,3.409-0.852,3.409l-0.884,3.589l-0.256,2.07l-0.338,2.608l0.81,6.304l6.847-14.887l2.279-4.91
	c0,0-2.185-5.188-2.282-5.413c-0.035-0.229-0.791-5.095-0.875-5.641c0.223-0.489,1.667-3.64,1.667-3.64l1.813-5.567l1.198-5.948
	l-0.04-4.946c9.6-1.171,18.647-4.272,26.772-8.933c2.079,2.715,3.967,5.181,4.071,5.314c0.103,0.364,2.686,9.326,2.686,9.326
	l5.545,6.625c0,0,2.471,3.289,2.593,3.451c0.083,0.178,1.821,3.854,1.924,4.078c0.045,0.244,0.653,3.451,0.653,3.451l0.678,3.644
	l0.621,1.977l0.783,2.502l3.362,5.298v-21.962c0,0-4.116-3.633-4.307-3.802c-0.134-0.201-2.817-4.186-3.129-4.647
	c0-0.545,0-4.034,0-4.034l-0.673-5.796l-1.382-5.952l-2.766-5.83l-0.423-0.751c3.41-2.81,6.563-5.942,9.457-9.326
	c1.882,0.969,3.299,1.698,3.411,1.756c0.256,0.301,6.158,7.244,6.158,7.244l7.678,3.509c0,0,3.524,1.856,3.711,1.954
	c0.157,0.132,3.171,2.658,3.371,2.825c0.148,0.216,1.94,2.82,1.94,2.82l2.084,3.003l1.358,1.515l1.709,1.924l5.111,3.281
	l-6.53-14.843l-2.191-4.99c0,0-5.182-1.45-5.437-1.521c-0.216-0.129-4.159-2.494-4.652-2.791c-0.226-0.516-1.605-3.646-1.605-3.646
	l-2.96-5.001l-3.615-4.712l-2.445-2.063c6.107-9.912,10.133-21.36,11.39-33.674c1.799-0.393,3.104-0.679,3.221-0.703
	c0.405,0.078,9.057,1.761,9.057,1.761l8.109-2.167c0,0,3.831-0.811,4.052-0.857c0.218,0.004,4.002,0.073,4.268,0.078
	c0.259,0.079,3.168,0.972,3.168,0.972l3.352,1.033l1.943,0.34l2.498,0.409l5.785-0.669L754.63,132.617z"/>
<path fill="#7BAFDE" d="M145.113,273.189c-15.512,0-33.666,11.8-36.874,37.71c-0.251,2.03-0.365,3.951-0.365,5.772
	c0,10.413,3.731,17.568,6.821,23.492c2.139,4.101,3.987,7.643,4.347,11.553c0.024,0.352,0.036,0.705,0.036,1.055
	c0,2.847-0.793,5.585-2.088,6.974c-0.686,0.736-1.292,0.834-1.793,0.834c-0.335,0-1.309-0.589-1.953-0.979
	c-1.517-0.917-3.594-2.175-6.236-2.175c-5.717,0-9.959,5.588-11.07,14.582c-2.374,19.137,0.085,32.53,7.518,40.945
	c5.923,6.701,14.62,9.961,26.59,9.961c18.263,0,40.131-18.675,43.574-46.472c0.514-4.149,0.75-7.987,0.75-11.544
	c0-25.714-12.32-36.72-20.822-44.313c-5.339-4.771-8.305-7.617-8.305-11.528c0-0.335,0.022-0.676,0.067-1.029
	c0.225-1.823,1.552-3,2.3-3.308c0.758,0.927,1.673,3.87,2.239,5.731c1.651,5.428,4.145,13.627,12.061,13.627
	c11.281,0,14.529-7.14,15.267-13.131c0.074-0.592,0.108-1.216,0.108-1.862c0-6.476-3.503-15.242-5.952-19.643
	c-5.209-9.699-15.755-16.252-26.213-16.252C145.118,273.189,145.115,273.189,145.113,273.189z"/>
<path fill="#00245D" d="M123.041,365.384c3.058-3.28,4.646-8.641,4.245-14.337c-0.515-5.621-2.925-10.242-5.256-14.711
	c-3.419-6.556-6.955-13.333-5.58-24.42c2.591-20.929,16.677-30.456,28.669-30.452h0.001c6.038,0,14.544,3.738,18.954,11.947
	c2.39,4.294,5.381,12.607,4.893,16.519c-0.542,4.395-2.322,5.875-7.057,5.875c-1.785,0-3.094-4.303-4.146-7.761
	c-1.588-5.222-3.565-11.721-9.907-11.721c-4.555,0-9.964,4.294-10.758,10.687c-1.113,8.977,4.74,14.208,10.938,19.743
	c9.387,8.387,21.071,18.823,17.373,48.672c-2.906,23.457-20.631,39.213-35.364,39.213c-9.46,0-16.13-2.343-20.391-7.167
	c-5.691-6.439-7.544-18.03-5.507-34.447c0.584-4.736,2.275-7.159,2.849-7.324c0.344,0,1.318,0.589,1.963,0.979
	c1.516,0.917,3.594,2.174,6.236,2.174C118.213,368.852,120.927,367.652,123.041,365.384z"/>
<path fill="#00245D" d="M648.2,288.939c3.248-3.544,5.809-6.344,11.49-6.344c1.864,0,3.299,0.654,4.507,2.057
	c2.899,3.361,4.167,10.818,3.078,18.137c-1.259,8.508-7.944,15.694-14.6,15.694c-3.094,0-3.848-0.309-4.537-8.419l-0.027-0.31
	l-0.072-0.305c-1.001-4.166-4.161-4.747-5.197-4.938l-0.559-0.106l-0.429-0.008c-8.301,0-11.614,16.707-12.654,23.89
	c-2.438,16.456,2.402,27.13,5.935,34.924c1.858,4.1,3.326,7.338,2.965,9.771c-1.168,7.866-9.704,11.69-26.093,11.69
	c-9.028-0.006-15.854-1.918-18.724-5.244c-1.185-1.375-1.773-3.084-1.773-5.186c0-0.51,0.058-1.059,0.127-1.613
	c0.322-0.726,1.206-2.488,2.098-4.26c4.726-9.397,14.56-28.947,16.357-41.181c0,0.006,0.49-3.216,0.49-3.216
	c0.535-3.47,0.94-6.089,0.94-8.338c0-3.815-1.169-6.566-4.835-10.589c-0.229-0.277-1.126-1.361-1.126-1.361
	c-0.973-1.123-1.263-1.46-1.263-2.146c0-0.256,0.041-0.56,0.101-0.973c1.545-10.427,20.927-17.103,29.342-17.372
	c-0.08,0.447-0.181,0.928-0.261,1.318l-0.502,2.718l0.011,0.052l-0.178,2.276l0.025-0.261c-0.316,2.231,0.717,4.504,2.637,5.791
	c1.512,1.015,3.277,1.119,4.757,0.319C643.642,293.869,646.07,291.268,648.2,288.939z"/>
<path fill="#7BAFDE" d="M518.399,240.649c-0.979-1.239-2.883-2.715-6.362-2.715c-8.192,0-19.153,3.823-27.92,9.74
	c-5.13,3.409-12.127,9.012-13.373,18.084c-0.139,1.021-0.202,1.954-0.202,2.807c0,5.503,2.66,7.742,5.441,9.542
	c0,0,0.325,0.218,0.599,0.403c0.17,0.401,0.554,1.644,0.639,4.593c-0.037-0.031-0.069-0.065-0.106-0.097
	c-3.858-3.189-10.897-6.915-18.032-6.915c-22.766-0.012-39.414,47.671-41.9,65.797c-1.946,14.172,0.128,40.812,10.743,52.988
	c3.831,4.393,8.612,6.715,13.828,6.715c3.365,0,6.478-1.212,9.228-2.28c2.13-0.831,4.142-1.614,5.688-1.614
	c1.919,0,3.498,0.243,5.327,0.524c2.207,0.34,4.704,0.726,8.13,0.726c9.503,0,35.591-7.922,38.056-25.765
	c0.152-1.12,0.221-2.2,0.221-3.247c0-4.505-1.262-8.399-2.49-12.189c-0.977-3.013-1.887-5.868-2.19-9.016
	c0.002-0.001,0.101-0.033,0.101-0.033c-0.248-2.984-0.371-6.212-0.371-9.618c0-9.804,1.009-21.074,2.935-32.212
	c1.69-10.246,4.168-20.576,5.5-26.125l0.465-1.952c0,0,3.661-14.773,3.661-14.773l3.227-12.875c0.424-1.801,0.759-3.613,0.759-5.321
	C520,243.915,519.582,242.139,518.399,240.649z M468.308,319.317c-2.67,19.583-4.675,23.634-5.069,24.273
	c-0.357,0.323-0.908,0.642-2.218,0.642c-0.492-0.001-0.771-0.128-1.097-0.501c-1.759-2.023-2.393-8.186-1.501-14.656v-0.007
	c1.473-10.813,5.974-21.426,9.089-21.426c0.514,0.354,1.221,2.289,1.221,6.051C468.733,315.25,468.614,317.117,468.308,319.317z"/>
<path fill="#7BAFDE" d="M415.798,365.85c-2.75-13.016-6.169-29.213-4.281-44.424c0-0.001,1.012-7.706,1.012-7.706
	c2.029-15.015,3.496-25.862-2.577-32.812c-3.829-4.38-10.044-6.418-19.563-6.418c-10.893-0.011-15.344,4.667-20.497,10.084
	c-0.473,0.496-1.022,1.05-1.532,1.577c0.068-0.674,0.116-1.351,0.116-2.023c0-2.114-0.424-4.16-1.818-5.793
	c-0.97-1.134-2.802-2.488-6.022-2.488c-8.042,0-12.71,2.416-21.828,9.219c-8.076,5.935-12.273,12.102-13.183,19.396v0.003
	c-0.124,0.993-0.181,1.916-0.181,2.771c0,6.066,2.847,8.827,5.064,10.53c0.369,1.622,0.973,2.909,1.494,3.994
	c0,0,0.145,0.319,0.29,0.633c0.084,1.02,0.152,2.233,0.152,3.795c0,2.77-0.194,6.454-0.774,11.21
	c-2.454,10.845-6.778,22.712-10.603,33.193c-2.298,6.298-4.29,11.754-5.6,16.204c-0.023-0.853-0.313-2.943-1.62-12.215
	c-1.3-9.229-3.08-21.869-3.332-25.345c-0.645-9.011,0.484-18.648,1.579-27.966c1.849-15.757,3.596-30.64-4.235-39.443
	c-4.328-4.865-10.89-7.231-20.063-7.231c-15.48-0.02-39.609,9.306-42.614,35.078c-0.636,5.473,0.583,10.534,3.257,13.542
	c1.687,1.897,3.95,2.944,6.375,2.949c9.962,0,14.648-9.018,18.07-15.601c1.597-3.072,3.737-7.155,5.384-7.708
	c0.399,0.77,0.852,2.685,0.852,6.043c0,1.568-0.1,3.435-0.351,5.614c-0.338,2.913-1.146,4.903-2.216,5.458l-0.217,0.113
	l-0.202,0.136c-0.436,0.296-1.321,0.523-2.179,0.743l-1.489,0.411c-21.722,6.937-39.105,30.917-42.303,58.321
	c-0.255,2.185-0.379,4.388-0.379,6.579c0,0.951,0.032,1.898,0.078,2.844c-0.193-0.474-0.389-0.941-0.582-1.397
	c-0.891-2.104-1.732-4.089-1.942-5.977c-1.264-11.58-2.243-32.154-2.243-50.931c0-11.646,0.376-22.601,1.296-30.284l0.397-3.281
	c0,0,0.061-0.484,0.091-0.727c0.084-0.38,9.876-44.424,9.876-44.424c0.475-2.014,0.858-4.064,0.858-5.985
	c0-2.053-0.437-3.957-1.669-5.512c-0.98-1.239-2.857-2.715-6.228-2.715c-8.262,0-19.296,4.392-28.111,11.188
	c-8.053,6.128-12.236,12.54-13.145,20.166c-0.131,1.095-0.192,2.096-0.192,3.012c0,5.768,2.423,8.198,4.959,10.169l0.901,0.732
	c0.027,0.042,0.959,1.401,0.959,7.417c0,2.947-0.225,7.015-0.889,12.59c-0.087,0.422-0.144,0.824-0.144,1.187
	c0,0.23,0.06,0.41,0.088,0.616c-0.007,0.055-0.024,0.198-0.024,0.198c-2.168,18.083-11.53,59.547-17.575,77.845
	c-0.506,1.583-1.398,2.91-2.43,4.445c-1.668,2.479-3.557,5.287-4.066,9.5c-0.176,1.466-0.264,2.88-0.264,4.244
	c0,6.145,1.776,11.252,5.301,15.228c6.491,7.322,16.947,8.425,22.602,8.431c19.287,0,31.188-8.869,33.733-24.977
	c1.546,6.239,4.132,11.741,7.552,15.583c3.659,4.11,8.153,6.283,12.994,6.283c3.892,0.011,7.225-2.327,10.167-4.389
	c1.621-1.137,3.843-2.695,4.848-2.695c0.602,0,1.537,0.535,2.72,1.209c2.531,1.447,5.997,3.427,11.662,3.427
	c10.736,0.011,26.843-6.573,32.416-24.138c-0.083,1.004-0.141,1.983-0.141,2.909c0,5.088,1.27,9.011,3.838,11.919
	c4.224,4.781,10.714,5.439,17.099,5.439h0.02c17.441,0,29.464-12.994,32.163-34.761c0.521-4.202,0.653-8.602,0.653-13.188
	c0-2.299-0.033-4.646-0.066-7.037c-0.035-2.442-0.07-4.911-0.07-7.398c0-5.346,0.161-10.775,0.834-16.206
	c0-0.001,0.306-2.656,0.306-2.656c1.922-17.179,4.469-21.146,6.324-21.351c0.88,0.902,1.702,4.481,1.702,10.436
	c0,2.996-0.208,6.59-0.721,10.733c-0.691,5.567-1.051,10.288-1.397,14.851c-0.501,6.603-0.975,12.84-2.419,20.64
	c-0.368,2.005-1.214,3.566-2.195,5.373c-1.215,2.239-2.592,4.778-3.017,8.243c-0.162,1.307-0.236,2.542-0.236,3.708
	c0,6.841,2.563,11.314,4.913,13.973c3.928,4.449,9.977,7,16.595,7c6.73,0,28.85-1.279,30.896-17.738
	C419.615,383.939,417.848,375.555,415.798,365.85z M273.847,349.76l-0.267,3.047l-0.193,2.274c-0.289,2.456-0.947,5.173-2.014,8.294
	l-0.034,0.099l-0.029,0.101c-0.211,0.737-0.721,1.901-1.25,2.928c-0.154-0.719-0.283-1.752-0.283-3.198
	c0-1.069,0.07-2.355,0.248-3.889c0.526-4.539,2.261-8.615,3.964-11.002C273.952,348.819,273.905,349.266,273.847,349.76z"/>
<path fill="#00245D" d="M368.754,297.32c2.999-2.572,5.228-4.915,7.196-6.981c4.746-4.99,7.128-7.494,14.433-7.487
	c6.839,0,11.179,1.167,13.272,3.561c3.573,4.087,2.255,13.841,0.585,26.188l-1.022,7.797c-2.061,16.598,1.521,33.551,4.398,47.179
	c1.893,8.973,3.53,16.722,2.948,21.44c-1.233,9.906-19.042,10.407-22.599,10.407c-4.16,0-8.019-1.56-10.327-4.173
	c-2.344-2.653-3.233-6.396-2.645-11.121c0.232-1.898,1.042-3.39,2.067-5.279c1.154-2.128,2.462-4.539,3.067-7.846
	c1.526-8.231,2.016-14.688,2.535-21.521c0.339-4.468,0.69-9.086,1.357-14.456c1.206-9.737,1.654-22.463-3.052-27.791
	c-1.61-1.823-3.708-2.787-6.067-2.789c-11.571,0-13.588,18.031-14.793,28.801l-0.295,2.56c-1.056,8.527-0.939,16.772-0.827,24.749
	c0.098,6.859,0.189,13.341-0.522,19.078c-2.194,17.695-10.676,27.436-23.883,27.429c-4.429,0-8.805-0.317-10.834-2.614
	c-1.162-1.314-1.745-3.449-1.745-6.37c0-1.085,0.081-2.28,0.242-3.581c0.511-4.136,3.507-12.348,6.681-21.042
	c3.931-10.771,8.386-22.981,10.951-34.398l0.045-0.2l0.025-0.204c0.575-4.663,0.864-8.826,0.864-12.446
	c0-1.917-0.082-3.683-0.244-5.286l-0.069-0.684l-0.223-0.484l-0.733-1.611c-0.538-1.122-0.927-1.933-1-2.994l-0.129-1.921
	l-2.154-1.604c-1.588-1.166-2.473-1.817-2.473-4.209c0-0.542,0.046-1.174,0.139-1.921c0.605-4.854,3.739-9.21,9.86-13.709
	c8.514-6.352,11.473-7.487,16.328-7.561c-0.01,0.557-0.077,1.414-0.305,2.858l-0.06,0.374l0.009,0.377
	c0.001,0.059,0.003,0.119,0.003,0.181c0,0.761-0.106,1.626-0.232,2.59l-0.043,0.331l0.01,0.336c0.05,1.698,0.167,5.672,3.418,7.14
	C363.792,298.81,366.125,299.5,368.754,297.32z"/>
<path fill="#00245D" d="M198.323,275.872c-1.178-0.915-1.788-1.391-1.788-3.386c0-0.597,0.054-1.335,0.166-2.26l0-0.005
	c0.632-5.314,3.702-9.806,9.95-14.563c8.255-6.363,17.41-9.314,22.668-9.45c-0.014,0.675-0.141,1.881-0.65,4.037l-9.974,44.859
	l-0.141,1.131l-0.399,3.302c-0.977,8.167-1.373,19.465-1.373,31.367c0,19.24,1.033,40.052,2.31,51.752
	c0.346,3.097,1.517,5.861,2.549,8.299c0.962,2.273,1.807,4.266,1.807,5.948c0,0.183-0.011,0.364-0.031,0.539
	c-1.519,12.684-10.173,19.113-25.725,19.113c-3.428-0.003-11.896-0.559-16.398-5.637c-2.667-3.007-3.68-7.375-3.009-12.979
	c0.27-2.227,1.348-3.831,2.713-5.862c1.211-1.799,2.584-3.841,3.438-6.511c6.153-18.626,15.707-60.951,17.92-79.411l1.243-10.187
	c0,0-0.374,0.252-0.419,0.282c0.136-2.085,0.206-3.965,0.206-5.622c0-8.934-1.823-12.024-3.78-13.711
	C199.601,276.921,198.323,275.872,198.323,275.872z"/>
<path fill="#00245D" d="M434.893,139.781c-1.152-0.751-1.589-1.036-1.589-2.208c0-0.429,0.059-0.976,0.162-1.708v-0.007
	c0.559-3.998,3.68-7.722,9.819-11.718c8.493-5.588,17.406-8.163,22.774-8.326c-0.069,0.554-0.208,1.355-0.505,2.585
	c-0.049,0.17-0.726,2.6-0.726,2.6s-0.143,1.08-0.191,1.429c-0.109,0.412-0.897,3.363-0.897,3.363
	c-0.978,3.624-1.821,6.752-2.266,9.918l-0.365,2.238c-0.413,2.377-0.897,5.168-0.897,8.406c0,6.298,1.832,14.283,9.582,24.206
	l1.254,1.604l2.034,0.004c3.25,0.005,6.405-2.388,12.076-14.319c2.699-5.679,5.732-13.274,6.137-16.157
	c0.578-4.127-0.554-7.08-1.464-9.453c-0.78-2.036-1.176-3.172-0.948-4.787c1.1-7.838,10.404-8.446,13.232-8.446
	c3.307,0,5.874,0.77,7.037,2.108c0.303,0.347,1.222,1.404,0.807,4.378c-0.495,3.486-2.878,5.932-6.177,9.315
	c-3.23,3.315-7.25,7.44-9.96,13.659c-2.497,5.867-5.383,13.988-8.725,23.392c-11.701,32.931-31.288,88.047-52.278,88.039
	c-3.503,0-6.357-1.242-8.485-3.689c-3.347-3.852-4.675-10.275-3.645-17.623c1.012-7.248,5.522-15.669,9.822-15.669
	c2.5,0.001,3.272,0.424,3.413,0.515c0.083,0.229,0.133,0.805,0.167,1.211c0.429,5.375,3.528,6.503,6.054,6.503
	c4.748,0,8.189-4.423,9.212-11.831c0.205-1.454,0.298-3.246,0.298-5.317c0-12.995-3.708-36.99-7.127-57.376l-0.753-4.6
	c-0.492-2.857-1.265-4.883-1.885-6.51l-0.216-0.567l-0.149-0.266c-1.048-1.889-2.151-3.204-3.37-4.031
	C435.875,140.458,434.893,139.781,434.893,139.781z"/>
<path fill="#00245D" d="M387.623,115.288c3.7-4.898,5.777-10.221,7.61-14.916c3.379-8.656,5.033-11.684,10.318-11.68
	c2.22,0,3.817,0.393,4.395,1.077c1.211,1.443,0.399,6.083-0.253,9.813c-0.935,5.359-1.904,10.899,0.277,15.578
	c3.836,8.4,10.527,7.48,13.743,7.039c0.118-0.016,0.25-0.033,0.38-0.049c0,0.075,0.008,0.096,0.008,0.181
	c0,0.746-0.066,1.87-0.298,3.533c-0.636,4.523-1.188,4.49-5.474,4.228c-7.302-0.449-15.283,0.447-17.577,16.837
	c-0.362,2.574-0.594,7.112-0.594,12.352c0,3.901,0.13,8.194,0.429,12.354c1.27,17.652,4.532,21.945,7.23,23.711
	c1.744,1.133,3.446,1.673,4.812,2.107c0.663,0.211,1.662,0.528,1.882,0.731l0,0c0,0.005,0.218,0.389,0.218,1.67
	c0,0.638-0.053,1.498-0.216,2.643c-2.165,15.492-18.445,22.691-28.766,22.68h-0.004c-6.677,0-11.636-1.809-14.74-5.379
	c-2.815-3.237-4.229-7.97-4.229-14.116c0-2.174,0.177-4.523,0.531-7.045c1.167-8.316,3.684-16.405,6.348-24.969
	c2.716-8.725,5.524-17.75,6.847-27.197c0.255-1.815,0.383-3.438,0.383-4.89c0-3.531-0.763-6.058-2.341-7.92
	c-2.449-2.889-5.86-2.975-8.119-3.033c-0.494-0.011-1.108-0.041-1.527-0.101c-0.042-0.232-0.082-0.592-0.082-1.127
	c0-0.445,0.028-1.008,0.104-1.712c0.773-7.926,2.249-7.894,6.631-7.798C378.939,119.967,384.056,120.078,387.623,115.288z"/>
<path fill="#7BAFDE" d="M361.295,88.888c0.676-4.822-0.509-9.144-3.428-12.502c-3.328-3.827-8.733-6.112-14.457-6.112
	c-10.159,0-26.789,9.034-28.703,22.65c-0.986,7.025,1.44,11.529,3.649,14.069c2.435,2.801,5.912,4.71,9.884,5.514
	c-1.813,0.78-3.63,1.646-5.424,2.599c-2.437,1.374-5.133,2.972-7.55,5.08c-5.873,4.5-9.131,9.429-9.927,15.072l0,0.001
	c-0.141,1.005-0.207,1.924-0.207,2.766c0,5.365,2.648,7.635,5.215,9.34c0,0,0.183,0.128,0.352,0.245
	c0.422,1.143,0.825,2.325,1.04,3.626c0.064,0.874,0.119,1.904,0.119,3.147c0,2.232-0.173,5.086-0.774,8.65
	c-2.63,15.172-8.822,26.835-13.342,35.352c-2.794,5.265-4.813,9.069-5.268,12.308c-0.154,1.105-0.232,2.186-0.232,3.242
	c0,4.651,1.494,8.803,4.397,12.142c7.143,8.214,19.829,8.853,23.546,8.853c12.166,0,31.118-6.086,33.469-22.854
	c0.305-2.163-0.268-5.372-1.593-12.422c-2.069-11.016-5.199-27.664-3.361-40.758c0.771-5.499,2.392-10.707,4.108-16.22
	c1.695-5.446,3.443-11.076,4.302-17.011c1.266-4.64-0.586-10.093-2.92-13.282c-1.827-2.496-4.135-4.001-6.584-4.32
	C354.303,103.897,360.12,97.258,361.295,88.888z"/>
<path fill="#00245D" d="M324.667,101.508c-1.554-1.786-2.118-4.283-1.678-7.418c1.276-9.08,14.011-15.453,20.421-15.453
	c3.239,0,6.437,1.271,8.146,3.236c1.321,1.519,1.798,3.433,1.458,5.852c-1.47,10.455-14.083,16.854-20.459,16.854
	C329.239,104.578,326.364,103.459,324.667,101.508z"/>
<path fill="#00245D" d="M317.111,141.989c0,0-0.828-0.672-0.829-0.672c-0.007-0.003-1.303-0.913-1.303-0.913
	c-1.292-0.899-1.413-0.809-1.485-2.19c-0.023-0.443,0.018-1.017,0.126-1.79c0.479-3.393,2.713-6.563,6.831-9.689l0.123-0.093
	l0.114-0.101c1.658-1.462,3.582-2.653,6.147-4.101c6.971-3.702,14.512-6.037,19.645-6.077c1.11,0.495,2.7,3.742,2.7,6.083
	c0,0.402-0.048,0.777-0.151,1.106l-0.106,0.335l-0.049,0.35c-0.751,5.36-2.352,10.506-4.048,15.953
	c-1.74,5.591-3.539,11.372-4.405,17.544c-0.447,3.184-0.636,6.515-0.636,9.896c0,11.965,2.368,24.562,4.06,33.569
	c0.72,3.833,1.532,8.152,1.532,9.559c0,0.073-0.002,0.14-0.008,0.196c-1.786,12.739-19.217,15.614-25.183,15.614
	c-5.553,0-13.399-1.565-17.236-5.979c-1.982-2.278-2.7-5.135-2.195-8.733c0.25-1.783,2.252-5.555,4.373-9.55
	c4.515-8.505,11.337-21.358,14.2-37.862c1.118-6.633,0.956-11.207,0.736-14.071l-0.013-0.167l-0.026-0.163
	c-0.382-2.433-1.128-4.424-1.728-6.024l-0.308-0.88C317.687,142.715,317.414,142.321,317.111,141.989z"/>
<path fill="#7BAFDE" d="M203.656,155.493c-3.307,23.587,2.193,46.265,14.711,60.66c8.498,9.773,19.599,14.94,32.102,14.94h-0.001
	c26.025,0.009,44.682-17.742,48.69-46.325c1.669-11.837,3.56-25.257-1.98-35.123c-0.938-1.759-2.479-2.983-4.415-3.46
	c-4.608-1.14-9.693,2.306-16.131,6.666c-4.528,3.067-10.162,6.885-13.237,6.884c-3.356,0-5.713-0.836-7.208-2.555
	c-2.772-3.187-3.394-9.918-1.901-20.579c1.405-10.004,9.764-24.478,21.205-24.478c1.337,0,1.986,0.839,3.431,6.08
	c1.316,4.772,3.305,11.987,11.187,11.987c8.913,0,18.292-8.982,19.678-18.841c0-0.003,0.317-2.075,0.317-2.075
	c0.832-5.273,1.494-10.541,1.494-15.254c0-5.437-0.882-10.139-3.405-13.269c-1.785-2.218-4.249-3.477-7.122-3.653
	c-2.932-0.218-4.935,1.542-6.136,2.601c0,0-0.146,0.122-0.275,0.228c-0.798-0.366-2.108-1.393-3.137-2.214
	c-3.726-2.968-9.357-7.454-19.02-7.454C235.865,70.243,208.538,120.648,203.656,155.493z"/>
<path fill="#00245D" d="M224.677,210.667c-10.789-12.408-15.672-33.104-12.741-54.013c2.478-17.685,10.46-37.252,21.352-52.344
	c11.959-16.571,25.887-25.694,39.216-25.69c6.741,0,10.496,2.994,13.811,5.633c2.594,2.067,5.276,4.206,8.828,4.206
	c2.502,0,4.199-1.496,5.322-2.487c0,0,0.279-0.228,0.521-0.427c0.289,0.089,0.512,0.223,0.697,0.451
	c1.177,1.463,1.572,4.426,1.572,7.768c0,5.26-0.977,11.454-1.412,14.209l-0.337,2.214c-0.88,6.268-7.003,11.64-11.397,11.64
	c-1.136,0-1.747-0.845-3.127-5.848c-1.34-4.863-3.366-12.212-11.488-12.219c-17.084,0-27.695,18.905-29.488,31.68
	c-1.279,9.133-1.996,20.48,3.871,27.228c3.132,3.602,7.68,5.428,13.516,5.428c0.002,0,0.005,0,0.008,0
	c5.638,0,11.883-4.23,17.921-8.321c2.799-1.896,6.85-4.639,8.883-5.299c1.668,3.409,2.294,7.599,2.294,12.149
	c0,5.477-0.838,11.422-1.621,16.979c-3.437,24.503-18.534,39.128-40.388,39.128c-0.007,0-0.02,0-0.02,0
	C240.458,222.732,231.54,218.559,224.677,210.667z"/>
<path fill="#7BAFDE" d="M509.574,405.781c-41.583,3.191-83.712,8.153-124.453,12.952c-59.646,7.026-121.324,14.291-182.371,16.126
	c-55.142,1.653-104.873-1.608-152.037-9.968l-2.831-0.522c-7.655-1.444-14.884-2.808-22.377,1.639
	c-5.943,3.502-8.833,10.084-8.833,20.117l-0.017,3.178c-0.065,8.547-0.128,16.623,4.429,24.589
	c4.114,7.183,11.645,12.603,19.652,14.146c104.233,20.204,210.757,10.899,302.421,0.591l44.386-5.141
	c59.939-7.045,121.921-14.333,183.237-16.17c39.241-1.187,77.1,0.214,112.514,4.169c8.147,0.899,16.84,2.082,27.359,3.723
	c2.992,0.462,6.064,1.089,9.036,1.694c5.529,1.128,11.248,2.295,16.897,2.519c10.786,0.436,19.286-7.791,20.212-19.562
	c0-0.002,0.059-0.618,0.059-0.618c0.002-0.057,0.061-4.944,0.061-4.944c0.029-1.585,0.059-3.182,0.059-4.784
	c0-6.445-0.471-12.957-3.328-19.099c-3.624-7.835-11.166-13.87-20.178-16.148c-24.007-6.027-49.358-8.054-73.873-10.013
	C615.919,400.779,568.25,401.262,509.574,405.781z"/>
<path fill="#00245D" d="M387.931,425.883c26.237-3.112,53.366-6.331,80.046-9.036c60.385-6.119,109.479-8.409,154.504-7.206
	c25.468,0.688,51.04,2.757,76.005,6.153l7.51,0.945c10.072,1.221,20.49,2.484,29.646,5.824c14.283,5.225,14.249,20.649,14.22,34.258
	l-0.005,1.882c-0.262,4.745-1.672,8.092-4.313,10.173c-5.274,4.162-14.882,2.407-21.896,1.127h-0.002
	c-12.326-2.243-25.297-4.145-39.653-5.811c-23.434-2.719-48.367-4.204-76.221-4.537c-53.596-0.65-105.897,3.932-149.991,8.499
	c-23.993,2.491-48.378,5.355-71.961,8.126c-76.773,9.02-156.161,18.348-234.776,16.247c-25.413-0.686-50.987-2.758-76.009-6.161
	l-7.576-0.953c-10.047-1.215-20.437-2.471-29.583-5.815c-14.277-5.223-14.243-20.648-14.212-34.256l0.003-1.868
	c0-4.612,1.221-7.873,3.732-9.965c5.367-4.474,15.665-2.589,22.48-1.343c12.113,2.204,25.083,4.099,39.656,5.793
	c23.362,2.722,48.296,4.21,76.224,4.549C240.158,443.414,315.28,434.502,387.931,425.883z"/>
<path fill="#7BAFDE" d="M570.48,428.553c0.136-0.821-0.841-2.22-1.69-2.183c-1.137,0.032-2.683,0.517-4.119,1.337
	c-0.439,0.263-0.85,0.52-1.2,0.857c-0.82,0.681-1.289,1.417-1.239,2.282c0.033,1.131,0.618,1.214,1.153,1.515
	c0.029,0.042,0.062,0.03,0.093,0.074c0.178,0.272,0.378,0.586,0.53,0.97c0.146,0.534,0.301,1.266,0.301,2.315
	c0,4.394-2.077,7.303-2.024,8.553c0.115,2.722,3.348,3.33,5.259,3.26c1.784-0.065,5.163-0.967,5.096-3.598
	c-0.019-0.867-2.599-5.749-2.721-9.389C569.855,432.476,570.531,430.59,570.48,428.553z"/>
<path fill="#7BAFDE" d="M542.912,427.724c-2.404,0.158-2.388,2.081-3.711,2.748c-0.066,0.037-0.339-0.113-0.352-0.338
	c-0.007-0.139-0.04-0.278-0.056-0.419c-0.045-0.781,0.199-1.626-0.91-1.552c-1.88,0.13-6.036,1.846-5.869,4.369
	c0.064,0.784,0.455,0.93,0.978,1.392c1.232,0.945,1.121,1.179,1.267,3.45c0.178,2.858-1.768,8.335-1.751,8.625
	c0.202,2.81,3.597,2.944,5.465,2.827c1.691-0.122,5.426-0.512,5.277-3.238c-0.099-1.787-3.25-3.532-3.533-8.172
	c-0.053-0.738-0.077-3.82,0.854-3.885c0.205,0.022,0.373,0.002,0.514,0.327c0.394,1.292,0.743,2.232,2.199,2.144
	c1.768-0.102,3.032-1.882,2.929-3.794C546.112,430.252,545.053,427.593,542.912,427.724z"/>
<path fill="#7BAFDE" d="M558.069,426.878c-2.397,0.108-2.407,2.055-3.75,2.684c-0.052,0.047-0.324-0.126-0.339-0.332
	c-0.022-0.15-0.033-0.289-0.051-0.434c-0.04-0.773,0.218-1.617-0.884-1.552c-1.89,0.091-6.073,1.717-5.929,4.264
	c0.042,0.782,0.439,0.941,0.947,1.411c1.22,0.965,1.092,1.176,1.22,3.473c0.146,2.852-1.888,8.307-1.872,8.595
	c0.152,2.798,3.536,2.998,5.418,2.901c1.683-0.103,5.437-0.419,5.33-3.138c-0.09-1.781-3.206-3.593-3.431-8.226
	c-0.027-0.748,0-3.84,0.934-3.87c0.191,0.018,0.346,0.018,0.495,0.326c0.384,1.302,0.713,2.251,2.165,2.174
	c1.773-0.076,3.056-1.809,2.986-3.737C561.235,429.461,560.22,426.782,558.069,426.878z"/>
<path fill="#7BAFDE" d="M565.877,425.863c1.725-0.065,4.278-1.582,4.22-3.8c-0.056-1.711-1.88-2.401-3.221-2.342
	c-1.608,0.056-4.334,1.502-4.252,3.56C562.694,425.14,564.352,425.918,565.877,425.863z"/>
<path fill="#7BAFDE" d="M523.125,429.273c-2.571,0.223-6.81,1.729-6.525,5.244c0.072,0.864,0.668,1.695,1.509,1.625
	c2.666-0.244,2.042-3.666,3.879-3.829c1.036-0.082,1.348,1.389,1.409,2.322c0.045,0.568-0.069,1.072-0.578,1.336
	c-0.231,0.165-0.594,0.227-0.876,0.328c-3.381,1.153-6.177,4.538-5.812,8.675c0.203,2.583,2.207,4.976,4.656,4.758
	c0.98-0.082,1.856-0.777,2.777-0.845c0.791-0.08,1.504,0.894,3.035,0.778c2.253-0.198,5.081-1.672,4.889-4.589
	c-0.007-0.101-2.016-4.937-2.3-5.805C527.654,434.636,530.172,428.692,523.125,429.273z M523.613,441.994
	c-0.048,0.28-0.333,1.096-0.657,1.119c-0.988,0.094-1.326-0.838-1.396-1.8c-0.085-1.058,0.415-2.554,1.533-2.644
	c0.102-0.005,0.203,0.02,0.243,0.121c0.229,0.08,0.277,0.84,0.311,1.06c0.02,0.283,0.064,0.521,0.086,0.768
	C523.761,441.08,523.711,441.556,523.613,441.994z"/>
<path fill="#7BAFDE" d="M510.809,432.177c-0.822-1.138-1.555-1.576-2.974-1.422c-2.398,0.247-3.66,2.463-4.267,2.537
	c-0.658,0.06-1.028-0.121-1.036-0.856c0.066-2.126,0.127-4.232,0.178-6.345c0.01-0.861-0.101-1.392-0.94-1.314
	c-1.344,0.156-3.213,0.905-4.696,2.11c-1.1,0.897-1.753,1.789-1.659,2.848c0.122,1.145,0.753,1.183,1.299,1.438
	c0.376,0.174,0.815,0.916,1.073,2.79c0.024,0.25,0.048,0.5,0.08,0.788c0.344,3.404,0.314,7.999-0.245,11.342
	c-0.173,1.349-1.001,2.702-0.862,4.084c0.208,1.963,2.537,2.222,3.905,2.067c2.282-0.268,5.046-2.542,4.771-5.409
	c-0.109-1.168-0.905-2.061-1.051-3.294c-0.21-1.487-0.418-2.974-0.562-4.457c-0.094-1.002-0.085-2.942,1.168-3.084
	c1.456,0.818,1.781,2.655,1.941,4.329c0.242,2.74-0.189,6.295,0,8.283c0.199,2.208,2.191,2.677,3.823,2.511
	c1.328-0.131,5.044-0.575,4.829-2.981c-0.074-0.93-1.312-2.242-1.647-3.47C513.597,443.277,511.108,432.619,510.809,432.177z"/>
<path fill="#7BAFDE" d="M657.67,440.861c-2.021-0.127-3.541,1.86-3.645,4.034c-0.085,1.64,2.369,3.255,2.284,4.838
	c-0.098,1.649-1.69,2.913-1.728,3.827c-0.047,0.746,0.56,1.167,1.169,1.204c2.351,0.149,5.322-5.349,5.469-7.702
	C661.387,444.323,660.588,441.044,657.67,440.861z"/>
<path fill="#7BAFDE" d="M648.749,440.627c-1.201-0.06-3.137,0.373-3.968,0.33c-0.705-0.032-0.942-0.757-0.92-0.997
	c0-0.083-0.029-0.11-0.029-0.156c0.506,0.091,0.987,0.192,1.397,0.217c3.118,0.146,5.434-2.016,5.668-6.58
	c0.003-0.281-0.014-0.607-0.026-0.938c0.746-1.166,1.368-2.163,1.457-3.662c0.053-1.18-0.374-2.428-1.327-2.472
	c-0.745-0.045-0.463,1.691-1.89,1.613c-0.13,0-0.325-0.053-0.548-0.138c-0.986-0.302-1.92-0.732-2.951-0.783
	c-3.066-0.159-6.088,1.687-6.246,5.923c-0.077,1.996,0.951,3.898,1.55,4.828c-1.914,1.343-2.434,3.433-2.498,5.183
	c-0.051,1.221,0.394,2.132,0.908,2.947c-0.761,0.644-1.131,1.444-1.182,2.593c-0.094,2.877,2.087,5.544,6.062,5.731
	c5.21,0.265,7.974-3.499,8.173-7.433C652.518,444.13,651.446,440.767,648.749,440.627z M645.62,429.735
	c1.329,0.064,1.369,1.183,1.339,2.83c-0.042,1.452-0.492,2.107-1.31,2.152c-1.228,0.115-1.627-0.99-1.582-2.936
	C644.134,430.42,645.127,429.714,645.62,429.735z M644.592,449.824c-0.956-0.043-1.717-1.726-1.877-2.487
	c0.506,0.131,1.116,0.266,1.592,0.285c0.719,0.047,1.499-0.098,1.874-0.089c0.094,0.012,0.167,0.024,0.146,0.305
	C646.296,448.404,645.697,449.871,644.592,449.824z"/>
<path fill="#7BAFDE" d="M579.546,430.367c-0.016-0.612,0.554-1.049,1.041-1.057c1.283-0.035,1.414,2.819,3.102,2.796
	c0.823-0.018,1.829-0.219,1.807-1.436c-0.002-0.78-0.899-2.118-1.466-2.756c-1.126-1.304-3.024-2.005-4.558-1.973
	c-2.761,0.066-5.248,1.858-5.16,5.14c0.072,2.961,2.529,3.996,3.046,5.774c0.248,0.916-0.056,1.968-1.116,1.99
	c-0.543,0.018-1.027-0.425-1.581-0.415c-0.764,0.027-0.999,0.922-0.978,1.636c0.131,4.964,2.604,6.715,6.672,6.599
	c3.059-0.054,6.177-2.682,6.118-6.402C586.379,432.761,579.594,433.045,579.546,430.367z"/>
<path fill="#7BAFDE" d="M704.395,442.324c-0.711-4.85,2.782-10.218-4.239-11.001c-2.55-0.272-6.997,0.38-7.322,3.89
	c-0.06,0.864,0.355,1.806,1.207,1.889c2.657,0.271,2.628-3.204,4.481-3.008c1.022,0.105,1.079,1.626,0.982,2.546
	c-0.059,0.574-0.261,1.055-0.796,1.208c-0.264,0.119-0.623,0.119-0.919,0.148c-3.527,0.486-6.86,3.283-7.22,7.406
	c-0.24,2.59,1.325,5.326,3.765,5.589c0.982,0.096,1.967-0.389,2.881-0.299c0.798,0.092,1.331,1.183,2.854,1.357
	c2.249,0.25,5.297-0.667,5.601-3.577C705.675,448.38,704.533,443.24,704.395,442.324z M698.854,441.809
	c-0.04,0.281-0.04,0.53-0.042,0.799c-0.066,0.46-0.2,0.902-0.36,1.327c-0.093,0.261-0.529,1.006-0.836,0.986
	c-0.985-0.124-1.155-1.112-1.07-2.07c0.102-1.058,0.839-2.415,1.959-2.299c0.106,0.015,0.192,0.065,0.221,0.17
	C698.934,440.848,698.867,441.602,698.854,441.809z"/>
<path fill="#7BAFDE" d="M690.63,437.113c0.368-4.127-2.684-7.403-6.317-7.739c-1.146-0.102-2.937,0.325-3.796,0.49
	c-1.947,0.355-3.733,1.114-4.75,1.643c-1.214,0.685-1.991,1.445-2.066,2.476c-0.072,1.141,0.493,1.286,1.023,1.659
	c0.021,0.042,0.066,0.042,0.084,0.079c0.107,0.341,0.259,0.634,0.359,0.895c0.118,0.579,0.208,1.447,0.072,2.656
	c-0.311,2.766-1.318,9.643-1.869,11.565c-0.178,0.628-0.77,0.929-0.818,1.617c-0.146,2.141,3.866,2.852,5.219,2.986
	c1.238,0.103,4.542,0.284,4.691-1.777c0.138-1.6-1.307-5.144-1.067-8.291C681.631,442.721,689.73,447.277,690.63,437.113z
	 M680.931,437.348c0.075-0.699,0.316-3.978,1.353-3.888c1.635,0,1.954,2.116,1.869,2.971c-0.093,1.243-0.868,3.141-2.252,3.012
	C681.144,439.388,680.883,438.072,680.931,437.348z"/>
<path fill="#7BAFDE" d="M598.819,426.115c-1.504,0-2.799,0.976-4.063,1.731c-0.309,0.108-0.634-0.056-0.447-0.525
	c0.085-1.863,0.368-3.715,0.591-5.578c0.038-0.297,0.078-0.621,0.115-0.932c0.094-0.864-0.008-1.391-0.828-1.386
	c-1.336,0.012-3.304,0.571-4.88,1.629c-1.168,0.762-1.881,1.592-1.853,2.669c0.008,1.142,0.594,1.231,1.155,1.542
	c0.397,0.253,0.791,1.214,0.82,3.75c0.08,3.927-0.553,7.792-0.82,11.646c-0.948,2.191-0.609,2.298-0.386,3.149
	c0.171,0.568,0.905,0.894,0.905,0.894c2.444,0.676,4.422,1.99,7.058,1.963c5.341-0.026,7.843-4.296,7.862-9.948
	C604.069,433.797,602.269,426.102,598.819,426.115z M596.314,438.452c-0.259,0-0.515-0.081-0.706-0.254
	c-0.456-0.426-0.514-4.592-0.522-5.452c0-0.857,0.253-2.001,1.228-2.012c1.454-0.005,1.978,2.885,1.982,4.098
	C598.296,436.081,597.761,438.448,596.314,438.452z"/>
<path fill="#7BAFDE" d="M635.274,426.506c-2.396-0.101-2.563,1.839-3.935,2.357c-0.075,0.032-0.312-0.159-0.303-0.365
	c-0.008-0.141-0.035-0.29-0.035-0.438c0.035-0.788,0.346-1.591-0.76-1.63c-1.887-0.052-6.179,1.214-6.232,3.755
	c-0.016,0.783,0.362,0.975,0.852,1.495c1.129,1.063,0.988,1.271,0.937,3.549c-0.083,2.854-2.497,8.124-2.497,8.41
	c-0.059,2.817,3.298,3.286,5.181,3.354c1.677,0.056,5.439,0.056,5.533-2.673c0.069-1.784-2.929-3.857-2.78-8.493
	c0.017-0.752,0.27-3.815,1.206-3.78c0.205,0.04,0.352,0.052,0.477,0.366c0.29,1.332,0.542,2.31,1.991,2.363
	c1.76,0.072,3.187-1.553,3.256-3.477C638.229,429.337,637.428,426.586,635.274,426.506z"/>
<path fill="#7BAFDE" d="M621.79,427.991c0.024-1.187-0.932-1.984-1.938-2.002c-2.151-0.048-5.154,1.157-5.191,3.981
	c-0.032,1.745,1.121,0.763,1.083,3.679c-0.018,0.933-0.452,2.868-1.56,3.026c-1.744,0.261-2.399-0.604-2.652-2.082
	c-0.032-0.204-0.016-0.447-0.016-0.708c0.298-2.253,0.599-4.485,0.908-6.74c0.104-0.863,0.016-1.387-0.826-1.399
	c-1.299-0.025-3.263,0.537-4.861,1.562c-1.164,0.748-1.89,1.555-1.89,2.602c-0.008,1.14,0.588,1.241,1.1,1.572
	c0.389,0.22,0.729,1.082,0.79,3.112c0,0.142-0.026,0.256-0.026,0.353c-0.021,1.932-0.453,3.795-0.453,5.68
	c-0.021,4.225,2.33,5.831,5.828,5.881c1.813,0.027,3.104-1.24,3.903-1.24c0.607,0.02,1.381,1.463,1.951,1.463
	c2.45,0.051,4.42-4.104,4.47-6.471c0.019-0.863-1.534-1.682-1.518-2.888C620.951,434.191,621.728,431.143,621.79,427.991z"/>
<path fill="#00245D" d="M653.772,63.822c-37.142,0-67.357,31.211-67.357,69.575c0,38.373,30.215,69.592,67.357,69.592
	c37.147,0,67.368-31.219,67.368-69.592C721.14,95.033,690.919,63.822,653.772,63.822z M599.535,162.471
	c1.789-0.199,3.813-1.203,5.075-2.445c0.983-0.967,1.494-2.04,1.494-3.079c0-0.065-0.04-0.125-0.043-0.19
	c0.157-0.375,0.258-1.008,0.258-2.21c0-2.099-0.295-5.86-1.07-12.68c-1.272-11.182-1.994-14.338-2.66-15.251
	c-0.216-1.188-1.088-2.313-2.641-3.245c-1.837-1.104-4.342-1.77-6.222-1.543c2.212-12.35,7.889-23.444,15.948-32.168
	c1.336,2.126,3.842,4.247,5.907,4.962c1.438,0.496,2.402,0.266,3.035-0.129c1.53-0.121,5.687-1.685,18.16-9.204
	c6.328-3.815,8.038-5.228,8.389-6.038c0.919-0.588,1.585-1.629,1.869-3.062c0.11-0.554,0.163-1.155,0.163-1.773
	c0-1.301-0.237-2.678-0.687-3.86c2.383-0.293,4.803-0.462,7.263-0.462c9.201,0,17.928,2.13,25.764,5.923
	c-1.36,1.701-2.388,4.075-2.606,6.037c-0.031,0.289-0.047,0.56-0.047,0.814c0,1.301,0.401,2.122,0.881,2.681
	c0.077,1.194,1.597,4.251,9.334,13.965c7.527,9.45,9.913,11.309,10.958,11.515c0.543,0.574,1.333,0.948,2.364,1.015
	c2.615,0.17,6.923-1.512,9.479-3.639c3.194,7.671,4.973,16.119,4.973,24.991c0,3.765-0.338,7.447-0.948,11.032
	c-1.881-1.668-5.319-2.486-7.593-2.043c-1.129,0.221-1.957,0.771-2.473,1.529c-0.751,0.301-1.997,1.821-5.341,7.461
	c-2.212,3.73-4.736,8.309-6.594,11.951c-2.33,4.575-2.982,6.35-2.982,7.188c0,0.042,0.019,0.057,0.024,0.096
	c-0.195,0.38-0.34,0.852-0.34,1.461c0,0.509,0.096,1.105,0.332,1.802c0.9,2.66,3.542,5.787,5.841,6.407
	c-8.906,8.377-20.202,14.057-32.683,15.832c0.195-0.605,0.293-1.288,0.293-2.002c0-1.411-0.352-2.927-0.945-4.119
	c-0.687-1.381-1.667-2.248-2.78-2.552c-0.652-0.6-2.814-1.267-9.867-2.727c-13.658-2.83-18.019-3.167-19.515-2.872
	c-0.823-0.173-1.968-0.058-3.357,1.18c-1.35,1.199-2.55,3.167-3.038,4.984C612.985,181.955,604.854,173.092,599.535,162.471z"/>
<path fill="#00245D" d="M678.005,131.608c-0.069-0.398-0.223-0.719-0.413-1c0.104-0.26,0.17-0.546,0.17-0.871
	c0-0.023-0.003-0.045-0.003-0.066c-0.112-4.977-15.455-21.949-20.018-22.147c-0.29-0.013-0.551,0.033-0.793,0.115
	c-0.288-0.229-0.626-0.419-1.058-0.52c-5.12-1.171-23.375,8.347-25.042,13.058c-0.106,0.304-0.16,0.599-0.16,0.878
	c0,0.059,0.042,0.103,0.048,0.158c-0.322,0.206-0.62,0.498-0.868,0.888c-0.905,1.426-1.299,4.451-1.299,8.06
	c0,8.292,2.08,19.679,4.795,21.859c0.288,0.23,0.589,0.36,0.895,0.446c0.064,0.395,0.202,0.789,0.482,1.167
	c3.089,4.185,22.135,7.739,27.172,5.071c0.501-0.264,0.881-0.6,1.137-0.983c0.258,0.023,0.514,0.016,0.753-0.047
	c4.332-1.131,14.26-19.066,14.26-25.315C678.064,132.086,678.045,131.835,678.005,131.608z"/>
<path fill="#00245D" d="M689.818,350.08c2.679-2.898,4.058-7.406,3.69-12.054c-0.506-4.897-2.812-8.798-5.042-12.57
	c-3.237-5.473-6.294-10.646-5.08-19.375c2.367-16.869,14.986-24.422,26.445-24.422c6.855,0,14.057,3.953,17.51,9.61
	c2.37,3.766,4.797,10.18,4.427,12.879c-0.386,2.724-1.501,4.208-6.288,4.208c-1.318,0-2.178-1.845-3.603-5.979
	c-1.462-4.238-3.461-10.043-9.494-10.043c-4.342,0-9.537,3.769-10.346,9.38c-1.123,8.012,4.781,12.666,10.492,17.167
	c9.034,7.118,19.271,15.186,15.902,39.13c-2.651,18.93-19.033,31.646-32.669,31.646c-9.383-0.005-15.822-2.17-19.686-6.617
	c-4.515-5.197-5.913-14.178-4.156-26.693c0.5-3.543,1.949-5.403,2.356-5.403c0.341,0,1.174,0.446,1.845,0.802
	c1.417,0.757,3.358,1.791,5.793,1.791C684.996,353.536,687.728,352.341,689.818,350.08z"/>
<path fill="#7BAFDE" d="M586.524,284.489c-5.522-6.41-13.958-9.942-23.756-9.944c-27.577,0-48.694,31.225-53.186,61.415
	c0,0.012-0.342,2.878-0.342,2.878l-0.395,3.268c-1.354,16.701,2.66,31.478,11.022,40.546c6.089,6.604,14.366,10.095,23.937,10.095
	c21.315,0.012,40.666-17.815,44.05-40.586c0.7-4.731-0.466-9.134-3.286-12.402c-2.572-2.98-6.198-4.622-10.213-4.622
	c-3.618,0-6.568,1.73-9.419,3.404c-1.954,1.147-3.805,2.214-5.724,2.66c-0.634,0-1.858,0-2.36,0c-2.153-0.331-4.11-1.52-5.516-3.388
	c-1.368-1.816-2.101-4.126-2.101-6.521c0-0.577,0.043-1.161,0.13-1.743c-0.002,0.003,0.008-0.073,0.019-0.142
	c0.442-0.537,1.421-1.27,3.719-0.897c10.14,1.637,23.988,1.18,32.446-5.01c4.151-3.04,6.629-7.096,7.361-12.056
	C594.538,300.546,592.331,291.224,586.524,284.489z M562.398,303.8c-0.014,0.096-0.064,0.243-0.123,0.387
	c-0.841,0.094-3.297,0.278-9.67,0.278c-0.488-0.001-0.844-0.021-1.147-0.045c1.211-3.515,5.165-5.392,7.915-5.392
	c0.66,0,1.589,0.166,2.265,0.947c0.557,0.644,0.844,1.586,0.844,2.715C562.483,303.044,562.456,303.413,562.398,303.8z"/>
<path fill="#00245D" d="M580.308,289.844c-3.938-4.572-10.17-7.092-17.542-7.096c-22.838,0-41.176,28.248-45.063,54.404
	l-0.303,2.552c0,0-0.322,2.644-0.378,3.087c-0.157,1.933-0.234,3.834-0.234,5.691c0,11.985,3.217,22.215,9.11,28.609
	c4.561,4.943,10.586,7.452,17.907,7.452c15.21,0.007,32.806-12.553,35.932-33.585c0.346-2.332-0.144-4.406-1.382-5.839
	c-1.003-1.163-2.385-1.777-3.999-1.777c-1.39,0-3.272,1.104-5.265,2.275c-2.426,1.423-5.176,3.038-8.552,3.71l-0.396,0.078h-3.953
	l-0.27-0.035c-4.412-0.589-8.365-2.941-11.137-6.623c-3.011-4-4.3-9.25-3.533-14.409l0.019-0.131l0.783-2.579l-0.187,0.295
	l0.277-0.451c2.468-4.015,7.058-5.909,12.273-5.064c8.754,1.414,20.277,0.871,26.291-3.532c2.346-1.716,3.685-3.888,4.093-6.638
	C586.058,301.768,584.505,294.717,580.308,289.844z M570.51,305.026c-0.413,2.689-2.084,5.727-4.837,6.735
	c-1.178,0.576-3.619,0.908-13.083,0.908l0,0c-1.698-0.005-5.681-0.021-8.07-2.784c-0.894-1.035-1.876-2.829-1.496-5.503l0.005-0.027
	c1.27-8.47,9.305-13.53,16.345-13.53c3.357,0,6.369,1.346,8.477,3.79c1.858,2.155,2.836,4.963,2.836,8.083
	C570.686,303.456,570.627,304.234,570.51,305.026z"/>
<path fill="#00245D" d="M488.768,254.621c-6.128,4.074-9.134,7.86-9.739,12.266c-0.106,0.791-0.167,1.383-0.167,1.846
	c0,1.276,0.458,1.573,1.664,2.354c0,0,1.321,0.893,1.382,0.939c1.806,1.372,3.688,4.081,3.688,12.356
	c0,2.485-0.168,5.471-0.563,9.073l-0.404,3.727h-3.751c-2.377,0-3.683-1.615-5.335-3.664c-1.049-1.295-2.35-2.909-3.754-4.065
	c-3.008-2.488-8.104-5-12.708-5c-14.52-0.007-30.934,39.031-33.615,58.572c-1.757,12.823,0.35,36.709,8.762,46.355
	c2.26,2.59,4.72,3.85,7.526,3.85c1.794,0,3.932-0.833,6.195-1.713c2.755-1.072,5.604-2.181,8.72-2.181
	c2.558,0,4.613,0.317,6.602,0.624c2.093,0.321,4.071,0.626,6.855,0.626c8.079,0,28.206-7.198,29.771-18.54
	c0.098-0.708,0.141-1.4,0.141-2.083c0-3.221-0.978-6.238-2.079-9.639c-1.052-3.25-2.245-6.931-2.602-11.139
	c0,0,0.114-0.039,0.118-0.04c-0.251-3.125-0.381-6.483-0.381-10.026c0-10.303,1.052-22.075,3.049-33.644
	c1.735-10.512,4.256-21.03,5.615-26.681l0.457-1.929c0,0,3.664-14.777,3.677-14.83l3.224-12.863
	c0.328-1.394,0.461-2.286,0.509-2.854C506.292,246.439,497.053,249.031,488.768,254.621z M476.59,320.458
	c-3.478,25.519-6.174,27.932-7.623,29.228l0.099-0.09c-2.085,1.989-4.793,2.997-8.049,2.997c-2.923-0.002-5.482-1.167-7.401-3.371
	c-3.188-3.662-3.943-9.631-3.943-14.469c0-2.955,0.282-5.486,0.463-6.816c0.401-2.944,4.283-28.656,17.39-28.656
	c2.548,0.01,4.767,1.018,6.412,2.915C477.636,306.462,477.421,314.487,476.59,320.458z"/>
<path fill="#00245D" d="M305.568,375.747c-1.391-9.868-3.121-22.149-3.394-25.913c-0.146-2.047-0.211-4.105-0.211-6.17
	c0-7.811,0.925-15.691,1.825-23.367c0.774-6.593,1.527-13.011,1.527-18.573c0-6.117-0.91-11.198-3.704-14.339
	c-2.649-2.979-7.169-4.427-13.821-4.428c-8.642-0.01-31.651,4.941-34.303,27.684c-0.488,4.209,0.799,6.872,1.334,7.163
	c4.537,0,7.16-4.395,10.644-11.096c3.002-5.775,6.404-12.322,13.165-12.322c2.233,0,4.206,0.888,5.703,2.569
	c2.104,2.36,3.161,6.343,3.161,11.881c0,2.01-0.139,4.224-0.418,6.641c-0.682,5.866-2.877,9.815-6.495,11.79
	c-1.567,0.993-3.209,1.454-4.543,1.796c0,0-1.053,0.288-1.057,0.288c-15.756,5.032-33.356,24.274-36.511,51.314
	c-0.218,1.871-0.323,3.761-0.323,5.642c0,9.454,2.662,18.639,7.072,23.594c2.057,2.31,4.328,3.482,6.759,3.482
	c1.251,0.002,3.527-1.593,5.356-2.875c2.814-1.973,6.005-4.209,9.649-4.209c2.821,0,4.971,1.227,6.868,2.311
	c2.093,1.195,4.07,2.325,7.516,2.325h0.005c9.147,0.009,23.47-6.449,25.706-24.194C306.923,385.374,306.238,380.51,305.568,375.747z
	 M282.153,350.732c0,0-0.46,5.31-0.46,5.315c-0.353,3.015-1.127,6.249-2.356,9.876c-0.201,0.687-3.082,10.235-8.612,10.235
	c-2.549,0-4.753-0.962-6.375-2.782c-2.597-2.917-3.457-7.797-2.63-14.924c0.924-7.964,5.799-20.6,14.947-20.6
	c2.161,0,3.934,1.276,4.735,3.163c0.766,1.203,1.101,2.78,1.101,4.857C282.503,347.274,282.369,348.886,282.153,350.732z"/>
<path fill="#00245D" d="M225.562,34.983c-2.601-2.407-6.364-5.279-9.01-7.16c-0.846-0.598-1.86-0.706-3.578-0.847
	c-1.108-0.091-2.364-0.192-3.699-0.524c-3.236-0.806-5.523-2.624-7.543-4.226c-0.766-0.61-1.49-1.183-2.272-1.724
	c-3.346-2.304-7.046-3.474-10.964-4.715c-2.786-0.881-5.665-1.792-8.549-3.151c-10.098-4.756-17.349-6.437-22.148-0.223
	c-0.13,0.28-0.274,0.552-0.442,0.805c-0.787,1.201-1.644,1.999-2.621,2.438l-0.103,0.047l-0.107,0.041
	c-3.843,1.483-6.017,5.062-9.841,11.791l-0.652,1.147c-1.007,1.769-1.899,2.929-2.686,3.954c-0.989,1.287-1.703,2.217-2.597,4.299
	c-1.305,3.019-2.656,4.631-4.086,6.338c-0.58,0.691-1.178,1.41-1.851,2.302c-0.017,0.048-0.029,0.095-0.047,0.142l-0.448,1.101
	c-0.094,0.225-0.235,0.563-0.351,0.851c-0.001,0.003,0,0.005-0.001,0.008c-0.04,0.434-0.162,0.82-0.343,1.158
	c0.044,0.032,0.07,0.052,0.07,0.052l-1.279,2.882c-1.34,2.949-1.657,3.65-2.34,9.063c-0.318,2.514-0.491,4.932-0.586,7.346
	c0.089,0.336,0.136,0.689,0.132,1.051c-0.001,0.192-0.008,0.38-0.016,0.571c-0.352,0.239-0.7,0.516-1.038,0.847l-0.743,0.723
	c0,0,0.887,0.921,1.045,1.086c0.042,0.281,0.069,0.571,0.069,0.875c0,3.397-2.516,8.138-4.957,12.739
	c-1.528,2.88-2.972,5.612-3.859,8.082c-0.706,0.032-1.454,0.108-2.226,0.209c-0.091-0.491-0.161-0.875-0.161-0.871l-0.37-3.956
	c-0.14-1.895-0.284-3.854-0.651-5.563c-0.182-0.845-0.587-1.682-1.054-2.651c-0.499-1.033-1.064-2.205-1.478-3.615
	c-0.684-2.326-0.73-5.064-0.771-7.48c-0.02-1.157-0.056-2.769-0.196-3.59c-0.738-0.578-6.295-4.706-6.295-4.706
	s1.568-0.401,2.934-0.766c-2.375-3.227-5.125-6.254-7.261-7.907c-1.563-1.207-3.353-2.177-5.247-3.205
	c-2.125-1.152-4.323-2.344-6.42-3.983c-1.846-1.443-3.239-3.301-4.47-4.939c-0.724-0.963-1.407-1.875-2.044-2.513
	c-4.901-4.916-14.472-8.86-21.388-6.659l-1.297,0.411l-1.291-0.429c-0.871-0.291-3.521-1.171-9.285,4.741
	c-3.32,3.409-7.935,8.561-11.06,13.744c-0.455,0.755-0.865,1.697-1.299,2.695c-0.756,1.74-1.614,3.711-3.05,5.474
	c-1.241,1.52-2.271,2.451-3.098,3.2c-1.042,0.942-1.564,1.414-2.314,2.92c-2.72,5.468-3.78,12.533-4.805,19.363
	c0,0-1.101,6.813-1.101,6.816l-0.962,4.772c-0.065,0.311-0.123,0.621-0.188,0.932c0.507-0.383,1.004-0.763,1.465-1.117
	c1.598-1.229,3.107-2.388,4.535-3.308l3.827-2.606c0,0,2.636-1.823,2.625-1.814c2.743-1.868,5.553-3.545,8.272-5.167
	c0,0,0.262-0.158,0.301-0.183c2.05-2.14,4.21-3.164,6.449-3.004l13.167,0.913c0,0-12.958,7.837-14.251,8.619
	c-0.647,0.862-1.307,2.005-1.885,3.241c2.497-1.278,5.158-2.482,8.29-3.299c1.707-0.448,3.307-0.661,4.854-0.865
	c1.424-0.189,2.768-0.367,4.04-0.723c0.606-0.168,1.603-0.746,2.482-1.256c1.755-1.019,3.744-2.174,6.031-2.333l13.939-0.969
	L74.304,91.19c-1.636,1.246-3.006,2.793-4.298,4.477c1.395-0.185,2.699-0.193,3.892-0.178c0,0,2.193-0.028,2.191-0.026
	c6.359-0.425,12.907-0.494,19.24-0.561l3.698-0.041c0,0,0.161-0.003,0.354,0.001l0.134,0.607c2.539,0.438,4.861,2.452,6.625,4.195
	c0.26,0.506,0.537,0.989,0.844,1.375l0.156,0.197l0.229,0.103c1.756,0.796,3.714,3.303,5.609,5.727
	c0.934,1.199,1.889,2.417,2.86,3.488c-3.944,0.125-7.077,0.845-10.598,1.666l-1.602,0.37c-0.241,0.056-0.487,0.101-0.732,0.143
	l-5.452-0.169c-5.012-0.23-9.746-0.449-14.211,0.939c-1.313,0.408-2.614,0.994-3.993,1.614c-2.599,1.168-5.288,2.377-8.463,2.6
	l-1.971,0.083c-1.785,0.05-2.693,0.097-3.795,0.621c-6.668,3.175-12.113,6.302-15.75,9.039c-0.373,0.279-0.89,0.888-1.389,1.475
	c-1.035,1.216-2.322,2.728-4.225,3.673c-2.591,1.255-4.454,0.878-5.455,0.675c0,0-0.05-0.009-0.093-0.018
	c-1.546,0.398-1.658,0.477-3.165,2.016c-6.743,6.874-14.297,14.987-19.202,23.044c-3.353,5.516-7.393,18.875-7.393,25.869
	c0,0.468,0.018,0.909,0.056,1.316c0.077,0.482,0.624,1.919,0.917,2.693c0,0,0.752,2.11,0.754,2.115
	c1.542,5.167,1.899,11.137,2.246,16.911c0.395,6.587,0.803,13.398,3.014,17.868c1.247,2.529,3.867,4,6.9,5.704
	c1.753,0.985,3.566,2.004,5.207,3.314l3.509,2.846c3.121,2.546,6.305,5.107,9.437,7.313c0.109-1.607,0.162-3.235,0.208-4.91
	c0.071-2.636,0.145-5.362,0.479-8.17c1.009-8.438,2.256-17.446,3.476-26.01l4.074,0.581l4.058-0.918
	c0.042,0.135,0.271,0.754,1.189,2.735c0.395-1.59,0.904-3.119,1.343-4.407c0.476-1.396,0.968-2.841,1.127-3.707
	c0.401-2.179,0.509-4.338,0.509-6.542c0-1.251-0.035-2.517-0.069-3.809c-0.037-1.333-0.073-2.68-0.073-4.051
	c0-2.564,0.158-5.218,0.66-7.995c0-0.006,0-0.015,0-0.021h0.002c0.03-0.159,0.032-0.307,0.063-0.467c0,0,7.716,1.069,8.079,1.118
	c0.339-0.19,0.698-0.359,1.105-0.484c1.482-0.455,3.777-0.47,6.292,2.038c0.044,0.044,0.066,0.101,0.109,0.144
	c0.686-2.13,1.456-4.26,2.58-6.199l-0.462-0.103l0.045-0.244c1.164-5.594,3.598-13.084,8.582-16.998l1.052-0.917
	c0.663-0.701,1.923-1.7,3.841-1.47c0.077-0.132,0.156-0.264,0.237-0.394c1.285,0.566,2.478,0.781,3.734-0.294
	c1.983-1.642,8.311-7.468,12.333-11.36c-0.525,1.578-1.54,3.29-3.072,5.172c-0.151,0.125-2.451,2.005-2.451,2.005
	c-0.577,0.46-0.85,0.692-0.901,1.208c-4.171,2.524-9.084,8.217-12.361,12.02l-0.215,0.25c-1.712,1.979-2.498,3.513-3.686,5.832
	c-1.009,1.971-2.266,4.424-4.636,8.266l-0.068,0.111l-0.039,0.124c-0.648,2.065-1.877,5.135-3.177,8.386
	c-1.411,3.526-3.011,7.522-4.211,11.083l-0.18,0.535l0.349,0.443c0.204,0.258,0.405,0.495,0.605,0.715
	c-3.594,9.343-6.755,19.118-9.708,28.783l-1.012,3.33l-5.432,17.949c-11.51,38.404-23.238,97.17-23.238,140.076
	c0,2.485,0.042,4.915,0.123,7.286c0.564,6.537,2.878,8.103,6.368,10.061c14.875,3.872,25.87,3.069,32.658-2.423
	c6.257-5.059,9.419-14.369,9.419-27.729c0-1.476-0.039-2.999-0.116-4.571l-0.673-15.332c-0.852-18.712-1.888-41.478-1.888-63.404
	c0-15.468,0.516-30.517,1.975-43.429c0.884-7.859,2.04-15.173,3.526-22.309c1.713-8.759,4.185-16.303,7.152-23.012
	c4.578-3.054,8.466-10.537,11.9-17.15c2.073-3.992,4.031-7.762,5.868-10.078c2.462-3.099,5.259-5.986,8.219-9.043
	c2.781-2.871,5.657-5.84,8.215-8.989c1.091-1.341,2.075-2.405,3.009-3.308c-0.205,2.389-0.429,4.688-0.638,6.833l-0.34,3.543
	c-0.15,1.611-0.326,3.223-0.509,4.826c0.438-0.951,0.993-1.889,1.748-2.777l8.896-10.463l-1.558,13.645
	c-0.349,3.061-0.903,6.154-1.438,9.146c-0.328,1.831-0.639,3.602-0.909,5.345c0.558-0.511,1.144-0.987,1.81-1.362
	c1.211-0.68,2.272-1.074,3.125-1.391c1.154-0.429,1.732-0.643,2.536-1.42l8.151-7.873l-1.083,11.279
	c-0.337,3.516-0.955,7.059-1.551,10.486c-0.127,0.73-0.242,1.43-0.363,2.142c0.033-0.016,7.168-3.53,7.168-3.53l-0.227,6.968
	c-0.046,1.384-0.24,2.849-0.428,4.269c-0.152,1.146-0.396,2.991-0.396,4.264c0,0.065,0.003,0.123,0.004,0.185
	c0.487-0.173,1.017-0.385,1.411-0.542c1.538-0.617,3.127-1.251,4.8-1.321l7.991-0.334l-4.286,6.751
	c-0.235,0.369-0.441,0.708-0.65,1.05c0.005,0,0.01,0,0.016-0.001c2.01-0.21,4.761-0.497,7.153,1.464
	c2.362,1.938,2.894,4.95,3.089,7.054l0.133,1.683c0.101,1.368,0.294,3.979,0.784,5.005c0.781-0.934,2.473-3.652,4.316-11.035
	c1.507-6.03,2.406-12.341,2.724-14.781c0.704-5.352,1.057-10.922,1.057-16.764c0-8.424-0.734-17.415-2.207-27.14
	c-0.656-4.359-1.905-6.327-3.975-9.586l-0.386-0.606c-1.323-2.092-2.073-4.252-2.734-6.158c-0.563-1.624-1.094-3.156-1.909-4.473
	c-1.854-2.991-3.141-6.366-4.384-9.629c-1.3-3.412-2.527-6.634-4.201-8.899c-2.454-3.326-6.42-5.977-10.601-7.093
	c-2.116-0.56-4.049-1.392-5.917-2.198c-0.989-0.427-1.923-0.829-2.847-1.177c-0.68-0.253-1.983-0.268-3.242-0.282
	c-0.907-0.011-1.922-0.021-2.974-0.129c-2.722-3.686-2.357-9.601-1.698-15.434c0.075-0.656,0.229-1.479,0.429-2.416
	c0.235-0.143,0.473-0.284,0.72-0.417c3.104-1.695,6.812-2.589,10.139-2.605c-0.01-1.168-0.051-2.432-0.127-3.832l4.175-0.226
	c0.731-0.265,1.491-2.286,1.969-3.6l0.195,0.092c1.445,0.661,7.47,1.799,10.034,0.163c0.386-0.248,1.184-0.763,1.208-2.878
	c-0.06-0.553-0.522-2.16-0.802-3.131c-0.616-2.139-1.066-3.701-1.066-5.064c0-0.636,0.097-1.228,0.322-1.817
	c0.363-0.952,1.918-4.035,6.649-3.784c1.6,0.084,3.166,0.521,4.101,0.783c0,0,0.393,0.108,0.394,0.108
	c1.758,0.446,3.373,1.139,4.935,1.809c1.334,0.572,2.405,1.003,3.31,1.272c-0.17-0.728-0.325-1.469-0.459-2.215
	c-0.65-0.143-1.581-0.349-1.737-0.383l-0.004-0.18c0.139-3.331,1.595-5.166,2.968-6.174c1.339-2.869,5.493-11.624,5.493-11.624
	s0.511,6.024,0.87,10.304c3.4,0.451,7.125,2.154,10.57,3.738c1.597,0.734,3.786,1.74,4.487,1.859c2.525,0.35,4.297,0.266,6.29-0.428
	c-1.097-3.336-2.85-6.82-4.76-9.628c-2.953-1.766-5.637-4.062-7.722-7.157l-7.142-10.602l12.026,4.332
	c3.103,1.117,6.011,3.746,8.517,7.021c4.343,2.203,9.602,3.242,14.164,4.144l3.823,0.789c1.355,0.306,2.802,0.447,4.334,0.596
	c1.64,0.161,3.337,0.326,5.121,0.708c0.428,0.092,0.853,0.229,1.276,0.382C234.833,46.461,230.575,39.644,225.562,34.983z"/>
</svg>
