<?xml version="1.0" encoding="UTF-8" standalone="no"?>
<!-- Created with Inkscape (http://www.inkscape.org/) -->

<svg
   xmlns:dc="http://purl.org/dc/elements/1.1/"
   xmlns:cc="http://creativecommons.org/ns#"
   xmlns:rdf="http://www.w3.org/1999/02/22-rdf-syntax-ns#"
   xmlns:svg="http://www.w3.org/2000/svg"
   xmlns="http://www.w3.org/2000/svg"
   xmlns:sodipodi="http://sodipodi.sourceforge.net/DTD/sodipodi-0.dtd"
   xmlns:inkscape="http://www.inkscape.org/namespaces/inkscape"
   width="91.311111mm"
   height="88.992424mm"
   viewBox="0 0 323.54331 315.32749"
   id="svg2"
   version="1.1"
   inkscape:version="0.91 r13725"
   sodipodi:docname="Louisville City.svg">
  <defs
     id="defs4">
    <clipPath
       id="clipPath4154"
       clipPathUnits="userSpaceOnUse">
      <path
         inkscape:connector-curvature="0"
         id="path4156"
         d="m 0,0 1224,0 0,702.216 -1224,0 L 0,0 Z" />
    </clipPath>
    <clipPath
       id="clipPath4190"
       clipPathUnits="userSpaceOnUse">
      <path
         inkscape:connector-curvature="0"
         id="path4192"
         d="m 0,0 1224,0 0,702.216 -1224,0 L 0,0 Z" />
    </clipPath>
    <clipPath
       id="clipPath4224"
       clipPathUnits="userSpaceOnUse">
      <path
         inkscape:connector-curvature="0"
         id="path4226"
         d="m 0,0 1224,0 0,702.216 -1224,0 L 0,0 Z" />
    </clipPath>
    <clipPath
       id="clipPath4258"
       clipPathUnits="userSpaceOnUse">
      <path
         inkscape:connector-curvature="0"
         id="path4260"
         d="m 0,0 1224,0 0,702.216 -1224,0 L 0,0 Z" />
    </clipPath>
    <clipPath
       id="clipPath4284"
       clipPathUnits="userSpaceOnUse">
      <path
         inkscape:connector-curvature="0"
         id="path4286"
         d="m 0,0 1224,0 0,702.216 -1224,0 L 0,0 Z" />
    </clipPath>
    <clipPath
       id="clipPath4308"
       clipPathUnits="userSpaceOnUse">
      <path
         inkscape:connector-curvature="0"
         id="path4310"
         d="m 0,0 1224,0 0,702.216 -1224,0 L 0,0 Z" />
    </clipPath>
    <clipPath
       id="clipPath4342"
       clipPathUnits="userSpaceOnUse">
      <path
         inkscape:connector-curvature="0"
         id="path4344"
         d="m 0,0 1224,0 0,702.216 -1224,0 L 0,0 Z" />
    </clipPath>
    <clipPath
       id="clipPath4358"
       clipPathUnits="userSpaceOnUse">
      <path
         inkscape:connector-curvature="0"
         id="path4360"
         d="m 0,0 1224,0 0,702.216 -1224,0 L 0,0 Z" />
    </clipPath>
    <clipPath
       id="clipPath4400"
       clipPathUnits="userSpaceOnUse">
      <path
         inkscape:connector-curvature="0"
         id="path4402"
         d="m 0,0 1224,0 0,702.216 -1224,0 L 0,0 Z" />
    </clipPath>
    <clipPath
       id="clipPath4484"
       clipPathUnits="userSpaceOnUse">
      <path
         inkscape:connector-curvature="0"
         id="path4486"
         d="m 0,0 1224,0 0,702.216 -1224,0 L 0,0 Z" />
    </clipPath>
    <clipPath
       id="clipPath4520"
       clipPathUnits="userSpaceOnUse">
      <path
         inkscape:connector-curvature="0"
         id="path4522"
         d="m 0,0 1224,0 0,702.216 -1224,0 L 0,0 Z" />
    </clipPath>
    <clipPath
       id="clipPath4554"
       clipPathUnits="userSpaceOnUse">
      <path
         inkscape:connector-curvature="0"
         id="path4556"
         d="m 0,0 1224,0 0,702.216 -1224,0 L 0,0 Z" />
    </clipPath>
    <clipPath
       id="clipPath4588"
       clipPathUnits="userSpaceOnUse">
      <path
         inkscape:connector-curvature="0"
         id="path4590"
         d="m 0,0 1224,0 0,702.216 -1224,0 L 0,0 Z" />
    </clipPath>
    <clipPath
       id="clipPath4614"
       clipPathUnits="userSpaceOnUse">
      <path
         inkscape:connector-curvature="0"
         id="path4616"
         d="m 0,0 1224,0 0,702.216 -1224,0 L 0,0 Z" />
    </clipPath>
    <clipPath
       id="clipPath4638"
       clipPathUnits="userSpaceOnUse">
      <path
         inkscape:connector-curvature="0"
         id="path4640"
         d="m 0,0 1224,0 0,702.216 -1224,0 L 0,0 Z" />
    </clipPath>
    <clipPath
       id="clipPath4672"
       clipPathUnits="userSpaceOnUse">
      <path
         inkscape:connector-curvature="0"
         id="path4674"
         d="m 0,0 1224,0 0,702.216 -1224,0 L 0,0 Z" />
    </clipPath>
    <clipPath
       id="clipPath4688"
       clipPathUnits="userSpaceOnUse">
      <path
         inkscape:connector-curvature="0"
         id="path4690"
         d="m 0,0 1224,0 0,702.216 -1224,0 L 0,0 Z" />
    </clipPath>
    <clipPath
       id="clipPath4730"
       clipPathUnits="userSpaceOnUse">
      <path
         inkscape:connector-curvature="0"
         id="path4732"
         d="m 0,0 1224,0 0,702.216 -1224,0 L 0,0 Z" />
    </clipPath>
  </defs>
  <sodipodi:namedview
     id="base"
     pagecolor="#ffffff"
     bordercolor="#666666"
     borderopacity="1.0"
     inkscape:pageopacity="0.0"
     inkscape:pageshadow="2"
     inkscape:zoom="1.4"
     inkscape:cx="122.59829"
     inkscape:cy="207.75358"
     inkscape:document-units="px"
     inkscape:current-layer="layer1"
     showgrid="false"
     fit-margin-top="0.5"
     fit-margin-left="0.5"
     fit-margin-right="0.5"
     fit-margin-bottom="0.5"
     inkscape:window-width="1366"
     inkscape:window-height="705"
     inkscape:window-x="-8"
     inkscape:window-y="-8"
     inkscape:window-maximized="1" />
  <metadata
     id="metadata7">
    <rdf:RDF>
      <cc:Work
         rdf:about="">
        <dc:format>image/svg+xml</dc:format>
        <dc:type
           rdf:resource="http://purl.org/dc/dcmitype/StillImage" />
        <dc:title></dc:title>
      </cc:Work>
    </rdf:RDF>
  </metadata>
  <g
     inkscape:label="Layer 1"
     inkscape:groupmode="layer"
     id="layer1"
     transform="translate(173.92457,-400.59883)">
    <g
       id="g4476"
       transform="matrix(0.7869562,0,0,-0.7869562,34.704267,671.97829)">
      <path
         d="m 0,0 3.197,0 0,-8.358 1.7,0 0,8.358 3.197,0 0,1.533 L 0,1.533 0,0 Z"
         style="fill:#482a65;fill-opacity:1;fill-rule:nonzero;stroke:none"
         id="path4478"
         inkscape:connector-curvature="0" />
    </g>
    <g
       id="g4480"
       transform="matrix(0.7869562,0,0,-0.7869562,-494.17563,842.64131)">
      <g
         id="g4482"
         clip-path="url(#clipPath4484)">
        <g
           id="g4488"
           transform="translate(688.2349,218.3975)">
          <path
             d="M 0,0 -2.564,-7.596 -5.147,0 l -2.188,0 0,-9.891 1.629,0 0,5.802 c 0,0.225 -0.007,0.576 -0.019,1.054 0,0.03 -0.002,0.058 -0.002,0.087 l 2.325,-6.806 0.048,-0.137 1.563,0 2.352,6.951 C 0.56,-3.002 0.559,-3.063 0.559,-3.124 0.551,-3.573 0.546,-3.895 0.546,-4.089 l 0,-5.802 1.629,0 L 2.175,0 0,0 Z"
             style="fill:#482a65;fill-opacity:1;fill-rule:nonzero;stroke:none"
             id="path4490"
             inkscape:connector-curvature="0" />
        </g>
        <g
           id="g4492"
           transform="translate(793.6134,355.7858)">
          <path
             d="m 0,0 0.214,0.021 18.831,-0.778 0,83.354 -47.464,3.898 0.586,3.416 c 6.982,40.654 6.093,68.256 5.385,78.237 l -0.042,0.623 -0.063,2.944 -2.759,1.135 c -0.439,0.141 -0.985,0.351 -1.529,0.561 -0.673,0.26 -1.251,0.484 -1.833,0.673 l -0.239,0.087 c -2.53,1.052 -62.957,25.753 -149.996,25.753 -34.551,0 -69.101,-3.853 -102.69,-11.45 -20.804,-4.811 -28.755,-7.451 -43.187,-12.244 -3.185,-1.058 -6.68,-2.217 -10.692,-3.527 l -2.636,-0.861 -0.349,-3.549 c -0.994,-11.253 -1.722,-36.377 4.592,-78.072 l 0.506,-3.335 -47.875,-4.289 0,-83.355 19.053,1.169 0.244,-0.023 c 13.935,-1.298 48.53,-7.485 68.727,-36.828 l 0.159,-0.257 c 15.038,-27.022 28.069,-48.354 41.012,-67.134 l 0.721,-1.048 -0.201,-1.255 c -0.972,-6.058 0.461,-13.977 12.813,-17.311 l 1.043,-0.282 0.654,-0.858 c 14.161,-18.579 29.519,-36.233 52.997,-60.917 l 3.514,-3.263 3.521,3.272 c 22.637,23.801 38.542,42.13 53.104,61.213 l 0.63,0.825 0.996,0.294 c 5.404,1.59 14.22,5.886 12.541,16.786 l -0.193,1.251 0.722,1.04 c 13.598,19.612 26.897,41.394 41.851,68.549 l 0.187,0.301 C -47.391,-7.277 -13.608,-1.28 0,0"
             style="fill:#ffffff;fill-opacity:1;fill-rule:nonzero;stroke:none"
             id="path4494"
             inkscape:connector-curvature="0" />
        </g>
      </g>
    </g>
    <path
       d="m -14.588781,439.67173 -1.817868,0 0,1.7502 1.817868,0 0,-1.7502 z"
       style="fill:#ebce76;fill-opacity:1;fill-rule:nonzero;stroke:none"
       id="path4496"
       inkscape:connector-curvature="0" />
    <path
       d="m -0.87764264,428.92978 16.00747564,0 0,-7.03224 -16.00747564,0 0,7.03224 z"
       style="fill:#ebce76;fill-opacity:1;fill-rule:nonzero;stroke:none"
       id="path4498"
       inkscape:connector-curvature="0" />
    <path
       d="m -14.588781,444.10545 -1.817868,0 0,1.75019 1.817868,0 0,-1.75019 z"
       style="fill:#ebce76;fill-opacity:1;fill-rule:nonzero;stroke:none"
       id="path4500"
       inkscape:connector-curvature="0" />
    <path
       d="m -14.588781,448.53837 -1.817868,0 0,1.74783 1.817868,0 0,-1.74783 z"
       style="fill:#ebce76;fill-opacity:1;fill-rule:nonzero;stroke:none"
       id="path4502"
       inkscape:connector-curvature="0" />
    <path
       d="m -14.588781,452.73757 -1.817868,0 0,1.75019 1.817868,0 0,-1.75019 z"
       style="fill:#ebce76;fill-opacity:1;fill-rule:nonzero;stroke:none"
       id="path4504"
       inkscape:connector-curvature="0" />
    <path
       d="m 60.05008,441.88229 -1.810786,0 0,1.54795 1.810786,0 0,-1.54795 z"
       style="fill:#ebce76;fill-opacity:1;fill-rule:nonzero;stroke:none"
       id="path4506"
       inkscape:connector-curvature="0" />
    <path
       d="m 64.393292,441.88229 -1.810787,0 0,1.54795 1.810787,0 0,-1.54795 z"
       style="fill:#ebce76;fill-opacity:1;fill-rule:nonzero;stroke:none"
       id="path4508"
       inkscape:connector-curvature="0" />
    <path
       d="m 68.974951,441.88229 -1.810787,0 0,1.54795 1.810787,0 0,-1.54795 z"
       style="fill:#ebce76;fill-opacity:1;fill-rule:nonzero;stroke:none"
       id="path4510"
       inkscape:connector-curvature="0" />
    <path
       d="m 73.55897,441.88229 -1.808425,0 0,1.54795 1.808425,0 0,-1.54795 z"
       style="fill:#ebce76;fill-opacity:1;fill-rule:nonzero;stroke:none"
       id="path4512"
       inkscape:connector-curvature="0" />
    <path
       d="m -7.8178094,454.80412 -3.5113986,0 0,0.95064 3.5113986,0 0,-0.95064 z"
       style="fill:#ebce76;fill-opacity:1;fill-rule:nonzero;stroke:none"
       id="path4514"
       inkscape:connector-curvature="0" />
    <g
       id="g4516"
       transform="matrix(0.7869562,0,0,-0.7869562,-494.17563,842.64131)">
      <g
         id="g4518"
         clip-path="url(#clipPath4520)">
        <g
           id="g4524"
           transform="translate(627.4127,391.7918)">
          <path
             d="m 0,0 0.245,-0.003 0,0.245 c 0,3.013 0,6.027 -0.003,9.041 l 0,0.239 -0.239,0.002 c -2.38,0.021 -4.764,0.037 -7.146,0.048 l 0,6.88 -0.241,10e-4 c -2.62,0.01 -5.248,0.005 -7.864,-0.008 l -0.241,-0.001 -10e-4,-16.378 2.18,0.001 C -9.022,0.067 -4.668,0.045 0,0"
             style="fill:#ebce76;fill-opacity:1;fill-rule:nonzero;stroke:none"
             id="path4526"
             inkscape:connector-curvature="0" />
        </g>
      </g>
    </g>
    <path
       d="m -7.8178094,482.67181 -3.5113986,0 0,0.95064 3.5113986,0 0,-0.95064 z"
       style="fill:#ebce76;fill-opacity:1;fill-rule:nonzero;stroke:none"
       id="path4528"
       inkscape:connector-curvature="0" />
    <path
       d="m -7.8178094,492.04524 -3.5113986,0 0,0.94907 3.5113986,0 0,-0.94907 z"
       style="fill:#ebce76;fill-opacity:1;fill-rule:nonzero;stroke:none"
       id="path4530"
       inkscape:connector-curvature="0" />
    <path
       d="m -7.8178094,487.35892 -3.5113986,0 0,0.94907 3.5113986,0 0,-0.94907 z"
       style="fill:#ebce76;fill-opacity:1;fill-rule:nonzero;stroke:none"
       id="path4532"
       inkscape:connector-curvature="0" />
    <path
       d="m -14.588781,457.17128 -1.817868,0 0,1.75019 1.817868,0 0,-1.75019 z"
       style="fill:#ebce76;fill-opacity:1;fill-rule:nonzero;stroke:none"
       id="path4534"
       inkscape:connector-curvature="0" />
    <path
       d="m -14.588781,474.67082 -1.817868,0 0,1.7502 1.817868,0 0,-1.7502 z"
       style="fill:#ebce76;fill-opacity:1;fill-rule:nonzero;stroke:none"
       id="path4536"
       inkscape:connector-curvature="0" />
    <path
       d="m -14.588781,479.10454 -1.817868,0 0,1.75019 1.817868,0 0,-1.75019 z"
       style="fill:#ebce76;fill-opacity:1;fill-rule:nonzero;stroke:none"
       id="path4538"
       inkscape:connector-curvature="0" />
    <path
       d="m -14.588781,487.97196 -1.817868,0 0,1.75019 1.817868,0 0,-1.75019 z"
       style="fill:#ebce76;fill-opacity:1;fill-rule:nonzero;stroke:none"
       id="path4540"
       inkscape:connector-curvature="0" />
    <path
       d="m -14.588781,465.80419 -1.817868,0 0,1.75019 1.817868,0 0,-1.75019 z"
       style="fill:#ebce76;fill-opacity:1;fill-rule:nonzero;stroke:none"
       id="path4542"
       inkscape:connector-curvature="0" />
    <path
       d="m -14.588781,461.60499 -1.817868,0 0,1.75019 1.817868,0 0,-1.75019 z"
       style="fill:#ebce76;fill-opacity:1;fill-rule:nonzero;stroke:none"
       id="path4544"
       inkscape:connector-curvature="0" />
    <path
       d="m -7.8178094,478.2381 -3.5113986,0 0,0.95064 3.5113986,0 0,-0.95064 z"
       style="fill:#ebce76;fill-opacity:1;fill-rule:nonzero;stroke:none"
       id="path4546"
       inkscape:connector-curvature="0" />
    <path
       d="m -14.588781,470.23869 -1.817868,0 0,1.75019 1.817868,0 0,-1.75019 z"
       style="fill:#ebce76;fill-opacity:1;fill-rule:nonzero;stroke:none"
       id="path4548"
       inkscape:connector-curvature="0" />
    <g
       id="g4550"
       transform="matrix(0.7869562,0,0,-0.7869562,-494.17563,842.64131)">
      <g
         id="g4552"
         clip-path="url(#clipPath4554)">
        <g
           id="g4558"
           transform="translate(704.672,438.0586)">
          <path
             d="m 0,0 c 1.884,-0.086 3.988,-0.339 5.871,-0.428 l -3.234,3.388 -0.025,0 -2.988,3.039 -0.132,0.133 0.001,0 -0.258,0.263 -3.664,3.722 -3.661,-3.722 -2.781,-2.831 3.183,3.962 3.33,4.565 2.801,-3.19 0,36.143 9.538,0 0,10.093 0.904,0 0,-10.093 0.448,0 0,10.093 0.902,0 0,-10.093 0.453,0 0,10.093 0.902,0 0,-10.093 2.841,0 0,10.093 2.328,0 0,5.237 -21.188,0 0,15.071 -25.494,-0.175 0,-72.304 0,-1.858 C -20.819,0.829 -11.613,0.479 -2.51,0.075 -1.736,0.04 -0.776,0.033 0,0 m -8.53,71.194 2.298,0 0,-1.967 -2.298,0 0,1.967 z m -5.828,0 2.303,0 0,-1.967 -2.303,0 0,1.967 z m -5.516,0 2.301,0 0,-1.967 -2.301,0 0,1.967 z m -3.524,-1.967 -2.298,0 0,1.967 2.298,0 0,-1.967 z m 1.486,-14.09 11.926,0 0,-10.093 -11.926,0 0,10.093 z"
             style="fill:#ebce76;fill-opacity:1;fill-rule:nonzero;stroke:none"
             id="path4560"
             inkscape:connector-curvature="0" />
        </g>
        <g
           id="g4562"
           transform="translate(714.2073,397.7043)">
          <path
             d="M 0,0 C -1.003,0.064 -1.732,0.27 -2.165,0.611 -2.59,0.951 -2.908,1.63 -3.112,2.628 -3.249,3.303 -3.341,4.356 -3.388,5.761 l -0.007,0.21 -0.21,0.022 c -2.597,0.262 -5.247,0.513 -7.951,0.762 l -0.267,0.025 0.004,-0.269 c 0.062,-3.82 0.364,-6.862 0.894,-9.042 0.606,-2.493 1.618,-4.339 3.01,-5.487 1.388,-1.146 3.381,-1.814 5.925,-1.987 0.508,-0.034 1.021,-0.052 1.524,-0.052 l 0.002,0 c 1.997,0 3.983,0.278 5.901,0.829 l 0.178,0.051 -0.11,9.122 -0.236,0.003 C 3.51,-0.033 1.75,-0.014 0,0"
             style="fill:#ebce76;fill-opacity:1;fill-rule:nonzero;stroke:none"
             id="path4564"
             inkscape:connector-curvature="0" />
        </g>
        <g
           id="g4566"
           transform="translate(777.2579,383.0038)">
          <path
             d="M 0,0 0.22,-0.019 C 2.832,-0.257 5.444,-0.497 8.056,-0.74 l 0.263,-0.025 0,9.981 -0.189,0.042 c -2.57,0.566 -5.208,1.12 -7.843,1.647 l -0.29,0.059 0,-0.295 c 0,-3.483 0,-6.964 0.003,-10.448 L 0,0 Z"
             style="fill:#ebce76;fill-opacity:1;fill-rule:nonzero;stroke:none"
             id="path4568"
             inkscape:connector-curvature="0" />
        </g>
        <g
           id="g4570"
           transform="translate(661.2262,391.0186)">
          <path
             d="m 0,0 c 5.634,-0.201 11.355,-0.439 17.002,-0.705 l 0.253,-0.012 0,0.254 c 0,2.989 0,5.978 -0.003,8.967 l 0,0.231 -0.231,0.011 c -2.972,0.129 -5.942,0.25 -8.916,0.362 l 0,2.415 c 2.288,-0.083 4.575,-0.171 6.863,-0.266 l 0.252,-0.01 0,4.188 -0.227,0.016 c -5.086,0.31 -10.126,0.58 -14.977,0.8 l -0.252,0.011 0,-0.253 c 0,-5.256 0,-10.513 0.002,-15.767 l 0,-0.234 L 0,0 Z"
             style="fill:#ebce76;fill-opacity:1;fill-rule:nonzero;stroke:none"
             id="path4572"
             inkscape:connector-curvature="0" />
        </g>
      </g>
    </g>
    <path
       d="m -7.8178094,473.55099 -3.5113986,0 0,0.95143 3.5113986,0 0,-0.95143 z"
       style="fill:#ebce76;fill-opacity:1;fill-rule:nonzero;stroke:none"
       id="path4574"
       inkscape:connector-curvature="0" />
    <path
       d="m -7.8178094,464.17834 -3.5113986,0 0,0.94907 3.5113986,0 0,-0.94907 z"
       style="fill:#ebce76;fill-opacity:1;fill-rule:nonzero;stroke:none"
       id="path4576"
       inkscape:connector-curvature="0" />
    <path
       d="m -7.8178094,459.49123 -3.5113986,0 0,0.95064 3.5113986,0 0,-0.95064 z"
       style="fill:#ebce76;fill-opacity:1;fill-rule:nonzero;stroke:none"
       id="path4578"
       inkscape:connector-curvature="0" />
    <path
       d="m -14.588781,492.55598 -1.817868,0 0,1.75019 1.817868,0 0,-1.75019 z"
       style="fill:#ebce76;fill-opacity:1;fill-rule:nonzero;stroke:none"
       id="path4580"
       inkscape:connector-curvature="0" />
    <path
       d="m -7.8178094,468.86545 -3.5113986,0 0,0.94907 3.5113986,0 0,-0.94907 z"
       style="fill:#ebce76;fill-opacity:1;fill-rule:nonzero;stroke:none"
       id="path4582"
       inkscape:connector-curvature="0" />
    <g
       id="g4584"
       transform="matrix(0.7869562,0,0,-0.7869562,-494.17563,842.64131)">
      <g
         id="g4586"
         clip-path="url(#clipPath4588)">
        <g
           id="g4592"
           transform="translate(644.5668,407.8735)">
          <path
             d="m 0,0 c -2.594,0.071 -5.212,0.134 -7.863,0.186 l -0.246,0.004 0.003,-16.396 0.237,-0.004 c 5.215,-0.09 10.344,-0.208 15.246,-0.35 l 0.248,-0.007 -0.002,9.566 -0.235,0.007 C 5.004,-6.932 2.62,-6.876 0.235,-6.825 l 0,6.818 L 0,0 Z"
             style="fill:#ebce76;fill-opacity:1;fill-rule:nonzero;stroke:none"
             id="path4594"
             inkscape:connector-curvature="0" />
        </g>
        <g
           id="g4596"
           transform="translate(652.5338,439.5244)">
          <path
             d="m 0,0 c 0.366,-0.008 0.729,-0.016 1.093,-0.022 l 0,85.404 6.808,0 0,-85.562 c 0.364,-0.008 0.727,-0.017 1.091,-0.025 l 0,85.587 5.401,0 0,0.805 -19.743,0 0,-0.805 5.35,0 L 0,0 Z"
             style="fill:#ebce76;fill-opacity:1;fill-rule:nonzero;stroke:none"
             id="path4598"
             inkscape:connector-curvature="0" />
        </g>
        <g
           id="g4600"
           transform="translate(647.1842,524.9064)">
          <path
             d="m 0,0 -20.341,0 0,-85.066 C -13.691,-85.113 -6.648,-85.195 0,-85.31 L 0,0 Z"
             style="fill:#ebce76;fill-opacity:1;fill-rule:nonzero;stroke:none"
             id="path4602"
             inkscape:connector-curvature="0" />
        </g>
      </g>
    </g>
    <path
       d="m -14.588781,483.53903 -1.817868,0 0,1.74941 1.817868,0 0,-1.74941 z"
       style="fill:#ebce76;fill-opacity:1;fill-rule:nonzero;stroke:none"
       id="path4604"
       inkscape:connector-curvature="0" />
    <path
       d="m -84.009335,495.02151 1.817869,0 0,-1.75019 -1.817869,0 0,1.75019 z"
       style="fill:#ebce76;fill-opacity:1;fill-rule:nonzero;stroke:none"
       id="path4606"
       inkscape:connector-curvature="0" />
    <path
       d="m -72.086948,479.58064 -1.818656,0 0,1.75019 1.818656,0 0,-1.75019 z"
       style="fill:#ebce76;fill-opacity:1;fill-rule:nonzero;stroke:none"
       id="path4608"
       inkscape:connector-curvature="0" />
    <g
       id="g4610"
       transform="matrix(0.7869562,0,0,-0.7869562,-494.17563,842.64131)">
      <g
         id="g4612"
         clip-path="url(#clipPath4614)">
        <g
           id="g4618"
           transform="translate(520.6622,403.2997)">
          <path
             d="m 0,0 -0.004,-14.669 0.257,0.016 c 2.619,0.17 5.235,0.336 7.853,0.498 L 8.333,-14.14 8.336,0.786 8.072,0.761 C 5.419,0.521 2.798,0.272 0.219,0.021 L 0,0 Z"
             style="fill:#ebce76;fill-opacity:1;fill-rule:nonzero;stroke:none"
             id="path4620"
             inkscape:connector-curvature="0" />
        </g>
      </g>
    </g>
    <path
       d="m -60.151971,491.22287 1.818656,0 0,-1.75019 -1.818656,0 0,1.75019 z"
       style="fill:#ebce76;fill-opacity:1;fill-rule:nonzero;stroke:none"
       id="path4622"
       inkscape:connector-curvature="0" />
    <path
       d="m -82.191466,489.47268 -1.817869,0 0,1.75019 1.817869,0 0,-1.75019 z"
       style="fill:#ebce76;fill-opacity:1;fill-rule:nonzero;stroke:none"
       id="path4624"
       inkscape:connector-curvature="0" />
    <path
       d="m -60.151971,495.02151 1.818656,0 0,-1.75019 -1.818656,0 0,1.75019 z"
       style="fill:#ebce76;fill-opacity:1;fill-rule:nonzero;stroke:none"
       id="path4626"
       inkscape:connector-curvature="0" />
    <path
       d="m -72.086948,489.47268 -1.818656,0 0,1.75019 1.818656,0 0,-1.75019 z"
       style="fill:#ebce76;fill-opacity:1;fill-rule:nonzero;stroke:none"
       id="path4628"
       inkscape:connector-curvature="0" />
    <path
       d="m -73.905604,495.02151 1.818656,0 0,-1.75019 -1.818656,0 0,1.75019 z"
       style="fill:#ebce76;fill-opacity:1;fill-rule:nonzero;stroke:none"
       id="path4630"
       inkscape:connector-curvature="0" />
    <path
       d="m -72.086948,483.38086 -1.818656,0 0,1.75019 1.818656,0 0,-1.75019 z"
       style="fill:#ebce76;fill-opacity:1;fill-rule:nonzero;stroke:none"
       id="path4632"
       inkscape:connector-curvature="0" />
    <g
       id="g4634"
       transform="matrix(0.7869562,0,0,-0.7869562,-494.17563,842.64131)">
      <g
         id="g4636"
         clip-path="url(#clipPath4638)">
        <g
           id="g4642"
           transform="translate(729.0444,401.6318)">
          <path
             d="m 0,0 -0.272,0.033 0.003,-14.525 0.222,-0.016 c 2.618,-0.202 5.233,-0.407 7.847,-0.615 l 0.261,-0.021 0,14.104 -0.209,0.028 C 5.048,-0.635 2.479,-0.305 0,0"
             style="fill:#ebce76;fill-opacity:1;fill-rule:nonzero;stroke:none"
             id="path4644"
             inkscape:connector-curvature="0" />
        </g>
        <g
           id="g4646"
           transform="translate(750.835,398.6141)">
          <path
             d="m 0,0 -0.279,0.042 0,-0.281 c 0.003,-4.26 0.003,-8.519 0.003,-12.778 l 0,-0.222 0.525,-0.045 c 2.511,-0.216 5.024,-0.432 7.538,-0.651 l 0.262,-0.024 0,12.671 -0.202,0.034 C 5.123,-0.805 2.556,-0.393 0,0"
             style="fill:#ebce76;fill-opacity:1;fill-rule:nonzero;stroke:none"
             id="path4648"
             inkscape:connector-curvature="0" />
        </g>
        <g
           id="g4650"
           transform="translate(768.9083,445.7374)">
          <path
             d="M 0,0 C 7.027,40.917 6.149,68.754 5.423,78.998 5.404,79.26 5.391,79.446 5.385,79.556 L 5.28,84.48 0.714,86.371 0.488,86.454 c -0.528,0.172 -1.052,0.377 -1.575,0.58 -0.634,0.244 -1.267,0.487 -1.903,0.694 -3.402,1.413 -63.958,25.995 -151.213,25.995 -34.785,0 -69.565,-3.877 -103.391,-11.529 -20.962,-4.846 -28.963,-7.503 -43.487,-12.327 -3.18,-1.056 -6.669,-2.215 -10.676,-3.522 l -4.596,-1.5 -0.523,-5.042 0.003,-0.093 c -0.008,-0.111 -0.023,-0.277 -0.044,-0.499 -1.019,-11.531 -1.735,-36.91 4.615,-78.839 l -47.406,-4.248 0,-89.628 22.176,1.36 c 13.699,-1.275 47.012,-7.289 66.408,-35.469 15.069,-27.078 28.18,-48.54 41.171,-67.392 -0.83,-5.175 -0.702,-16.606 15.12,-20.876 14.247,-18.691 29.763,-36.519 53.289,-61.25 l 5.744,-5.336 5.605,5.199 0.139,0.137 c 22.746,23.912 38.774,42.381 53.405,61.553 5.208,1.533 16.899,6.557 14.78,20.314 13.648,19.682 27.029,41.597 42.023,68.826 18.959,26.833 51.495,32.65 64.851,33.907 l 21.919,-0.905 0,89.582 L 0,0 Z m 40.174,-85.797 c -0.519,0.055 -1.038,0.107 -1.555,0.162 -9.535,0.816 -60.668,2.961 -87.869,-41.352 -10.721,-21.811 -23.814,-44.368 -39.797,-67.152 0.918,-2.666 3.653,-13.633 -12.003,-16.409 -15.652,-20.571 -33.734,-41.226 -54.643,-61.592 l -0.003,0 c -20.814,20.445 -38.834,41.073 -54.447,61.543 -15.874,2.677 -13.262,13.912 -12.311,16.792 -15.989,22.734 -29.09,45.154 -39.819,66.782 -27.624,44.551 -79.72,42.185 -89.031,41.377 -0.482,-0.052 -0.964,-0.099 -1.448,-0.151 l 0,0.022 c -0.071,-0.005 -0.139,-0.014 -0.209,-0.022 l 0,75.606 c 16.598,1.568 33.21,2.923 49.834,4.093 -9.738,51.854 -6.243,85.516 -6.243,85.516 18.458,6.651 36.81,11.785 54.664,15.711 0.03,0.006 0.058,0.012 0.086,0.019 1.467,0.321 2.926,0.635 4.385,0.94 32.167,6.86 62.486,9.8 90.148,10.232 1.743,0.038 3.47,0.068 5.175,0.087 l 0,-0.03 c 91.703,0.421 152.896,-26.305 152.896,-26.305 0,0 3.15,-34.128 -6.694,-86.222 16.305,-1.156 32.603,-2.5 48.884,-4.041 l 0,-75.606 z"
             style="fill:#ebce76;fill-opacity:1;fill-rule:nonzero;stroke:none"
             id="path4652"
             inkscape:connector-curvature="0" />
        </g>
        <g
           id="g4654"
           transform="translate(501.1025,386.5993)">
          <path
             d="m 0,0 c 3.493,0.262 6.096,1.437 7.734,3.492 1.631,2.042 2.459,5.463 2.459,10.166 L 10.194,15.739 9.926,15.71 C 7.262,15.426 4.641,15.136 2.075,14.844 l -0.214,-0.025 0,-2.333 c 0,-0.897 -0.144,-1.542 -0.427,-1.918 -0.27,-0.358 -0.758,-0.564 -1.45,-0.615 -0.675,-0.047 -1.167,0.082 -1.442,0.394 -0.284,0.326 -0.427,0.945 -0.427,1.841 l 0,2.196 -0.271,-0.032 c -2.68,-0.317 -5.296,-0.634 -7.851,-0.953 l -0.211,-0.028 0,-1.311 c 0,-4.727 0.829,-8.019 2.464,-9.787 1.424,-1.545 3.581,-2.328 6.408,-2.328 0.431,0 0.883,0.018 1.346,0.055"
             style="fill:#ebce76;fill-opacity:1;fill-rule:nonzero;stroke:none"
             id="path4656"
             inkscape:connector-curvature="0" />
        </g>
        <g
           id="g4658"
           transform="translate(609.7588,376.8126)">
          <path
             d="m 0,0 c -15.095,0 -52.085,-1.06 -59.324,-1.236 -7.239,-0.177 -51.993,-2.645 -51.993,-2.645 0,0 15.447,-31.958 21.893,-43.788 6.445,-11.83 31.517,-47.668 36.283,-54.288 4.766,-6.623 31.767,-41.142 33.893,-43.259 2.125,-2.12 16.745,-18.098 18.483,-19.863 1.738,-1.765 4.173,-3.885 4.173,-3.885 0,0 13.896,14.215 19.016,19.51 5.12,5.298 16.686,18.981 18.981,21.806 2.295,2.825 24.364,32.925 26.572,36.106 2.207,3.177 11.3,16.507 12.712,18.89 1.413,2.385 20.746,34.076 23.041,37.783 2.295,3.708 7.503,15.713 8.828,18.273 1.325,2.56 6.002,12.095 6.002,12.095 0,0 -54.38,3.355 -67.799,3.796 C 37.342,-0.264 15.095,0 0,0"
             style="fill:#ebce76;fill-opacity:1;fill-rule:nonzero;stroke:none"
             id="path4660"
             inkscape:connector-curvature="0" />
        </g>
      </g>
    </g>
    <path
       d="m -78.641507,489.47268 -1.817868,0 0,1.75019 1.817868,0 0,-1.75019 z"
       style="fill:#ebce76;fill-opacity:1;fill-rule:nonzero;stroke:none"
       id="path4662"
       inkscape:connector-curvature="0" />
    <path
       d="m -80.459375,495.02151 1.817868,0 0,-1.75019 -1.817868,0 0,1.75019 z"
       style="fill:#ebce76;fill-opacity:1;fill-rule:nonzero;stroke:none"
       id="path4664"
       inkscape:connector-curvature="0" />
    <path
       d="m -70.358793,491.22287 1.819443,0 0,-1.75019 -1.819443,0 0,1.75019 z"
       style="fill:#ebce76;fill-opacity:1;fill-rule:nonzero;stroke:none"
       id="path4666"
       inkscape:connector-curvature="0" />
    <g
       id="g4668"
       transform="matrix(0.7869562,0,0,-0.7869562,-494.17563,842.64131)">
      <g
         id="g4670"
         clip-path="url(#clipPath4672)">
        <g
           id="g4676"
           transform="translate(499.8677,454.4667)">
          <path
             d="m 0,0 -0.24,0 c -9.323,-1.684 -11.698,-5.068 -12.239,-7.512 l 0,-10.832 c 5.184,0.32 10.146,0.592 15.33,0.873 5.848,8.937 12.99,13.05 12.99,13.05 C 46.174,12.355 57.634,51.892 57.634,51.892 40.043,16.481 -14.032,0.459 -14.032,0.459 L -0.437,0.678 C -0.428,0.661 -0.395,0.652 -0.324,0.652 0.72,0.652 1.229,0.121 0,0"
             style="fill:#ebce76;fill-opacity:1;fill-rule:nonzero;stroke:none"
             id="path4678"
             inkscape:connector-curvature="0" />
        </g>
      </g>
    </g>
    <path
       d="m -70.358793,485.13105 1.819443,0 0,-1.75019 -1.819443,0 0,1.75019 z"
       style="fill:#ebce76;fill-opacity:1;fill-rule:nonzero;stroke:none"
       id="path4680"
       inkscape:connector-curvature="0" />
    <path
       d="m -68.53935,479.58064 -1.819443,0 0,1.75019 1.819443,0 0,-1.75019 z"
       style="fill:#ebce76;fill-opacity:1;fill-rule:nonzero;stroke:none"
       id="path4682"
       inkscape:connector-curvature="0" />
    <g
       id="g4684"
       transform="matrix(0.7869562,0,0,-0.7869562,-494.17563,842.64131)">
      <g
         id="g4686"
         clip-path="url(#clipPath4688)">
        <g
           id="g4692"
           transform="translate(473.5731,397.6605)">
          <path
             d="m 0,0 -0.182,-0.026 -0.023,-0.182 c -0.083,-0.616 -0.183,-1.132 -0.296,-1.536 -0.334,-1.17 -1.022,-1.785 -2.105,-1.877 -1.044,-0.087 -1.742,0.404 -2.08,1.517 -0.097,0.32 -0.181,0.708 -0.254,1.153 l -0.038,0.234 -0.236,-0.034 c -2.768,-0.405 -5.409,-0.804 -7.918,-1.189 l -0.23,-0.035 0.026,-0.231 c 0.387,-3.385 1.172,-6.003 2.335,-7.777 1.571,-2.396 3.993,-3.612 7.201,-3.612 0.397,0 0.812,0.019 1.234,0.056 3.816,0.333 6.637,2 8.386,4.953 1.31,2.211 2.133,5.383 2.45,9.429 L 8.295,1.141 7.997,1.101 C 5.244,0.732 2.571,0.363 0,0"
             style="fill:#ebce76;fill-opacity:1;fill-rule:nonzero;stroke:none"
             id="path4694"
             inkscape:connector-curvature="0" />
        </g>
        <g
           id="g4696"
           transform="translate(444.6503,392.4216)">
          <path
             d="M 0,0 0,0.724 -0.283,0.675 C -3.202,0.169 -5.839,-0.301 -8.12,-0.721 l -0.198,-0.037 0,-10.037 0.264,0.025 c 5.066,0.47 10.132,0.937 15.2,1.401 l 0.22,0.021 0,10.017 L 6.785,0.616 C 4.526,0.413 2.262,0.209 0,0"
             style="fill:#ebce76;fill-opacity:1;fill-rule:nonzero;stroke:none"
             id="path4698"
             inkscape:connector-curvature="0" />
        </g>
        <g
           id="g4700"
           transform="translate(592.5187,515.6429)">
          <path
             d="M 0,0 -7.852,0 -9.317,-64.709 -10.781,0 l 1.71,0 c -1.105,19.819 14.21,18.844 14.21,18.844 l 0,2.729 -8.683,0 -0.315,-2.164 C -11.124,18.031 -16.552,12.12 -17.655,5.046 l 0,-4.207 C -15.187,0.221 -11.628,0 -11.628,0 l -5.641,0 -0.004,0 -3.493,0 0.045,-15.62 0,-2.525 c 3.574,-0.842 8.381,-1.407 8.381,-1.407 l -8.034,0 -0.429,-0.006 -6.588,0 0,-56.757 c 9.032,0.21 18.36,0.358 27.391,0.445 L 0,0 Z"
             style="fill:#ebce76;fill-opacity:1;fill-rule:nonzero;stroke:none"
             id="path4702"
             inkscape:connector-curvature="0" />
        </g>
        <g
           id="g4704"
           transform="translate(575.6351,407.2819)">
          <path
             d="m 0,0 -0.325,-4.273 c -0.056,-0.001 -0.111,-0.003 -0.167,-0.004 l -0.355,4.235 -0.232,-0.011 c -2.458,-0.115 -4.902,-0.235 -7.325,-0.369 l -0.264,-0.015 2.254,-15.759 0.217,0.006 c 3.968,0.133 7.866,0.248 11.589,0.342 l 0.205,0.005 0.027,0.204 c 0.455,3.307 0.91,6.609 1.366,9.91 L 7.825,0.321 7.537,0.31 C 5.081,0.217 2.637,0.119 0.213,0.01 L 0,0 Z"
             style="fill:#ebce76;fill-opacity:1;fill-rule:nonzero;stroke:none"
             id="path4706"
             inkscape:connector-curvature="0" />
        </g>
        <g
           id="g4708"
           transform="translate(594.0624,407.9445)">
          <path
             d="m 0,0 -0.001,-16.244 0.246,0.004 c 2.62,0.041 5.241,0.074 7.863,0.098 L 8.347,-16.139 8.348,0.179 8.102,0.175 C 5.468,0.128 2.846,0.071 0.236,0.005 L 0,0 Z"
             style="fill:#ebce76;fill-opacity:1;fill-rule:nonzero;stroke:none"
             id="path4710"
             inkscape:connector-curvature="0" />
        </g>
      </g>
    </g>
    <path
       d="m -70.358793,495.02151 1.819443,0 0,-1.75019 -1.819443,0 0,1.75019 z"
       style="fill:#ebce76;fill-opacity:1;fill-rule:nonzero;stroke:none"
       id="path4712"
       inkscape:connector-curvature="0" />
    <path
       d="m -58.332528,479.58064 -1.818656,0 0,1.75019 1.818656,0 0,-1.75019 z"
       style="fill:#ebce76;fill-opacity:1;fill-rule:nonzero;stroke:none"
       id="path4714"
       inkscape:connector-curvature="0" />
    <path
       d="m -63.70193,495.02151 1.821017,0 0,-1.75019 -1.821017,0 0,1.75019 z"
       style="fill:#ebce76;fill-opacity:1;fill-rule:nonzero;stroke:none"
       id="path4716"
       inkscape:connector-curvature="0" />
    <path
       d="m -63.70193,491.22287 1.821017,0 0,-1.75019 -1.821017,0 0,1.75019 z"
       style="fill:#ebce76;fill-opacity:1;fill-rule:nonzero;stroke:none"
       id="path4718"
       inkscape:connector-curvature="0" />
    <path
       d="m -60.151971,485.13105 1.818656,0 0,-1.75019 -1.818656,0 0,1.75019 z"
       style="fill:#ebce76;fill-opacity:1;fill-rule:nonzero;stroke:none"
       id="path4720"
       inkscape:connector-curvature="0" />
    <path
       d="m -61.880126,479.58064 -1.821017,0 0,1.75019 1.821017,0 0,-1.75019 z"
       style="fill:#ebce76;fill-opacity:1;fill-rule:nonzero;stroke:none"
       id="path4722"
       inkscape:connector-curvature="0" />
    <path
       d="m -63.70193,485.13105 1.821017,0 0,-1.75019 -1.821017,0 0,1.75019 z"
       style="fill:#ebce76;fill-opacity:1;fill-rule:nonzero;stroke:none"
       id="path4724"
       inkscape:connector-curvature="0" />
    <g
       id="g4726"
       transform="matrix(0.7869562,0,0,-0.7869562,-494.17563,842.64131)">
      <g
         id="g4728"
         clip-path="url(#clipPath4730)">
        <g
           id="g4734"
           transform="translate(538.1906,390.8383)">
          <path
             d="m 0,0 1.501,-0.419 c 0.873,-0.248 2.122,-0.479 3.709,-0.685 1.194,-0.158 2.37,-0.239 3.495,-0.239 0.373,0 0.74,0.01 1.105,0.026 3.06,0.15 5.386,1.149 6.912,2.969 1.522,1.808 2.294,4.771 2.295,8.808 0.003,1.936 -0.117,3.501 -0.357,4.653 l -0.07,0.29 -0.205,-0.013 C 12.757,15.024 7.09,14.613 1.542,14.165 L 1.137,14.132 1.413,13.709 c 0.061,-0.096 0.123,-0.192 0.189,-0.275 1.17,-1.494 3.39,-2.545 6.6,-3.122 1.452,-0.248 1.963,-0.402 2.137,-0.487 0.185,-0.092 0.269,-0.236 0.269,-0.469 0,-0.218 0,-0.885 -1.53,-0.952 C 6.891,8.304 4.061,8.524 0.624,9.06 L 0.357,9.101 0,0 Z"
             style="fill:#ebce76;fill-opacity:1;fill-rule:nonzero;stroke:none"
             id="path4736"
             inkscape:connector-curvature="0" />
        </g>
        <g
           id="g4738"
           transform="translate(594.1006,275.3961)">
          <path
             d="M 0,0 C -0.458,2.688 -0.907,4.975 -1.342,7.645 L -3.59,8.202 C -3.071,5 -2.531,1.776 -1.978,-1.456 L 0,0 Z"
             style="fill:#482a65;fill-opacity:1;fill-rule:nonzero;stroke:none"
             id="path4740"
             inkscape:connector-curvature="0" />
        </g>
        <g
           id="g4742"
           transform="translate(632.597,275.7566)">
          <path
             d="M 0,0 1.981,-1.456 C 2.508,1.629 3.022,4.708 3.516,7.762 L 1.273,7.208 C 0.858,4.683 0.434,2.541 0,0"
             style="fill:#482a65;fill-opacity:1;fill-rule:nonzero;stroke:none"
             id="path4744"
             inkscape:connector-curvature="0" />
        </g>
        <g
           id="g4746"
           transform="translate(600.1606,308.4992)">
          <path
             d="m 0,0 c 0.31,-1.492 0.758,-2.945 1.285,-4.374 0.603,-1.631 1.304,-3.224 2.015,-4.809 1.134,-2.533 2.17,-5.106 3.007,-7.757 0.302,-0.961 0.63,-1.915 1.062,-2.827 0.153,-0.317 0.276,-0.648 0.407,-0.97 1.3,-3.246 2.142,-6.607 2.541,-10.079 0.022,-0.2 0.057,-0.396 0.088,-0.612 1.701,-0.175 3.381,-0.173 5.062,-0.071 0.175,0.011 0.35,-0.006 0.519,0.084 0.016,0.069 0.038,0.134 0.049,0.197 0.055,0.374 0.104,0.749 0.161,1.12 0.366,2.416 0.962,4.776 1.771,7.082 0.281,0.817 0.615,1.612 0.899,2.426 0.623,1.809 1.333,3.585 2.09,5.342 0.828,1.915 1.669,3.825 2.492,5.743 0.879,2.057 1.696,4.139 2.344,6.281 0.686,2.249 1.164,4.535 1.292,6.893 0.088,1.64 -0.027,3.257 -0.309,4.869 -0.347,1.984 -0.893,3.913 -1.587,5.798 -0.82,2.229 -1.82,4.377 -2.94,6.467 -1.885,3.513 -3.746,7.043 -5.566,10.59 -1.109,2.158 -2.212,4.317 -3.322,6.472 -0.058,0.112 -0.09,0.249 -0.235,0.347 -0.032,-0.073 -0.061,-0.134 -0.084,-0.188 -0.28,-0.626 -0.552,-1.257 -0.836,-1.883 C 11.93,35.529 11.628,34.925 11.366,34.305 10.405,32.076 9.362,29.89 8.165,27.775 7.556,26.699 6.962,25.609 6.369,24.521 5.171,22.336 4.005,20.131 2.975,17.86 1.929,15.552 1.022,13.191 0.393,10.729 0.041,9.328 -0.219,7.91 -0.347,6.475 -0.456,5.279 -0.484,4.082 -0.394,2.88 -0.323,1.91 -0.199,0.951 0,0"
             style="fill:#482a65;fill-opacity:1;fill-rule:nonzero;stroke:none"
             id="path4748"
             inkscape:connector-curvature="0" />
        </g>
        <g
           id="g4750"
           transform="translate(595.9435,287.0815)">
          <path
             d="m 0,0 c 1.933,-0.874 3.688,-2.011 5.176,-3.538 1.485,-1.522 2.585,-3.27 3.21,-5.309 0.033,-0.103 0.073,-0.199 0.11,-0.297 0.065,-0.022 0.116,-0.044 0.166,-0.058 0.552,-0.123 1.1,-0.265 1.655,-0.369 0.715,-0.131 1.435,-0.232 2.157,-0.341 0.109,-0.017 0.236,-0.058 0.36,0.049 -0.016,0.164 -0.026,0.336 -0.049,0.511 -0.067,0.478 -0.136,0.959 -0.212,1.44 -0.191,1.278 -0.443,2.549 -0.777,3.797 -1.033,3.883 -2.621,7.525 -4.71,10.948 -1.476,2.418 -3.175,4.656 -5.2,6.64 -1.09,1.071 -2.264,2.038 -3.555,2.855 -2.677,1.705 -5.597,2.696 -8.764,2.923 -2.072,0.15 -4.113,-0.065 -6.127,-0.595 -2.225,-0.591 -4.162,-1.675 -5.851,-3.227 -1.891,-1.746 -3.317,-3.817 -4.333,-6.178 -0.937,-2.18 -1.432,-4.456 -1.415,-6.836 0.003,-0.377 0.022,-0.756 0.068,-1.131 0.134,-1.03 0.377,-2.035 0.713,-3.019 1.118,-3.281 3.016,-6.005 5.775,-8.114 1.775,-1.356 3.755,-2.317 5.875,-2.995 0.343,-0.106 0.691,-0.205 1.127,-0.333 -0.089,0.147 -0.121,0.205 -0.158,0.259 -0.34,0.503 -0.622,1.041 -0.841,1.61 -0.415,1.079 -0.617,2.199 -0.647,3.357 -0.037,1.427 0.134,2.82 0.582,4.181 0.174,0.527 0.387,1.033 0.698,1.494 0.611,0.905 1.351,1.678 2.245,2.306 1.393,0.978 2.961,1.467 4.644,1.596 1.159,0.09 2.316,0.024 3.465,-0.181 C -3.015,1.161 -1.479,0.67 0,0"
             style="fill:#482a65;fill-opacity:1;fill-rule:nonzero;stroke:none"
             id="path4752"
             inkscape:connector-curvature="0" />
        </g>
        <g
           id="g4754"
           transform="translate(658.5282,294.2043)">
          <path
             d="m 0,0 c -0.953,3.32 -2.667,6.169 -5.221,8.5 -1.194,1.09 -2.53,1.967 -4.041,2.555 -1.489,0.582 -3.03,0.945 -4.623,1.106 -1.508,0.156 -3.011,0.131 -4.514,-0.082 -1.666,-0.232 -3.262,-0.691 -4.805,-1.358 -2.203,-0.951 -4.14,-2.295 -5.875,-3.94 -1.8,-1.707 -3.349,-3.623 -4.702,-5.696 -3.563,-5.473 -5.904,-11.418 -6.795,-17.907 -0.008,-0.074 0,-0.15 0.003,-0.224 0.721,-0.041 3.738,0.484 4.344,0.746 0.008,0.011 0.019,0.022 0.022,0.033 0.033,0.103 0.066,0.205 0.098,0.308 0.391,1.361 1.011,2.61 1.828,3.765 0.984,1.388 2.186,2.563 3.585,3.52 2.669,1.83 5.612,2.958 8.841,3.292 1.257,0.128 2.506,0.084 3.738,-0.189 1.615,-0.355 3.044,-1.076 4.235,-2.226 0.959,-0.924 1.683,-1.992 2.041,-3.293 0.442,-1.62 0.584,-3.254 0.374,-4.92 -0.18,-1.457 -0.642,-2.806 -1.486,-4.017 -0.03,-0.038 -0.047,-0.09 -0.082,-0.172 0.095,0.019 0.158,0.027 0.224,0.044 1.238,0.325 2.44,0.754 3.603,1.298 1.946,0.912 3.692,2.111 5.183,3.661 2.096,2.177 3.484,4.743 4.249,7.658 0.227,0.861 0.385,1.735 0.407,2.628 C 0.675,-3.24 0.459,-1.601 0,0"
             style="fill:#482a65;fill-opacity:1;fill-rule:nonzero;stroke:none"
             id="path4756"
             inkscape:connector-curvature="0" />
        </g>
        <g
           id="g4758"
           transform="translate(622.0973,250.9896)">
          <path
             d="m 0,0 c -0.694,1.027 -1.298,2.109 -1.76,3.268 -0.221,0.56 -0.434,1.128 -0.65,1.693 -0.289,0.76 -0.656,1.479 -1.134,2.137 -0.229,0.317 -0.453,0.637 -0.664,0.967 -0.265,0.407 -0.524,0.817 -0.762,1.241 -0.276,0.492 -0.511,1.011 -0.617,1.574 -0.112,0.592 -0.213,1.193 -0.301,1.792 -0.107,0.759 -0.147,1.527 -0.164,2.295 -0.011,0.347 -0.06,0.691 -0.12,1.049 -0.361,-0.025 -0.694,-0.052 -1.027,-0.074 -0.353,-0.022 -0.702,-0.043 -1.049,-0.052 -0.339,-0.011 -0.675,-0.005 -1.013,0.003 -0.351,0.014 -0.699,0.044 -1.05,0.047 -0.335,0.002 -0.663,0.109 -1.008,0.06 -0.014,-0.06 -0.041,-0.11 -0.044,-0.159 -0.096,-0.937 -0.19,-1.88 -0.283,-2.817 -0.03,-0.322 -0.051,-0.642 -0.082,-0.967 -0.031,-0.322 -0.061,-0.642 -0.105,-0.962 -0.134,-0.937 -0.486,-1.792 -0.992,-2.584 -0.3,-0.481 -0.62,-0.948 -0.94,-1.413 -0.669,-0.967 -1.24,-1.986 -1.677,-3.082 -0.175,-0.434 -0.366,-0.869 -0.562,-1.297 -0.384,-0.853 -0.875,-1.64 -1.508,-2.331 -0.548,-0.596 -1.105,-1.18 -1.657,-1.771 -0.051,-0.057 -0.145,-0.092 -0.101,-0.21 1.153,-0.175 2.3,-0.12 3.431,0.197 0.959,0.268 1.832,0.702 2.555,1.407 0.027,0.027 0.057,0.057 0.09,0.079 0.232,0.167 0.506,0.038 0.53,-0.243 0.008,-0.12 -0.002,-0.243 -0.009,-0.366 -0.047,-1.055 0.045,-2.096 0.319,-3.123 0.253,-0.937 0.64,-1.831 1.086,-2.691 0.779,-1.495 1.577,-2.976 2.369,-4.462 0.017,-0.03 0.049,-0.052 0.088,-0.096 0.052,0.082 0.095,0.145 0.134,0.216 0.3,0.588 0.598,1.175 0.896,1.765 0.598,1.175 1.21,2.347 1.729,3.563 0.175,0.407 0.35,0.82 0.47,1.246 0.344,1.221 0.571,2.464 0.514,3.746 -0.003,0.068 -0.003,0.136 0.005,0.202 0.014,0.148 0.093,0.251 0.232,0.301 0.126,0.046 0.241,0.008 0.334,-0.083 0.052,-0.046 0.093,-0.101 0.136,-0.155 0.317,-0.388 0.714,-0.689 1.159,-0.924 0.459,-0.237 0.94,-0.401 1.442,-0.508 1.025,-0.221 2.055,-0.24 3.096,-0.161 0.022,0 0.041,0.022 0.085,0.052 C 1.388,-1.593 1.358,-1.549 1.325,-1.519 0.806,-1.082 0.377,-0.563 0,0"
             style="fill:#482a65;fill-opacity:1;fill-rule:nonzero;stroke:none"
             id="path4760"
             inkscape:connector-curvature="0" />
        </g>
        <g
           id="g4762"
           transform="translate(606.4719,258.6178)">
          <path
             d="m 0,0 c 0.625,0.907 1.092,1.888 1.453,2.921 0.593,1.705 0.897,3.464 1.065,5.253 0.008,0.091 0,0.186 0,0.296 C 1.779,8.617 1.053,8.746 0.336,8.915 -0.38,9.082 -1.086,9.298 -1.814,9.497 -1.852,9.311 -1.888,9.142 -1.918,8.97 -2.048,8.279 -2.221,7.604 -2.484,6.951 -2.764,6.257 -3.121,5.606 -3.65,5.073 -4.891,3.825 -6.391,3.344 -8.117,3.699 c -1.313,0.268 -2.325,1.025 -3.123,2.088 -0.401,0.538 -0.652,1.145 -0.784,1.8 -0.151,0.757 -0.137,1.525 -0.052,2.295 0.035,0.347 0.095,0.686 0.147,1.033 -0.292,-0.18 -0.504,-0.418 -0.716,-0.658 -0.588,-0.673 -1.121,-1.38 -1.542,-2.17 -0.602,-1.131 -0.899,-2.333 -0.907,-3.606 -0.007,-0.749 0.101,-1.478 0.236,-2.208 0.301,-1.609 1.066,-2.953 2.28,-4.041 0.879,-0.787 1.875,-1.366 3.04,-1.601 0.407,-0.085 0.824,-0.131 1.238,-0.167 1.095,-0.095 2.184,-0.065 3.262,0.159 2.136,0.443 3.8,1.59 5.038,3.377"
             style="fill:#482a65;fill-opacity:1;fill-rule:nonzero;stroke:none"
             id="path4764"
             inkscape:connector-curvature="0" />
        </g>
        <g
           id="g4766"
           transform="translate(632.3646,269.6913)">
          <path
             d="m 0,0 c -0.027,0.027 -0.071,0.03 -0.104,0.044 -0.013,-0.03 -0.027,-0.058 -0.024,-0.077 0.005,-0.095 0.016,-0.191 0.035,-0.284 0.131,-0.721 0.172,-1.445 0.126,-2.175 -0.03,-0.497 -0.126,-0.986 -0.298,-1.459 -0.369,-0.997 -1.027,-1.765 -1.882,-2.366 -0.992,-0.697 -2.093,-1.044 -3.314,-0.896 -1.378,0.164 -2.509,0.776 -3.347,1.893 -0.255,0.334 -0.46,0.697 -0.637,1.077 -0.35,0.751 -0.557,1.541 -0.71,2.352 -0.022,0.131 -0.014,0.271 -0.118,0.394 -0.06,-0.019 -0.123,-0.03 -0.186,-0.052 -1.267,-0.459 -2.571,-0.79 -3.907,-0.989 -0.101,-0.014 -0.199,-0.058 -0.303,-0.085 0,-0.079 -0.005,-0.134 0,-0.186 0.047,-0.371 0.088,-0.748 0.137,-1.123 0.147,-1.15 0.385,-2.281 0.735,-3.39 0.382,-1.216 0.893,-2.366 1.617,-3.418 0.929,-1.342 2.118,-2.366 3.634,-2.987 1.093,-0.448 2.249,-0.642 3.426,-0.672 0.62,-0.021 1.24,0.022 1.858,0.085 1.093,0.109 2.104,0.451 3.011,1.074 1.412,0.97 2.325,2.3 2.787,3.942 0.177,0.623 0.295,1.257 0.369,1.902 C 3.063,-5.948 2.891,-4.544 2.284,-3.21 1.732,-1.992 0.91,-0.962 0,0"
             style="fill:#482a65;fill-opacity:1;fill-rule:nonzero;stroke:none"
             id="path4768"
             inkscape:connector-curvature="0" />
        </g>
        <g
           id="g4770"
           transform="translate(604.6113,276.3879)">
          <path
             d="m 0,0 c -0.025,-0.022 -0.052,-0.033 -0.064,-0.055 -0.485,-0.792 -0.799,-1.647 -0.86,-2.579 -0.084,-1.227 0.309,-2.306 1.063,-3.262 0.175,-0.216 0.38,-0.363 0.648,-0.456 2.415,-0.853 4.896,-1.347 7.464,-1.408 2.019,-0.038 4.006,0.173 5.965,0.67 0.898,0.227 1.781,0.513 2.636,0.885 0.178,0.077 0.32,0.183 0.443,0.336 0.369,0.487 0.672,1.008 0.852,1.596 0.451,1.445 0.208,2.817 -0.462,4.139 -0.011,0.022 -0.035,0.038 -0.079,0.09 C 11.721,-1.588 5.856,-1.607 0,0"
             style="fill:#482a65;fill-opacity:1;fill-rule:nonzero;stroke:none"
             id="path4772"
             inkscape:connector-curvature="0" />
        </g>
        <g
           id="g4774"
           transform="translate(470.9885,409.8557)">
          <path
             d="m 0,0 c -1.195,-0.093 -1.978,-0.784 -2.35,-2.071 -0.371,-1.284 -0.557,-3.355 -0.56,-6.202 0,-2.847 0.189,-4.882 0.558,-6.109 0.371,-1.224 1.15,-1.784 2.333,-1.686 1.183,0.101 1.955,0.784 2.317,2.052 0.36,1.268 0.541,3.344 0.541,6.24 C 2.841,-4.885 2.667,-2.841 2.315,-1.65 1.966,-0.456 1.194,0.096 0,0"
             style="fill:#482a65;fill-opacity:1;fill-rule:nonzero;stroke:none"
             id="path4776"
             inkscape:connector-curvature="0" />
        </g>
        <g
           id="g4778"
           transform="translate(803.7573,365.2657)">
          <path
             d="m 0,0 0,66.021 c -25.958,2.454 -51.95,4.399 -77.966,5.85 9.241,0.532 26.27,2.718 28.336,11.571 l 0.035,-0.028 c 6.773,42.539 4.511,69.633 4.511,69.633 0,0 -139.404,53.363 -290.687,-0.49 0,0 -2.623,-27.901 4.55,-71.766 2.628,-3.879 8.635,-6.106 14.819,-7.382 l 0,7.287 c 0.75,3.385 5.137,9.213 26.43,9.445 l -26.43,-0.287 c 0,0 53.19,15.521 70.114,51.217 l 0,-47.029 0,-19.764 C -291.674,73.046 -337.03,70.3 -382.277,66.021 l 0,-66.021 c 23.394,2.247 46.817,4.236 70.259,5.853 0.85,-2.418 1.719,-4.848 2.62,-7.298 -1.429,0.169 -2.86,0.319 -4.291,0.494 -1.729,0.205 -3.131,-1.333 -3.129,-3.44 0,-2.103 1.399,-4.09 3.125,-4.409 2.517,-0.435 5.033,-0.834 7.549,-1.216 12.828,-32.792 31.016,-68.408 56.776,-104.755 -0.938,-0.114 -2.023,-1.289 -2.228,-3.055 -0.269,-2.1 0.716,-4.302 1.763,-4.792 2.775,-1.051 5.551,-2.021 8.323,-2.926 14.673,-19.617 31.58,-39.381 51.1,-58.968 19.638,19.592 36.624,39.452 51.347,59.222 2.511,0.831 5.022,1.719 7.536,2.672 1.043,0.492 2.03,2.692 1.762,4.792 -0.172,1.476 -0.956,2.536 -1.76,2.916 25.579,36.207 43.68,71.889 56.472,104.831 2.65,0.399 5.303,0.82 7.953,1.279 1.724,0.319 3.123,2.306 3.126,4.409 0,2.107 -1.404,3.645 -3.131,3.44 -1.571,-0.191 -3.142,-0.374 -4.71,-0.56 0.893,2.448 1.753,4.875 2.595,7.29 C -46.125,4.175 -23.046,2.214 0,0 m -128.732,147.776 50.378,0 0,-75.883 c -16.786,0.934 -33.581,1.661 -50.378,2.177 l 0,73.706 z M -191.138,10.235 c 11.038,0.02 22.073,-0.101 33.109,-0.33 -0.162,-1.751 -0.774,-8.238 -1.839,-17.957 -20.377,-0.617 -40.764,-0.614 -61.138,0.003 -1.071,9.76 -1.686,16.265 -1.844,17.978 10.57,0.211 21.141,0.326 31.712,0.306 m -18.336,16.434 c 0.003,10.692 0.006,21.385 0.007,32.076 2.62,0.028 5.242,0.049 7.862,0.069 -0.003,-10.683 -0.003,-21.366 -0.003,-32.046 -2.62,-0.027 -5.246,-0.057 -7.866,-0.099 m 42.401,-0.04 c -0.003,10.696 -0.003,21.392 -0.005,32.089 2.62,-0.033 5.24,-0.068 7.86,-0.112 0.003,-7.691 0.006,-15.379 0.006,-23.071 2.461,-0.051 4.923,-0.112 7.385,-0.174 0,-3.028 0.002,-6.055 0.002,-9.082 -5.081,0.145 -10.166,0.262 -15.248,0.35 m 11.18,-16.765 c 19.994,-0.443 39.986,-1.265 59.966,-2.396 -1.095,-2.946 -2.628,-6.984 -4.587,-11.962 -19.041,-1.703 -38.117,-2.866 -57.207,-3.484 1.082,9.878 1.692,16.361 1.828,17.842 m 21.205,36.494 c 2.374,-0.08 4.743,-0.164 7.114,-0.254 0,-2.954 0,-5.91 0.003,-8.864 -2.372,0.096 -4.743,0.189 -7.112,0.276 l 0,-2.899 c 3.049,-0.114 6.096,-0.237 9.145,-0.371 0.002,-2.989 0.002,-5.978 0.002,-8.97 -5.666,0.271 -11.333,0.506 -17.005,0.705 -0.002,10.759 -0.005,21.521 -0.008,32.281 5.667,-0.142 11.333,-0.309 17.002,-0.503 0,-2.989 0.003,-5.978 0.006,-8.97 -3.049,0.115 -6.098,0.224 -9.15,0.323 0.003,-0.918 0.003,-1.836 0.003,-2.754 m 37.36,-21.762 c -1.356,1.117 -2.331,2.904 -2.929,5.358 -0.599,2.456 -0.899,5.953 -0.902,10.494 -0.003,6.5 0.691,10.918 2.079,13.251 1.385,2.336 4.03,3.412 7.934,3.21 1.629,-0.084 3.544,-0.516 5.757,-1.297 0.394,-0.137 0.787,-0.274 1.183,-0.41 -0.068,-2.946 -0.134,-5.891 -0.199,-8.833 -1.85,0.439 -3.56,0.704 -5.129,0.795 -1.568,0.09 -2.579,-0.287 -3.03,-1.132 -0.451,-0.844 -0.674,-2.625 -0.672,-5.349 0,-2.721 0.107,-4.615 0.32,-5.675 0.216,-1.065 0.563,-1.784 1.036,-2.158 0.472,-0.375 1.24,-0.596 2.3,-0.664 1.759,-0.017 3.522,-0.033 5.281,-0.055 0.033,-2.899 0.069,-5.8 0.101,-8.702 -2.39,-0.683 -4.838,-0.937 -7.341,-0.765 -2.505,0.17 -4.434,0.814 -5.789,1.932 m -79.226,144.48 19.948,0 19.538,0 0.205,0 0,-94.774 c -13.227,0.353 -26.459,0.58 -39.691,0.675 l 0,94.099 z m -7.193,-133.229 c 2.461,-0.011 4.926,-0.027 7.387,-0.049 0.003,-3.014 0.003,-6.03 0.003,-9.041 -5.087,0.049 -10.169,0.071 -15.254,0.063 0.003,10.677 0,21.354 0.003,32.029 2.618,0.006 5.238,0.003 7.858,-0.005 0,-7.667 0.003,-15.333 0.003,-22.997 m -54.622,94.95 6.295,0 0.429,0 0,3.974 0,15.584 2.172,0 0.896,0 0.037,0 0,0.836 0,1.334 0,2.877 c 1.104,7.073 6.769,12.715 14.034,14.094 l 0,2.149 8.124,0 0,-2.424 c 6.673,-1.748 11.773,-7.147 12.811,-13.819 l 0.007,0 0,-5.047 2.918,0 0,-15.584 0,-3.97 1.095,-0.004 5.2,0 0,-55.781 c -18.007,0.06 -36.014,-0.113 -54.018,-0.531 l 0,56.312 z m 7.762,-72.396 c 0.582,-6.978 1.169,-13.95 1.753,-20.923 0.206,0.005 0.408,0.011 0.612,0.016 0.532,7 1.065,13.997 1.598,20.989 2.777,0.055 5.555,0.107 8.334,0.148 -1.482,-10.732 -2.964,-21.475 -4.446,-32.232 -3.862,-0.098 -7.725,-0.213 -11.589,-0.344 -1.532,10.702 -3.065,21.415 -4.597,32.144 2.778,0.074 5.555,0.142 8.335,0.202 m -32.689,-2.803 c 1.468,1.68 3.726,2.576 6.774,2.686 2.145,0.076 4.663,-0.145 7.552,-0.667 0.475,-0.098 0.951,-0.194 1.425,-0.292 -0.07,-2.905 -0.138,-5.812 -0.207,-8.716 -3.184,0.374 -5.499,0.53 -6.942,0.473 -1.447,-0.055 -2.287,-0.145 -2.525,-0.268 -0.237,-0.123 -0.355,-0.364 -0.355,-0.719 0,-0.355 0.134,-0.625 0.405,-0.808 0.27,-0.183 1.123,-0.473 2.557,-0.869 1.434,-0.396 2.608,-0.795 3.523,-1.197 0.914,-0.402 1.738,-0.984 2.471,-1.746 0.733,-0.765 1.219,-1.713 1.457,-2.85 0.235,-1.136 0.355,-2.669 0.355,-4.603 -0.003,-3.997 -0.749,-6.88 -2.241,-8.653 -1.491,-1.776 -3.74,-2.735 -6.743,-2.882 -1.442,-0.072 -2.964,-0.003 -4.554,0.207 -1.59,0.211 -2.816,0.435 -3.675,0.68 -0.437,0.123 -0.878,0.246 -1.318,0.369 0.112,2.88 0.227,5.76 0.341,8.639 3.452,-0.541 6.287,-0.762 8.499,-0.658 1.175,0.052 1.762,0.451 1.762,1.194 0.003,0.322 -0.134,0.552 -0.407,0.686 -0.268,0.134 -1.003,0.303 -2.199,0.508 -3.164,0.568 -5.312,1.574 -6.451,3.03 -1.14,1.456 -1.708,3.904 -1.708,7.35 0.002,4.385 0.738,7.423 2.204,9.106 m -19.568,0.926 c 2.619,0.131 5.235,0.257 7.854,0.377 -0.006,-10.931 -0.009,-21.863 -0.013,-32.794 -2.619,-0.159 -5.235,-0.325 -7.853,-0.495 0.004,10.97 0.008,21.94 0.012,32.912 m 57.88,-46.633 c 0.131,-1.423 0.74,-7.923 1.828,-17.866 -19.307,0.625 -38.601,1.808 -57.854,3.546 -1.957,4.967 -3.485,9.003 -4.577,11.94 20.191,1.132 40.395,1.951 60.603,2.38 m -127.017,8.126 c -5.068,-0.465 -10.135,-0.932 -15.202,-1.402 l 0,33.822 c 2.612,0.246 5.224,0.489 7.839,0.724 l 0,-24.281 c 2.454,0.227 4.908,0.448 7.363,0.669 l 0,-9.532 z m 27.412,5.904 c -1.715,-2.896 -4.446,-4.508 -8.199,-4.836 -3.753,-0.328 -6.489,0.817 -8.213,3.448 -1.724,2.634 -2.588,7.014 -2.585,13.142 0,6.128 0.857,10.65 2.569,13.557 1.713,2.907 4.45,4.511 8.215,4.795 3.765,0.287 6.502,-0.894 8.217,-3.522 1.712,-2.628 2.569,-6.992 2.569,-13.093 -0.002,-6.101 -0.86,-10.595 -2.573,-13.491 m 14.339,-0.161 c -1.603,1.732 -2.402,4.94 -2.402,9.623 0.003,7.141 0.006,14.281 0.006,21.423 2.617,0.172 5.235,0.338 7.851,0.499 -0.002,-7.267 -0.004,-14.529 -0.007,-21.794 0,-0.962 0.164,-1.628 0.492,-2 0.325,-0.374 0.871,-0.533 1.639,-0.478 0.768,0.054 1.309,0.292 1.624,0.713 0.316,0.418 0.474,1.104 0.474,2.063 0.003,7.251 0.006,14.499 0.007,21.751 2.616,0.155 5.235,0.303 7.851,0.448 -0.001,-7.008 -0.003,-14.019 -0.005,-21.027 -0.003,-4.672 -0.805,-8.008 -2.406,-10.016 -1.603,-2.009 -4.124,-3.142 -7.564,-3.402 -3.439,-0.265 -5.961,0.462 -7.56,2.197 m 6.748,-17.341 c 5.228,0.341 10.459,0.666 15.689,0.967 1.038,-2.801 2.519,-6.728 4.43,-11.605 -5.286,0.492 -10.568,1.028 -15.848,1.599 -1.484,3.054 -2.894,6.06 -4.271,9.039 m 8.727,-17.992 c 4.986,-0.613 9.975,-1.156 14.967,-1.61 8.338,-20.562 21.759,-51.378 39.253,-84.047 -23.046,30.229 -40.707,59.173 -54.22,85.657 m 83.116,-120.867 c 2.762,-0.374 5.521,-0.68 8.279,-0.91 0.862,-3.803 1.756,-7.543 2.671,-11.21 -3.751,4.052 -7.401,8.093 -10.95,12.12 m 21.256,-23.024 c -2.478,2.566 -4.899,5.123 -7.298,7.68 -1.194,4.626 -2.348,9.396 -3.459,14.265 7.153,-0.486 14.298,-0.478 21.451,0.03 -1.123,-4.918 -2.287,-9.729 -3.495,-14.399 -2.366,-2.521 -4.754,-5.046 -7.199,-7.576 m 10.213,10.8 c 0.926,3.716 1.83,7.5 2.705,11.358 2.803,0.238 5.606,0.563 8.412,0.954 -3.604,-4.09 -7.308,-8.194 -11.117,-12.312 m 19.04,21.475 c -4.83,-0.926 -9.693,-1.633 -14.576,-2.101 0.782,3.659 1.541,7.353 2.276,11.074 l -2.246,-0.388 c -0.727,-3.653 -1.478,-7.281 -2.246,-10.874 -8.314,-0.678 -16.667,-0.694 -24.98,-0.041 -0.784,3.647 -1.546,7.333 -2.281,11.046 l -2.252,0.388 c 0.746,-3.781 1.519,-7.533 2.314,-11.251 -4.823,0.448 -9.628,1.123 -14.399,2.014 -4.461,5.251 -8.753,10.475 -12.887,15.663 -20.226,36.201 -35.668,71.34 -44.993,94.26 18.354,-1.587 36.748,-2.21 55.15,-2.497 1.213,-10.562 2.827,-23.663 4.84,-38.043 l 2.239,-0.634 c -2.056,14.598 -3.698,27.915 -4.93,38.642 9.904,-0.142 19.814,-0.2 29.723,-0.274 9.883,0.074 19.765,0.132 29.645,0.274 -1.238,-10.749 -2.886,-24.098 -4.946,-38.729 l 2.238,0.634 c 2.022,14.412 3.639,27.543 4.852,38.127 18.188,0.285 36.363,0.888 54.502,2.435 -9.579,-23.538 -25.592,-59.922 -46.606,-97.113 -3.371,-4.183 -6.852,-8.388 -10.437,-12.612 m 18.546,22.882 c 18.29,33.77 32.284,65.851 40.885,87.059 5.229,0.467 10.456,1.027 15.677,1.672 -13.972,-27.382 -32.354,-57.384 -56.562,-88.731 m 61.021,97.684 c -5.516,-0.598 -11.035,-1.156 -16.56,-1.661 1.913,4.88 3.399,8.812 4.437,11.623 5.454,-0.314 10.904,-0.655 16.355,-1.013 -1.363,-2.951 -2.762,-5.927 -4.232,-8.949 m 57.166,54.207 c 0.707,-3.374 1.417,-6.751 2.128,-10.131 0.732,3.249 1.464,6.498 2.194,9.749 2.759,-0.249 5.519,-0.503 8.276,-0.765 -2.205,-7.53 -4.413,-15.071 -6.618,-22.606 l 0,-10.604 c -2.615,0.243 -5.226,0.484 -7.838,0.721 -0.003,3.53 -0.003,7.063 -0.003,10.593 -2.148,7.929 -4.301,15.849 -6.454,23.756 2.774,-0.232 5.544,-0.467 8.315,-0.713 m -16.323,1.366 0,-9.508 c -1.464,0.121 -2.928,0.241 -4.396,0.356 0.003,-8.052 0.003,-16.107 0.003,-24.156 -2.615,0.23 -5.229,0.454 -7.841,0.678 -0.003,8.03 -0.006,16.06 -0.006,24.092 -1.554,0.118 -3.109,0.235 -4.666,0.35 0,3.15 0,6.3 -0.003,9.451 5.639,-0.397 11.276,-0.817 16.909,-1.263 M -74.758,22.088 c 0,11.081 -0.005,22.166 -0.005,33.25 2.614,-0.161 5.232,-0.328 7.846,-0.497 0.003,-11.125 0.006,-22.248 0.009,-33.371 -2.615,0.211 -5.233,0.415 -7.85,0.618"
             style="fill:#482a65;fill-opacity:1;fill-rule:nonzero;stroke:none"
             id="path4780"
             inkscape:connector-curvature="0" />
        </g>
      </g>
    </g>
  </g>
</svg>
