<?xml version="1.0" encoding="utf-8"?>
<!-- Generator: Adobe Illustrator 15.0.0, SVG Export Plug-In . SVG Version: 6.00 Build 0)  -->
<!DOCTYPE svg PUBLIC "-//W3C//DTD SVG 1.1//EN" "http://www.w3.org/Graphics/SVG/1.1/DTD/svg11.dtd">
<svg version="1.1" id="Layer_1" xmlns="http://www.w3.org/2000/svg" xmlns:xlink="http://www.w3.org/1999/xlink" x="0px" y="0px"
	 width="500px" height="644.234px" viewBox="0 0 500 644.234" enable-background="new 0 0 500 644.234" xml:space="preserve">
<path d="M421.863,76.3l-10.997-53.92C362.212,7.762,308.556,0,250,0S137.791,7.762,89.137,22.38l-11,53.92
	C50.481,81.819,24.506,88.799,0,97.304V257.8c0,157.229,88.467,294.53,250,386.434C411.534,552.331,500,415.029,500,257.8V97.304
	C475.493,88.799,449.517,81.819,421.863,76.3"/>
<path fill="#C41230" d="M257.514,475.355c-19.686,23.362-22.889,51.369-12.516,73.655c0.277-12.565,4.916-26.904,14.28-41.07
	c17.838-26.979,44.635-44.403,61.271-75.292c4.506-8.376,5.72-14.507,5.227-20.112c15.356,16.185,20.443,38.992,13.825,60.2
	c-6.641,21.28-25.417,46.053-50.427,65.851c-17.124,13.546-31.185,30.872-39.174,49.179c-14.112-13.18-28.874-26.409-38.382-39.095
	c-13.531-18.025-33.901-50.384-14.04-93.253c16.538-35.705,54.218-63.411,79.54-101.773c12.213-18.5,15.652-38.742,11.954-53.068
	c39.629,34.677,41.61,95.255-4.199,146.013C276.86,455.466,265.398,465.996,257.514,475.355"/>
<path fill="#C41230" d="M235.843,270.661c20.771,14.747,28.745,39.571,17.636,69.56c-11.122,30.046-48.864,55.253-66.547,89.186
	c-9.994,19.18-12.149,38.678-7.693,58.67c-23.98-20.895-33.224-56.557-15.44-95.013c18.02-38.952,53.238-60.237,69.076-94.899
	C237.579,287.862,237.873,279.617,235.843,270.661"/>
<path fill="#BABCBE" d="M473.772,116.318V257.8c0,143.401-79.321,269.352-223.772,356.055
	C105.548,527.154,26.229,401.202,26.229,257.8V116.318c23.301-7.165,47.947-12.966,74.074-17.462l11.329-55.552
	c42.905-11.326,89.362-17.077,138.367-17.077c49.003,0,95.463,5.751,138.363,17.077l11.334,55.552
	C425.823,103.352,450.467,109.154,473.772,116.318 M466.839,257.8V121.466C405.076,103.13,333.848,94.189,250,94.189
	c-83.847,0-155.073,8.941-216.837,27.278V257.8c0,139.671,76.831,262.626,216.837,347.952
	C390.009,520.424,466.839,397.471,466.839,257.8"/>
<path d="M343.533,51.325c-1.242-0.191-1.865-0.287-3.112-0.47c-2.138,15.771-3.194,23.737-5.312,39.79
	c-6.357-0.538-9.573-0.779-16.07-1.211c-2.451-12.706-3.876-20.058-6.028-31.214c-1.795,11.051-2.933,18.055-4.957,30.552
	c-6.539-0.356-9.845-0.507-16.531-0.757c-2.87-17.029-4.305-25.574-7.149-42.703c-1.292-0.068-1.938-0.101-3.232-0.165
	c-0.058-4.474-0.09-6.709-0.148-11.182c7.944,0.413,11.885,0.689,19.699,1.37c0.074,4.42,0.109,6.629,0.182,11.054
	c-1.632-0.127-2.449-0.191-4.086-0.307c1.623,11.281,2.517,17.454,4.019,27.822c2.318-13.863,3.773-22.564,6.356-37.963
	c4.637,0.458,6.944,0.714,11.538,1.264c2.969,15.922,4.603,24.678,7.276,39.015c1.134-10.331,1.771-16.118,2.962-26.944
	c-1.745-0.222-2.618-0.332-4.373-0.54c-0.069-4.329-0.107-6.489-0.178-10.816c7.674,1.01,11.477,1.583,19.004,2.856
	C343.45,44.997,343.476,47.104,343.533,51.325 M132.087,45.55c-3.414,0.754-7.868,1.894-9.811,7.264
	c-0.926,2.566-0.957,5.332-0.959,8.087c-0.011,9.274-0.015,13.915-0.028,23.192c-0.005,3.092-0.005,6.734,2.741,8.813
	c2.402,1.823,6.077,1.423,8.862,1.073c4.356-0.545,6.547-0.802,10.967-1.288c3.927-0.435,9.271-1.034,10.974-7.861
	c0.624-2.494,0.66-5.587,0.697-8.456c0.111-8.375,0.167-12.568,0.277-20.944c0.052-4.158,0.097-7.532-1.257-9.946
	c-2.13-3.787-6.286-3.249-10.66-2.394C139.138,44.022,136.775,44.513,132.087,45.55 M142.472,53.66
	c-0.11,11.372-0.167,17.465-0.278,28.914c-3.043,0.394-4.926,0.654-7.932,1.082c0.073-11.2,0.103-17.187,0.174-28.476
	C137.479,54.578,139.386,54.219,142.472,53.66 M171.266,79.373c-1.817,0.162-2.728,0.25-4.535,0.424
	c-0.063,4.282-0.101,6.427-0.164,10.71c8.708-0.72,13.129-1.032,22.101-1.55c0.073-4.388,0.11-6.577,0.185-10.968
	c-1.859,0.128-2.788,0.192-4.639,0.327c0.207-12.244,0.314-18.371,0.521-30.618c1.607-0.163,2.413-0.241,4.026-0.398
	c-0.057,3.403-0.09,5.102-0.146,8.502c3.418-0.302,5.134-0.436,8.584-0.698c0.129-7.844,0.198-11.766,0.328-19.61
	c-15.437,1.397-23.03,2.354-37.918,4.78c-0.103,7.527-0.153,11.294-0.256,18.817c3.31-0.452,4.973-0.672,8.318-1.08
	c0.05-3.323,0.074-4.988,0.125-8.311c1.578-0.211,2.366-0.31,3.951-0.509C171.552,61.267,171.458,67.298,171.266,79.373
	 M213.517,76.686c-1.916,0.074-2.869,0.107-4.774,0.191c-0.07,4.452-0.103,6.682-0.173,11.133
	c9.216-0.344,13.889-0.467,23.382-0.614c0.043-4.493,0.063-6.739,0.101-11.235c-1.959,0.037-2.939,0.052-4.885,0.099
	c0.134-12.584,0.195-18.872,0.329-31.457c1.671-0.058,2.509-0.083,4.186-0.127c-0.032,3.483-0.045,5.226-0.075,8.714
	c3.567-0.089,5.361-0.12,8.96-0.166c0.041-7.995,0.056-11.995,0.097-19.987c-15.969,0.245-23.848,0.632-39.332,1.923
	c-0.128,7.865-0.193,11.801-0.318,19.667c3.462-0.241,5.203-0.352,8.697-0.549c0.055-3.453,0.081-5.188,0.134-8.64
	c1.642-0.101,2.469-0.145,4.12-0.237C213.787,57.915,213.695,64.171,213.517,76.686 M243.288,76.018
	c-1.52,0.011-2.279,0.019-3.792,0.036c-0.024,4.502-0.037,6.748-0.06,11.25c6.373-0.057,9.638-0.063,16.047-0.036
	c0.692-5.266,1.04-7.895,1.722-13.162c3.469,0.029,5.196,0.051,8.633,0.108c0.763,5.273,1.141,7.91,1.912,13.18
	c6.286,0.094,9.4,0.162,15.563,0.344c-0.062-4.471-0.09-6.706-0.154-11.176c-1.359-0.048-2.041-0.067-3.407-0.109
	c-3.027-17.123-4.534-25.706-7.507-42.881c-8.676-0.322-13.049-0.406-21.858-0.41C247.606,50.294,246.187,58.872,243.288,76.018
	 M264.683,64.86c-2.564-0.045-3.851-0.063-6.429-0.088c1.267-9.055,1.888-13.586,3.121-22.625
	C262.687,51.232,263.349,55.779,264.683,64.86 M345.874,81.118c-1.364-0.157-2.047-0.23-3.415-0.381
	c0.058,4.23,0.09,6.346,0.148,10.577c5.718,0.533,8.54,0.819,14.146,1.442c0.57-4.765,0.857-7.143,1.432-11.88
	c3.063,0.41,4.587,0.624,7.619,1.068c0.665,4.849,0.995,7.258,1.657,12.08c5.492,0.687,8.213,1.054,13.595,1.829v-9.828
	c-1.196-0.2-1.794-0.299-2.997-0.492c-2.498-15.459-3.775-23.291-6.374-39.136c-7.88-1.808-11.869-2.631-19.932-4.137
	C349.383,57.625,348.208,65.4,345.874,81.118 M364.788,73.356c-2.274-0.365-3.423-0.545-5.716-0.894
	c1.088-8.109,1.635-12.141,2.736-20.159C363.011,60.767,363.609,64.979,364.788,73.356"/>
<path fill="#FFFFFF" d="M340.059,239.809l-14.228-42.622c13.182-5.099,20.572-17.46,20.572-39.924
	c0-23.488-11.877-35.709-40.408-37.222c-17.032-0.901-34.606-1.391-52.797-1.442v19.168c3.583,0.009,7.134,0.045,10.668,0.09v98.159
	c-3.532-0.042-7.089-0.067-10.668-0.076v19.174c12.887,0.038,25.473,0.291,37.775,0.754V138.53c3.736,0.14,7.453,0.296,11.142,0.476
	c11.073,0.542,16.692,5.122,16.692,20.657c0,20.241-9.647,28.904-21.873,28.904l21.646,68.72
	c13.094,0.873,25.844,2.009,38.276,3.409v-19.173C351.324,240.897,345.72,240.328,340.059,239.809"/>
<path fill="#FFFFFF" d="M236.143,214.695c0,28.167-12.794,41.652-40.965,43.167s-40.961-10.595-40.961-38.757l-0.003-76.897
	c-3.578,0.354-7.139,0.72-10.665,1.114v-19.168c15.624-1.751,31.759-3.085,48.433-4.005v19.166
	c-3.582,0.198-7.13,0.424-10.664,0.661v82.139c0,10.238,6.208,15.605,13.86,15.193c7.656-0.411,13.86-6.445,13.86-16.685
	l-0.002-82.118c-3.575,0.132-7.136,0.277-10.661,0.448v-19.166c15.653-0.758,31.806-1.142,48.433-1.188v19.168
	c-3.583,0.009-7.128,0.042-10.665,0.084V214.695z"/>
<path fill="#FFFFFF" d="M92.692,249.006v-35.757c11.463-2.13,23.218-3.997,35.286-5.605v-20.829
	c-12.067,1.606-23.822,3.477-35.286,5.606v-41.597c6.531-1.213,13.165-2.336,19.891-3.381l12.213,30.261
	c4.089-0.563,8.201-1.108,12.367-1.611v-51.214c-29.148,3.513-56.481,8.53-82.242,15.042v19.166
	c3.527-0.892,7.078-1.763,10.667-2.599v98.171c-3.589,0.835-7.137,1.712-10.667,2.603v19.153
	c15.806-3.994,32.218-7.415,49.264-10.277V246.98C100.324,247.63,96.487,248.299,92.692,249.006"/>
<path fill="#FFFFFF" d="M409.241,132.063v19.153c3.108,0.586,6.21,1.179,9.271,1.804l-17.589,39.008L387.104,147.4
	c3.113,0.484,6.194,0.991,9.264,1.508v-19.132c-15.314-2.583-31.112-4.749-47.505-6.428v19.174c3.577,0.366,7.138,0.741,10.661,1.15
	l24.427,67.592v33.841c-3.807-0.571-7.627-1.122-11.494-1.64v19.168c17.314,2.313,34.021,5.138,50.093,8.539v-19.166
	c-3.795-0.804-7.63-1.568-11.496-2.308v-33.939l29.644-57.764c3.599,0.88,7.159,1.8,10.695,2.738v-19.155
	C437.805,137.975,423.758,134.807,409.241,132.063"/>
<polygon fill="#FFFFFF" points="89.891,339.332 120.016,339.332 120.016,352.459 110.17,352.459 110.17,347.947 104.017,347.947 
	104.017,355.741 112.515,355.741 112.515,363.242 104.017,363.242 104.017,372.093 106.653,372.093 106.653,380.708 89.891,380.708 
	89.891,372.093 92.648,372.093 92.648,347.947 89.891,347.947 "/>
<path fill="#FFFFFF" d="M408.722,339.332v13.361h-9.555v-4.745h-6.154v24.146h6.154v-6.622h10.022v15.236h-16.996
	c-1.7,0-3.341,0-4.982-0.41c-5.393-1.464-5.449-6.152-5.449-9.025v-21.917c0-2.463,0-4.982,1.757-7.151
	c2.288-2.811,5.743-2.873,8.968-2.873H408.722z"/>
</svg>
