<svg xmlns="http://www.w3.org/2000/svg" width="96.41" height="73.1" viewBox="0 0 96.41 73.1">
  <title>logo-no-outline</title>
  <g id="logo-no-outline">
    <path id="arch" d="M52.39,0A39.12,39.12,0,0,1,91.18,44.07H87.8c.94-6.85-.41-13.35-3.64-20.24,2.57,7.62,3.2,14.29,2.13,20.24h-4a30.33,30.33,0,1,0-59.85,0H18.62c-1.07-6-.44-12.62,2.13-20.24-3.23,6.9-4.58,13.39-3.64,20.24h-3.5A39.12,39.12,0,0,1,52.39,0" style="fill: #c9992b"/>
    <g id="soccer_ball" data-name="soccer ball">
      <path d="M58.65,68.74A9.9,9.9,0,0,1,61,54.87a10,10,0,0,1,13.88,2.67,9.9,9.9,0,0,1-2.34,13.86,10,10,0,0,1-13.88-2.67" style="fill: #c9992b"/>
      <path d="M73.75,58.33a8.53,8.53,0,0,1-2,12,8.67,8.67,0,0,1-12-2.33,8.53,8.53,0,0,1,2-12,8.67,8.67,0,0,1,12,2.33" style="fill: #fff"/>
      <path d="M73.76,59.28a8,8,0,0,1-2.31,10.59,8.16,8.16,0,0,1-11.27-2.19A8.26,8.26,0,0,1,58.68,63q.19.34.42.67a8.16,8.16,0,0,0,11.27,2.19,7.86,7.86,0,0,0,3.39-6.55" style="fill: #7d878c"/>
      <path d="M65.35,65a22.75,22.75,0,0,1-2.07-4,11,11,0,0,1,2.6-3,17.52,17.52,0,0,1,3.9,1.41c-.1,1.4-.1,2.81-.18,4.22A12.11,12.11,0,0,1,65.35,65m-3.77-9.26A9,9,0,0,1,74,58.14a8.86,8.86,0,0,1-2.08,12.42A9,9,0,0,1,59.5,68.14a8.86,8.86,0,0,1,2.08-12.42m8.79,1-.06,0a2,2,0,0,0-.37-.19,7.84,7.84,0,0,0-2.42-.74,1.91,1.91,0,0,1-.32,0,6.57,6.57,0,0,0-.85.3,5.4,5.4,0,0,0-1.08.61,9.29,9.29,0,0,0-2.5.1c-.28.13-.52.27-.48.22a7.31,7.31,0,0,0-2.4,2.88,4.56,4.56,0,0,1,1.16-.8c.11.76.19,1.53.35,2.29l-.09.15a.06.06,0,0,1,0,0,6.58,6.58,0,0,0-.95,2.59l-1.11-.25A8.2,8.2,0,0,0,62,68.93l.06.07a9.87,9.87,0,0,1-.59-2.08l2.81.39c.74.61,1.44,1.28,2.17,1.91a.84.84,0,0,0,.21.12.58.58,0,0,1,0,.08l.16.14-.17.1a.14.14,0,0,1-.09.08c-.07,0-.09.07-.15.11a5.23,5.23,0,0,1-1,.58l0,.06a7.36,7.36,0,0,0,5.21-.85l-.89-.57a2.7,2.7,0,0,0,.16-.26.28.28,0,0,1,.05-.1,15,15,0,0,0,1-3.12c1-.31,1.94-.64,2.92-.91l.25.54c.33-1.24.39-3.33-.35-4.38,0,0-.2-.24-.48-.54a11.45,11.45,0,0,0-1.89-1.49,6.07,6.07,0,0,0-1.06-2.08" style="fill: #006140"/>
    </g>
    <g id="rhino">
      <path d="M46.24,45.36l-.43-.15c-.13,0-.6-.23-1.05-.38l-.56-.17a20.4,20.4,0,0,1-6.46,2.56l.52.72a2.24,2.24,0,0,1-2.39,3.36,4.77,4.77,0,0,1-1.09.3,3.65,3.65,0,0,1-2.87-.76l-.36-.08a4.73,4.73,0,0,1-1.45-.62c-1.43-1-1.45-2.6,0-4.21l.37-1s.28-.78.5-1.41a2.42,2.42,0,0,1,.2-.43,9.48,9.48,0,0,1-1,.68l-.18.11a4.31,4.31,0,0,1-.69,2.53,2.4,2.4,0,0,1-2.07.7,3.89,3.89,0,0,1-.55-.08,2.57,2.57,0,0,1-3.2-.18,2.5,2.5,0,0,1-1.88-.61,2,2,0,0,1-.62-.92,2.13,2.13,0,0,1-.08-.34c-.48-1.78,1.21-2.88,2.57-3.22l.14-.13.39-.4a4.2,4.2,0,0,1-1.31-2.65,4.26,4.26,0,0,1,.11-1.38,4.36,4.36,0,0,1,.12-.42c.58-3,2.87-6.74,3.78-8.1a12.77,12.77,0,0,1,1-1.29c.28-.32.56-.63.9-1.08l.33-.47c.51-.7,1.26-1.84,2-2.92A19.64,19.64,0,0,1,33.32,20a8.47,8.47,0,0,1,2.47-1.44c.37-.16.75-.31,1.11-.48a6.22,6.22,0,0,0,.9-.5c.3-.21.58-.44.87-.67a9.75,9.75,0,0,1,1.08-.76,11.3,11.3,0,0,1,6.92-1.36c.51.05,1.06.19,1.57.2l.15-.06A6.11,6.11,0,0,0,49,14.6c.52-.33,1.16-.78,1.83-1.29l.51-.39c1.13-.89,2.15-1.76,2.51-2,2.47-2,6-1.8,8.56-.48,3.31,1.74,6.44,6.54,8.49,10.07l.05-.1a4.33,4.33,0,0,0,.58-1.89l.07-2,1.71,1c.65.38,1.31.74,1.95,1.13,4.49,2.73,4.35,9.54-.15,11.4,0,.34,0,.7,0,1s0,.48,0,.71l2.29-.25a54.55,54.55,0,0,0,3.24-5.66L82,23.08s2.62,10.84-4,19.4c1.4,2.1-.08,4.62-1.44,5.69A5.1,5.1,0,0,1,74,50.8a13,13,0,0,1-3.78-.45,6.51,6.51,0,0,1-1.82-.12l-1-.27a7.68,7.68,0,0,1-1.65-.81l-.07,0a3.33,3.33,0,0,1-.47,1.79,3,3,0,0,1-2.92,1.65,3,3,0,0,1-3.18,1.08,3.89,3.89,0,0,1-3.6.56,2.17,2.17,0,0,1-1.1,2.14,3.16,3.16,0,0,1-1.86.46l-.36,0a3,3,0,0,1-2.26.11,3.61,3.61,0,0,1-.43-.17l-.09,0a3.67,3.67,0,0,1-.69.13c-.38,0-.8,0-1.19.07-1.08.07-4.76-1.08-3.61-4a3.17,3.17,0,0,1,.2-.41l.14-.24A4.7,4.7,0,0,0,45,50.33a3.94,3.94,0,0,0,0-.83c0-.38-.12-.81-.21-1.33a1.9,1.9,0,0,1,0-.4s0,0,0-.06a2.23,2.23,0,0,1,1.43-2.34ZM31.9,42.3a2.72,2.72,0,0,1,.93-.37,3.42,3.42,0,0,1,.62-.07,5.49,5.49,0,0,0,1.08-1.12,2,2,0,0,0,.35-.67v0l-.09-.13-.21-.33a4.38,4.38,0,0,1-1.09.67L32.33,41a2.56,2.56,0,0,1-.43,1.35" style="fill: #c9992b"/>
      <path d="M44.21,43.76c-2.06,1.09-5,2.58-7.5,2.68l-.55.77.92.58.45.62a1.35,1.35,0,0,1-1.7,1.94l-.28.12a4,4,0,0,1-.89.25A2.77,2.77,0,0,1,32.3,50l-.09,0-.44-.1a3.87,3.87,0,0,1-1.17-.5c-.86-.59-1.09-1.6.28-3l.43-1.2s.29-.79.5-1.41a1.52,1.52,0,0,1,1.2-1,2.57,2.57,0,0,1,.7,0,5.93,5.93,0,0,0,1.54-1.49c.52-.73.67-1.34.37-1.68h0l-.86-1.35A4.41,4.41,0,0,1,33.1,39.5l-1.69,1a1.79,1.79,0,0,1,0,.3A1.61,1.61,0,0,1,31.07,42a5.89,5.89,0,0,1-1.33,1l-.64.37a3.68,3.68,0,0,1-.46,2.47,1.53,1.53,0,0,1-1.31.38,2.38,2.38,0,0,1-.79-.18l-.06,0a1.8,1.8,0,0,1-2.71-.22,1.39,1.39,0,0,1-.3.08,1.61,1.61,0,0,1-1.29-.41,1.14,1.14,0,0,1-.35-.52,1.25,1.25,0,0,1-.06-.24c-.31-1.05.72-2,2.11-2.23a6.8,6.8,0,0,0,.8-.77l.61-.66a3.56,3.56,0,0,1-1.71-2.64,3.38,3.38,0,0,1,.08-1.1c0-.14.07-.25.1-.33l0-.1c.53-2.85,2.72-6.43,3.65-7.81a11.91,11.91,0,0,1,.94-1.21c.29-.34.59-.67.94-1.13l.34-.47c.51-.71,1.26-1.83,2-2.92a19,19,0,0,1,2.21-2.73,7.68,7.68,0,0,1,2.22-1.28c.38-.16.77-.32,1.14-.49a6.87,6.87,0,0,0,1-.58c.31-.22.61-.46.91-.7a9.24,9.24,0,0,1,1-.69,10.44,10.44,0,0,1,6.39-1.24c.56.06,1.15.21,1.71.21A9.92,9.92,0,0,0,51.39,14c1.33-1,2.62-2.12,3-2.46,2.13-1.73,5.29-1.6,7.6-.38,3.5,1.85,7,7.58,9,11.18.07-.18.14-.35.22-.52.17-.37.36-.72.54-1.07a5.19,5.19,0,0,0,.67-2.25l0-.51.44.26c.64.37,1.3.73,1.93,1.12,4.23,2.58,3.61,8.92-.65,10a4.2,4.2,0,0,1,.08.67c0,.31,0,.63,0,1a7.36,7.36,0,0,0,.07,1.7l2.12-.23a14.87,14.87,0,0,1-1.66,2.74c0,.08.25.6.26.67,3.32-3.34,6.38-9.68,6.38-9.68l0,.19C82,31.75,80,38.25,76.9,42.52c1.63,1.65.37,4.11-1.06,5.09A4.4,4.4,0,0,1,73.75,50a13.73,13.73,0,0,1-3.44-.5,6.25,6.25,0,0,1-4.05-1A2.32,2.32,0,0,1,66,48a20.37,20.37,0,0,1-3.11-1.7l-.11-.07,0-.13a8.33,8.33,0,0,0-.18-.83l-.79.41a2.35,2.35,0,0,0,.62.6c.39.29.86.55,1.27.84a2.5,2.5,0,0,1,.81,3.35,2.1,2.1,0,0,1-2.55,1.12C61,53,60.16,52.95,58.82,52.66c-1,1.65-5.06.78-4.86-1.57a3.43,3.43,0,0,1,.21-.9l-1.69,1A8.12,8.12,0,0,1,54.22,53c.51.81.81,1.89-.24,2.54a2.29,2.29,0,0,1-1.35.32,3.5,3.5,0,0,1-.45-.05l-.12,0a2,2,0,0,1-1.82.19,3.37,3.37,0,0,1-.59-.27l-.15-.09c-.07.19-.46.27-.83.3s-.78,0-1.16.06c-1.11.07-3.45-1-2.74-2.85a2.34,2.34,0,0,1,.15-.29l.14-.24a5.5,5.5,0,0,0,.85-2.23,4.74,4.74,0,0,0,0-1c0-.39-.12-.83-.21-1.37a1,1,0,0,1,0-.22s0-.09,0-.13a1.36,1.36,0,0,1,.87-1.5,6.05,6.05,0,0,1,.72-.2,2.59,2.59,0,0,0,.63-.23,4.18,4.18,0,0,0,.6-.53L48.7,45l-1-.19a10.7,10.7,0,0,1-1.59-.43C46,44.33,45.5,44.15,45,44c-.22-.08-.45-.14-.63-.19l-.2,0Z" style="fill: #c4c4c7"/>
      <path d="M68.58,41.23c2,2.21,9.42-2.24,11-8.8,0,.27-.36,3.26-.38,3.32a70.41,70.41,0,0,1-4.32,6.95L71,43.86,68.42,42.7Z" style="fill: #7d878c"/>
      <path d="M44.54,26.64l-.28.46a6.08,6.08,0,0,1-.84,1c.44-.6.85-1.16,1-1.33Zm20.78,21a22.86,22.86,0,0,1-2.42-1.39l-.11-.07,0-.13,0-.2a28.68,28.68,0,0,0,2.59,1.79m.86-12s0,0,0,.1a3.55,3.55,0,0,0,1.44,1.52A8.81,8.81,0,0,0,75,34.52l.35-1.24C73.89,33.2,72.45,33.1,71,33h-.07a13.53,13.53,0,0,0-7.19-.52A13.7,13.7,0,0,1,68,30.89a6.38,6.38,0,0,0-2.93-1l.19-.05a11.11,11.11,0,0,1,5.33.09A5,5,0,0,0,69,29.1a2.43,2.43,0,0,0-.76-3.62,22.26,22.26,0,0,0-5.94-1.08,6.6,6.6,0,0,0-1,.23,4.39,4.39,0,0,1-1.16,4.94l0,0-1.76-3.3.58-1.89c.08-1.39-1.66-2.32-1.09-3.73l.32-.32.46.46a17,17,0,0,1,2.92.22c0,.08,0,.16-.06.24l4.79,1.08c1.36,1-.14,1.14,1.54,1.31l3.44.92v0C70.73,23.78,64.75,14,61.63,12a6.4,6.4,0,0,0-5.4-.46c-1.6.84-1.47,2.1-3.24,2.39-.18,0-1.69,2-1.89,1.94a4,4,0,0,0,1.12-1.7l-.3-.53c1.14-.89,2.16-1.76,2.52-2.06,2.13-1.73,5.29-1.6,7.6-.38,3.5,1.85,7,7.58,9,11.18.07-.18.14-.35.22-.52.17-.37.36-.72.54-1.07a5.19,5.19,0,0,0,.67-2.25l0-.52.44.26c.64.37,1.3.73,1.93,1.12,4.23,2.58,3.61,8.92-.65,10.05a4.29,4.29,0,0,1,.08.67c0,.32,0,.63,0,1a7.37,7.37,0,0,0,.07,1.7l2.12-.23a14.88,14.88,0,0,1-1.66,2.74c0,.08.25.6.26.67,3.32-3.34,6.38-9.68,6.38-9.68l0,.19C82,31.75,80,38.25,76.9,42.52c1.63,1.65.37,4.11-1.06,5.1A4.4,4.4,0,0,1,73.75,50a13.74,13.74,0,0,1-3.44-.5,5.6,5.6,0,0,1-1.88-.11l-.32,0L68,49.24a6.74,6.74,0,0,1-1.78-.82,1.53,1.53,0,0,1-.18-.29c.37.22.45-.22.87,0a2.41,2.41,0,0,0,.64.23l-1.1-2.12a2.7,2.7,0,0,0,2.74.81c.14-.24-.27-.31-.35-.58.23-.19-.17-1-.54-1.37,1,.15,2,1.56,2,1.56A2.48,2.48,0,0,0,73.75,46c-3.09,1.39-5.45-1.82-5.37-3.21.05-.89,1.08.73,1.05,0l.3.25,4-.23a31.16,31.16,0,0,0,6.1-9.73l.57-2.88.28-1.44c-1.33,2.13-5.81,9.42-8,10.34a6.35,6.35,0,0,1-2.87.61c-1,.42-1.57.93-1.46,2.78-.92-.76-.66-2.1,0-3.16a5.09,5.09,0,0,1-2.26-3.54.7.7,0,0,1,0-.1m5-11.12h0c0,.2-.09.39-.12.55L73.29,28l2.28-3.71c.19-1.7-1.17-3.17-2.36-4.17-.91.78-1.69,3-2,4.43Zm-27,19.2c-2.06,1.09-5,2.58-7.5,2.68l-.55.77.92.58.45.62a1.35,1.35,0,0,1-1.7,1.94l-.28.12a3.94,3.94,0,0,1-.89.25A2.77,2.77,0,0,1,32.3,50l-.09,0-.44-.1a3.85,3.85,0,0,1-1.17-.5c-.86-.59-1.09-1.6.28-3l.43-1.2s.29-.79.51-1.41a1.52,1.52,0,0,1,1.2-1,2.61,2.61,0,0,1,.7,0,5.92,5.92,0,0,0,1.54-1.49c.52-.73.67-1.34.37-1.68h0l-.86-1.35A4.39,4.39,0,0,1,33.1,39.5l-1.69,1a1.76,1.76,0,0,1,0,.3A1.61,1.61,0,0,1,31.07,42a5.86,5.86,0,0,1-1.33,1l-.64.37a3.68,3.68,0,0,1-.46,2.47,1.53,1.53,0,0,1-1.31.38,2.35,2.35,0,0,1-.79-.18l-.06.05a1.8,1.8,0,0,1-2.71-.22,1.46,1.46,0,0,1-.3.08,1.61,1.61,0,0,1-1.29-.41,1.14,1.14,0,0,1-.35-.52,1.26,1.26,0,0,1-.06-.24c-.31-1.05.72-2,2.11-2.22a3.5,3.5,0,0,0,.35-.31l1.35.33,6.79-5.87-.55-.6-.76.44.28-.47-.74.24c-6.1.93,1.39-8.16,2.78-10a28,28,0,0,1,2.08-2.93c.94-.78,2.62-1.14,3.71-1.7,2-1,3.81-3.26,6.18-3.16-7.18,3.86-8.26,9.19-8.26,9.19A45.06,45.06,0,0,1,44,21c-2.39,3.15-5.29,6.91-3.65,9a2.06,2.06,0,0,0,1,.33l0,.06a28.53,28.53,0,0,0-2,4.17c-.24.57,2.19,5.26,2.63,6.1l3,.08c.07.49-1.86.78-1.78,1.08L45.65,44c1.35.07,5.91.55,7.1,1.16a8,8,0,0,1,2.55,3.32l-.77,1.24.08,2.47,3.47.31c-.1-.63,1-2.47-.69-2.93-.23-.49.54,0,.31-.46s-.15-.73-.31-1.08c-.72-1.63-1.84-3.06-2.55-4.71a5.42,5.42,0,0,0,1.62-2.39l.46.62c1.12-2.12-2.57-2.42-4.48-2.78a5.62,5.62,0,0,1-1.93-.62c-6.18-2.16-10.35.08-6.95,1.62l-1.7.23c-.54-5.4,2.82-3.77,4.56-5.48.63-1.34-.09-2.85-.54-3.78-.77-1.62.39-4.4,3.24-7.1a8.54,8.54,0,0,0-1.85,4.09,9.47,9.47,0,0,1,3.17-3.47,8,8,0,0,0-.23,3.24c1.47-2.83,3.54-3.74,5.69-5.29a9.82,9.82,0,0,0-1,1.59l.39,3.55a7.38,7.38,0,0,0,3.13,2l-.73,1,.54,2.24a3.83,3.83,0,0,1,3.09-1.08,11.67,11.67,0,0,0-2.78,4.79,11.44,11.44,0,0,0,.32,2.79c-.11,1.81,0,3.41,1.46,4.7.68.6,1.29,1.12,1.88,1.6l-.41.21a2.35,2.35,0,0,0,.62.6c.39.29.86.55,1.27.84a2.5,2.5,0,0,1,.81,3.35,2.1,2.1,0,0,1-2.55,1.12C61,53,60.16,52.95,58.82,52.66c-1,1.65-5.06.78-4.86-1.57a3.43,3.43,0,0,1,.21-.9l-1.69,1A8.12,8.12,0,0,1,54.22,53c.51.81.81,1.89-.24,2.54a2.29,2.29,0,0,1-1.35.32,3.68,3.68,0,0,1-.45-.05l-.12,0a2,2,0,0,1-1.82.19,3.43,3.43,0,0,1-.59-.27l-.15-.08c-.08.19-.46.26-.83.3s-.78,0-1.16.07c-1.11.07-3.45-1-2.74-2.85a2.35,2.35,0,0,1,.15-.29l.14-.24a5.5,5.5,0,0,0,.85-2.23,4.74,4.74,0,0,0,0-1c0-.39-.12-.83-.21-1.37a1,1,0,0,1,0-.22s0-.09,0-.13a1.36,1.36,0,0,1,.87-1.5,6.23,6.23,0,0,1,.72-.2,2.6,2.6,0,0,0,.63-.23,4.25,4.25,0,0,0,.6-.53L48.7,45l-1-.19a10.66,10.66,0,0,1-1.59-.43C46,44.34,45.5,44.15,45,44c-.22-.08-.45-.14-.63-.19l-.2,0ZM31.82,36.08l.7-.41-.83.27Zm-.13-.14-.17-.19-.18.3ZM54.22,25.1A8.26,8.26,0,0,0,52.83,30a8.61,8.61,0,0,1,2.39-3.09Z" style="fill: #7d878c"/>
      <path d="M31.19,48.69l.2.2,0-.61c.3-.71,1.09-.66,1.49-.61a1,1,0,0,0-1.72,1m5.35-3.49c1.83,0,4.83-1.32,6.44-2.19l-1.22-.24a16.58,16.58,0,0,1-5.22,2.43m32.94,1.24c.61,1.67-1.44.68-1.44.68a.77.77,0,0,1,0-1.22c-.1-.44-.37-.54-.89-1a2.08,2.08,0,0,1,2.33,1.49M57.71,29.81c-4.24-1.67-5-5.52-.91-9.41l1.37-1a5.7,5.7,0,0,0,1,2.13c3.49,3.14,2.83,5.87,2,6.68.46-4.56-2.94-5.52-3.44-7.09a5.13,5.13,0,0,0-2.07,5.16c.66,2,2.18,1.87,3.87,3.13-.17-2.35-4.44-3.44-1.7-6.73.3,1.42,1.33,1.72,1.92,2.38l-.61.22s-.85,1.7,2.33,4v0a2.85,2.85,0,0,1-1.4.8,2.2,2.2,0,0,1-1.11-.2c-1.11.71-.86,2.68-.51,3.09-.76.15-1.89-1.68-.71-3.19M45.48,54.26l.26.26,0-.79c.4-.93,1.43-.86,2-.79a1.32,1.32,0,0,0-2.25,1.33m4.84-9c-1.77,2.12-2.89,1.72-3.24,2.42l-.17.28a7,7,0,0,1-.44,4.91s1.77-2.59,1.77-3.93,2.43-1.42,2.07-3.69m-6.11-1.49c-2.06,1.09-5,2.58-7.5,2.68l-.55.77.92.58.45.62a1.35,1.35,0,0,1-1.7,1.94l-.28.12a4,4,0,0,1-.89.25A2.77,2.77,0,0,1,32.3,50l-.09,0-.44-.1a3.86,3.86,0,0,1-1.17-.5c-.86-.59-1.09-1.6.28-3l.43-1.2s.29-.79.51-1.41a1.52,1.52,0,0,1,1.2-1,2.53,2.53,0,0,1,.7,0,5.94,5.94,0,0,0,1.54-1.49c.52-.73.67-1.34.37-1.68h0l-.86-1.35A4.4,4.4,0,0,1,33.1,39.5l-1.69,1a1.9,1.9,0,0,1,0,.3A1.62,1.62,0,0,1,31.07,42a5.92,5.92,0,0,1-1.33,1l-.64.37a3.68,3.68,0,0,1-.46,2.47,1.53,1.53,0,0,1-1.31.38,2.37,2.37,0,0,1-.79-.18l-.06,0a1.8,1.8,0,0,1-2.71-.22,1.45,1.45,0,0,1-.3.08,1.61,1.61,0,0,1-1.29-.41,1.14,1.14,0,0,1-.35-.52,1.33,1.33,0,0,1-.06-.24c-.31-1.05.72-2,2.1-2.23a6.72,6.72,0,0,0,.81-.77l.6-.66a3.57,3.57,0,0,1-1.71-2.64,3.4,3.4,0,0,1,.08-1.1,3.46,3.46,0,0,1,.1-.33l0-.1c.52-2.85,2.72-6.43,3.65-7.81a11.9,11.9,0,0,1,.94-1.21c.29-.34.59-.67.94-1.13l.33-.47c.51-.71,1.26-1.83,2-2.92a18.93,18.93,0,0,1,2.21-2.73,7.68,7.68,0,0,1,2.22-1.28c.38-.16.77-.32,1.14-.49a7,7,0,0,0,1-.58c.31-.22.61-.46.91-.7a9.08,9.08,0,0,1,1-.69,10.43,10.43,0,0,1,6.39-1.24c.56.06,1.15.21,1.71.21A9.9,9.9,0,0,0,51.39,14c1.33-1,2.62-2.12,3-2.46,2.12-1.73,5.29-1.6,7.6-.38,3.5,1.85,7,7.58,9,11.18.07-.18.14-.35.22-.52.17-.37.36-.72.54-1.07a5.2,5.2,0,0,0,.67-2.25l0-.51.44.26c.64.37,1.3.73,1.93,1.12,4.23,2.58,3.61,8.92-.65,10a4.32,4.32,0,0,1,.08.67c0,.32,0,.63,0,1a7.41,7.41,0,0,0,.07,1.7l2.12-.23a14.86,14.86,0,0,1-1.66,2.74c0,.08.25.6.27.67,3.32-3.34,6.38-9.68,6.38-9.68l0,.19A25.22,25.22,0,0,1,76.9,42.52c1.63,1.65.37,4.11-1.06,5.09A4.4,4.4,0,0,1,73.75,50a13.77,13.77,0,0,1-3.43-.5,6.25,6.25,0,0,1-4.05-1A2.32,2.32,0,0,1,66,48a20.36,20.36,0,0,1-3.11-1.7l-.11-.07,0-.13a8.32,8.32,0,0,0-.18-.83l-.79.41a2.33,2.33,0,0,0,.62.6c.4.29.86.55,1.27.84a2.5,2.5,0,0,1,.81,3.35,2.1,2.1,0,0,1-2.55,1.12C61,53,60.16,52.95,58.82,52.66c-1,1.65-5.06.78-4.86-1.57a3.39,3.39,0,0,1,.21-.9l-1.69,1A8.12,8.12,0,0,1,54.22,53c.5.81.81,1.88-.24,2.54a2.29,2.29,0,0,1-1.35.32,3.45,3.45,0,0,1-.45-.05l-.12,0a2,2,0,0,1-1.82.19,3.42,3.42,0,0,1-.59-.27l-.15-.09c-.08.19-.46.26-.83.3s-.78,0-1.16.07c-1.12.07-3.45-1-2.74-2.85a2.35,2.35,0,0,1,.15-.29l.14-.24a5.5,5.5,0,0,0,.85-2.23,4.74,4.74,0,0,0,0-1c0-.39-.12-.83-.21-1.37a1,1,0,0,1,0-.22s0-.09,0-.13a1.36,1.36,0,0,1,.87-1.5,6.28,6.28,0,0,1,.72-.2,2.55,2.55,0,0,0,.63-.23,4.18,4.18,0,0,0,.6-.53L48.7,45l-1-.19a10.72,10.72,0,0,1-1.59-.43C46,44.34,45.5,44.15,45,44c-.23-.08-.45-.14-.63-.19l-.2,0ZM26.48,37.55c2.28,1.42,5.57-2.89,7-9.72.24,1.26-.71,3.69,1.42,6.53-1.59-9,3.74-11,3.74-11-4.83,5.11-2.29,8.45-.4,9.82C36.27,31,37.64,27.68,39.94,26c-1.92,2.63-1.72,6,.1,5.26,1.32-2.38,2.83-2.6,3.77-4.43l.21-.44L44.2,26V26a5.69,5.69,0,0,1,3.34-2.71l-.8.85C43.87,27.42,45.07,28.46,42,31c-2.83,2.94,0,8.86,0,8.86.22-6.28,7.66-3.6,7.66-3.6,1.62-1.11-3.6-3.44-.4-9.41-.36,4.76,1.26,6.53,2.73,7.39-2-3.64-.28-7.06,1-9.31-.81,2.48-2,5,.88,10.06-.76-2.28-.63-4.79.64-6.11a7.9,7.9,0,0,0,2.31,8.27C55,34,55.43,32,56.09,30.11c-.3,3.9,1.06,5.36,2.41,5.3.78-3.17,2.72-3.84,3.31-4.08a7,7,0,0,0-2.39,3.74,9.41,9.41,0,0,0,.75,6.4,6.32,6.32,0,0,0,3.05,2.29c.34.72.48,1.41.62,1.67a15.88,15.88,0,0,0,2.47,1.26,1.73,1.73,0,0,0-1.92-1.39L64,43.4c2.23,0,2.6,2.9,3.27,4.07,2,1.48,3.07.61,3.07.61a6.87,6.87,0,0,0,3.1.48c2.28-.81,1.21-4.08,2.53-4.54-.31.81-.31,2,.3.91s-.19-1.24-.19-1.24l-.52-.12-1.41,1.31a3.73,3.73,0,0,1-5.73-2,2.92,2.92,0,0,1,.23-2.13c.91,5.52,8.76,0,10.71-7.59.24-.94.55-1.87.79-2.84-1.18,2.6-4.44,7.39-6.36,8.56a5.26,5.26,0,0,1-3.8.91,7.55,7.55,0,0,0,3.85-2.07c.05-.1-.08-.29.06-.68s.25-.58-.08-1.1c-3.39,3.18-7.31,2.31-7.57.32a2.55,2.55,0,0,1-.1-1l0,0v-.14l0,.18c1.28,3,5.43,1.64,8.36-1.65-2.38.36-5.53-1.27-7.53-.3,2-1.81,4.44-.15,5.71-.56a10.14,10.14,0,0,1,.15-2.63A6.09,6.09,0,0,0,69,24.64a9.58,9.58,0,0,0-3.14-.76,15.36,15.36,0,0,1-1.92-.4,5.8,5.8,0,0,0-2.73,0c.81-.86,2.13-1.21,5-.56-.21-.29-2.18-1.32-5.72-1.16.76-1.72,4.91.2,3.39-2,.05-.25-2.83-7-8.25-5.21.16-.12-2.4,1.18-3.09,1.62,1.26-1.12,3.41-3.18,5.11-3.54C63,11.48,68,20.35,70.31,24.14c.22,0-.06,0,.2,0C67.87,19.28,63.2,9.7,55.84,12.19c-1.62.91-3.49,3.31-5.41,4.43-2.8,1.65-4.46-.59-8.3.83a16.89,16.89,0,0,0-2.83,2c-.56.48-3.29,1.32-4.48,2.2,0,0-4.14,5.6-5.79,8.08-4.81,7.19-2.53,7.84-2.53,7.84m53.37-3.88C78.32,38.45,75.14,44,71.07,44.32l1.12.07c3.21-.24,6.38-5.37,7.66-10.71M46.12,40.23c.65.13,2.72.35,3.34.51,1.62.91,6.22,1.92,6.88-.1a1.72,1.72,0,0,1,.65.93A1.43,1.43,0,0,1,55.74,43,2.24,2.24,0,0,0,57,42.91a2.35,2.35,0,0,1-1.55,1.57,3,3,0,0,0,2.43-.4c1.1,3.2,2.89,3.29,3.59,4.4-.25,0-.44.47-.52.63a1.7,1.7,0,0,0-2.55,1,1.46,1.46,0,0,0-2.19.56c-.17-.8.26-1,.25-1.77a8.3,8.3,0,0,0-2-4.25c-1.47-1.57-6.54-1.3-10.11-2.79a8.63,8.63,0,0,0,2.43,1.41c.6.2,4.7.48,7.18,1.69.1.71,2.89,3.05,1.51,5.51,0,0-.45.66.46,1.22,1.82,1.12,2.43-.52,2.43-.52a1.9,1.9,0,0,0,2.77-1.78s1.62,2.16,2.24-.15a1.09,1.09,0,0,0-.86-1.44l-1.16-.57a35.14,35.14,0,0,1-2.63-4.39c-.24-.52-.47-.62-.51-1.11-.1-1.25.15-1.32-1-2.53a6.77,6.77,0,0,0-2.08-.86c-2.83-.71-2.84-.46-4.35-.86-3.69-1.43-6.05-.76-7.09,0-1.23.91-.54,2.13,2.43,2.73M72.9,27.07c.31-.14.73-.59.65-1-.5-2.52.78-2.35.81-4.4,1.88,2.85,1.35,4-.81,6.48,5.21-2.18,2.07-7,.76-7.44l-.91-.51c-.28,1.57-1.63,2.13-1.52,5.06a9.68,9.68,0,0,1,1,1.77M52.17,54.92l.54,0,0,0c1.37-.76-.47-2.33-1.18-2.81.7,1.13,1.32,2.3.6,2.86m-1.1-3.65.24-.94,3.77-2.19a5.13,5.13,0,0,1-.36-.5c-1.56,1.46-4.84,1.69-3.84,3.34l.19.3M36,36.25a13.31,13.31,0,0,0,3.3,2.56c0-.47-.06-.95-.08-1.42C38.07,37.07,36,36.25,36,36.25" style="fill: #006140"/>
      <path d="M73.4,34.36c-2.4,2.46-7.29,3.11-6.58.25l.3.38c1.43,1.44,4.91.25,6.28-.63" style="fill: #7d878c"/>
      <path d="M64.64,44l.12.8a2,2,0,0,1,1.34.76A2.28,2.28,0,0,0,64.64,44" style="fill: #fff"/>
      <path d="M64.34,42.8a4.34,4.34,0,0,1,2.63,2,3.37,3.37,0,0,0-2.75-2.41Z" style="fill: #7d878c"/>
      <path d="M63.23,43.79a6.7,6.7,0,0,1-3.12-2.33,9.4,9.4,0,0,1-.75-6.39,7.33,7.33,0,0,1,2.41-3.73l-.72,1c-1.42,2.55-1.52,4.22-.9,7.08A7.71,7.71,0,0,0,60.57,41a9.93,9.93,0,0,0,2.65,2.68Z" style="fill: #7d878c"/>
      <path d="M64.94,38l1,.66a3.21,3.21,0,0,1-2.41.54,1.29,1.29,0,0,1-.8-.86c1,.63,2,.27,2.18-.33" style="fill: #7d878c"/>
      <path d="M63.83,34.75H64c1.28.82.43,2.48,2,3.94a2.89,2.89,0,0,1-1.06-.64,1.18,1.18,0,0,1-1.9-.89l-.15-.4-.26-.22a1.59,1.59,0,0,1,1.89.78c-.19-.66-.31-2.24-1.36-1.66l-.59.5a2,2,0,0,1,1.31-1.42" style="fill: #006140"/>
      <path d="M63,38.61c.71.86,2.51.31,3,.08-.86,1-2.9,1.25-3.22-.3Z" style="fill: #006140"/>
      <path d="M66.22,38.44l-.39.39a3.26,3.26,0,0,1-.95-2.28,3,3,0,0,0-.14-1.62c.74.35,1.54,2.16,1.48,3.51" style="fill: #7d878c"/>
      <path d="M62.29,36.43s-1.12-2.07,2-3.23c-3.44.18-2.81,3-2,3.23" style="fill: #006140"/>
      <path d="M63.46,37.42a.49.49,0,0,0,.5.47.44.44,0,0,0,.34-.37l-.1-.05a.28.28,0,0,1-.21.16.31.31,0,0,1-.33-.28.35.35,0,0,1,0-.21L63.54,37a.6.6,0,0,0-.08.4" style="fill: #fff"/>
    </g>
    <g id="RHIN_S-gold">
      <path d="M82.5,64.64l.07-.23.23-.68.3-.85L83,62.81a10.14,10.14,0,0,0-1.18-1l-1,2.78Zm3.27-13.58-.08.24-.25.71-.32.91.11.12a8.22,8.22,0,0,0,1.13.94l1.07-2.92Zm1.73,3.69a13.47,13.47,0,0,1,3.78,3.16c.81,1.33.5,3.18-.14,4.92L89.6,67a8.69,8.69,0,0,1-2.84,4.09,9.13,9.13,0,0,1-5.29,1.3H76.66c-2,0-3.89-.32-4.69-1.56s-.54-3.07.07-4.74L73.94,61h6.38a13,13,0,0,1-3.42-3c-.81-1.33-.5-3.18.14-4.92l1.61-4.37a8.68,8.68,0,0,1,2.84-4.09,9.12,9.12,0,0,1,5.29-1.3h4.45c2,0,3.89.33,4.69,1.56s.54,3.07-.07,4.74l-1.9,5.17Z" style="fill: #c9992b"/>
      <path d="M31.58,54l-2.36,6.62H30.3L32.66,54h6.21L32.43,72.12H26.22l2.36-6.63H27.5l-2.36,6.63H18.93L25.37,54Zm8.84,0h6.21L40.19,72.12H34Zm13.34,0,.38,6.2L56.35,54h5.93L55.83,72.12H50l-.46-6-2.14,6H41.51L48,54Z" style="fill: #c9992b"/>
      <path d="M8.23,72.12H0L10.72,43H21.5c2,0,3.89.32,4.69,1.56s.54,3.08-.07,4.74l-2.35,6.4a7.2,7.2,0,0,1-2.86,3.6,4.28,4.28,0,0,1,.25,4L17.9,72.12H9.67L13,62.92H11.61Zm6.25-17h1.44l1.61-4.37H16.09Z" style="fill: #c9992b"/>
    </g>
    <g id="RHIN_S-green">
      <path d="M78.12,56.58q-.68-1.11.24-3.59L80,48.62a7.19,7.19,0,0,1,2.34-3.41A8.17,8.17,0,0,1,87,44.12h4.45q3.19,0,3.88,1.09t-.17,3.41l-1.57,4.28H88.06l1.1-3c.17-.47,0-.7-.42-.7H86.11a.93.93,0,0,0-.92.7l-.93,2.53q-.33.88,2.7,2.84a13.64,13.64,0,0,1,3.73,3q.67,1.11-.24,3.59l-1.55,4.2a7.19,7.19,0,0,1-2.34,3.41,8.15,8.15,0,0,1-4.68,1.09H77.07q-3.19,0-3.88-1.09t.17-3.41l1.57-4.28h5.7l-1.1,3q-.26.7.42.7h2.63a.93.93,0,0,0,.92-.7l.94-2.54q.26-.7-2.69-2.64a13.91,13.91,0,0,1-3.63-3" style="fill: #006140"/>
      <path d="M27.12,64.34,24.76,71H20.32l5.85-16.4h4.44l-2.36,6.62H31.1l2.36-6.62H37.9L32,71H27.61L30,64.34Zm14.1-9.77h4.44L39.81,71H35.37Zm9.1,7.26L47.06,71H42.9l5.85-16.4h4.43l.58,9.49,3.38-9.49H61.3L55.45,71H51Z" style="fill: #006140"/>
      <path d="M11.25,61.07l-3.38,9.2H2l9.73-26.45h10q3.19,0,3.88,1.09t-.17,3.41l-2.35,6.4a5.93,5.93,0,0,1-3.26,3.41c-.4.15-.62.28-.68.41s.1.24.39.39q1.78,1.11.93,3.41l-2.92,7.95H11.65l3.13-8.5q.26-.7-.42-.7Zm4.47-12.17L13.13,56h3.11a.94.94,0,0,0,.94-.7l2.08-5.66q.26-.7-.42-.7Z" style="fill: #006140"/>
    </g>
    <g id="ROCHESTER">
      <path d="M23.75,17.32l.93.72.45-.58c.06-.09.07-.15,0-.2l-.74-.58c-.06,0-.12,0-.19.05Zm1.6,1.25,1.21.94-.85,1.09-3.48-2.71L23.68,16a2,2,0,0,1,.76-.68.66.66,0,0,1,.61.15l.84.66a.61.61,0,0,1,.16.72Q26,17,26,17s.06,0,.13-.06q.46-.29.76-.06l1,.82-.85,1.09L26,17.94c-.06,0-.12,0-.19.05Z" style="fill: #fff"/>
      <path d="M31.29,13.23q.07.09.19,0l.45-.36c.08-.07.1-.13.05-.19l-1.55-1.94c0-.06-.11-.06-.2,0l-.45.36c-.08.06-.1.13,0,.19ZM28.52,12a.65.65,0,0,1-.15-.6,2,2,0,0,1,.68-.77l.89-.71a2,2,0,0,1,.9-.49.66.66,0,0,1,.55.29L33.2,12a.66.66,0,0,1,.16.6,2,2,0,0,1-.68.77l-.89.71a2,2,0,0,1-.9.49.65.65,0,0,1-.55-.29Z" style="fill: #fff"/>
      <path d="M39.18,6.47,38,7l-.3-.65c0-.07-.1-.08-.19,0L37,6.58c-.09,0-.12.1-.09.17l1,2.25c0,.07.1.08.19,0l.52-.24q.15-.07.1-.17L38.45,8l1.18-.55.39.84a.66.66,0,0,1,0,.62,2,2,0,0,1-.84.59l-.95.44a1.94,1.94,0,0,1-1,.26.66.66,0,0,1-.47-.41L35.55,7.14a.66.66,0,0,1,0-.62,1.94,1.94,0,0,1,.84-.59l.95-.44a2,2,0,0,1,1-.26.66.66,0,0,1,.47.41Z" style="fill: #fff"/>
      <polygon points="45.19 5.66 45.54 7.41 44.18 7.68 43.31 3.36 44.67 3.08 45.02 4.83 45.89 4.65 45.54 2.9 46.9 2.63 47.77 6.96 46.41 7.23 46.06 5.48 45.19 5.66" style="fill: #fff"/>
      <polygon points="55 2.33 54.98 3.17 53.25 3.13 53.23 4.06 54.71 4.1 54.69 4.95 53.21 4.91 53.18 5.84 54.91 5.89 54.88 6.74 51.77 6.66 51.79 5.81 51.8 5.81 51.89 2.25 55 2.33" style="fill: #fff"/>
      <path d="M59.59,5.07a.69.69,0,0,1-.1-.64l.18-.71a.66.66,0,0,1,.39-.49,2,2,0,0,1,1,.08l1,.26A2,2,0,0,1,63,4a.65.65,0,0,1,.11.61L63,5.29,61.7,5l.12-.48c0-.08,0-.13-.13-.15l-.6-.15c-.1,0-.16,0-.18.07l-.1.41q0,.14.74.67a6.14,6.14,0,0,1,1,.77.69.69,0,0,1,.1.64l-.17.68a.65.65,0,0,1-.39.49,2,2,0,0,1-1-.07l-1.1-.28A2,2,0,0,1,59,7.14a.66.66,0,0,1-.11-.61l.18-.69,1.3.33-.12.48q0,.11.13.15L61,7c.1,0,.16,0,.18-.07l.11-.41q0-.11-.73-.64a6.13,6.13,0,0,1-1-.76" style="fill: #fff"/>
      <polygon points="69.52 7.44 67.9 10.61 66.66 9.98 68.29 6.81 67.28 6.29 67.66 5.53 70.92 7.2 70.53 7.96 69.52 7.44" style="fill: #fff"/>
      <polygon points="76.92 11.57 76.38 12.23 75.04 11.14 74.45 11.86 75.6 12.8 75.07 13.46 73.92 12.52 73.33 13.25 74.67 14.33 74.13 14.99 71.72 13.03 72.25 12.37 72.25 12.37 74.5 9.61 76.92 11.57" style="fill: #fff"/>
      <path d="M80.52,16.65l-.93.72.45.58c.07.08.13.1.19.05l.75-.58c.06,0,.06-.11,0-.2Zm-1.6,1.25-1.21.94-.85-1.09L80.33,15l1.45,1.86a2,2,0,0,1,.48.91.65.65,0,0,1-.29.55l-.84.66a.62.62,0,0,1-.74,0c-.07,0-.11-.07-.13-.06s0,.06,0,.14q.17.52-.13.76l-1,.82-.85-1.09,1.12-.87c.06,0,.06-.11,0-.2Z" style="fill: #fff"/>
    </g>
  </g>
</svg>
