<?xml version="1.0" encoding="utf-8"?>
<!-- Generator: Adobe Illustrator 15.0.0, SVG Export Plug-In . SVG Version: 6.00 Build 0)  -->
<!DOCTYPE svg PUBLIC "-//W3C//DTD SVG 1.1//EN" "http://www.w3.org/Graphics/SVG/1.1/DTD/svg11.dtd">
<svg version="1.1" id="Layer_1" xmlns="http://www.w3.org/2000/svg" xmlns:xlink="http://www.w3.org/1999/xlink" x="0px" y="0px"
	 width="591.395px" height="500px" viewBox="0 0 591.395 500" enable-background="new 0 0 591.395 500" xml:space="preserve">
<path fill="#007054" d="M574.819,423.437c-1.596-1.218-3.181-2.062-4.48-2.753l-1.494-0.815l-1.106-0.553
	c-11.315-4.48-21.427-8.175-30.856-11.258c1.896-8.622,1.005-15.831-2.626-21.396c-2.78-4.399-6.514-8.561-11.162-12.406
	l1.771,0.374c1.535,0.317,2.877,0.581,4.467,1.411c1.923,0.981,4.164,1.133,6.182,0.373c2.026-0.719,3.651-2.281,4.481-4.26
	l6.701-15.974c1.376-3.305,0.297-7.136-2.606-9.251c-1.079-0.79-11.119-7.718-29.113-8.659c-1.086-0.042-2.179-0.083-3.265-0.083
	c-11.41,0-22.377,3.014-30.862,8.464c-1.06,0.681-2.08,1.386-3.061,2.117H475.3c-0.004-1.675-0.544-3.327-1.581-4.689
	c-1.466-1.909-3.733-3.029-6.133-3.029h-8.568c12.872-26.001,20.137-55.41,20.137-86.536c0-48.979-17.996-93.711-47.533-127.586
	h7.911c4.266,0,7.737-3.461,7.737-7.724V80.266l8.139-10.434l-7.551-5.069c-0.809-0.542-1.674-1.006-2.595-1.391
	c-1.326-1.46-3.198-2.408-5.296-2.525l-22.163-14.955l-1.494,1.918c-2.254-3.35-6.057-6.31-11.52-8.979
	c-5.822-2.831-10.815-4.211-15.242-4.211c-0.746,0-1.492,0.041-2.267,0.121l-1.673,0.28l1.646-5.103l-5.802-1.487l2.593-8.094
	l-32.819-8.377l-3.484,10.94c-1.937-1.089-4.094-2.095-6.452-2.981c-3.063-1.189-6.314-1.988-9.646-2.378
	c-7.04-0.823-12.945,0.338-17.578,3.44c-0.955,0.636-1.825,1.324-2.642,2.088c-0.485-0.677-1.017-1.314-1.598-1.901
	c-3.768-3.983-9.909-5.767-18.753-5.477c-7.71,0.241-13.446,1.666-17.609,4.432c-2.75,1.871-4.751,4.256-5.944,7.053
	c-1.59-2.607-3.9-4.56-6.818-5.757c-3.751-1.514-7.845-1.742-12.022-0.629c-2.869,0.757-5.473,1.85-7.741,3.222l-3.406-12.548
	l-32.438,8.617l4.498,16.582c-2.081,0.024-4.187,0.146-6.217,0.391c-3.378,0.377-6.614,1.29-9.601,2.7
	c-6.432,3.008-10.384,6.676-12.081,11.151l-0.128,0.338l-3.31-4.305L159.252,60.04c-2.506,0.75-4.979,1.96-7.372,3.603
	c-4.903,3.378-8.046,7.315-9.342,11.714c-1.014,3.405-1.317,8.643,2.98,14.217l3.579,4.661c-0.782-0.214-1.573-0.355-2.351-0.459
	l-1.501-0.114l-0.072-0.169c-1.265-2.974-3.845-5.702-8.122-8.589c-5.629-3.79-11.196-5.296-16.414-4.484
	c-5.283,0.778-10.338,4.187-15.02,10.182l-29.444,37.736l19.918,13.426l3.675-4.717l32.397,21.826
	c-15.87,28.152-24.966,60.824-24.966,95.641c0,30.362,6.922,59.088,19.211,84.614h-10.92v4.086
	c-4.158-1.446-9.271-2.164-15.403-2.164H31.794c-3.444,0-6.466,2.268-7.431,5.574l-5.09,17.509
	c-0.681,2.351-0.221,4.869,1.238,6.805c1.418,1.88,3.589,3.028,5.933,3.098L6.539,443.974c-0.664,2.337-0.19,4.841,1.269,6.791
	c1.459,1.937,3.745,3.07,6.162,3.07h38.669c3.468,0,6.514-2.309,7.434-5.656l1.154-4.122c0.398,0.733,0.83,1.438,1.324,2.102
	c3.807,5.121,9.182,8.388,15.075,9.25l-3.001,0.736l-0.695,0.193l-45.695,15.85l-0.353,0.11c-1.521,0.623-3.067,1.203-4.616,1.784
	c-6.68,2.56-13.588,5.173-20.216,10.221c-3.132,2.379-3.973,6.749-1.957,10.11c2.013,3.374,6.241,4.688,9.831,3.07
	c11.195-5.063,24.04-7.897,39.271-8.713c1.203-0.055,2.378-0.416,3.43-1.01c8.412-4.799,17.975-6.721,28.124-8.754
	c2.635,0.305,5.404,0.457,8.263,0.457c9.765,0,19.297-1.756,28.532-3.43c1.622-0.305,3.218-0.595,4.826-0.886
	c9.433-0.151,18.553-1.604,27.384-3.015c9.042-1.438,17.589-2.821,26.236-2.821c1.735,0,3.447,0.055,5.096,0.166l1.829-0.083
	c3.928-0.665,7.845-1.232,11.732-1.702c-0.53,1.909-0.318,3.983,0.674,5.809c1.535,2.793,4.644,4.342,7.804,3.927
	c5.408-0.732,10.939-0.939,16.796-1.175c2.32-0.096,4.679-0.18,7.081-0.304c4.982,0.512,9.899,0.829,14.644,1.12
	c9.453,0.608,18.387,1.163,27.197,3.195c0.913,0.222,1.871,0.263,2.811,0.124c19.649-2.738,41.19-4.121,64.017-4.121
	c20.344,0,41.967,1.092,64.269,3.277l1.625,0.664c0.685,0.277,1.404,0.457,2.129,0.553c24.48,2.545,48.351,7.219,70.977,13.886
	l2.767,2.724c0.664,0.65,1.424,1.162,2.253,1.549c1.591,0.719,3.251,1.08,4.931,1.08h0.006c4.668-0.014,7.801-2.683,9.889-4.467
	l0.056-0.027c1.313,0.567,2.668,0.857,4.065,0.857c4.835,0,7.662-3.292,9.211-5.422l1.467,0.068c4.039,0,7.496-1.617,10.346-3.208
	c1.022-0.581,1.908-1.397,2.585-2.351c9.39-13.609,21.811-22.102,32.708-28.629c2.089-1.258,3.471-3.416,3.728-5.836l0.354-3.457
	c0.11-1.108-0.015-2.241-0.366-3.292c-0.817-2.393-1.979-4.177-3.314-5.519l1.108-1.397c0.518-0.829,0.801-1.175,2.496-1.175
	c1.445,0,3.25,0.332,5.124,0.678c1.48,0.249,2.987,0.525,4.537,0.664l0.857,0.041c4.239-0.027,7.676-3.471,7.676-7.717
	C578.152,427.156,576.824,424.833,574.819,423.437z"/>
<path fill="#FFFFFF" d="M393.146,68.68c1.741,0,3.277-0.362,4.632-1.085c1.798-1.02,3.361-2.69,4.688-4.979
	c0.926-1.625,1.501-3.136,1.729-4.571c0.311-1.943-0.471-3.52-2.144-4.329c-1.058-0.515-2.269-0.594-3.417-0.249
	c-1.106,0.335-1.978,1.014-2.6,2.061l-7.302,12.668l2.366,0.35C391.804,68.628,392.495,68.68,393.146,68.68z M398.822,57.143
	l0.741-0.588l0.511-0.075l0.567,0.128c0.276,0.142,0.483,0.238,0.38,0.926c-0.173,1.034-0.622,2.216-1.349,3.485
	c-1.023,1.771-2.199,3.05-3.458,3.759c-0.622,0.333-1.34,0.547-2.157,0.64L398.822,57.143z"/>
<path fill="#FFFFFF" d="M374.087,84.111c-0.244-0.111-0.493-0.218-0.732-0.335c-5.11-2.493-7.58-5.303-7.358-8.363l0.167-2.399
	l-2.283,0.756c-1.148,0.384-2.378,0.785-3.706,1.21c-3.437,1.086-7.219,1.121-11.272,0.086c-6.617-1.701-6.763-5.147-6.791-6.275
	l-0.097-2.23l-2.074,0.778c-2.254,0.836-4.425,1.504-6.458,1.963c-3.749,0.872-7.953,1.055-12.517,0.508
	c-3.215-0.367-5.809-0.885-7.703-1.514c-1.66-0.56-3.652-1.535-5.933-2.938l0.553-3.285l-2.788,1.324
	c-1.722,0.813-3.603,1.636-5.567,2.435c-4.563,1.815-9.079,2.791-13.442,2.924c-5.933,0.184-9.691-1.161-11.061-4.042l-1.068-2.261
	l-0.979,1.158c1.453,2.094,2.639,4.41,3.582,6.792c2.429,1.171,5.636,1.708,9.626,1.582c4.727-0.148,9.616-1.217,14.532-3.15
	c1.258-0.518,2.462-1.033,3.623-1.552l0.36,0.236c2.918,1.859,5.394,3.115,7.538,3.831c2.129,0.723,4.868,1.258,8.352,1.677
	c4.923,0.581,9.508,0.376,13.623-0.581c1.604-0.366,3.277-0.864,4.993-1.445c0.761,2.755,3.056,5.688,8.907,7.18
	c4.632,1.19,9.017,1.148,13.034-0.134l1.777-0.574c0.681,3.403,3.533,6.405,8.475,8.923c0.447-0.377,0.89-0.756,1.331-1.132
	C373.185,84.875,373.636,84.492,374.087,84.111z"/>
<path fill="#FFFFFF" d="M122.564,106.662c-3.966-2.676-7.485-2.33-9.937,0.806l-2.299,2.97l13.069,8.807l2.168-2.797
	c1.338-1.697,1.573-3.602,0.688-5.473C125.545,109.29,124.307,107.837,122.564,106.662z M123.038,114.473l-0.332,0.425l-7.72-5.21
	l0.194-0.235c0.961-1.231,1.826-1.366,2.386-1.366c0.891,0,1.959,0.411,3.194,1.238c1.238,0.837,2.067,1.784,2.562,2.953
	C123.698,113.106,123.619,113.735,123.038,114.473z"/>
<path fill="#FFFFFF" d="M180.869,75.108c-1.217,0.162-2.292,0.228-3.222,0.183c-0.537-0.097-1.089-0.495-1.643-1.218l-3.129-4.062
	l-0.622-0.114c-1.466-0.249-2.749-0.014-3.79,0.708c-0.649,0.432-1.424,1.293-1.527,2.945c-0.053,1.097,0.266,2.103,0.961,3.015
	L182.124,95.1c0.898,1.176,2.178,1.874,3.682,2.029l0.211,0.007c1.394,0,2.755-0.453,4.035-1.338
	c1.276-0.885,2.12-1.988,2.544-3.305c0.516-1.56,0.26-3.068-0.722-4.34l-10.093-13.151L180.869,75.108z M189.543,91.5
	c-0.214,0.639-0.653,1.189-1.324,1.653c-0.709,0.494-1.432,0.747-2.175,0.757l-1.373-0.782l-14.21-18.521l-0.308-0.878l0.121-0.453
	l0.858-0.249l2.316,3.011c1.103,1.435,2.4,2.272,3.845,2.461l0.135,0.007c0.872,0.042,1.833,0.008,2.918-0.089l8.982,11.704
	L189.543,91.5z"/>
<path fill="#FFFFFF" d="M247.019,74.445l-0.006-1.446c-0.021-2.243-0.041-4.727,0.281-7.11L241.66,45.1l0.339-0.639l0.612-0.305
	l0.272-0.048l0.025,0.006l0.332,0.906l4.769,17.606c0.486-1.485,1.201-2.852,2.25-3.998l-3.911-14.435
	c-0.37-1.404-0.913-2.302-1.663-2.776c-0.533-0.384-1.581-0.716-2.904-0.37c-0.864,0.235-1.566,0.622-2.116,1.204
	c-0.491,0.525-0.871,1.247-1.22,2.24l-0.156,0.473l8.094,29.881l-16.887,4.484l-1.093-4.024l-1.974,2.714
	c-1.12,1.521-2.061,2.762-2.974,3.852c-2.243,2.655-4.872,4.695-7.817,6.088c-2.431,1.127-4.688,1.708-6.749,1.708l-1.615-0.121
	c-2.303-0.454-3.987-1.757-5.121-4.021l-11.866-23.345l-1.175,3.793l-0.48,1.255l-2.842,5.034l11.16,14.536
	c1.927,2.5,2.161,5.021,0.764,7.911c-1.549,3.167-4.67,6.372-9.283,9.56c-5.083,3.513-9.277,5.446-12.413,5.763
	c-2.067,0.17-3.872-0.376-5.521-1.669l-2.691-2.133l0.084,3.426c0.041,1.795-0.122,3.748-0.46,5.823
	c-0.519,3.198-1.684,6.006-3.485,8.326c-1.853,2.372-3.935,3.703-6.366,4.059c-2.406,0.346-5.096-0.459-8.021-2.43l-8.406-5.664
	c-1.842-1.261-3.384-1.898-4.625-1.96c-1.542-0.181-3.084,0.691-4.602,2.655l-2.313,2.959l21.73,14.656l-12.277,15.736
	l-41.021-27.661l-3.682,4.73l-6.531-4.395l24.14-30.938c3.358-4.308,6.677-6.714,9.899-7.167c3.174-0.508,6.763,0.56,10.681,3.201
	c3.554,2.386,4.799,4.063,5.218,5.069c0.608,1.397,0.764,2.973,0.48,4.858l-0.56,3.675l3.066-2.108
	c1.615-1.114,3.23-1.539,4.973-1.317c1.854,0.231,3.758,1.012,5.664,2.292l5.871,3.952c0.978,0.667,1.947,0.999,2.867,0.999
	c0.864,0,2.126-0.297,3.229-1.729c0.533-0.67,0.917-1.435,1.176-2.413c0.155-0.737,0.256-1.58,0.304-2.586l-1.002-0.041l0.84-0.913
	l-12.765-16.655c-1.822-2.352-2.358-4.647-1.649-7.026c0.757-2.577,2.845-5.062,6.196-7.358c1.86-1.286,3.745-2.185,5.608-2.655
	c2.462-0.401,4.218-0.719,5.366-0.969l2.458-0.539l-1.815-2.378l8.45-5.819l4.319,5.629c0.954,1.224,2.019,1.493,2.738,1.493
	c0.702,0,1.425-0.242,2.141-0.729c0.83-0.573,1.466-1.331,1.939-2.371l0.263-0.682l1.548-0.872c-0.939-2.427-1.04-4.602-0.252-6.61
	c0.913-2.417,3.597-4.689,7.967-6.729c2.202-1.054,4.588-1.722,7.094-1.995c2.286-0.277,4.602-0.37,6.874-0.329l2.195,4.342
	l-1.373,0.097c-0.765,0.087-1.594,0.335-2.521,0.789c-1.276,0.595-2.119,1.479-2.514,2.617c-0.491,1.418-0.242,3.074,0.771,5.073
	l7.924,15.59c1.394,2.756,3.205,3.336,4.48,3.336c0.702,0,1.418-0.177,2.147-0.515c1.279-0.602,2.549-1.622,3.792-3.102l1.276-1.628
	l-12.357-45.547l16.883-4.484l4.907,18.114l1.981-2.648c1.511-2.009,3.222-3.696,5.114-5.042c1.898-1.387,4.214-2.444,6.884-3.163
	c2.469-0.654,4.792-0.54,6.925,0.325c1.988,0.819,3.278,2.364,3.907,4.737l5.992,22.107c0.304,1.075,0.595,1.819,0.94,2.344
	c0.349,0.48,1.359,1.299,3.322,0.778l1.615-0.736l0.885-0.757l-0.073-23.487c-0.007-3.054,1.21-5.383,3.71-7.081
	c2.77-1.843,7.257-2.863,13.349-3.046c6.32-0.218,10.601,0.785,12.662,2.973c2.087,2.133,3.14,5.352,3.146,9.553
	c0.007,3.188-0.573,5.885-1.756,8.042c-1.1,2.039-3.181,3.931-6.203,5.615l-7.454,4.214l0.013,2.811
	c0.014,2.006,0.926,3.06,1.673,3.582c0.954,0.688,2.344,1.007,4.467,0.944c2.219-0.066,4.557-0.609,6.943-1.643
	c0.94-0.411,1.937-0.878,2.98-1.39l0.747-0.373l0.118-0.688l0.546,0.353l0.831-0.426l0.338-0.175v1.324l1.833,0.972
	c2.219,1.075,4.059,1.69,5.621,1.877l1.135,0.069c2.752,0,4.55-1.425,4.951-3.914c0.236-1.452-0.359-3.564-6.445-9.031
	c-3.706-3.375-5.131-7.306-4.363-12.001c0.643-3.886,2.413-6.756,5.428-8.751c3.001-2.012,7.108-2.735,12.185-2.154
	c2.654,0.319,5.241,0.951,7.675,1.899c2.123,0.798,4.011,1.684,5.642,2.641l-1.078,6.583c-1.397-0.94-2.406-1.604-3.07-2.002
	c-1.038-0.736-2.254-1.189-3.624-1.359l-0.801-0.044c-2.158,0-3.637,1.199-3.956,3.194c-0.235,1.431,0.664,3.35,5.878,8.554
	c3.484,3.351,4.854,6.825,4.232,10.628c-0.153,1.021-0.347,1.843-0.574,2.438l-0.062,0.183c-0.111,0.536-0.429,1.31-0.899,2.299
	l-1.424,2.991l4.908-1.106l13.016-40.779l17.184,4.381l-2.58,8.086l5.795,1.48l-2.296,7.167l-5.794-1.473l-7.241,22.654
	c-0.394,1.251-0.339,2.328,0.159,3.226c0.463,0.844,1.287,1.431,2.42,1.715c0.997,0.256,2.034,0.332,3.472,0.169l1.217-0.191
	l12.378-21.44c1.604-2.769,3.886-4.307,6.95-4.681c3.368-0.384,7.724,0.75,13.021,3.326c5.525,2.7,8.644,5.504,9.293,8.343
	c0.67,2.853-0.083,6.217-2.254,9.954c-1.646,2.863-3.568,5.013-5.726,6.418c-2.02,1.337-4.799,2.074-8.271,2.188l-8.519,0.347
	l-1.412,2.445c-0.453,0.777-0.647,1.474-0.702,2.085c1.188-0.447,2.433-0.768,3.749-0.94l0.259-0.44l6.742-0.277
	c2.552-0.089,4.813-0.487,6.764-1.165l-4.301,5.503c0.563,0.786,0.992,1.654,1.237,2.619c0.049,0.317,0.063,0.625,0.082,0.933
	l21.321-27.303l13.816,9.318l-3.617,4.647l9.765-0.574c1.535,0.162,2.835,0.581,3.858,1.279l0.387,0.256l-8.892,11.399
	c-0.899-0.854-1.937-1.67-3.098-2.441c-2.033-1.372-4.288-1.722-6.548-1.027c-2.144,0.664-4.101,2.174-6.003,4.603l-5.926,7.583
	l-7.136,9.871c-1.937-0.367-2.241-0.581-4.094-1.874c-0.458-0.315-0.996-0.695-1.66-1.141l-0.72-0.481
	c-1.487-0.999-3.396-2.283-4.884-3.547c-0.255,0.548-0.496,1.093-0.702,1.643c-0.278,0.441-0.56,0.852-0.839,1.276
	c1.435,1.158,3.081,2.261,4.642,3.304l0.698,0.467c0.65,0.445,1.183,0.812,1.626,1.117c2.392,1.673,2.891,1.963,6.375,2.586
	l0.997,0.177l8.271-11.476l5.892-7.524c1.452-1.867,2.946-3.043,4.425-3.495c1.334-0.418,2.544-0.235,3.79,0.608
	c1.563,1.034,2.821,2.137,3.775,3.271l1.287,1.539l13.395-17.181l-3.257-2.195c-1.494-1.006-3.333-1.623-5.463-1.825l-0.125-0.007
	l-2.918,0.176l1.369-1.756l-19.183-12.938l-5.02,6.438c0.304-1.798,0.263-3.533-0.125-5.163c-0.871-3.886-4.467-7.315-11.009-10.507
	c-5.076-2.473-9.501-3.724-13.125-3.724l-1.687,0.09c-4.093,0.498-7.246,2.607-9.363,6.258l-11.59,20.092
	c-0.698,0.049-1.342,0.007-1.895-0.135l-0.401-0.155l0.103-0.674l6.314-19.777l5.794,1.486l4.259-13.318l-5.795-1.488l2.573-8.08
	l-23.415-5.985L344.27,49.608c-0.831-2.42-2.372-4.729-4.619-6.908c-4.108-4.107-4.813-5.512-4.938-5.871l0.747-0.363l0.428,0.027
	c0.857,0.107,1.563,0.363,2.171,0.809l0.11,0.063c0.886,0.546,2.587,1.681,5.063,3.378l2.089,1.438l2.241-13.708l-0.893-0.581
	c-2.012-1.283-4.405-2.452-7.129-3.482c-2.676-1.037-5.525-1.729-8.45-2.078c-5.863-0.67-10.684,0.228-14.355,2.673
	c-3.292,2.185-5.456,5.293-6.459,9.238c-0.332-4.107-1.66-7.385-3.962-9.757c-2.753-2.911-7.697-4.211-15.11-3.979
	c-6.773,0.211-11.679,1.4-15.022,3.613c-3.406,2.313-5.148,5.602-5.148,9.75l0.079,21.838l-0.106,0.021l-0.049,0.021l-0.27-0.858
	l-5.999-22.108c-0.906-3.36-2.853-5.677-5.806-6.887c-2.783-1.12-5.815-1.276-8.965-0.449c-3.068,0.823-5.736,2.061-7.932,3.648
	c-1.345,0.958-2.604,2.061-3.772,3.315l-4.087-15.04l-23.089,6.124l12.765,47.133l-0.242,0.296c-0.906,1.069-1.805,1.813-2.67,2.224
	l-0.771,0.211c-0.677,0-1.245-0.862-1.614-1.57l-7.925-15.6c-0.771-1.5-0.705-2.251-0.595-2.555
	c0.039-0.107,0.149-0.439,0.844-0.768c0.743-0.353,1.203-0.459,1.466-0.494c0.397-0.036,1.352-0.107,3.689-0.211l2.486-0.122
	l-5.291-10.452l-0.94-0.042c-2.756-0.121-5.56-0.014-8.33,0.319c-2.846,0.304-5.574,1.074-8.095,2.265
	c-5.231,2.451-8.374,5.234-9.615,8.499c-0.716,1.86-0.899,3.852-0.56,5.926l-0.17,0.318c-0.245,0.5-0.508,1.096-0.778,1.829
	l-0.792,0.961l-0.276,0.155l-0.235-0.231l-6.174-8.053l-13.765,9.488l0.75,0.986c-0.785,0.142-1.698,0.29-2.718,0.446l-0.148,0.027
	c-2.248,0.581-4.512,1.628-6.714,3.15c-3.974,2.741-6.473,5.795-7.455,9.101c-1.006,3.384-0.27,6.721,2.186,9.899l12.236,15.963
	l-0.176,1.522l-0.595,1.196l-0.688,0.473l-1.068-0.453l-5.864-3.958c-2.321-1.556-4.707-2.5-7.064-2.804
	c-1.559-0.191-3.087-0.028-4.553,0.484c-0.08-1.311-0.363-2.544-0.858-3.661c-0.871-2.047-2.952-4.167-6.372-6.474
	c-3.817-2.579-7.479-3.875-10.877-3.875c-0.716,0-1.432,0.058-2.088,0.166c-4.028,0.556-8.052,3.375-11.953,8.36l-26.264,33.656
	l11.887,8.012l3.675-4.716l41.021,27.643l16.268-20.825l-21.741-14.65l0.193-0.249c1.096-1.411,1.663-1.438,1.798-1.424
	c0.401,0.021,1.337,0.235,3.081,1.424l8.412,5.657c3.61,2.445,7.082,3.43,10.287,2.945c3.243-0.474,6.092-2.244,8.442-5.251
	c2.137-2.763,3.524-6.061,4.112-9.795c0.207-1.224,0.355-2.427,0.432-3.583c1.332,0.575,2.756,0.865,4.25,0.865l1.027-0.041
	c3.775-0.377,8.336-2.445,13.958-6.31c5.068-3.506,8.54-7.133,10.338-10.805c0.954-1.964,1.345-3.917,1.155-5.809
	c1.359,1.225,3.008,2.034,4.94,2.407c3.153,0.512,6.622-0.111,10.311-1.847c3.357-1.587,6.352-3.907,8.914-6.932l1.113-1.373
	l0.183,0.692l19.71-5.22C247.054,76.885,247.093,75.694,247.019,74.445z M189.645,71.985l1.061-1.884l4.893,9.63L189.645,71.985z
	 M309.874,41.255c0.553,3.569,2.366,6.777,5.42,9.582c5.152,4.608,5.422,6.016,5.436,6.103c-0.111,0.664-0.318,1.216-1.77,1.216
	l-0.747-0.041c-1.19-0.142-2.738-0.681-4.55-1.56l-0.069-0.041l-0.014-4.708l-2.365,1.269l-1.812,0.948l-0.954-0.699l-2.13-1.58
	l-0.684,4.163c-0.741,0.363-1.459,0.688-2.124,0.986c-1.984,0.847-3.927,1.306-5.752,1.372l-0.388,0.007
	c-1.535,0-2.005-0.291-2.102-0.345c-0.076-0.072-0.318-0.242-0.318-0.992l-0.014-0.913l5.809-3.278
	c3.568-1.992,6.071-4.315,7.455-6.891C308.955,44.478,309.5,42.938,309.874,41.255z"/>
<path fill="#FFFFFF" d="M299.321,43.789c1.086-1.714,1.631-3.903,1.618-6.479c0-1.818-0.284-3.412-0.824-4.764
	c-0.698-1.743-2.074-2.708-3.878-2.708l-0.139,0.007c-1.183,0.038-2.289,0.498-3.167,1.361c-0.85,0.819-1.279,1.874-1.265,3.036
	l0.035,14.162l2.129-0.737C296.348,46.805,298.173,45.519,299.321,43.789z M295.179,33.521l1.002-0.453l0.056-1.605v1.605
	l0.892,0.674c0.38,0.968,0.588,2.175,0.588,3.576c0.014,1.96-0.367,3.554-1.1,4.73c-0.401,0.587-0.975,1.134-1.701,1.586
	l-0.02-9.418L295.179,33.521z"/>
<path fill="#FFFFFF" d="M435.23,388.307c-0.759-1.756-0.864-3.554-0.297-5.489l3.215-11.051c0.505-1.715,0.65-3.195,0.471-4.494
	c-0.291-2.227-2.366-3.348-6.183-3.348c-3.375,0-7.904,1.756-10.359,10.138l-14.189,48.806c-1.133,3.914-0.975,7.053,0.491,9.308
	c1.529,2.336,4.108,3.526,7.649,3.526c3.367,0,6.452-1.065,9.134-3.14c2.835-2.087,4.785-4.938,5.843-8.519l9.287-31.976
	l-1.874-0.678C437.015,390.879,435.964,389.855,435.23,388.307z M426.918,422.855c-0.788,2.696-2.199,4.757-4.328,6.307
	c-1.978,1.548-4.136,2.308-6.562,2.308c-3.03,0-3.818-1.23-4.088-1.617c-0.725-1.148-0.712-3.154,0.042-5.809l14.189-48.794
	c2.075-7.08,5.235-7.08,6.265-7.08c1.065,0,1.674,0.097,1.992,0.194c0,0.608-0.125,1.355-0.379,2.227l-3.202,11.036
	c-0.858,2.919-0.692,5.726,0.512,8.437c0.92,1.95,2.185,3.444,3.796,4.44L426.918,422.855z"/>
<path fill="#FFFFFF" d="M514.672,344.95c-0.969-0.057-1.958-0.084-2.946-0.084c-10.374,0-20.255,2.697-27.868,7.58
	c-7.842,5.02-13.333,11.825-16.334,20.233l-0.318,0.111c-1.217,0.429-2.247,0.636-3.07,0.636l-0.581-0.013
	c0.042-0.374,0.167-0.954,0.401-1.826l6.396-23.857h-30.364l-0.456,2.78l-1.204-0.76c-1.694-1.092-3.443-2.227-5.263-2.711
	c-2.876-0.747-6.438-1.106-10.87-1.106c-9.854,0-18.228,2.365-24.888,7.013c-6.569,4.591-11.258,11.547-13.913,20.676
	l-14.176,50.452c-3.582,12.295,1.688,18.395,6.791,21.34c6.749,3.79,16.057,5.713,27.64,5.713c11.251,0,20.87-2.02,28.56-5.976
	c8.056-4.079,13.491-10.773,16.161-19.888l9.542-32.889c1.688-0.746,3.43-1.604,5.27-2.558c0.664-0.374,1.369-0.761,2.082-1.175
	c0.353,2.296,1.113,4.287,2.288,5.974c2.863,3.997,7.027,8.188,12.759,12.821c4.674,3.721,6.894,6.983,6.244,9.211
	c-0.47,1.632-1.397,2.876-2.834,3.803c-1.494,0.982-3.333,1.453-5.643,1.453c-3.194,0-5.808-0.36-7.662-1.01
	c-1.189-0.54-4.828-2.116-12.793-5.739l-2.24-1.023l-7.925,27.315l1.743,0.732c4.232,1.757,8.52,3.113,12.779,4.053
	c4.328,0.927,8.948,1.397,13.733,1.397c12.061,0,23.484-3.264,33.968-9.681c10.622-6.597,17.675-15.628,20.953-26.9
	c2.482-8.533,2.089-15.379-1.121-20.316c-2.932-4.647-7.109-9.002-12.392-12.945c-6.411-4.827-5.988-6.625-5.976-6.639
	c0.277-0.954,0.774-1.604,1.584-2.061c1.073-0.608,2.4-0.926,3.963-0.926c2.261,0,4.28,0.4,6.017,1.189
	c0.995,0.443,2.087,0.65,3.25,0.885c1.702,0.333,3.644,0.748,5.933,1.909l2.047,1.037l8.229-19.625l-1.362-0.996
	C540.423,352.279,531.351,345.807,514.672,344.95z M531.752,367.409c-1.916-0.747-3.568-1.078-4.965-1.369
	c-0.969-0.193-1.813-0.345-2.366-0.581c-2.241-1.037-4.854-1.549-7.73-1.549c-2.31,0-4.343,0.484-6.044,1.466
	c-1.784,0.981-3,2.531-3.609,4.578c-0.913,3.181,1.41,6.652,7.538,11.229c4.854,3.651,8.686,7.621,11.34,11.839
	c2.531,3.872,2.746,9.543,0.609,16.832c-2.959,10.206-9.391,18.435-19.079,24.438c-9.785,6.029-20.476,9.072-31.734,9.072
	c-4.481,0-8.795-0.442-12.833-1.314c-3.417-0.747-6.86-1.783-10.27-3.111l5.498-18.892c6.445,2.919,9.55,4.274,10.746,4.786
	c2.463,0.898,5.491,1.34,9.225,1.34c3.133,0,5.808-0.733,7.966-2.171c2.282-1.465,3.831-3.554,4.612-6.182
	c1.196-4.163-1.321-8.658-7.69-13.705c-5.311-4.315-9.342-8.34-11.942-11.964c-1.204-1.742-1.784-4.122-1.729-7.067l0.076-3.858
	l-3.297,1.992c-1.826,1.091-3.444,2.032-4.91,2.849c-2.033,1.051-3.997,2.005-5.872,2.793l-0.912,0.415l-10.11,34.796
	c-2.337,8.05-6.922,13.706-14.003,17.274c-7.095,3.651-16.043,5.518-26.616,5.518c-10.85,0-19.445-1.743-25.538-5.159
	c-5.524-3.208-7.095-8.574-4.799-16.458l14.176-50.453c2.378-8.173,6.5-14.328,12.261-18.353c5.932-4.148,13.477-6.265,22.446-6.265
	c4.004,0,7.295,0.332,9.792,0.996c1.162,0.305,2.558,1.218,4.039,2.144c1.349,0.885,2.752,1.798,4.281,2.434l2.503,1.08l0.789-4.84
	H464.8l-4.938,18.449c-0.636,2.227-0.76,3.734-0.387,4.882l0.055,0.152c0.608,1.481,2.164,2.227,4.605,2.227
	c1.314,0,2.781-0.291,4.454-0.871l1.432-0.54l0.912-0.374l0.304-0.954c2.6-7.883,7.62-14.259,14.923-18.92
	c6.832-4.398,16.146-6.901,25.565-6.901c0.913,0,1.826,0.014,2.737,0.056c11.715,0.623,19.418,4.246,22.419,5.933L531.752,367.409z"
	/>
<path fill="#FFFFFF" d="M378.776,349.485c-3.057,0-5.304,0.401-7.316,1.329c-2.849,1.078-5.478,1.618-8.063,1.618h-0.094
	l-7.547,27.287l-10.888-21.004c-1.36,0.473-2.726,0.932-4.093,1.351l16.183,31.256l10.899-39.347h13.262l-26.644,93.203h-13.843
	c0.013-0.886-0.097-1.799-0.291-2.767c-0.387-2.061-1.147-4.093-2.247-5.947l-25.73-45.848l-15.844,54.561h-13.3l4.204-14.813
	l-4.218,1.978c-8.385,3.901-15.507,6.999-21.236,9.488l-2.635,1.134c-5.884,2.573-11.579,3.9-16.925,3.9
	c-5.068,0-8.709-3.056-10.804-5.546c-1.238-1.59-1.806-3.637-1.729-6.25l0.093-3.375l-3.081,1.356
	c-4.979,2.199-10.224,4.329-14.843,6.181c-3.368,1.37-6.556,2.642-9.056,3.734c-5.884,2.573-11.562,3.9-16.917,3.9
	c-5.076,0-8.717-3.056-10.798-5.546c-2.068-2.642-2.3-6.735-0.724-12.156l8.569-29.473h-16.05l-12.699,45.363h-34.213l4.177-14.674
	l-5.063,3.79c-2.544,1.908-8.391,3.9-13.553,5.67c-3.167,1.092-6.161,2.102-8.506,3.125c-5.871,2.573-11.399,3.9-16.44,3.9
	c-5.404,0-8.769-3.457-10.29-5.504c-1.885-2.545-2.02-6.639-0.419-12.198l4.667-16.002c1.01-3.513,1.197-5.974,0.571-7.759
	c-1.047-3.43-5.705-3.43-7.243-3.43h-5.007l-12.029,43.082H16.794l22.723-79.801h-9.986l3.852-13.262h66.703
	c9.122,0,14.992,1.728,17.499,5.213c2.593,3.333,2.804,8.81,0.653,16.223c-1.631,5.602-3.585,9.64-5.822,12.019
	c-2.13,2.268-5.014,4.246-8.575,5.836l-4.979,2.24l5.176,1.73c2.662,0.885,4.163,2.323,4.75,4.55
	c0.653,2.531,0.456,5.656-0.595,9.308l-3.25,11.174c-0.657,2.268-0.488,4.094,0.497,5.394c0.92,1.231,2.407,1.854,4.42,1.854
	c1.825,0,15.216-5.491,16.202-5.96l0.885-0.388l15.916-55.929h-9.311l3.869-13.262h43.541l-9.836,33.842h16.04l9.819-33.842h34.23
	l-19.86,68.292c-0.639,2.199-0.75,3.708-0.384,4.868l0.066,0.181c1.421,3.374,3.496,3.873,4.608,3.873
	c1.291,0,2.663-0.236,4.063-0.707l0.135-0.055c0.384-0.165,1.784-0.677,3.555-1.327c2.635-0.969,5.905-2.199,8.139-3.07l0.968-0.374
	l16.973-58.419h-9.311l3.859-13.262h43.534l-19.846,68.279c-0.653,2.212-0.782,3.721-0.405,4.881l0.07,0.208
	c0.639,1.438,2.174,2.171,4.591,2.171c1.308,0,2.69-0.249,4.204-0.747c0.454-0.18,2.912-0.761,4.872-1.217
	c2.528-0.608,5.411-1.3,7.237-1.813l1.138-0.332l16.555-58.17h-10.297l3.858-13.277h11.718c-0.758-1.434-1.559-2.867-2.412-4.26
	h-12.501l-6.334,21.798h10.325l-14.356,50.465c-1.694,0.429-3.904,0.954-5.916,1.438c-3.51,0.83-4.893,1.176-5.366,1.355
	c-0.961,0.332-1.877,0.498-2.725,0.498l-0.574-0.027c0.048-0.374,0.149-0.941,0.394-1.771l21.448-73.743h-13.75
	c-2.651,0.737-5.356,1.121-8.058,1.121c-2.64,0-5.255-0.389-7.804-1.121h-22.816l-6.321,21.796h9.311l-14.801,50.951
	c-2.123,0.802-4.88,1.825-7.082,2.642c-1.749,0.636-3.149,1.161-3.629,1.355c-0.899,0.304-1.75,0.456-2.535,0.484
	c-0.1-0.097-0.391-0.388-0.722-1.12c-0.008-0.181-0.024-0.831,0.415-2.366l21.45-73.743h-43.102l-9.836,33.856h-7.15l9.833-33.856
	h-52.42l-6.345,21.796h9.346l-13.831,48.572c-3.547,1.507-12.149,4.827-13.671,5.158c-0.647,0-0.857-0.165-0.865-0.125
	c-0.02-0.041-0.169-0.469,0.177-1.659l3.257-11.188c1.269-4.385,1.479-8.271,0.623-11.548c-0.582-2.282-1.785-4.107-3.583-5.504
	c2.414-1.425,4.499-3.058,6.189-4.883c2.742-2.891,4.958-7.371,6.818-13.719c2.552-8.838,2.082-15.559-1.331-19.97
	c-3.364-4.676-10.211-6.93-20.919-6.93H30.192l-6.331,21.796h10.013l-22.723,79.787h43.102l12.029-43.082h1.777
	c2.5,0,3.16,0.512,3.174,0.443l0.049,0.111c0.114,0.317,0.397,1.589-0.644,5.186l-4.654,16.016
	c-2.04,6.97-1.684,12.184,1.079,15.918c2.002,2.683,6.441,7.22,13.709,7.22c5.636,0,11.738-1.439,18.148-4.261
	c2.179-0.94,5.083-1.95,8.184-2.987c3.492-1.188,7.06-2.42,10.013-3.721l-2.6,9.156h43.088l12.689-45.349h7.147l-6.98,24.023
	c-1.978,6.803-1.49,12.156,1.494,16.014c2.738,3.237,7.399,7.124,14.117,7.124c5.95,0,12.222-1.439,18.626-4.261
	c2.448-1.065,5.601-2.337,8.934-3.692c3.797-1.522,8.008-3.223,12.181-5.007c0.353,2.212,1.169,4.149,2.486,5.835
	c2.738,3.237,7.413,7.124,14.11,7.124c5.944,0,12.209-1.439,18.633-4.261l2.618-1.133c4.774-2.062,10.493-4.551,17.128-7.58
	l-3.212,11.3h22.139l13.927-47.894l20.752,37.023c0.872,1.48,1.466,3.016,1.771,4.633c0.277,1.383,0.277,2.531,0,3.499l-0.789,2.739
	h22.323l28.471-99.661c-1.046-0.03-2.096-0.078-3.12-0.138C381.64,349.569,380.187,349.485,378.776,349.485z"/>
<path fill="#FFFFFF" d="M73.024,365.252h-4.979l-6.994,24.065h6.223c3.194,0,5.985-1.314,8.263-3.832
	c2.23-2.351,3.825-5.145,4.738-8.284c1.196-4.094,1.005-7.095-0.575-9.211C78.349,366.179,76.098,365.252,73.024,365.252z
	 M76.188,376.012c-0.725,2.475-1.987,4.688-3.786,6.569c-1.487,1.674-3.167,2.462-5.127,2.462h-0.553l4.519-15.518h1.785
	c1.141,0,2.635,0.167,3.264,1.023C76.99,371.475,76.949,373.412,76.188,376.012z"/>
<path d="M571.333,428.29c-1.244-0.968-2.523-1.673-3.789-2.338l-1.757-0.954l-0.249-0.125c-11.107-4.403-21.03-8.029-30.267-11.056
	c-0.381,1.125-0.81,2.222-1.261,3.304c8.149,2.667,16.833,5.805,26.411,9.536c-4.716-0.125-8.285,1.577-10.711,5.172
	c-1.058,0.346-2.635,0.138-4.294-0.125c-1.064-0.193-2.171-0.359-3.278-0.359c-3.043,0-5.145,1.465-6.444,4.633
	c-0.568,1.715-0.291,3.665,0.719,5.075c0.706,0.983,1.68,1.605,2.725,1.744c1.77,0.968,3.789,1.12,5.586,1.244
	c3.126,0.207,4.841,0.443,5.824,2.905l-0.229,2.171c-10.877,6.583-24.431,15.96-34.645,30.579c-1.709,0.941-3.617,1.813-5.359,1.813
	c-0.795,0-1.507-0.167-2.157-0.568l-0.913-0.249c-2.808,0-4.385,2.255-5.65,4.053c-0.616,0.899-1.459,2.115-1.958,2.115
	c-0.117,0-0.553-0.068-1.438-0.857l-0.54-0.332c-0.72-0.276-1.459-0.43-2.185-0.43c-2.518,0-4.426,1.633-6.113,3.07
	c-1.327,1.121-2.566,2.2-3.741,2.2l-0.781-0.153l-3.887-3.831l-0.72-0.428c-23.664-7.095-48.654-12.075-74.303-14.757l-2.455-1.023
	l-0.483-0.125c-23.007-2.282-45.321-3.431-66.33-3.431c-23.138,0-45.004,1.412-65.009,4.178c-9.447-2.144-18.665-2.725-28.408-3.347
	c-4.851-0.318-9.857-0.622-14.871-1.147l-0.284-0.015c-2.563,0.139-5.069,0.235-7.548,0.332c-3.022,0.139-5.947,0.236-8.845,0.429
	c0.83-0.165,1.702-0.29,2.601-0.442c2.766-0.415,5.629-0.844,8.277-2.255c1.697-0.593,3.561-0.87,5.515-1.148
	c2.769-0.414,5.622-0.829,8.243-2.212c0.594-0.318,0.946-0.94,0.926-1.604c-0.014-0.678-0.408-1.272-1.02-1.549l-1.704-0.789
	l-0.623-0.166c-4.107-0.262-8.343-0.401-12.606-0.401c-12.526,0-25.576,1.134-38.776,3.374c-1.798-0.125-3.668-0.18-5.542-0.18
	c-9.412,0-18.729,1.479-27.737,2.933c-8.696,1.383-17.668,2.821-26.62,2.904l-0.291,0.028c-1.826,0.319-3.668,0.65-5.521,0.982
	c-8.811,1.618-17.924,3.305-26.817,3.305c-2.946,0-5.649-0.166-8.291-0.54h-0.595l-1.068,0.221
	c-10.369,2.062-21.074,4.205-30.776,9.655c-6.749,0.373-13.073,1.133-19.041,2.281l1.109-0.443l45.605-15.808l40.534-11.506h-0.153
	c-1.987,0-3.878-0.775-5.3-2.12l-36.146,10.266l-45.779,15.862c-1.566,0.637-3.15,1.231-4.723,1.826
	c-6.279,2.379-12.783,4.855-18.723,9.377c-0.715,0.553-0.906,1.535-0.452,2.309c0.473,0.774,1.438,1.065,2.251,0.692
	c11.891-5.366,25.437-8.395,41.418-9.239l0.778-0.234c9.297-5.311,19.396-7.33,30.08-9.459l0.782-0.152
	c2.71,0.359,5.493,0.539,8.488,0.539c9.221,0,18.498-1.701,27.454-3.347c1.797-0.332,3.585-0.664,5.355-0.982
	c9.156-0.083,18.231-1.536,26.989-2.933c8.883-1.41,18.06-2.891,27.188-2.891c1.867,0,3.723,0.056,5.501,0.181l0.425-0.028
	c14.48-2.447,28.743-3.582,42.379-3.306c-1.352,0.236-2.712,0.526-4.035,1.01l-0.257,0.11c-2.122,1.189-4.608,1.563-7.229,1.95
	c-4.048,0.609-8.623,1.314-12.029,5.38l-0.201,1.963c0.356,0.65,1.068,1.01,1.777,0.9c5.694-0.761,11.365-0.982,17.357-1.217
	c2.441-0.097,4.934-0.194,7.465-0.333c5.034,0.526,10.034,0.845,14.881,1.163c9.709,0.608,18.878,1.188,28.155,3.332l0.64,0.028
	c19.93-2.78,41.747-4.19,64.843-4.19c20.814,0,42.915,1.133,65.728,3.402l2.441,0.996l0.491,0.137
	c25.365,2.628,50.072,7.525,73.48,14.522l3.831,3.775l0.504,0.346c0.816,0.36,1.653,0.567,2.483,0.567
	c2.469,0,4.364-1.619,6.023-3.043c1.576-1.341,2.988-2.544,4.482-2.129c1.202,1.023,2.364,1.522,3.511,1.522
	c2.338,0,3.673-1.922,4.862-3.611c0.919-1.327,1.639-2.281,2.406-2.49c1.044,0.499,2.191,0.761,3.409,0.761
	c2.669,0,5.256-1.258,7.427-2.462l0.601-0.539c10.096-14.605,23.768-23.899,34.548-30.358l0.856-1.313l0.354-3.471l-0.076-0.748
	c-1.757-5.145-5.969-5.436-9.053-5.643c-1.674-0.125-3.235-0.207-4.37-0.927l-0.927-0.276l-0.386-0.306
	c-0.277-0.401-0.52-1.119-0.304-1.798c0.829-1.963,1.783-2.336,3.152-2.336c0.817,0,1.743,0.152,2.697,0.304
	c1.121,0.194,2.254,0.373,3.43,0.373c1.299,0,2.406-0.221,3.408-0.719l0.713-0.649c1.715-2.78,4.053-4.012,7.572-4.012
	c1.985,0,4.128,0.388,6.195,0.761c1.418,0.262,2.746,0.499,4.061,0.623l0.172,0.013h0.035c0.968,0,1.756-0.802,1.756-1.756
	C572.177,429.162,571.839,428.609,571.333,428.29z"/>
<path fill="#FEE011" d="M512.625,441.623c-11.39,6.998-23.803,10.538-36.914,10.538c-5.117,0-10.137-0.525-14.895-1.548
	c-4.522-0.969-9.127-2.434-13.733-4.329c-1.604-0.65-2.877-1.798-3.7-3.195c-2.524,2.337-5.4,4.343-8.665,5.975
	c-8.457,4.357-18.934,6.583-31.07,6.583c-12.744,0-22.695-2.116-30.385-6.431c-2.514-1.458-5.611-3.833-7.852-7.475l-1.892,6.618
	c-0.94,3.319-3.983,5.601-7.433,5.601h-17.876c-2.434,0-4.729-1.147-6.196-3.098c-1.438-1.936-1.909-4.453-1.238-6.776l-0.111-0.83
	l-0.021-0.153c-0.179-0.927-0.532-1.854-1.085-2.793l-14.28-25.434l-9.736,33.51c-0.967,3.292-3.99,5.573-7.426,5.573h-17.731
	c-2.423,0-4.702-1.134-6.161-3.07c-0.898-1.203-1.431-2.6-1.539-4.051c-2.364,1.023-4.557,1.978-6.576,2.848l-2.838,1.245
	c-7.088,3.112-14.128,4.716-20.87,4.716c-6.904,0-13.439-3.236-18.398-9.1l-0.204-0.277l-1.21-1.77
	c-2.344,0.982-4.647,1.909-6.812,2.78c-3.323,1.341-6.466,2.613-8.844,3.651c-7.088,3.112-14.114,4.716-20.87,4.716
	c-6.926,0-13.454-3.236-18.401-9.113l-0.194-0.249c-0.975-1.245-1.77-2.615-2.372-4.066l-1.663,5.96
	c-0.934,3.347-3.973,5.656-7.451,5.656h-38.502l-40.534,11.506l-45.605,15.808l-1.109,0.443c5.968-1.148,12.292-1.908,19.041-2.281
	c9.702-5.45,20.407-7.593,30.776-9.655l1.068-0.221h0.595c2.642,0.374,5.345,0.54,8.291,0.54c8.893,0,18.007-1.687,26.817-3.305
	c1.853-0.332,3.695-0.663,5.521-0.982l0.291-0.028c8.951-0.083,17.924-1.521,26.62-2.904c9.007-1.453,18.325-2.933,27.737-2.933
	c1.874,0,3.745,0.055,5.542,0.18c13.201-2.24,26.25-3.374,38.776-3.374c4.263,0,8.499,0.139,12.606,0.401l0.623,0.166l1.704,0.789
	c0.612,0.276,1.006,0.871,1.02,1.549c0.02,0.664-0.332,1.286-0.926,1.604c-2.621,1.383-5.474,1.798-8.243,2.212
	c-1.954,0.278-3.817,0.555-5.515,1.148c-2.648,1.411-5.512,1.84-8.277,2.255c-0.899,0.152-1.771,0.277-2.601,0.442
	c2.898-0.193,5.823-0.29,8.845-0.429c2.479-0.096,4.985-0.193,7.548-0.332l0.284,0.015c5.013,0.525,10.02,0.829,14.871,1.147
	c9.743,0.623,18.961,1.204,28.408,3.347c20.005-2.766,41.871-4.178,65.009-4.178c21.008,0,43.323,1.148,66.33,3.431l0.483,0.125
	l2.455,1.023c25.648,2.683,50.639,7.662,74.303,14.757l0.72,0.428l3.887,3.831l0.781,0.153c1.175,0,2.414-1.079,3.741-2.2
	c1.687-1.438,3.596-3.07,6.113-3.07c0.725,0,1.465,0.154,2.185,0.43l0.54,0.332c0.885,0.79,1.32,0.857,1.438,0.857
	c0.499,0,1.342-1.216,1.958-2.115c1.265-1.798,2.842-4.053,5.65-4.053l0.913,0.249c0.649,0.401,1.362,0.568,2.157,0.568
	c1.743,0,3.65-0.872,5.359-1.813c10.213-14.618,23.767-23.995,34.645-30.579l0.229-2.171c-0.983-2.461-2.697-2.698-5.824-2.905
	c-1.797-0.125-3.816-0.276-5.586-1.244c-1.045-0.138-2.02-0.761-2.725-1.744c-1.009-1.41-1.287-3.36-0.719-5.075
	c1.3-3.168,3.401-4.633,6.444-4.633c1.106,0,2.213,0.166,3.278,0.359c1.66,0.262,3.236,0.471,4.294,0.125
	c2.426-3.596,5.995-5.297,10.711-5.172c-9.577-3.731-18.262-6.869-26.411-9.536C529.823,427.168,522.655,435.401,512.625,441.623z"
	/>
<path d="M511.726,349.14c-9.419,0-18.733,2.503-25.565,6.901c-7.303,4.661-12.323,11.037-14.923,18.92l-0.304,0.954l-0.912,0.374
	l-1.432,0.54c-1.673,0.581-3.139,0.871-4.454,0.871c-2.441,0-3.997-0.746-4.605-2.227l-0.055-0.152
	c-0.373-1.147-0.249-2.655,0.387-4.882l4.938-18.449h-21.201l-0.789,4.84l-2.503-1.08c-1.529-0.636-2.932-1.549-4.281-2.434
	c-1.48-0.926-2.877-1.839-4.039-2.144c-2.496-0.664-5.788-0.996-9.792-0.996c-8.969,0-16.514,2.116-22.446,6.265
	c-5.761,4.025-9.883,10.18-12.261,18.353l-14.176,50.453c-2.296,7.883-0.726,13.249,4.799,16.458
	c6.092,3.416,14.688,5.159,25.538,5.159c10.573,0,19.521-1.867,26.616-5.518c7.081-3.568,11.666-9.224,14.003-17.274l10.11-34.796
	l0.912-0.415c1.875-0.789,3.838-1.743,5.872-2.793c1.466-0.816,3.084-1.757,4.91-2.849l3.297-1.992l-0.076,3.858
	c-0.055,2.946,0.525,5.326,1.729,7.067c2.6,3.625,6.631,7.649,11.942,11.964c6.369,5.047,8.886,9.542,7.69,13.705
	c-0.781,2.627-2.33,4.716-4.612,6.182c-2.158,1.438-4.833,2.171-7.966,2.171c-3.734,0-6.762-0.442-9.225-1.34
	c-1.196-0.512-4.301-1.867-10.746-4.786l-5.498,18.892c3.409,1.328,6.853,2.365,10.27,3.111c4.039,0.872,8.352,1.314,12.833,1.314
	c11.258,0,21.949-3.042,31.734-9.072c9.688-6.003,16.119-14.232,19.079-24.438c2.137-7.289,1.922-12.96-0.609-16.832
	c-2.654-4.218-6.486-8.188-11.34-11.839c-6.128-4.577-8.451-8.049-7.538-11.229c0.609-2.047,1.826-3.597,3.609-4.578
	c1.702-0.982,3.734-1.466,6.044-1.466c2.876,0,5.49,0.512,7.73,1.549c0.553,0.235,1.397,0.388,2.366,0.581
	c1.396,0.291,3.049,0.623,4.965,1.369l5.13-12.281c-3.001-1.687-10.704-5.31-22.419-5.933
	C513.552,349.154,512.639,349.14,511.726,349.14z M431.006,424.044c-1.058,3.581-3.008,6.432-5.843,8.519
	c-2.683,2.074-5.768,3.14-9.134,3.14c-3.542,0-6.12-1.19-7.649-3.526c-1.465-2.255-1.624-5.394-0.491-9.308l14.189-48.806
	c2.455-8.382,6.984-10.138,10.359-10.138c3.817,0,5.892,1.121,6.183,3.348c0.179,1.299,0.035,2.779-0.471,4.494l-3.215,11.051
	c-0.567,1.935-0.462,3.733,0.297,5.489c0.734,1.549,1.785,2.572,3.189,3.084l1.874,0.678L431.006,424.044z"/>
<path d="M552.469,80.045c0.332-0.283,0.782-0.335,1.452-0.376c0.712-0.042,1.507-0.09,2.234-0.688
	c1.134-1.096,1.791-2.469,2.032-4.149c0.326-1.338,1.459-2.089,2.663-2.881c1.369-0.912,2.793-1.849,3.015-3.733l0.007-0.09
	l-0.02-0.101c-0.347-1.5-1.46-2.046-2.428-2.513l-0.872-0.48c3.934-5.114,10.503-7.832,16.306-10.255
	c1.12-0.46,2.206-0.913,3.284-1.379l0.582-0.823l-0.968-1.204l-0.125-0.041c-4.018-0.736-8.782-1.494-13.463-1.494
	c-4.572,0-8.527,0.709-12.095,2.151l-0.346-2.818l-0.546,0.093c-2.774,0.467-5.207,2.272-7.573,4.014
	c-0.913,0.675-1.785,1.324-2.642,1.871c-2.669-13.242-5.491-26.931-12.522-39.896c-0.837-1.251-1.626-2.507-2.414-3.752
	c-2.538-3.973-4.924-7.738-7.966-11.081L519.692,0l-1.058,1.061l0.062,0.291c1.41,5.255,2.067,9.674,2.067,13.923
	c-0.09,2.952-0.117,5.954-0.159,8.858c-0.06,6.023-0.122,12.163-0.718,18.369c-0.981-1.122-2.189-2.006-3.541-2.63
	c-3.416-0.245-6.23-2.195-9.1-3.637c-5.837-3.627-10.664,1.59-16.002,2.42l-0.097,0.453c3.374,2.77,8.976,2.289,11.888,5.708
	c1.233,2.16,2.891,4.476,1.602,6.94c-1.201-0.279-2.451-0.426-3.719-0.426l-0.477,0.021l-1.217,0.142
	c-2.123,0-3.431-1.486-4.806-3.067c-1.335-1.535-2.719-3.115-4.931-3.461c-2.158-1.29-4.44-1.898-7.164-1.898
	c-1.591,0-3.174,0.204-4.703,0.391c-2.46,0.318-5.061,0.578-7.363,0.156l-0.437-0.021l-1.272,0.429l-0.338,0.898v0.37l0.338,0.128
	c5.961,2.216,13.139,6.472,13.457,14.317l0.234,1.757c0.146,0.913,0.278,1.833,0.291,2.69
	c-23.026,3.704-47.645,20.089-59.982,39.959c-8.706,12.778-13.473,29.539-14.927,46.112c-9.858-11.494-21.313-21.495-34.004-29.633
	c2.418-2.799,4.456-5.76,6.044-8.599c5.436-3.787,10.013-8.751,14.412-15.731c0.206-0.55,0.446-1.095,0.702-1.643
	c1.489,1.264,3.397,2.548,4.884,3.547l0.72,0.481c0.664,0.446,1.202,0.826,1.66,1.141c1.854,1.293,2.157,1.507,4.094,1.874
	l7.136-9.871l5.926-7.583c1.902-2.428,3.859-3.939,6.003-4.603c2.261-0.695,4.515-0.345,6.548,1.027
	c1.161,0.771,2.199,1.587,3.098,2.441l8.892-11.399l-0.387-0.256c-1.023-0.698-2.323-1.117-3.858-1.279l-9.765,0.574l3.617-4.647
	l-13.816-9.318L398.206,84.08c-0.019-0.308-0.033-0.616-0.082-0.933c-0.789-3.094-3.264-5.324-7.094-6.317
	c-2.731-0.232-5.137,0.185-7.355,1.018c0.054-0.611,0.249-1.308,0.702-2.085l1.412-2.445l8.519-0.347
	c3.472-0.114,6.25-0.85,8.271-2.188c2.158-1.405,4.08-3.555,5.726-6.418c2.171-3.737,2.924-7.102,2.254-9.954
	c-0.649-2.838-3.768-5.643-9.293-8.343c-5.297-2.576-9.653-3.71-13.021-3.326c-3.064,0.374-5.346,1.912-6.95,4.681l-12.378,21.44
	l-1.217,0.191c-1.438,0.163-2.475,0.086-3.472-0.169c-1.133-0.284-1.957-0.872-2.42-1.715c-0.498-0.898-0.553-1.975-0.159-3.226
	l7.241-22.654l5.794,1.473l2.296-7.167l-5.795-1.48l2.58-8.086l-17.184-4.381l-13.016,40.779l-4.908,1.106l1.424-2.991
	c0.47-0.989,0.788-1.763,0.899-2.299l0.062-0.183c0.228-0.595,0.421-1.417,0.574-2.438c0.623-3.803-0.748-7.278-4.232-10.628
	c-5.214-5.204-6.113-7.123-5.878-8.554c0.319-1.996,1.798-3.194,3.956-3.194l0.801,0.044c1.37,0.169,2.586,0.623,3.624,1.359
	c0.664,0.398,1.673,1.062,3.07,2.002l1.078-6.583c-1.631-0.958-3.519-1.843-5.642-2.641c-2.434-0.948-5.021-1.58-7.675-1.899
	c-5.077-0.58-9.184,0.142-12.185,2.154c-3.015,1.995-4.786,4.865-5.428,8.751c-0.769,4.695,0.657,8.626,4.363,12.001
	c6.086,5.466,6.681,7.579,6.445,9.031c-0.401,2.489-2.199,3.914-4.951,3.914l-1.135-0.069c-1.562-0.187-3.402-0.803-5.621-1.877
	l-1.833-0.972v-1.324l-0.338,0.175l-0.831,0.426l-0.546-0.353l-0.118,0.688l-0.747,0.373c-1.044,0.512-2.04,0.979-2.98,1.39
	c-2.386,1.034-4.724,1.577-6.943,1.643c-2.124,0.063-3.513-0.256-4.467-0.944c-0.747-0.522-1.66-1.576-1.673-3.582l-0.013-2.811
	l7.454-4.214c3.022-1.685,5.103-3.576,6.203-5.615c1.183-2.158,1.763-4.855,1.756-8.042c-0.006-4.201-1.058-7.42-3.146-9.553
	c-2.062-2.188-6.342-3.192-12.662-2.973c-6.092,0.183-10.58,1.203-13.349,3.046c-2.5,1.698-3.717,4.027-3.71,7.081l0.073,23.487
	l-0.885,0.757l-1.615,0.736c-1.963,0.521-2.973-0.297-3.322-0.778c-0.346-0.525-0.637-1.27-0.94-2.344l-5.992-22.107
	c-0.629-2.373-1.919-3.918-3.907-4.737c-2.134-0.865-4.457-0.979-6.925-0.325c-2.669,0.719-4.985,1.776-6.884,3.163
	c-1.892,1.345-3.603,3.032-5.114,5.042l-1.981,2.648l-4.907-18.114l-16.883,4.484l12.357,45.547l-1.276,1.628
	c-1.244,1.479-2.513,2.5-3.792,3.102c-0.729,0.338-1.446,0.515-2.147,0.515c-1.275,0-3.087-0.581-4.48-3.336l-7.924-15.59
	c-1.014-1.999-1.262-3.655-0.771-5.073c0.395-1.138,1.238-2.022,2.514-2.617c0.926-0.453,1.756-0.702,2.521-0.789l1.373-0.097
	l-2.195-4.342c-2.272-0.041-4.588,0.052-6.874,0.329c-2.506,0.272-4.893,0.94-7.094,1.995c-4.371,2.04-7.054,4.312-7.967,6.729
	c-0.788,2.009-0.687,4.183,0.252,6.61l-1.548,0.872l-0.263,0.682c-0.474,1.04-1.11,1.798-1.939,2.371
	c-0.716,0.488-1.438,0.729-2.141,0.729c-0.719,0-1.784-0.27-2.738-1.493l-4.319-5.629l-8.45,5.819l1.815,2.378l-2.458,0.539
	c-1.148,0.25-2.904,0.568-5.366,0.969c-1.864,0.471-3.748,1.37-5.608,2.655c-3.351,2.296-5.439,4.781-6.196,7.358
	c-0.709,2.379-0.173,4.674,1.649,7.026l12.765,16.655l-0.84,0.913l1.002,0.041c-0.048,1.006-0.149,1.85-0.304,2.586
	c-0.259,0.979-0.643,1.743-1.176,2.413c-1.103,1.432-2.365,1.729-3.229,1.729c-0.92,0-1.889-0.332-2.867-0.999l-5.871-3.952
	c-1.905-1.28-3.81-2.061-5.664-2.292c-1.743-0.221-3.357,0.203-4.973,1.317l-3.066,2.108l0.56-3.675
	c0.283-1.885,0.127-3.461-0.48-4.858c-0.418-1.006-1.664-2.683-5.218-5.069c-3.917-2.641-7.506-3.709-10.681-3.201
	c-3.223,0.453-6.542,2.859-9.899,7.167l-24.14,30.938l6.531,4.395l3.682-4.73l41.021,27.661l12.277-15.736l-21.73-14.656
	l2.313-2.959c1.518-1.964,3.06-2.836,4.602-2.655c1.242,0.062,2.783,0.699,4.625,1.96l8.406,5.664
	c2.926,1.971,5.615,2.776,8.021,2.43c2.431-0.356,4.513-1.687,6.366-4.059c1.801-2.32,2.967-5.127,3.485-8.326
	c0.338-2.075,0.501-4.028,0.46-5.823l-0.084-3.426l2.691,2.133c1.649,1.293,3.454,1.839,5.521,1.669
	c3.136-0.317,7.33-2.25,12.413-5.763c4.613-3.188,7.734-6.393,9.283-9.56c1.397-2.89,1.163-5.411-0.764-7.911l-11.16-14.536
	l2.842-5.034l0.48-1.255l1.175-3.793l11.866,23.345c1.134,2.265,2.818,3.568,5.121,4.021l1.615,0.121
	c2.061,0,4.318-0.581,6.749-1.708c2.945-1.393,5.574-3.433,7.817-6.088c0.913-1.089,1.854-2.33,2.974-3.852l1.974-2.714l1.093,4.024
	l16.887-4.484l-8.094-29.881l0.156-0.473c0.349-0.993,0.729-1.715,1.22-2.24c0.55-0.582,1.252-0.969,2.116-1.204
	c1.324-0.346,2.372-0.014,2.904,0.37c0.75,0.474,1.293,1.372,1.663,2.776l3.911,14.435c-3.348,3.653-3.292,9.565-3.247,14.37
	l0.006,1.446c0.419,7.05-2.604,12.367-5.798,18.006c-1.898,3.333-3.865,6.804-4.985,10.556c-0.995,1.897-1.522,3.978-1.817,6.083
	c-55.156,23.793-94.009,80.013-94.009,145.423c0,31.939,9.268,61.682,25.163,86.536h18.215c2.237,0,4.339,0.968,5.799,2.614
	c1.438-1.604,3.526-2.614,5.808-2.614h38.655c1.508,0,2.96,0.443,4.184,1.217c1.217-0.76,2.662-1.217,4.176-1.217h9.105
	c3.242,2.968,6.927,5.32,11.401,6.486c2.77,0.872,5.629,1.314,8.513,1.314c7.203,0,14.429-2.726,20.602-7.611
	c0.741,0.161,1.455,0.417,2.118,0.778c1.12-0.623,2.42-0.996,3.782-0.996h5.863c2.988,3.064,5.374,7.011,7.459,10.954h-11.718
	l-3.858,13.277h10.297l-16.555,58.17l-1.138,0.332c-1.826,0.512-4.709,1.204-7.237,1.813c-1.96,0.456-4.418,1.037-4.872,1.217
	c-1.514,0.498-2.896,0.747-4.204,0.747c-2.417,0-3.952-0.733-4.591-2.171l-0.07-0.208c-0.377-1.161-0.249-2.669,0.405-4.881
	l19.846-68.279h-43.534l-3.859,13.262h9.311l-16.973,58.419l-0.968,0.374c-2.234,0.872-5.504,2.102-8.139,3.07
	c-1.771,0.65-3.171,1.163-3.555,1.327l-0.135,0.055c-1.4,0.47-2.772,0.707-4.063,0.707c-1.113,0-3.188-0.499-4.608-3.873
	l-0.066-0.181c-0.366-1.161-0.255-2.669,0.384-4.868l19.86-68.292h-34.23l-9.819,33.842h-16.04l9.836-33.842h-43.541l-3.869,13.262
	h9.311l-15.916,55.929l-0.885,0.388c-0.985,0.47-14.376,5.96-16.202,5.96c-2.013,0-3.5-0.623-4.42-1.854
	c-0.985-1.3-1.154-3.126-0.497-5.394l3.25-11.174c1.051-3.652,1.248-6.777,0.595-9.308c-0.587-2.227-2.088-3.665-4.75-4.55
	l-5.176-1.73l4.979-2.24c3.561-1.591,6.444-3.568,8.575-5.836c2.236-2.379,4.19-6.417,5.822-12.019
	c2.151-7.413,1.94-12.889-0.653-16.223c-2.506-3.485-8.377-5.213-17.499-5.213H33.384l-3.852,13.262h9.986l-22.723,79.801h34.229
	l12.029-43.082h5.007c1.539,0,6.196,0,7.243,3.43c0.626,1.785,0.439,4.246-0.571,7.759l-4.667,16.002
	c-1.601,5.559-1.466,9.653,0.419,12.198c1.521,2.047,4.885,5.504,10.29,5.504c5.041,0,10.57-1.327,16.44-3.9
	c2.345-1.023,5.338-2.034,8.506-3.125c5.162-1.77,11.009-3.762,13.553-5.67l5.063-3.79l-4.177,14.674h34.213l12.699-45.363h16.05
	l-8.569,29.473c-1.576,5.42-1.344,9.514,0.724,12.156c2.081,2.49,5.722,5.546,10.798,5.546c5.356,0,11.033-1.327,16.917-3.9
	c2.5-1.093,5.688-2.365,9.056-3.734c4.619-1.853,9.864-3.982,14.843-6.181l3.081-1.356l-0.093,3.375
	c-0.077,2.613,0.491,4.66,1.729,6.25c2.095,2.49,5.736,5.546,10.804,5.546c5.346,0,11.041-1.327,16.925-3.9l2.635-1.134
	c5.729-2.489,12.851-5.587,21.236-9.488l4.218-1.978l-4.204,14.813h13.3l15.844-54.561l25.73,45.848
	c1.1,1.854,1.86,3.886,2.247,5.947c0.194,0.967,0.304,1.88,0.291,2.767h13.843l26.644-93.203h-13.262l-10.899,39.347l-16.183-31.256
	c2.592-0.796,5.18-1.725,7.733-2.641c4.475-1.632,8.693-3.168,12.787-3.928l1.928-1.065h0.174c2.585,0,5.214-0.54,8.063-1.618
	c2.012-0.928,4.259-1.329,7.316-1.329c1.411,0,2.864,0.084,4.273,0.166c1.417,0.083,2.891,0.167,4.322,0.167
	c3.554,0,7.675-0.47,11.286-4.025c0.483-0.674,0.977-1.342,1.464-2.014c6.325-2.988,13.634-4.507,21.828-4.537
	c13.401-21.592,21.833-46.763,23.639-73.785c2.715-0.045,5.49-0.179,8.092-1.663c5.89-4.09,10.091-9.872,13.575-15.028
	c9.849,3.648,20.248,5.485,30.932,5.485c5.794,0,11.596-0.566,17.239-1.646c36.367-6.559,66.122-36.801,74.033-75.274
	C597.106,141.317,581.555,100.493,552.469,80.045z M396.036,55.528c0.622-1.047,1.494-1.726,2.6-2.061
	c1.148-0.345,2.358-0.266,3.417,0.249c1.673,0.809,2.455,2.386,2.144,4.329c-0.228,1.435-0.802,2.946-1.729,4.571
	c-1.327,2.289-2.891,3.959-4.688,4.979c-1.355,0.723-2.891,1.085-4.632,1.085c-0.652,0-1.342-0.052-2.047-0.134l-2.366-0.35
	L396.036,55.528z M125.565,116.446l-2.168,2.797l-13.069-8.807l2.299-2.97c2.452-3.136,5.971-3.482,9.937-0.806
	c1.743,1.175,2.981,2.628,3.689,4.312C127.139,112.844,126.903,114.749,125.565,116.446z M191.875,88.153
	c0.982,1.272,1.238,2.78,0.722,4.34c-0.425,1.317-1.269,2.42-2.544,3.305c-1.28,0.885-2.642,1.338-4.035,1.338l-0.211-0.007
	c-1.504-0.155-2.783-0.854-3.682-2.029l-14.228-18.533c-0.695-0.913-1.014-1.918-0.961-3.015c0.104-1.652,0.878-2.513,1.527-2.945
	c1.042-0.723,2.324-0.958,3.79-0.708l0.622,0.114l3.129,4.062c0.553,0.723,1.106,1.121,1.643,1.218
	c0.93,0.045,2.005-0.021,3.222-0.183l0.913-0.107L191.875,88.153z M80.275,377.202c-0.913,3.139-2.508,5.933-4.738,8.284
	c-2.278,2.517-5.069,3.832-8.263,3.832h-6.223l6.994-24.065h4.979c3.074,0,5.324,0.927,6.676,2.739
	C81.281,370.106,81.471,373.108,80.275,377.202z M292.932,31.207c0.878-0.864,1.984-1.324,3.167-1.361l0.139-0.007
	c1.804,0,3.18,0.964,3.878,2.708c0.54,1.352,0.824,2.946,0.824,4.764c0.013,2.576-0.532,4.765-1.618,6.479
	c-1.148,1.729-2.974,3.016-5.491,3.879l-2.129,0.737l-0.035-14.162C291.652,33.081,292.082,32.026,292.932,31.207z M361.398,93.039
	l-0.118,0.062c-4.266,3.175-9.39,4.202-14.355,5.19c-4.513,0.893-9.115,1.811-12.994,4.367c-12.975-3.707-26.634-5.698-40.737-5.698
	c-5.346,0-10.627,0.287-15.833,0.842c1.329-6.582,1.868-12.658,1.56-18.133c-0.6-5.3-2.61-11.254-5.943-16.057l0.979-1.158
	l1.068,2.261c1.37,2.88,5.128,4.225,11.061,4.042c4.363-0.134,8.879-1.109,13.442-2.924c1.965-0.799,3.845-1.621,5.567-2.435
	l2.788-1.324l-0.553,3.285c2.281,1.403,4.273,2.378,5.933,2.938c1.894,0.629,4.487,1.147,7.703,1.514
	c4.564,0.546,8.768,0.363,12.517-0.508c2.033-0.459,4.204-1.127,6.458-1.963l2.074-0.778l0.097,2.23
	c0.027,1.127,0.173,4.574,6.791,6.275c4.053,1.035,7.835,1,11.272-0.086c1.328-0.426,2.558-0.826,3.706-1.21l2.283-0.756
	l-0.167,2.399c-0.221,3.06,2.248,5.871,7.358,8.363c0.239,0.118,0.488,0.224,0.732,0.335c-0.451,0.381-0.902,0.764-1.355,1.152
	C369.274,88.215,365.706,91.268,361.398,93.039z"/>
<path fill="#D4D6D7" d="M189.586,343.663c1.438-1.604,3.526-2.614,5.808-2.614h38.655c1.508,0,2.96,0.443,4.184,1.217
	c1.217-0.76,2.662-1.217,4.176-1.217h9.105c-3.944-3.613-7.23-8.143-10.457-12.598c-1.162-1.605-2.365-3.265-3.575-4.855
	c-7.932,6.888-17.371,10.539-27.35,10.539c-5.961,0-11.908-1.3-17.686-3.858c-7.465-2.918-11.842-10.179-16.053-17.205
	c-3.16-5.214-6.424-10.635-10.926-14.135c-4.803-2.475-7.431-3.014-9.547-3.443c-2.215-0.467-3.962-0.845-7.103-3.124
	c4.34,17.634,11.642,34.058,21.321,48.68h13.646C186.024,341.049,188.126,342.017,189.586,343.663z"/>
<path fill="#D4D6D7" d="M289.489,100.832c-4.385,0.112-8.721,0.429-13.005,0.925c-0.343,1.413-0.71,2.84-1.124,4.296
	C279.142,104.144,284.151,101.904,289.489,100.832z"/>
<path fill="#D4D6D7" d="M178.3,303.958c11.583,16.139,24.399,23.69,38.088,22.404c5.805-1.065,12.042-4.605,16.357-9.28
	c-6.337-9.971-15.811-15.932-24.991-21.672c-9.366-5.877-19.055-11.963-25.589-22.336c-15.14-22.975-21.62-47.796-19.269-73.783
	c4.142-38.445,32.189-60.615,56.16-75.641l0.723-0.411c4.574-2.577,9.312-5.253,14.204-6.967l0.021-0.785
	c0.018-0.671,0.039-1.362,0.066-2.058c-52.802,23.662-89.824,77.995-89.824,141.085c0,10.563,1.038,20.879,3.012,30.849
	c4.111,2.697,8.178,4.279,12.125,5.789C166.153,293.75,172.57,296.211,178.3,303.958z"/>
<path fill="#FEE011" d="M311.326,106.378c4.273,3.115,8.686,6.324,14.287,7.568c0.525-0.65,0.858-1.494,1.203-2.365
	c0.34-0.813,0.686-1.677,1.197-2.393c0.737-1.356,1.568-2.513,2.464-3.526c-9.276-2.477-18.901-4.045-28.779-4.623
	c2.758,0.771,5.318,2.06,7.637,3.893C309.999,105.4,310.662,105.89,311.326,106.378z"/>
<path fill="#FEE011" d="M439.712,277.665l-1.176,1.438c-0.74,0.969-1.508,1.978-2.656,2.767c0.463,3.651-0.262,8.437-2.876,11.285
	c1.57,6.223,0.622,15.13-4.232,20.399c-1.909,2.31-4.544,3.942-7.095,5.533c-3.126,1.936-6.072,3.761-7.828,6.776
	c-4.703,5.805-9.306,11.808-13.728,17.915c5.094-2.407,10.834-3.845,17.152-4.336c12.039-18.688,20.224-40.234,23.382-63.427
	c-0.296,0.511-0.588,1.017-0.86,1.525L439.712,277.665z"/>
<path fill="#FEE011" d="M292.031,341.239c0.741,0.161,1.455,0.417,2.118,0.778c1.12-0.623,2.42-0.996,3.782-0.996h5.863
	c-1.936-1.986-4.117-3.609-6.638-4.605C295.559,338.204,293.837,339.81,292.031,341.239z"/>
<path fill="#FEE011" d="M353.232,133.6c2.793,2.704,5.158,5.947,6.721,9.238c2.849,7.662,3.72,15.743,4.564,23.539
	c1.016,9.38,2.061,19.089,6.555,27.961l0.775,1.552c1.521,3.088,3.112,6.265,5.035,9.007c3.423-0.339,7.122,1.109,9.169,3.554
	c6.314-3.527,11.638-5.176,16.721-5.176c2.739,0,5.421,0.509,7.953,1.508l1.521,1.183l0.781,0.736l0.396-0.616
	c0.779-1.288,1.91-2.177,2.961-2.958c-6.612-10.938-9.943-28.722-9.13-47.338c-10.316-12.679-22.57-23.62-36.294-32.33
	C366.102,128.272,360.066,132.225,353.232,133.6z"/>
<path fill="#FFFFFF" d="M543.763,83.067l-0.076-0.072l-1.245-1.839l0.276-0.142l1.39-0.353l1.557-0.459l0.858-1.48l0.47-1.12
	c1.314-1.825,3.52-2.42,5.518-2.825c0.921-2.735,3.07-4.661,4.993-6.373c-0.954-0.194-2.061-0.681-2.628-1.964l-0.027-0.069
	l0.015-0.086c0.885-4.913,5.283-7.61,9.549-10.217c1.086-0.67,2.15-1.317,3.118-1.992c-5.435-0.29-10.856,1.452-16.168,5.179
	l-0.083,0.035l-0.47,0.069c-1.009,0-1.245-1.055-1.425-1.888l-0.166-0.66c-3.063,1.988-5.851,4.073-6.832,7.351l-0.042,0.121
	l-0.117,0.042c-2.253,0.823-3.479,2.71-4.661,4.539c-1.48,2.279-2.987,4.623-6.48,4.765c-0.498,1.401-0.815,3.033-1.168,4.751
	c-0.588,2.904-1.189,5.898-2.677,8.143c-0.498,0.619-0.961,1.248-1.452,1.922c-1.479,2.087-3.008,4.232-5.725,4.792
	c-2.255,0.021-2.697,1.763-3.237,3.782c-0.415,1.591-0.829,3.229-2.199,4.098l-0.124,0.044c-0.837,0.042-1.377-0.418-1.826-0.837
	l-1.078-0.695c-0.79,0.322-1.674,0.454-2.822,0.454l-1.563-0.048c-0.989-0.055-2.019-0.083-2.835,0.014
	c-4.314,3.074-6.473,6.373-6.749,10.366l-0.014,0.1l-0.622,0.581l-0.159-0.062c-0.712-0.321-0.872-0.944-1.03-1.532l-0.429-1.048
	l-0.048-0.093l0.014-0.111c0.2-1.106,0.291-2.296,0.366-3.554c0.229-3.203,0.456-6.525,2.884-8.6
	c0.387-0.57,0.318-1.137,0.228-1.791c-0.083-0.65-0.193-1.4,0.277-2.196c0.677-1.027,1.397-2.001,2.087-2.973
	c1.453-1.988,2.967-4.048,4.053-6.324l0.041-0.049c0.72-0.864,1.661-0.971,2.379-0.971l1.051,0.059
	c0.76,0.055,1.507,0.076,1.998-0.101c-0.553-0.954-1.32-1.542-2.129-2.175l-1.002-0.813c-0.457-0.332-1.189-0.525-1.888-0.715
	c-1.432-0.377-3.036-0.823-2.952-2.663c-0.645,0.042-1.342,0.53-2.013,1.007c-0.74,0.501-1.431,0.996-2.137,0.996
	c-0.663,0-1.196-0.422-1.646-1.293c-0.615-0.391-1.272-0.567-2.06-0.567c-0.637,0-1.293,0.128-1.936,0.242l-0.927,0.162l-0.11,0.007
	l-0.077-0.079c-1.238-0.926-1.445-2.365-1.638-3.617l-0.318-1.58c-5.138,0.729-9.446,1.414-13.83,2.79
	c-11.286,9.907-18.893,19.291-23.941,29.494c2.103,12.157,7.787,23.446,12.53,31.948c3.775-0.543,7.731-0.806,12.109-0.806
	c8.636,0,17.585,1.061,26.229,2.095c3.389-7.061,6.825-12.945,10.497-17.966c0.956-2.618,3.181-4.962,5.338-7.223
	c3.278-3.44,6.383-6.69,5.409-10.86l-0.208-0.681c-0.38-1.176-1.12-2.407-2.158-3.655l-0.172-0.204l0.74-0.608l0.166,0.196
	c1.051,1.228,1.535,2.708,1.943,4.115l0.201,0.709c0.276,0.999,0.608,2.143,1.12,3.108c13.188,2.784,26.084,8.662,39.423,17.958
	c2.981-1.897,6.106-3.066,9.052-4.045C567.834,103.474,557.565,92.054,543.763,83.067z"/>
<path fill="#FFFFFF" d="M433.517,101.776c2.392-0.291,4.854-0.446,7.371-0.446c3.097,0,6.25,0.211,9.64,0.657
	c5.283-10.124,13.242-18.55,20.946-26.71l0.407-0.432C456.834,79.575,442.256,89.802,433.517,101.776z"/>
<path fill="#FFFFFF" d="M563.582,131.985l-0.083-1.594c-0.117-2.438-0.228-4.744-1.812-6.833c-4.419-3.855-9.431-6.884-14.86-9.003
	l-0.179,0.045l-0.36,0.169c2.773,1.79,5.435,3.609,7.738,6.026c6.174,4.439,7.185,12.392,8.083,19.387l0.188,1.397
	c0.104,1.493,0.104,3.021,0.089,4.48c0,2.154-0.007,4.357,0.346,6.5l0.318-0.055c1.058-5.432,0.857-10.764,0.664-15.912
	C563.658,135.08,563.603,133.513,563.582,131.985z"/>
<path fill="#FFFFFF" d="M454.15,125.397c1.141,3.597,2.324,7.296,2.006,11.259c-1.37,4.329-3.444,8.115-5.45,11.804
	c-1.417,2.593-2.883,5.269-4.073,8.087l0.16,0.398l0.843-0.073l0.788-1.528c3.14-6.103,6.39-12.419,10.726-17.844l0.602-2.725
	c-1.992-4.301-4.226-9.142-6.666-13.336l-0.069,0.184C453.348,122.892,453.763,124.167,454.15,125.397z"/>
<path fill="#FFFFFF" d="M503.262,138.257c-9.142-1.684-17.012-2.5-24.064-2.5c-5.187,0-10.097,0.452-14.605,1.331l-2.788,3.244
	c-5.524,8.418-11.154,17.626-13.677,29.168c3.837,10.891,8.906,23.224,17.459,32.297c1.245,0.128,2.49,0.235,3.735,0.359
	c6.562,0.654,13.353,1.297,19.908,1.297c6.141,0,11.487-0.581,16.34-1.771c0.484-0.778,0.976-1.559,1.466-2.337
	c5.518-8.765,11.231-17.816,14.328-28.556c-3.804-9.546-8.685-20.593-16.071-30.216L503.262,138.257z"/>
<path fill="#FFFFFF" d="M561.653,157.878c-0.533,0.419-0.623,0.958-0.72,1.615l-0.249,1.162l0.172,0.509l1.003,0.456
	c0.422-0.173,0.498-0.588,0.596-1.234l0.172-0.827C562.593,159.127,562.456,157.985,561.653,157.878z"/>
<path fill="#FFFFFF" d="M565.615,170.121c-0.989-1.21-1.943-2.365-3.396-2.365l-0.857,0.121l-0.069,0.007
	c-1.078-0.007-2.157-0.007-3.235-0.007c-10.705,0-23.277,0.546-35.378,4.64c-2.116,6.358-5.27,12.008-8.312,17.474
	c-0.996,1.778-2.019,3.604-2.987,5.433c-0.609,0.992-1.245,1.946-1.86,2.859c-1.059,1.553-2.151,3.167-2.98,4.965
	c4.051,11.095,11.935,21.143,17.868,27.671c2.6,0.169,5.034,0.241,7.399,0.241c6.556,0,12.42-0.587,17.951-1.811
	c13.534-10.601,23.124-23.809,28.498-39.274c-2.344-5.76-6.161-11.995-11.361-18.523L565.615,170.121z"/>
<path fill="#FFFFFF" d="M447.319,171.66c-0.326-0.929-0.657-1.905-1.57-2.032c-1.597,0.156-3.354,0.234-5.138,0.234
	c-6.542,0-13.858-0.985-23.014-3.084c-1.051,2.019-1.729,4.457-2.378,6.794l-0.499,1.784c2.932,17.453,13.083,36.304,25.89,48.102
	c2.406,0.764,4.757,1.452,7.032,1.452c1.128,0,2.124-0.17,3.05-0.519c4.833-6.29,8.796-13.405,12.613-20.286l0.463-0.815
	l0.172-0.757c-7.717-8.879-12.765-20.715-16.319-30.053L447.319,171.66z"/>
<path fill="#FFFFFF" d="M503.877,207.919c-0.781-0.629-1.68-0.926-2.815-0.926c-0.857,0-1.741,0.169-2.683,0.332
	c-1.078,0.215-2.179,0.418-3.292,0.342v0.035c6.743,0.453,9.916,5.806,13.001,10.981c0.995,1.673,2.019,3.384,3.153,4.951
	l1.065,0.567l0.304-0.467l0.104-0.391l-5.747-9.667L503.877,207.919z"/>
<path fill="#FFFFFF" d="M529.836,232.675c-2.019,0-4.06-0.062-6.023-0.163c-4.55,4.647-9.226,9.391-14.577,13.541
	c13.283-1.494,25.82-6.352,37.3-14.466C540.617,232.316,535.147,232.675,529.836,232.675z"/>
<path fill="#FFFFFF" d="M515.64,228.323h-0.098c-0.401,1.231,1.425,2.628,2.296,3.285l0.311-0.284l0.119-0.163
	C517.79,229.761,516.787,228.323,515.64,228.323z"/>
<path fill="#FFFFFF" d="M515.322,43.201c1.798,1.055,3.775,3.203,3.803,5.453c-1.84,4.878,3.678,8.439,3.458,13.07
	c-1.273,0.525-2.31,2.741-3.817,1.601c-3.154-1.373-3.209-7.185-7.766-5.906c-1.694-0.947-2.655-3.008-2.98-4.906
	c1.688-3.872-0.511-8.028-3.029-11.285c-0.871-0.688-2.193-1.439-2.42-2.261C507.493,39.378,510.591,43.748,515.322,43.201"/>
<path fill="#D4D6D7" d="M525.307,13.405l-0.485-0.829v0.958c-0.027,2.79-0.027,5.622-0.013,8.36c0.027,3.789,0.035,7.7-0.055,11.593
	c0.208,8.336-1.894,16.973-3.941,25.337c-1.611,6.615-3.285,13.453-3.776,20.068c0.027,4.677,4.177,8.028,6.646,9.615l0.145,0.093
	l0.146-0.093c0.885-0.573,1.362-1.417,1.818-2.237l0.733-1.182c1.964-1.816,2.103-4.554,2.241-7.209
	c0.179-3.541,0.332-6.594,4.696-6.845l0.13-0.046c1.827-1.109,2.601-3.094,3.361-5.021c0.499-1.296,1.038-2.648,1.88-3.675
	l0.069-0.083v-0.107C537.049,46.013,534.476,29.005,525.307,13.405z"/>
<path fill="#FFFFFF" d="M494.231,54.702c2.849,2.995,6.25,0.231,9.611,1.311c2.98,1.204,5.698,3.319,7.025,6.5
	c1.342,0.104,3.092-0.802,4.046,0.685l0.864,1.324c-2.503,7.243-4.287,15.5,2.103,21.222l4.771,4.149
	c-1.342,3.592-6.016,0.183-6.569,4.457c-0.789,1.414-0.347,3.692-1.833,4.595c-1.473-1.607-3.479-0.892-5.235-0.546l-5.794,0.439
	l-4.052,3.575l-2.213,4.674c0.2-3.606,0.138-8.505,3.437-10.742c0.311-0.837,0.436-1.988-0.042-2.881l6.051-9.477
	c2.579-0.927,5.685,0.37,7.911-1.124c-2.725-2.953-5.559-6.013-9.625-6.7c-1.017-0.886,0.871-1.757-0.187-2.712
	c-2.192-0.304-4.149,1.819-6.196,1.536c-1.438-3.554-7.364,1.396-6.022-4.304c-0.52-1.594,1.382-3.731-0.713-5l-3.7-2.201
	c-1.563-4.582-0.816-10.069-5.09-13.679l-2.482-1.922c3.989-0.578,7.35,2.31,10.655,3.868L494.231,54.702"/>
<path fill="#FFFFFF" d="M413.331,172.615c-0.851-3.306-0.886-6.919-0.602-10.536l2.116,6.746L413.331,172.615"/>
<path fill="#FFFFFF" d="M413.213,174.315l-0.407-1.573c-0.754-2.946-0.956-6.352-0.616-10.708l1.038-0.11l2.179,6.915
	L413.213,174.315 M413.103,165.067c-0.048,2.144,0.083,4.021,0.373,5.722l0.795-1.992L413.103,165.067z"/>
<path fill="#FFFFFF" d="M453.929,233.163c-2.613-0.899-4.881-3.029-7.053-4.961c0.934-0.242,2.78,0.245,4.135,0.121
	C452.103,229.716,452.919,231.642,453.929,233.163"/>
<path fill="#FFFFFF" d="M455.25,234.176l-1.487-0.501c-2.531-0.871-4.674-2.783-6.749-4.633l-1.251-1.117l0.981-0.243
	c0.505-0.134,1.32-0.062,2.207,0.015c0.677,0.073,1.397,0.142,2.004,0.086l0.291-0.027l0.18,0.231
	c0.65,0.837,1.203,1.843,1.743,2.81c0.38,0.703,0.787,1.432,1.21,2.062L455.25,234.176 M448.238,228.703
	c1.397,1.241,2.829,2.458,4.363,3.285l-0.366-0.671c-0.47-0.851-0.946-1.722-1.479-2.452l-1.902-0.11L448.238,228.703z"/>
<path fill="#FFFFFF" d="M575.414,118.203c10.18,21.755,12.088,45.723,3.915,69.805l-0.45-0.097
	c-3.845-7.71-8.941-15.282-14.667-21.133c3.54-15.258,3.499-29.973,1.493-44.298C568.457,120.751,571.928,118.566,575.414,118.203"
	/>
<path fill="#D4D6D7" d="M306.292,320.359c6.321,10.539,15.49,16.929,27.218,19.666c8.728,3.112,17.268,6.486,25.281,10.705
	l-0.083,0.333c-13.623,2.697-29.901,15.407-42.03,1.383c-5.297-5.449-6.196-14.425-12.585-18.601
	c-10.974-7.994-27.657-6.791-37.711-16.057c-7.025-4.744-12.599-13.152-14.715-21.63l0.162-0.665l4.333-0.636
	c4.27,10.954,12.229,20.538,22.931,24.286l0.522-0.236c-1.034-1.438-3.001-2.033-4.381-3.195
	c-6.062-5.586-11.77-13.166-14.525-21.451l0.114-0.483l9.667-3.223C279.132,305.008,291.812,314.122,306.292,320.359"/>
<path fill="#D4D6D7" d="M420.018,209.614l-2.393,1.535c-2.642,7.838-0.373,15.376,1.826,22.668c0.83,2.763,1.673,5.622,2.255,8.447
	l0.041,0.179l-0.152,0.097l-0.152,0.107l-0.705,0.298l-0.47-0.177l-0.055-0.079c-3.735-6.663-5.443-14.176-7.103-21.447
	l-0.345-1.525c-0.312-1.096-0.319-2.265-0.326-3.399c-0.021-1.846-0.04-3.596-1.244-5.089c-5.062-1.798-10.878-1.573-17.122,0.65
	c-9.612,5.29-11.3,19.072-11.715,28.984c-1.459,11.908,2.753,24.77,12.199,37.19l0.055,0.11l0.187,1.038l-0.117,0.083l-1.085,0.208
	l-0.104-0.042c-7.6-5.56-11.05-16.126-13.803-24.618c-2.419-10.494-4.839-26.077,1.992-40.312l0.063-0.083l0.567-0.943l-1.093-1.325
	l-0.81-0.729c-2.074-1.082-4.688-1.317-6.659-0.556l-0.145,0.062l-0.131-0.128c-3.105-3.021-5.083-7.195-6.998-11.229
	c-0.609-1.296-1.251-2.627-1.916-3.873c-4.177-9.919-5.746-20.444-7.268-30.613c-0.809-5.395-1.653-10.975-2.856-16.392
	c-2.814-8.921-8.782-15.054-15.959-16.386l-0.235-0.042l0.014-0.249c0.504-7.419,5.38-13.567,12.406-15.662l0.041-0.014h0.049
	c10.172,0.19,20.635-3.79,30.281-11.506c6.763-6.325,10.781-13.264,11.901-20.635c0.131-1.418-0.842-2.621-2.351-2.839
	c-5.939,0.488-10.254,4.101-14.819,7.938c-3.015,2.549-6.134,5.159-9.861,6.915c-5.2,3.762-10.912,5.255-16.43,6.694
	c-4.039,1.055-8.229,2.144-12.171,4.128c-4.197,3.116-7.025,8.872-7.695,15.77l-0.021,0.28l-0.284-0.042
	c-7.627-1.103-13.325-5.421-18.843-9.602c-3.208-2.414-6.521-4.92-10.158-6.764c-2.656-1.344-5.353-2.001-8.243-2.001
	c-5.584,0-11.009,2.493-16.248,4.898l-1.566,0.716c-1.12,2.987-1.245,6.047-1.366,9.021c-0.027,0.729-0.058,1.466-0.1,2.196
	c-0.1,3.326,0.798,6.563,1.67,9.695c0.667,2.385,1.369,4.84,1.622,7.354v0.045l-0.006,0.028c-0.623,3.744-3.23,6.005-5.751,8.184
	c-3.588,2.382-8.567,2.04-14.607-0.854c-4.665-2.331-8.651-5.794-12.496-9.143c-0.744-0.652-1.479-1.282-2.224-1.936
	c-4.567,8.132-11.983,14.314-19.161,20.282c-4.308,3.589-8.761,7.292-12.555,11.372c-12.592,12.284-20.203,33.438-19.864,55.21
	c0.858,12.011,5.333,24.29,14.083,38.642c7.275,9.293,16.046,19.75,27.729,25.586c5.1,2.614,10.331,3.899,16.04,3.899
	c10.884,0,21.606-4.756,31.979-9.348c1.891-0.844,3.758-1.673,5.628-2.462c1.757-0.677,3.455-1.023,5.063-1.023
	c1.528,0,3.015,0.318,4.398,0.913c4.681,2.378,7.973,6.154,9.01,10.344c0.601,2.421,1.134,4.87,1.667,7.234
	c1.97,8.92,4.017,18.131,9.121,26.498c5.297,10,15.732,12.958,25.813,15.808c6.895,1.965,14.032,3.984,19.536,8.229
	c1.535,1.106,3.181,1.646,5.006,1.646c2.116,0,4.273-0.705,6.355-1.382c2.316-0.747,4.716-1.521,7.129-1.411l0.65-0.014
	c1.085,0,2.199,0.083,3.278,0.139c1.085,0.069,2.199,0.124,3.277,0.124c2.165,0,4.944-0.234,7.344-2.074
	c2.005-2.406,3.962-5.02,5.85-7.523c3.665-4.938,7.455-10,12.254-14.245c-0.65,0.109-1.272,0.428-1.881,0.719l-1.148,0.539
	l-0.076,0.028L406.962,323l-1.245,0.54l-0.104-0.028l-0.063-0.097c-0.331-0.525-0.372-1.093-0.157-1.783
	c1.119-4.537,5.165-5.007,8.746-5.408c1.321-0.139,2.559-0.291,3.659-0.608c4.702-2.061,7.592-7.358,7.516-13.83
	c-0.18-0.664-0.262-1.369-0.332-2.061c-0.145-1.397-0.303-2.724-1.3-3.678c-1.12-0.194-2.254-0.346-3.416-0.498
	c-2.559-0.346-5.214-0.734-7.53-1.272c-0.727-0.194-1.459-0.36-2.207-0.54c-2.711-0.608-5.511-1.23-7.717-2.834l-0.063-0.042
	l-0.027-0.069l0.027-0.844l0.553-0.47l0.069-0.028l0.062,0.028c5.366,1.383,11.445,2.932,17.135,2.932
	c1.625,0,3.195-0.125,4.647-0.387c2.739-0.788,4.744-3.333,5-6.348l-0.173-0.748l-0.422-0.705c-4.57,1.992-9.342,3.001-14.189,3.001
	c-4.295,0-8.541-0.802-12.62-2.378l-0.083-0.042l-0.546-0.234c-0.518-0.18-1.279-0.429-1.071-1.383l0.042-0.25l0.249,0.042
	c3.652,0.512,7.876,1.065,11.887,1.065c3.423,0,6.438-0.388,9.204-1.189c8.319-3.609,14.051-10.096,16.161-18.271
	c-0.242-1.701-1.439-3.042-2.587-4.37l-0.974-1.134l-0.042-0.069l-0.013-0.083l-0.146-0.401l-0.145-0.983l0.719-0.387l0.097-0.014
	l0.083,0.055c0.712,0.43,1.396,0.913,2.061,1.383c1.625,1.121,3.167,2.199,5.021,2.807c8.713-0.608,14.396-9.251,18.186-15.147
	C444.282,238.032,430.521,225.709,420.018,209.614z"/>
<path d="M343.563,225.93c0.707,0.522,2.324,0.495,2.077,1.691c-0.264,0.844-1.011,1.161-1.771,1.255
	c-5.547-0.688-7.164-7.105-9.813-11.368c-3.478-8.73-7.413-19.961-16.824-23.042C332.521,197.053,332.652,217.175,343.563,225.93"/>
<path d="M370.395,223.094c-3.111,9.609-1.148,18.751-0.207,27.865c1.673,9.211,4.923,18.325,9.806,26.83l-0.774-0.179
	c-10.014-17.095-14.758-35.288-11.549-54.82c0.083-0.677,0.429-1.303,1.134-1.407C369.759,221.397,370.339,222.372,370.395,223.094"
	/>
<path d="M324.354,224.433c2.496,6.195,4.729,12.613,8.561,18.497c2.102,3.648,6.873,1.989,9.978,2.715
	c0.727,1.583,0.118,3.396-0.007,5.176c-4.052,1.701-8.899,0.069-11.88-2.956c-1.631-3.973-4.045,1.335-6.333,1.293
	c-1.204,0.276-2.31,1.12-3.583,0.823c0.215-0.656,1.479-0.546,2.227-1.155c2.601-1.902,4.911-4.359,5.132-7.8l-1.266-2.189
	c-1.265,1.103-1.453,3.15-2.497,4.433c-1.133,1.763-3.111,3.606-5.297,3.987c-2.724,0.698-4.916-1.307-6.369-3.399
	c-3.313-6.034-2.365-14.487,1.515-20.068c-1.301-1.169-3.75-0.837-5.547-0.695c-2.157,0.319-4.397,0.623-6.541,1.66
	c2.945-4.343,8.423-5.836,13.07-5.985c-3.167-5.169-8.672-7.953-14.301-9.432c-0.151-1.155,1.052-0.446,1.577-0.674
	C311.34,211.965,321.311,214.119,324.354,224.433"/>
<path d="M314.604,257.168c-0.678,1.176-1.908,2.158-3.208,2.462c-9.709-6.916-19.003-17.537-21.9-30.057
	C295.304,241.52,303.402,252.066,314.604,257.168"/>
<path d="M303.574,260.654l3.672,1.84c-0.741,1.148-2.269,1.908-3.528,2.378c-7.973-5.256-14.59-13.899-18.622-23.467
	C290.429,248.487,295.843,256.421,303.574,260.654"/>
<path d="M328.406,261.526c-3.021,1.078-6.548,1.078-10.123,0.096l1.846-3.126L328.406,261.526"/>
<path d="M323.296,268.344c-3.464,1.203-7.489,1.936-11.472,0.291c0.705-0.968,2.503-1.798,3.721-2.628
	C318.144,266.491,320.654,268.067,323.296,268.344"/>
<path d="M381.306,301.633c-1.638,3.665-5.096-0.581-8.083-0.235c-6.079-1.038-12.413,2.074-16.645,6.805
	c-1.694,1.826-2.933,3.983-3.762,6.458c-0.677-1.493,0.65-3.222,0.947-4.826c3.804-7.897,13.132-12.613,21.492-11.811
	C377.71,298.604,380.062,299.586,381.306,301.633"/>
<path d="M399.196,319.336c0.325,0.29,0.906,0.484,0.54,1.189c-2.773,1.494-5.76,1.825-8.83,1.521
	c-2.435,3.333-6.77,5.449-10.623,5.381c-3.443-0.388-6.707-1.882-8.103-5.284c-1.813-3.734-1.412-8.602,1.34-11.797
	c-1.272-0.995-2.876-0.125-4.363-0.208c-2.925,1.272-6.265,3.125-7.129,6.431l-0.457-0.111c0.457-3.263,2.683-5.643,5.394-7.454
	c3.547-2.171,7.759-2.213,11.604-0.263C385.829,311.729,389.578,322.019,399.196,319.336"/>
<path fill="#FFFFFF" d="M379.717,312.379c-2.891,2.309-4.093,6.444-4.288,10.386l-0.028,0.139c-2.614-1.673-2.435-4.869-2.171-7.594
	C373.804,312.434,377.144,308.41,379.717,312.379"/>
<path fill="#FFFFFF" d="M317.432,234.2c-0.526,1.763-1.016,3.672-2.745,4.381c-1.453,0.433-2.206-1.006-2.642-2.157
	c0.497-3.662,0.11-8.668,4.148-9.73C318.517,228.433,317.259,231.642,317.432,234.2"/>
<path fill="#FFFFFF" d="M297.426,291.731c1.162,4.259,1.743,8.602,2.614,12.889l-5.09,6.681c-3.72-1.521-7.136-4.786-10.521-7.551
	c2.244-4.799,4.692-9.446,8.902-12.793l-0.255-0.401c-4.371,2.932-7.676,7.053-10.777,11.216c-3.471-3.277-6.134-7.759-8.837-12.06
	l0.104-0.442c5.518-2.269,10.788-6.044,16.793-5.933C294.314,283.848,296.438,288.273,297.426,291.731"/>
<path fill="#D4D6D7" d="M273.192,75.336c3.887,13.595-3.298,28.4-4.986,42.628c-1.258,7.129,3.074,13.27,4.499,19.909
	c-2.79-1.159-5.006-4.913-6.459-8.125c-3.599-10.588,1.217-22.741,2.061-34.085c0.785-7.448,1.176-15.542-4.163-21.367l-1.027,0.318
	c3.354,5.629,4.121,11.901,1.954,18.246c-1.075,0.228-2.258-0.197-3.433-0.118c-4.032,0.083-8.925,2.286-10.843,6.3
	c-5.297,7.917-6.068,19.275-1.29,27.56c3.734,9.156,10.494,15.311,18.619,18.709c-3.066,1.303-6.808-0.495-10.034-1.545
	c-10.504-5.515-19.836-18.09-18.872-30.886c0.65-10.204,5.395-18.934,9.692-27.229c4.802-7.537,1.141-16.313,4.871-23.905
	c1.493-1.529,3.824-2.866,5.979-2.773C266.458,61.209,271.374,68.318,273.192,75.336"/>
<path fill="#D4D6D7" d="M237.632,128.797c-10.249,20.324-33.649,30.917-43.607,51.438c-7.067,14-10.614,31.993-8.412,47.272
	c3.316,18.29,13.498,38.209,27.771,50.573c9.114,7.759,18.37,16.693,31.599,17.316c1.02,1.577,0.699,3.609,1.569,5.421
	c7.23,18.933,23.743,29.389,42.114,32.847c-3.804,4.854-10.411,8.311-16.216,9.1c-12.541,1.203-23.235-6.251-29.289-17.412
	c-8.745-13.637-16.817-29.694-30.751-36.581c-11.507-5.27-21.458-12.972-28.75-24.286c-12.008-20.925-16.331-43.161-13.737-66.614
	c3.278-23.438,13.899-42.399,31.367-55.874c10.587-8.194,21.592-17.322,34.194-20.911L237.632,128.797"/>
<path fill="#FFFFFF" d="M300.801,307.87c0.774,2.906,2.247,5.767,3.07,8.769l-6.943-3.817
	C297.55,310.858,299.107,308.853,300.801,307.87"/>
<path fill="#D4D6D7" d="M373.569,113.67c-5.366,9.148-16.16,17.702-27.032,17.43c-1.694-0.613-3.9-0.519-5.179-1.723
	c0.781-5.283,5.352-9.376,10.255-10.714C358.93,117.255,366.578,117.391,373.569,113.67"/>
</svg>
