<?xml version="1.0" encoding="UTF-8" standalone="no"?>
<!-- Created with Inkscape (http://www.inkscape.org/) -->

<svg
   xmlns:dc="http://purl.org/dc/elements/1.1/"
   xmlns:cc="http://creativecommons.org/ns#"
   xmlns:rdf="http://www.w3.org/1999/02/22-rdf-syntax-ns#"
   xmlns:svg="http://www.w3.org/2000/svg"
   xmlns="http://www.w3.org/2000/svg"
   xmlns:inkscape="http://www.inkscape.org/namespaces/inkscape"
   version="1.1"
   width="839.78748"
   height="337.10001"
   id="svg2"
   xml:space="preserve"><metadata
     id="metadata8"><rdf:RDF><cc:Work
         rdf:about=""><dc:format>image/svg+xml</dc:format><dc:type
           rdf:resource="http://purl.org/dc/dcmitype/StillImage" /></cc:Work></rdf:RDF></metadata><defs
     id="defs6"><clipPath
       id="clipPath18"><path
         d="m 0,0 6718,0 0,2696.75 -6718,0 L 0,0 z"
         inkscape:connector-curvature="0"
         id="path20" /></clipPath></defs><g
     transform="matrix(1.25,0,0,-1.25,0,337.1)"
     id="g10"><g
       transform="scale(0.1,0.1)"
       id="g12"><g
         id="g14"><g
           clip-path="url(#clipPath18)"
           id="g16"><path
             d="m 5393.69,0.0585938 869.19,0 0,898.8634062 -869.19,0 0,-898.8634062 z M 6679.03,188.082 6634.7,70.6602 l -44.35,117.4218 -39.23,0 0,-188.082 34.94,0 0,116.07 36,-98.8708 25.25,0 36.02,98.8708 0,-116.07 34.93,0 0,188.082 -39.23,0 z m -288.53,-32.223 52.13,0 0,-155.859 34.93,0 0,155.859 52.14,0 0,32.223 -139.2,0 0,-32.223 z M 4315.05,898.922 c 0,-496.442 402.44,-898.8634062 898.91,-898.8634062 l 0,2696.6914062 -898.91,0 0,-1797.828 z M 1078.8,0.0585938 c 496.42,0 898.91,402.4214062 898.91,898.8634062 l 0,1797.828 -898.91,0 0,-2696.6914062 z M 0,898.922 C 0,402.48 402.441,0.0585938 898.965,0.0585938 L 898.965,2696.75 0,2696.75 0,898.922 z m 4135.24,898.798 c 0,496.7 -402.51,899.03 -899.02,899.03 l 0,-2696.6914062 c 496.51,0 899.02,402.4214062 899.02,898.8634062 0,464.148 -351.75,845.828 -803.17,893.698 l 0,5.1 803.17,0 z m -1977.76,0 c 0,-463.95 351.79,-845.829 803.15,-893.638 l 0,-5.16 -803.15,0 c 0,-496.442 402.56,-898.8634062 898.99,-898.8634062 l 0,2696.6914062 c -496.43,0 -898.99,-402.33 -898.99,-899.03"
             inkscape:connector-curvature="0"
             id="path22"
             style="fill:#0e1b3b;fill-opacity:1;fill-rule:nonzero;stroke:none" /></g></g></g></g></svg>