<?xml version="1.0" encoding="UTF-8" standalone="no"?>
<svg xmlns="http://www.w3.org/2000/svg" width="292.8" height="185" viewBox="0 0 292.8 185">
  <title>FC Cincinnati bicolor acronym text logo</title>
  <path style="fill: #ff5a00" d="M36.57,159H17.18V30.54H72.23V50.22H36.57V85H62.91v19.54H36.57Z"/>
  <path style="fill: #ff5a00" d="M121.48,160.48q-13,0-21.83-8.66T90.85,130V60q0-13.32,8.81-22t21.83-8.66q13.32,0,22.05,8.66t8.73,22v14.8H132.88V59.54a10.74,10.74,0,0,0-3.24-7.84,11.07,11.07,0,0,0-18.82,7.86V130a11,11,0,1,0,22.05,0V112.38h19.39v17.76q0,13.16-8.73,21.75T121.48,160.48Z"/>
  <path style="fill: #1a2574" d="M244.15,160.48q-13,0-21.83-8.66T213.51,130V60q0-13.32,8.81-22t21.83-8.66q13.32,0,22.05,8.66t8.73,22v14.8H255.54V59.54a10.74,10.74,0,0,0-3.24-7.84,11.07,11.07,0,0,0-18.82,7.86V130a11,11,0,1,0,22.05,0V112.38h19.39v17.76q0,13.16-8.73,21.75T244.15,160.48Z"/>
  <rect style="fill: #1a2574" x="179" y="13.33" width="8.33" height="158.67"/>
</svg>
