<svg id="full_text_logos" data-name="full text logos" xmlns="http://www.w3.org/2000/svg" width="71.12" height="13.95" viewBox="0 0 71.12 13.95">
  <title>FC Cincinnati orange full text logo</title>
  <g id="orange_full_text_logo" data-name="orange full text logo">
    <g id="_Group_" data-name="&lt;Group&gt;">
      <g id="_Group_2" data-name="&lt;Group&gt;">
        <path d="M2.4,12.87H1.09V4.22H4.8V5.54H2.4V7.89H4.16V9.2H2.4Z" style="fill: #ff5a00"/>
      </g>
      <g id="_Group_3" data-name="&lt;Group&gt;">
        <path d="M8.35,13a2.06,2.06,0,0,1-2.07-2.06V6.2A2.07,2.07,0,0,1,8.35,4.13a2,2,0,0,1,1.46.61,2,2,0,0,1,.6,1.46v1H9.06v-1a.75.75,0,0,0-.75-.75.71.71,0,0,0-.53.22.73.73,0,0,0-.22.53v4.73a.74.74,0,0,0,.74.74.73.73,0,0,0,.53-.22.71.71,0,0,0,.22-.53V9.72h1.35v1.21A2.06,2.06,0,0,1,8.35,13Z" style="fill: #ff5a00"/>
      </g>
      <path id="_Compound_Path_" data-name="&lt;Compound Path&gt;" d="M20.3,13a2.06,2.06,0,0,1-2.07-2.06V6.2a2.07,2.07,0,1,1,4.13,0v1H21v-1a.75.75,0,0,0-.75-.75.71.71,0,0,0-.53.22.73.73,0,0,0-.22.53v4.73a.74.74,0,0,0,.74.74.73.73,0,0,0,.53-.22.71.71,0,0,0,.22-.53V9.72h1.35v1.21A2.06,2.06,0,0,1,20.3,13Z" style="fill: #ff5a00"/>
      <path id="_Compound_Path_2" data-name="&lt;Compound Path&gt;" d="M25.71,12.87H24.4V4.23h1.3Z" style="fill: #ff5a00"/>
      <path id="_Compound_Path_3" data-name="&lt;Compound Path&gt;" d="M29.31,4.22,31,10V4.22h1.3v8.65h-1.4L29.15,7.34v5.54h-1.3V4.22Z" style="fill: #ff5a00"/>
      <path id="_Compound_Path_4" data-name="&lt;Compound Path&gt;" d="M36.53,13a2.06,2.06,0,0,1-2.07-2.06V6.2a2.07,2.07,0,1,1,4.13,0v1H37.24v-1a.75.75,0,0,0-.75-.75.71.71,0,0,0-.53.22.73.73,0,0,0-.22.53v4.73a.74.74,0,0,0,.74.74.73.73,0,0,0,.53-.22.71.71,0,0,0,.22-.53V9.72h1.35v1.21A2.06,2.06,0,0,1,36.53,13Z" style="fill: #ff5a00"/>
      <path id="_Compound_Path_5" data-name="&lt;Compound Path&gt;" d="M41.93,12.87h-1.3V4.23h1.3Z" style="fill: #ff5a00"/>
      <path id="_Compound_Path_6" data-name="&lt;Compound Path&gt;" d="M45.53,4.22,47.26,10V4.22h1.3v8.65h-1.4L45.37,7.34v5.54h-1.3V4.22Z" style="fill: #ff5a00"/>
      <path id="_Compound_Path_7" data-name="&lt;Compound Path&gt;" d="M52.17,4.22,53.9,10V4.22h1.3v8.65H53.8L52,7.34v5.54H50.7V4.22Z" style="fill: #ff5a00"/>
      <path id="_Compound_Path_8" data-name="&lt;Compound Path&gt;" d="M58.94,10.89l-.32,2H57.26l1.47-8.64h1.79L62,12.87H60.6l-.31-2Zm.68-4.68-.48,3.41h1Z" style="fill: #ff5a00"/>
      <path id="_Compound_Path_9" data-name="&lt;Compound Path&gt;" d="M64.21,5.54H62.82V4.23h4.07V5.54H65.51v7.33h-1.3Z" style="fill: #ff5a00"/>
      <path id="_Compound_Path_10" data-name="&lt;Compound Path&gt;" d="M70.21,12.87h-1.3V4.23h1.3Z" style="fill: #ff5a00"/>
      <rect id="_Path_" data-name="&lt;Path&gt;" x="13.9" y="3.07" width="0.55" height="10.72" style="fill: #ff5a00"/>
      <g id="_Group_4" data-name="&lt;Group&gt;">
        <path id="_Path_2" data-name="&lt;Path&gt;" d="M19.37.54,19,0,18.3.2q0,.33-.08.65l.65.19Q19.11.79,19.37.54Z" style="fill: #ff5a00"/>
        <path id="_Path_3" data-name="&lt;Path&gt;" d="M18,4l-.1-.12A9.55,9.55,0,0,1,21.11,3l0,.13.19.05s.4-1.42.58-1.92c-.2-.15-.42-.3-.63-.44q-.36.28-.68.57.17.37.33.74a11.09,11.09,0,0,0-1.2.23q0-.41.11-.83-.38-.16-.78-.3-.3.34-.56.69l.45.67A11.14,11.14,0,0,0,17.75,3q0-.41,0-.83-.41-.09-.83-.15-.21.34-.4.68c.39.38,1.33,1.42,1.33,1.42Z" style="fill: #ff5a00"/>
      </g>
    </g>
  </g>
</svg>
