<svg id="FCC_shield" data-name="FCC shield" xmlns="http://www.w3.org/2000/svg" width="53.84" height="82.54" viewBox="0 0 53.84 82.54">
  <title>FC Cincinnati blue on orange shield</title>
  <g id="shield">
    <path d="M53.84,38.52a17.52,17.52,0,0,0-3-2.3l.85-1.67a15.55,15.55,0,0,0-2.2-1.79,24.09,24.09,0,0,0,1.57-8.59c0-.4,0-.8,0-1.19l-5.13.57-1.85,6.27a39.94,39.94,0,0,0-9.65-2.64l2-6.24-9.46-7.12-9.46,7.12,2,6.24a39.91,39.91,0,0,0-9.65,2.64L7.92,23.54,2.78,23q0,.59,0,1.19a24.11,24.11,0,0,0,1.57,8.59,15.49,15.49,0,0,0-2.2,1.79L3,36.22a17.51,17.51,0,0,0-3,2.3l3.16,6.15v14c0,8.84,9.13,17.19,19.41,22l4.35,1.88,4.35-1.88c10.29-4.78,19.41-13.13,19.41-22v-14Z" style="fill: #e75525"/>
    <path d="M26.92,0h0a24.15,24.15,0,0,0-7.26,1.11l1.22,5.57,6,3.16h0l6-3.16,1.22-5.57A24.15,24.15,0,0,0,26.92,0" style="fill: #e75525"/>
    <path d="M26.92,33.08h-.05c-13,0-20.79,4-22.48,5V57.16c0,9.94,8.62,16.35,18.41,20.9l4.14,1.79,4.14-1.79c9.79-4.54,18.39-11,18.41-20.9V38.1c-1.69-1-9.52-5-22.48-5Z" style="fill: #243d94"/>
  </g>
  <g id="CINCINNATI">
    <path d="M8.57,61.8a1.3,1.3,0,0,1-1.31-1.3v-3a1.3,1.3,0,1,1,2.61,0v.62H9v-.64A.47.47,0,0,0,8.55,57a.45.45,0,0,0-.33.14.46.46,0,0,0-.14.34v3a.47.47,0,0,0,.47.47.46.46,0,0,0,.33-.14A.45.45,0,0,0,9,60.49v-.75h.85v.76a1.3,1.3,0,0,1-1.3,1.3" style="fill: #fff"/>
    <rect x="11.89" y="56.28" width="0.82" height="5.45" style="fill: #fff"/>
    <polygon points="15.7 56.28 16.8 59.95 16.8 56.28 17.62 56.28 17.62 61.73 16.73 61.73 15.6 58.24 15.6 61.73 14.78 61.73 14.78 56.28 15.7 56.28" style="fill: #fff"/>
    <path d="M21,61.8a1.3,1.3,0,0,1-1.31-1.3v-3a1.31,1.31,0,0,1,2.23-.92,1.27,1.27,0,0,1,.38.92v.62h-.85v-.64A.47.47,0,0,0,21,57a.45.45,0,0,0-.33.14.46.46,0,0,0-.14.34v3A.47.47,0,0,0,21,61a.46.46,0,0,0,.33-.14.45.45,0,0,0,.14-.33v-.75h.85v.76A1.3,1.3,0,0,1,21,61.8" style="fill: #fff"/>
    <rect x="24.29" y="56.28" width="0.82" height="5.45" style="fill: #fff"/>
    <polygon points="28.11 56.28 29.2 59.95 29.2 56.28 30.02 56.28 30.02 61.73 29.14 61.73 28.01 58.24 28.01 61.73 27.19 61.73 27.19 56.28 28.11 56.28" style="fill: #fff"/>
    <polygon points="33.02 56.28 34.11 59.95 34.11 56.28 34.93 56.28 34.93 61.73 34.05 61.73 32.92 58.24 32.92 61.73 32.09 61.73 32.09 56.28 33.02 56.28" style="fill: #fff"/>
    <path d="M38.44,57.53l-.31,2.15h.61Zm-.43,3-.2,1.25H37l.93-5.45H39l.91,5.45h-.86l-.19-1.25Z" style="fill: #fff"/>
    <polygon points="42.06 57.11 41.19 57.11 41.19 56.28 43.75 56.28 43.75 57.11 42.88 57.11 42.88 61.73 42.06 61.73 42.06 57.11" style="fill: #fff"/>
    <rect x="45.59" y="56.28" width="0.82" height="5.45" style="fill: #fff"/>
  </g>
  <g id="FC">
    <polygon points="12.28 37.46 25.32 37.46 25.32 41.78 17.48 41.78 17.48 43.89 24.21 43.89 24.21 47.9 17.48 47.9 17.48 54.33 12.28 54.33 12.28 37.46" style="fill: #e75525"/>
    <path d="M37.54,43.74a2.71,2.71,0,0,0-2.72-2.48c-2.43,0-3.21,2.36-3.21,4.63s.78,4.63,3.21,4.63c1.75,0,2.43-1.23,2.74-2.81h5.1c0,3.4-2.76,7-7.7,7-5.46,0-8.55-3.85-8.55-8.84,0-5.32,3.35-8.84,8.55-8.84,4.63,0,7.18,2.46,7.63,6.69Z" style="fill: #e75525"/>
  </g>
  <g id="lion">
    <path id="main_lion" data-name="main lion" d="M32,68.69s0,.11-.05.11l-.77.09c-.08,0-.16-.09-.16-.09l-.68.1-.07.26-.22-.21L30,69.2,29.81,69l-.07.24L29.52,69l-1,.12a5,5,0,0,1-.35.72,6.83,6.83,0,0,1-.48.69,6.65,6.65,0,0,0-.48.66,5.29,5.29,0,0,0-.24.49c-.22.48-.42,1-.62,1.45L26,74a.31.31,0,0,1-.18-.22l-.08.22s-.12,0-.17-.22l-.08.22a.26.26,0,0,1-.16-.22H24.28c-.42,0-.66,1-.23,1h.23c.16,0,.06,1,.06,1l-.18.21,0-.3a2.11,2.11,0,0,0-.16-.28,1.46,1.46,0,0,0,0,.27c0,.09,0,.17,0,.2s-.24.13-.24.13a1.06,1.06,0,0,0,0-.34,1.41,1.41,0,0,0-.16-.26,1.45,1.45,0,0,0,0,.25c0,.08,0,.15,0,.19a1.07,1.07,0,0,1-.22.16.74.74,0,0,0,0-.35l-.14-.24s0,.11,0,.23a1.77,1.77,0,0,1,0,.24c0,.09-.2.12-.2.12s0-.15,0-.22h-.08c-.57,0-.47-.71-.37-1l.89-2.5s.11,0,.17.23l.08-.23a.41.41,0,0,1,.17.23l.08-.23a.42.42,0,0,1,.17.23h.77l.71-1.59-.12-.32-.56.67-.38-.13.75-1.25,0-.15-.88.75,0-.49.73-1.07V68.7l-.66.45,0-.42.63-1c0-.06,0-.12,0-.18l-.59.33,0-.4.69-.76h0s-.41,0-.44-.13a.67.67,0,0,1,.11-.42c.07-.13.17-.25.29-.26s.39.26.39.26A5.92,5.92,0,0,1,27,65.87a7.33,7.33,0,0,1,1.37.38s0,.17-.06.39h-.36a.37.37,0,0,0-.36.47.13.13,0,0,0,.07.09s.05-.07.07-.09a.25.25,0,0,1,.23-.15h.3c-.08.37-.19.8-.32.8s-.55,0-.84,0a1,1,0,0,0,.9.43C28.73,68.14,31,68,31,68s.08-.18.16-.2.87-.07.91-.07a0,0,0,0,1,.05,0Zm-2.12,2.55a1.56,1.56,0,0,0,.69.19,4.58,4.58,0,0,0,.73-.08s-.27.65-.78.76a1.37,1.37,0,0,1-.92-.09l-1.79-1s.33-.43.45-.6c0,0,1.06.52,1.63.78m.93,3.44c.35,0,.43,1,.43,1l-.18.21,0-.21v-.09a2,2,0,0,0-.16-.28,1.57,1.57,0,0,0,0,.27.59.59,0,0,0,0,.11h0a.3.3,0,0,1,0,.09c0,.09-.24.13-.24.13a1.69,1.69,0,0,0,0-.23h0a.4.4,0,0,0,0-.11,1.38,1.38,0,0,0-.16-.26,1.54,1.54,0,0,0,0,.25.56.56,0,0,0,0,.11h0a.12.12,0,0,1,0,.07,1.14,1.14,0,0,1-.22.16,1.08,1.08,0,0,0,0-.23h0a.32.32,0,0,0,0-.12l-.14-.24a2,2,0,0,0,0,.22s0,.1,0,.14h0a.35.35,0,0,1,0,.09c0,.09-.2.12-.2.12a.39.39,0,0,0,0-.21h-2s0-.12.26-.33h-.26a.73.73,0,0,1,.27-.37h-.26a.84.84,0,0,1,.27-.34l0-1.16-1-.36L26.86,73c.24-.56.54-1.24.71-1.57h0l.51.23.46.23,1,.52a.9.9,0,0,0,.28.08,1.56,1.56,0,0,1-.26.23l.24.06a1,1,0,0,1-.27.23l.28.07a1.29,1.29,0,0,1-.29.24l0,1.34Zm1.45-7.41h0l-.29,0,.93-4.36-.14-.61-.44.53-1,4.48-.42.05a.34.34,0,0,0-.16.18l-2.42.12a2.5,2.5,0,0,0,.24-.74l.06-.32c0-.22.06-.45.08-.67-.39-.15-.78-.29-1.17-.41a2.18,2.18,0,0,0-.69-.13,5.31,5.31,0,0,0-1.25.25.83.83,0,0,0-.46-.2.68.68,0,0,0-.37.1,1.23,1.23,0,0,0-.51,1.2.44.44,0,0,0,.1.16l0,.05-1-.71-1.13-.38.86,1,.06.19.84.58v.05l-.75-.31.13.55.56.51v.18l-.44-.22,0,.44.38.26v.17l-.24.09.06.44.15-.11,0,.32,0,0-2.46.34h0l.45.29,2-.36,0,.27L22.43,71l.74.32.33,0,.44-.54.19.24-.32.46a4.55,4.55,0,0,0,.94.2l-.17.39H24.3s-.11-.13-.2-.13h-1l-.67,1.89c-.22.62-.65,1.48-.18,2.1a.78.78,0,0,0,.64.3h1.85l.05-.42s0-.24,0-.48c0-.47,0-.7-.14-.85a.45.45,0,0,0-.34-.15h0c-.05,0,0-.08,0-.08h.75s.1.14.21.14h1l.17-.45.18-.44.36.15.73.26,0,.75a.54.54,0,0,0-.16.3l-.11,1.25h4.29a3.71,3.71,0,0,0-.31-1.57.65.65,0,0,0-.57-.37h-1l0-.84a.54.54,0,0,0,.13-.21c0-.08,0-.54,0-.63a1.43,1.43,0,0,0,.94-.17,1.91,1.91,0,0,0,.57-.58,4.73,4.73,0,0,0,.37-.79h-.38l-.19.23h0l0-.16,0-.17H31l-.31.28h-.07a1.08,1.08,0,0,1-.44-.11L30,70.66l-.4-.23,0,.17a1.28,1.28,0,0,0,.14.25h0v0a.69.69,0,0,1-.25-.32l-.91-.48a5.41,5.41,0,0,0,.27-.52l.87-.11a1.2,1.2,0,0,0-.16.33l.06.17.37-.28L30,69.4l.88-.09s.08,0,.12,0l.69-.06.55-.06c.15,0,.2-.25.23-.46s.13-1,.15-1.21-.09-.28-.34-.27" style="fill: #e75525"/>
    <path id="ball_right" data-name="ball right" d="M31.53,70.08l.19.43.14-.11a1.19,1.19,0,0,0,0-.66l-.15-.1Z" style="fill: #e75525"/>
    <polygon id="ball_center" data-name="ball center" points="30.3 69.87 30.33 70.41 30.86 70.55 31.15 70.09 30.81 69.67 30.3 69.87" style="fill: #e75525"/>
    <path id="crown_tip" data-name="crown tip" d="M26.72,63.72l-.11-.3-.39,0-.1.32.31.15.3-.21" style="fill: #e75525"/>
    <path id="crown_base" data-name="crown base" d="M25.7,65.33l0-.07a4.87,4.87,0,0,1,1.7-.15l0,.06.09,0s.33-.67.47-.91L27.62,64l-.39.22c0,.13.07.26.1.4a5.54,5.54,0,0,0-.62,0c0-.14.08-.27.13-.4L26.47,64l-.34.29.17.37a5.53,5.53,0,0,0-.61.12c0-.14,0-.28.06-.42l-.4-.15-.26.3c.16.23.53.83.53.83Z" style="fill: #e75525"/>
    <g id="wings">
      <polygon points="20.83 69.49 21.08 69.94 23.66 69.86 23.55 69.66 23.5 69.46 20.83 69.49" style="fill: #e75525"/>
      <polygon points="20.62 69.03 23.47 69.3 23.37 68.93 20.31 68.54 20.62 69.03" style="fill: #e75525"/>
      <polygon points="23.21 68.32 20.18 67.74 20.24 68.13 23.35 68.8 23.21 68.32" style="fill: #e75525"/>
      <polygon points="23.05 67.72 20.05 66.83 20.1 67.28 23.18 68.17 23.05 67.72" style="fill: #e75525"/>
      <polygon points="22.9 67.27 19.91 65.89 19.99 66.44 23.02 67.61 22.9 67.27" style="fill: #e75525"/>
      <polygon points="22.78 66.73 21.88 65.97 19.75 64.83 19.8 65.3 22.83 66.93 22.78 66.73" style="fill: #e75525"/>
    </g>
  </g>
  <path id="reserved" d="M47.45,61.08h.15c.09,0,.13,0,.13-.1s0-.09-.12-.09h-.16Zm.43.39h-.16l-.11-.28h-.17v.28H47.3v-.69h.32a.29.29,0,0,1,.2.06.19.19,0,0,1,.06.15.18.18,0,0,1-.13.18Zm.19-.35a.5.5,0,0,0-.14-.36.48.48,0,0,0-.69,0,.51.51,0,0,0,0,.71.48.48,0,0,0,.69,0,.5.5,0,0,0,.15-.36m.11,0a.58.58,0,0,1-.18.42.57.57,0,0,1-.42.18.6.6,0,0,1,0-1.2.57.57,0,0,1,.42.18.58.58,0,0,1,.18.42" style="fill: #fff"/>
</svg>
