<?xml version="1.0" encoding="UTF-8" standalone="no"?>
<!-- Created with Inkscape (http://www.inkscape.org/) -->

<svg
   xmlns:dc="http://purl.org/dc/elements/1.1/"
   xmlns:cc="http://creativecommons.org/ns#"
   xmlns:rdf="http://www.w3.org/1999/02/22-rdf-syntax-ns#"
   xmlns:svg="http://www.w3.org/2000/svg"
   xmlns="http://www.w3.org/2000/svg"
   xmlns:sodipodi="http://sodipodi.sourceforge.net/DTD/sodipodi-0.dtd"
   xmlns:inkscape="http://www.inkscape.org/namespaces/inkscape"
   width="196"
   height="174"
   viewBox="0 0 196 174"
   id="svg21718"
   version="1.1"
   inkscape:version="0.91 r13725"
   sodipodi:docname="2017 ncaa mens final four.svg">
  <defs
     id="defs21720" />
  <sodipodi:namedview
     id="base"
     pagecolor="#ffffff"
     bordercolor="#666666"
     borderopacity="1.0"
     inkscape:pageopacity="0.0"
     inkscape:pageshadow="2"
     inkscape:zoom="3.1206897"
     inkscape:cx="98"
     inkscape:cy="87"
     inkscape:document-units="px"
     inkscape:current-layer="layer1"
     showgrid="false"
     units="px"
     inkscape:window-width="1280"
     inkscape:window-height="744"
     inkscape:window-x="-4"
     inkscape:window-y="-4"
     inkscape:window-maximized="1" />
  <metadata
     id="metadata21723">
    <rdf:RDF>
      <cc:Work
         rdf:about="">
        <dc:format>image/svg+xml</dc:format>
        <dc:type
           rdf:resource="http://purl.org/dc/dcmitype/StillImage" />
        <dc:title></dc:title>
      </cc:Work>
    </rdf:RDF>
  </metadata>
  <g
     inkscape:label="Layer 1"
     inkscape:groupmode="layer"
     id="layer1"
     transform="translate(0,-878.36216)">
    <g
       id="g22120"
       transform="translate(-259.16647,495.53139)">
      <path
         d="m 357.10371,550.18971 -3.30525,5.85187 -2.35825,-6.301 -4.17075,5.25613 -1.35325,-6.59563 -4.9335,4.53363 -0.31475,-6.72925 -5.57537,3.698 0.73162,-6.6955 -6.07975,2.7715 1.76,-6.49763 -6.43412,1.778 2.745,-6.14037 -6.6305,0.73937 2.69075,-4.137 -19.742,7.68338 1.06237,-35.49538 -26.98362,0 3.80075,-6.84137 -14.7655,0 6.07812,-9.84675 -4.50675,0 -8.82187,-16.04413 8.56125,-16.07675 4.79862,0 -6.07812,-9.84612 14.80175,0 -3.80075,-6.842 28.87487,0 0.85213,-28.48538 22.22975,0 1.35275,-26.30737 51.07562,0 1.29075,26.30737 22.36925,0 0.85213,28.48538 28.65162,0 -3.79962,6.842 15.02562,0 -6.07862,9.84612 4.7985,0 8.56125,16.07675 -8.82188,16.04413 -4.50662,0 6.078,9.84675 -14.70475,0 3.79912,6.84137 -27.04275,0 1.06188,35.49538 -19.91,-7.74875 2.73375,4.20237 -6.63113,-0.73937 2.7455,6.14037 -6.43412,-1.778 1.7595,6.49763 -6.07913,-2.7715 0.731,6.6955 -5.57475,-3.698 -0.31475,6.72925 -4.93412,-4.53363 -1.35275,6.59563 -4.17125,-5.25613 -2.35763,6.301 -3.30525,-5.85187 z"
         style="fill:#eeab20;fill-opacity:1;fill-rule:nonzero;stroke:none"
         id="path4302"
         inkscape:connector-curvature="0" />
      <path
         d="m 451.77659,471.16033 -7.34475,-13.791 -7.50275,0 6.07812,-9.84612 -14.81187,0 3.799,-6.8415 -26.99588,0 -0.85212,-28.4865 -22.32525,0 -1.29413,-26.30725 -46.805,0 -1.35537,26.30725 -22.18013,0 -0.85212,28.4865 -27.21925,0 3.80075,6.8415 -14.59025,0 6.078,9.84612 -7.50275,0 -7.34425,13.791 7.58425,13.79338 7.23212,0 -6.07812,9.84612 14.55412,0 -3.80075,6.8415 25.46238,0 -1.0295,34.42 19.93287,-7.75775 c 5.44538,11.68963 17.18125,19.7995 30.75375,19.7995 13.572,0 25.30738,-8.10987 30.75325,-19.79887 l 19.93063,7.75712 -1.0295,-34.42 25.52275,0 -3.79913,-6.8415 14.49213,0 -6.07813,-9.84612 7.23213,0 7.58475,-13.79338 z"
         style="fill:#231f20;fill-opacity:1;fill-rule:nonzero;stroke:none"
         id="path4308"
         inkscape:connector-curvature="0" />
      <path
         d="m 312.05509,511.19784 6.3515,0.0761 1.86325,-2.70275 15.4435,0.19163 3.33425,4.36687 2.81925,-3.15925 3.07862,0 2.47438,-2.87975 2.09262,0 2.19025,-2.33025 12.44975,0 3.72375,5.5555 6.4145,2.608 1.12113,1.8175 3.84262,1.65625 2.15125,-2.65262 2.38163,-0.22425 2.58037,-3.1085 15.88613,0 -0.26238,-8.771 -89.65075,0 -0.28562,9.5565 z"
         style="fill:#eeab20;fill-opacity:1;fill-rule:nonzero;stroke:none"
         id="path4310"
         inkscape:connector-curvature="0" />
      <path
         d="m 328.62884,420.53546 3.14675,-3.46413 -16.905,0 -0.7065,23.61013 12.60325,0 1.8615,-20.146 z"
         style="fill:#fe6229;fill-opacity:1;fill-rule:nonzero;stroke:none"
         id="path4312"
         inkscape:connector-curvature="0" />
      <path
         d="m 387.56559,440.68171 12.6025,0 -0.70638,-23.61075 -16.899,0 3.14175,3.4675 1.86113,20.14325 z"
         style="fill:#fe6229;fill-opacity:1;fill-rule:nonzero;stroke:none"
         id="path4314"
         inkscape:connector-curvature="0" />
      <path
         d="m 283.61121,465.16483 -7.3035,0 -2.91625,5.82588 2.91625,5.826 7.3035,0 -3.25212,-5.826 3.25212,-5.82588 z"
         style="fill:#0055b5;fill-opacity:1;fill-rule:nonzero;stroke:none"
         id="path4316"
         inkscape:connector-curvature="0" />
      <path
         d="m 438.14334,465.16483 -7.3035,0 3.25212,5.82588 -3.25212,5.826 7.3035,0 2.91625,-5.826 -2.91625,-5.82588 z"
         style="fill:#0055b5;fill-opacity:1;fill-rule:nonzero;stroke:none"
         id="path4318"
         inkscape:connector-curvature="0" />
      <path
         d="m 421.91234,493.86446 -129.37425,0 -1.01513,2.05862 131.4045,0 -1.01512,-2.05862 z"
         style="fill:#fe6229;fill-opacity:1;fill-rule:nonzero;stroke:none"
         id="path4320"
         inkscape:connector-curvature="0" />
      <path
         d="m 351.91646,448.55134 10.49828,0 0,-2.05863 -10.49828,0 0,2.05863 z"
         style="fill:#fe6229;fill-opacity:1;fill-rule:nonzero;stroke:none"
         id="path4322"
         inkscape:connector-curvature="0" />
      <path
         d="m 422.74884,446.49246 -34.6465,0 0.19025,2.05863 33.44125,0 1.015,-2.05863 z"
         style="fill:#fe6229;fill-opacity:1;fill-rule:nonzero;stroke:none"
         id="path4324"
         inkscape:connector-curvature="0" />
      <path
         d="m 291.48784,446.49246 1.01512,2.05863 33.53725,0 0.19025,-2.05863 -34.74262,0 z"
         style="fill:#fe6229;fill-opacity:1;fill-rule:nonzero;stroke:none"
         id="path4326"
         inkscape:connector-curvature="0" />
      <path
         d="m 379.35959,453.07521 -3.08038,-62.68013 -38.32012,0 -3.23038,62.68013 5e-4,0 12.72313,0 0,-5.2415 c 0,-5.42138 4.34662,-9.813 9.71425,-9.813 2.47162,0 4.73162,0.94562 6.44537,2.48637 2.001,1.79651 3.26725,4.40513 3.26725,7.32488 l 0,5.24325 12.47925,0 0.001,0 z"
         style="fill:#a9a073;fill-opacity:1;fill-rule:nonzero;stroke:none"
         id="path4328"
         inkscape:connector-curvature="0" />
      <path
         d="m 336.50996,418.52671 -3.577,3.938 -2.82812,30.6105 4.62387,0 1.78125,-34.5485 z"
         style="fill:#70684e;fill-opacity:1;fill-rule:nonzero;stroke:none"
         id="path4330"
         inkscape:connector-curvature="0" />
      <path
         d="m 369.38759,419.70896 -0.12063,-1.10288 -3.02337,0 -0.66625,1.08875 -2.6245,0 -0.0569,-1.08875 -2.95812,0 -0.7215,1.10288 -4.19363,0 c -1.29637,0 -2.48387,-0.80313 -2.68475,-2.03725 -0.0983,-0.57875 -0.0926,-1.16488 0,-1.72438 l -1.0575,3.75763 -2.308,0.004 c 0,0 -1.22037,-2.97613 -1.5145,-3.69125 -0.20587,0.75687 -1.00337,3.69125 -1.00337,3.69125 l -2.07475,0 1.61,-5.9195 -0.71438,0 0.48725,-1.74475 2.59763,0 1.81187,4.3095 0.72163,-2.57038 -0.716,0.006 0.48887,-1.75425 2.76725,0.01 -0.803,2.83075 c 0.49325,-1.44437 2.0585,-2.8515 3.99825,-2.8515 l 3.11388,0.0113 -0.726,2.66388 -2.02175,0 c 0,0 0.16237,-0.5855 0.23937,-0.869 l -0.46375,-0.0125 c -1.09987,0 -2.18137,1.6675 -2.18137,2.81537 0,1.14913 0.918,1.37175 1.15737,1.37175 l 2.27013,0.01 2.7595,-4.22487 -0.64463,-0.0113 0.47888,-1.743 4.2265,0 0.28687,5.04475 2.0535,-3.2905 -0.64225,0 0.49163,-1.75425 4.16012,0 0.4665,6.8335 c 0.92463,-2.04963 1.44538,-4.32525 1.44538,-6.72425 0,-8.95238 -7.19038,-16.21088 -16.05413,-16.21088 -8.8655,0 -16.05012,7.2585 -16.05012,16.21088 0,8.953 7.18462,16.20587 16.05012,16.20587 6.16013,0 11.50838,-3.50075 14.1975,-8.64137 l -1.85487,0 z"
         style="fill:#0055b5;fill-opacity:1;fill-rule:nonzero;stroke:none"
         id="path4332"
         inkscape:connector-curvature="0" />
      <path
         d="m 371.65384,418.86871 -0.46663,-6.8335 -4.16012,0 -0.49163,1.75375 0.64238,0 -2.05363,3.291 -0.28675,-5.04475 -4.22662,0 -0.47875,1.743 0.6445,0.0113 -2.7595,4.22538 -2.27,-0.01 c -0.23938,0 -1.15738,-0.22262 -1.15738,-1.37174 0,-1.14788 1.0815,-2.81538 2.18138,-2.81538 l 0.46362,0.0125 c -0.077,0.2835 -0.23937,0.869 -0.23937,0.869 l 2.02175,0 0.726,-2.66387 -3.11375,-0.0113 c -1.93975,0 -3.505,1.40712 -3.99838,2.8515 l 0.803,-2.83075 -2.76725,-0.01 -0.48887,1.75375 0.716,-0.005 -0.7215,2.57037 -1.812,-4.3095 -2.59763,0 -0.48712,1.74425 0.71425,0 -1.60988,5.92 2.07475,0 c 0,0 0.79738,-2.93437 1.00338,-3.69125 0.294,0.71513 1.5145,3.69125 1.5145,3.69125 l 2.308,-0.004 1.0575,-3.75762 c -0.0928,0.55949 -0.0983,1.14562 0,1.72437 0.20087,1.23413 1.38837,2.03725 2.68462,2.03725 l 4.19363,0 0.7215,-1.10287 2.95812,0 0.057,1.08875 2.62438,0 0.66625,-1.08875 3.0235,0 0.1205,1.10287 1.85487,0 0.41138,-0.84025 z m -4.08825,-2.12738 1.60437,-2.45537 0.0849,2.45537 -1.68925,0 z m -6.438,0.0333 1.60887,-2.46499 0.0831,2.46499 -1.692,0 z"
         style="fill:#ffffff;fill-opacity:1;fill-rule:nonzero;stroke:none"
         id="path4334"
         inkscape:connector-curvature="0" />
      <path
         d="m 367.56559,416.74121 1.60437,-2.45525 0.0847,2.45525 -1.68912,0 z m -6.438,0.0333 1.60875,-2.46487 0.0831,2.46487 -1.69187,0 z"
         style="fill:#0055b5;fill-opacity:1;fill-rule:nonzero;stroke:none"
         id="path4336"
         inkscape:connector-curvature="0" />
      <path
         d="m 371.24246,419.70896 c -2.68912,5.14062 -8.03737,8.64137 -14.1975,8.64137 -4.414,0 -8.41012,-1.79775 -11.31125,-4.709 -10e-4,0.004 -0.002,0.005 -0.004,0.007 l -0.002,0.001 c 4.08875,4.12688 8.40963,7.5735 12.63788,10.3365 -0.4125,-0.0411 -0.82988,-0.0659 -1.25175,-0.0659 -7.04238,0 -12.75938,5.76837 -12.75938,12.8905 l 0,6.26375 3.09763,0 0,-5.2415 c 0,-5.42138 4.34712,-9.813 9.71475,-9.813 2.47162,0 4.73162,0.94562 6.44537,2.48637 l 2.246,-2.26937 c 4.97938,2.37525 9.50838,3.6365 12.95363,3.725 l 0.54687,11.1125 4.86888,0 -2.82763,-30.6105 -3.74487,-4.13312 -0.2495,-4.99863 c -2.11825,-4.23275 -5.16625,-8.76638 -8.96925,-12.61088 l -0.002,5e-4 c 2.88175,2.9305 4.66525,6.9665 4.66525,11.42188 0,2.399 -0.52075,4.67462 -1.44538,6.72425 l -0.41125,0.84025 z"
         style="fill:#70684e;fill-opacity:1;fill-rule:nonzero;stroke:none"
         id="path4338"
         inkscape:connector-curvature="0" />
      <path
         d="m 372.44171,421.03471 0,-0.44237 0.29413,0 c 0.15225,0 0.308,0.0321 0.308,0.21012 0,0.221 -0.16125,0.23225 -0.34713,0.23225 l -0.255,0 z m 0,0.18425 0.2495,0 0.37613,0.6205 0.23825,0 -0.40513,-0.63175 c 0.20975,-0.0271 0.36888,-0.13638 0.36888,-0.39113 0,-0.28287 -0.16688,-0.40912 -0.50175,-0.40912 l -0.53563,0 0,1.432 0.20975,0 0,-0.6205 z m 0.26063,1.1445 c 0.67412,0 1.24437,-0.524 1.24437,-1.242 0,-0.714 -0.57025,-1.23863 -1.24437,-1.23863 -0.67413,0 -1.24725,0.52463 -1.24725,1.23863 0,0.718 0.57312,1.242 1.24725,1.242 m -1.00225,-1.242 c 0,-0.58775 0.43975,-1.03075 1.00225,-1.03075 0.56025,0 0.99662,0.443 0.99662,1.03075 0,0.59737 -0.43637,1.03637 -0.99662,1.03637 -0.5625,0 -1.00225,-0.43899 -1.00225,-1.03637"
         style="fill:#a9a073;fill-opacity:1;fill-rule:nonzero;stroke:none"
         id="path4340"
         inkscape:connector-curvature="0" />
      <path
         d="m 289.16009,453.07521 -8.75388,0 1.32088,2.05863 8.75387,0 -1.32087,-2.05863 z"
         style="fill:#eeab20;fill-opacity:1;fill-rule:nonzero;stroke:none"
         id="path4342"
         inkscape:connector-curvature="0" />
      <path
         d="m 425.17246,453.07521 8.75438,0 -1.32075,2.05863 -8.7545,0 1.32087,-2.05863 z"
         style="fill:#eeab20;fill-opacity:1;fill-rule:nonzero;stroke:none"
         id="path4344"
         inkscape:connector-curvature="0" />
      <path
         d="m 281.70659,487.18921 -1.32088,2.05863 29.35488,0 0.66625,-2.05863 -28.70025,0 z"
         style="fill:#eeab20;fill-opacity:1;fill-rule:nonzero;stroke:none"
         id="path4346"
         inkscape:connector-curvature="0" />
      <path
         d="m 432.38334,487.18921 1.32087,2.05863 -29.35525,0 -0.66575,-2.05863 28.70013,0 z"
         style="fill:#eeab20;fill-opacity:1;fill-rule:nonzero;stroke:none"
         id="path4348"
         inkscape:connector-curvature="0" />
      <path
         d="m 319.08434,487.52684 1.82862,0 0.19363,-0.1725 0.30025,-1.61063 -0.18363,-0.18087 -1.76837,0 -0.3705,1.964 z m -1.16525,-3.06801 4.38287,0 0.9425,0.8775 -0.4665,2.4525 -0.94262,0.8775 -2.96425,0 -0.37888,2.03601 -1.75887,0 1.18575,-6.24351 z"
         style="fill:#eeab20;fill-opacity:1;fill-rule:nonzero;stroke:none"
         id="path4350"
         inkscape:connector-curvature="0" />
      <path
         d="m 328.48259,488.38621 -1.98325,0 -0.4375,2.31613 -1.75938,0 1.18575,-6.24351 1.75,0 -0.4665,2.48863 1.98213,0 0.47537,-2.48863 1.75,0 -1.17575,6.24351 -1.75837,0 0.4375,-2.31613 z"
         style="fill:#eeab20;fill-opacity:1;fill-rule:nonzero;stroke:none"
         id="path4352"
         inkscape:connector-curvature="0" />
      <path
         d="m 335.86709,489.48958 0.24337,-0.22599 0.63113,-3.366 -0.24338,-0.2265 -1.58362,0 -0.25275,0.2265 -0.63125,3.366 0.24337,0.22599 1.59313,0 z m -3.683,0.30775 0.83487,-4.43337 0.97263,-0.90513 3.64337,0 0.97263,0.90513 -0.8465,4.43337 -0.962,0.90501 -3.65288,0 -0.96212,-0.90501 z"
         style="fill:#eeab20;fill-opacity:1;fill-rule:nonzero;stroke:none"
         id="path4354"
         inkscape:connector-curvature="0" />
      <path
         d="m 340.98809,484.45883 4.58712,0 -0.22375,1.20326 -2.83825,0 -0.24212,1.25774 2.56637,0 -0.22437,1.20376 -2.56525,0 -0.26225,1.37562 2.87662,0 -0.23375,1.20313 -4.62562,0 1.18525,-6.24351 z"
         style="fill:#eeab20;fill-opacity:1;fill-rule:nonzero;stroke:none"
         id="path4356"
         inkscape:connector-curvature="0" />
      <path
         d="m 347.74034,484.45883 1.86662,0 1.37113,3.79151 0.73775,-3.79151 1.54575,0 -1.18638,6.24351 -1.846,0 -1.37,-3.90988 -0.75775,3.90988 -1.54525,0 1.18413,-6.24351 z"
         style="fill:#eeab20;fill-opacity:1;fill-rule:nonzero;stroke:none"
         id="path4358"
         inkscape:connector-curvature="0" />
      <path
         d="m 355.38996,484.45883 3.91513,0 -0.22325,1.16713 -1.08875,0 -0.74775,3.90813 1.09875,0 -0.22313,1.16825 -3.91687,0 0.22325,-1.16825 1.06975,0 0.72825,-3.90813 -1.05925,0 0.22387,-1.16713 z"
         style="fill:#eeab20;fill-opacity:1;fill-rule:nonzero;stroke:none"
         id="path4360"
         inkscape:connector-curvature="0" />
      <path
         d="m 363.12371,488.51246 -1.4565,2.18988 -1.98262,0 2.3615,-3.23863 -0.972,-3.00488 1.895,0 0.53462,2.06313 1.4085,-2.06313 1.914,0 -2.2935,3.01213 1.11725,3.23138 -1.8365,0 -0.68975,-2.18988 z"
         style="fill:#eeab20;fill-opacity:1;fill-rule:nonzero;stroke:none"
         id="path4362"
         inkscape:connector-curvature="0" />
      <path
         d="m 371.47184,487.90658 0.83475,-0.77762 2.692,0 0.15625,-0.137 0.23262,-1.22063 -0.126,-0.11775 -1.55525,0 -0.12562,0.11775 -0.12663,0.64188 -1.7495,0 0.20488,-1.10337 0.91287,-0.851 3.45038,0 0.94187,0.8775 -0.43687,2.29812 -0.82763,0.77875 -2.69025,0 -0.15512,0.13588 -0.17638,0.92312 3.49888,0 -0.23213,1.23013 -5.24775,0 0.52463,-2.79575 z"
         style="fill:#eeab20;fill-opacity:1;fill-rule:nonzero;stroke:none"
         id="path4364"
         inkscape:connector-curvature="0" />
      <path
         d="m 382.17096,489.48958 0.24163,-0.22599 0.63175,-3.366 -0.24275,-0.2265 -1.58375,0 -0.25338,0.2265 -0.6305,3.366 0.24325,0.22599 1.59375,0 z m -3.68362,0.30775 0.8365,-4.43337 0.97162,-0.90513 3.64225,0 0.97213,0.90513 -0.84438,4.43337 -0.96312,0.90501 -3.6535,0 -0.9615,-0.90501 z"
         style="fill:#eeab20;fill-opacity:1;fill-rule:nonzero;stroke:none"
         id="path4366"
         inkscape:connector-curvature="0" />
      <path
         d="m 386.15534,489.49921 1.21425,0 0.72937,-3.84563 -1.20587,0 0.22487,-1.19475 2.96263,0 -0.96213,5.04038 1.21538,0 -0.22313,1.20313 -4.17862,0 0.22325,-1.20313 z"
         style="fill:#eeab20;fill-opacity:1;fill-rule:nonzero;stroke:none"
         id="path4368"
         inkscape:connector-curvature="0" />
      <path
         d="m 393.41309,488.36821 2.10937,-2.6155 -3.05137,0 0.25225,-1.29388 5.10162,0 -0.19425,1.06851 -2.49725,2.99462 -0.40737,2.18038 -1.74988,0 0.43688,-2.33413 z"
         style="fill:#eeab20;fill-opacity:1;fill-rule:nonzero;stroke:none"
         id="path4370"
         inkscape:connector-curvature="0" />
      <path
         d="m 334.35196,472.36634 3.34875,-11.07413 -0.90787,11.07413 -2.44088,0 z m 6.59988,-15.14626 -6.33425,0 -7.90338,23.40788 4.5195,0 c 0.37388,0 0.63288,-0.17188 0.77463,-0.50275 l 1.12775,-3.74587 3.32812,0 -0.307,3.74587 c 0.01,0.33087 0.19925,0.50275 0.57763,0.50275 l 4.549,0 0.85612,-22.25263 c -0.0235,-0.63512 -0.5525,-1.15525 -1.18812,-1.15525"
         style="fill:#ffffff;fill-opacity:1;fill-rule:nonzero;stroke:none"
         id="path4372"
         inkscape:connector-curvature="0" />
      <path
         d="m 383.24346,475.75783 c -0.0714,0.36675 -0.29175,0.5375 -0.70087,0.5375 l -1.558,0 c -0.413,0 -0.56975,-0.17075 -0.49838,-0.5375 l 2.62725,-13.671 c 0.0693,-0.36125 0.29238,-0.532 0.70313,-0.532 l 1.553,0 c 0.41187,0 0.56587,0.17075 0.50112,0.532 l -2.62725,13.671 z m -1.75837,-18.53775 -3.31463,2.52013 -3.52737,18.36188 2.34437,2.52587 7.761,0 3.3125,-2.52587 3.52788,-18.36188 -2.34425,-2.52013 -7.7595,0 z"
         style="fill:#ffffff;fill-opacity:1;fill-rule:nonzero;stroke:none"
         id="path4374"
         inkscape:connector-curvature="0" />
      <path
         d="m 288.23146,480.62796 4.1485,0 c 0.63438,0 1.255,-0.5225 1.37713,-1.16325 l 1.67362,-8.732 3.13113,0 c 0.46037,0 0.871,-0.27613 0.99212,-0.63963 l 1.1155,-3.37287 -4.46425,0 0.99113,-5.16088 5.15337,0 c 0.63788,0 1.25388,-0.51675 1.375,-1.1575 l 0.61438,-3.18175 -11.6115,0 -4.49613,23.40788 z"
         style="fill:#ffffff;fill-opacity:1;fill-rule:nonzero;stroke:none"
         id="path4376"
         inkscape:connector-curvature="0" />
      <path
         d="m 360.39321,480.62796 4.14725,0 c 0.63288,0 1.25113,-0.5225 1.3745,-1.16325 l 1.68075,-8.732 3.12325,0 c 0.46263,0 0.87388,-0.27613 0.99225,-0.63963 l 1.11775,-3.37287 -4.46312,0 0.99162,-5.16088 5.15563,0 c 0.63387,0 1.25275,-0.51675 1.37337,-1.1575 l 0.611,-3.18175 -11.6065,0 -4.49775,23.40788 z"
         style="fill:#ffffff;fill-opacity:1;fill-rule:nonzero;stroke:none"
         id="path4378"
         inkscape:connector-curvature="0" />
      <path
         d="m 353.27659,457.22008 -5.30125,0 -4.495,23.40788 9.101,0 c 0.63837,0 1.25562,-0.5225 1.38112,-1.16325 l 0.60938,-3.175 -4.9565,0 3.66125,-19.06963 z"
         style="fill:#ffffff;fill-opacity:1;fill-rule:nonzero;stroke:none"
         id="path4380"
         inkscape:connector-curvature="0" />
      <path
         d="m 306.97896,457.22008 -4.496,23.40788 3.99663,0 c 0.63387,0 1.25387,-0.5225 1.375,-1.16325 l 4.27562,-22.24463 -5.15125,0 z"
         style="fill:#ffffff;fill-opacity:1;fill-rule:nonzero;stroke:none"
         id="path4382"
         inkscape:connector-curvature="0" />
      <path
         d="m 324.19021,457.21046 -2.1305,11.08375 -1.58312,-10.399 c -0.1145,-0.46275 -0.48388,-0.68925 -1.00225,-0.68925 l -4.21988,0.005 -4.49662,23.4175 3.65012,0 c 0.6395,0 1.25438,-0.5225 1.37938,-1.16325 l 2.11387,-11.01438 1.80138,11.49 c 0.12162,0.45875 0.48937,0.68763 0.99937,0.68763 l 3.80138,0 4.49437,-23.4175 -4.8075,0 z"
         style="fill:#ffffff;fill-opacity:1;fill-rule:nonzero;stroke:none"
         id="path4384"
         inkscape:connector-curvature="0" />
      <path
         d="m 415.62571,461.52996 2.66288,0 c 0.41512,0 0.56812,0.1685 0.49837,0.53375 l -0.99787,5.20038 c -0.0691,0.35612 -0.2895,0.52124 -0.702,0.52124 l -2.66013,0 1.19875,-6.25537 z m 5.49488,17.93475 -1.44925,-7.99037 2.8025,-2.12913 1.851,-9.614 -2.337,-2.51 -10.89063,0 -4.49887,23.40675 3.933,0 c 0.63337,0 1.529,-0.5145 1.64737,-1.153 l 1.46475,-7.61862 0.95875,0 1.5575,8.77162 3.95363,0 c 0.64175,0 1.09037,-0.5225 1.00725,-1.16325"
         style="fill:#ffffff;fill-opacity:1;fill-rule:nonzero;stroke:none"
         id="path4386"
         inkscape:connector-curvature="0" />
      <path
         d="m 399.30871,475.75783 c -0.0736,0.36675 -0.294,0.5375 -0.70925,0.5375 l -1.395,0 c -0.41575,0 -0.5675,-0.17075 -0.49612,-0.5375 l 3.5625,-18.53775 -5.33538,0 -4.01225,20.88201 2.34213,2.52587 7.636,0 3.31537,-2.52587 4.01163,-20.88201 -5.35713,0 -3.5625,18.53775 z"
         style="fill:#ffffff;fill-opacity:1;fill-rule:nonzero;stroke:none"
         id="path4388"
         inkscape:connector-curvature="0" />
      <path
         d="m 423.96271,474.26321 c 0.1685,0 0.27175,-0.0366 0.26725,-0.20288 -0.004,-0.16737 -0.20762,-0.16737 -0.3555,-0.16737 l -0.34762,0 0.01,0.37025 0.42587,0 z m 0.5585,0.88138 -0.3465,0 -0.36437,-0.608 -0.26675,0 0.0145,0.608 -0.31475,0 -0.0374,-1.52438 0.73325,0 c 0.34875,0 0.58813,0.0637 0.59763,0.46663 0.006,0.28012 -0.13113,0.43112 -0.399,0.44975 l 0.38337,0.608 z m -1.82087,-0.75513 c 0.0168,0.65375 0.5335,1.1485 1.15687,1.1485 0.6255,0 1.11713,-0.49475 1.10325,-1.1485 -0.0179,-0.65762 -0.53462,-1.14962 -1.16012,-1.14962 -0.62338,0 -1.11613,0.492 -1.1,1.14962 m -0.31688,0 c -0.0206,-0.81713 0.601,-1.4685 1.409,-1.4685 0.81025,0 1.46425,0.65137 1.48438,1.4685 0.0206,0.81662 -0.601,1.4675 -1.41125,1.4675 -0.808,0 -1.46313,-0.65088 -1.48213,-1.4675"
         style="fill:#eeab20;fill-opacity:1;fill-rule:nonzero;stroke:none"
         id="path4390"
         inkscape:connector-curvature="0" />
      <path
         d="m 330.88771,479.37346 1.28688,-4.24963 5.664,0 -0.351,4.24963 2.57975,0 0.36775,-9.56275 c -0.72313,0.0231 -1.44525,0.0467 -2.16675,0.0727 l -0.307,3.74125 -5.33425,0 1.07587,-3.56438 c -0.69975,0.0283 -1.395,0.0615 -2.092,0.0953 l -3.1105,9.21788 2.38725,0 z"
         style="fill:#eeab20;fill-opacity:1;fill-rule:nonzero;stroke:none"
         id="path4392"
         inkscape:connector-curvature="0" />
      <path
         d="m 377.46621,479.37346 6.77338,0 2.66237,-2.03438 1.31025,-6.81325 c -0.87437,-0.0501 -1.75,-0.10475 -2.62887,-0.15387 l -1.09875,5.7205 c -0.1825,0.91412 -0.87113,1.45737 -1.83925,1.45737 l -1.55588,0 c -0.77837,0 -1.23437,-0.34487 -1.47925,-0.63175 -0.24162,-0.288 -0.5,-0.77987 -0.35937,-1.4995 l 1.01887,-5.31875 c -0.91962,-0.0395 -1.8415,-0.0817 -2.76675,-0.11837 l -1.49887,7.81637 1.46212,1.57563 z"
         style="fill:#eeab20;fill-opacity:1;fill-rule:nonzero;stroke:none"
         id="path4394"
         inkscape:connector-curvature="0" />
      <path
         d="m 292.27171,479.37346 c 0.0797,-0.0135 0.22875,-0.13863 0.2455,-0.24237 l 1.10213,-5.74251 c -0.92913,0.13025 -1.8515,0.25763 -2.769,0.38838 l -1.07363,5.5965 2.495,0 z"
         style="fill:#eeab20;fill-opacity:1;fill-rule:nonzero;stroke:none"
         id="path4396"
         inkscape:connector-curvature="0" />
      <path
         d="m 364.43171,479.37346 c 0.0786,-0.0135 0.22875,-0.13863 0.24838,-0.24237 l 1.813,-9.4455 c -0.89288,-0.0191 -1.7885,-0.0355 -2.68475,-0.0456 l -1.86875,9.7335 2.49212,0 z"
         style="fill:#eeab20;fill-opacity:1;fill-rule:nonzero;stroke:none"
         id="path4398"
         inkscape:connector-curvature="0" />
      <path
         d="m 352.47646,479.37346 c 0.0793,-0.0113 0.22425,-0.13863 0.24775,-0.24237 l 0.3035,-1.58688 -4.95475,0 1.51788,-7.91325 c -0.90238,0.0135 -1.80413,0.0236 -2.70363,0.0411 l -1.8655,9.70138 7.45475,0 z"
         style="fill:#eeab20;fill-opacity:1;fill-rule:nonzero;stroke:none"
         id="path4400"
         inkscape:connector-curvature="0" />
      <path
         d="m 306.37084,479.37346 c 0.0836,-0.0113 0.2315,-0.13863 0.24825,-0.24237 l 1.41237,-7.344 c -0.87275,0.0856 -1.736,0.17412 -2.59812,0.26425 l -1.40688,7.32212 2.34438,0 z"
         style="fill:#eeab20;fill-opacity:1;fill-rule:nonzero;stroke:none"
         id="path4402"
         inkscape:connector-curvature="0" />
      <path
         d="m 320.87334,479.37009 2.57087,0.004 1.70813,-8.90563 c -0.7455,0.0456 -1.49388,0.0919 -2.23488,0.13863 l -0.98112,5.122 -0.76338,-5.00025 c -0.54462,0.0377 -1.09425,0.0777 -1.63662,0.11262 l 1.337,8.52925 z"
         style="fill:#eeab20;fill-opacity:1;fill-rule:nonzero;stroke:none"
         id="path4404"
         inkscape:connector-curvature="0" />
      <path
         d="m 314.30534,479.37346 c 0.0681,-0.007 0.21987,-0.13188 0.24162,-0.24237 l 1.54188,-8.01688 c -0.75163,0.0569 -1.49663,0.12625 -2.24213,0.18937 l -1.54687,8.06988 2.0055,0 z"
         style="fill:#eeab20;fill-opacity:1;fill-rule:nonzero;stroke:none"
         id="path4406"
         inkscape:connector-curvature="0" />
      <path
         d="m 410.42696,479.37346 c 0.15513,-0.005 0.46825,-0.1865 0.53688,-0.30038 l 1.2505,-6.52974 c -0.89738,-0.10488 -1.79575,-0.20626 -2.7025,-0.30213 l -1.37063,7.13225 2.28575,0 z"
         style="fill:#eeab20;fill-opacity:1;fill-rule:nonzero;stroke:none"
         id="path4408"
         inkscape:connector-curvature="0" />
      <path
         d="m 417.19759,479.37346 2.64725,0 -1.09588,-6.02313 c -0.89012,-0.115 -1.78237,-0.23225 -2.68475,-0.346 l 1.13338,6.36913 z"
         style="fill:#eeab20;fill-opacity:1;fill-rule:nonzero;stroke:none"
         id="path4410"
         inkscape:connector-curvature="0" />
      <path
         d="m 393.74234,479.37346 6.6495,0 2.66912,-2.03438 1.072,-5.58475 c -0.89625,-0.089 -1.79975,-0.17575 -2.70312,-0.253 l -0.88338,4.59113 c -0.18362,0.91637 -0.87162,1.45737 -1.84212,1.45737 l -1.394,0 c -0.7795,0 -1.23825,-0.34487 -1.47925,-0.63175 -0.23838,-0.28799 -0.50175,-0.77987 -0.36325,-1.49949 l 0.83975,-4.35338 c -0.89175,-0.0739 -1.7885,-0.141 -2.69413,-0.20575 l -1.32987,6.93837 1.45875,1.57563 z"
         style="fill:#eeab20;fill-opacity:1;fill-rule:nonzero;stroke:none"
         id="path4412"
         inkscape:connector-curvature="0" />
      <path
         d="m 351.70296,504.76046 12.44963,0 2.28687,3.41175 6.26,-0.74612 29.44463,0 -0.173,-5.78475 -89.6095,0 -0.16125,5.3965 13.57475,-3.01275 16.914,1.63262 5.79787,1.433 1.02575,0 2.19025,-2.33025 z"
         style="fill:#fe6229;fill-opacity:1;fill-rule:nonzero;stroke:none"
         id="path4414"
         inkscape:connector-curvature="0" />
      <path
         d="m 370.99309,521.71584 c -0.64963,0.86112 -1.16575,1.6675 -1.58088,2.43049 2.04625,0.94901 3.7745,2.12913 5.07638,3.476 1.22762,-0.97662 2.37662,-2.04912 3.43362,-3.20937 l -6.92912,-2.69712 z"
         style="fill:#fe6229;fill-opacity:1;fill-rule:nonzero;stroke:none"
         id="path4416"
         inkscape:connector-curvature="0" />
      <path
         d="m 348.81796,522.73246 0,-6.2e-4 c 1.95138,-0.5365 4.07025,-0.89313 6.29963,-1.029 l 0,-4.57088 -7.8225,3.04425 c 0.61437,0.89262 1.11037,1.74138 1.52287,2.55625"
         style="fill:#fe6229;fill-opacity:1;fill-rule:nonzero;stroke:none"
         id="path4418"
         inkscape:connector-curvature="0" />
      <path
         d="m 337.57521,531.19408 0,5e-4 c -1.9525,-1.52324 -3.73537,-3.25212 -5.30687,-5.16987 l -1.68025,0.65425 c 1.70712,3.55987 4.1055,6.70837 6.99662,9.308 -0.26725,-0.77875 -0.409,-1.58413 -0.409,-2.40975 0,-0.816 0.13788,-1.61275 0.3995,-2.38313"
         style="fill:#fe6229;fill-opacity:1;fill-rule:nonzero;stroke:none"
         id="path4420"
         inkscape:connector-curvature="0" />
      <path
         d="m 339.84371,527.62284 c 1.30188,-1.34738 3.03013,-2.528 5.077,-3.47701 -0.41687,-0.763 -0.932,-1.56887 -1.5815,-2.43 l -6.92912,2.69713 c 1.05687,1.16025 2.20587,2.23275 3.43362,3.20987"
         style="fill:#fe6229;fill-opacity:1;fill-rule:nonzero;stroke:none"
         id="path4422"
         inkscape:connector-curvature="0" />
      <path
         d="m 367.03709,520.17684 -7.8225,-3.04488 0,4.57088 c 2.22987,0.13587 4.34825,0.4925 6.30025,1.029 0.41237,-0.81426 0.9085,-1.66301 1.52225,-2.555"
         style="fill:#fe6229;fill-opacity:1;fill-rule:nonzero;stroke:none"
         id="path4424"
         inkscape:connector-curvature="0" />
      <path
         d="m 383.74471,526.67896 -1.68087,-0.65425 c -1.57088,1.91775 -3.35425,3.64663 -5.30625,5.16937 0.26112,0.77038 0.399,1.56713 0.399,2.38313 0,0.82562 -0.14175,1.631 -0.40913,2.40925 2.89125,-2.59913 5.29025,-5.74763 6.99725,-9.3075"
         style="fill:#fe6229;fill-opacity:1;fill-rule:nonzero;stroke:none"
         id="path4426"
         inkscape:connector-curvature="0" />
      <path
         d="m 355.11759,533.61733 0,-11.9145 c -2.22938,0.13588 -4.34825,0.4925 -6.29963,1.029 0,0 2.46975,4.13588 1.62775,10.13025 0,0 1.7935,0.50163 4.67188,0.75525"
         style="fill:#eeab20;fill-opacity:1;fill-rule:nonzero;stroke:none"
         id="path4428"
         inkscape:connector-curvature="0" />
      <path
         d="m 344.92071,524.14583 c -2.04687,0.94901 -3.77512,2.12963 -5.077,3.47701 0,0 2.22375,1.97812 6.59925,3.92962 0,0 0.55975,-3.703 -1.52225,-7.40662"
         style="fill:#eeab20;fill-opacity:1;fill-rule:nonzero;stroke:none"
         id="path4430"
         inkscape:connector-curvature="0" />
      <path
         d="m 346.09584,541.38458 c 2.81862,1.15975 5.8515,1.889 9.02175,2.1105 l 0,-5.56387 c 0,0 -2.31975,-0.0739 -5.77738,-0.92025 0,0 -0.91125,2.19212 -3.24437,4.37362"
         style="fill:#eeab20;fill-opacity:1;fill-rule:nonzero;stroke:none"
         id="path4432"
         inkscape:connector-curvature="0" />
      <path
         d="m 342.02446,539.32821 c -1.58425,-0.96313 -3.05975,-2.08675 -4.43412,-3.32375 -0.27125,-0.78387 -0.41463,-1.59537 -0.41463,-2.42725 0,-0.816 0.13775,-1.61275 0.3995,-2.38312 0,0 3.26338,2.72575 7.82925,4.52862 0,0 -1.02962,2.05913 -3.38,3.6055"
         style="fill:#eeab20;fill-opacity:1;fill-rule:nonzero;stroke:none"
         id="path4434"
         inkscape:connector-curvature="0" />
      <path
         d="m 359.21471,533.61733 0,-11.9145 c 2.22988,0.13588 4.34813,0.4925 6.29963,1.029 0,0 -2.46988,4.13588 -1.62725,10.13025 0,0 -1.79413,0.50163 -4.67238,0.75525"
         style="fill:#eeab20;fill-opacity:1;fill-rule:nonzero;stroke:none"
         id="path4436"
         inkscape:connector-curvature="0" />
      <path
         d="m 369.41221,524.14583 c 2.04675,0.94901 3.775,2.12963 5.07638,3.47701 0,0 -2.22325,1.97812 -6.59875,3.92962 0,0 -0.56025,-3.703 1.52237,-7.40662"
         style="fill:#eeab20;fill-opacity:1;fill-rule:nonzero;stroke:none"
         id="path4438"
         inkscape:connector-curvature="0" />
      <path
         d="m 368.23634,541.38458 c -2.81863,1.15975 -5.8515,1.889 -9.02163,2.1105 l 0,-5.56387 c 0,0 2.31975,-0.0739 5.77788,-0.92025 0,0 0.91062,2.19212 3.24375,4.37362"
         style="fill:#eeab20;fill-opacity:1;fill-rule:nonzero;stroke:none"
         id="path4440"
         inkscape:connector-curvature="0" />
      <path
         d="m 372.30784,539.32821 c 1.58425,-0.96313 3.06025,-2.08675 4.43412,-3.32375 0.27113,-0.78387 0.41463,-1.59537 0.41463,-2.42725 0,-0.816 -0.13788,-1.61275 -0.399,-2.38312 0,0 -3.26338,2.72575 -7.82975,4.52862 0,0 1.03012,2.05913 3.38,3.6055"
         style="fill:#eeab20;fill-opacity:1;fill-rule:nonzero;stroke:none"
         id="path4442"
         inkscape:connector-curvature="0" />
    </g>
  </g>
</svg>
