<?xml version="1.0" encoding="utf-8"?>
<!-- Generator: Adobe Illustrator 12.0.0, SVG Export Plug-In . SVG Version: 6.00 Build 51448)  -->
<!DOCTYPE svg PUBLIC "-//W3C//DTD SVG 1.1//EN" "http://www.w3.org/Graphics/SVG/1.1/DTD/svg11.dtd" [
	<!ENTITY ns_svg "http://www.w3.org/2000/svg">
	<!ENTITY ns_xlink "http://www.w3.org/1999/xlink">
]>
<svg  version="1.1" id="Layer_1" xmlns="&ns_svg;" xmlns:xlink="&ns_xlink;" width="234.609" height="159.477"
	 viewBox="0 0 234.609 159.477" overflow="visible" enable-background="new 0 0 234.609 159.477" xml:space="preserve">
<g>
	<g>
		<path fill="#FFFFFF" d="M147.734,10.127c-2.957-0.945-5.883-1.65-10.254-2.547c-2.316-0.469-7.174-1.193-9.486-1.486l-0.166-0.021
			l-0.18-0.023c-1.34-0.086-8.152-0.611-12.111-0.611h-0.025c-3.822,0-9.848,0.482-11.605,0.611l-0.172,0.023
			c-9.549,0.992-16.092,2.521-23.563,4.674l0.033,0.014c-0.08,0.029-0.146,0.008-0.213,0.041c-4.395,1.23-10.926,3.148-19.172,7.406
			c-3.092,0-24.85,0-24.85,0l-0.143,0.01c-10.801,0.445-21.932,10.16-23.803,20.805L0.307,105.399C0.105,106.61,0,107.834,0,109.061
			c0,4.221,1.268,8.285,3.703,11.674l-0.576-0.955c0.711,1.41,1.58,2.713,2.592,3.934c1.729,2.031,3.871,3.648,6.25,4.895
			c0.438,3.527,1.793,6.816,4.113,9.596c1.055,1.248,2.295,2.373,3.65,3.303c0.461,2.424,1.289,4.67,2.51,6.682
			c3.014,4.936,9.645,10.738,24.176,10.617c17.506,3.188,41.631-5.551,59.502-13.881c3.023,0,49.16,0,49.16,0
			c9.092,0,17.496-5.857,21.154-13.961c8.756-0.818,19.225-9.088,21.068-20.072c-0.006,0.047,3.094-17.525,3.094-17.525l0.199-1.082
			c0,0,2.344-13.217,2.955-16.645c3.117-3.176,6.133-6.367,9.002-9.547c10.246-4.646,17.998-13.508,20.857-24.102
			c0.809-2.969,1.199-5.98,1.199-8.93c0-6.057-1.662-11.885-4.924-17.031c-4.844-7.643-12.566-12.752-21.779-14.404
			c-2.623-0.459-5.33-0.611-8.039-0.459C184.881-2.666,163.838,3.627,147.734,10.127z M160.369,15.137l-0.045-0.012l0.191,0.09
			c-0.045-0.023-0.082-0.035-0.119-0.047L160.369,15.137z M198.395,63.461c2.367,1.115,3.496,1.639,4.748,2.248
			c-1.09,0.965-1.393,1.201-2.338,2.053C200.275,66.829,199.6,65.612,198.395,63.461z M12.207,122.096l0.039-0.164
			C12.24,121.946,12.225,121.999,12.207,122.096L12.207,122.096z"/>
	</g>
	<g>
		<path fill="#FFFFFF" d="M206.701,8.387c-2.488-0.426-5.047-0.57-7.627-0.316l0.16,0.014c-10.797-3.289-29.025,0.02-51.334,9.367
			l-0.93,0.406l0.943,0.35l1.504,0.602l0.152,0.051l0.15-0.051c17.854-7.203,32.998-10.246,42.633-8.541l-0.061-0.799
			c-7.992,2.656-14.652,8.428-18.242,15.832l0.363-0.213h-10.18l-0.09,0.785l-0.063-0.023l0.023,0.01h0.02l0.129-0.771h0.064h-0.027
			c-0.047,0-0.086,0-0.086,0v0.795l0.119-0.795c0,0-0.023,0-0.1-0.047c0.029,0.014-1.861-1.025-1.861-1.025
			c-1.508-0.852-3.375-1.91-5.035-2.721c-1.293-0.676-2.305-1.145-3.129-1.486c-7.455-2.977-10.207-3.896-18.086-5.504
			c-2.141-0.445-6.82-1.121-8.971-1.395c-0.027-0.014-0.094-0.014-0.094-0.014c-1.818-0.129-8.002-0.598-11.512-0.598
			c-3.777,0-10.328,0.551-11.074,0.598c-9.072,0.939-15.283,2.404-22.4,4.434l0.336,0.732l0.283-0.186l-0.139-0.326
			c-0.145-0.32-0.43-0.221-0.666-0.141c-4.678,1.309-11.086,3.143-19.477,7.717l0.191,0.756h0.141l-0.1-0.775l-0.27,0.043
			l0.299,0.762l0.057-0.039l0.07-0.047l-0.197-0.738H36.119C28.512,25.383,20.1,32.735,18.777,40.2l-8.506,48.223l-3.215,18.182
			c-0.615,3.678,0.176,7.27,2.227,10.133l-0.031-0.057c0.465,0.941,1.049,1.805,1.705,2.6c2.064,2.447,5.014,4.107,8.299,4.674
			l-0.33-0.492c-0.002,0.047-0.008,0.08-0.031,0.146c-0.016,0.053-0.033,0.143-0.051,0.227c-0.656,3.721,0.236,7.262,2.496,9.959
			c1.324,1.57,3.027,2.73,5.039,3.473l-0.277-0.371c0.01,2.994,0.674,5.57,1.998,7.711c3.068,5.033,9.385,7.502,18.758,7.316
			l-0.088-0.01c12.635,2.719,33.117-2.24,57.703-13.902l-0.166,0.045h50.773c7.541,0,14.73-5.979,16.029-13.326
			c0.053-0.25,0.08-0.512,0.102-0.748l0.012-0.158l-0.4,0.361h3.936c5.313,0.012,14.313-5.699,15.777-14.438
			c0,0.014,3.105-17.574,3.105-17.574l0.16-0.848l3.379-19.08l-0.105,0.205c3.967-3.975,7.809-8.035,11.391-12.057l-0.156,0.096
			c9.117-3.588,16.021-11.18,18.479-20.275c1.949-7.209,0.922-14.494-2.896-20.502C220.096,13.717,213.986,9.688,206.701,8.387z
			 M226.008,40.008c-2.391,8.867-9.121,16.244-17.986,19.76l-0.094,0.012l-0.068,0.066c-3.572,4.031-7.404,8.074-11.359,12.037
			l-0.09,0.088l-0.023,0.127l-3.389,19.084l-0.148,0.842l-3.113,17.578c-1.391,8.326-9.934,13.805-14.979,13.785h-3.936h-0.355
			l-0.047,0.346l-0.018,0.141c-0.023,0.256-0.039,0.486-0.092,0.705c-1.219,6.99-8.061,12.656-15.23,12.656h-50.773h-0.088
			l-0.086,0.043c-24.42,11.598-44.736,16.521-57.189,13.859h-0.051h-0.041c-9.078,0.152-15.146-2.197-18.072-6.932
			c-1.227-2.01-1.861-4.494-1.861-7.311v-0.293l-0.27-0.102c-1.877-0.666-3.461-1.744-4.693-3.219
			c-2.105-2.514-2.926-5.822-2.316-9.301c0.006-0.08,0.023-0.135,0.043-0.188c0.012-0.061,0.027-0.123,0.041-0.156l0.08-0.43
			l-0.406-0.061c-3.09-0.512-5.861-2.109-7.814-4.387c-0.635-0.746-1.17-1.568-1.613-2.449l-0.01-0.014l-0.02-0.033
			c-1.934-2.684-2.664-6.059-2.086-9.521l3.215-18.197l8.51-48.225c1.254-7.098,9.303-14.135,16.566-14.438
			c-0.025,0,26.447,0,26.447,0L62.4,25.127l-0.064,0.023l-0.057,0.043l0.291,0.742l0.256-0.063l-0.094-0.785h-0.141l0.197,0.738
			c8.326-4.508,14.666-6.344,19.301-7.666l0.189-0.043l-0.467-0.221l0.145-0.486l0.328,0.707c7.074-2.031,13.252-3.463,22.236-4.4
			c0.744-0.078,7.271-0.619,11.016-0.619c3.477,0,9.645,0.465,11.445,0.619c0.072,0,0.072,0,0.082,0
			c2.115,0.262,6.771,0.961,8.883,1.385c7.824,1.584,10.555,2.516,17.951,5.451c0.793,0.32,1.797,0.787,3.053,1.465
			c1.668,0.818,3.531,1.867,5.029,2.717l1.879,1.053c0.152,0.039,0.223,0.072,0.303,0.096l0.072-0.795l-0.029,0.795l0.029,0.01
			c-0.025,0,0.02,0,0.02,0l0.131-0.785h-0.02c-0.014,0-0.027,0-0.027,0l-0.104,0.775h10.18h0.256l0.107-0.217
			c3.494-7.24,9.986-12.836,17.775-15.432l-0.066-0.779c-9.92-1.725-24.82,1.225-43.074,8.602h0.293l-1.506-0.619l0.008,0.76
			C170.35,8.932,188.385,5.614,198.99,8.87l0.08,0.02h0.07c2.514-0.236,5.01-0.139,7.42,0.293
			c7.061,1.246,12.969,5.146,16.654,10.959C226.902,25.936,227.904,33.004,226.008,40.008z"/>
		<path fill="#FFFFFF" d="M48.039,148.264c-5.207-0.756-8.844-2.768-10.818-5.986c-0.828-1.363-1.363-2.949-1.588-4.695
			l-0.396,0.473h51.9l-0.16-0.777c-15.283,6.619-28.768,10.439-39.021,10.986H48.039z M87.137,137.235h-51.9h-0.461l0.063,0.447
			c0.24,1.867,0.805,3.57,1.699,5.002c2.096,3.449,5.938,5.594,11.387,6.398l0.031,0.01h0.047
			c10.346-0.578,23.928-4.391,39.307-11.082L87.137,137.235z"/>
		<path fill="#FFFFFF" d="M29.613,142.008c-0.84-1.396-1.375-3.016-1.596-4.82l-0.494,0.416c1.119,0.311,2.266,0.451,3.4,0.451
			h3.193l-0.408-0.395c0.082,2.773,0.75,5.211,1.984,7.229c0.857,1.396,1.959,2.619,3.305,3.637l0.32-0.697
			C34.715,146.956,31.453,144.991,29.613,142.008z M39.492,147.915c-1.258-1.006-2.307-2.15-3.113-3.463
			c-1.158-1.891-1.779-4.193-1.855-6.813l-0.012-0.404h-0.395h-3.193c-1.059,0-2.145-0.119-3.209-0.393l-0.564-0.152l0.068,0.576
			c0.227,1.947,0.805,3.672,1.707,5.156c1.959,3.199,5.412,5.285,10.242,6.191L39.492,147.915z"/>
		<path fill="#FFFFFF" d="M88.182,141.053c2.26-0.949,4.563-1.986,6.871-3.043l-0.174,0.045h0.477l-0.17-0.777
			c-2.461,1.072-4.906,2.107-7.305,3.033L88.182,141.053z M95.355,137.235h-0.477h-0.094l-0.08,0.043
			c-2.297,1.059-4.596,2.098-6.844,3.033l0.311,0.742c2.4-0.936,4.877-1.971,7.34-3.043L95.355,137.235z"/>
		<path fill="#FFFFFF" d="M198.381,65.45l0.373-2.121l0.193-1.059l-0.379,0.326c0.805-0.039,1.541-0.082,2.236-0.18l-0.375-0.648
			c-0.879,1.102-1.801,2.24-2.748,3.355L198.381,65.45z M200.701,61.618c-0.678,0.074-1.387,0.141-2.176,0.174l-0.324,0.023
			l-0.049,0.316l-0.189,1.049l-0.377,2.129l-0.26,1.463l0.955-1.113c0.963-1.125,1.904-2.27,2.787-3.389l0.609-0.758L200.701,61.618
			z"/>
	</g>
	<g>
		<path fill="#0E486A" d="M149.57,18.417c19.682-7.908,36.064-10.893,45.766-7.889c1.918-0.359,3.889-0.436,5.879-0.188
			c1.092,0.168,2.131,0.396,3.135,0.703c-9.334-6.994-30.398-4.051-56.289,6.791L149.57,18.417z"/>
	</g>
	<g>
		<g>
			<path fill-rule="evenodd" clip-rule="evenodd" fill="#FFFFFF" d="M116.586,14.526l11.375,0.416c2.164,0.25,6.791,0.949,8.9,1.365
				c7.986,1.637,10.693,2.576,17.922,5.473c3.51,1.385,9.674,5.328,10.357,5.328h25.271c6.572,0,11.73,7.074,11.002,12.326
				c-0.445,3.209-11.857,67.176-12.344,70.072c-1.301,7.699-9.307,13.201-14.313,13.182H21.787c-7.4,0-13.787-6.105-12.322-14.863
				c0.115-0.654,7.873-44.516,11.725-66.387c1.229-7.004,8.592-14.037,15.865-14.33h26.604c8.484-4.643,14.955-6.455,19.605-7.779
				c7.162-2.064,13.346-3.482,22.205-4.387L116.586,14.526z"/>
		</g>
	</g>
	<g>
		<g>
			<path fill-rule="evenodd" clip-rule="evenodd" fill="#FFFFFF" d="M115.646,13.458l11.375,0.379
				c2.158,0.273,6.801,0.951,8.908,1.391c7.982,1.635,10.686,2.574,17.916,5.467c3.516,1.398,9.68,5.318,10.359,5.318h25.279
				c6.564,0,11.73,7.092,10.998,12.33c-0.447,3.213-11.863,67.176-12.35,70.072c-1.293,7.719-9.309,13.223-14.301,13.191H20.846
				c-7.391,0-14.32-6.115-12.846-14.842c0.113-0.676,7.859-44.514,11.717-66.396c1.232-7.037,9.123-14.049,16.402-14.355h26.613
				c8.482-4.627,14.959-6.443,19.594-7.762c7.166-2.084,13.342-3.496,22.207-4.414L115.646,13.458z"/>
		</g>
	</g>
	<g>
		<path fill-rule="evenodd" clip-rule="evenodd" d="M20.963,115.895c-2.307,0-4.307-0.877-5.629-2.447
			c-1.352-1.639-1.869-3.828-1.451-6.215c0,0.01,11.635-65.721,11.635-65.721c0.91-5.189,5.842-9.381,10.992-9.381h26.994h0.551
			l0.469-0.275c14.84-7.939,32.826-12.314,50.668-12.314c17.75,0,34.104,4.344,46.047,12.217l0.547,0.373h0.652h24.619
			c2.291,0,4.275,0.861,5.59,2.4c1.354,1.617,1.877,3.832,1.457,6.229l-11.678,65.711c-0.898,5.119-5.971,9.434-11.078,9.434
			L20.963,115.895z M171.348,120.252c7.197,0,14.074-5.842,15.344-13.02l11.666-65.707c0.66-3.695-0.195-7.145-2.389-9.768
			c-2.154-2.563-5.324-3.961-8.912-3.961h-24.619l1.186,0.346c-12.637-8.334-29.848-12.951-48.432-12.951
			c-18.545,0-37.264,4.59-52.715,12.846l1.027-0.254H36.51c-7.273,0-13.98,5.693-15.258,12.977L9.619,106.477
			c-0.645,3.676,0.199,7.123,2.406,9.746c2.15,2.578,5.33,3.986,8.938,3.986L171.348,120.252z"/>
	</g>
	<g>
		<g>
			<path fill="none" d="M63.658,26.012h-0.264c-0.082,0.057-0.162,0.102-0.246,0.154L63.658,26.012z"/>
		</g>
		<g>
			<path fill="none" d="M165.316,26.036c-0.006,0-0.033-0.023-0.061-0.023h-0.115C165.25,26.012,165.311,26.036,165.316,26.036z"/>
		</g>
		<g>
			<path fill="#FFFFFF" d="M105.512,16.03h0.039c0.008,0,0.02,0,0.033,0H105.512z"/>
		</g>
		<g>
			<path fill="#FFFFFF" d="M127.824,16.024c0.004,0,0.037,0.006,0.043,0.006h0.051L127.824,16.024z"/>
		</g>
		<g>
			<polygon fill="#FFFFFF" points="116.535,15.608 116.59,15.614 116.623,15.608 			"/>
		</g>
	</g>
	<g>
		<g>
			<path fill="none" d="M62.732,25.481h-0.141c-0.035,0.02-0.082,0.053-0.125,0.066L62.732,25.481z"/>
		</g>
		<g>
			<path fill="none" d="M164.254,25.481c-0.01,0-0.01,0-0.02,0h-0.029C164.23,25.481,164.254,25.481,164.254,25.481z"/>
		</g>
		<g>
			<path fill="#92424B" d="M199.277,30.37c-1.309-1.514-2.887-2.662-4.561-3.424c-1.65-0.943-3.436-1.465-5.232-1.465h-25.25
				c0.01,0,0.01,0,0.02,0c0,0-0.023,0-0.049,0h0.029c-0.037,0-0.09-0.014-0.176-0.066c-0.572-0.307-1.248-0.68-1.891-1.025
				c-1.551-0.906-3.383-1.9-5.02-2.734c-1.115-0.588-2.191-1.102-3.109-1.461c-7.424-2.969-10.154-3.9-18.006-5.473
				c-2.127-0.445-6.781-1.131-8.945-1.408c-0.039-0.01-7.559-0.621-11.551-0.621c-4,0-11.021,0.611-11.064,0.621
				c-9.002,0.92-15.213,2.381-22.297,4.424l-0.203,0.041c-4.65,1.338-11.031,3.145-19.381,7.703h0.141l-0.266,0.066
				c0.043-0.014,0.09-0.047,0.125-0.066H36.119c-7.43,0.316-15.66,7.477-16.938,14.773l-8.508,48.24L7.455,106.67
				c-0.6,3.602,0.16,7.064,2.164,9.826c0.443,0.906,0.992,1.744,1.654,2.51c2.557,3.023,6.398,4.773,10.514,4.773h152.971
				c5.18,0.014,13.947-5.592,15.379-14.107l3.115-17.566c3.549-20.049,8.928-50.32,9.23-52.537
				C202.893,36.629,201.656,33.104,199.277,30.37z M200.482,38.342c-0.447,3.213-11.863,67.176-12.35,70.072
				c-1.293,7.719-9.309,13.223-14.301,13.191H20.846c-7.391,0-14.32-6.115-12.846-14.842c0.113-0.676,7.859-44.514,11.717-66.396
				c1.232-7.037,9.123-14.049,16.402-14.355h26.613c8.482-4.627,14.959-6.443,19.594-7.762c7.166-2.084,13.342-3.496,22.207-4.414
				l11.113-0.379l11.375,0.379c2.158,0.273,6.801,0.951,8.908,1.391c7.982,1.635,10.686,2.574,17.916,5.467
				c3.516,1.398,9.68,5.318,10.359,5.318h25.279C196.049,26.012,201.215,33.104,200.482,38.342z"/>
			<path fill="#92424B" d="M199.584,30.1c-1.332-1.531-2.971-2.756-4.711-3.494l0.027,0.023c-1.709-1.029-3.58-1.541-5.416-1.541
				h-25.25l-0.09,0.785l-0.063-0.023l0.023,0.01h0.02l0.129-0.771h0.064h-0.027c-0.047,0-0.086,0-0.086,0v0.795l0.119-0.795
				c0,0-0.023,0-0.1-0.047c0.029,0.014-1.861-1.025-1.861-1.025c-1.508-0.852-3.375-1.91-5.035-2.721
				c-1.293-0.676-2.305-1.145-3.129-1.486c-7.455-2.977-10.207-3.896-18.086-5.504c-2.141-0.445-6.82-1.121-8.971-1.395
				c-0.027-0.014-0.094-0.014-0.094-0.014c-1.818-0.129-8.002-0.598-11.512-0.598c-3.777,0-10.328,0.551-11.074,0.598
				c-9.072,0.939-15.283,2.404-22.4,4.434l0.336,0.732l0.283-0.186l-0.139-0.326c-0.145-0.32-0.43-0.221-0.666-0.141
				c-4.678,1.309-11.086,3.143-19.477,7.717l0.191,0.756h0.141l-0.1-0.775l-0.27,0.043l0.299,0.762l0.057-0.039l0.07-0.047
				l-0.197-0.738H36.119C28.512,25.383,20.1,32.735,18.777,40.2l-8.506,48.223l-3.215,18.182c-0.615,3.678,0.176,7.27,2.227,10.133
				l-0.031-0.057c0.465,0.941,1.049,1.805,1.705,2.6c2.637,3.115,6.586,4.904,10.83,4.904h152.971
				c5.313,0.012,14.313-5.699,15.777-14.438c0,0.014,3.105-17.574,3.105-17.574l0.348-1.967c3.625-20.432,8.604-48.441,8.896-50.584
				C203.318,36.573,202.047,32.926,199.584,30.1z M202.086,39.522c-0.303,2.109-5.26,30.098-8.887,50.533l-0.35,1.969l-3.113,17.578
				c-1.391,8.326-9.934,13.805-14.979,13.785H21.787c-3.994,0-7.723-1.684-10.205-4.627c-0.635-0.746-1.17-1.568-1.613-2.449
				l-0.01-0.014l-0.02-0.033c-1.934-2.684-2.664-6.059-2.086-9.521l3.215-18.197l8.51-48.225
				c1.254-7.098,9.303-14.135,16.566-14.438c-0.025,0,26.447,0,26.447,0L62.4,25.127l-0.064,0.023l-0.057,0.043l0.291,0.742
				l0.256-0.063l-0.094-0.785h-0.141l0.197,0.738c8.326-4.508,14.666-6.344,19.301-7.666l0.189-0.043l-0.467-0.221l0.145-0.486
				l0.328,0.707c7.074-2.031,13.252-3.463,22.236-4.4c0.744-0.078,7.271-0.619,11.016-0.619c3.477,0,9.645,0.465,11.445,0.619
				c0.072,0,0.072,0,0.082,0c2.115,0.262,6.771,0.961,8.883,1.385c7.824,1.584,10.555,2.516,17.951,5.451
				c0.793,0.32,1.797,0.787,3.053,1.465c1.668,0.818,3.531,1.867,5.029,2.717l1.879,1.053c0.152,0.039,0.223,0.072,0.303,0.096
				l0.072-0.795l-0.029,0.795l0.029,0.01c-0.025,0,0.02,0,0.02,0l0.131-0.785h-0.02c-0.014,0-0.027,0-0.027,0l-0.104,0.775h25.25
				c1.689,0,3.428,0.49,5.025,1.418l0.014,0.01l0.02,0.014c1.648,0.719,3.176,1.871,4.434,3.309
				C201.287,33.29,202.482,36.686,202.086,39.522z"/>
			<path fill="#92424B" d="M200.082,38.28c-0.303,2.18-5.672,32.412-9.221,52.408c-1.658,9.342-2.963,16.73-3.121,17.65
				c-1.256,7.514-9.182,12.895-13.908,12.865H20.846c-3.799,0-7.502-1.684-9.896-4.514c-2.268-2.684-3.176-6.178-2.561-9.846
				l3.393-19.211l8.328-47.193c1.221-6.91,9.008-13.738,16.035-14.014c-0.025,0,26.588,0,26.588,0h0.094l0.1-0.053
				c8.328-4.574,14.676-6.365,19.316-7.678l0.189-0.039c7.041-2.045,13.193-3.477,22.141-4.404
				c-0.02,0.006,11.092-0.416,11.092-0.416c-0.041,0,11.338,0.422,11.338,0.422c2.123,0.268,6.758,0.949,8.842,1.383
				c7.783,1.557,10.498,2.49,17.859,5.426c1.893,0.732,4.623,2.297,6.803,3.508c2.494,1.404,3.32,1.852,3.699,1.852h25.279
				c2.803,0,5.621,1.404,7.746,3.834C199.338,32.698,200.43,35.747,200.082,38.28z M189.484,25.62h-25.279c0.02,0,0.02,0,0.02,0
				c-0.299-0.043-1.904-0.959-3.318-1.734c-2.207-1.264-4.957-2.775-6.908-3.582c-7.416-2.938-10.152-3.857-17.984-5.461
				c-2.107-0.414-6.775-1.105-8.939-1.385c-0.033,0-11.41-0.42-11.41-0.42c-0.041,0-11.143,0.42-11.143,0.42
				c-9.033,0.914-15.229,2.369-22.305,4.42l-0.188,0.033c-4.684,1.332-11.088,3.156-19.49,7.766l0.193-0.057H36.119
				c-7.363,0.307-15.535,7.43-16.801,14.668l-8.334,47.209l-3.387,19.188c-0.672,3.924,0.318,7.67,2.744,10.521
				c2.533,3.016,6.467,4.816,10.504,4.816h152.986c4.939,0.008,13.328-5.365,14.707-13.555c0.148-0.918,1.457-8.289,3.129-17.635
				c3.535-20,8.908-50.252,9.213-52.445c0.387-2.727-0.789-6.059-3.041-8.658C195.563,27.118,192.516,25.62,189.484,25.62z"/>
		</g>
		<g>
			<path fill="#FFFFFF" d="M189.484,26.012h-25.279c-0.68,0-6.844-3.92-10.359-5.318c-7.23-2.893-9.934-3.832-17.916-5.467
				c-2.107-0.439-6.75-1.117-8.908-1.391c0,0-7.34-0.652-11.523-0.686c-4.172-0.033-10.965,0.686-10.965,0.686
				c-8.865,0.918-15.041,2.33-22.207,4.414c-4.635,1.318-11.111,3.135-19.594,7.762H36.119c-7.279,0.307-15.17,7.318-16.402,14.355
				C15.859,62.25,8.113,106.088,8,106.764c-1.475,8.727,5.455,14.842,12.846,14.842h152.986c4.992,0.031,13.008-5.473,14.301-13.191
				c0.486-2.896,11.902-66.859,12.35-70.072C201.215,33.104,196.049,26.012,189.484,26.012z"/>
		</g>
	</g>
	<g>
		<g>
			<path fill-rule="evenodd" clip-rule="evenodd" fill="#EAC698" d="M20.963,118.045c-6.17,0-10.301-5-9.219-11.168l11.643-65.738
				c1.082-6.178,6.947-11.201,13.123-11.201h26.994c14.627-7.832,32.773-12.553,51.688-12.553s35.379,4.74,47.246,12.553h24.619
				c6.176,0,10.266,5.023,9.178,11.201l-11.678,65.715c-1.084,6.178-7.039,11.238-13.209,11.238L20.963,118.045z"/>
		</g>
		<g>
			<g>
				<path fill-rule="evenodd" clip-rule="evenodd" fill="#0E486A" d="M20.963,115.895c-2.307,0-4.307-0.877-5.629-2.447
					c-1.352-1.639-1.869-3.828-1.451-6.215c0,0.01,11.635-65.721,11.635-65.721c0.91-5.189,5.842-9.381,10.992-9.381h26.994h0.551
					l0.469-0.275c14.84-7.939,32.826-12.314,50.668-12.314c17.75,0,34.104,4.344,46.047,12.217l0.547,0.373h0.652h24.619
					c2.291,0,4.275,0.861,5.59,2.4c1.354,1.641,1.877,3.832,1.457,6.229l-11.684,65.711c-0.893,5.133-5.965,9.434-11.072,9.434
					L20.963,115.895z M171.348,120.252c7.197,0,14.074-5.842,15.344-13.02l11.666-65.707c0.66-3.695-0.195-7.145-2.389-9.768
					c-2.154-2.563-5.324-3.961-8.912-3.961h-23.996c0,0,0.146,0.086-0.057-0.047c-12.58-8.115-29.523-12.559-47.813-12.559
					c-18.336,0-36.938,4.49-52.279,12.592c-0.02,0.023-0.086,0-0.086,0H36.51c-7.273,0-13.98,5.699-15.258,12.977L9.619,106.477
					c-0.645,3.676,0.199,7.123,2.406,9.746c2.15,2.578,5.33,3.986,8.938,3.986L171.348,120.252z"/>
			</g>
		</g>
	</g>
	<g>
		<g>
			<path fill-rule="evenodd" clip-rule="evenodd" fill="#0078B0" d="M96.977,27.215c0.592,0.299,0.744,0.828,0.555,1.9l-0.115,0.719
				c-0.221,1.219-0.652,1.518-1.781,2.145l-5.949,3.275H88.15l6.947-3.813c1.115-0.621,1.549-0.908,1.768-2.184l0.117-0.689
				C97.09,27.981,97.09,27.565,96.977,27.215z"/>
		</g>
		<g>
			<polygon fill-rule="evenodd" clip-rule="evenodd" fill="#0078B0" points="94.771,28.856 89.32,28.856 88.928,31.053 
				86.92,30.534 86.977,30.141 88.387,30.534 88.781,28.317 94.865,28.317 			"/>
		</g>
		<g>
			<path fill-rule="evenodd" clip-rule="evenodd" fill="#0078B0" d="M96.449,34.608l0.607,0.166l-0.16,0.863
				c-0.287,1.691-0.979,2.094-2.813,2.094h-8.979l0.1-0.553h8.35c1.82,0,2.502-0.387,2.805-2.078L96.449,34.608z"/>
		</g>
		<g>
			<polygon fill-rule="evenodd" clip-rule="evenodd" fill="#0078B0" points="109.625,28.856 102.621,28.856 101.49,35.254 
				100.854,35.254 102.076,28.317 109.719,28.317 			"/>
		</g>
		<g>
			<path fill-rule="evenodd" clip-rule="evenodd" fill="#0078B0" d="M111.803,27.239c0.672,0.336,0.799,1.004,0.572,2.322
				l-1.006,5.617c-0.346,1.98-0.998,2.553-2.879,2.553h-7.227c-1.111,0-1.725-0.217-1.977-0.76c0.332,0.16,0.805,0.207,1.443,0.207
				h7.225c1.881,0,2.529-0.559,2.889-2.523l0.982-5.637C111.969,28.223,111.988,27.637,111.803,27.239z"/>
		</g>
		<g>
			<polygon fill-rule="evenodd" clip-rule="evenodd" fill="#0078B0" points="123.754,28.856 116.75,28.856 115.623,35.254 
				114.984,35.254 116.203,28.317 123.85,28.317 			"/>
		</g>
		<g>
			<path fill-rule="evenodd" clip-rule="evenodd" fill="#0078B0" d="M125.938,27.239c0.662,0.336,0.799,1.004,0.564,2.322
				l-0.994,5.617c-0.35,1.98-0.996,2.553-2.893,2.553h-7.225c-1.111,0-1.721-0.217-1.971-0.76c0.336,0.16,0.799,0.207,1.436,0.207
				h7.223c1.877,0,2.543-0.559,2.893-2.523l0.986-5.637C126.104,28.223,126.109,27.637,125.938,27.239z"/>
		</g>
		<g>
			<path fill-rule="evenodd" clip-rule="evenodd" fill="#0078B0" d="M130.607,32.903c-0.094,0.24-0.127,0.428-0.156,0.604
				c-0.123,0.723-0.193,1.244-0.098,1.617c-0.701-0.262-0.668-0.852-0.441-2.166c0.021-0.15,0.063-0.348,0.148-0.605
				c1.668-0.168,3.279-0.254,4.787-0.254c1.402,0,2.027,0.152,2.146,0.709c-0.346-0.119-0.865-0.162-1.607-0.162
				C133.879,32.645,132.268,32.717,130.607,32.903z"/>
		</g>
		<g>
			<path fill-rule="evenodd" clip-rule="evenodd" fill="#0078B0" d="M137.828,26.778l0.189,0.045l1.154,1.713h-0.676
				c-3.545,0-5.738,0.393-7.037,2.068c-0.326,0.029-0.646,0.082-0.965,0.148c1.201-2.27,3.482-2.771,7.457-2.771h0.682
				L137.828,26.778z"/>
		</g>
		<g>
			<path fill-rule="evenodd" clip-rule="evenodd" fill="#0078B0" d="M139.162,31.442c0.67,0.414,0.883,1.105,0.682,2.221
				l-0.26,1.461c-0.313,1.789-1.633,2.607-4.121,2.607h-4.504c-1.537,0-2.426-0.26-2.822-0.945c0.496,0.283,1.234,0.393,2.281,0.393
				h4.506c2.486,0,3.805-0.799,4.129-2.604l0.252-1.451C139.438,32.391,139.393,31.848,139.162,31.442z"/>
		</g>
	</g>
	<g>
		<path fill-rule="evenodd" clip-rule="evenodd" fill="#0E486A" d="M86.07,28.043l-0.246,1.379l2.027,0.545l0.383-2.193h6.086
			l-0.24,1.398l-8.186,4.553c-1.422,0.777-1.568,1.227-1.701,1.936l-0.166,0.969h8.98c1.82,0,2.51-0.373,2.816-2.098l0.146-0.84
			L94.1,33.133l-0.273,1.584h-6.207l6.934-3.82c1.125-0.617,1.551-0.93,1.777-2.16l0.119-0.693c0.293-1.697-0.262-2.107-2.084-2.107
			h-5.479C87.076,25.936,86.383,26.346,86.07,28.043z"/>
	</g>
	<g>
		<path fill-rule="evenodd" clip-rule="evenodd" fill="#0E486A" d="M99.174,28.483l-0.99,5.625
			c-0.338,1.979,0.117,2.521,2.002,2.521h7.227c1.871,0,2.539-0.543,2.887-2.521l0.984-5.625c0.354-1.99-0.107-2.547-2-2.547h-7.221
			C100.186,25.936,99.523,26.493,99.174,28.483z M100.314,34.717l1.225-6.943h7.633l-1.217,6.943H100.314z"/>
	</g>
	<g>
		<path fill-rule="evenodd" clip-rule="evenodd" fill="#0E486A" d="M113.307,28.483l-0.992,5.625
			c-0.346,1.979,0.117,2.521,1.998,2.521h7.221c1.887,0,2.547-0.543,2.889-2.521l0.996-5.625c0.346-1.99-0.107-2.547-1.998-2.547
			h-7.23C114.313,25.936,113.654,26.493,113.307,28.483z M114.445,34.717l1.225-6.943h7.637l-1.225,6.943H114.445z"/>
	</g>
	<g>
		<path fill-rule="evenodd" clip-rule="evenodd" fill="#0E486A" d="M129.951,30.198c1.211-2.26,3.482-2.766,7.459-2.766
			c0.35,0,0.566,0,0.68,0l-1.162-1.713c-0.246,0-0.512-0.033-0.762-0.033c-4.996,0-8.279,2.285-8.984,6.252l-0.254,1.393
			c-0.445,2.557,0.293,3.299,2.938,3.299h4.52c2.484,0,3.799-0.783,4.129-2.6l0.248-1.453c0.381-2.184-0.762-2.729-4.023-2.729
			C133.088,29.848,131.482,29.967,129.951,30.198z M129.516,31.792c1.668-0.139,3.281-0.227,4.789-0.227
			c1.805,0,2.318,0.227,2.139,1.299l-0.102,0.568c-0.176,0.949-0.645,1.285-2.174,1.285h-2.984c-2.051,0-2.141-0.416-1.818-2.307
			C129.398,32.264,129.439,32.061,129.516,31.792z"/>
	</g>
	<g>
		<g>
			<g>
				<g>
					<g>
						<path fill-rule="evenodd" clip-rule="evenodd" fill="#D98731" d="M174.844,30.208c4.051-13.313,18.334-21.74,31.896-18.875
							c13.559,2.883,21.258,16.012,17.193,29.314c-4.07,13.305-18.361,21.77-31.92,18.861
							C178.465,56.637,170.77,43.522,174.844,30.208z"/>
					</g>
				</g>
			</g>
		</g>
	</g>
	<g>
		<path fill-rule="evenodd" clip-rule="evenodd" fill="#0E486A" d="M200.336,57.836c3.701-0.174,5.619-0.195,10.025-6.168
			c1.418-2.107,2.65-4.871,3.809-8.484c-4.348,0.412-13.928,13.234-26.99,12.014c1.709,1.381,5.713,2.266,7.57,2.432
			C196.764,57.774,198.602,57.936,200.336,57.836z M216.867,43.149c-1.592,4.324-2.844,7.025-6.285,10.9
			c6.191-3.113,9.027-9.295,9.027-9.295C218.854,44.155,217.762,43.25,216.867,43.149z M222.512,35.327
			c-1.105-0.375-2.738-0.719-4.281-0.814c0.051,2.15-0.258,4.617-0.563,5.742c1.869,0.393,2.244,1.184,3.246,2.129
			C222.094,39.622,222.605,37.297,222.512,35.327z M214.117,33.813c-11.578-0.557-27.676,4.094-36.758,9.926
			c-0.189,1.475,3.189,7.561,5.566,8.365c2.443,0.818,8.814-0.109,14.627-2.656c3.709-1.625,7.646-5.762,17.141-9.254
			c0.355-0.143,0.682-3.98,0.619-6.195L214.117,33.813z M220.449,24.102c-0.699,1.398-1.146,2.643-2.703,2.969
			c0.451,1.785,0.465,3.209,0.631,4.887c2.23,0.021,3.156,0.428,4.301,0.76C222.658,29.768,221.992,26.366,220.449,24.102z
			 M197.273,20.708c-10.805-1.592-18.676,1.623-20.68,12.436c-0.166,0.932-0.678,3.531-0.219,6.404
			c11.334-7.363,26.514-8.564,38.834-7.699c-0.047-1.707-0.18-3.053-0.785-4.916C208.068,25.653,203.053,21.549,197.273,20.708z
			 M208.064,13.836c4.461,2.74,8.469,10.139,8.709,10.16c1.479,0.139,1.637-1.072,2.59-1.805
			C217.387,18.417,212.686,15.192,208.064,13.836z M204.23,13.065c-4.215-0.646-11.412,0.063-17.775,4.887
			c2.916-0.939,6.717-1.047,9.52-0.654c7.883,1.129,14.168,6.479,17.111,6.578C210.393,18.567,206.061,13.358,204.23,13.065z
			 M172.541,30.467c3.951-14.631,19.219-24.34,34.09-21.697c14.869,2.676,23.721,16.711,19.775,31.311
			c-3.967,14.666-19.221,24.367-34.105,21.711C177.434,59.135,168.586,45.114,172.541,30.467z"/>
	</g>
	<g>
		<path fill="#0E486A" d="M37.605,123.387c-3.938,8.768-4.693,16.186-1.566,21.295c10.484,17.113,57.393,4.773,112.992-33.039
			c28.441-19.336,49.934-40.48,63.654-56.709c-1.404,0.15-6.811,2.816-8.246,2.619c-0.109,0-0.176-0.01-0.283-0.02
			c-12.705,17.693-31.646,33.016-59.152,51.979C95.158,143.84,46.748,158.62,36.873,142.465c-2.715-4.41-2.234-10.727,0.92-18.238
			L37.605,123.387z"/>
	</g>
	<g>
		<defs>
			<path id="XMLID_1_" d="M175.592,87.25c12.281-10.313,22.789-20.609,30.559-30.363c0.723-0.918,2.229-2.893,1.352-1.92
				c0,0-2.658,1.244-3.654,1.67c-2.906,0.816-3.043,0.764-4.268,0.787c-6.295,8.781-14.188,17.025-23.887,25.422L175.592,87.25z"/>
		</defs>
		<defs>
			<path id="XMLID_2_" d="M39.207,150.594c12.26,3.975,34.75-1.238,60.98-13.732l-6.646-0.412
				c-19.803,8.975-37.014,13.508-48.457,12.543L39.207,150.594z"/>
		</defs>
		<defs>
			<path id="XMLID_3_" d="M141.914,112.62c0.438-0.287,0.859-0.557,1.283-0.867c4.156-2.869,8.232-5.762,12.199-8.68l-1.67-2.971
				c-4.246,3.105-8.738,6.262-13.463,9.518c-1.092,0.752-2.174,1.492-3.262,2.223L141.914,112.62z"/>
		</defs>
		<use xlink:href="#XMLID_1_"  fill="#D98731"/>
		<use xlink:href="#XMLID_2_"  fill="#FFFFFF"/>
		<use xlink:href="#XMLID_3_"  fill="#EAC698"/>
		<clipPath id="XMLID_9_">
			<use xlink:href="#XMLID_1_" />
		</clipPath>
		<clipPath id="XMLID_10_" clip-path="url(#XMLID_9_)">
			<use xlink:href="#XMLID_2_" />
		</clipPath>
		<clipPath id="XMLID_11_" clip-path="url(#XMLID_10_)">
			<use xlink:href="#XMLID_3_" />
		</clipPath>
	</g>
	<g>
		<path fill="#0E486A" d="M30.008,123.114c-3.941,8.783-4.695,16.172-1.566,21.279c10.477,17.137,60.572,2.363,111.906-33.01
			c28.33-19.514,47.385-35.332,60.354-53.742c-1.059,0.1-3.166,0.361-5.146,0.109c-0.439,0.033-0.498,0.402-0.525,0.402
			c-12.703,17.693-30.119,32.143-57.621,51.094c-49.846,34.348-98.254,49.107-108.133,32.969
			c-2.715-4.434-2.238-10.748,0.914-18.234L30.008,123.114z"/>
	</g>
	<g>
		<g>
			<g>
				<path fill="#92424B" d="M21.375,124.274c1.092-6.182,7.137-11.205,13.508-11.205h124.148c6.361,0,10.639,5.023,9.555,11.205l0,0
					c-1.092,6.201-7.137,11.225-13.506,11.225H30.924C24.564,135.499,20.277,130.475,21.375,124.274L21.375,124.274L21.375,124.274z
					"/>
			</g>
		</g>
		<g>
			<g>
				<g>
					<path fill="#0E486A" d="M23.502,124.645c0.92-5.18,6.021-9.396,11.381-9.396h124.148c2.451,0,4.58,0.902,5.965,2.547
						c1.352,1.631,1.857,3.777,1.463,6.096c-0.92,5.195-6.029,9.412-11.379,9.412H30.924c-2.447,0-4.564-0.895-5.949-2.545
						C23.619,129.139,23.102,126.989,23.502,124.645z M19.238,123.891c-0.627,3.635,0.219,7.053,2.414,9.643
						c2.229,2.65,5.514,4.105,9.271,4.105H155.08c7.361,0,14.377-5.811,15.643-12.994c0.625-3.607-0.223-7.016-2.416-9.627
						c-2.23-2.656-5.518-4.117-9.275-4.117H34.883C27.527,110.901,20.506,116.737,19.238,123.891z"/>
				</g>
			</g>
		</g>
	</g>
	<g>
		<g>
			<path d="M47.895,128.694h-1.438l-5.199-5.129c0.021,0.021,0.043,0.049,0.07,0.072l5.676,5.602h1.436l1.598-9.086H49.4
				L47.895,128.694z M54.902,121.784h3.74c0.721,0,1.291,0.139,1.699,0.389c-0.383-0.609-1.123-0.939-2.238-0.939h-3.74l-1.016,5.77
				h0.633L54.902,121.784z M39.994,123.793l-0.861,4.9h-1.264l-0.096,0.545h1.891l0.867-4.902c0.047-0.25,0.107-0.699,0.158-1.342
				c-0.182-0.199-0.365-0.383-0.531-0.633C40.107,123.057,40.037,123.528,39.994,123.793z M46.576,125.844
				c-0.111-0.1-0.205-0.219-0.322-0.326l-0.303-0.297c0.217,0.23,0.439,0.457,0.619,0.709
				C46.57,125.911,46.57,125.877,46.576,125.844z M90.682,125.844c-0.109-0.1-0.223-0.219-0.336-0.326l-0.283-0.297
				c0.217,0.23,0.432,0.457,0.615,0.709C90.682,125.911,90.682,125.877,90.682,125.844z M34.195,128.694h-1.471l-0.094,0.545h2.113
				l1.592-9.086h-0.637L34.195,128.694z M75.322,122.256l-0.301-0.879l-2.668,3.715h0.936L75.322,122.256z M100.967,122.256
				l-0.303-0.879l-2.67,3.715h0.932L100.967,122.256z M151.654,121.75h5.297l0.104-0.547h-5.941l-0.348,1.965h0.65L151.654,121.75z
				 M151.406,125.452h5.029l0.086-0.537h-5.652c-0.588,0-1.012-0.043-1.332-0.186C149.752,125.278,150.336,125.452,151.406,125.452z
				 M150.377,127.002l0.1-0.559l-0.658,0.152l-0.078,0.406H150.377z M122.225,121.784h6.328l0.094-0.551h-6.957l-1.006,5.77h0.627
				L122.225,121.784z M136.555,120.153h-0.635l-1.205,6.85h0.625L136.555,120.153z M110.924,121.727h4.746
				c0.113,0,0.213,0.01,0.303,0.023c0.027-0.443-0.252-0.547-0.834-0.547h-4.744l-0.43,2.41h0.639L110.924,121.727z
				 M130.654,120.362c0.129,0.303,0.115,0.762,0.01,1.408l-0.84,4.773c-0.309,1.691-0.932,2.15-2.637,2.15h-6.67
				c-0.582,0-1.02-0.053-1.324-0.193c0.205,0.576,0.791,0.738,1.863,0.738h6.684c1.701,0,2.318-0.455,2.623-2.129l0.832-4.795
				C131.402,121.204,131.25,120.631,130.654,120.362z M102.275,120.153l3.389,8.541h-2.027l0.199,0.545h2.367l-3.602-9.086H102.275z
				 M118.027,120.362c0.113,0.264,0.133,0.602,0.053,1.016l-0.346,2.029c-0.223,1.279-0.969,1.752-2.35,1.752h-5.693l-0.635,3.535
				h-1.436l-0.082,0.545h2.072l0.609-3.535h5.709c1.385,0,2.117-0.482,2.344-1.75l0.346-2.021
				C118.773,121.094,118.58,120.598,118.027,120.362z M141.213,128.694h-8.271l-0.088,0.545h8.902l0.299-1.689h-0.639
				L141.213,128.694z M158.814,120.362c0.125,0.293,0.125,0.709,0.045,1.244l-0.045,0.188l-1.273,0.303l-0.127,0.699l1.938-0.447
				l0.039-0.182C159.57,121.157,159.391,120.625,158.814,120.362z M144.824,128.694h-1.465l-0.104,0.545h2.115l1.598-9.086h-0.633
				L144.824,128.694z M158.307,123.891c0.119,0.336,0.119,0.795,0.014,1.42l-0.227,1.232c-0.303,1.691-0.934,2.15-2.637,2.15h-5.613
				c-0.586,0-1.025-0.053-1.332-0.193c0.207,0.576,0.813,0.738,1.865,0.738h5.625c1.705,0,2.334-0.455,2.631-2.129l0.232-1.266
				C159.051,124.729,158.904,124.172,158.307,123.891z M84.098,123.793l-0.869,4.9h-1.266l-0.086,0.545h1.896l0.865-4.902
				c0.033-0.25,0.107-0.699,0.154-1.342c-0.193-0.199-0.359-0.383-0.539-0.633C84.203,123.057,84.133,123.528,84.098,123.793z
				 M76.641,120.153l3.381,8.541h-2.029l0.209,0.545h2.367l-3.602-9.086H76.641z M71.168,126.706l-1.404,1.988h-1.162l-0.4,0.545
				h2.104l1.402-1.99h5.406l-0.203-0.543H71.168z M67.855,120.153l-1.514,8.541h-1.469l-0.098,0.545h2.105l1.604-9.086H67.855z
				 M96.809,126.706l-1.404,1.988H94.24l-0.4,0.545h2.107l1.402-1.99h5.404l-0.199-0.543H96.809z M62.227,121.061
				c0.568,0.732,0.756,1.787,0.533,3.033c-0.297,1.727-1.287,3.125-2.689,3.9c-0.969,0.547-2.229,0.699-3.842,0.699H51.58
				l-0.1,0.545h5.287c1.615,0,2.863-0.162,3.85-0.709c1.402-0.766,2.389-2.186,2.688-3.885
				C63.584,123.051,63.211,121.823,62.227,121.061z M93.508,120.153l-1.506,8.541h-1.447l-5.199-5.129
				c0.025,0.021,0.043,0.049,0.076,0.072l5.67,5.602h1.434l1.605-9.086H93.508z"/>
		</g>
	</g>
	<g>
		<g>
			<g>
				<g>
					<polygon fill-rule="evenodd" clip-rule="evenodd" fill="#EAC698" points="31.549,128.147 33.662,128.147 35.26,119.073 
						33.148,119.073 					"/>
				</g>
			</g>
			<g>
				<g>
					<path fill-rule="evenodd" clip-rule="evenodd" fill="#EAC698" d="M36.689,128.147h1.902l0.854-4.893
						c0.047-0.26,0.121-0.752,0.172-1.461c0.207,0.303,0.4,0.521,0.625,0.762l5.676,5.592h1.439l1.6-9.074h-1.902l-0.844,4.773
						c-0.043,0.283-0.111,0.82-0.178,1.559c-0.26-0.369-0.557-0.676-0.865-0.979l-5.438-5.354h-1.443L36.689,128.147z"/>
				</g>
			</g>
			<g>
				<g>
					<path fill-rule="evenodd" clip-rule="evenodd" fill="#EAC698" d="M50.398,128.147h5.279c1.623,0,2.887-0.152,3.852-0.688
						c1.408-0.783,2.391-2.182,2.691-3.873c0.484-2.828-1.01-4.514-4.395-4.514h-5.83L50.398,128.147z M52.809,126.444l1.01-5.732
						h3.746c1.98,0,2.811,0.992,2.484,2.83c-0.4,2.236-1.848,2.902-4.52,2.902H52.809z"/>
				</g>
			</g>
			<g>
				<g>
					<polygon fill-rule="evenodd" clip-rule="evenodd" fill="#EAC698" points="63.691,128.147 65.809,128.147 67.393,119.073 
						65.289,119.073 					"/>
				</g>
			</g>
			<g>
				<g>
					<path fill-rule="evenodd" clip-rule="evenodd" fill="#EAC698" d="M67.109,128.147h2.111l1.408-1.977h5.738l0.746,1.977h2.377
						l-3.615-9.074h-2.031L67.109,128.147z M71.807,124.545l2.67-3.705l1.305,3.705H71.807z"/>
				</g>
			</g>
			<g>
				<g>
					<path fill-rule="evenodd" clip-rule="evenodd" fill="#EAC698" d="M80.791,128.147h1.898l0.861-4.893
						c0.051-0.26,0.107-0.752,0.174-1.461c0.186,0.303,0.389,0.521,0.621,0.762l5.67,5.592h1.441l1.602-9.074H91.15l-0.828,4.773
						c-0.051,0.283-0.111,0.82-0.197,1.559c-0.252-0.369-0.545-0.676-0.855-0.979l-5.43-5.354h-1.451L80.791,128.147z"/>
				</g>
			</g>
			<g>
				<g>
					<path fill-rule="evenodd" clip-rule="evenodd" fill="#EAC698" d="M92.748,128.147h2.125l1.404-1.977h5.738l0.736,1.977h2.379
						l-3.604-9.074h-2.035L92.748,128.147z M97.455,124.545l2.67-3.705l1.305,3.705H97.455z"/>
				</g>
			</g>
			<g>
				<g>
					<path fill-rule="evenodd" clip-rule="evenodd" fill="#EAC698" d="M106.457,128.147h2.074l0.619-3.514h5.695
						c1.387,0,2.117-0.504,2.34-1.768l0.355-2.025c0.227-1.258-0.34-1.768-1.717-1.768h-7.777L106.457,128.147z M114.588,120.631
						c0.646,0,0.924,0.152,0.826,0.723l-0.17,0.994c-0.105,0.59-0.436,0.709-1.078,0.709h-4.746l0.428-2.426H114.588z"/>
				</g>
			</g>
			<g>
				<g>
					<path fill-rule="evenodd" clip-rule="evenodd" fill="#EAC698" d="M120.139,126.444l1.008-5.732h6.953l-1.012,5.732H120.139z
						 M118.939,121.233l-0.832,4.797c-0.311,1.691,0.162,2.117,1.863,2.117h6.688c1.701,0,2.32-0.426,2.623-2.117l0.84-4.797
						c0.303-1.713-0.17-2.16-1.867-2.16h-6.678C119.869,119.073,119.238,119.52,118.939,121.233z"/>
				</g>
			</g>
			<g>
				<g>
					<polygon fill-rule="evenodd" clip-rule="evenodd" fill="#EAC698" points="131.762,128.147 140.674,128.147 140.977,126.444 
						134.18,126.444 135.467,119.073 133.367,119.073 					"/>
				</g>
			</g>
			<g>
				<g>
					<polygon fill-rule="evenodd" clip-rule="evenodd" fill="#EAC698" points="142.174,128.147 144.285,128.147 145.889,119.073 
						143.779,119.073 					"/>
				</g>
			</g>
			<g>
				<g>
					<path fill-rule="evenodd" clip-rule="evenodd" fill="#EAC698" d="M156.516,120.665l-0.18,1.053l1.938-0.438l0.033-0.195
						c0.275-1.586-0.283-2.012-1.9-2.012h-5.145c-1.697,0-2.34,0.447-2.629,2.16l-0.18,1.006c-0.301,1.705,0.172,2.145,1.877,2.145
						h5.658l-0.375,2.061h-6.402l0.18-1.072l-1.936,0.396l-0.027,0.262c-0.313,1.691,0.18,2.117,1.877,2.117h5.6
						c1.717,0,2.357-0.426,2.65-2.117l0.219-1.271c0.307-1.701-0.17-2.123-1.881-2.123h-5.652l0.34-1.971H156.516z"/>
				</g>
			</g>
		</g>
	</g>
	<g>
		<path fill-rule="evenodd" clip-rule="evenodd" fill="#0E486A" d="M178.498,102.602c0,0.92,0.752,1.639,1.645,1.639
			c0.873,0,1.625-0.719,1.625-1.639c0-0.914-0.752-1.613-1.625-1.613C179.25,100.989,178.498,101.688,178.498,102.602z
			 M178.799,102.602c0-0.775,0.578-1.365,1.344-1.365c0.75,0,1.326,0.59,1.326,1.365c0,0.779-0.576,1.379-1.326,1.379
			C179.377,103.981,178.799,103.381,178.799,102.602z M179.504,103.551h0.299v-0.807h0.311l0.516,0.807h0.313l-0.539-0.828
			c0.279-0.033,0.5-0.188,0.5-0.514c0-0.383-0.221-0.545-0.666-0.545h-0.732V103.551z M179.803,101.893h0.387
			c0.199,0,0.424,0.043,0.424,0.27c0,0.32-0.236,0.346-0.5,0.346h-0.311V101.893z"/>
	</g>
	<g>
		<g>
			<defs>
				<path id="XMLID_7_" d="M68.072,44.272h49.59c1.031,1.508,2.193,3.484,3.309,5.176c0.375-1.83,0.553-3.021,0.904-5.176h15.953
					c-0.439,2.742-0.576,3.867-1.059,6.928c1.666-2.107,3.498-4.436,5.455-6.971h9.484l3.248,7.799
					c0.557-2.936,0.936-4.943,1.459-7.756h15.951l-2.496,15.355h10.941c-0.563,3.322-2.15,12.211-2.619,14.926
					c-0.113,0.061-0.887,0.17-0.84,0.201c0.979,1.441,0.779,3.584,0.01,8.311c-0.795,4.861-0.955,10.064-6.48,12.102l9.766,12.682
					h-23.271l-4.9-6.438c-0.479,2.623-0.781,4.285-1.182,6.457h-19.094c-0.02,0-0.047-0.568-0.072-0.568
					c-0.494,0.242-1.951,0.59-2.564,0.59h-25.787c-2.938-0.021-4.801-1.346-5.346-1.965c-0.654,1.039-2.906,1.934-5.15,1.965H66.76
					c-6.283,0.02-8.818-4.049-7.59-10.354H44.697c-0.715,3.057-1.457,6.512-2,10.193H23.137l6.982-38.086h33.047L68.072,44.272z"/>
			</defs>
			<use xlink:href="#XMLID_7_"  fill-rule="evenodd" clip-rule="evenodd" fill="#0078B0"/>
			<clipPath id="XMLID_12_">
				<use xlink:href="#XMLID_7_" />
			</clipPath>
		</g>
	</g>
	<g>
		<g>
			<path fill-rule="evenodd" clip-rule="evenodd" fill="#EAC698" d="M66.447,42.643h49.586c1.043,1.512,2.193,3.49,3.313,5.18
				c0.365-1.834,0.559-3.021,0.906-5.166h15.947c-0.43,2.721-0.582,3.842-1.049,6.918c1.654-2.111,3.496-4.447,5.453-6.951h9.486
				l3.25,7.789c0.543-2.949,0.926-4.959,1.455-7.756h15.941l-2.484,15.346h10.939c-0.572,3.322-2.15,12.217-2.623,14.93
				c-0.113,0.051-0.883,0.164-0.832,0.207c0.971,1.414,0.775,3.586,0.006,8.299c-0.793,4.854-0.945,10.072-6.49,12.127l9.766,12.652
				H155.75l-4.896-6.408c-0.482,2.609-0.783,4.258-1.189,6.432h-19.088c-0.025,0-0.053-0.559-0.066-0.559
				c-0.496,0.25-1.949,0.582-2.568,0.582h-25.793c-2.941-0.023-4.789-1.332-5.34-1.957c-0.652,1.016-2.908,1.934-5.148,1.957H65.129
				c-6.283,0.02-8.818-4.031-7.572-10.365H43.064c-0.709,3.049-1.451,6.543-1.988,10.189H21.518l6.971-38.063h33.061L66.447,42.643z
				"/>
		</g>
	</g>
	<g>
		<g>
			<path fill-rule="evenodd" clip-rule="evenodd" fill="#0E486A" d="M65.455,41.645h49.584c1.037,1.527,2.193,3.492,3.311,5.186
				c0.371-1.826,0.557-3.016,0.9-5.152h15.961c-0.434,2.707-0.59,3.832-1.053,6.9c1.652-2.107,3.482-4.447,5.447-6.947h9.492
				l3.24,7.787c0.549-2.947,0.932-4.961,1.475-7.74h15.938l-2.496,15.342h10.945c-0.57,3.33-2.154,12.184-2.631,14.918
				c-0.111,0.033-0.871,0.16-0.838,0.219c0.984,1.398,0.785,3.568,0.014,8.299c-0.797,4.85-0.945,10.047-6.492,12.113l9.777,12.643
				h-23.275l-4.896-6.404c-0.486,2.604-0.779,4.266-1.191,6.441h-19.084c-0.018,0-0.051-0.545-0.07-0.535
				c-0.492,0.227-1.953,0.566-2.57,0.566h-25.785c-2.936-0.031-4.785-1.355-5.338-1.975c-0.66,1.021-2.906,1.943-5.154,1.975H64.135
				c-6.281,0.012-8.82-4.043-7.584-10.367H42.064c-0.699,3.049-1.436,6.525-1.984,10.18H20.529l6.963-38.068h33.064L65.455,41.645z"
				/>
		</g>
	</g>
	<g>
		<g>
			<path fill-rule="evenodd" clip-rule="evenodd" fill="#EAC698" d="M115.15,71.602c0.012,0,7.584,0,7.584,0l-2.939,17.852h-7.875
				L115.15,71.602z"/>
		</g>
	</g>
	<g>
		<g>
			<path fill-rule="evenodd" clip-rule="evenodd" fill="#EAC698" d="M111.236,63.375c0.732,1.158,1.707,2.684,2.443,3.869h-3.133
				C110.754,66.018,110.953,64.846,111.236,63.375z"/>
		</g>
	</g>
	<g>
		<g>
			<path fill-rule="evenodd" clip-rule="evenodd" fill="#FFFFFF" d="M147.309,89.803"/>
		</g>
	</g>
	<g>
		<g>
			<path fill="#FFFFFF" d="M85.805,100.29c5.705,0,7.01-1.482,8.012-7.188l2.826-16.031c0.439-2.457,0.381-4.152-0.289-5.24
				c-1.063-0.68-2.68-0.918-4.977-0.918H72.193c-5.709,0-7.797,1.461-8.799,7.174l-2.83,16.021c-0.428,2.479-0.375,4.16,0.291,5.266
				c1.051,0.656,2.68,0.916,4.992,0.916H85.805z M85.451,92.569H70.422l2.316-12.955h14.953L85.451,92.569z M71.746,78.622h14.951
				l-0.08,0.492H72.246l-2.234,12.447h-0.588L71.746,78.622z"/>
		</g>
		<g>
			<path fill="#FFFFFF" d="M96.643,72c0.865,1.096,0.979,2.84,0.494,5.592L94.32,93.594c-1.006,5.699-2.311,7.193-8.023,7.193
				H66.342c-2.531,0-4.234-0.303-5.271-1.107c0.949,1.172,2.787,1.59,5.77,1.59h19.949c5.713,0,7.018-1.461,8.029-7.162
				l2.824-16.021C98.207,74.901,97.957,73.03,96.643,72z"/>
		</g>
		<g>
			<path fill="#FFFFFF" d="M86.297,100.788c5.713,0,7.018-1.494,8.023-7.193l2.816-16.002c0.484-2.752,0.371-4.496-0.494-5.592
				c-0.09-0.063-0.193-0.139-0.289-0.17c0.67,1.088,0.729,2.783,0.289,5.24l-2.826,16.031c-1.002,5.705-2.307,7.188-8.012,7.188
				H65.848c-2.313,0-3.941-0.26-4.992-0.916c0.047,0.096,0.129,0.193,0.215,0.307c1.037,0.805,2.74,1.107,5.271,1.107H86.297z"/>
		</g>
		<g>
			<path fill="#0078B0" d="M86.297,100.788c5.713,0,7.018-1.494,8.023-7.193l2.816-16.002c0.484-2.752,0.371-4.496-0.494-5.592
				c-0.09-0.063-0.193-0.139-0.289-0.17c0.67,1.088,0.729,2.783,0.289,5.24l-2.826,16.031c-1.002,5.705-2.307,7.188-8.012,7.188
				H65.848c-2.313,0-3.941-0.26-4.992-0.916c0.047,0.096,0.129,0.193,0.215,0.307c1.037,0.805,2.74,1.107,5.271,1.107H86.297z"/>
		</g>
		<g>
			<polygon fill="#FFFFFF" points="72.246,79.114 86.617,79.114 86.697,78.622 71.746,78.622 69.424,91.561 70.012,91.561 			"/>
		</g>
		<g>
			<polygon fill="#0078B0" points="72.246,79.114 86.617,79.114 86.697,78.622 71.746,78.622 69.424,91.561 70.012,91.561 			"/>
		</g>
		<g>
			<polygon fill="none" points="70.422,92.569 85.451,92.569 87.691,79.614 72.738,79.614 			"/>
		</g>
	</g>
	<g>
		<g>
			<path fill="#FFFFFF" d="M135.6,70.913l-4.004,22.682c-0.998,5.699-3.096,7.193-8.799,7.193h-19.184
				c-2.537,0-4.24-0.303-5.275-1.107c0.941,1.172,2.783,1.59,5.768,1.59h19.188c5.719,0,7.793-1.461,8.803-7.162l4.088-23.195H135.6
				z"/>
		</g>
		<g>
			<path fill="#FFFFFF" d="M122.301,100.29c5.709,0,7.797-1.482,8.795-7.188l3.918-22.189h-8.451L122.74,92.59h-15.012l3.818-21.678
				h-0.584l-3.635,20.686h-0.6l3.643-20.686h-8.449l-4.076,23.195c-0.451,2.479-0.404,4.16,0.27,5.266
				c1.051,0.656,2.682,0.916,4.992,0.916H122.301z"/>
		</g>
		<g>
			<polygon fill="#0078B0" points="107.328,91.598 110.963,70.913 110.371,70.913 106.729,91.598 			"/>
		</g>
		<g>
			<path fill="#0078B0" d="M122.797,100.788c5.703,0,7.801-1.494,8.799-7.193l4.004-22.682h-0.586l-3.918,22.189
				c-0.998,5.705-3.086,7.188-8.795,7.188h-19.193c-2.311,0-3.941-0.26-4.992-0.916c0.068,0.096,0.133,0.193,0.223,0.307
				c1.035,0.805,2.738,1.107,5.275,1.107H122.797z"/>
		</g>
	</g>
	<g>
		<g>
			<path fill="#FFFFFF" d="M159.398,88.448h1.883c4.65,0,7.125-1.646,7.863-5.881l1.219-6.775c0.232-1.396-0.164-2.643-0.906-3.594
				c-1.088-0.84-2.502-1.318-3.9-1.285h-26.018l-5.178,29.377h9.947l2.064-11.818l0.475,0.582l-2.043,11.734h-10.525l-0.094,0.482
				h11.117l2.072-11.803l8.76,10.822h13.084L159.398,88.448z M147.594,81.741l0.609-3.369h8.066c1.66,0,2.523,0.084,2.762,0.729
				c-0.453-0.199-1.186-0.225-2.242-0.225h-8.086l-0.523,2.865H147.594z M148.58,82.715l0.621-3.342h8.072
				c2.182,0,2.982,0.141,2.791,1.563l-0.066,0.395c-0.227,1.342-1.166,1.385-3.33,1.385H148.58z"/>
		</g>
		<g>
			<path fill="#FFFFFF" d="M170.143,83.559l1.205-6.762c0.297-1.824-0.416-3.322-1.613-4.381c0.879,1.016,1.375,2.338,1.117,3.889
				l-1.207,6.76c-0.75,4.252-3.209,5.877-7.859,5.877h-1.895l9.83,11.846h-13.191l0.406,0.482h13.281l-9.826-11.822h1.877
				C166.928,89.448,169.391,87.786,170.143,83.559z"/>
		</g>
		<g>
			<path fill="#FFFFFF" d="M159.891,88.942h1.895c4.65,0,7.109-1.625,7.859-5.877l1.207-6.76c0.258-1.551-0.238-2.873-1.117-3.889
				c-0.09-0.072-0.188-0.152-0.277-0.219c0.742,0.951,1.139,2.197,0.906,3.594l-1.219,6.775c-0.738,4.234-3.213,5.881-7.863,5.881
				h-1.883l9.82,11.842h-13.084l0.395,0.498h13.191L159.891,88.942z"/>
		</g>
		<g>
			<path fill="#0078B0" d="M159.891,88.942h1.895c4.65,0,7.109-1.625,7.859-5.877l1.207-6.76c0.258-1.551-0.238-2.873-1.117-3.889
				c-0.09-0.072-0.188-0.152-0.277-0.219c0.742,0.951,1.139,2.197,0.906,3.594l-1.219,6.775c-0.738,4.234-3.213,5.881-7.863,5.881
				h-1.883l9.82,11.842h-13.084l0.395,0.498h13.191L159.891,88.942z"/>
		</g>
		<g>
			<path fill="#FFFFFF" d="M156.789,78.875c1.057,0,1.789,0.025,2.242,0.225c-0.238-0.645-1.102-0.729-2.762-0.729h-8.066
				l-0.609,3.369h0.586l0.523-2.865H156.789z"/>
		</g>
		<g>
			<path fill="#0078B0" d="M156.789,78.875c1.057,0,1.789,0.025,2.242,0.225c-0.238-0.645-1.102-0.729-2.762-0.729h-8.066
				l-0.609,3.369h0.586l0.523-2.865H156.789z"/>
		</g>
		<g>
			<polygon fill="#FFFFFF" points="146.848,89.053 146.373,88.471 144.309,100.29 134.361,100.29 134.279,100.788 144.805,100.788 
							"/>
		</g>
		<g>
			<polygon fill="#0078B0" points="146.848,89.053 146.373,88.471 144.309,100.29 134.361,100.29 134.279,100.788 144.805,100.788 
							"/>
		</g>
		<g>
			<path fill="none" d="M159.998,81.331l0.066-0.395c0.191-1.422-0.609-1.563-2.791-1.563h-8.072l-0.621,3.342h8.088
				C158.832,82.715,159.771,82.672,159.998,81.331z"/>
		</g>
	</g>
	<g>
		<g>
			<polygon fill="#FFFFFF" points="60.379,79.69 61.92,70.913 61.34,70.913 59.887,79.188 39.711,79.188 39.248,81.731 
				38.654,81.731 39.207,78.674 59.393,78.674 60.756,70.913 30.586,70.913 25.4,100.29 35.279,100.29 37.309,89.741 55.822,89.741 
				57.033,82.706 39.65,82.706 40.205,79.69 			"/>
		</g>
		<g>
			<polygon fill="#FFFFFF" points="37.805,90.243 35.771,100.788 25.32,100.788 25.227,101.27 36.268,101.27 38.305,90.735 
				56.824,90.735 58.201,82.706 57.611,82.706 56.332,90.243 			"/>
		</g>
		<g>
			<polygon fill="#0078B0" points="39.207,78.674 38.654,81.731 39.248,81.731 39.711,79.188 59.887,79.188 61.34,70.913 
				60.756,70.913 59.393,78.674 			"/>
		</g>
		<g>
			<polygon fill="#0078B0" points="37.309,89.741 35.279,100.29 25.4,100.29 25.32,100.788 35.771,100.788 37.805,90.243 
				56.332,90.243 57.611,82.706 57.033,82.706 55.822,89.741 			"/>
		</g>
	</g>
	<g>
		<g>
			<polygon fill="#FFFFFF" points="99.746,45.672 92.98,45.672 89.346,66.245 96.123,66.245 			"/>
		</g>
		<g>
			<polygon fill="#FFFFFF" points="100.338,45.672 96.623,66.75 89.26,66.75 89.18,67.245 97.123,67.245 100.92,45.672 			"/>
		</g>
		<g>
			<polygon fill="#0078B0" points="100.338,45.672 99.746,45.672 96.123,66.245 89.346,66.245 89.26,66.75 96.623,66.75 			"/>
		</g>
	</g>
	<g>
		<g>
			<path fill="#FFFFFF" d="M129.359,45.672h-6.857c0,0-1.619,9.762-1.818,11.564c-0.6-0.885-8.082-11.564-8.082-11.564h-9.238
				l-3.631,20.572h6.76c0,0,1.814-10.09,1.947-11.758l0.486,0.688c-0.125,1.551-1.938,11.576-1.938,11.576h-7.336l-0.1,0.494h7.941
				c0,0,1.813-10.08,1.936-11.752c0.475,0.662,0.895,1.219,1.361,1.852l6.037,8.9h8.898L129.359,45.672z"/>
		</g>
		<g>
			<polygon fill="#FFFFFF" points="129.934,45.672 126.23,66.75 117.168,66.75 117.512,67.245 126.719,67.245 130.533,45.672 			"/>
		</g>
		<g>
			<path fill="#0078B0" d="M108.926,55.174l-0.486-0.688c-0.133,1.668-1.947,11.758-1.947,11.758h-6.76l-0.08,0.506h7.336
				C106.988,66.75,108.801,56.725,108.926,55.174z"/>
		</g>
		<g>
			<polygon fill="#0078B0" points="129.934,45.672 129.359,45.672 125.727,66.245 116.828,66.245 117.168,66.75 126.23,66.75 			"/>
		</g>
	</g>
	<g>
		<g>
			<polygon fill="#FFFFFF" points="73.75,59.258 72.299,66.75 65.039,66.75 64.957,67.245 72.803,67.245 74.24,59.768 
				87.057,59.768 88.035,54.049 87.455,54.049 86.557,59.258 			"/>
		</g>
		<g>
			<polygon fill="#FFFFFF" points="89.936,51.897 91.031,45.661 90.445,45.661 89.436,51.405 75.102,51.405 74.789,53.067 
				74.211,53.067 74.59,50.913 88.939,50.913 89.865,45.661 68.758,45.661 65.129,66.245 71.801,66.245 73.258,58.754 
				86.064,58.754 86.877,54.049 75.203,54.049 75.598,51.897 			"/>
		</g>
		<g>
			<polygon fill="#0078B0" points="74.59,50.913 74.211,53.067 74.789,53.067 75.102,51.405 89.436,51.405 90.445,45.661 
				89.865,45.661 88.939,50.913 			"/>
		</g>
		<g>
			<polygon fill="#0078B0" points="73.258,58.754 71.801,66.245 65.129,66.245 65.039,66.75 72.299,66.75 73.75,59.258 
				86.557,59.258 87.455,54.049 86.877,54.049 86.064,58.754 			"/>
		</g>
	</g>
	<g>
		<g>
			<path fill="#FFFFFF" d="M145.674,45.672h-4.244l-15.273,20.572h7.078l2.568-3.635h8.443l0.182,0.492h-8.119l-2.576,3.648h-7.945
				l-0.369,0.494h8.814l2.572-3.643h8.432l0.99,2.643h7.619L145.674,45.672z M140.33,58.625l2.018-2.797h0.1
				c0.041,0.23,0.16,0.514,0.232,0.75l0.721,2.047H140.33z"/>
		</g>
		<g>
			<polygon fill="#FFFFFF" points="154.844,67.245 146.275,45.672 145.982,45.672 154.342,66.75 146.402,66.75 146.588,67.245 			
				"/>
		</g>
		<g>
			<polygon fill="#FFFFFF" points="145.982,45.672 145.674,45.672 153.846,66.245 146.227,66.245 146.402,66.75 154.342,66.75 			
				"/>
		</g>
		<g>
			<polygon fill="#0078B0" points="145.982,45.672 145.674,45.672 153.846,66.245 146.227,66.245 146.402,66.75 154.342,66.75 			
				"/>
		</g>
		<g>
			<polygon fill="#FFFFFF" points="136.309,63.102 144.428,63.102 144.246,62.61 135.803,62.61 133.234,66.245 126.156,66.245 
				125.787,66.75 133.732,66.75 			"/>
		</g>
		<g>
			<polygon fill="#0078B0" points="136.309,63.102 144.428,63.102 144.246,62.61 135.803,62.61 133.234,66.245 125.34,66.245 
				124.979,66.75 133.732,66.75 			"/>
		</g>
		<g>
			<path fill="#0078B0" d="M141.402,54.747l-2.07,2.895h0.855l1.49-2.088C141.609,55.34,141.402,54.747,141.402,54.747z"/>
		</g>
		<g>
			<path fill="none" d="M142.447,55.829h-0.1l-2.018,2.797h3.07l-0.721-2.047C142.607,56.342,142.488,56.059,142.447,55.829z"/>
		</g>
	</g>
	<g>
		<g>
			<path fill-rule="evenodd" clip-rule="evenodd" d="M147.309,89.803"/>
		</g>
		<g>
			<path fill-rule="evenodd" clip-rule="evenodd" fill="none" d="M147.309,89.803"/>
		</g>
	</g>
	<g>
		<g>
			<polygon fill-rule="evenodd" clip-rule="evenodd" fill="#EAC698" points="76.475,67.245 85.697,67.245 86.486,63.036 
				77.252,63.036 			"/>
		</g>
	</g>
	<g>
		<g>
			<polygon fill-rule="evenodd" clip-rule="evenodd" fill="#EAC698" points="74.623,89.467 82.582,89.467 83.707,82.803 
				75.822,82.803 			"/>
		</g>
	</g>
	<g>
		<g>
			<polygon fill="#FFFFFF" points="172.348,61.04 162.348,61.04 165.037,45.661 164.457,45.661 161.938,60.043 161.348,60.043 
				163.865,45.661 157.094,45.661 153.473,66.245 171.414,66.245 			"/>
		</g>
		<g>
			<polygon fill="#FFFFFF" points="172.934,61.04 171.91,66.75 153.387,66.75 153.293,67.25 172.414,67.25 173.52,61.04 			"/>
		</g>
		<g>
			<polygon fill="#0078B0" points="172.934,61.04 172.348,61.04 171.414,66.245 152.66,66.245 152.57,66.75 171.91,66.75 			"/>
		</g>
		<g>
			<polygon fill="#0078B0" points="161.938,60.043 164.457,45.661 163.865,45.661 161.348,60.043 			"/>
		</g>
	</g>
	<g>
		<g>
			<path fill="#FFFFFF" d="M31.203,50.686c0,7.982,6.449,14.438,14.424,14.438c7.965,0,14.422-6.455,14.422-14.438
				c0-7.953-6.457-14.406-14.422-14.406C37.652,36.28,31.203,42.733,31.203,50.686z"/>
		</g>
		<g>
			<g>
				<path fill="#0078B0" d="M58.725,58.635c0-0.512,0.404-0.926,0.906-0.926c0.506,0,0.898,0.414,0.898,0.926
					c0,0.559-0.393,0.926-0.898,0.926C59.129,59.561,58.725,59.194,58.725,58.635z M59.631,59.768c0.607,0,1.125-0.467,1.125-1.133
					c0-0.633-0.518-1.092-1.125-1.092s-1.125,0.459-1.125,1.092C58.506,59.301,59.023,59.768,59.631,59.768z M59.404,58.735h0.215
					l0.34,0.566h0.215l-0.363-0.58c0.191-0.02,0.332-0.119,0.332-0.346c0-0.252-0.154-0.373-0.457-0.373h-0.48v1.299h0.199V58.735z
					 M59.404,58.569v-0.4h0.258c0.133,0,0.283,0.027,0.283,0.193c0,0.188-0.15,0.207-0.314,0.207H59.404z"/>
				<path fill="#0078B0" d="M58.748,58.635c0-0.488,0.381-0.895,0.883-0.895c0.24,0,0.461,0.096,0.623,0.252
					c0.164,0.176,0.258,0.402,0.258,0.643c0,0.523-0.375,0.906-0.881,0.906C59.129,59.542,58.748,59.159,58.748,58.635z
					 M59.631,59.588c0.523,0,0.926-0.395,0.926-0.953c0-0.512-0.414-0.926-0.926-0.926c-0.248,0-0.486,0.098-0.658,0.26
					c-0.174,0.184-0.262,0.426-0.262,0.666C58.711,59.194,59.102,59.588,59.631,59.588z"/>
				<path fill="#0078B0" d="M59.631,59.78c0.646,0,1.143-0.502,1.143-1.145c0-0.297-0.117-0.578-0.338-0.799
					c-0.215-0.207-0.5-0.313-0.805-0.313c-0.643,0-1.152,0.479-1.152,1.111C58.479,59.278,58.988,59.78,59.631,59.78z
					 M58.525,58.635c0-0.592,0.488-1.082,1.105-1.082c0.303,0,0.572,0.109,0.775,0.297c0.215,0.217,0.332,0.5,0.332,0.785
					c0,0.623-0.488,1.105-1.107,1.105C59.014,59.741,58.525,59.258,58.525,58.635z"/>
				<path fill="#0078B0" d="M59.404,58.745h0.215h-0.012l0.338,0.557v0.023h0.014h0.215h0.033l-0.01-0.047l-0.373-0.557
					l-0.014,0.023c0.234-0.023,0.35-0.166,0.35-0.369c0-0.252-0.148-0.383-0.475-0.383h-0.48H59.18v0.01v1.299v0.023h0.025h0.199
					h0.012v-0.023v-0.566L59.404,58.745z M59.404,59.268h-0.199l0.014,0.033v-1.299l-0.014,0.033h0.48
					c0.303,0,0.438,0.111,0.438,0.34c0,0.193-0.1,0.307-0.313,0.334h-0.033l0.018,0.025l0.365,0.58l0.014-0.047h-0.215l0.018,0.01
					l-0.346-0.557l0,0h-0.012h-0.215h-0.031v0.014v0.566L59.404,59.268z"/>
				<path fill="#0078B0" d="M59.416,58.569v-0.4l-0.012,0.021h0.258c0.178,0,0.256,0.053,0.256,0.172
					c0,0.164-0.123,0.174-0.287,0.174h-0.227L59.416,58.569z M59.631,58.579c0.139,0,0.328,0,0.328-0.217
					c0-0.209-0.223-0.209-0.297-0.209h-0.258h-0.031v0.016v0.4v0.01h0.031H59.631z"/>
			</g>
			<g>
				<g>
					<path fill="#0078B0" d="M49.279,54.815l1.434-2.186l0.09,2.186H49.279z M55.059,54.774l1.449-2.189l0.064,2.189H55.059z"/>
					<path fill="#0078B0" d="M49.293,54.825l1.449-2.182l-0.041-0.014l0.074,2.186l0.027-0.021h-1.523L49.293,54.825z
						 M50.813,54.815l-0.07-2.186v-0.066l-0.037,0.055l-1.447,2.176l-0.018,0.031h0.039h1.523h0.01V54.815z"/>
					<path fill="#0078B0" d="M55.076,54.793l1.438-2.176l-0.025-0.014l0.063,2.17l0.021-0.027h-1.514L55.076,54.793z M56.596,54.774
						l-0.072-2.189V52.54l-0.035,0.037l-1.445,2.197l-0.018,0.02h0.033h1.514h0.023V54.774z"/>
				</g>
				<g>
					<path fill="#0078B0" d="M56.697,57.424l-0.102-0.986h-2.725l-0.6,0.963h-2.354l-0.059-0.963h-2.652l-0.652,0.986h-3.766
						c-1.16,0-2.227-0.723-2.416-1.811c-0.084-0.529-0.08-1.043,0-1.539l-0.943,3.35h-2.09c0,0-1.088-2.65-1.352-3.285
						c-0.191,0.676-0.902,3.285-0.902,3.285h-1.865l1.445-5.268h-0.639l0.439-1.557h2.332l1.625,3.818l0.656-2.262h-0.646
						l0.443-1.557h2.486l-0.727,2.5c0.449-1.279,1.854-2.514,3.602-2.514l2.789,0.014l-0.641,2.369h-1.822
						c0,0,0.143-0.539,0.209-0.799h-0.408c-0.99,0-1.963,1.473-1.963,2.523c0,1.016,0.826,1.213,1.043,1.213h2.043l2.473-3.75
						l-0.584-0.01l0.438-1.547h3.797l0.256,4.484l1.85-2.928c-0.012,0-0.584,0-0.584,0l0.443-1.557h3.744l0.422,6.068
						c0.824-1.814,1.297-3.846,1.297-5.982c0-7.953-6.467-14.406-14.438-14.406c-7.955,0-14.428,6.453-14.428,14.406
						c0,7.973,6.473,14.438,14.428,14.438c5.547,0,10.35-3.139,12.766-7.699H56.697z"/>
					<path fill="#0078B0" d="M56.717,57.424l-0.104-0.986v-0.01h-0.018h-2.725h-0.008l-0.006,0.01l-0.604,0.963h0.018h-2.354h0.012
						l-0.043-0.963l-0.004-0.01h-0.023h-2.652h-0.012l-0.004,0.01l-0.652,0.963h0.016h-3.766c-1.203,0-2.223-0.764-2.391-1.787
						c-0.094-0.52-0.094-1.025,0-1.539h-0.033l-0.953,3.326h0.018h-2.09h0.035l-1.367-3.262l-0.02-0.064l-0.023,0.064l-0.889,3.262
						h0.01h-1.865l0.02,0.023l1.453-5.268v-0.033h-0.027h-0.639l0.023,0.033l0.439-1.547l-0.023,0.01h2.332l-0.008-0.01l1.621,3.832
						l0.021,0.045l0.012-0.045l0.654-2.285l0.004-0.033H40.08h-0.646l0.012,0.033l0.438-1.557l-0.006,0.01l2.486,0.01l-0.016-0.02
						l-0.727,2.5l0.033,0.01c0.223-0.646,0.693-1.266,1.307-1.734c0.67-0.502,1.465-0.775,2.277-0.775l2.789,0.01l-0.018-0.023
						l-0.652,2.383l0.029-0.025h-1.822l0.016,0.025l0.217-0.789l0.008-0.01h-0.031l-0.408-0.014c-0.986,0-1.986,1.465-1.986,2.537
						c0,1.025,0.84,1.246,1.066,1.246h2.043h0.008h0.006l2.475-3.783l0.012-0.033h-0.027h-0.584l0.021,0.033l0.443-1.557
						l-0.027,0.01h3.797l-0.023-0.01l0.252,4.484l0.01,0.057l0.035-0.057l1.848-2.928l0.012-0.033h-0.027h-0.584l0.025,0.033
						l0.434-1.557l-0.016,0.01h3.744l-0.021-0.01l0.412,6.068l0.01,0.09l0.037-0.066c0.855-1.898,1.291-3.918,1.291-6.006
						c0-1.957-0.377-3.832-1.135-5.619c-0.729-1.725-1.764-3.262-3.092-4.607c-1.324-1.33-2.867-2.344-4.592-3.074
						c-1.789-0.766-3.676-1.129-5.629-1.129c-1.943,0-3.836,0.363-5.625,1.129c-1.715,0.73-3.258,1.764-4.59,3.074
						c-1.318,1.346-2.359,2.883-3.086,4.607c-0.758,1.787-1.143,3.662-1.143,5.619s0.385,3.842,1.143,5.625
						c0.727,1.732,1.768,3.25,3.086,4.594c1.332,1.326,2.875,2.357,4.59,3.104c1.789,0.742,3.688,1.129,5.625,1.129
						c2.684,0,5.297-0.736,7.563-2.135c2.209-1.354,4.012-3.295,5.219-5.578l0.021-0.023h-0.037h-1.67L56.717,57.424z
						 M58.348,57.401c-1.199,2.283-3.002,4.217-5.195,5.559c-2.266,1.408-4.873,2.131-7.551,2.131c-1.938,0-3.82-0.369-5.6-1.125
						c-1.719-0.736-3.26-1.768-4.588-3.104c-1.314-1.32-2.355-2.859-3.078-4.57c-0.748-1.764-1.133-3.648-1.133-5.605
						c0-1.943,0.385-3.82,1.133-5.602c0.723-1.715,1.764-3.256,3.078-4.592c1.328-1.318,2.869-2.342,4.588-3.068
						c1.779-0.762,3.662-1.133,5.6-1.133c1.947,0,3.838,0.371,5.617,1.133c1.719,0.727,3.254,1.75,4.58,3.068
						c1.314,1.336,2.357,2.877,3.08,4.592c0.752,1.781,1.133,3.658,1.133,5.602c0,2.088-0.434,4.088-1.291,5.982h0.037L58.334,50.6
						v-0.02H58.32h-3.744h-0.018v0.006l-0.447,1.561l-0.004,0.023h0.025h0.584l-0.018-0.047l-1.85,2.939l0.035,0.021L52.629,50.6
						l-0.006-0.02h-0.012h-3.797h-0.016l-0.004,0.006l-0.432,1.537l-0.008,0.033h0.021l0.584,0.014l-0.023-0.047l-2.479,3.783
						l0.029-0.027h-2.043c-0.217,0-1.041-0.203-1.041-1.186c0-1.059,0.988-2.48,1.961-2.48h0.408l-0.018-0.043l-0.215,0.799
						l-0.002,0.008h0.025h1.822h0.002v-0.008l0.66-2.369l0.004-0.02h-0.025h-2.789c-0.824,0-1.617,0.26-2.297,0.771
						c-0.621,0.469-1.1,1.092-1.32,1.748l0.033,0.01l0.727-2.5l0.012-0.023h-0.029l-2.486-0.006h-0.01l-0.018,0.006l-0.438,1.561
						l-0.004,0.023h0.025h0.646l-0.02-0.023l-0.648,2.271h0.029L37.814,50.6l-0.004-0.014h-0.012h-2.332h-0.012V50.6l-0.441,1.557
						l-0.008,0.014h0.021h0.639l-0.014-0.014l-1.449,5.244l-0.008,0.043h0.025h1.865h0.018l0.006-0.02l0.898-3.275h-0.043
						l1.363,3.275l0.004,0.02h0.008h2.09h0.012v-0.02l0.957-3.35h-0.041c-0.086,0.514-0.086,1.031-0.006,1.545
						c0.176,1.049,1.201,1.824,2.438,1.824h3.766h0.014l0.004-0.02l0.652-0.973l-0.018,0.014h2.652l-0.018-0.027l0.057,0.963v0.023
						h0.02h2.354h0.016h0.006l0.6-0.973l-0.021,0.014h2.725l-0.023-0.027l0.111,0.986l0.002,0.02h0.012h1.67L58.348,57.401z"/>
				</g>
			</g>
		</g>
	</g>
</g>
</svg>
