<?xml version="1.0" encoding="UTF-8" standalone="no"?>
<svg
   xmlns:dc="http://purl.org/dc/elements/1.1/"
   xmlns:cc="http://creativecommons.org/ns#"
   xmlns:rdf="http://www.w3.org/1999/02/22-rdf-syntax-ns#"
   xmlns:svg="http://www.w3.org/2000/svg"
   xmlns="http://www.w3.org/2000/svg"
   viewBox="0 0 820.71997 672.03998"
   height="672.03998"
   width="820.71997"
   xml:space="preserve"
   id="svg2"
   version="1.1"><metadata
     id="metadata8"><rdf:RDF><cc:Work
         rdf:about=""><dc:format>image/svg+xml</dc:format><dc:type
           rdf:resource="http://purl.org/dc/dcmitype/StillImage" /></cc:Work></rdf:RDF></metadata><defs
     id="defs6" /><g
     transform="matrix(1.3333333,0,0,-1.3333333,0,672.04)"
     id="g10"><g
       transform="scale(0.1)"
       id="g12"><path
         id="path14"
         style="fill:#afa66f;fill-opacity:1;fill-rule:nonzero;stroke:none"
         d="m 6155.41,2281.87 c 0,324.12 -322.49,627.11 -907.97,853.14 -143.85,55.57 -299.48,104.85 -464.65,147.7 l -44.68,1147.33 -972.07,0.01 -30.33,610.25 H 2428.63 l -31.75,-610.25 H 1412.15 L 1367.06,3281.16 C 1203.99,3238.71 1050.19,3189.91 908.035,3135.01 322.488,2908.98 0,2605.99 0,2281.87 0,1890.33 480.012,1528.04 1289.49,1303.84 L 1238.31,0 3074.42,702.121 4910.53,0 4876.55,871.691 c 10.08,-0.41 20.04,-1.152 30.19,-1.152 72.5,0 144.46,11.371 213.98,33.781 175.86,56.59 318.22,177.82 400.94,341.3 54.43,107.64 78.19,224.88 70.94,341.72 365.75,200.91 562.81,441.29 562.81,694.53" /><path
         id="path16"
         style="fill:#203466;fill-opacity:1;fill-rule:nonzero;stroke:none"
         d="m 6047.08,2327.58 c 0,223.72 -183.18,431.88 -497.27,605.38 218.92,-150.49 335.22,-320.33 335.22,-497.28 0,-151.77 -85.64,-298.19 -248.1,-431.68 l -5.55,5.55 c 123.47,116.03 191.5,242.48 191.5,374.82 0,423.29 -693.44,786.33 -1681.49,941.14 l -10.02,84.95 c 195.09,-27.55 382.53,-62.75 559.89,-105.26 l -31.68,1043.15 -889.49,0.01 7.24,-146.29 63.5,-1278.86 h -424.98 v 176.14 h 0.74 l -1.55,0.94 c 0,98.63 -43.12,186.7 -111.43,247.42 -58.48,52.06 -135.52,84.01 -219.8,84.01 -183.11,0 -331.42,-148.38 -331.42,-331.49 v -177.02 h -106.75 -327.23 l 74.19,1425.15 h -904.18 l -36.15,-1046.07 c 184.6,44.75 380.24,81.44 584.06,109.87 l -10.02,-85.36 C 1047.74,3172.66 360.113,2808.88 360.113,2384.37 c 0,-153.8 90.774,-299.47 252.563,-430.32 l -3.86,-17.13 c -220.613,150.82 -337.992,321.07 -337.992,498.77 0,176.95 116.028,346.79 335.016,497.27 -314.098,-173.5 -497.277,-381.65 -497.277,-605.38 0,-371.91 506.683,-701.1 1279.067,-898.83 L 1343.69,157.469 3074.14,823.441 4786.3,176.09 4761.79,984 c 46.64,-11.641 95.18,-18.07 145,-18.07 62.21,0 124.02,9.75 183.65,28.898 151.23,48.882 273.48,152.922 344.36,293.182 62.75,124.22 77.98,263.67 44.47,397.16 356.88,180.47 567.81,402.5 567.81,642.41" /><path
         id="path18"
         style="fill:#ffffff;fill-opacity:1;fill-rule:nonzero;stroke:none"
         d="m 4529.04,1085.02 c -126.79,-11.57 -727.16,-61.8 -1394.42,-45.42 l 1406.33,-486.112 -11.91,531.532" /><path
         id="path20"
         style="fill:#afa66f;fill-opacity:1;fill-rule:nonzero;stroke:none"
         d="m 1703.06,1694.51 h -64.78 l -14.35,-71.82 h -57.48 l 38.79,193.53 h 57.13 l -15.23,-77.1 h 64.79 l 15.57,77.1 h 57.2 l -38.45,-193.53 h -57.48 l 14.29,71.82" /><path
         id="path22"
         style="fill:#afa66f;fill-opacity:1;fill-rule:nonzero;stroke:none"
         d="m 1944.92,1660.3 7.92,6.97 20.64,104.39 -7.92,7.04 h -51.78 l -8.26,-7.04 -20.65,-104.39 7.92,-6.97 z m -120.43,-9.54 27.35,137.41 31.75,28.1 h 119.14 l 31.75,-28.1 -27.62,-137.41 -31.41,-28.1 h -119.48 l -31.48,28.1" /><path
         id="path24"
         style="fill:#afa66f;fill-opacity:1;fill-rule:nonzero;stroke:none"
         d="m 2076.53,1650.74 33.04,165.51 h 57.54 l -29.92,-147.84 8.25,-6.97 h 48.95 l 7.92,6.97 29.58,147.84 h 57.47 l -33.37,-165.51 -31.41,-28.02 h -116.3 l -31.75,28.02" /><path
         id="path26"
         style="fill:#afa66f;fill-opacity:1;fill-rule:nonzero;stroke:none"
         d="m 2322.53,1649.07 6.7,34.25 h 57.48 l -4.13,-19.97 4.13,-3.65 h 51.78 l 4.13,3.65 6.02,30.33 -2.23,1.96 -80.69,10.9 -26.33,23.29 11.71,59.23 30.87,27.21 h 112.71 l 29.92,-26.4 -7.05,-34.25 h -57.47 l 4.13,19.97 -4.47,3.92 h -49.89 l -4.12,-3.65 -5.69,-29.45 2.57,-2.23 80.35,-10.7 26.34,-23.55 -12.05,-59.98 -30.8,-27.28 h -114.07 l -29.85,26.4" /><path
         id="path28"
         style="fill:#afa66f;fill-opacity:1;fill-rule:nonzero;stroke:none"
         d="m 2693.98,1776.42 -30.8,-153.74 h -57.2 l 30.8,153.74 h -58.08 l 7.92,39.8 h 172.48 l -8.26,-39.8 h -56.86" /><path
         id="path30"
         style="fill:#afa66f;fill-opacity:1;fill-rule:nonzero;stroke:none"
         d="m 2904.39,1660.3 7.92,6.97 20.64,104.39 -7.92,7.04 h -51.78 l -8.26,-7.04 -20.65,-104.39 7.92,-6.97 z m -120.43,-9.54 27.35,137.41 31.75,28.1 h 119.14 l 31.75,-28.1 -27.62,-137.41 -31.41,-28.1 h -119.48 l -31.48,28.1" /><path
         id="path32"
         style="fill:#afa66f;fill-opacity:1;fill-rule:nonzero;stroke:none"
         d="m 3072.22,1816.25 h 60.99 l 44.81,-117.51 24.1,117.51 h 50.57 l -38.79,-193.53 h -60.38 l -44.75,121.17 -24.77,-121.17 h -50.57 l 38.79,193.53" /><path
         id="path34"
         style="fill:#afa66f;fill-opacity:1;fill-rule:nonzero;stroke:none"
         d="m 3422.13,1709.39 27.34,24.09 h 87.94 l 5.07,4.2 7.65,37.91 -4.13,3.65 h -50.83 l -4.13,-3.65 -4.13,-19.97 h -57.14 l 6.64,34.25 29.85,26.4 h 112.78 l 30.8,-27.21 -14.28,-71.28 -27.01,-24.1 h -88.01 l -5.07,-4.2 -5.69,-28.63 h 114.33 l -7.64,-38.18 H 3405 l 17.13,86.72" /><path
         id="path36"
         style="fill:#afa66f;fill-opacity:1;fill-rule:nonzero;stroke:none"
         d="m 3772.29,1660.3 7.92,6.97 20.65,104.39 -7.92,7.04 h -51.79 l -8.26,-7.04 -20.65,-104.39 7.99,-6.97 z m -120.43,-9.55 27.35,137.42 31.75,28.09 h 119.14 l 31.75,-28.09 -27.62,-137.42 -31.41,-28.09 h -119.48 l -31.48,28.09" /><path
         id="path38"
         style="fill:#afa66f;fill-opacity:1;fill-rule:nonzero;stroke:none"
         d="m 3902.96,1660.01 h 39.73 l 23.83,119.21 h -39.4 l 7.25,37.02 h 96.93 l -31.47,-156.23 h 39.73 l -7.31,-37.3 h -136.6 l 7.31,37.3" /><path
         id="path40"
         style="fill:#afa66f;fill-opacity:1;fill-rule:nonzero;stroke:none"
         d="m 4165.44,1701.53 -7.31,-37.3 5.41,-4.81 h 57.47 l 5.42,4.81 7.99,38.72 -5.42,4.73 h -56.59 z m -67.36,-51.59 27.69,139.11 30.8,27.21 h 122.59 l 29.85,-26.39 -6.36,-30.26 h -57.13 l 3.18,15.97 -4.47,3.93 h -57.2 l -7.31,-6.43 -8.53,-42.38 15.23,13.47 h 82.59 l 26.4,-23.28 -14.35,-70.95 -30.8,-27.21 h -121.65 l -30.53,27.21" /><path
         id="path42"
         style="fill:#ffffff;fill-opacity:1;fill-rule:nonzero;stroke:none"
         d="m 2181.05,4142.39 c 0,-18.01 -15.23,-32.76 -34.05,-32.76 -18.82,0 -34.05,14.75 -34.05,32.76 0,18.21 15.23,32.97 34.05,32.97 18.82,0 34.05,-14.76 34.05,-32.97" /><path
         id="path44"
         style="fill:#ffffff;fill-opacity:1;fill-rule:nonzero;stroke:none"
         d="m 1654.2,3512.66 c 0,-18.07 -15.23,-32.76 -34.12,-32.76 -18.68,0 -33.91,14.69 -33.91,32.76 0,18.21 15.23,32.97 33.91,32.97 18.89,0 34.12,-14.76 34.12,-32.97" /><path
         id="path46"
         style="fill:#ffffff;fill-opacity:1;fill-rule:nonzero;stroke:none"
         d="m 4038.46,4148.34 c 0,-18.15 -15.3,-32.77 -33.98,-32.77 -18.89,0 -34.12,14.62 -34.12,32.77 0,18.14 15.23,32.89 34.12,32.89 18.68,0 33.98,-14.75 33.98,-32.89" /><path
         id="path48"
         style="fill:#ffffff;fill-opacity:1;fill-rule:nonzero;stroke:none"
         d="m 4537.38,3578.45 c 0,-18.21 -15.23,-32.84 -33.91,-32.84 -18.89,0 -34.12,14.63 -34.12,32.84 0,18.14 15.23,32.76 34.12,32.76 18.68,0 33.91,-14.62 33.91,-32.76" /><path
         id="path50"
         style="fill:#ffffff;fill-opacity:1;fill-rule:nonzero;stroke:none"
         d="m 4309.89,3851.15 159.55,25.52 -162.06,26.19 -26.53,153.87 -26.88,-156.44 -159.62,-25.59 162.06,-26.13 26.6,-153.8 26.88,156.38" /><path
         id="path52"
         style="fill:#ffffff;fill-opacity:1;fill-rule:nonzero;stroke:none"
         d="m 1864.2,4172.86 70.88,-204.78 h 229 l -185.27,-126.59 70.73,-204.77 -185.34,126.59 -185.34,-126.59 70.8,204.77 -185.41,126.59 h 229.28 l 70.67,204.78" /><path
         id="path54"
         style="fill:#ffffff;fill-opacity:1;fill-rule:nonzero;stroke:none"
         d="m 2875.13,1434.14 c -670.23,0 -1293.42,68.1 -1811.88,184.67 506.01,-172.14 1214.75,-279.1 1999.59,-279.1 455.44,0 885.02,36.22 1264.44,100.05 -6.84,35.61 -10.16,71.55 -10.16,107.36 -434.92,-72.23 -924.21,-112.98 -1441.99,-112.98" /><path
         id="path56"
         style="fill:#eb1a2c;fill-opacity:1;fill-rule:nonzero;stroke:none"
         d="m 3077.8,1233.7 c -527.12,0 -1022.57,50.97 -1452.15,140.05 l -18.21,-820.23 1415.94,489.49 c -468.57,16.72 -958.4,68.64 -1332.61,191.09 0,0 1302.28,-215.19 2726.61,-11.98 l 2.58,-2.5 c -25.8,37.3 -47.32,77.84 -63.97,121.24 C 3968.44,1272.49 3535.41,1233.7 3077.8,1233.7" /><path
         id="path58"
         style="fill:#ffffff;fill-opacity:1;fill-rule:nonzero;stroke:none"
         d="m 2317.58,2234.39 115.83,379.35 -31.41,-379.35 z m 228.26,518.8 h -219.12 l -273.34,-801.76 h 156.3 c 12.93,0 21.93,5.89 26.81,17.13 l 39.06,128.41 h 115.07 l -10.56,-128.41 c 0.27,-11.24 6.84,-17.13 19.91,-17.13 h 157.38 l 29.58,762.16 c -0.81,21.8 -19.08,39.6 -41.09,39.6" /><path
         id="path60"
         style="fill:#ffffff;fill-opacity:1;fill-rule:nonzero;stroke:none"
         d="m 4008.81,2118.26 c -2.51,-12.59 -10.16,-18.48 -24.23,-18.48 h -53.96 c -14.21,0 -19.63,5.89 -17.19,18.48 l 90.84,468.23 c 2.37,12.39 10.09,18.21 24.37,18.21 h 53.69 c 14.28,0 19.56,-5.82 17.39,-18.21 z m -60.86,634.96 -114.67,-86.38 -121.98,-628.93 81.09,-86.52 h 268.48 l 114.53,86.52 122.12,628.93 -81.1,86.38 h -268.47" /><path
         id="path62"
         style="fill:#ffffff;fill-opacity:1;fill-rule:nonzero;stroke:none"
         d="m 722.184,1951.42 h 143.507 c 21.934,0 43.395,17.87 47.59,39.8 l 57.946,299.07 h 108.313 c 15.9,0 30.12,9.54 34.32,21.93 l 38.58,115.55 H 998.031 l 34.259,176.82 h 178.23 c 22.07,0 43.39,17.66 47.59,39.6 l 21.26,109.05 H 877.742 L 722.184,1951.42" /><path
         id="path64"
         style="fill:#ffffff;fill-opacity:1;fill-rule:nonzero;stroke:none"
         d="m 3218.34,1951.42 h 143.51 c 21.93,0 43.25,17.87 47.52,39.8 l 58.08,299.07 h 108.1 c 16.05,0 30.26,9.54 34.32,21.93 l 38.66,115.55 h -154.35 l 34.26,176.82 h 178.3 c 22,0 43.33,17.66 47.59,39.6 l 21.12,109.05 h -401.49 l -155.62,-801.82" /><path
         id="path66"
         style="fill:#ffffff;fill-opacity:1;fill-rule:nonzero;stroke:none"
         d="m 2972.21,2753.21 h -183.38 l -155.49,-801.83 h 314.84 c 22.07,0 43.39,17.94 47.72,39.87 l 21.12,108.72 h -171.46 l 126.65,653.24" /><path
         id="path68"
         style="fill:#ffffff;fill-opacity:1;fill-rule:nonzero;stroke:none"
         d="m 1370.69,2753.21 -155.56,-801.83 h 138.23 c 21.99,0 43.39,17.94 47.58,39.87 l 147.91,761.96 h -178.16" /><path
         id="path70"
         style="fill:#ffffff;fill-opacity:1;fill-rule:nonzero;stroke:none"
         d="m 1966.03,2753.52 -73.72,-379.62 -54.7,356.2 c -3.99,15.84 -16.72,23.55 -34.66,23.55 l -146.01,-0.13 -155.56,-802.1 h 126.25 c 22.13,0 43.45,17.87 47.72,39.81 l 73.18,377.32 62.27,-393.64 c 4.2,-15.7 16.93,-23.49 34.6,-23.49 h 131.45 l 155.5,802.1 h -166.32" /><path
         id="path72"
         style="fill:#ffffff;fill-opacity:1;fill-rule:nonzero;stroke:none"
         d="m 5129,2605.57 h 92.06 c 14.35,0 19.63,-5.75 17.26,-18.28 l -34.52,-178.1 c -2.44,-12.18 -10.09,-17.93 -24.31,-17.93 h -91.99 z m -222.04,-478.59 h 0.07 c 43.19,0 85.49,-4.94 126.45,-13.74 l 26.94,138.64 h 33.1 l 29.72,-165.51 c 70.87,-27.49 135.45,-68.17 190.29,-119.69 4.46,6.77 6.7,15.23 5.48,24.51 l -50.09,273.82 96.93,72.84 63.97,329.32 -80.82,86.04 h -376.71 l -122.12,-629.28 c 18.82,1.83 37.77,3.05 56.72,3.05 h 0.07" /><path
         id="path74"
         style="fill:#ffffff;fill-opacity:1;fill-rule:nonzero;stroke:none"
         d="m 4747.22,2104.72 125.84,648.5 h -185.28 l -123.26,-634.96 c -2.58,-12.6 -10.16,-18.48 -24.51,-18.48 h -48.33 c -14.36,0 -19.57,5.88 -17.13,18.48 l 123.27,634.96 h -184.6 l -138.77,-715.32 81.03,-86.51 h 129.02 c 65.53,66.34 146.62,116.84 238.76,146.62 7.91,2.58 15.97,4.47 23.96,6.71" /><path
         id="path76"
         style="fill:#d34f1f;fill-opacity:1;fill-rule:nonzero;stroke:none"
         d="m 4549.79,1440.4 c 3.92,-0.75 7.85,-0.48 11.7,-0.54 -66.2,176.34 -37.83,343.34 -6.29,445.76 -71.21,-71.22 -118.53,-162.47 -135.05,-260.89 9.34,-38.86 46.78,-169.03 129.64,-184.33" /><path
         id="path78"
         style="fill:#d34f1f;fill-opacity:1;fill-rule:nonzero;stroke:none"
         d="m 4587.15,1381.18 c -7.86,-1.56 -15.91,-2.37 -24.17,-2.37 -7.92,0 -15.91,0.74 -24.17,2.23 -54.15,10.02 -92.06,46.44 -118.39,87.67 4.06,-24.51 9.54,-49.01 17.66,-73.32 12.05,-35.94 28.3,-69.25 47.46,-100.25 46.17,2.71 92.33,10.36 138.02,22.14 -13.74,21.25 -25.86,42.64 -36.41,63.9" /><path
         id="path80"
         style="fill:#d34f1f;fill-opacity:1;fill-rule:nonzero;stroke:none"
         d="m 4708.55,1207.01 c -15.71,17.53 -31.41,36.82 -47.25,57.4 -45.7,-12.93 -90.51,-21.53 -134.37,-26.4 32.62,-38.65 70.67,-71.89 112.91,-98.56 2.98,5.62 6.29,11.23 10.22,16.72 12.32,17.26 31,35.2 58.49,50.84" /><path
         id="path82"
         style="fill:#d34f1f;fill-opacity:1;fill-rule:nonzero;stroke:none"
         d="m 4846.62,1722.94 c -44.34,-103.09 -111.22,-257.64 -204.03,-318.22 11.71,-23.09 25.66,-46.31 41.63,-69.46 295.55,99.04 560.44,348.62 654.6,444.61 -50.84,90.85 -128.89,160.84 -220.55,203.56 -19.22,0.2 -38.45,-3.32 -58.08,-10.84 -93.82,-36.14 -171.87,-152.64 -213.57,-249.65" /><path
         id="path84"
         style="fill:#d34f1f;fill-opacity:1;fill-rule:nonzero;stroke:none"
         d="m 4617.76,1460.49 c 73.18,53.81 135.8,198.81 173.36,286.27 21.33,49.55 97.75,208.36 223.8,271.59 -84.14,18.61 -174.24,16.38 -262.18,-11.98 -37.57,-12.12 -72.29,-28.64 -104.52,-48.13 -8.86,-16.39 -127.33,-244.58 -30.46,-497.75" /><path
         id="path86"
         style="fill:#d34f1f;fill-opacity:1;fill-rule:nonzero;stroke:none"
         d="m 4722.3,1284.09 c 15.3,-19.09 30.53,-36.29 45.56,-52.4 51.79,15.37 121.98,23.42 217.97,16.99 233.07,-15.91 346.79,90.51 387.34,141.35 33.65,96.26 37.23,203.48 2.44,307.59 -2.78,8.19 -6.23,15.91 -9.34,23.83 -50.84,-50.9 -134.44,-129.5 -240.18,-209.58 -140.32,-106.34 -275.31,-182.23 -403.79,-227.78" /><path
         id="path88"
         style="fill:#d34f1f;fill-opacity:1;fill-rule:nonzero;stroke:none"
         d="m 4981.73,1188.45 c -69.52,4.74 -122.39,1.36 -162.94,-6.23 70.4,-61.94 135.93,-93.75 190.83,-109.25 17.12,3.58 34.25,8.05 51.31,13.54 97.55,31.47 178.3,89.96 236.59,164.29 -72.57,-40.48 -175.06,-71.89 -315.79,-62.35" /><path
         id="path90"
         style="fill:#d34f1f;fill-opacity:1;fill-rule:nonzero;stroke:none"
         d="m 4699.18,1121.08 c -2.57,-3.59 -4.53,-7.11 -6.36,-10.5 58.22,-27.48 121.85,-43.73 187.51,-47.25 -40.82,23.7 -84.01,55.65 -128.28,98.43 -28.09,-13.06 -44.07,-28.36 -52.87,-40.68" /><path
         id="path92"
         style="fill:#ef6419;fill-opacity:1;fill-rule:nonzero;stroke:none"
         d="m 4591.95,1549.74 c 25.39,-11.78 54.02,-20.24 84.89,-25.04 47.38,67.08 87.32,159.35 114.33,222.1 21.19,49.28 97.07,207 222.1,270.77 -77.91,21.86 -175.53,18.01 -272.67,-17.06 -33.84,-12.25 -65.18,-27.41 -93.68,-44.81 -13.54,-25.93 -97.35,-198.88 -54.97,-405.96" /><path
         id="path94"
         style="fill:#ef6419;fill-opacity:1;fill-rule:nonzero;stroke:none"
         d="m 4846.62,1722.94 c -25.72,-59.77 -59.03,-136.67 -100.52,-202.67 52.05,0.74 107.7,10.49 163.14,30.53 185.88,66.95 298.79,222.1 252.22,346.25 -12.86,34.52 -37.03,62.75 -68.78,84.41 -10.76,-1.76 -21.52,-4.67 -32.49,-8.87 -93.82,-36.14 -171.87,-152.64 -213.57,-249.65" /><path
         id="path96"
         style="fill:#ef6419;fill-opacity:1;fill-rule:nonzero;stroke:none"
         d="m 4553.47,1879.96 c -64.58,-69.99 -92.27,-153.12 -64.99,-225.82 8.06,-21.39 20.51,-40.35 36.29,-56.93 -11.58,112.03 7.44,211.88 28.7,282.75" /><path
         id="path98"
         style="fill:#afa66f;fill-opacity:1;fill-rule:nonzero;stroke:none"
         d="m 2197.72,1994.38 44.54,145.54 h 195.9 l -12.11,-145.54 h 89.22 l 12.72,327.5 c -25.04,-0.75 -50.02,-1.56 -74.93,-2.51 L 2442.43,2191.3 H 2257.9 l 37.23,122.05 c -24.24,-0.95 -48.27,-2.1 -72.37,-3.25 l -107.63,-315.72 h 82.59" /><path
         id="path100"
         style="fill:#afa66f;fill-opacity:1;fill-rule:nonzero;stroke:none"
         d="m 3808.95,1994.38 h 234.28 l 92.06,69.65 45.36,233.34 c -30.19,1.83 -60.45,3.66 -90.98,5.35 l -37.91,-195.97 c -6.3,-31.34 -30.19,-49.89 -63.7,-49.89 h -53.75 c -27.01,0 -42.71,11.78 -51.17,21.59 -8.47,9.88 -17.33,26.74 -12.46,51.38 l 35.27,182.16 c -31.82,1.36 -63.7,2.85 -95.72,4.13 l -51.85,-267.79 50.57,-53.95" /><path
         id="path102"
         style="fill:#afa66f;fill-opacity:1;fill-rule:nonzero;stroke:none"
         d="m 861.957,1994.38 c 2.773,0.47 7.918,4.74 8.465,8.26 l 38.176,196.71 c -32.153,-4.46 -64.106,-8.8 -95.856,-13.27 l -37.16,-191.7 h 86.375" /><path
         id="path104"
         style="fill:#afa66f;fill-opacity:1;fill-rule:nonzero;stroke:none"
         d="m 3358.13,1994.38 c 2.64,0.47 7.85,4.74 8.53,8.26 l 62.68,323.57 c -30.8,0.68 -61.8,1.22 -92.8,1.56 l -64.65,-333.39 h 86.24" /><path
         id="path106"
         style="fill:#afa66f;fill-opacity:1;fill-rule:nonzero;stroke:none"
         d="m 2944.48,1994.38 c 2.77,0.4 7.85,4.74 8.66,8.26 l 10.49,54.35 h -171.4 l 52.47,271.12 c -31.21,-0.55 -62.42,-0.82 -93.56,-1.43 l -64.51,-332.3 h 257.85" /><path
         id="path108"
         style="fill:#afa66f;fill-opacity:1;fill-rule:nonzero;stroke:none"
         d="m 1349.65,1994.38 c 2.85,0.4 7.99,4.74 8.6,8.26 l 48.87,251.61 c -30.26,-2.98 -60.11,-5.95 -89.89,-9.14 l -48.68,-250.73 h 81.1" /><path
         id="path110"
         style="fill:#afa66f;fill-opacity:1;fill-rule:nonzero;stroke:none"
         d="m 1851.31,1994.47 88.94,-0.06 59.1,305.02 c -25.79,-1.56 -51.72,-3.18 -77.31,-4.8 l -33.98,-175.4 -26.4,171.2 c -18.82,-1.22 -37.84,-2.57 -56.59,-3.79 l 46.24,-292.17" /><path
         id="path112"
         style="fill:#afa66f;fill-opacity:1;fill-rule:nonzero;stroke:none"
         d="m 1624.11,1994.38 c 2.37,0.2 7.59,4.53 8.4,8.26 l 53.27,274.63 c -25.99,-1.96 -51.72,-4.33 -77.58,-6.43 l -53.47,-276.46 h 69.38" /><path
         id="path114"
         style="fill:#afa66f;fill-opacity:1;fill-rule:nonzero;stroke:none"
         d="m 4906.96,2126.99 h 0.06 c 28.16,0 55.85,-2.3 83.13,-6.09 l 20.78,107.43 c -31.07,3.58 -62.07,7.04 -93.48,10.35 l -21.8,-112.1 c 3.79,0 7.51,0.41 11.24,0.41 h 0.07" /><path
         id="path116"
         style="fill:#afa66f;fill-opacity:1;fill-rule:nonzero;stroke:none"
         d="m 5236.98,2200.67 c -30.73,3.92 -61.67,7.98 -92.88,11.84 l 26.4,-146.69 c 36.76,-18.07 71.22,-40.07 103.3,-65.19 l -36.82,200.04" /><path
         id="path118"
         style="fill:#afa66f;fill-opacity:1;fill-rule:nonzero;stroke:none"
         d="m 4731.4,2255.33 c -31,3.04 -62.28,6.09 -93.48,8.66 l -30.6,-157.18 c -6.36,-31.48 -30.12,-49.96 -63.7,-49.96 h -48.27 c -26.94,0 -42.78,11.78 -51.1,21.6 -8.33,9.88 -17.4,26.74 -12.59,51.38 l 28.97,149.12 c -30.73,2.51 -61.81,4.88 -93.15,7.11 l -45.96,-237.74 50.43,-53.95 h 160.3 c 49.35,40.01 105.53,71.83 166.86,94.5 l 32.29,166.46" /><path
         id="path120"
         style="fill:#736c4d;fill-opacity:1;fill-rule:nonzero;stroke:none"
         d="m 5424.64,2199.97 c 5.82,0 9.34,1.22 9.27,6.97 -0.2,5.69 -7.24,5.69 -12.39,5.69 h -11.98 l 0.34,-12.66 z m 19.29,-30.19 h -11.98 l -12.66,20.85 h -9.14 l 0.48,-20.85 h -10.9 l -1.29,52.19 h 25.38 c 12.05,0 20.25,-2.17 20.58,-15.91 0.34,-9.68 -4.4,-14.82 -13.74,-15.43 z m -63.02,25.86 c 0.61,-22.41 18.48,-39.4 40.07,-39.4 21.66,0 38.66,16.99 38.11,39.4 -0.6,22.61 -18.54,39.39 -40.14,39.39 -21.52,0 -38.58,-16.78 -38.04,-39.39 m -10.9,0 c -0.75,27.95 20.78,50.29 48.74,50.29 28.02,0 50.63,-22.34 51.31,-50.29 0.68,-27.96 -20.85,-50.23 -48.81,-50.23 -28.02,0 -50.63,22.27 -51.24,50.23" /><path
         id="path122"
         style="fill:#ffffff;fill-opacity:1;fill-rule:nonzero;stroke:none"
         d="m 4980.64,2923.19 c -221.09,75.55 -557.79,142.36 -811.78,168.83 l 19.84,-168.83 h 791.94" /><path
         id="path124"
         style="fill:#eb1a2c;fill-opacity:1;fill-rule:nonzero;stroke:none"
         d="m 1175.11,2923.19 h 803.72 l 20.04,170.05 c -255.27,-25.52 -599.29,-93.35 -823.76,-170.05" /><path
         id="path126"
         style="fill:#736c4d;fill-opacity:1;fill-rule:nonzero;stroke:none"
         d="m 2379.16,4090.11 -121.99,-133.02 -96.46,-1033.87 h 157.73 l 60.72,1166.89" /><path
         id="path128"
         style="fill:#736c4d;fill-opacity:1;fill-rule:nonzero;stroke:none"
         d="m 3563.97,4050.21 c -91.72,-173.63 -274.23,-291.89 -484.35,-291.89 -150.55,0 -286.88,60.72 -385.85,159.01 0,-0.07 -0.06,-0.14 -0.06,-0.2 l -0.07,-0.07 c 139.45,-139.45 286.75,-255.81 431,-349.09 -14.08,1.35 -28.3,2.16 -42.71,2.16 -240.18,0 -435.2,-194.82 -435.2,-435.4 v -211.54 h 105.67 v 177.02 c 0,183.18 148.24,331.49 331.42,331.49 84.21,0 161.31,-31.95 219.8,-84.01 l 76.63,76.7 c 169.84,-80.22 324.32,-122.87 441.9,-125.84 l 18.69,-375.36 h 165.98 l -96.4,1033.94 -127.73,139.59 -8.53,168.83 c -72.3,142.96 -176.21,296.08 -305.98,425.99 l -0.06,-0.07 c 98.29,-98.97 159.08,-235.3 159.08,-385.78 0,-81.03 -17.74,-157.93 -49.22,-227.12 l -14.01,-28.36" /><path
         id="path130"
         style="fill:#afa66f;fill-opacity:1;fill-rule:nonzero;stroke:none"
         d="m 3604.8,4005.43 v 14.89 h 10.02 c 5.21,0 10.56,-1.02 10.56,-7.11 0,-7.45 -5.55,-7.78 -11.84,-7.78 z m 0,-6.23 h 8.47 l 12.86,-20.99 h 8.19 l -13.81,21.33 c 7.1,0.94 12.52,4.67 12.52,13.26 0,9.48 -5.69,13.82 -17.13,13.82 h -18.2 v -48.41 h 7.1 z m 9.01,-38.65 c 22.88,0 42.37,17.66 42.37,41.96 0,24.1 -19.49,41.84 -42.37,41.84 -23.16,0 -42.65,-17.73 -42.65,-41.83 0,-24.31 19.49,-41.97 42.65,-41.97 m -34.26,41.97 c 0,19.76 15.03,34.79 34.26,34.79 18.95,0 33.91,-15.03 33.91,-34.8 0,-20.17 -14.96,-35.06 -33.91,-35.06 -19.23,0 -34.26,14.89 -34.26,35.07" /><path
         id="path132"
         style="fill:#1d5fad;fill-opacity:1;fill-rule:nonzero;stroke:none"
         d="m 3500.65,4050.21 -4.06,37.23 h -103.23 l -22.68,-36.82 h -89.49 l -2.03,36.82 -100.87,0.01 -24.57,-37.24 h -143.03 c -44.28,0 -84.69,27.08 -91.66,68.78 -3.25,19.56 -3.11,39.33 0,58.28 l -36.01,-126.99 -78.73,-0.07 c 0,0 -41.63,100.46 -51.65,124.69 -7.04,-25.58 -34.25,-124.69 -34.25,-124.69 h -70.74 l 54.83,199.97 h -24.3 l 16.58,58.89 h 88.61 l 61.88,-145.54 24.57,86.78 -24.44,-0.13 16.65,59.23 94.44,-0.34 -27.42,-95.65 c 16.85,48.81 70.26,96.33 136.33,96.33 l 106.28,-0.34 -24.77,-90.03 h -68.92 c 0,0 5.49,19.83 8.13,29.44 l -15.78,0.34 c -37.5,0 -74.39,-56.32 -74.39,-95.04 0,-38.85 31.21,-46.44 39.46,-46.44 l 77.38,-0.27 94.09,142.77 -21.93,0.34 16.31,58.89 h 144.19 l 9.82,-170.45 70.06,111.22 h -22 l 16.79,59.23 h 141.95 l 15.91,-230.84 c 31.47,69.19 49.21,146.09 49.21,227.12 0,302.38 -245.19,547.56 -547.57,547.56 -302.39,0 -547.44,-245.18 -547.44,-547.56 0,-302.39 245.05,-547.37 547.44,-547.37 210.12,0 392.62,118.26 484.34,291.89 h -63.29" /><path
         id="path134"
         style="fill:#ffffff;fill-opacity:1;fill-rule:nonzero;stroke:none"
         d="m 3577.97,4078.55 -15.91,230.9 h -141.95 l -16.79,-59.3 h 22 l -70.06,-111.15 -9.89,170.45 h -144.11 l -16.32,-58.96 21.93,-0.34 -94.09,-142.7 -77.44,0.28 c -8.19,0 -39.4,7.51 -39.4,46.37 0,38.72 36.83,95.1 74.4,95.1 l 15.77,-0.4 c -2.64,-9.62 -8.12,-29.38 -8.12,-29.38 h 68.91 l 24.77,90.03 -106.28,0.34 c -66.06,0 -119.47,-47.59 -136.33,-96.33 l 27.42,95.59 -94.44,0.4 -16.65,-59.3 24.44,0.14 -24.64,-86.79 -61.8,145.55 h -88.62 l -16.65,-58.9 h 24.37 l -54.83,-199.96 h 70.74 c 0,0 27.21,99.1 34.25,124.69 10.02,-24.17 51.58,-124.69 51.58,-124.69 l 78.73,0.13 36.08,126.99 c -3.11,-18.95 -3.31,-38.79 0,-58.35 6.91,-41.63 47.39,-68.77 91.66,-68.77 h 142.97 l 24.57,37.29 h 100.93 l 1.96,-36.82 h 89.49 l 22.75,36.82 h 103.23 l 4.06,-37.29 h 63.3 z m -139.52,71.89 54.7,82.92 2.91,-82.92 z m -219.6,-1.15 54.9,83.26 2.85,-83.26 h -57.75" /><path
         id="path136"
         style="fill:#1d5fad;fill-opacity:1;fill-rule:nonzero;stroke:none"
         d="m 3438.45,4150.44 54.76,82.92 2.84,-82.92 z m -219.53,-1.15 54.9,83.26 2.77,-83.26 h -57.67" /></g></g></svg>