<?xml version="1.0" encoding="UTF-8" standalone="no"?>
<svg
   xmlns:dc="http://purl.org/dc/elements/1.1/"
   xmlns:cc="http://creativecommons.org/ns#"
   xmlns:rdf="http://www.w3.org/1999/02/22-rdf-syntax-ns#"
   xmlns:svg="http://www.w3.org/2000/svg"
   xmlns="http://www.w3.org/2000/svg"
   id="svg8"
   version="1.1"
   viewBox="0 0 63.298084 64.042091"
   height="64.042091mm"
   width="63.298084mm">
  <defs
     id="defs2">
    <clipPath
       clipPathUnits="userSpaceOnUse"
       id="clipPath3717">
      <path
         d="M 78.827,0 H 612 v 203.801 z"
         id="path3715" />
    </clipPath>
    <clipPath
       clipPathUnits="userSpaceOnUse"
       id="clipPath3725">
      <path
         d="M 78.8275,203.922 H 612.319 V -7.62939e-5 H 78.8275 Z"
         id="path3723" />
    </clipPath>
    <clipPath
       clipPathUnits="userSpaceOnUse"
       id="clipPath3729">
      <path
         d="M 78.827,203.923 H 612.319 V 0 H 78.827 Z"
         id="path3727" />
    </clipPath>
    <linearGradient
       x1="0"
       y1="0"
       x2="1"
       y2="0"
       gradientUnits="userSpaceOnUse"
       gradientTransform="matrix(0,-631.3902,631.3902,0,345.57324,235.5498)"
       spreadMethod="pad"
       id="linearGradient3745">
      <stop
         style="stop-opacity:1;stop-color:#231f20"
         offset="0"
         id="stop3735" />
      <stop
         style="stop-opacity:1;stop-color:#231f20"
         offset="0.00510204"
         id="stop3737" />
      <stop
         style="stop-opacity:1;stop-color:#bdbcbc"
         offset="0.51179867"
         id="stop3739" />
      <stop
         style="stop-opacity:1;stop-color:#bdbcbc"
         offset="0.989796"
         id="stop3741" />
      <stop
         style="stop-opacity:1;stop-color:#bdbcbc"
         offset="1"
         id="stop3743" />
    </linearGradient>
    <mask
       maskUnits="userSpaceOnUse"
       x="0"
       y="0"
       width="1"
       height="1"
       id="mask3747">
      <g
         id="g3771">
        <g
           clip-path="url(#clipPath3725)"
           id="g3769">
          <path
             d="M 78.828,203.923 H 612.32 V 0 H 78.828 Z"
             style="fill:#000000;fill-opacity:1;fill-rule:nonzero;stroke:none"
             id="path3749" />
          <g
             id="g3767">
            <g
               id="g3751" />
            <g
               id="g3765">
              <g
                 clip-path="url(#clipPath3729)"
                 id="g3763">
                <g
                   id="g3761">
                  <g
                     id="g3759">
                    <g
                       id="g3757">
                      <g
                         id="g3755">
                        <path
                           d="M 78.827,0 H 612.319 V 203.923 H 78.827 Z"
                           style="fill:url(#linearGradient3745);stroke:none"
                           id="path3753" />
                      </g>
                    </g>
                  </g>
                </g>
              </g>
            </g>
          </g>
        </g>
      </g>
    </mask>
    <clipPath
       clipPathUnits="userSpaceOnUse"
       id="clipPath3779">
      <path
         d="M 78.8275,203.922 H 612.319 V -7.62939e-5 H 78.8275 Z"
         id="path3777" />
    </clipPath>
    <linearGradient
       x1="0"
       y1="0"
       x2="1"
       y2="0"
       gradientUnits="userSpaceOnUse"
       gradientTransform="matrix(0,-631.39026,631.39026,0,345.57343,235.54979)"
       spreadMethod="pad"
       id="linearGradient3795">
      <stop
         style="stop-opacity:1;stop-color:#00264f"
         offset="0"
         id="stop3785" />
      <stop
         style="stop-opacity:1;stop-color:#00264f"
         offset="0.00510204"
         id="stop3787" />
      <stop
         style="stop-opacity:1;stop-color:#00264f"
         offset="0.51179867"
         id="stop3789" />
      <stop
         style="stop-opacity:1;stop-color:#00264f"
         offset="0.989796"
         id="stop3791" />
      <stop
         style="stop-opacity:1;stop-color:#00264f"
         offset="1"
         id="stop3793" />
    </linearGradient>
    <clipPath
       clipPathUnits="userSpaceOnUse"
       id="clipPath3817">
      <path
         d="M 0,792 V 235.774 L 307.071,356.181 612,235.774 V 792 Z"
         id="path3815" />
    </clipPath>
    <clipPath
       clipPathUnits="userSpaceOnUse"
       id="clipPath3825">
      <path
         d="M -0.161102,703.567 H 612.158 V 235.712 H -0.161102 Z"
         id="path3823" />
    </clipPath>
    <clipPath
       clipPathUnits="userSpaceOnUse"
       id="clipPath3829">
      <path
         d="M -0.158997,703.567 H 612.158 V 235.712 H -0.158997 Z"
         id="path3827" />
    </clipPath>
    <linearGradient
       x1="0"
       y1="0"
       x2="1"
       y2="0"
       gradientUnits="userSpaceOnUse"
       gradientTransform="matrix(0,748.2713,-748.2713,0,306,235.71191)"
       spreadMethod="pad"
       id="linearGradient3845">
      <stop
         style="stop-opacity:1;stop-color:#231f20"
         offset="0"
         id="stop3835" />
      <stop
         style="stop-opacity:1;stop-color:#231f20"
         offset="0.00510204"
         id="stop3837" />
      <stop
         style="stop-opacity:1;stop-color:#ffffff"
         offset="0.32210307"
         id="stop3839" />
      <stop
         style="stop-opacity:1;stop-color:#ffffff"
         offset="0.989796"
         id="stop3841" />
      <stop
         style="stop-opacity:1;stop-color:#ffffff"
         offset="1"
         id="stop3843" />
    </linearGradient>
    <mask
       maskUnits="userSpaceOnUse"
       x="0"
       y="0"
       width="1"
       height="1"
       id="mask3847">
      <g
         id="g3871">
        <g
           clip-path="url(#clipPath3825)"
           id="g3869">
          <path
             d="M -0.161,703.567 H 612.158 V 235.712 H -0.161 Z"
             style="fill:#000000;fill-opacity:1;fill-rule:nonzero;stroke:none"
             id="path3849" />
          <g
             id="g3867">
            <g
               id="g3851" />
            <g
               id="g3865">
              <g
                 clip-path="url(#clipPath3829)"
                 id="g3863">
                <g
                   id="g3861">
                  <g
                     id="g3859">
                    <g
                       id="g3857">
                      <g
                         id="g3855">
                        <path
                           d="M -0.159,235.712 H 612.159 V 703.567 H -0.159 Z"
                           style="fill:url(#linearGradient3845);stroke:none"
                           id="path3853" />
                      </g>
                    </g>
                  </g>
                </g>
              </g>
            </g>
          </g>
        </g>
      </g>
    </mask>
    <clipPath
       clipPathUnits="userSpaceOnUse"
       id="clipPath3879">
      <path
         d="M -0.161102,703.567 H 612.158 V 235.712 H -0.161102 Z"
         id="path3877" />
    </clipPath>
    <linearGradient
       x1="0"
       y1="0"
       x2="1"
       y2="0"
       gradientUnits="userSpaceOnUse"
       gradientTransform="matrix(0,467.85516,-467.85516,0,305.9986,235.7119)"
       spreadMethod="pad"
       id="linearGradient3895">
      <stop
         style="stop-opacity:1;stop-color:#00264f"
         offset="0"
         id="stop3885" />
      <stop
         style="stop-opacity:1;stop-color:#00264f"
         offset="0.00510204"
         id="stop3887" />
      <stop
         style="stop-opacity:1;stop-color:#00264f"
         offset="0.32210307"
         id="stop3889" />
      <stop
         style="stop-opacity:1;stop-color:#00264f"
         offset="0.989796"
         id="stop3891" />
      <stop
         style="stop-opacity:1;stop-color:#00264f"
         offset="1"
         id="stop3893" />
    </linearGradient>
    <clipPath
       clipPathUnits="userSpaceOnUse"
       id="clipPath3927">
      <path
         d="M 0,0 H 612 V 792 H 0 Z"
         id="path3925" />
    </clipPath>
  </defs>
  <metadata
     id="metadata5">
    <rdf:RDF>
      <cc:Work
         rdf:about="">
        <dc:format>image/svg+xml</dc:format>
        <dc:type
           rdf:resource="http://purl.org/dc/dcmitype/StillImage" />
        <dc:title></dc:title>
      </cc:Work>
    </rdf:RDF>
  </metadata>
  <g
     transform="translate(-104.23552,-41.899772)"
     id="layer1">
    <g
       id="g5535">
      <g
         id="g3929"
         transform="matrix(0.35277777,0,0,-0.35277777,160.46382,61.39121)">
        <path
           d="M 0,0 5.177,26.184 H -5.109 l 1.563,7.901 h -11.375 c -4.17,0 -7.1,1.764 -7.19,6.948 h -7.653 c -0.655,1.62 -1.574,3.125 -2.754,4.46 -2.998,3.386 -7.263,5.253 -12.015,5.253 -4.627,0 -9.181,-1.785 -12.819,-5.025 -1.552,-1.384 -2.863,-2.968 -3.9,-4.688 h -6.976 c -0.793,-1.853 -2.153,-3.347 -4.07,-4.406 -2.891,9.928 -12.067,17.207 -22.915,17.207 -13.16,0 -23.868,-10.706 -23.868,-23.866 0,-2.609 0.429,-5.117 1.204,-7.469 l -24.149,-0.002 -1.503,-6.349 c 2.218,-2.341 2.56,-5.504 2.149,-8.598 l -10.623,-44.679 h 14.405 l -20.372,-85.659 72.586,17.803 60.739,-19.883 15.401,78.072 c 1.301,-0.22 2.639,-0.342 4.003,-0.342 13.158,0 23.864,10.704 23.864,23.863 C 18.623,-11.918 10.644,-2.395 0,0"
           style="fill:#0099a9;fill-opacity:1;fill-rule:nonzero;stroke:none"
           id="path3931" />
      </g>
      <g
         id="g3933"
         transform="matrix(0.35277777,0,0,-0.35277777,159.14228,62.323849)">
        <path
           d="M 0,0 5.066,25.657 H 5.064 -5.22 l 1.563,7.9 h -0.002 -6.263 c -1.582,0 -2.991,0.108 -4.238,0.317 -3.985,0.882 -6.684,3.505 -7.04,6.608 -0.001,0.008 -0.001,0.016 -0.003,0.024 h -0.002 -7.148 c -1.256,5.651 -6.119,9.712 -12.433,9.712 -6.313,0 -12.175,-4.061 -14.816,-9.712 h -7.069 c -0.946,-1.605 -3.308,-4.24 -8.238,-5.531 -1.176,10.317 -9.929,18.331 -20.558,18.331 -11.43,0 -20.696,-9.265 -20.696,-20.694 0,-3.893 1.076,-7.529 2.942,-10.639 l -26.55,-0.002 -0.593,-2.504 c 1.346,-1.876 2.537,-4.969 1.852,-9.855 l -9.731,-40.925 h 0.001 14.403 l -20.098,-84.517 h 0.002 l 68.422,16.784 58.196,-19.05 15.363,77.806 c 2.033,-0.667 4.201,-1.033 6.459,-1.033 11.427,0 20.693,9.262 20.693,20.691 C 19.198,-9.708 10.73,-0.766 0,0"
           style="fill:#231f20;fill-opacity:1;fill-rule:nonzero;stroke:none"
           id="path3935" />
      </g>
      <g
         id="g3937"
         transform="matrix(0.35277777,0,0,-0.35277777,157.25569,61.855395)">
        <path
           d="m 0,0 c -3.516,2.546 -7.118,4.803 -10.739,6.803 -0.548,0.302 -1.234,-0.007 -1.379,-0.616 l -1.72,-7.199 c -0.085,-0.359 0.044,-0.731 0.333,-0.959 1.318,-1.036 2.645,-2.119 3.98,-3.246 0.337,-0.285 0.823,-0.295 1.179,-0.034 2.337,1.71 5.046,2.942 7.983,3.551 C 0.449,-1.532 0.672,-0.487 0,0"
           style="fill:#0099a9;fill-opacity:1;fill-rule:nonzero;stroke:none"
           id="path3939" />
      </g>
      <g
         id="g3941"
         transform="matrix(0.35277777,0,0,-0.35277777,138.90299,54.835894)">
        <path
           d="M 0,0 C 0.079,0.516 -0.275,1.001 -0.79,1.082 -9.199,2.395 -15.269,2.515 -15.395,2.516 V 2.515 C -11.082,1.708 -5.949,0.635 -1.208,-0.761 -0.657,-0.923 -0.087,-0.568 0,0"
           style="fill:#0099a9;fill-opacity:1;fill-rule:nonzero;stroke:none"
           id="path3943" />
      </g>
      <g
         id="g3945"
         transform="matrix(0.35277777,0,0,-0.35277777,140.13475,95.550435)">
        <path
           d="m 0,0 c -3.829,0.884 -9.342,2.496 -12.868,3.474 -0.854,0.237 -1.596,-0.631 -1.224,-1.435 l 0.804,-2.454 c 0.143,-0.311 0.434,-0.533 0.772,-0.591 3.574,-0.609 8.983,-1.409 12.195,-1.826 0.641,-0.083 1.198,0.437 1.166,1.082 l -0.04,0.792 C 0.784,-0.494 0.451,-0.103 0,0"
           style="fill:#0099a9;fill-opacity:1;fill-rule:nonzero;stroke:none"
           id="path3947" />
      </g>
      <g
         id="g3949"
         transform="matrix(0.35277777,0,0,-0.35277777,112.91932,87.841464)">
        <path
           d="m 0,0 c 3.577,-2.147 9.074,-4.872 12.782,-6.687 0.405,-0.199 0.89,-0.112 1.204,0.21 l 4.192,5.309 c 0.471,0.483 0.361,1.278 -0.22,1.62 C 11.605,4.208 6.185,8.28 3.285,10.581 2.69,11.052 1.809,10.746 1.633,10.005 L -0.477,1.136 C -0.581,0.694 -0.389,0.233 0,0"
           style="fill:#0099a9;fill-opacity:1;fill-rule:nonzero;stroke:none"
           id="path3951" />
      </g>
      <g
         id="g3953"
         transform="matrix(0.35277777,0,0,-0.35277777,149.12381,87.00203)">
        <path
           d="M 0,0 C 0,0 2.075,-0.428 4.793,-0.428 7.514,-0.428 9.846,0 9.846,0 9.846,0 7.773,0.426 5.053,0.426 2.335,0.426 0,0 0,0"
           style="fill:#0099a9;fill-opacity:1;fill-rule:nonzero;stroke:none"
           id="path3955" />
      </g>
      <g
         id="g3957"
         transform="matrix(0.35277777,0,0,-0.35277777,145.09999,88.36227)">
        <path
           d="m 0,0 c 0,0 3.595,-0.598 8.313,-0.598 4.716,0 8.765,0.598 8.765,0.598 0,0 -3.594,0.595 -8.312,0.595 C 4.051,0.595 0,0 0,0"
           style="fill:#0099a9;fill-opacity:1;fill-rule:nonzero;stroke:none"
           id="path3959" />
      </g>
      <g
         id="g3961"
         transform="matrix(0.35277777,0,0,-0.35277777,139.40351,92.70888)">
        <path
           d="m 0,0 c 0,0 -4.163,0.602 -9.622,0.602 -1.033,0 -2.036,-0.02 -2.986,-0.055 1.675,-0.381 3.365,-0.749 5.072,-1.108 C -3.276,-0.422 0,0 0,0"
           style="fill:#0099a9;fill-opacity:1;fill-rule:nonzero;stroke:none"
           id="path3963" />
      </g>
      <g
         id="g3965"
         transform="matrix(0.35277777,0,0,-0.35277777,141.52653,99.394654)">
        <path
           d="m 0,0 c 0,0 5.157,-0.877 11.777,-0.877 6.616,0 12.19,0.877 12.19,0.877 0,0 -5.161,0.88 -11.777,0.88 C 5.572,0.88 0,0 0,0"
           style="fill:#0099a9;fill-opacity:1;fill-rule:nonzero;stroke:none"
           id="path3967" />
      </g>
      <g
         id="g3969"
         transform="matrix(0.35277777,0,0,-0.35277777,130.66542,52.461064)">
        <path
           d="M 0,0 1.641,2.49 1.721,0 Z m -6.579,-0.03 1.645,2.493 0.088,-2.493 z m 6.026,4.796 -0.502,-1.775 h 0.661 L -2.493,-0.34 -2.786,4.766 h -4.318 l -0.489,-1.768 0.66,-0.007 -2.818,-4.274 -2.323,0.009 c -0.061,0 -0.164,0.013 -0.287,0.053 -0.368,0.117 -0.894,0.461 -0.894,1.33 V 0.11 c 0,0.8 0.521,1.847 1.214,2.424 0.315,0.262 0.663,0.427 1.016,0.427 l 0.472,-0.011 c -0.079,-0.288 -0.245,-0.882 -0.245,-0.882 h 2.064 l 0.743,2.698 -3.184,0.012 c -0.493,0 -0.964,-0.089 -1.4,-0.246 -0.451,-0.161 -0.861,-0.398 -1.226,-0.679 -0.032,-0.025 -0.067,-0.047 -0.099,-0.072 -0.047,-0.039 -0.088,-0.082 -0.133,-0.122 -0.079,-0.068 -0.16,-0.138 -0.233,-0.21 -0.008,-0.01 -0.014,-0.017 -0.023,-0.026 -0.334,-0.341 -0.606,-0.724 -0.801,-1.12 -0.006,-0.016 -0.012,-0.033 -0.02,-0.051 -0.056,-0.118 -0.108,-0.236 -0.149,-0.356 v 0.001 c 0.001,0.002 0.001,0.003 0.002,0.005 l 0.824,2.853 -2.832,0.011 -0.503,-1.775 0.735,0.007 -0.002,-0.001 h 0.002 l -0.735,-2.601 -1.857,4.359 h -2.65 l -0.497,-1.764 h 0.73 l -1.647,-5.985 h 2.122 c 0,0 0.813,2.964 1.028,3.728 0.298,-0.719 1.54,-3.728 1.54,-3.728 h 2.361 l 1.079,3.801 c -0.047,-0.283 -0.072,-0.573 -0.072,-0.864 0,-0.292 0.023,-0.587 0.072,-0.879 0.208,-1.25 1.42,-2.058 2.743,-2.058 h 4.286 l 0.737,1.108 h 3.021 l 0.062,-1.101 h 2.681 l 0.679,1.101 h 3.094 l 0.121,-1.108 h 1.894 l 0.423,0.845 -0.483,6.915 z"
           style="fill:#ffffff;fill-opacity:1;fill-rule:nonzero;stroke:none"
           id="path3971" />
      </g>
      <g
         id="g3973"
         transform="matrix(0.35277777,0,0,-0.35277777,130.66542,52.461064)">
        <path
           d="M 0,0 H 1.721 L 1.641,2.49 Z"
           style="fill:#0055b5;fill-opacity:1;fill-rule:nonzero;stroke:none"
           id="path3975" />
      </g>
      <g
         id="g3977"
         transform="matrix(0.35277777,0,0,-0.35277777,128.34463,52.471612)">
        <path
           d="M 0,0 H 1.732 L 1.645,2.493 Z"
           style="fill:#0055b5;fill-opacity:1;fill-rule:nonzero;stroke:none"
           id="path3979" />
      </g>
      <g
         id="g3981"
         transform="matrix(0.35277777,0,0,-0.35277777,126.87373,56.60458)">
        <path
           d="M 0,0 C 6.292,0 11.759,3.543 14.507,8.751 H 12.613 L 12.492,9.859 H 9.398 L 8.719,8.759 H 6.038 l -0.062,1.1 H 2.955 L 2.218,8.751 h -4.285 c -1.324,0 -2.536,0.808 -2.744,2.059 -0.049,0.291 -0.072,0.587 -0.072,0.878 0,0.291 0.025,0.582 0.072,0.864 L -5.89,8.751 h -2.361 c 0,0 -1.241,3.009 -1.54,3.728 -0.215,-0.763 -1.028,-3.728 -1.028,-3.728 h -2.121 l 1.646,5.985 h -0.73 l 0.497,1.764 h 2.65 l 1.857,-4.359 0.735,2.601 h -0.002 l -0.733,-0.006 0.503,1.776 2.832,-0.012 -0.824,-2.853 c 0.041,0.118 0.093,0.234 0.147,0.35 0.008,0.018 0.014,0.036 0.02,0.052 0.195,0.395 0.467,0.778 0.801,1.12 0.009,0.008 0.015,0.016 0.023,0.026 0.073,0.071 0.154,0.141 0.233,0.209 0.045,0.04 0.086,0.084 0.133,0.122 0.032,0.026 0.067,0.048 0.099,0.073 0.365,0.28 0.775,0.517 1.226,0.679 0.436,0.156 0.907,0.245 1.4,0.245 L 2.757,16.512 2.014,13.813 H -0.05 c 0,0 0.166,0.595 0.245,0.883 l -0.472,0.011 c -0.353,0 -0.701,-0.166 -1.015,-0.428 -0.693,-0.576 -1.215,-1.623 -1.215,-2.423 v -10e-4 c 0,-0.87 0.526,-1.214 0.895,-1.331 0.122,-0.039 0.225,-0.053 0.286,-0.053 l 2.323,-0.008 2.818,4.273 -0.66,0.006 v 10e-4 l 0.489,1.769 h 4.318 l 0.293,-5.106 2.1,3.33 H 9.693 l 0.502,1.776 h 4.252 L 14.93,9.596 c 0.94,2.073 1.474,4.379 1.474,6.804 0,9.056 -7.345,16.399 -16.404,16.399 -9.057,0 -16.399,-7.343 -16.399,-16.399 C -16.399,7.344 -9.057,0 0,0"
           style="fill:#0055b5;fill-opacity:1;fill-rule:nonzero;stroke:none"
           id="path3983" />
      </g>
      <g
         id="g3985"
         transform="matrix(0.35277777,0,0,-0.35277777,132.71587,55.122349)">
        <path
           d="M 0,0 C 0,-0.205 -0.204,-0.289 -0.456,-0.289 H -0.673 V 0.276 C -0.626,0.288 -0.54,0.301 -0.42,0.301 -0.132,0.301 0,0.18 0,0 m -1.142,0.565 v -1.972 h 0.457 v 0.794 h 0.216 c 0.252,0 0.374,-0.097 0.41,-0.313 C 0,-1.155 0.036,-1.335 0.097,-1.407 h 0.492 c -0.047,0.072 -0.084,0.192 -0.144,0.493 -0.06,0.264 -0.168,0.409 -0.361,0.481 v 0.024 c 0.241,0.072 0.409,0.24 0.409,0.457 0,0.192 -0.084,0.348 -0.192,0.433 -0.144,0.084 -0.312,0.144 -0.686,0.144 -0.325,0 -0.576,-0.024 -0.757,-0.06"
           style="fill:#0055b5;fill-opacity:1;fill-rule:nonzero;stroke:none"
           id="path3987" />
      </g>
      <g
         id="g3989"
         transform="matrix(0.35277777,0,0,-0.35277777,133.11881,55.258169)">
        <path
           d="m 0,0 c 0,-0.866 -0.637,-1.563 -1.502,-1.563 -0.891,0 -1.539,0.697 -1.539,1.575 0,0.866 0.648,1.575 1.527,1.575 C -0.637,1.587 0,0.878 0,0 m -3.547,0.012 c 0,-1.118 0.902,-1.996 2.033,-1.996 1.142,0 2.02,0.878 2.02,1.996 0,1.094 -0.878,1.972 -2.02,1.972 -1.131,0 -2.033,-0.878 -2.033,-1.972"
           style="fill:#0055b5;fill-opacity:1;fill-rule:nonzero;stroke:none"
           id="path3991" />
      </g>
      <g
         id="g3993"
         transform="matrix(0.35277777,0,0,-0.35277777,157.40513,59.494924)">
        <path
           d="M 0,0 2.211,11.185 H 1.014 0.942 -24.824 C -12.885,7.559 -3.184,1.954 0,0"
           style="fill:#dc0021;fill-opacity:1;fill-rule:nonzero;stroke:none"
           id="path3995" />
      </g>
      <g
         id="g3997"
         transform="matrix(0.35277777,0,0,-0.35277777,109.87637,99.531426)">
        <path
           d="M 0,0 46.131,11.314 C 32.958,15.053 19.272,20.223 6.508,27.372 Z"
           style="fill:#dc0021;fill-opacity:1;fill-rule:nonzero;stroke:none"
           id="path3999" />
      </g>
      <g
         id="g4001"
         transform="matrix(0.35277777,0,0,-0.35277777,140.24228,55.718156)">
        <path
           d="m 0,0 c 1.628,-0.577 3.983,-1.383 5.656,-2.067 0.34,-0.139 0.731,-0.071 1.002,0.179 L 8.094,-0.56 C 8.645,-0.05 8.414,0.872 7.686,1.055 5.632,1.572 2.943,2.203 1.05,2.592 0.682,2.668 0.307,2.516 0.089,2.21 L -0.457,1.442 C -0.824,0.928 -0.595,0.211 0,0"
           style="fill:#dc0021;fill-opacity:1;fill-rule:nonzero;stroke:none"
           id="path4003" />
      </g>
      <g
         id="g4005"
         transform="matrix(0.35277777,0,0,-0.35277777,133.35891,93.699092)">
        <path
           d="m 0,0 c -4.205,1.336 -10.001,3.562 -13.723,4.976 -0.496,0.19 -1.05,-0.027 -1.29,-0.5 l -1.644,-4.084 c -0.296,-0.585 0.019,-1.301 0.651,-1.475 4.752,-1.31 11.059,-2.805 15.556,-3.752 0.656,-0.139 1.264,0.376 1.248,1.046 L 0.727,-0.961 C 0.715,-0.52 0.422,-0.134 0,0"
           style="fill:#dc0021;fill-opacity:1;fill-rule:nonzero;stroke:none"
           id="path4007" />
      </g>
      <g
         id="g4009"
         transform="matrix(0.35277777,0,0,-0.35277777,147.03328,97.183478)">
        <path
           d="m 0,0 c 4.604,-0.224 7.251,-0.2 7.251,-0.2 -6.689,0.888 -14.852,2.217 -20.848,3.416 -0.461,0.093 -0.924,-0.138 -1.131,-0.561 -0.318,-0.65 0.112,-1.418 0.834,-1.49 C -9.095,0.688 -3.169,0.154 0,0"
           style="fill:#dc0021;fill-opacity:1;fill-rule:nonzero;stroke:none"
           id="path4011" />
      </g>
      <g
         id="g4013"
         transform="matrix(0.35277777,0,0,-0.35277777,159.99734,72.394772)">
        <path
           d="m 0,0 c -0.11,-0.809 -0.238,-1.624 -0.39,-2.445 -0.404,-2.172 -0.969,-4.39 -1.702,-6.628 3.248,0.341 6.23,1.579 8.694,3.46 5.502,6.512 5.049,11.6 2.782,15.717 C 8.194,6.256 5.222,2.619 0,0"
           style="fill:#dc0021;fill-opacity:1;fill-rule:nonzero;stroke:none"
           id="path4015" />
      </g>
      <g
         id="g4017"
         transform="matrix(0.35277777,0,0,-0.35277777,154.40701,72.791471)">
        <path
           d="m 0,0 c 0.412,-2.013 1.482,-3.992 3.5,-5.859 2.392,-1.332 5.127,-2.111 8.044,-2.174 0.968,2.808 1.642,5.543 2.078,8.175 C 8.904,-1.652 3.799,-1.668 0,0"
           style="fill:#dc0021;fill-opacity:1;fill-rule:nonzero;stroke:none"
           id="path4019" />
      </g>
      <g
         id="g4021"
         transform="matrix(0.35277777,0,0,-0.35277777,164.10293,66.792908)">
        <path
           d="m 0,0 c -0.668,0.682 -1.365,1.309 -2.086,1.879 0.388,-1.538 0.535,-3.127 0.404,-4.717 1.688,-2.403 3.031,-5.229 3.094,-8.496 0.25,1.174 0.385,2.391 0.385,3.641 C 1.797,-4.931 1.147,-2.32 0,0"
           style="fill:#dc0021;fill-opacity:1;fill-rule:nonzero;stroke:none"
           id="path4023" />
      </g>
      <g
         id="g4025"
         transform="matrix(0.35277777,0,0,-0.35277777,152.81609,71.469436)">
        <path
           d="M 0,0 C 0.613,-1.816 1.519,-3.5 2.663,-4.991 2.404,-4.129 2.256,-3.265 2.205,-2.401 1.326,-1.728 0.58,-0.928 0,0"
           style="fill:#dc0021;fill-opacity:1;fill-rule:nonzero;stroke:none"
           id="path4027" />
      </g>
      <g
         id="g4029"
         transform="matrix(0.35277777,0,0,-0.35277777,139.58378,52.598401)">
        <path
           d="m 0,0 h -5.584 l 0.256,1.151 0.288,0.209 h 4.054 L 0.556,2.473 1.304,5.807 0.082,7.116 h -5.42 L -7.095,5.847 -7.445,4.291 h 2.852 l 0.188,0.837 0.25,0.171 h 2.283 L -1.701,5.128 -2.07,3.491 -2.351,3.297 H -6.408 L -7.935,2.172 -8.854,-1.91 h 8.423 z"
           style="fill:#e36c12;fill-opacity:1;fill-rule:nonzero;stroke:none"
           id="path4031" />
      </g>
      <g
         id="g4033"
         transform="matrix(0.35277777,0,0,-0.35277777,141.91148,50.88637)">
        <path
           d="M 0,0 0.613,0.446 H 2.759 L 3.17,0 2.159,-4.499 1.55,-4.944 h -2.146 l -0.412,0.445 z M 2.898,-6.763 4.815,-5.375 6.22,0.877 4.925,2.263 h -5.676 l -1.905,-1.386 -1.403,-6.252 1.28,-1.388 z"
           style="fill:#e36c12;fill-opacity:1;fill-rule:nonzero;stroke:none"
           id="path4035" />
      </g>
      <g
         id="g4037"
         transform="matrix(0.35277777,0,0,-0.35277777,146.81731,52.626094)">
        <path
           d="m 0,0 h -1.953 l 1.614,7.194 H -5.172 L -5.579,5.377 h 1.981 L -4.807,0 h -1.982 l -0.41,-1.831 h 6.787 z"
           style="fill:#e36c12;fill-opacity:1;fill-rule:nonzero;stroke:none"
           id="path4039" />
      </g>
      <g
         id="g4041"
         transform="matrix(0.35277777,0,0,-0.35277777,148.56709,52.06299)">
        <path
           d="M 0,0 0.448,0.326 H 3.046 L 3.332,0 3.02,-1.401 2.586,-1.728 h -2.599 l -0.302,0.327 z M 0.82,3.584 1.269,3.912 H 3.821 L 4.123,3.584 3.842,2.329 3.392,2.002 H 0.839 L 0.538,2.329 Z M 3.977,-3.429 5.699,-2.172 6.216,0.131 5.253,1.192 6.669,2.21 7.147,4.343 5.987,5.598 H -0.14 L -1.847,4.343 -2.326,2.21 -1.386,1.192 -2.823,0.131 -3.341,-2.172 -2.182,-3.429 Z"
           style="fill:#e36c12;fill-opacity:1;fill-rule:nonzero;stroke:none"
           id="path4043" />
      </g>
      <g
         id="g4045"
         transform="matrix(0.35277777,0,0,-0.35277777,120.96586,85.295502)">
        <path
           d="M 0,0 1.401,0.873 1.87,2.932 1.013,3.672 h -3.372 l -0.153,0.142 0.193,0.837 0.281,0.183 h 1.772 L -0.045,4.642 -0.157,4.144 H 2.122 L 2.354,5.174 1.377,6.019 H -3.094 L -4.498,5.147 -4.956,3.126 -4.103,2.375 h 3.374 L -0.577,2.242 -0.776,1.369 -1.055,1.196 h -1.832 l -0.223,0.182 0.111,0.5 H -5.276 L -5.508,0.846 -4.53,0 Z"
           style="fill:#e36c12;fill-opacity:1;fill-rule:nonzero;stroke:none"
           id="path4047" />
      </g>
      <g
         id="g4049"
         transform="matrix(0.35277777,0,0,-0.35277777,123.31543,84.304373)">
        <path
           d="M 0,0 1.235,2.154 H 1.466 L 1.709,0 Z M 4.752,3.21 H -1.286 L -1.53,2.118 h 0.866 L -3.04,-1.709 H -3.508 L -3.759,-2.81 h 3.206 l 0.241,1.075 h -0.673 l 0.381,0.662 H 1.832 L 1.908,-1.735 H 1.293 L 1.05,-2.81 H 4.449 L 4.7,-1.709 H 4.229 L 3.591,2.118 h 0.916 z"
           style="fill:#e36c12;fill-opacity:1;fill-rule:nonzero;stroke:none"
           id="path4051" />
      </g>
      <g
         id="g4053"
         transform="matrix(0.35277777,0,0,-0.35277777,127.32433,85.295079)">
        <path
           d="m 0,0 h 2.328 l 1.11,4.901 H 4.113 L 4.368,6.018 H 0.883 L 0.631,4.901 h 0.82 L 0.902,2.486 -0.96,6.018 H -3.999 L -4.251,4.901 h 0.734 L -4.373,1.125 H -5.106 L -5.364,0 h 3.508 l 0.254,1.125 h -0.782 l 0.557,2.461 z"
           style="fill:#e36c12;fill-opacity:1;fill-rule:nonzero;stroke:none"
           id="path4055" />
      </g>
      <g
         id="g4057"
         transform="matrix(0.35277777,0,0,-0.35277777,131.74428,84.304373)">
        <path
           d="M 0,0 1.235,2.154 H 1.466 L 1.709,0 Z m 4.754,3.21 h -6.04 L -1.531,2.118 h 0.865 l -2.375,-3.827 h -0.467 l -0.25,-1.101 h 3.205 l 0.24,1.075 h -0.672 l 0.381,0.662 H 1.83 L 1.906,-1.735 H 1.292 L 1.051,-2.81 H 4.45 l 0.251,1.101 H 4.226 L 3.591,2.118 h 0.916 z"
           style="fill:#e36c12;fill-opacity:1;fill-rule:nonzero;stroke:none"
           id="path4059" />
      </g>
      <g
         id="g4061"
         transform="matrix(0.35277777,0,0,-0.35277777,135.75314,85.295079)">
        <path
           d="M 0,0 H 2.327 L 3.439,4.901 H 4.114 L 4.367,6.018 H 0.882 L 0.63,4.901 H 1.45 L 0.903,2.486 -0.961,6.018 H -3.999 L -4.251,4.901 h 0.735 L -4.373,1.125 H -5.107 L -5.364,0 h 3.508 l 0.257,1.125 h -0.785 l 0.557,2.461 z"
           style="fill:#e36c12;fill-opacity:1;fill-rule:nonzero;stroke:none"
           id="path4063" />
      </g>
      <g
         id="g4065"
         transform="matrix(0.35277777,0,0,-0.35277777,140.25515,83.950502)">
        <path
           d="M 0,0 0.503,2.207 H -7.078 L -7.578,0 h 1.734 l 0.25,1.1 h 0.904 l -0.865,-3.812 h -1.083 l -0.25,-1.101 h 4.47 l 0.25,1.101 H -3.264 L -2.4,1.1 h 0.904 L -1.747,0 Z"
           style="fill:#e36c12;fill-opacity:1;fill-rule:nonzero;stroke:none"
           id="path4067" />
      </g>
      <g
         id="g4069"
         transform="matrix(0.35277777,0,0,-0.35277777,141.66143,83.704369)">
        <path
           d="M 0,0 0.474,0.296 H 2.199 L 2.543,0 1.861,-3 1.382,-3.298 H -0.341 L -0.683,-3 Z m 2.52,-4.51 1.498,0.925 0.947,4.168 -1.08,0.926 H -0.673 L -2.158,0.583 -3.105,-3.585 -2.037,-4.51 Z"
           style="fill:#e36c12;fill-opacity:1;fill-rule:nonzero;stroke:none"
           id="path4071" />
      </g>
      <g
         id="g4073"
         transform="matrix(0.35277777,0,0,-0.35277777,145.52064,85.295079)">
        <path
           d="m 0,0 h 2.327 l 1.11,4.901 H 4.113 L 4.368,6.018 H 0.884 L 0.632,4.901 H 1.45 L 0.905,2.486 -0.96,6.018 H -3.997 L -4.25,4.901 h 0.737 L -4.373,1.125 H -5.107 L -5.361,0 h 3.506 L -1.6,1.125 h -0.783 l 0.559,2.461 z"
           style="fill:#e36c12;fill-opacity:1;fill-rule:nonzero;stroke:none"
           id="path4075" />
      </g>
      <g
         id="g4077"
         transform="matrix(0.35277777,0,0,-0.35277777,148.91154,83.557014)">
        <path
           d="M 0,0 0.249,1.091 H -3.694 L -3.94,0 h 0.832 l -0.869,-3.828 h -0.831 l -0.25,-1.1 h 3.941 l 0.249,1.1 h -0.83 L -0.829,0 Z"
           style="fill:#e36c12;fill-opacity:1;fill-rule:nonzero;stroke:none"
           id="path4079" />
      </g>
      <g
         id="g4081"
         transform="matrix(0.35277777,0,0,-0.35277777,150.96799,84.762526)">
        <path
           d="M 0,0 -0.477,-0.298 H -2.2 L -2.545,0 -1.863,3 -1.388,3.295 H 0.337 L 0.682,3 Z M -2.533,4.508 -4.02,3.583 -4.967,-0.585 -3.898,-1.511 h 4.557 l 1.497,0.926 0.948,4.168 -1.083,0.925 z"
           style="fill:#e36c12;fill-opacity:1;fill-rule:nonzero;stroke:none"
           id="path4083" />
      </g>
      <g
         id="g4085"
         transform="matrix(0.35277777,0,0,-0.35277777,163.30791,68.830482)">
        <path
           d="m 0,0 c -1.36,2.47 -3.37,4.593 -5.144,6.462 -1.923,2.027 -3.441,3.64 -3.703,5.235 -0.811,0.129 -1.628,0.196 -2.45,0.213 C -9.43,6.588 -8.189,-1.293 -9.384,-10.104 -4.162,-7.484 -1.19,-3.848 0,0"
           style="fill:#e36c12;fill-opacity:1;fill-rule:nonzero;stroke:none"
           id="path4087" />
      </g>
      <g
         id="g4089"
         transform="matrix(0.35277777,0,0,-0.35277777,160.22689,63.977636)">
        <path
           d="M 0,0 C 0.108,0.343 0.261,0.656 0.463,0.935 -0.976,1.371 -2.495,1.621 -4.064,1.667 -3.828,1.216 -3.592,0.723 -3.362,0.196 -2.231,0.221 -1.109,0.161 0,0"
           style="fill:#e36c12;fill-opacity:1;fill-rule:nonzero;stroke:none"
           id="path4091" />
      </g>
      <g
         id="g4093"
         transform="matrix(0.35277777,0,0,-0.35277777,157.3103,64.16108)">
        <path
           d="M 0,0 C 0.895,0.242 1.795,0.426 2.694,0.546 2.411,1.146 2.135,1.665 1.871,2.104 0.696,1.98 -0.443,1.741 -1.532,1.396 -0.922,1.048 -0.399,0.576 0,0"
           style="fill:#e36c12;fill-opacity:1;fill-rule:nonzero;stroke:none"
           id="path4095" />
      </g>
      <g
         id="g4097"
         transform="matrix(0.35277777,0,0,-0.35277777,158.54986,64.661143)">
        <path
           d="m 0,0 c -1.021,-0.103 -2.041,-0.294 -3.056,-0.574 0,-0.01 0.005,-0.018 0.005,-0.027 0.21,-1.747 -1.229,-3.922 -3.214,-6.938 -2.915,-4.43 -6.59,-10.089 -5.478,-15.508 3.799,-1.668 8.903,-1.652 13.622,0.142 C 3.482,-13.228 1.876,-4.999 0,0"
           style="fill:#e36c12;fill-opacity:1;fill-rule:nonzero;stroke:none"
           id="path4099" />
      </g>
      <g
         id="g4101"
         transform="matrix(0.35277777,0,0,-0.35277777,161.14806,63.933891)">
        <path
           d="M 0,0 C -0.138,-0.064 -0.277,-0.153 -0.391,-0.282 -0.459,-0.358 -0.514,-0.447 -0.559,-0.547 0.719,-0.87 1.976,-1.311 3.189,-1.884 2.203,-1.146 1.134,-0.516 0,0"
           style="fill:#e36c12;fill-opacity:1;fill-rule:nonzero;stroke:none"
           id="path4103" />
      </g>
      <g
         id="g4105"
         transform="matrix(0.35277777,0,0,-0.35277777,163.36686,66.130074)">
        <path
           d="m 0,0 c -2.036,1.615 -4.268,2.796 -6.607,3.499 0.559,-0.921 1.659,-2.085 2.815,-3.302 1.31,-1.378 2.861,-3.016 4.196,-4.914 C 0.536,-3.127 0.389,-1.538 0,0"
           style="fill:#e36c12;fill-opacity:1;fill-rule:nonzero;stroke:none"
           id="path4107" />
      </g>
      <g
         id="g4109"
         transform="matrix(0.35277777,0,0,-0.35277777,156.24544,64.218089)">
        <path
           d="m 0,0 c -0.582,0.206 -1.226,0.227 -1.887,0.076 -3.876,-2.217 -6.812,-5.884 -8.071,-10.266 2.395,4.42 6.167,7.844 10.841,9.663 C 0.632,-0.301 0.337,-0.121 0,0"
           style="fill:#e36c12;fill-opacity:1;fill-rule:nonzero;stroke:none"
           id="path4111" />
      </g>
      <g
         id="g4113"
         transform="matrix(0.35277777,0,0,-0.35277777,156.73538,65.112839)">
        <path
           d="m 0,0 c -6.196,-2.519 -10.601,-8.204 -11.792,-15.295 0.154,-0.936 0.385,-1.844 0.682,-2.724 0.58,-0.928 1.326,-1.728 2.205,-2.401 -0.331,5.58 3.3,11.102 6.043,15.27 C -1.565,-3.177 -0.225,-1.144 0,0"
           style="fill:#e36c12;fill-opacity:1;fill-rule:nonzero;stroke:none"
           id="path4115" />
      </g>
      <g
         id="g4117"
         transform="matrix(0.35277777,0,0,-0.35277777,153.25583,78.404588)">
        <path
           d="m 0,0 h -0.215 v 0.565 c 0.047,0.011 0.131,0.024 0.252,0.024 0.288,0 0.421,-0.12 0.421,-0.3 C 0.458,0.084 0.254,0 0,0 m 0.542,-0.145 v 0.024 c 0.241,0.073 0.409,0.241 0.409,0.458 0,0.192 -0.084,0.348 -0.193,0.432 -0.143,0.084 -0.312,0.145 -0.685,0.145 -0.326,0 -0.577,-0.024 -0.758,-0.061 v -1.971 h 0.457 v 0.793 h 0.217 c 0.252,0 0.372,-0.097 0.409,-0.312 0.06,-0.228 0.095,-0.409 0.155,-0.481 h 0.494 c -0.048,0.072 -0.084,0.191 -0.144,0.492 -0.06,0.265 -0.169,0.409 -0.361,0.481"
           style="fill:#ffffff;fill-opacity:1;fill-rule:nonzero;stroke:none"
           id="path4119" />
      </g>
      <g
         id="g4121"
         transform="matrix(0.35277777,0,0,-0.35277777,153.29015,78.990058)">
        <path
           d="m 0,0 c -0.89,0 -1.539,0.698 -1.539,1.575 0,0.866 0.649,1.575 1.527,1.575 0.877,0 1.514,-0.709 1.514,-1.587 C 1.502,0.698 0.865,0 0,0 m -0.012,3.548 c -1.13,0 -2.033,-0.879 -2.033,-1.973 0,-1.119 0.903,-1.995 2.033,-1.995 1.142,0 2.02,0.876 2.02,1.995 0,1.094 -0.878,1.973 -2.02,1.973"
           style="fill:#ffffff;fill-opacity:1;fill-rule:nonzero;stroke:none"
           id="path4123" />
      </g>
      <g
         id="g4125"
         transform="matrix(0.35277777,0,0,-0.35277777,126.3665,79.698754)">
        <path
           d="m 0,0 4.395,18.395 c 0.115,0.484 0.515,0.714 1.251,0.714 h 2.782 c 0.738,0 1.017,-0.23 0.912,-0.714 L 4.942,0 C 4.822,-0.493 4.433,-0.724 3.698,-0.724 H 0.906 C 0.167,-0.724 -0.121,-0.493 0,0 m 13.431,-3.155 5.903,24.706 -4.059,3.39 H 1.366 L -4.08,21.551 -9.979,-3.155 -6.161,-6.553 H 8.465 Z"
           style="fill:#ffffff;fill-opacity:1;fill-rule:nonzero;stroke:none"
           id="path4127" />
      </g>
      <g
         id="g4129"
         transform="matrix(0.35277777,0,0,-0.35277777,143.61197,70.900088)">
        <path
           d="m 0,0 h -9.241 l -5.96,-24.941 c -0.123,-0.493 -0.514,-0.724 -1.257,-0.724 h -2.501 c -0.747,0 -1.024,0.231 -0.904,0.724 L -13.901,0 h -9.564 l -0.002,-0.003 h -1.15 l -0.132,-0.545 c 0.464,-0.512 0.984,-1.434 0.746,-3.079 l -5.845,-24.469 3.925,-3.398 h 14.208 l 5,3.398 z"
           style="fill:#ffffff;fill-opacity:1;fill-rule:nonzero;stroke:none"
           id="path4131" />
      </g>
      <g
         id="g4133"
         transform="matrix(0.35277777,0,0,-0.35277777,147.70995,75.915071)">
        <path
           d="m 0,0 2.004,8.417 h 4.775 c 0.745,0 1.022,-0.228 0.904,-0.719 L 6.014,0.704 C 5.898,0.224 5.506,0 4.769,0 Z m 15.94,3.621 c -2.739,2.87 -4.657,6.526 -5.388,10.593 l -17.88,0.003 -0.13,-0.534 c 0.43,-0.473 1,-1.46 0.751,-3.066 l -6.663,-27.896 h 6.681 c 1.136,0 2.728,0.689 2.927,1.55 l 2.37,9.93 h 1.88 L 3.4,-17.279 h 7.197 c 1.149,0 1.942,0.704 1.782,1.565 l -2.782,10.751 4.973,2.865 z"
           style="fill:#ffffff;fill-opacity:1;fill-rule:nonzero;stroke:none"
           id="path4135" />
      </g>
      <g
         id="g4137"
         transform="matrix(0.35277777,0,0,-0.35277777,116.38321,83.422111)">
        <path
           d="m 0,0 c 0.561,-0.416 1.129,-0.836 1.711,-1.254 l 3.81,15.874 h 7.405 c 1.145,0 1.79,0.441 2.068,1.253 l 1.839,4.583 H 6.915 l 0.199,0.832 2.002,8.372 h 8.983 c 1.143,0 2.238,0.704 2.45,1.567 l 1.019,4.268 H -1.4 l -0.205,-0.837 c 0.718,-0.793 1.523,-2.217 1.138,-4.775 L -6.385,5.106 C -5.841,4.64 -5.282,4.171 -4.71,3.698 -3.235,2.479 -1.666,1.244 0,0"
           style="fill:#ffffff;fill-opacity:1;fill-rule:nonzero;stroke:none"
           id="path4139" />
      </g>
      <g
         id="g4141"
         transform="matrix(0.35277777,0,0,-0.35277777,114.54312,70.129939)">
        <path
           d="m 0,0 4.399,18.333 h 7.406 c 1.144,0 1.789,0.444 2.066,1.255 l 1.842,4.582 h -9.92 l 2.202,9.203 h 8.982 c 1.145,0 2.237,0.704 2.45,1.568 l 1.02,4.269 H -2.521 l -0.206,-0.838 c 0.719,-0.793 1.521,-2.217 1.139,-4.775 L -9.986,-1.567 h 7.548 c 1.172,0 2.23,0.688 2.438,1.567"
           style="fill:#ffffff;fill-opacity:1;fill-rule:nonzero;stroke:none"
           id="path4143" />
      </g>
      <g
         id="g4145"
         transform="matrix(0.35277777,0,0,-0.35277777,141.73901,60.158534)">
        <path
           d="M 0,0 H 0.367 L -1.03,-14.545 h -4.597 z m -10.881,-25.661 c 0.669,0 1.129,0.232 1.373,0.68 l 1.938,5.039 h 5.965 l -0.466,-5.039 c 0.028,-0.448 0.37,-0.68 1.048,-0.68 H 7.131 L 8.159,4.282 C 8.1,5.137 7.14,5.837 6,5.837 H -7.181 l -0.13,-0.534 c 0.502,-0.555 1.168,-1.56 0.186,-3.482 l 0.032,-0.012 -11.891,-27.47 z"
           style="fill:#ffffff;fill-opacity:1;fill-rule:nonzero;stroke:none"
           id="path4147" />
      </g>
      <g
         id="g4149"
         transform="matrix(0.35277777,0,0,-0.35277777,119.9087,69.211094)">
        <path
           d="m 0,0 h 7.165 c 1.137,0 2.236,0.705 2.436,1.568 l 7.158,29.93 H 6.044 L 5.916,30.964 c 0.461,-0.513 0.98,-1.43 0.749,-3.069 z"
           style="fill:#ffffff;fill-opacity:1;fill-rule:nonzero;stroke:none"
           id="path4151" />
      </g>
      <g
         id="g4153"
         transform="matrix(0.35277777,0,0,-0.35277777,125.21218,69.211094)">
        <path
           d="M 0,0 H 6.544 C 7.689,0 8.783,0.705 8.992,1.568 L 12.676,16.717 15.371,0.924 C 15.6,0.309 16.265,0 17.182,0 h 6.814 l 7.517,31.498 h -8.617 l -3.564,-14.903 -2.43,13.994 c -0.187,0.535 -0.707,0.835 -1.441,0.909 H 6.015 L 5.887,30.964 C 6.257,30.553 6.669,29.885 6.696,28.792 6.706,28.427 6.674,28.017 6.581,27.55 Z"
           style="fill:#ffffff;fill-opacity:1;fill-rule:nonzero;stroke:none"
           id="path4155" />
      </g>
      <g
         id="g4157"
         transform="matrix(0.35277777,0,0,-0.35277777,149.64945,91.781463)">
        <path
           d="m 0,0 0.779,4.187 h -3.786 -0.64 c -2.139,0 -7.537,0.456 -11.578,2.861 -14.267,8.502 -24.658,8.324 -29.839,8.324 -1.295,0 -7.024,-0.16 -12.581,-1.265 h 0.006 c 5.288,0.458 18.098,2.335 34.685,-7.599 4.032,-2.414 8.021,-3.155 10.856,-3.155 h 1.613 L -11.8,-2.69 h 5.073 L -8.07,-9.613 c 3.237,-0.558 6.506,-1.067 9.802,-1.524 l 1.669,8.46 -9.228,-0.013 z"
           style="fill:#ffffff;fill-opacity:1;fill-rule:nonzero;stroke:none"
           id="path4159" />
      </g>
      <g
         id="g4161"
         transform="matrix(0.35277777,0,0,-0.35277777,136.02873,90.825082)">
        <path
           d="m 0,0 c -2.411,0.725 -5.119,1.2 -8.155,1.323 -3.008,0.038 -5.89,-0.334 -8.633,-1.003 1.787,-0.674 3.592,-1.332 5.424,-1.969 3.074,1.118 6.403,1.799 9.899,1.753 C -0.963,0.084 -0.476,0.047 0,0"
           style="fill:#ffffff;fill-opacity:1;fill-rule:nonzero;stroke:none"
           id="path4163" />
      </g>
      <g
         id="g4165"
         transform="matrix(0.35277777,0,0,-0.35277777,144.75787,55.896485)">
        <path
           d="m 0,0 c -0.48,0.145 -0.988,-0.112 -1.162,-0.582 l -0.8,-2.303 c -0.168,-0.458 0.035,-0.965 0.473,-1.178 1.596,-0.776 3.921,-2.039 5.55,-2.93 0.549,-0.3 1.235,-0.003 1.382,0.605 l 0.859,3.591 C 6.417,-2.322 6.149,-1.835 5.686,-1.676 4.061,-1.116 1.575,-0.476 0,0"
           style="fill:#ffffff;fill-opacity:1;fill-rule:nonzero;stroke:none"
           id="path4167" />
      </g>
      <g
         id="g4169"
         transform="matrix(0.35277777,0,0,-0.35277777,120.3399,91.447876)">
        <path
           d="m 0,0 c 4.746,-1.936 10.134,-4.064 14.855,-5.563 0.687,-0.218 1.379,0.318 1.35,1.036 L 15.99,0.793 C 15.973,1.189 15.728,1.541 15.366,1.7 10.816,3.698 6.122,6.048 2.459,7.991 1.862,8.307 1.131,7.982 0.965,7.328 L -0.617,1.22 C -0.743,0.717 -0.481,0.195 0,0"
           style="fill:#ffffff;fill-opacity:1;fill-rule:nonzero;stroke:none"
           id="path4171" />
      </g>
      <g
         id="g4173"
         transform="matrix(0.35277777,0,0,-0.35277777,149.41344,67.152071)">
        <path
           d="M 0,0 6.128,25.661 H -4.587 l -0.128,-0.533 c 0.428,-0.476 0.997,-1.461 0.75,-3.07 L -10.631,-5.837 H 5.411 C 5.61,-2.787 6.345,-0.599 6.568,0 Z"
           style="fill:#ffffff;fill-opacity:1;fill-rule:nonzero;stroke:none"
           id="path4175" />
      </g>
      <g
         id="g4177"
         transform="matrix(0.35277777,0,0,-0.35277777,145.48678,92.730259)">
        <path
           d="m 0,0 1.314,6.043 h -1.612 c -2.835,0 -6.825,0.741 -10.857,3.155 -16.586,9.933 -29.396,8.057 -34.685,7.598 -3.995,-0.677 -8.875,-1.855 -14.46,-3.909 0.894,-0.44 1.8,-0.873 2.717,-1.303 2.65,-1.238 5.374,-2.43 8.161,-3.579 4.474,1.366 9.341,2.114 14.475,1.813 13.632,-1.137 20.895,-8.086 24.149,-13.849 4.757,-1.075 9.605,-2.042 14.528,-2.892 L 5.072,0 Z"
           style="fill:#d3ba8c;fill-opacity:1;fill-rule:nonzero;stroke:none"
           id="path4179" />
      </g>
      <g
         id="g4181"
         transform="matrix(0.35277777,0,0,-0.35277777,114.96762,65.404128)">
        <path
           d="m 0,0 c -2,-0.358 -3.957,-0.735 -5.875,-1.132 l -2.849,-11.93 h 5.076 c 0.279,0 0.483,0.116 0.556,0.179 z"
           style="fill:#d3ba8c;fill-opacity:1;fill-rule:nonzero;stroke:none"
           id="path4183" />
      </g>
      <g
         id="g4185"
         transform="matrix(0.35277777,0,0,-0.35277777,137.81305,68.539723)">
        <path
           d="m 0,0 2.2,5.718 h 9.465 L 11.138,0 h 5.229 l 0.395,11.592 c -1.492,0.149 -2.997,0.289 -4.517,0.416 L 11.811,7.311 H 2.819 l 2.017,5.227 C 3.439,12.621 2.03,12.692 0.617,12.756 L -4.905,0 Z"
           style="fill:#d3ba8c;fill-opacity:1;fill-rule:nonzero;stroke:none"
           id="path4187" />
      </g>
      <g
         id="g4189"
         transform="matrix(0.35277777,0,0,-0.35277777,120.77836,68.539723)">
        <path
           d="M 0,0 H 4.692 C 4.933,0 5.162,0.113 5.25,0.193 L 8.083,12.034 C 6.291,11.886 4.514,11.724 2.758,11.545 Z"
           style="fill:#d3ba8c;fill-opacity:1;fill-rule:nonzero;stroke:none"
           id="path4191" />
      </g>
      <g
         id="g4193"
         transform="matrix(0.35277777,0,0,-0.35277777,133.12777,68.539723)">
        <path
           d="m 0,0 3.118,13.065 c -1.322,0.017 -2.647,0.027 -3.981,0.027 -0.206,0 -0.412,-0.001 -0.615,-0.001 L -3.411,5.01 -4.809,13.067 C -5.7,13.056 -6.588,13.041 -7.472,13.025 L -5.248,0 Z"
           style="fill:#d3ba8c;fill-opacity:1;fill-rule:nonzero;stroke:none"
           id="path4195" />
      </g>
      <g
         id="g4197"
         transform="matrix(0.35277777,0,0,-0.35277777,126.08185,68.539723)">
        <path
           d="m 0,0 h 4.073 c 0.266,0 0.488,0.125 0.569,0.2 l 3.09,12.693 C 6.155,12.839 4.589,12.774 3.034,12.696 Z"
           style="fill:#d3ba8c;fill-opacity:1;fill-rule:nonzero;stroke:none"
           id="path4199" />
      </g>
      <g
         id="g4201"
         transform="matrix(0.35277777,0,0,-0.35277777,131.26747,77.162952)">
        <path
           d="m 0,0 c -1.774,-0.064 -3.531,-0.146 -5.277,-0.24 l -1.767,-7.385 c -0.128,-0.521 -0.721,-2.19 -3.144,-2.19 h -2.792 c -1.059,0 -1.862,0.326 -2.383,0.969 -0.272,0.336 -0.693,1.057 -0.433,2.108 l 1.404,5.874 c -1.794,-0.152 -3.569,-0.318 -5.326,-0.5 l -1.99,-8.331 2.408,-2.143 h 13.245 l 3.855,2.636 z"
           style="fill:#d3ba8c;fill-opacity:1;fill-rule:nonzero;stroke:none"
           id="path4203" />
      </g>
      <g
         id="g4205"
         transform="matrix(0.35277777,0,0,-0.35277777,139.56674,77.154415)">
        <path
           d="m 0,0 -1.828,-7.65 c -0.133,-0.527 -0.734,-2.189 -3.158,-2.189 h -2.5 c -1.058,0 -1.857,0.325 -2.377,0.962 -0.274,0.335 -0.693,1.053 -0.438,2.106 l 1.663,6.961 c -0.935,0.008 -1.871,0.011 -2.814,0.011 -0.801,0 -1.598,-0.003 -2.396,-0.008 l -2.363,-9.896 2.495,-2.159 h 12.844 l 3.887,2.638 2.151,9.001 C 3.458,-0.135 1.733,-0.061 0,0"
           style="fill:#d3ba8c;fill-opacity:1;fill-rule:nonzero;stroke:none"
           id="path4207" />
      </g>
      <g
         id="g4209"
         transform="matrix(0.35277777,0,0,-0.35277777,148.56434,77.84787)">
        <path
           d="M 0,0 2.509,-9.897 H 7.851 L 5.479,-0.725 C 3.676,-0.469 1.851,-0.224 0,0"
           style="fill:#d3ba8c;fill-opacity:1;fill-rule:nonzero;stroke:none"
           id="path4211" />
      </g>
      <g
         id="g4213"
         transform="matrix(0.35277777,0,0,-0.35277777,143.86294,81.33917)">
        <path
           d="M 0,0 H 4.21 C 4.566,0 5.059,0.18 5.294,0.332 L 7.608,10.013 7.73,10.52 C 6.046,10.69 4.343,10.847 2.626,10.99 Z"
           style="fill:#d3ba8c;fill-opacity:1;fill-rule:nonzero;stroke:none"
           id="path4215" />
      </g>
      <g
         id="g4217"
         transform="matrix(0.35277777,0,0,-0.35277777,115.46811,78.992387)">
        <path
           d="m 0,0 -2.116,-8.859 c 1.475,-1.218 3.044,-2.454 4.71,-3.698 L 5.881,1.142 C 3.881,0.782 1.921,0.401 0,0"
           style="fill:#d3ba8c;fill-opacity:1;fill-rule:nonzero;stroke:none"
           id="path4219" />
      </g>
      <g
         id="g4221"
         transform="matrix(0.35277777,0,0,-0.35277777,148.54409,67.822737)">
        <path
           d="M 0,0 1.809,7.574 C 0.155,7.838 -1.525,8.088 -3.226,8.324 L -5.7,-2.032 H 7.874 c 0.071,0 0.142,0.011 0.205,0.027 10e-4,0 10e-4,10e-4 0.002,10e-4 C 8.193,-1.245 8.33,-0.57 8.468,0 Z"
           style="fill:#d3ba8c;fill-opacity:1;fill-rule:nonzero;stroke:none"
           id="path4223" />
      </g>
    </g>
    <g
       id="g5605">
      <g
         id="g4225"
         transform="matrix(0.35277777,0,0,-0.35277777,60.108736,54.401095)">
        <path
           d="m 0,0 -0.998,-5.533 -162.997,0.003 c -3.443,1.653 -7.259,2.525 -11.075,2.525 -6.838,0 -13.273,-2.67 -18.12,-7.517 -0.577,-0.577 -1.133,-1.189 -1.653,-1.819 -1.048,-1.269 -1.976,-2.643 -2.761,-4.086 -0.396,-0.728 -0.76,-1.483 -1.081,-2.242 -1.341,-3.164 -2.02,-6.52 -2.02,-9.975 0,-3.454 0.68,-6.809 2.02,-9.973 0.145,-0.347 3.232,-8.009 6.28,-15.578 h -16.419 l -10.093,-56.467 h 43.26 l 0.997,5.512 189.482,0.006 18.095,17.811 5.618,33.295 -4.044,4.213 L 43.244,0 Z"
           style="fill:#c9cfd2;fill-opacity:1;fill-rule:nonzero;stroke:none"
           id="path4227" />
      </g>
      <g
         id="g4229"
         transform="matrix(0.35277777,0,0,-0.35277777,60.822758,55.255946)">
        <path
           d="m 0,0 -0.998,-5.53 h -165.587 c -3.244,1.653 -6.867,2.525 -10.509,2.525 -6.191,0 -12.017,-2.417 -16.406,-6.807 -0.522,-0.522 -1.026,-1.076 -1.498,-1.648 -0.949,-1.149 -1.79,-2.395 -2.501,-3.701 -0.358,-0.659 -0.688,-1.342 -0.979,-2.03 -1.213,-2.863 -1.828,-5.901 -1.828,-9.03 0,-3.127 0.615,-6.164 1.828,-9.027 0.167,-0.396 4.618,-11.447 7.637,-18.947 h -17.978 l -9.227,-51.62 h 38.341 l 0.896,5.069 190.292,0.007 17.191,17.188 5.242,31.14 -4.049,4.218 L 38.334,0 Z"
           style="fill:#231f20;fill-opacity:1;fill-rule:nonzero;stroke:none"
           id="path4231" />
      </g>
      <g
         id="g4233"
         transform="matrix(0.35277777,0,0,-0.35277777,62.706415,86.198614)">
        <path
           d="m 0,0 -5.777,-5.907 h 6.849 2.54 L 9.342,0 h -7.87 z"
           style="fill:#707a84;fill-opacity:1;fill-rule:nonzero;stroke:none"
           id="path4235" />
      </g>
      <g
         id="g4237"
         transform="matrix(0.35277777,0,0,-0.35277777,43.462246,86.198614)">
        <path
           d="m 0,0 h -2.675 l -5.908,-5.907 h 1.442 4.989 L 3.705,0 Z"
           style="fill:#707a84;fill-opacity:1;fill-rule:nonzero;stroke:none"
           id="path4239" />
      </g>
      <g
         id="g4241"
         transform="matrix(0.35277777,0,0,-0.35277777,13.83798,86.198614)">
        <path
           d="m 0,0 h -2.638 l -5.908,-5.907 h 2.745 5.28 L 5.336,0 Z"
           style="fill:#707a84;fill-opacity:1;fill-rule:nonzero;stroke:none"
           id="path4243" />
      </g>
      <g
         id="g4245"
         transform="matrix(0.35277777,0,0,-0.35277777,21.207543,86.198614)">
        <path
           d="m 0,0 h -1.265 l -5.907,-5.907 h 1.132 5.53 L 5.347,0 Z"
           style="fill:#707a84;fill-opacity:1;fill-rule:nonzero;stroke:none"
           id="path4247" />
      </g>
      <g
         id="g4249"
         transform="matrix(0.35277777,0,0,-0.35277777,17.919266,86.198614)">
        <path
           d="m 0,0 h -2.393 l -5.908,-5.907 h 1.161 4.493 0.856 L 4.066,0 Z"
           style="fill:#707a84;fill-opacity:1;fill-rule:nonzero;stroke:none"
           id="path4251" />
      </g>
      <g
         id="g4253"
         transform="matrix(0.35277777,0,0,-0.35277777,29.572292,86.198614)">
        <path
           d="M 0,0 H -1.347 L -7.256,-5.907 H 3.664 6.98 L 12.837,0 H 0.824 Z"
           style="fill:#707a84;fill-opacity:1;fill-rule:nonzero;stroke:none"
           id="path4255" />
      </g>
      <g
         id="g4257"
         transform="matrix(0.35277777,0,0,-0.35277777,25.963517,86.198614)">
        <path
           d="m 0,0 h -2.932 l -5.907,-5.907 h 4.376 2.725 1.378 L 5.497,0 Z"
           style="fill:#707a84;fill-opacity:1;fill-rule:nonzero;stroke:none"
           id="path4259" />
      </g>
      <g
         id="g4261"
         transform="matrix(0.35277777,0,0,-0.35277777,38.104293,86.200766)">
        <path
           d="M 0,0 H -2.206 L -8.1,-5.895 h 1.215 6.475 L 5.323,0.016 C 5.233,0.012 5.148,0 5.056,0 Z"
           style="fill:#707a84;fill-opacity:1;fill-rule:nonzero;stroke:none"
           id="path4263" />
      </g>
      <g
         id="g4265"
         transform="matrix(0.35277777,0,0,-0.35277777,46.332693,86.195791)">
        <path
           d="M 0,0 H -0.536 L -6.313,-5.907 H 8.982 L 14.713,0 H 1.441 Z"
           style="fill:#707a84;fill-opacity:1;fill-rule:nonzero;stroke:none"
           id="path4267" />
      </g>
      <g
         id="g4269"
         transform="matrix(0.35277777,0,0,-0.35277777,54.5854,86.198614)">
        <path
           d="m 0,0 -5.777,-5.907 h 6.85 2.539 L 9.342,0 h -7.87 z"
           style="fill:#707a84;fill-opacity:1;fill-rule:nonzero;stroke:none"
           id="path4271" />
      </g>
      <g
         id="g4273"
         transform="matrix(0.35277777,0,0,-0.35277777,10.245785,86.198614)">
        <path
           d="m 0,0 h -2.961 l -5.907,-5.907 h 1.728 4.988 L 3.705,0 Z"
           style="fill:#707a84;fill-opacity:1;fill-rule:nonzero;stroke:none"
           id="path4275" />
      </g>
      <g
         id="g4277"
         transform="matrix(0.35277777,0,0,-0.35277777,35.592762,75.608049)">
        <path
           d="m 0,0 -3.393,-19.266 c -0.024,-0.143 -0.063,-0.272 -0.118,-0.384 -0.164,-0.336 -0.468,-0.524 -0.935,-0.524 H -8.652 L -4.924,0.86 h 4.255 c 0.34,0 0.531,-0.128 0.622,-0.333 C 0.017,0.386 0.039,0.214 0,0 M 3.299,-22.803 5.842,-8.385 7.936,3.49 4.494,7.075 h -15.68 l -5.88,-33.464 h 15.632 l 2.366,1.793 z"
           style="fill:#ffffff;fill-opacity:1;fill-rule:nonzero;stroke:none"
           id="path4279" />
      </g>
      <g
         id="g4281"
         transform="matrix(0.35277777,0,0,-0.35277777,41.630095,78.559423)">
        <path
           d="m 0,0 3.108,-16.397 c 0.095,-0.526 0.31,-0.932 0.622,-1.207 0.31,-0.275 0.716,-0.419 1.195,-0.419 h 5.353 l 5.88,33.464 H 9.322 L 6.167,-2.629 2.725,15.441 h -6.836 l -5.88,-33.464 h 5.067 c 1.1,0 1.865,0.526 2.056,1.626 z"
           style="fill:#ffffff;fill-opacity:1;fill-rule:nonzero;stroke:none"
           id="path4283" />
      </g>
      <g
         id="g4285"
         transform="matrix(0.35277777,0,0,-0.35277777,60.792807,83.70003)">
        <path
           d="m 0,0 0.178,0.135 1.947,10.949 0.347,1.958 -3.442,3.586 h -8.126 l 1.099,6.262 c 0.096,0.574 0.43,0.908 1.052,0.908 h 2.916 c 0.43,0 0.645,-0.188 0.686,-0.504 0.013,-0.105 0.007,-0.225 -0.017,-0.356 L -3.622,21.36 -3.885,19.783 H 1.66 c 1.1,0 1.864,0.525 2.055,1.625 l 0.861,5.02 -2.279,2.374 -1.163,1.211 H -9.957 l -2.04,-1.545 -2.693,-2.04 -2.198,-12.477 3.441,-3.538 H -5.32 L -6.515,3.672 C -6.539,3.529 -6.577,3.4 -6.632,3.288 -6.796,2.952 -7.101,2.764 -7.567,2.764 h -3.393 c -0.574,0 -0.766,0.287 -0.67,0.86 l 0.382,2.199 c 0.049,0.275 0.058,0.514 0.027,0.718 -0.092,0.612 -0.54,0.908 -1.365,0.908 h -5.689 l -1.291,-7.314 3.442,-3.586 h 11.569 l 2.366,1.793 z"
           style="fill:#ffffff;fill-opacity:1;fill-rule:nonzero;stroke:none"
           id="path4287" />
      </g>
      <g
         id="g4289"
         transform="matrix(0.35277777,0,0,-0.35277777,69.405947,73.112075)">
        <path
           d="m 0,0 h -11.091 l -2.04,-1.546 -2.693,-2.04 -2.199,-12.476 3.442,-3.538 h 8.127 l -1.195,-6.741 c -0.024,-0.143 -0.063,-0.272 -0.118,-0.384 -0.163,-0.336 -0.468,-0.524 -0.934,-0.524 h -3.394 c -0.43,0 -0.646,0.161 -0.686,0.484 -0.013,0.107 -0.008,0.233 0.016,0.376 l 0.383,2.199 c 0.143,0.825 -0.063,1.327 -0.639,1.526 -0.192,0.067 -0.425,0.1 -0.699,0.1 h -5.69 l -1.291,-7.314 3.443,-3.586 H -5.69 l 4.733,3.586 2.295,12.907 -3.442,3.586 h -8.127 l 1.1,6.262 c 0.042,0.25 0.137,0.444 0.273,0.595 0.021,0.023 0.033,0.054 0.055,0.074 0.174,0.155 0.412,0.239 0.724,0.239 h 2.916 c 0.339,0 0.531,-0.128 0.622,-0.333 0.063,-0.141 0.086,-0.313 0.047,-0.527 L -4.757,-8.653 -5.02,-10.23 h 5.545 c 1.1,0 1.864,0.525 2.056,1.625 l 0.86,5.019 -0.133,0.139 z"
           style="fill:#ffffff;fill-opacity:1;fill-rule:nonzero;stroke:none"
           id="path4291" />
      </g>
      <g
         id="g4293"
         transform="matrix(0.35277777,0,0,-0.35277777,25.018848,80.735003)">
        <path
           d="M 0,0 4.446,15.824 3.442,0 Z m 10.183,-11.856 0.154,6.377 0.61,25.223 c 0,0.896 -0.402,1.497 -1.108,1.741 -0.236,0.081 -0.505,0.123 -0.804,0.123 H 0 L -5.401,4.876 -10.804,-11.856 h 5.928 c 0.033,0 0.056,0.011 0.087,0.012 0.504,0.015 0.913,0.135 1.221,0.383 0.329,0.263 0.557,0.657 0.7,1.183 l 1.243,4.398 H 3.06 l -0.382,-5.976 z"
           style="fill:#ffffff;fill-opacity:1;fill-rule:nonzero;stroke:none"
           id="path4295" />
      </g>
      <g
         id="g4297"
         transform="matrix(0.35277777,0,0,-0.35277777,52.814385,84.38336)">
        <path
           d="m 0,0 v 0 c 0.009,0.041 0.031,0.069 0.038,0.112 l 0.813,4.589 h -9.37 l 0.67,3.824 0.669,3.825 h 5.259 c 0.549,0 0.98,0.143 1.314,0.418 0.335,0.275 0.574,0.681 0.741,1.207 l 1.482,4.59 h -7.697 l 1.028,5.927 0.216,1.243 h 7.362 c 0.524,0 0.967,0.129 1.313,0.374 0.379,0.268 0.642,0.677 0.742,1.252 l 0.578,3.466 0.187,1.123 h -16.397 l -2.94,-16.732 -2.94,-16.732 h 14.915 c 0.365,0 0.677,0.081 0.96,0.199 C -0.523,-1.092 -0.148,-0.663 0,0"
           style="fill:#ffffff;fill-opacity:1;fill-rule:nonzero;stroke:none"
           id="path4299" />
      </g>
      <g
         id="g4301"
         transform="matrix(0.35277777,0,0,-0.35277777,19.622548,84.917431)">
        <path
           d="m 0,0 c 0.275,0 0.529,0.033 0.758,0.099 0.458,0.133 0.818,0.401 1.05,0.809 0.116,0.204 0.2,0.443 0.248,0.717 L 7.649,33.464 H -2.869 L -6.765,21.68 -10.66,9.896 l 0.573,21.943 c 0,0.526 -0.12,0.932 -0.376,1.207 -0.258,0.274 -0.652,0.418 -1.201,0.418 H -20.7 L -26.58,0 h 4.828 c 0.366,0 0.677,0.081 0.96,0.199 0.568,0.237 0.968,0.693 1.096,1.426 L -15.776,23.95 -16.397,0 h 6.167 c 0.298,0 0.565,0.033 0.801,0.1 0.71,0.202 1.159,0.713 1.445,1.573 L -0.621,23.95 -4.828,0 Z"
           style="fill:#ffffff;fill-opacity:1;fill-rule:nonzero;stroke:none"
           id="path4303" />
      </g>
      <g
         id="g4305"
         transform="matrix(0.35277777,0,0,-0.35277777,7.6226708,82.833925)">
        <path
           d="m 0,0 h -6.488 l 2.032,11.206 h -24.909 l 0.997,5.512 h -23.918 l -0.719,-4.092 h 19.738 l -1.255,-6.931 h -19.7 l -0.719,-4.092 h 23.837 l 0.998,5.511 h 20.749 l -3.321,-18.321 h -20.865 l 0.997,5.512 h -23.677 l -0.719,-4.092 h 19.497 l -1.255,-6.931 h -19.46 l -0.719,-4.092 h 23.597 l 0.998,5.511 h 25.022 l 2.032,11.207 h 6.511 z"
           style="fill:#196fc1;fill-opacity:1;fill-rule:nonzero;stroke:none"
           id="path4307" />
      </g>
      <g
         id="g4309"
         transform="matrix(0.35277777,0,0,-0.35277777,62.506072,59.766139)">
        <path
           d="m 0,0 h -25.023 l -2.032,-11.207 h -5.33 l -0.719,-4.092 h 5.308 l -2.032,-11.206 h 24.909 l -0.997,-5.512 h 23.918 l 0.718,4.093 H -1.017 l 1.255,6.93 h 19.7 l 0.719,4.092 H -3.18 l -0.998,-5.511 h -20.749 l 3.321,18.321 h 20.865 l -0.998,-5.512 h 23.678 l 0.719,4.092 H 3.16 l 1.256,6.931 h 19.46 l 0.719,4.092 H 0.998 Z"
           style="fill:#196fc1;fill-opacity:1;fill-rule:nonzero;stroke:none"
           id="path4311" />
      </g>
      <g
         id="g4313"
         transform="matrix(0.35277777,0,0,-0.35277777,34.143198,71.366989)">
        <path
           d="m 0,0 h 10.852 l 4.733,3.586 1.243,7.075 c 0.095,0.526 0.036,0.932 -0.185,1.207 -0.111,0.137 -0.262,0.242 -0.454,0.312 -0.192,0.07 -0.424,0.106 -0.699,0.106 H 9.801 L 8.892,7.123 C 8.874,7.013 8.838,6.921 8.803,6.829 8.65,6.442 8.343,6.215 7.84,6.215 H 5.163 C 4.877,6.215 4.686,6.298 4.578,6.448 4.47,6.597 4.446,6.812 4.494,7.075 l 3.394,19.266 c 0.048,0.287 0.156,0.514 0.329,0.669 0.174,0.156 0.412,0.239 0.723,0.239 h 2.677 c 0.574,0 0.765,-0.335 0.669,-0.86 l -0.86,-4.972 h 5.545 c 0.55,0 1.017,0.131 1.369,0.4 0.176,0.135 0.324,0.304 0.439,0.508 0.116,0.203 0.2,0.443 0.248,0.717 l 1.195,6.836 -3.442,3.586 H 5.929 L 1.195,29.878 -3.442,3.586 Z"
           style="fill:#ffffff;fill-opacity:1;fill-rule:nonzero;stroke:none"
           id="path4315" />
      </g>
      <g
         id="g4317"
         transform="matrix(0.35277777,0,0,-0.35277777,6.6207114,71.366989)">
        <path
           d="M 0,0 C 0.55,0 1.016,0.131 1.369,0.4 1.721,0.669 1.96,1.076 2.056,1.625 L 5.976,23.951 5.355,0 h 6.166 c 0.897,0 1.497,0.296 1.903,0.928 0.135,0.21 0.249,0.458 0.344,0.745 L 21.13,23.95 16.923,0 h 4.829 c 0.55,0 1.015,0.131 1.368,0.4 0.353,0.269 0.592,0.676 0.688,1.225 l 5.593,31.839 H 18.883 L 11.091,9.896 11.665,31.838 c 0,1.053 -0.478,1.626 -1.578,1.626 H 1.052 L -4.828,0 h 0.299 z"
           style="fill:#ffffff;fill-opacity:1;fill-rule:nonzero;stroke:none"
           id="path4319" />
      </g>
      <g
         id="g4321"
         transform="matrix(0.35277777,0,0,-0.35277777,21.259049,61.602277)">
        <path
           d="m 0,0 -1.004,-15.824 h -3.442 z m -13.127,-21.103 -2.123,-6.576 h 5.928 c 0.275,0 0.52,0.032 0.738,0.098 0.434,0.132 0.758,0.395 0.99,0.789 0.115,0.197 0.208,0.427 0.28,0.69 l 1.243,4.398 h 4.685 l -0.382,-5.975 H 5.737 L 6.502,3.92 C 6.502,4.219 6.457,4.485 6.371,4.716 6.285,4.947 6.158,5.142 5.994,5.301 5.83,5.459 5.628,5.58 5.393,5.661 5.157,5.743 4.888,5.784 4.589,5.784 h -9.035 l -5.401,-16.731 z"
           style="fill:#ffffff;fill-opacity:1;fill-rule:nonzero;stroke:none"
           id="path4323" />
      </g>
      <g
         id="g4325"
         transform="matrix(0.35277777,0,0,-0.35277777,28.52747,61.754113)">
        <path
           d="M 0,0 H 4.255 C 4.542,0 4.733,-0.084 4.841,-0.233 4.948,-0.382 4.972,-0.597 4.924,-0.86 L 3.681,-8.031 C 3.585,-8.605 3.251,-8.939 2.63,-8.939 h -4.207 z m -6.597,-27.249 c 0.275,0 0.529,0.033 0.759,0.099 0.229,0.067 0.433,0.167 0.609,0.301 0.353,0.269 0.592,0.676 0.688,1.225 l 1.864,10.47 h 2.438 l 1.1,-6.048 1.099,-6.047 h 6.071 c 0.585,0 0.981,0.254 1.179,0.665 0.124,0.26 0.186,0.57 0.112,0.96 l -2.246,11.521 0.764,0.588 2.534,1.946 2.486,14.198 -3.442,3.586 h -15.68 l -5.88,-33.464 z"
           style="fill:#ffffff;fill-opacity:1;fill-rule:nonzero;stroke:none"
           id="path4327" />
      </g>
      <g
         id="g4329"
         transform="matrix(0.35277777,0,0,-0.35277777,40.754113,71.366989)">
        <path
           d="m 0,0 h 5.545 c 1.099,0 1.864,0.526 2.056,1.625 l 0.848,4.853 1.207,6.907 h 5.067 L 12.381,0 h 5.546 c 1.099,0 1.864,0.526 2.055,1.625 l 5.594,31.839 h -7.315 l -1.195,-6.812 -1.195,-6.813 h -5.067 l 2.39,13.625 H 5.88 L 2.94,16.732 -0.001,0 Z"
           style="fill:#ffffff;fill-opacity:1;fill-rule:nonzero;stroke:none"
           id="path4331" />
      </g>
      <g
         id="g4333"
         transform="matrix(0.35277777,0,0,-0.35277777,3.442854,64.450464)">
        <path
           d="m 0,0 h -4.281 l -0.506,-1.785 h 0.664 L -6.236,-5.138 -6.533,0 h -4.343 l -0.494,-1.777 0.663,-0.008 -2.837,-4.304 -2.335,0.01 c -0.245,0 -1.188,0.226 -1.188,1.395 0,1.17 1.113,2.867 2.244,2.867 l 0.474,-0.011 c -0.08,-0.288 -0.246,-0.887 -0.246,-0.887 h 2.079 L -11.769,0 -14.972,0.012 c -1.993,0 -3.604,-1.433 -4.113,-2.904 l 0.83,2.883 -2.849,0.009 -0.503,-1.785 0.738,0.003 -0.743,-2.615 -1.864,4.388 h -2.67 l -0.501,-1.777 h 0.732 l -1.654,-6.027 h 2.135 c 0,0 0.821,2.987 1.033,3.756 0.3,-0.727 1.554,-3.756 1.554,-3.756 l 2.375,10e-4 1.088,3.827 c -0.096,-0.57 -0.102,-1.166 -0.002,-1.756 0.21,-1.254 1.43,-2.072 2.762,-2.072 h 4.312 l 0.74,1.121 h 3.042 l 0.062,-1.109 h 2.697 l 0.686,1.109 h 3.111 l 0.122,-1.121 h 1.909 l 0.422,0.855 z"
           style="fill:#ffffff;fill-opacity:1;fill-rule:nonzero;stroke:none"
           id="path4335" />
      </g>
      <g
         id="g4337"
         transform="matrix(0.35277777,0,0,-0.35277777,3.878464,67.67009)">
        <path
           d="M 0,0 V 0.454 H 0.303 C 0.457,0.454 0.622,0.421 0.622,0.239 0.622,0.014 0.454,0 0.266,0 Z m 0,-0.188 h 0.256 l 0.386,-0.635 h 0.249 l -0.417,0.645 c 0.215,0.027 0.38,0.141 0.38,0.404 0,0.289 -0.171,0.416 -0.518,0.416 H -0.222 V -0.823 H 0 Z m 0.269,-1.174 c 0.693,0 1.285,0.539 1.285,1.275 0,0.729 -0.592,1.268 -1.285,1.268 -0.699,0 -1.291,-0.539 -1.291,-1.268 0,-0.736 0.592,-1.275 1.291,-1.275 m -1.036,1.275 c 0,0.602 0.454,1.056 1.036,1.056 0.575,0 1.029,-0.454 1.029,-1.056 0,-0.612 -0.454,-1.062 -1.029,-1.062 -0.582,0 -1.036,0.45 -1.036,1.062"
           style="fill:#196fc1;fill-opacity:1;fill-rule:nonzero;stroke:none"
           id="path4339" />
      </g>
      <g
         id="g4341"
         transform="matrix(0.35277777,0,0,-0.35277777,2.128016,66.141469)">
        <path
           d="M 0,0 1.651,2.501 1.734,0 Z m -6.619,-0.034 1.654,2.51 0.088,-2.51 z"
           style="fill:#196fc1;fill-opacity:1;fill-rule:nonzero;stroke:none"
           id="path4343" />
      </g>
      <g
         id="g4345"
         transform="matrix(0.35277777,0,0,-0.35277777,2.7896154,67.206611)">
        <path
           d="M 0,0 -0.122,1.121 H -3.233 L -3.92,0.012 H -6.616 L -6.678,1.121 H -9.72 L -10.461,0 h -4.312 c -1.332,0 -2.552,0.818 -2.761,2.072 -0.1,0.59 -0.094,1.186 10e-4,1.756 L -18.62,0.001 -20.996,0 c 0,0 -1.253,3.029 -1.554,3.756 C -22.761,2.987 -23.583,0 -23.583,0 h -2.134 l 1.654,6.026 h -0.732 l 0.501,1.777 h 2.67 l 1.864,-4.387 0.742,2.614 -0.737,-0.003 0.503,1.786 2.849,-0.01 -0.83,-2.883 c 0.509,1.471 2.119,2.904 4.112,2.904 l 3.204,-0.011 -0.747,-2.715 h -2.08 c 0,0 0.167,0.598 0.247,0.887 l -0.474,0.01 c -1.132,0 -2.245,-1.697 -2.245,-2.866 0,-1.169 0.944,-1.396 1.189,-1.396 l 2.335,-0.009 2.836,4.303 -0.662,0.008 0.493,1.778 h 4.344 l 0.296,-5.138 2.114,3.352 H -2.935 L -2.43,7.813 H 1.852 L 2.33,0.855 c 0.953,2.086 1.484,4.404 1.484,6.846 0,9.116 -7.39,16.506 -16.506,16.506 -9.115,0 -16.505,-7.39 -16.505,-16.506 0,-9.116 7.39,-16.505 16.505,-16.505 6.334,0 11.834,3.569 14.601,8.804 z"
           style="fill:#196fc1;fill-opacity:1;fill-rule:nonzero;stroke:none"
           id="path4347" />
      </g>
      <g
         id="g4349"
         transform="matrix(0.35277777,0,0,-0.35277777,8.0792711,72.529992)">
        <path
           d="m 0,0 -10.219,-10.531 h 7.262 L 2.002,-5.454 7.33,0 H 1.864 Z"
           style="fill:#707a84;fill-opacity:1;fill-rule:nonzero;stroke:none"
           id="path4351" />
      </g>
      <g
         id="g4353"
         transform="matrix(0.35277777,0,0,-0.35277777,0.37566293,76.245165)">
        <path
           d="M 0,0 H 6.871 L 17.126,10.531 H 13.518 10.214 Z"
           style="fill:#707a84;fill-opacity:1;fill-rule:nonzero;stroke:none"
           id="path4355" />
      </g>
      <g
         id="g4357"
         transform="matrix(0.35277777,0,0,-0.35277777,71.24466,74.88115)">
        <path
           d="M 0,0 V 0.454 H 0.303 C 0.457,0.454 0.622,0.421 0.622,0.239 0.622,0.014 0.455,0 0.266,0 Z m 0,-0.188 h 0.256 l 0.386,-0.636 h 0.25 l -0.418,0.646 c 0.216,0.027 0.381,0.141 0.381,0.404 0,0.289 -0.172,0.416 -0.519,0.416 H -0.222 V -0.824 H 0 Z m 0.27,-1.174 c 0.692,0 1.284,0.538 1.284,1.275 0,0.729 -0.592,1.268 -1.284,1.268 -0.7,0 -1.292,-0.539 -1.292,-1.268 0,-0.737 0.592,-1.275 1.292,-1.275 m -1.036,1.275 c 0,0.602 0.454,1.056 1.036,1.056 0.574,0 1.029,-0.454 1.029,-1.056 0,-0.612 -0.455,-1.063 -1.029,-1.063 -0.582,0 -1.036,0.451 -1.036,1.063"
           style="fill:#ffffff;fill-opacity:1;fill-rule:nonzero;stroke:none"
           id="path4359" />
      </g>
    </g>
  </g>
</svg>
