<?xml version="1.0" encoding="utf-8"?>
<!-- Generator: Adobe Illustrator 15.0.0, SVG Export Plug-In . SVG Version: 6.00 Build 0)  -->
<!DOCTYPE svg PUBLIC "-//W3C//DTD SVG 1.1//EN" "http://www.w3.org/Graphics/SVG/1.1/DTD/svg11.dtd">
<svg version="1.1" id="Layer_1" xmlns="http://www.w3.org/2000/svg" xmlns:xlink="http://www.w3.org/1999/xlink" x="0px" y="0px"
	 width="257.859px" height="184.833px" viewBox="0 0 257.859 184.833" enable-background="new 0 0 257.859 184.833"
	 xml:space="preserve">
<path fill="#141006" d="M199.205,25.593c0,0-5.666,0.528-10.426-4.081l-12.689,1.89l0.904,8.688l25.76-1.36L199.205,25.593z"/>
<path fill="#141006" d="M214.056,30.95c0,3.024-2.451,5.479-5.477,5.479c-3.023,0-5.477-2.455-5.477-5.479
	c0-3.025,2.453-5.479,5.477-5.479C211.605,25.472,214.056,27.925,214.056,30.95"/>
<path fill="#141006" d="M207.933,25.649c0,3.023-2.451,5.476-5.477,5.476c-3.027,0-5.477-2.452-5.477-5.476
	c0-3.024,2.449-5.479,5.477-5.479C205.482,20.17,207.933,22.625,207.933,25.649"/>
<path fill="#141006" d="M190.97,20.116c0,4.148-3.365,7.516-7.518,7.516c-4.15,0-7.516-3.367-7.516-7.516
	c0-4.154,3.365-7.518,7.516-7.518C187.605,12.599,190.97,15.962,190.97,20.116"/>
<path fill="#E7D8AC" d="M178.984,17.23H91.582l-0.699,3.301c-4.109-10.203-14.101-17.4-25.773-17.404
	C49.766,3.131,37.33,15.564,37.33,30.906c0.002,9.176,4.449,17.304,11.309,22.356h-7.303l-15.633,67.84
	c0.333,0.021,0.686,0.045,1.057,0.066l15.22-66.054l0.187-0.809h10.01c-8.42-4.636-13.807-13.503-13.807-23.4
	c0-14.746,11.995-26.739,26.74-26.739c12.561,0,23.13,8.707,25.979,20.404l1.16-5.474l0.18-0.825h85.525"/>
<path fill="#E7D8AC" d="M190.025,31.044h39.018l-0.281,1.269l-4.555,20.615h9.176l-0.229,1.237l-4.182,22.111l-0.162,0.848h-6.32
	c2.221,1.186,4.1,2.722,5.617,4.591c2.541,3.146,3.875,7.182,3.859,11.673c0,1.92-0.244,3.987-0.717,6.147
	c-0.992,4.514-2.639,8.053-5.035,10.814c-1.285,1.496-2.799,2.783-4.607,3.914l8.701,20.764c0.367,0.004,0.689,0.006,0.947,0.006
	h0.186l-8.537-20.373c1.516-1.027,2.895-2.23,4.104-3.635c2.734-3.162,4.328-7.018,5.262-11.264c0.473-2.16,0.74-4.283,0.74-6.378
	c-0.002-0.092-0.002-0.098-0.002-0.098c0.002-4.438-1.301-8.776-4.088-12.227c-0.881-1.086-1.865-2.05-2.936-2.895h3.688
	l4.971-26.28H225.5l4.836-21.879h-39.27"/>
<g>
	<defs>
		<path id="SVGID_1_" d="M39.415,30.905c0,11.436,7.476,21.111,17.798,24.445H42.992l-18.721,81.264h31.73l0.107-0.473h80.669
			c2.943,0.877,6.215,1.285,9.77,1.291h0.051c3.586,0,6.979-0.447,10.146-1.291h12.879l-0.109,0.475h24.871l0.111-0.475h2.6
			l0.109,0.475h32.639l-9.549-22.781c1.963-1.129,3.686-2.492,5.131-4.17c2.445-2.828,3.92-6.326,4.805-10.354
			c0.451-2.035,0.691-4.01,0.691-5.931c0.018-4.077-1.158-7.961-3.625-11.012c-2.604-3.207-6.232-5.228-10.506-6.287h11.152
			l4.182-22.113h-9.219l4.834-21.882h-53.404l9.834-12.768h-90.9l-2.473,11.65c0-0.024,0.002-0.043,0.002-0.064
			c0-14.188-11.504-25.692-25.691-25.692C50.918,5.213,39.415,16.718,39.415,30.905"/>
	</defs>
	<clipPath id="SVGID_2_">
		<use xlink:href="#SVGID_1_"  overflow="visible"/>
	</clipPath>
	
		<linearGradient id="SVGID_3_" gradientUnits="userSpaceOnUse" x1="-176.8032" y1="490.4858" x2="-175.8036" y2="490.4858" gradientTransform="matrix(0 105.7268 105.7268 0 -51729.2734 18709.4355)">
		<stop  offset="0" style="stop-color:#000000"/>
		<stop  offset="1" style="stop-color:#00704D"/>
	</linearGradient>
	<rect x="24.272" y="5.213" clip-path="url(#SVGID_2_)" fill="url(#SVGID_3_)" width="207.854" height="132.22"/>
</g>
<path fill="none" stroke="#141006" stroke-width="10.426" d="M184.171,19.318h-90.9L90.798,30.97c0-0.024,0.003-0.043,0.003-0.064
	c0-14.189-11.505-25.692-25.691-25.692c-14.19,0-25.693,11.503-25.693,25.692c0,11.437,7.475,21.111,17.796,24.445H42.994
	l-18.723,81.264h31.729l0.108-0.473h80.669c2.943,0.877,6.213,1.285,9.771,1.291h0.049c3.586,0,6.98-0.447,10.146-1.291h12.879
	l-0.107,0.477h24.869l0.111-0.477h2.6l0.107,0.477h32.641l-9.547-22.785c1.961-1.127,3.684-2.49,5.129-4.168
	c2.447-2.828,3.922-6.326,4.805-10.354c0.449-2.035,0.691-4.01,0.691-5.93c0.02-4.078-1.16-7.963-3.625-11.013
	c-2.604-3.206-6.232-5.228-10.504-6.289h11.15l4.182-22.11h-9.221l4.836-21.883h-53.402"/>
<path fill="#E7D8AC" d="M227.007,111.025c2.736-3.16,4.33-7.018,5.26-11.266c0.477-2.158,0.742-4.281,0.742-6.378
	c-0.004-0.089-0.004-0.095-0.004-0.095c0.004-4.439-1.297-8.777-4.086-12.228c-0.881-1.086-1.867-2.05-2.936-2.894h3.689
	l4.969-26.281h-9.141l4.834-21.879h-19.973c-0.02-0.154-0.377-1.176-6.771-1.903c2.516-1.696,1.053-5.17-1.129-5.075
	c-2.262,0.094-2.529,1.889-2.529,1.889s0.664-0.265,1.193-0.265c0.787,0,1.604,0.854,1.176,1.671
	c-0.332,0.636-0.889,1.493-2.951,1.566c-1.453-0.046-2.521-0.044-3.699-0.073c-1.834-0.168-3.281-0.495-4.211-0.822
	c-2.699-0.949-3.471-2.681-3.471-2.681s-0.74,1.889,0.471,2.867c0.104,0.084,0.203,0.151,0.305,0.214
	c-5.498-0.181-6.168-2.832-6.543-4.999c-0.555-3.169,1.955-3.842,2.732-2.932c1.092,1.278-0.641,1.77-0.641,1.77
	s0.381,0.486,0.787,0.683c0.777,0.378,2.555,0.227,2.959-1.719c0.893-4.271-6.246-6.363-9.205-2.221l0.146-0.744h-87.4l-0.7,3.301
	C86.773,10.329,76.782,3.13,65.109,3.129C49.764,3.13,37.33,15.564,37.33,30.906c0.002,9.177,4.451,17.305,11.309,22.356h-7.303
	l-19.688,85.438h36.016l0.107-0.475h78.708c3.098,0.885,6.467,1.287,10.07,1.291h0.049c3.658,0,7.145-0.443,10.416-1.291h9.996
	l-0.107,0.477h66.074l-10.074-24.041C224.419,113.632,225.798,112.429,227.007,111.025"/>
<g>
	<defs>
		<path id="SVGID_4_" d="M38.369,30.905c0,9.898,5.388,18.767,13.807,23.401h-9.184h-0.828l-0.186,0.809L23.256,136.38l-0.293,1.277
			h1.311h31.729h0.838l0.104-0.473h79.689c2.928,0.85,6.266,1.289,9.912,1.293h0.057c3.555,0,7.008-0.438,10.279-1.293h11.438
			l-0.109,0.48h1.303h24.873h0.822l0.115-0.48h0.934l0.105,0.48h0.838h32.645h1.568l-0.611-1.451l-9.195-21.949
			c1.809-1.133,3.322-2.418,4.605-3.918c2.4-2.76,4.043-6.301,5.037-10.811c0.475-2.16,0.715-4.229,0.715-6.15
			c0.02-4.489-1.316-8.524-3.859-11.673c-1.518-1.867-3.395-3.404-5.615-4.59h5.455h0.865l0.16-0.846l4.182-22.113l0.232-1.236
			h-1.258h-7.922l4.555-20.614l0.283-1.271h-1.301h-52.359l2.568-12.769h-1.029h-83.65H92.43l-0.182,0.822l-1.161,5.475
			C88.238,12.875,77.669,4.167,65.109,4.167C50.363,4.167,38.369,16.16,38.369,30.905"/>
	</defs>
	<clipPath id="SVGID_5_">
		<use xlink:href="#SVGID_4_"  overflow="visible"/>
	</clipPath>
	
		<linearGradient id="SVGID_6_" gradientUnits="userSpaceOnUse" x1="-176.5127" y1="490.2788" x2="-175.5127" y2="490.2788" gradientTransform="matrix(0 134.3097 134.3097 0 -65721.0469 23711.4805)">
		<stop  offset="0" style="stop-color:#001002"/>
		<stop  offset="1" style="stop-color:#5E9732"/>
	</linearGradient>
	<rect x="22.964" y="4.167" clip-path="url(#SVGID_5_)" fill="url(#SVGID_6_)" width="210.42" height="134.309"/>
</g>
<path d="M119.324,74.562h12.949l7.504-35.741h-12.952L119.324,74.562z M148.136,74.513l3.395-16v0.003l5.293,15.997h24.982
	l2.473-5.732v0.003h6.699l0.139,5.729h35.33l2.605-13.775h-9.377l4.844-21.917h-12.967l-7.047,33.425l-3.799-33.425h-13.668
	l-17.832,33.873l7.121-33.849h-12.002l-3.242,15.411l-5.371-15.411h-12.076l-7.576,35.668H148.136z M191.074,51.876l0.199,8.508
	h-3.867L191.074,51.876z M177.226,111.806l6.607-29.863h-20.045l-6.197,28.019l-0.264,1.178c-0.635,2.855-1.223,4.744-2.48,5.725
	c-0.703,0.547-1.605,0.82-2.848,0.82c-1.17,0-1.879-0.227-2.236-0.666c-0.111-0.143-0.199-0.324-0.258-0.527
	c-0.346-1.156,0.1-3.174,0.469-4.844l0.248-1.109l6.326-28.595h-20.045l-6.607,29.863l-0.24,1.082
	c-1.6,7.232-0.797,12.904,2.38,16.865c0.811,1.014,1.766,1.904,2.861,2.66c3.289,2.287,7.844,3.447,13.607,3.447
	c7.268,0,13.367-1.857,18.102-5.393c5.098-3.805,8.605-9.562,10.262-17.074L177.226,111.806z M107.943,58.456h10.848l2.725-12.733
	h-10.763l1.125-5.886h12.071l3.074-13.75h-28.42L88.318,74.513h16.23L107.943,58.456z M65.105,89.075l-0.088,0.052l1.817-7.986
	h16.892l4.205-19.022H48.27l-16.803,72.924h23.16l6.428-28.492h15.018l3.875-17.475H65.105z M119.165,82.239
	c-3.31-2.245-7.384-3.34-12.043-3.22c-5.67,0.187-10.718,2.016-14.914,5.249c-6.204,4.788-10.552,12.657-12.349,22.885
	c-1.567,8.648-0.084,16.967,3.951,22.234c1.181,1.551,2.553,2.816,4.108,3.838c2.875,1.889,6.377,2.879,10.476,2.959
	c5.955,0.105,10.957-1.611,15.053-4.432c7.804-5.373,12.355-14.734,14.086-23.207v-0.01c1.662-8.377-0.006-17.019-4.354-22.547
	C122.008,84.507,120.669,83.25,119.165,82.239 M108.549,107.8c-0.917,5.168-2.793,10.311-5.225,12.262
	c-0.719,0.574-1.482,0.885-2.283,0.824h-0.002c-0.723-0.039-1.291-0.285-1.753-0.77c-0.099-0.1-0.201-0.215-0.292-0.344
	c-1.678-2.299-1.402-7.719-0.585-12.018c0.829-4.348,2.475-8.742,4.499-11.145c0.945-1.117,1.977-1.803,3.042-1.838
	c0.762-0.004,1.344,0.23,1.817,0.754c0.037,0.051,0.08,0.092,0.118,0.146C109.316,97.458,109.568,102.113,108.549,107.8
	 M210.664,81.943h-22.244l-11.752,53.103h19.672l-0.008-0.004l2.98-14.41l3.197,14.414h23.018l-7.59-18.123
	c-0.443-1.037-1-1.766-1.541-2.365c6.857-2.541,10.121-6.322,11.721-13.549c0.393-1.789,0.594-3.463,0.594-5.029
	c0-3.339-0.9-6.152-2.709-8.395C223.037,83.896,217.738,81.943,210.664,81.943 M208.896,98.972c-0.688,7.5-6.545,5.834-6.545,5.834
	l2.111-9.736C209.556,94.283,208.896,98.972,208.896,98.972"/>
<path fill="#141006" d="M116.618,72.594l2.706,1.968h12.949l7.504-35.741l-1.141-3.253l-11.811,3.253L116.618,72.594z
	 M136.06,74.513h12.076l3.395-16v0.003l2.9,14.078l2.393,1.919h24.982l2.473-5.732v0.003h6.699l-2.393,3.759l2.531,1.971h35.33
	l2.605-13.775l-1.188-3.236l-8.189,3.236l4.844-21.917l-1.16-3.158l-11.807,3.158l-7.047,33.425l-3.799-33.425l-1.373-3.225
	l-12.295,3.225l-17.832,33.873l7.121-33.849l-1.18-3.175l-10.822,3.175l-3.242,15.411l-5.371-15.411l-1.414-3.175l-10.662,3.175
	l-10.271,33.697L136.06,74.513z M191.074,51.876l0.199,8.508h-3.867L191.074,51.876z M177.226,111.806l6.607-29.863h-0.006
	l-1.16-3.217l-18.879,3.217l-6.197,28.019l-0.264,1.178c-0.635,2.855-1.223,4.744-2.48,5.725c-0.703,0.547-1.605,0.82-2.848,0.82
	c-1.17,0-1.879-0.227-2.236-0.666c-0.111-0.143-0.199-0.324-0.258-0.527c-0.346-1.156,0.1-3.174,0.469-4.844l0.248-1.109
	l6.326-28.595l0,0l-1.133-3.217l-18.912,3.217l-6.607,29.863l-0.24,1.082c-1.6,7.232-0.797,12.904,2.38,16.865
	c0.811,1.014,1.766,1.904,2.861,2.66c3.289,2.287,7.844,3.447,13.607,3.447c7.268,0,13.367-1.857,18.102-5.393
	c5.098-3.805,8.605-9.562,10.262-17.074L177.226,111.806z M65.105,89.075l-0.088,0.052l1.817-7.986h16.892l1.868-8.453l2.724,1.825
	h16.23l3.395-16.057h10.848l2.725-12.733l-1.217-3.172l-9.546,3.172l1.125-5.886h12.071l3.074-13.75l-1.332-3.205l-27.088,3.205
	L86.484,68.664l1.447-6.546l-1.166-3.186L48.27,62.118l-16.803,72.924h23.16l6.428-28.492h15.018l3.875-17.475H65.105z
	 M119.165,82.239c-3.31-2.245-7.384-3.34-12.043-3.22c-5.67,0.187-10.718,2.016-14.914,5.249
	c-6.204,4.788-10.552,12.657-12.349,22.885c-1.567,8.648-0.084,16.967,3.951,22.234c1.181,1.551,2.553,2.816,4.108,3.838
	c2.875,1.889,6.377,2.879,10.476,2.959c5.955,0.105,10.957-1.611,15.053-4.432c7.804-5.373,12.355-14.734,14.086-23.207v-0.01
	c1.662-8.377-0.006-17.019-4.354-22.547C122.008,84.507,120.669,83.25,119.165,82.239 M108.549,107.8
	c-0.917,5.168-2.793,10.311-5.225,12.262c-0.719,0.574-1.482,0.885-2.283,0.824h-0.002c-0.723-0.039-1.291-0.285-1.753-0.77
	c-0.099-0.1-0.201-0.215-0.292-0.344c-1.678-2.299-1.402-7.719-0.585-12.018c0.829-4.348,2.475-8.742,4.499-11.145
	c0.945-1.117,1.977-1.803,3.042-1.838c0.762-0.004,1.344,0.23,1.817,0.754c0.037,0.051,0.08,0.092,0.118,0.146
	C109.316,97.458,109.568,102.113,108.549,107.8 M210.664,81.943h-22.244l-11.752,53.103h19.672l-0.008-0.004l2.98-14.41
	l3.197,14.414h23.018l-7.59-18.123c-0.443-1.037-1-1.766-1.541-2.365c6.857-2.541,10.121-6.322,11.721-13.549
	c0.393-1.789,0.594-3.463,0.594-5.029c0-3.339-0.9-6.152-2.709-8.395C223.037,83.896,217.738,81.943,210.664,81.943 M208.896,98.972
	c-0.688,7.5-6.545,5.834-6.545,5.834l2.111-9.736C209.556,94.283,208.896,98.972,208.896,98.972"/>
<path fill="#FFFFFF" d="M188.849,72.233l-0.137-5.73h-6.178l-2.471,5.73h-25.428l-4.99-15.093l-3.205,15.093h-12.729l7.715-36.305
	h12.561l5.068,14.537l3.055-14.537h12.66l-6.734,31.991l16.852-32.017h14.148l3.611,31.743l6.691-31.743h13.621l-4.844,21.916h9.367
	l-2.727,14.414H188.849z M188.994,57.469l-0.16-6.72l-2.896,6.72H188.994z"/>
<path fill="#141006" d="M222.562,36.224l-4.842,21.917h9.377l-2.604,13.772h-35.33l-0.137-5.73h-6.703V66.18l-2.471,5.733h-24.986
	l-5.289-15.995v-0.003l-3.396,15.998h-12.074l7.578-35.664h12.072l5.375,15.408l3.238-15.408h12.004l-7.123,33.852l17.832-33.877
	h13.67l3.801,33.423l7.045-33.423H222.562z M185.451,57.787h3.869l-0.201-8.509L185.451,57.787 M223.359,35.583h-0.797h-12.963
	h-0.52l-0.105,0.51l-6.232,29.554l-3.354-29.495l-0.064-0.568h-0.57h-13.67h-0.387l-0.18,0.343L168.822,65.74l6.18-29.358
	l0.162-0.773h-0.789h-12.004h-0.52l-0.107,0.509l-2.766,13.157l-4.615-13.236l-0.15-0.43h-0.455h-12.072h-0.516l-0.111,0.508
	l-7.576,35.664l-0.164,0.773h0.789h12.074h0.518l0.107-0.507l2.908-13.685l4.547,13.753l0.145,0.438h0.461h24.986h0.422l0.166-0.386
	l2.303-5.346h5.658l0.121,5.107l0.016,0.624h0.625h35.33h0.529l0.1-0.521l2.604-13.774l0.141-0.759h-0.77h-8.58l4.67-21.139
	L223.359,35.583z M186.423,57.148l2.127-4.93l0.115,4.93H186.423z"/>
<path fill="#FFFFFF" d="M200.296,132.771l-2.928-13.203l-2.68,12.943l-0.236-0.051l-0.068,0.311h-20.068l11.893-53.744h22.502
	c7.17,0,12.561,1.991,15.59,5.759c1.842,2.293,2.775,5.186,2.775,8.597c0,1.582-0.203,3.298-0.604,5.101
	c-1.59,7.182-4.826,11.035-11.484,13.615c0.418,0.502,0.891,1.17,1.291,2.1l7.777,18.572H200.296z M200.781,101.962
	c0.225,0.041,0.562,0.084,0.961,0.084c1.988,0,4.451-0.988,4.885-5.703c0.004-0.031,0.219-1.701-0.701-2.754
	c-0.512-0.587-1.297-0.886-2.332-0.886c-0.252,0-0.523,0.016-0.818,0.054L200.781,101.962z"/>
<path fill="#141006" d="M208.71,79.346c7.072,0,12.375,1.952,15.34,5.642c1.803,2.245,2.705,5.056,2.705,8.396
	c0,1.566-0.199,3.244-0.596,5.031c-1.6,7.225-4.861,11.006-11.715,13.549c0.541,0.596,1.094,1.324,1.537,2.363l7.594,18.125h-23.021
	l-3.197-14.412l-2.98,14.408l0.008,0.004h-19.67l11.754-53.105H208.71 M201.744,102.367c1.771,0,4.725-0.799,5.201-5.994
	c0,0,0.559-3.989-3.35-3.989c-0.328,0-0.689,0.027-1.086,0.088l-2.109,9.737C200.4,102.208,200.955,102.367,201.744,102.367
	 M208.71,78.707h-22.242h-0.516l-0.111,0.501l-11.75,53.104l-0.172,0.777h0.795h19.67l0.145-0.611l0.477,0.098l2.373-11.484
	l2.551,11.498l0.111,0.5h0.514h23.021h0.963l-0.373-0.887l-7.594-18.125c-0.328-0.768-0.713-1.371-1.066-1.84
	c6.502-2.621,9.697-6.527,11.279-13.686c0.404-1.824,0.611-3.562,0.611-5.169c0-3.485-0.959-6.446-2.846-8.796
	C221.458,80.739,215.98,78.707,208.71,78.707 M203.041,93.05c0.191-0.017,0.377-0.026,0.555-0.026c0.938,0,1.643,0.262,2.092,0.779
	c0.814,0.936,0.625,2.465,0.625,2.482c-0.414,4.502-2.715,5.441-4.568,5.441c-0.215,0-0.41-0.014-0.578-0.031L203.041,93.05z"/>
<path fill="#FFFFFF" d="M146.552,133.587c-5.801,0-10.443-1.184-13.789-3.512c-1.115-0.766-2.1-1.68-2.929-2.713
	c-3.244-4.051-4.064-9.818-2.441-17.145l0.24-1.08l6.607-29.862l0.055-0.253h0.258h20.043h0.396l-0.086,0.391l-6.326,28.593
	l-0.248,1.115c-0.355,1.621-0.795,3.605-0.475,4.686c0.049,0.164,0.119,0.307,0.209,0.426c0.289,0.352,0.957,0.533,1.98,0.533
	c1.154,0,1.996-0.238,2.646-0.754c1.158-0.9,1.727-2.645,2.373-5.539l0.256-1.18l6.205-28.018l0.053-0.253h0.258h20.041h0.396
	l-0.088,0.391l-6.604,29.863l-0.355,1.586c-1.664,7.551-5.16,13.359-10.387,17.268C159.994,131.75,153.843,133.587,146.552,133.587"
	/>
<path fill="#141006" d="M181.876,79.347l-6.605,29.864l-0.354,1.584c-1.658,7.514-5.168,13.27-10.268,17.08
	c-4.73,3.531-10.83,5.393-18.1,5.393c-5.76,0-10.318-1.166-13.607-3.453c-1.098-0.758-2.051-1.645-2.863-2.654
	c-3.173-3.965-3.979-9.639-2.376-16.873l0.241-1.076l6.605-29.864h20.045l-6.33,28.59l-0.246,1.113
	c-0.367,1.668-0.812,3.686-0.469,4.848c0.062,0.203,0.148,0.381,0.26,0.529c0.355,0.434,1.064,0.662,2.236,0.662
	c1.24,0,2.146-0.273,2.844-0.824c1.258-0.98,1.852-2.867,2.486-5.723l0.26-1.178l6.201-28.018H181.876 M182.673,78.707h-0.797
	h-20.039h-0.514l-0.111,0.501l-6.201,28.018l-0.26,1.178c-0.613,2.758-1.18,4.52-2.256,5.355c-0.596,0.473-1.371,0.689-2.449,0.689
	c-1.211,0-1.609-0.266-1.738-0.426c-0.051-0.066-0.104-0.178-0.145-0.312c-0.295-0.996,0.135-2.947,0.479-4.516l0.248-1.119
	l6.328-28.591l0.174-0.777h-0.797H134.55h-0.514l-0.111,0.501l-6.605,29.864l-0.242,1.076c-1.643,7.424-0.803,13.283,2.502,17.412
	c0.859,1.064,1.869,2,3.001,2.781c3.4,2.365,8.1,3.564,13.969,3.564c7.359,0,13.578-1.855,18.484-5.518
	c5.289-3.957,8.824-9.828,10.508-17.455l0.354-1.584l6.607-29.865L182.673,78.707z"/>
<polygon fill="#FFFFFF" points="130.582,72.287 130.322,72.287 117.37,72.287 116.979,72.287 117.057,71.901 124.556,36.16 
	124.607,35.905 124.867,35.905 137.824,35.905 138.22,35.905 138.138,36.291 130.634,72.032 "/>
<path fill="#141006" d="M137.824,36.223l-7.503,35.746h-12.949l7.5-35.746H137.824z M138.613,35.583h-0.789h-12.953h-0.52
	l-0.107,0.51l-7.498,35.743l-0.164,0.771h0.789h12.949h0.521l0.105-0.508l7.502-35.745L138.613,35.583z"/>
<path fill="#FFFFFF" d="M96.434,133.908c-4.151-0.082-7.734-1.096-10.646-3.012c-1.597-1.049-3.005-2.363-4.187-3.91
	c-4.096-5.348-5.597-13.754-4.01-22.488c1.786-10.182,6.1-18.164,12.469-23.079c4.328-3.339,9.41-5.128,15.099-5.315
	c0.243-0.006,0.481-0.009,0.717-0.009c4.431,0,8.306,1.103,11.517,3.278c1.524,1.033,2.9,2.317,4.082,3.819
	c4.407,5.601,6.1,14.34,4.418,22.811c-0.971,4.77-4.295,16.582-14.215,23.416c-4.332,2.98-9.289,4.492-14.732,4.492L96.434,133.908z
	 M104.001,92.498c-0.917,0.027-1.86,0.608-2.8,1.724c-1.859,2.201-3.559,6.412-4.43,10.994c-0.805,4.234-1.09,9.553,0.529,11.777
	c0.079,0.107,0.168,0.209,0.256,0.297c0.408,0.43,0.899,0.643,1.547,0.68l0.183,0.006c0.625,0,1.259-0.254,1.886-0.758
	c2.129-1.713,4.086-6.34,5.107-12.072c1.003-5.607,0.775-10.156-0.596-11.872l0.129-0.346l-0.237,0.214
	c-0.397-0.439-0.886-0.645-1.534-0.645v-0.319L104.001,92.498z"/>
<path fill="#141006" d="M105.875,76.413c4.362,0,8.197,1.097,11.338,3.226c1.5,1.016,2.844,2.271,4.01,3.752
	c4.351,5.528,6.02,14.169,4.354,22.552v0.006c-1.727,8.479-6.281,17.834-14.081,23.207c-3.981,2.742-8.817,4.436-14.552,4.436
	c-0.166,0-0.334,0-0.502-0.002c-4.1-0.082-7.602-1.07-10.477-2.961c-1.555-1.021-2.926-2.289-4.109-3.836
	c-4.035-5.27-5.521-13.584-3.949-22.238c1.795-10.225,6.145-18.094,12.35-22.881c4.196-3.237,9.241-5.062,14.915-5.25
	C105.407,76.416,105.643,76.413,105.875,76.413 M99.084,118.289h0.008c0.064,0.006,0.129,0.006,0.194,0.006
	c0.731,0,1.428-0.299,2.085-0.828c2.432-1.955,4.301-7.094,5.221-12.266c1.021-5.689,0.771-10.34-0.66-12.126
	c-0.039-0.055-0.082-0.093-0.119-0.146c-0.463-0.509-1.035-0.75-1.771-0.75h-0.044c-1.065,0.032-2.099,0.717-3.04,1.837
	c-2.027,2.398-3.673,6.797-4.5,11.143c-0.818,4.301-1.093,9.719,0.586,12.023c0.09,0.123,0.188,0.238,0.29,0.338
	C97.795,118,98.363,118.248,99.084,118.289 M105.875,75.773c-0.238,0-0.477,0.004-0.722,0.01c-5.763,0.19-10.905,2.003-15.289,5.382
	c-6.433,4.965-10.785,13.014-12.589,23.28c-1.6,8.816-0.078,17.316,4.07,22.736c1.205,1.574,2.639,2.914,4.267,3.984
	c2.964,1.947,6.604,2.979,10.815,3.062c0.176,0.004,0.346,0.004,0.516,0.004c5.513,0,10.529-1.529,14.914-4.549
	c10.016-6.9,13.369-18.809,14.348-23.607l0.014-0.064v-0.008c1.68-8.539-0.041-17.351-4.492-23.008
	c-1.203-1.528-2.602-2.836-4.156-3.887C114.307,76.896,110.37,75.773,105.875,75.773 M99.286,117.656
	c-0.049,0-0.101-0.002-0.149-0.004h-0.005l-0.011-0.002c-0.562-0.031-0.984-0.215-1.326-0.574c-0.091-0.088-0.167-0.178-0.236-0.273
	c-1.559-2.141-1.229-7.549-0.474-11.525c0.863-4.531,2.534-8.688,4.358-10.85c0.604-0.717,1.541-1.579,2.57-1.608
	c0.574,0,0.971,0.158,1.305,0.517c0.025,0.034,0.051,0.063,0.08,0.095c1.33,1.663,1.539,6.223,0.564,11.657
	c-1.008,5.662-2.922,10.215-4.992,11.879C100.403,117.423,99.837,117.656,99.286,117.656"/>
<polygon fill="#FFFFFF" points="52.928,132.765 52.674,132.765 29.512,132.765 29.111,132.765 29.2,132.375 46.004,59.45 
	46.059,59.204 46.314,59.204 85.977,59.204 86.374,59.204 86.288,59.591 82.084,78.613 82.028,78.862 81.773,78.862 65.139,78.862 
	63.477,86.158 77.99,86.158 78.389,86.158 78.303,86.546 74.434,104.021 74.378,104.271 74.121,104.271 59.359,104.271 
	52.984,132.517 "/>
<path fill="#141006" d="M85.978,59.523l-4.206,19.022H64.883l-1.819,7.984l0.089-0.052H77.99l-3.871,17.472H59.104l-6.432,28.496
	H29.513l16.803-72.923H85.978z M86.774,58.883h-0.797H46.315h-0.51l-0.114,0.497l-16.801,72.922l-0.182,0.785h0.804h23.159h0.511
	l0.112-0.5l6.32-27.996h14.504h0.517l0.108-0.502l3.871-17.473l0.174-0.779H77.99H63.877l1.515-6.65h16.38h0.514l0.11-0.504
	l4.208-19.021L86.774,58.883z"/>
<polygon fill="#FFFFFF" points="102.855,72.232 102.596,72.232 86.363,72.232 85.969,72.232 86.051,71.848 96.338,23.425 
	96.391,23.17 96.65,23.17 125.077,23.17 125.475,23.17 125.389,23.56 122.311,37.306 122.254,37.557 121.996,37.557 110.186,37.557 
	109.186,42.806 119.561,42.806 119.955,42.806 119.874,43.19 117.15,55.921 117.096,56.176 116.836,56.176 106.25,56.176 
	102.908,71.979 "/>
<path fill="#141006" d="M125.074,23.49l-3.078,13.746H109.92l-1.12,5.889h10.762l-2.726,12.732H105.99l-3.395,16.057h-16.23
	L96.651,23.49H125.074z M125.875,22.851h-0.801H96.651h-0.518l-0.108,0.506L85.738,71.781l-0.164,0.772h0.791h16.23h0.52
	l0.107-0.508l3.286-15.549h10.327h0.517l0.108-0.506l2.727-12.731l0.167-0.774h-0.793h-9.987l0.877-4.607h11.545h0.514l0.111-0.501
	l3.078-13.747L125.875,22.851z"/>
<path fill="#C9D5A6" d="M96.938,131.75l-0.465-0.004c-3.728-0.074-6.926-0.967-9.496-2.658c-1.416-0.926-2.61-2.043-3.659-3.416
	c-3.729-4.871-5.075-12.643-3.597-20.789c1.692-9.652,5.723-17.17,11.66-21.75c3.961-3.056,8.621-4.693,13.853-4.867
	c0.204-0.005,0.418-0.009,0.635-0.009c3.995,0,7.463,0.978,10.313,2.908c1.342,0.909,2.549,2.042,3.595,3.367
	c4.026,5.119,5.557,13.185,3.993,21.052c-1.908,9.377-6.889,17.623-13.317,22.055C106.488,130.367,101.941,131.75,96.938,131.75
	 M104.018,90.335l-0.075,0.002c-1.565,0.046-3.043,0.886-4.396,2.491c-2.119,2.507-3.951,6.99-4.9,11.986
	c-0.557,2.908-1.576,10.045,0.908,13.451c0.141,0.199,0.307,0.395,0.487,0.568c0.739,0.777,1.747,1.229,2.94,1.295
	c0.086,0.008,0.195,0.01,0.305,0.01c1.129,0,2.221-0.414,3.238-1.234c3.789-3.051,5.463-11.014,5.882-13.379
	c0.541-3.021,1.524-10.398-1.033-13.6c-0.01-0.014-0.043-0.056-0.083-0.102l-0.02-0.031l-0.09-0.102
	c-0.815-0.897-1.871-1.355-3.139-1.355H104.018z"/>
<g>
	<defs>
		<polygon id="SVGID_7_" points="47.781,61.367 31.828,130.601 51.199,130.601 57.307,103.544 57.631,102.109 59.102,102.109 
			72.639,102.109 75.695,88.322 63.664,88.322 60.779,88.323 61.266,86.119 63.086,78.136 63.411,76.703 64.883,76.703 
			80.293,76.703 83.684,61.367 		"/>
	</defs>
	<clipPath id="SVGID_8_">
		<use xlink:href="#SVGID_7_"  overflow="visible"/>
	</clipPath>
	
		<linearGradient id="SVGID_9_" gradientUnits="userSpaceOnUse" x1="-173.7925" y1="488.3511" x2="-172.7925" y2="488.3511" gradientTransform="matrix(0 -87.7286 -87.7286 0 42900.0078 -15121.6348)">
		<stop  offset="0" style="stop-color:#FADB7F"/>
		<stop  offset="0.0056" style="stop-color:#FADB7F"/>
		<stop  offset="0.0106" style="stop-color:#FADB80"/>
		<stop  offset="0.1441" style="stop-color:#FCE4A0"/>
		<stop  offset="0.2751" style="stop-color:#FEECBA"/>
		<stop  offset="0.4014" style="stop-color:#FFF1CD"/>
		<stop  offset="0.5209" style="stop-color:#FFF5D8"/>
		<stop  offset="0.6264" style="stop-color:#FFF6DC"/>
		<stop  offset="0.6499" style="stop-color:#FAEDC9"/>
		<stop  offset="0.6964" style="stop-color:#F1DCA0"/>
		<stop  offset="0.7363" style="stop-color:#E7CD7B"/>
		<stop  offset="1" style="stop-color:#FFF6DC"/>
	</linearGradient>
	<rect x="31.828" y="61.367" clip-path="url(#SVGID_8_)" fill="url(#SVGID_9_)" width="51.854" height="69.234"/>
</g>
<g>
	<defs>
		<polygon id="SVGID_10_" points="163.867,38.093 160.933,52.035 159.57,58.52 157.39,52.263 152.449,38.093 143.177,38.093 
			136.384,70.071 144.687,70.071 147.777,55.533 149.191,48.87 151.33,55.337 156.197,70.071 165.373,70.071 172.103,38.093 		"/>
	</defs>
	<clipPath id="SVGID_11_">
		<use xlink:href="#SVGID_10_"  overflow="visible"/>
	</clipPath>
	
		<linearGradient id="SVGID_12_" gradientUnits="userSpaceOnUse" x1="-173.335" y1="488.0259" x2="-172.335" y2="488.0259" gradientTransform="matrix(0 -68.649 -68.649 0 33656.7148 -11829.8301)">
		<stop  offset="0" style="stop-color:#FADB7F"/>
		<stop  offset="0.0056" style="stop-color:#FADB7F"/>
		<stop  offset="0.0369" style="stop-color:#FBDD88"/>
		<stop  offset="0.1575" style="stop-color:#FDE6A5"/>
		<stop  offset="0.278" style="stop-color:#FEECBD"/>
		<stop  offset="0.397" style="stop-color:#FFF2CE"/>
		<stop  offset="0.514" style="stop-color:#FFF5D8"/>
		<stop  offset="0.6264" style="stop-color:#FFF6DC"/>
		<stop  offset="0.6499" style="stop-color:#FAEDC9"/>
		<stop  offset="0.6964" style="stop-color:#F1DCA0"/>
		<stop  offset="0.7363" style="stop-color:#E7CD7B"/>
		<stop  offset="1" style="stop-color:#FFF6DC"/>
	</linearGradient>
	<rect x="136.384" y="38.093" clip-path="url(#SVGID_11_)" fill="url(#SVGID_12_)" width="35.719" height="31.979"/>
</g>
<g>
	<defs>
		<path id="SVGID_13_" d="M200.722,70.072l3.746,0.002v-0.002H200.722z M183.759,57.06l3.842-8.939l3.295-0.018l0.27,9.644
			l0.043,1.885h-1.887h-3.871h-2.803L183.759,57.06z M186.193,38.068l-16.844,32.004h9.291l1.992-4.621l0.479-1.111h1.213h6.703
			h1.801l0.043,1.8l0.092,3.933h9.76l-3.615-32.004H186.193z M211.095,38.068l-6.627,32.004h18.496l1.908-10.089h-7.154h-2.295
			l0.496-2.24l4.348-19.675H211.095z"/>
	</defs>
	<clipPath id="SVGID_14_">
		<use xlink:href="#SVGID_13_"  overflow="visible"/>
	</clipPath>
	
		<linearGradient id="SVGID_15_" gradientUnits="userSpaceOnUse" x1="-173.3354" y1="488.0249" x2="-172.3354" y2="488.0249" gradientTransform="matrix(0 -68.6541 -68.6541 0 33702.0234 -11830.8008)">
		<stop  offset="0" style="stop-color:#FADB7F"/>
		<stop  offset="0.0056" style="stop-color:#FADB7F"/>
		<stop  offset="0.0369" style="stop-color:#FBDD88"/>
		<stop  offset="0.1575" style="stop-color:#FDE6A5"/>
		<stop  offset="0.278" style="stop-color:#FEECBD"/>
		<stop  offset="0.397" style="stop-color:#FFF2CE"/>
		<stop  offset="0.514" style="stop-color:#FFF5D8"/>
		<stop  offset="0.6264" style="stop-color:#FFF6DC"/>
		<stop  offset="0.6499" style="stop-color:#FAEDC9"/>
		<stop  offset="0.6964" style="stop-color:#F1DCA0"/>
		<stop  offset="0.7363" style="stop-color:#E7CD7B"/>
		<stop  offset="1" style="stop-color:#FFF6DC"/>
	</linearGradient>
	<rect x="169.349" y="38.068" clip-path="url(#SVGID_14_)" fill="url(#SVGID_15_)" width="55.523" height="32.006"/>
</g>
<g>
	<defs>
		<polygon id="SVGID_16_" points="98.143,25.332 88.639,70.072 101.102,70.072 104.188,55.477 104.496,54.013 105.992,54.013 
			115.348,54.013 117.282,44.969 108.799,44.969 106.572,44.969 106.986,42.78 108.109,36.892 108.396,35.396 109.922,35.396 
			120.518,35.396 122.775,25.332 		"/>
	</defs>
	<clipPath id="SVGID_17_">
		<use xlink:href="#SVGID_16_"  overflow="visible"/>
	</clipPath>
	
		<linearGradient id="SVGID_18_" gradientUnits="userSpaceOnUse" x1="-173.3354" y1="488.0249" x2="-172.3347" y2="488.0249" gradientTransform="matrix(0 -68.6507 -68.6507 0 33608.9922 -11830.2031)">
		<stop  offset="0" style="stop-color:#FADB7F"/>
		<stop  offset="0.0056" style="stop-color:#FADB7F"/>
		<stop  offset="0.0369" style="stop-color:#FBDD88"/>
		<stop  offset="0.1575" style="stop-color:#FDE6A5"/>
		<stop  offset="0.278" style="stop-color:#FEECBD"/>
		<stop  offset="0.397" style="stop-color:#FFF2CE"/>
		<stop  offset="0.514" style="stop-color:#FFF5D8"/>
		<stop  offset="0.6264" style="stop-color:#FFF6DC"/>
		<stop  offset="0.6499" style="stop-color:#FAEDC9"/>
		<stop  offset="0.6964" style="stop-color:#F1DCA0"/>
		<stop  offset="0.7363" style="stop-color:#E7CD7B"/>
		<stop  offset="1" style="stop-color:#FFF6DC"/>
	</linearGradient>
	<rect x="88.639" y="25.333" clip-path="url(#SVGID_17_)" fill="url(#SVGID_18_)" width="34.136" height="44.739"/>
</g>
<g>
	<defs>
		<polygon id="SVGID_19_" points="126.367,38.067 119.643,70.126 128.826,70.126 135.554,38.067 		"/>
	</defs>
	<clipPath id="SVGID_20_">
		<use xlink:href="#SVGID_19_"  overflow="visible"/>
	</clipPath>
	
		<linearGradient id="SVGID_21_" gradientUnits="userSpaceOnUse" x1="-173.335" y1="488.0249" x2="-172.335" y2="488.0249" gradientTransform="matrix(0 -68.6484 -68.6484 0 33629.75 -11829.7969)">
		<stop  offset="0" style="stop-color:#FADB7F"/>
		<stop  offset="0.0056" style="stop-color:#FADB7F"/>
		<stop  offset="0.0369" style="stop-color:#FBDD88"/>
		<stop  offset="0.1575" style="stop-color:#FDE6A5"/>
		<stop  offset="0.278" style="stop-color:#FEECBD"/>
		<stop  offset="0.397" style="stop-color:#FFF2CE"/>
		<stop  offset="0.514" style="stop-color:#FFF5D8"/>
		<stop  offset="0.6264" style="stop-color:#FFF6DC"/>
		<stop  offset="0.6499" style="stop-color:#FAEDC9"/>
		<stop  offset="0.6964" style="stop-color:#F1DCA0"/>
		<stop  offset="0.7363" style="stop-color:#E7CD7B"/>
		<stop  offset="1" style="stop-color:#FFF6DC"/>
	</linearGradient>
	<rect x="119.643" y="38.067" clip-path="url(#SVGID_20_)" fill="url(#SVGID_21_)" width="15.91" height="32.059"/>
</g>
<g>
	<defs>
		<path id="SVGID_22_" d="M199.89,103.98l-1.66-0.475l0.367-1.689l2.113-9.735l0.268-1.236l1.248-0.194
			c0.48-0.073,0.939-0.11,1.369-0.11c2.107,0,3.318,0.887,3.965,1.634c1.436,1.648,1.277,3.869,1.219,4.375
			c-0.656,7.107-5.551,7.658-7.035,7.658C200.746,104.207,200.027,104.017,199.89,103.98 M187.947,81.19l-10.936,49.418h15.861
			l2.936-14.072l3.123,0.02l3.105,14.053h18.768l-6.514-15.559c-0.371-0.861-0.82-1.418-1.211-1.846l-1.84-2.021l2.562-0.947
			c6.238-2.314,9.1-5.625,10.561-12.221c0.365-1.654,0.551-3.213,0.551-4.632c0-2.907-0.777-5.342-2.301-7.24
			c-2.604-3.238-7.408-4.952-13.904-4.952H187.947z"/>
	</defs>
	<clipPath id="SVGID_23_">
		<use xlink:href="#SVGID_22_"  overflow="visible"/>
	</clipPath>
	
		<linearGradient id="SVGID_24_" gradientUnits="userSpaceOnUse" x1="-173.7925" y1="488.3491" x2="-172.7925" y2="488.3491" gradientTransform="matrix(0 -87.7287 -87.7287 0 43043.2812 -15121.7188)">
		<stop  offset="0" style="stop-color:#FADB7F"/>
		<stop  offset="0.0056" style="stop-color:#FADB7F"/>
		<stop  offset="0.0106" style="stop-color:#FADB80"/>
		<stop  offset="0.1441" style="stop-color:#FCE4A0"/>
		<stop  offset="0.2751" style="stop-color:#FEECBA"/>
		<stop  offset="0.4014" style="stop-color:#FFF1CD"/>
		<stop  offset="0.5209" style="stop-color:#FFF5D8"/>
		<stop  offset="0.6264" style="stop-color:#FFF6DC"/>
		<stop  offset="0.6499" style="stop-color:#FAEDC9"/>
		<stop  offset="0.6964" style="stop-color:#F1DCA0"/>
		<stop  offset="0.7363" style="stop-color:#E7CD7B"/>
		<stop  offset="1" style="stop-color:#FFF6DC"/>
	</linearGradient>
	<rect x="177.013" y="81.19" clip-path="url(#SVGID_23_)" fill="url(#SVGID_24_)" width="47.9" height="49.418"/>
</g>
<g>
	<defs>
		<path id="SVGID_25_" d="M163.314,81.194l-5.879,26.569l-0.26,1.178c-0.637,2.865-1.314,5.35-3.143,6.771
			c-1.043,0.822-2.344,1.221-3.986,1.221c-0.635,0-2.57,0-3.701-1.389c-0.242-0.316-0.426-0.688-0.561-1.123
			c-0.48-1.619,0.008-3.822,0.436-5.768l0.246-1.115l5.832-26.344h-16.266l-6.29,28.417l-0.239,1.076
			c-1.475,6.652-0.796,11.807,2.013,15.318c0.705,0.871,1.537,1.645,2.48,2.295c2.977,2.072,7.205,3.123,12.557,3.123
			c6.809,0,12.529-1.691,16.994-5.025c4.795-3.588,8.018-8.971,9.568-16.002l0.352-1.586l6.115-27.616H163.314z"/>
	</defs>
	<clipPath id="SVGID_26_">
		<use xlink:href="#SVGID_25_"  overflow="visible"/>
	</clipPath>
	
		<linearGradient id="SVGID_27_" gradientUnits="userSpaceOnUse" x1="-173.7925" y1="488.354" x2="-172.7925" y2="488.354" gradientTransform="matrix(0 -87.7282 -87.7282 0 42996.2383 -15121.5723)">
		<stop  offset="0" style="stop-color:#FADB7F"/>
		<stop  offset="0.0056" style="stop-color:#FADB7F"/>
		<stop  offset="0.0106" style="stop-color:#FADB80"/>
		<stop  offset="0.1441" style="stop-color:#FCE4A0"/>
		<stop  offset="0.2751" style="stop-color:#FEECBA"/>
		<stop  offset="0.4014" style="stop-color:#FFF1CD"/>
		<stop  offset="0.5209" style="stop-color:#FFF5D8"/>
		<stop  offset="0.6264" style="stop-color:#FFF6DC"/>
		<stop  offset="0.6499" style="stop-color:#FAEDC9"/>
		<stop  offset="0.6964" style="stop-color:#F1DCA0"/>
		<stop  offset="0.7363" style="stop-color:#E7CD7B"/>
		<stop  offset="1" style="stop-color:#FFF6DC"/>
	</linearGradient>
	<rect x="128.03" y="81.194" clip-path="url(#SVGID_26_)" fill="url(#SVGID_27_)" width="51.551" height="50.229"/>
</g>
<polygon fill="#CBB677" points="190.964,70.073 192.683,70.073 192.625,67.645 192.582,65.845 190.863,64.34 190.869,66.141 "/>
<polygon fill="#CBB677" points="171.896,70.073 187.951,39.572 197.279,39.572 197.109,38.067 186.195,38.067 169.349,70.073 "/>
<polygon fill="#CBB677" points="215.423,59.983 217.179,61.487 219.474,61.487 224.587,61.487 224.871,59.983 217.718,59.983 "/>
<polygon fill="#CBB677" points="204.375,70.073 206.421,70.073 212.851,39.572 219.935,39.572 220.267,38.067 211.097,38.067 
	204.494,69.38 204.441,69.702 "/>
<polygon fill="#CBB677" points="191.076,61.136 192.96,61.136 192.919,59.251 192.65,49.606 190.896,48.103 190.939,49.615 
	191.166,57.747 191.208,59.632 189.322,59.632 185.451,59.632 182.648,59.632 184.406,61.136 187.205,61.136 "/>
<path fill="#CBB677" d="M203.498,105.712c1.486,0,6.381-0.551,7.037-7.66c0.059-0.504,0.219-2.725-1.217-4.375
	c-0.176-0.203-1.408-1.501-2.344-2.08c-0.229-0.174,0.574,0.462,0.875,0.971c1.105,1.591,0.982,3.515,0.93,3.98
	c-0.658,7.107-5.551,7.658-7.033,7.658c-0.684,0-1.229-0.086-1.551-0.154l-1.965-0.549l1.758,1.506l1.66,0.473
	C201.781,105.523,202.5,105.712,203.498,105.712"/>
<polygon fill="#CBB677" points="149.191,48.871 150.453,52.689 151.33,55.338 156.197,70.071 157.455,70.071 153.082,56.844 
	150.943,50.375 "/>
<polygon fill="#CBB677" points="159.603,58.436 161.326,60.025 162.689,53.542 165.621,39.598 171.789,39.598 172.103,38.092 
	163.867,38.092 160.933,52.036 160.033,56.318 "/>
<path fill="#CBB677" d="M163.316,81.192l-5.879,26.571l-0.262,1.18c-0.637,2.863-1.316,5.348-3.143,6.77
	c-1.041,0.82-2.344,1.219-3.986,1.219c-0.402,0-1.328-0.002-2.238-0.355c-1.123-0.33-1.861-1.609-1.75-1.463
	c1.352,3.527,5.105,3.328,5.74,3.328c1.643,0,2.949-0.4,3.99-1.225c1.824-1.42,2.504-3.906,3.141-6.77l0.262-1.18l5.877-26.569
	h14.182l0.334-1.506H163.316z"/>
<path fill="#CBB677" d="M189.703,82.695h20.762c4.949,0,8.916,0.998,11.678,2.906c-2.691-2.888-7.311-4.412-13.432-4.412h-20.762
	l-10.938,49.419h2.09L189.703,82.695z"/>
<path fill="#CBB677" d="M133.271,127.511c-2.809-3.512-3.486-8.666-2.014-15.32l0.242-1.076l6.287-28.417h14.18l0.332-1.506h-16.266
	l-6.291,28.419l-0.238,1.074c-1.477,6.656-0.797,11.811,2.015,15.318c0.703,0.875,1.535,1.646,2.477,2.299
	c0.012,0.006,0.023,0.012,0.035,0.02C133.769,128.056,133.503,127.798,133.271,127.511"/>
<polygon fill="#CBB677" points="128.121,39.571 135.24,39.571 135.554,38.067 126.368,38.067 119.643,70.125 121.711,70.125 "/>
<polygon fill="#CBB677" points="200.687,118.06 198.933,116.556 199.263,118.052 202.037,130.609 203.458,130.609 "/>
<polygon fill="#CBB677" points="106.572,44.969 108.324,46.474 110.554,46.474 116.959,46.474 117.281,44.969 108.8,44.969 "/>
<polygon fill="#CBB677" points="99.896,26.838 122.438,26.838 122.775,25.332 98.144,25.332 88.638,70.074 90.713,70.074 "/>
<polygon fill="#CBB677" points="49.537,62.872 83.35,62.872 83.683,61.366 47.781,61.366 31.826,130.603 33.929,130.603 "/>
<polygon fill="#CBB677" points="138.458,70.071 144.933,39.597 152.972,39.597 152.451,38.093 143.177,38.093 136.382,70.071 "/>
<polygon fill="#CBB677" points="60.779,88.322 62.532,89.829 65.418,89.828 75.36,89.828 75.693,88.322 63.664,88.322 "/>
<path fill="#141006" d="M251.328,143.783h-0.025c-0.086,0-0.328,0.006-0.586,0.051c-2.629,0.338-4.453,2.328-4.949,4.584
	c-0.041-0.238-0.082-0.561-0.082-0.875c0.002-0.012,0.002-0.02,0.004-0.029v-0.123c0.166-1.119,0.525-2.584,0.928-4.162
	c0.215-0.855,0.393-1.66,0.541-2.422c0.807-1.107,1.641-2.943,1.646-5.494v-0.084c0.02-3.57,0.791-7.373,0.791-7.373
	c0.105-1.514-1.033-2.271-1.646-2.609c-0.66-0.307-1.469-0.15-1.805-0.146h-0.059c-0.02,0.002-0.041,0.004-0.064,0.006
	c-0.98,0.066-2.314,0.361-3.461,1.297c-0.635-0.168-1.287-0.238-1.934-0.221c-0.025,0-0.074,0-0.156,0.006
	c-0.393,0.012-0.795,0.049-1.209,0.127c-1.254,0.203-2.387,0.697-3.322,1.385c-69.523,0.689-141.822-0.131-211.947,0.568
	c-1.082-1.545-2.951-2.746-5.357-2.707c-0.006,0.004-0.014,0.008-0.02,0.012c0-0.004,0-0.008,0-0.012c-0.027,0-0.076-0.002-0.141,0
	c-0.014,0-0.055,0-0.114,0.004c-0.069,0-0.143,0.002-0.218,0.004c-2.329,0.053-5.059,1.164-6.754,3.686
	c-0.12-0.008-0.243-0.01-0.362-0.008c-2.514,0.068-3.839,1.818-3.942,1.977c-0.006,0.004-0.015,0.012-0.021,0.021
	c-0.554,0.709-1.104,1.416-1.657,2.121c0.891,0.799,1.782,1.596,2.672,2.393c0.039,0.148,0.082,0.377,0.105,0.713
	c0.119,3.98,1.341,6.307,2.591,7.516c0.025,0.107,0.054,0.223,0.084,0.338c0.392,1.535,0.7,2.885,0.892,4.068
	c-0.785-1.771-2.489-3.178-4.826-3.281c-0.088-0.006-0.104-0.006-0.117-0.006c-0.01,0-0.016,0-0.037,0c-0.059,0-0.119,0-0.176,0
	C3.317,145.238,0.1,148.091,0,152.378c0,0.467,0.033,0.934,0.121,1.428c0.431,2.227,1.85,3.887,3.613,4.889
	c-0.181,0.58-0.271,1.184-0.273,1.77c0,0,0,0.023,0.002,0.09c0.009,0.998,0.275,2.111,0.98,3.098
	c0.137,0.191,0.284,0.373,0.445,0.541c-0.383,0.977-0.626,2.039-0.66,3.189v0.051c-0.004,1.139,0.229,2.291,0.666,3.445
	c1.422,4.016,4.92,6.176,8.314,6.092h0.004h0.027h0.049c0.09-0.002,0.18-0.006,0.271-0.01c0.761,2.211,2.714,3.965,5.343,4.02h0.027
	c0.056-0.004,0.107-0.004,0.162-0.006c1.504-0.047,2.97-0.576,4.132-1.555c1.128-0.939,1.942-2.385,1.989-4.035
	c27.966-0.385,60.617-0.828,90.775-0.158c-0.187,0.648-0.281,1.326-0.283,2.01v0.094c0,0.904,0.15,1.852,0.492,2.82
	c0.979,2.641,3.536,4.371,6.266,4.641h0.006c1.166,0.119,2.372-0.012,3.584-0.414c0.916-0.322,2.372-0.818,3.002-1.424
	c0.632,0.605,2.087,1.102,3.001,1.424c1.213,0.402,2.422,0.533,3.584,0.414h0.008c2.729-0.27,5.287-2,6.266-4.641
	c0.338-0.969,0.49-1.916,0.49-2.82v-0.094c-0.002-0.684-0.096-1.361-0.285-2.01c29.041-1.033,61.9,0.809,90.445,0.373
	c0.027,1.662,0.822,3.072,1.943,3.957c1.104,0.889,2.5,1.348,3.949,1.367c0.025,0.002,0.055,0.008,0.078,0.012
	c0.094-0.004,0.188-0.006,0.279-0.01c0.006,0,0.012,0,0.021,0c1.713-0.092,3.207-0.945,4.195-2.137
	c0.672-0.805,1.141-1.764,1.375-2.785c0.029,0,0.059,0,0.088-0.002c0.031,0,0.059,0,0.086-0.002
	c3.443-0.059,6.955-2.355,8.408-6.469c0.416-1.146,0.643-2.293,0.643-3.426v-0.035v-0.018c-0.037-1.154-0.283-2.215-0.664-3.178
	c0.174-0.186,0.334-0.389,0.482-0.605c0.691-1.01,0.949-2.131,0.947-3.137v-0.059c0-0.605-0.098-1.217-0.291-1.807
	c1.781-1.074,3.197-2.777,3.639-5.008c0-0.016,0.004-0.033,0.008-0.047c0.07-0.424,0.107-0.846,0.107-1.258v-0.076v-0.053
	C257.781,146.562,254.531,143.8,251.328,143.783"/>
<path fill="#C88D42" d="M251.152,146.783c-1.789,0.162-2.859,1.971-2.438,3.629c0.307,1.227,0.74,1.447,1.766,1.539
	c1.693,0.158,1.857-2.125,1.857-2.125s0.629,0.533-0.143,1.824c-0.68,1.137-2.035,1.922-3.939,1.768
	c-1.596-0.139-3.176-0.18-4.934-3.025c-0.512-0.828-0.633-2.053-0.602-3.213c0.197-1.408,0.59-2.986,1.002-4.625
	c0.279-1.094,0.486-2.096,0.652-3.033c0.416-0.406,1.453-1.662,1.453-4.246c0-3.867,0.656-6.061,0.873-6.803
	c0.219-0.736-2.184-0.381-2.832,0.857c-0.188,0.352-0.311,0.691-0.404,1.012c-0.922-1.039-2.244-1.342-3.752-1.088
	c-1.209,0.207-2.088,0.736-2.703,1.42c-70.84,0.734-144.098-0.117-214.925,0.6c-0.416-1.48-1.527-2.73-3.496-2.729
	c-2.271,0.014-4.682,0.963-5.585,4.361c-0.146-0.104-0.409-0.232-0.918-0.445c-1.698-0.721-2.629,0.543-2.629,0.543
	s1.577,0.373,1.707,3.283c0.243,5.326,2.237,5.881,2.237,5.881v-0.15c0.107,0.498,0.217,0.99,0.351,1.521
	c0.649,2.537,1.116,4.688,1.198,6.67c0,0.012,0,0.02,0.004,0.033c-0.1,0.377-0.219,0.744-0.403,1.047
	c-1.756,2.938-3.336,3.059-4.931,3.275c-1.904,0.268-3.268-0.447-3.941-1.539c-0.766-1.246-0.141-1.812-0.141-1.812
	s0.166,2.264,1.855,2.008c1.03-0.148,1.452-0.391,1.769-1.635c0.422-1.676-0.649-3.428-2.431-3.488
	c-1.631-0.053-4.203,1.955-3.666,5.166c0.58,3.469,6.5,5.303,10.187,1.59c0.979-0.988,1.496-1.744,1.81-2.502
	c0.01,0.348,0.006,0.678-0.041,1.014c-0.023,0.156-0.059,0.264-0.086,0.416c-0.887,1.426-2.746,3.512-6.222,3.904
	c-2.047,0.234-2.81,2.854-1.838,4.205c0.618,0.863,1.463,0.949,2.007,0.682c0.768-0.361,1.135-1.354,1.135-1.354
	s-0.523-0.074-0.34-0.617c0.172-0.51,0.195,0.025,2.25-1.838c1.148-1.037,1.926-2.09,2.473-3.037
	c-0.236,0.586-0.443,0.912-0.443,0.912s0.056-0.041,0.143-0.111c-0.076,0.113-0.136,0.232-0.222,0.336
	c-4.528,6.014-7.942,8.193-6.185,12.945c1.692,4.564,6.104,5.037,8.9,3.117c-0.166,0.416-0.298,0.834-0.357,1.238
	c-0.287,2.064,1.078,3.83,2.783,3.83c2.071-0.023,3.57-1.469,3.161-3.248c-0.421-1.805-1.772-1.926-2.45-1.256
	c-0.191,0.193-0.316,0.607-0.316,0.607s0.457-0.154,0.771,0.254c0.223,0.289,0.315,1-0.295,1.441
	c-0.842,0.619-1.775-0.666-1.393-1.873c0.451-1.412,2.395-1.439,6.197-1.508c30.076-0.404,66.019-1.191,97.979-0.246
	c3.894,0.125,2.781,5.025,2.308,5.637c-1.197,1.539-3.436,1.066-3.262-1.119c0.118-1.572,1.422-1.572,2.18-1.188
	c0.74,0.375,0.594,1.436,0.594,1.436s0.328-0.26,0.369-0.895c0.074-1.152-0.453-2.664-2.797-2.566
	c-2.713,0.102-3.819,2.994-2.924,5.514c0.614,1.76,3.032,3.127,5.84,2.221c2.183-0.715,5.146-3.225,5.017-5.812
	c0.116-0.016,0.241-0.062,0.381-0.17c-0.245,2.764,0.625,5.533,2.903,6.307c2.812,0.939,5.229-0.408,5.848-2.152
	c0.887-2.521-0.217-5.412-2.928-5.547c-2.346-0.123-2.881,1.387-2.803,2.533c0.041,0.641,0.363,0.908,0.363,0.908
	s-0.143-1.072,0.609-1.441c0.758-0.373,2.055-0.354,2.174,1.219c0.166,2.182-2.072,2.637-3.268,1.076
	c-0.473-0.609-1.506-5.4,2.312-5.607c31.307-1.627,63.512,0.576,94.104,0.084c3.793-0.07,9.164-0.158,9.609,1.246
	c0.381,1.191-0.557,2.51-1.395,1.934c-0.604-0.424-0.518-1.133-0.293-1.424c0.316-0.424,0.766-0.297,0.766-0.297
	s-0.121-0.402-0.311-0.584c-0.682-0.65-2.029-0.467-2.445,1.355c-0.418,1.791,1.084,3.189,3.15,3.107
	c1.715-0.066,3.078-1.893,2.785-3.951c-0.1-0.729-0.379-1.51-0.818-2.242c2.729,2.227,7.639,1.77,9.445-3.203
	c1.752-4.838-1.662-6.82-6.186-12.604c-0.676-0.861-1.135-1.828-1.465-2.793c0.082,0.119,0.16,0.209,0.234,0.301
	c0.486,1.195,1.406,2.787,3.178,4.295c2.057,1.756,2.084,1.203,2.25,1.713c0.188,0.529-0.34,0.635-0.34,0.635
	s0.371,0.971,1.139,1.297c0.541,0.223,1.389,0.096,2.006-0.799c0.971-1.396,0.211-3.984-1.84-4.1
	c-3.518-0.201-5.377-2.229-6.252-3.623c-0.115-0.408-0.23-0.906-0.322-1.562c-0.029-0.217-0.045-0.432-0.053-0.66
	c0.277,1.07,0.744,1.975,2.088,3.254c3.686,3.516,9.605,1.322,10.184-2.17C255.351,148.486,252.783,146.636,251.152,146.783"/>
<path fill="none" stroke="#141006" stroke-width="2.843" d="M251.152,146.783c-1.789,0.162-2.859,1.971-2.438,3.629
	c0.307,1.227,0.74,1.447,1.766,1.539c1.693,0.158,1.857-2.125,1.857-2.125s0.629,0.533-0.143,1.824
	c-0.68,1.137-2.035,1.922-3.939,1.768c-1.596-0.139-3.176-0.18-4.934-3.025c-0.512-0.828-0.633-2.053-0.602-3.213
	c0.197-1.408,0.59-2.986,1.002-4.625c0.279-1.094,0.486-2.096,0.652-3.033c0.416-0.406,1.453-1.662,1.453-4.246
	c0-3.867,0.656-6.061,0.873-6.803c0.219-0.736-2.184-0.381-2.832,0.857c-0.188,0.352-0.311,0.691-0.404,1.012
	c-0.922-1.039-2.244-1.342-3.752-1.088c-1.209,0.207-2.088,0.736-2.703,1.42c-70.84,0.734-144.098-0.117-214.925,0.6
	c-0.416-1.48-1.527-2.73-3.496-2.729c-2.271,0.014-4.682,0.963-5.585,4.361c-0.146-0.104-0.409-0.232-0.918-0.445
	c-1.698-0.721-2.629,0.543-2.629,0.543s1.577,0.373,1.707,3.283c0.243,5.326,2.237,5.881,2.237,5.881v-0.15
	c0.107,0.498,0.217,0.99,0.351,1.521c0.649,2.537,1.116,4.688,1.198,6.67c0,0.012,0,0.02,0.004,0.033
	c-0.1,0.377-0.219,0.744-0.403,1.047c-1.756,2.938-3.336,3.059-4.931,3.275c-1.904,0.268-3.268-0.447-3.941-1.539
	c-0.766-1.246-0.141-1.812-0.141-1.812s0.166,2.264,1.855,2.008c1.03-0.148,1.452-0.391,1.769-1.635
	c0.422-1.676-0.649-3.428-2.431-3.488c-1.631-0.053-4.203,1.955-3.666,5.166c0.58,3.469,6.5,5.303,10.187,1.59
	c0.979-0.988,1.496-1.744,1.81-2.502c0.01,0.348,0.006,0.678-0.041,1.014c-0.023,0.156-0.059,0.264-0.086,0.416
	c-0.887,1.426-2.746,3.512-6.222,3.904c-2.047,0.234-2.81,2.854-1.838,4.205c0.618,0.863,1.463,0.949,2.007,0.682
	c0.768-0.361,1.135-1.354,1.135-1.354s-0.523-0.074-0.34-0.617c0.172-0.51,0.195,0.025,2.25-1.838
	c1.148-1.037,1.926-2.09,2.473-3.037c-0.236,0.586-0.443,0.912-0.443,0.912s0.056-0.041,0.143-0.111
	c-0.076,0.113-0.136,0.232-0.222,0.336c-4.528,6.014-7.942,8.193-6.185,12.945c1.692,4.564,6.104,5.037,8.9,3.117
	c-0.166,0.416-0.298,0.834-0.357,1.238c-0.287,2.064,1.078,3.83,2.783,3.83c2.071-0.023,3.57-1.469,3.161-3.248
	c-0.421-1.805-1.772-1.926-2.45-1.256c-0.191,0.193-0.316,0.607-0.316,0.607s0.457-0.154,0.771,0.254
	c0.223,0.289,0.315,1-0.295,1.441c-0.842,0.619-1.775-0.666-1.393-1.873c0.451-1.412,2.395-1.439,6.197-1.508
	c30.076-0.404,66.019-1.191,97.979-0.246c3.894,0.125,2.781,5.025,2.308,5.637c-1.197,1.539-3.436,1.066-3.262-1.119
	c0.118-1.572,1.422-1.572,2.18-1.188c0.74,0.375,0.594,1.436,0.594,1.436s0.328-0.26,0.369-0.895
	c0.074-1.152-0.453-2.664-2.797-2.566c-2.713,0.102-3.819,2.994-2.924,5.514c0.614,1.76,3.032,3.127,5.84,2.221
	c2.183-0.715,5.146-3.225,5.017-5.812c0.116-0.016,0.241-0.062,0.381-0.17c-0.245,2.764,0.625,5.533,2.903,6.307
	c2.812,0.939,5.229-0.408,5.848-2.152c0.887-2.521-0.217-5.412-2.928-5.547c-2.346-0.123-2.881,1.387-2.803,2.533
	c0.041,0.641,0.363,0.908,0.363,0.908s-0.143-1.072,0.609-1.441c0.758-0.373,2.055-0.354,2.174,1.219
	c0.166,2.182-2.072,2.637-3.268,1.076c-0.473-0.609-1.506-5.4,2.312-5.607c31.307-1.627,63.512,0.576,94.104,0.084
	c3.793-0.07,9.164-0.158,9.609,1.246c0.381,1.191-0.557,2.51-1.395,1.934c-0.604-0.424-0.518-1.133-0.293-1.424
	c0.316-0.424,0.766-0.297,0.766-0.297s-0.121-0.402-0.311-0.584c-0.682-0.65-2.029-0.467-2.445,1.355
	c-0.418,1.791,1.084,3.189,3.15,3.107c1.715-0.066,3.078-1.893,2.785-3.951c-0.1-0.729-0.379-1.51-0.818-2.242
	c2.729,2.227,7.639,1.77,9.445-3.203c1.752-4.838-1.662-6.82-6.186-12.604c-0.676-0.861-1.135-1.828-1.465-2.793
	c0.082,0.119,0.16,0.209,0.234,0.301c0.486,1.195,1.406,2.787,3.178,4.295c2.057,1.756,2.084,1.203,2.25,1.713
	c0.188,0.529-0.34,0.635-0.34,0.635s0.371,0.971,1.139,1.297c0.541,0.223,1.389,0.096,2.006-0.799c0.971-1.396,0.211-3.984-1.84-4.1
	c-3.518-0.201-5.377-2.229-6.252-3.623c-0.115-0.408-0.23-0.906-0.322-1.562c-0.029-0.217-0.045-0.432-0.053-0.66
	c0.277,1.07,0.744,1.975,2.088,3.254c3.686,3.516,9.605,1.322,10.184-2.17C255.351,148.486,252.783,146.636,251.152,146.783z"/>
<path fill="#141006" d="M165.451,127.267c3.26-2.508,1.066-7.25-1.846-6.984c-3.016,0.262-3.262,2.775-3.262,2.775
	s4.188-0.576,2.867,1.895c-0.645,1.211-2.07,1.889-3.734,2.262c-1.943,0.025-3.725,0.053-5.299,0.076
	c-1.43-0.207-2.924-0.523-4.156-1.02c-3.629-1.447-4.568-3.062-4.568-3.062s-1.469,2.838-0.326,3.645
	c0.146,0.1,0.289,0.191,0.428,0.279c-7.598-0.74-8.582-3.543-9.084-6.553c-0.562-3.348,2.908-5.18,3.801-3.791
	c1.092,1.686-1.084,2.051-1.084,2.051s0.359,0.68,0.953,0.768c1.609,0.246,3.135,0.008,3.416-2.51
	c0.713-6.328-11.809-8.203-13.144,1.109c-0.768,5.385,0.783,11.484,10.201,12.902c3.449,0.52,40.725-0.055,40.725-0.055
	S174.771,127.955,165.451,127.267"/>
<path fill="none" stroke="#141006" stroke-width="3.157" d="M165.451,127.267c3.26-2.508,1.066-7.25-1.846-6.984
	c-3.016,0.262-3.262,2.775-3.262,2.775s4.188-0.576,2.867,1.895c-0.645,1.211-2.07,1.889-3.734,2.262
	c-1.943,0.025-3.725,0.053-5.299,0.076c-1.43-0.207-2.924-0.523-4.156-1.02c-3.629-1.447-4.568-3.062-4.568-3.062
	s-1.469,2.838-0.326,3.645c0.146,0.1,0.289,0.191,0.428,0.279c-7.598-0.74-8.582-3.543-9.084-6.553
	c-0.562-3.348,2.908-5.18,3.801-3.791c1.092,1.686-1.084,2.051-1.084,2.051s0.359,0.68,0.953,0.768
	c1.609,0.246,3.135,0.008,3.416-2.51c0.713-6.328-11.809-8.203-13.144,1.109c-0.768,5.385,0.783,11.484,10.201,12.902
	c3.449,0.52,40.725-0.055,40.725-0.055S174.771,127.955,165.451,127.267z"/>
<path fill="#141006" d="M130.75,119.523c0,0-0.939,8.533,11.859,12.203l-25.085,0.514
	C117.523,132.24,125.031,127.886,130.75,119.523"/>
<path fill="#141006" d="M127.886,85.287c-6.174-7.703-15.265-11.717-24.423-11.712c-6.864-0.005-13.786,2.249-19.555,6.874
	c-7.699,6.172-11.713,15.261-11.711,24.414c0,5.68,1.543,11.396,4.699,16.477c-0.004,0.031-0.004,0.062-0.004,0.096
	c0.004,0.672,0.325,1.137,0.516,1.346c0.207,0.225,0.35,0.311,0.455,0.381c0.174,0.098,0.297,0.158,0.397,0.199
	c0.257,0.354,0.522,0.709,0.808,1.064c6.179,7.703,15.272,11.721,24.436,11.717h0.007c6.854,0,13.772-2.254,19.537-6.875
	c0.494-0.395,0.965-0.801,1.417-1.215c0,0,3.564-2.678,4.282-4.732c3.977-5.439,6.014-11.939,6.014-18.482
	C134.765,97.976,132.509,91.051,127.886,85.287"/>
<path fill="none" stroke="#141006" stroke-width="3.157" d="M127.886,85.287c-6.174-7.703-15.265-11.717-24.423-11.712
	c-6.864-0.005-13.786,2.249-19.555,6.874c-7.699,6.172-11.713,15.261-11.711,24.414c0,5.68,1.543,11.396,4.699,16.477
	c-0.004,0.031-0.004,0.062-0.004,0.096c0.004,0.672,0.325,1.137,0.516,1.346c0.207,0.225,0.35,0.311,0.455,0.381
	c0.174,0.098,0.297,0.158,0.397,0.199c0.257,0.354,0.522,0.709,0.808,1.064c6.179,7.703,15.272,11.721,24.436,11.717h0.007
	c6.854,0,13.772-2.254,19.537-6.875c0.494-0.395,0.965-0.801,1.417-1.215c0,0,3.564-2.678,4.282-4.732
	c3.977-5.439,6.014-11.939,6.014-18.482C134.765,97.976,132.509,91.051,127.886,85.287z"/>
<path fill="#141006" d="M58.783,128.865c-1.893-1.484-0.543-4.145,1.18-3.947c1.781,0.203,1.896,1.637,1.896,1.637
	s-2.475-0.396-1.721,1.031c0.368,0.705,1.201,1.117,2.182,1.359c1.151,0.045,2.203,0.096,3.133,0.143
	c0.848-0.098,1.734-0.248,2.476-0.512c2.163-0.76,2.742-1.664,2.742-1.664s0.835,1.641,0.144,2.086
	c-0.088,0.057-0.168,0.107-0.255,0.148c4.507-0.291,5.118-1.869,5.456-3.58c0.373-1.891-1.658-3-2.201-2.227
	c-0.666,0.941,0.611,1.189,0.611,1.189s-0.218,0.385-0.572,0.422c-0.951,0.113-1.857-0.049-1.99-1.492
	c-0.347-3.627,7.088-4.465,7.765,0.867c0.53,4.211-1.517,9.111-14.343,6.6c-2.625-0.518-4.85-0.859-6.85-0.791
	c-1.455,0.051-2.267-0.035-3.179,0.184c-2.022,0.488-3.118,1.443-3.118,1.443S53.261,129.095,58.783,128.865"/>
<path fill="none" stroke="#141006" stroke-width="3.157" d="M58.783,128.865c-1.893-1.484-0.543-4.145,1.18-3.947
	c1.781,0.203,1.896,1.637,1.896,1.637s-2.475-0.396-1.721,1.031c0.368,0.705,1.201,1.117,2.182,1.359
	c1.151,0.045,2.203,0.096,3.133,0.143c0.848-0.098,1.734-0.248,2.476-0.512c2.163-0.76,2.742-1.664,2.742-1.664
	s0.835,1.641,0.144,2.086c-0.088,0.057-0.168,0.107-0.255,0.148c4.507-0.291,5.118-1.869,5.456-3.58
	c0.373-1.891-1.658-3-2.201-2.227c-0.666,0.941,0.611,1.189,0.611,1.189s-0.218,0.385-0.572,0.422
	c-0.951,0.113-1.857-0.049-1.99-1.492c-0.347-3.627,7.088-4.465,7.765,0.867c0.53,4.211-1.517,9.111-14.343,6.6
	c-2.625-0.518-4.85-0.859-6.85-0.791c-1.455,0.051-2.267-0.035-3.179,0.184c-2.022,0.488-3.118,1.443-3.118,1.443
	S53.261,129.095,58.783,128.865z"/>
<path fill="#E7D8AC" d="M127.886,85.287c-6.174-7.703-15.265-11.717-24.423-11.712c-6.864-0.005-13.786,2.249-19.555,6.874
	c-7.699,6.172-11.713,15.261-11.711,24.414c0,5.68,1.543,11.396,4.699,16.477c-0.004,0.031-0.004,0.062-0.004,0.096
	c0.004,0.672,0.325,1.137,0.516,1.346c0.207,0.225,0.35,0.311,0.455,0.381c0.174,0.098,0.297,0.158,0.397,0.199
	c0.257,0.354,0.522,0.709,0.808,1.064c6.179,7.703,15.272,11.721,24.436,11.717h0.007c6.854,0,13.772-2.254,19.537-6.875
	c0.494-0.395,0.965-0.801,1.417-1.215c0,0,3.046-2.811,4.282-4.732c3.977-5.439,6.014-11.939,6.014-18.482
	C134.765,97.976,132.509,91.051,127.886,85.287"/>
<path fill="#D06F1A" d="M81.375,122.337c9.789,12.211,27.613,14.176,39.828,4.385c12.208-9.791,14.175-27.621,4.381-39.83
	c-9.783-12.209-27.615-14.173-39.828-4.384C73.547,92.299,71.584,110.128,81.375,122.337"/>
<path fill="#141006" d="M80.32,119.607c0,0,4.715,4.842,10.941-0.27c0,0,0.653,7.793,12.689,6.934
	c12.037-0.859,13.562-6.467,13.562-6.467s1.511,1.17,4.119-1.062c2.61-2.23,8.255-7.529,8.569-13.027l1.468,1.467
	c0,0,0.529,12.002-13.634,21.814c-14.165,9.812-27.125,1.082-30.209-0.682C83.764,125.986,80.32,119.607,80.32,119.607"/>
<path fill="#F58426" d="M86.156,86.437c8.763-4.481,15.371-0.567,18.951,1.226c7.746,3.87,4.076,4.48,4.076,4.48
	s-6.725-0.61-14.063,0.815c-7.336,1.426-16.708,8.356-16.099,5.708C79.348,97.242,80.188,89.488,86.156,86.437"/>
<path fill="#F58426" d="M91.016,81.879c1.629-1.429,3.445-2.478,8.816-3.333c3.873-0.616,8.139,0.125,12.008,4.608
	c3.873,4.48,5.811,8.927,2.549,8.927c-3.26,0-2.338-0.853-5.523-4.038C100.594,79.769,89.385,83.304,91.016,81.879"/>
<path fill="#F58426" d="M108.164,78.897c0,0,6.438,6.593,8.99,12.544c1.615,3.767,5.336,2.125,5.95,2.125c0.61,0-0.41-4.31,0-5.738
	c0.406-1.426-2.303-4.039-4.546-5.263c-2.24-1.223-4.484-2.445-7.54-3.465C107.959,78.082,108.164,78.897,108.164,78.897"/>
<path fill="#141006" d="M126.16,86.427c10.046,12.53,8.031,30.831-4.493,40.874c-12.526,10.041-30.827,8.025-40.872-4.502
	c-10.04-12.525-8.029-30.827,4.497-40.869C97.82,71.889,116.122,73.902,126.16,86.427 M125.007,87.352
	c-9.552-11.871-26.876-13.78-38.788-4.265c-11.875,9.553-13.779,26.881-4.268,38.786c9.554,11.875,26.877,13.781,38.789,4.27
	C132.615,116.587,134.519,99.261,125.007,87.352"/>
<path fill="#141006" d="M75.828,110.673l0.146-0.709c-0.328-2.09,2.556-4.789,5.407-7.064c4.33-3.463,11.979-6.562,20.99-8.139
	c12.81-2.287,24.365-0.371,27.574,3.75c0.527,0.66,1.681,1.504,1.792,2.246l-0.828-0.148l1.277-0.217
	c-0.148-0.994-0.574-1.891-1.221-2.697c-4-4.826-15.716-6.44-28.794-4.193c-9.174,1.613-16.965,4.728-21.588,8.41
	c-3.008,2.396-5.278,4.873-4.867,7.67L75.828,110.673z"/>
<path fill="none" stroke="#141006" stroke-width="1.114" d="M101.037,76.449c14.453,3.827,22.072,22.386,17.023,41.453
	c-0.996,3.768-2.416,7.273-4.16,10.445"/>
<path fill="none" stroke="#141006" stroke-width="1.114" d="M79.249,89.99c0,0,5.868-7.803,16.864-5.892
	c4.672,0.814,12.801,2.845,14.834,9.146c1.185,3.669,0.654,6.835-2.848,11.783c-5.42,7.66-19.25,16.633-19.25,16.633"/>
<path fill="none" stroke="#141006" stroke-width="1.119" d="M124.61,85.134c0,0-1.236,2.27-1.646,4.32
	c-0.617,3.082,0.434,7.26,2.879,10.485c2.64,3.484,5.826,7.727,5.826,7.727"/>
<path fill="#F58426" d="M84.412,101.755c0,0,7.176-4.209,16.09-5.943c8.912-1.732,11.049-1.307,9.654-0.248
	c-3.394,2.572-6.142,4.938-8.369,5.676c-2.228,0.746-8.959,2.246-8.959,1.254c0-0.99-0.248-2.969-2.477-1.979
	c-2.227,0.988-9.159,3.961-9.159,3.961L84.412,101.755z"/>
<path fill="#FFFFFF" d="M84.083,30.896h-5.556l-0.657,2.315h0.864l-2.744,4.352l-0.383-6.667h-5.64l-0.642,2.304l0.857,0.012
	l-3.678,5.585l-3.029-0.012c-0.318,0-1.541-0.295-1.541-1.812c0-1.521,1.44-3.722,2.909-3.722l0.617,0.012
	c-0.106,0.376-0.321,1.155-0.321,1.155h2.698l0.974-3.522l-4.16-0.019c-2.588,0-4.674,1.86-5.338,3.768l1.076-3.739l-3.695-0.01
	l-0.654,2.315l0.958-0.007l-0.963,3.397l-2.42-5.696H50.15l-0.648,2.306h0.949l-2.145,7.819h2.77c0,0,1.062-3.872,1.336-4.874
	c0.395,0.946,2.02,4.874,2.02,4.874h3.084l1.411-4.967c-0.127,0.741-0.132,1.513-0.002,2.278c0.269,1.63,1.854,2.688,3.583,2.688
	h5.598l0.961-1.454h3.943l0.084,1.442h3.499l0.894-1.442h4.035l0.156,1.454h2.48l0.545-1.108L84.083,30.896z"/>
<path fill="#0079C1" d="M84.693,42.851c0-0.783,0.586-1.373,1.342-1.373c0.746,0,1.336,0.59,1.336,1.373
	c0,0.793-0.59,1.375-1.336,1.375C85.279,44.226,84.693,43.644,84.693,42.851 M86.035,44.502c0.898,0,1.67-0.698,1.67-1.651
	c0-0.948-0.771-1.646-1.67-1.646c-0.908,0-1.676,0.698-1.676,1.646C84.359,43.804,85.127,44.502,86.035,44.502 M85.687,42.981h0.332
	l0.499,0.822h0.326l-0.541-0.836c0.279-0.035,0.495-0.184,0.495-0.526c0-0.374-0.226-0.539-0.677-0.539h-0.725v1.901h0.29V42.981z
	 M85.687,42.738v-0.593h0.392c0.201,0,0.416,0.046,0.416,0.279c0,0.292-0.221,0.313-0.463,0.313H85.687z"/>
<path fill="#0079C1" d="M70.656,37.157l2.145-3.258l0.117,3.258H70.656z M79.249,37.113l2.142-3.246l0.105,3.246H79.249z"/>
<path fill="#0079C1" d="M81.678,41.03l-0.156-1.455h-4.036l-0.892,1.442h-3.5l-0.084-1.442h-3.942l-0.963,1.455h-5.597
	c-1.727,0-3.313-1.06-3.584-2.688c-0.129-0.767-0.123-1.539,0.002-2.28l-1.41,4.968h-3.083c0,0-1.626-3.928-2.019-4.873
	c-0.273,1.002-1.337,4.873-1.337,4.873h-2.771l2.144-7.82h-0.946l0.648-2.304h3.463l2.422,5.694l0.961-3.397l-0.957,0.007
	l0.654-2.314l3.697,0.011l-1.079,3.739c0.665-1.908,2.753-3.769,5.34-3.769l4.159,0.019l-0.975,3.521h-2.699
	c0,0,0.218-0.778,0.322-1.154l-0.615-0.012c-1.469,0-2.91,2.2-2.91,3.721c0,1.517,1.224,1.812,1.54,1.812l3.03,0.011l3.679-5.584
	l-0.858-0.012l0.641-2.303h5.642l0.382,6.667l2.745-4.353h-0.864l0.656-2.314h5.557l0.618,9.028c1.241-2.709,1.929-5.72,1.929-8.888
	c0-11.832-9.592-21.42-21.42-21.42c-11.832,0-21.422,9.588-21.422,21.42c0,11.831,9.59,21.421,21.422,21.421
	c8.215,0,15.355-4.63,18.947-11.427H81.678z"/>
<path fill="#141006" d="M245.945,160.865c-0.914-1.057-2.434-4.391-3.531-6.953v-8.09c0.605-2.361,1.229-5.047,1.438-6.781
	c0.438-3.68-1.324-6.328-3.203-7.135c-1.32-0.572-2.744,0.912-3.477,1.842c-70.311,0.77-143.007-0.078-213.262,0.557
	c-0.853,0.016-1.615,0.111-2.308,0.271c0.02-0.287,0.041-0.564,0.062-0.861c0,0-2.093-3.254-3.967-2.352
	c-1.875,0.904-3.642,3.635-3.202,7.289c0.446,3.656,1.438,12.109,1.438,12.109s-1.983,7.945-3.528,9.822
	c-1.541,1.879-3.694,6.438-1.823,8.955c1.752,2.361,5.006,2.014,6.411,0.23c0.949,1.377,2.585,1.92,5.092,1.867
	c34.909-0.465,68.257-1.551,102.937-1.428c0.511,0.006,2.33,5.219,2.842,5.223c1.145,0.016,5.523-5.121,6.671-5.109
	c33.771,0.439,67.674,1.193,101.691,0.971c2.172-0.045,3.709-0.568,4.709-1.676c0.053,0.096,0.1,0.189,0.156,0.287
	c1.213,2.047,4.412,0.496,6.283-2.115C249.251,165.173,247.486,162.656,245.945,160.865"/>
<path fill="#FFFFFF" d="M53.016,142.312c0-0.922-0.498-1.492-1.488-1.711c-0.514-0.135-0.77-0.225-0.77-0.264
	c0-0.098,0.312-0.146,0.938-0.146h6.215c0.623,0,0.936,0.049,0.936,0.146c0,0.115-0.256,0.207-0.767,0.264
	c-0.964,0.178-1.446,0.75-1.446,1.711v17.643v1.238c0,0.297,0.012,0.49,0.043,0.592c0.026,0.156,0.09,0.328,0.19,0.516
	c0.101,0.189,0.219,0.398,0.36,0.633c1.136-0.195,1.705,0.021,1.705,0.65c0,0.668-0.469,1.002-1.405,1.002
	c-0.882,0-1.591-0.275-2.128-0.826c-0.454-0.414-1.008-1.229-1.659-2.447l-8.558-15.664v16.195c0,0.965,0.484,1.533,1.449,1.709
	c0.51,0.16,0.766,0.258,0.766,0.295c0,0.082-0.312,0.119-0.938,0.119h-6.212c-0.625,0-0.937-0.037-0.937-0.119
	c0-0.135,0.254-0.234,0.767-0.295c0.935-0.176,1.401-0.744,1.401-1.709v-8.113c0-0.57-0.366-1.004-1.105-1.297
	c-0.738-0.334-1.105-0.768-1.105-1.301c0-0.059,0.057-0.078,0.17-0.059c0.197,0.059,0.324,0.09,0.384,0.09
	c0.567,0,0.948-0.07,1.147-0.207c0.342-0.197,0.51-0.803,0.51-1.828v-6.816c0-0.961-0.467-1.533-1.401-1.711
	c-0.513-0.057-0.767-0.148-0.767-0.264c0-0.098,0.312-0.146,0.937-0.146h5.617l7.151,12.123V142.312z"/>
<path fill="#FFFFFF" d="M66.27,157.49c0,0.625,0.105,1.055,0.316,1.281c0.21,0.232,0.605,0.344,1.188,0.344
	c1.104,0,1.885-0.449,2.347-1.352c0.143-0.432,0.278-0.859,0.409-1.273c0.129-0.418,0.267-0.844,0.404-1.273
	c0.342-0.904,0.924-1.354,1.745-1.354c0.562,0,0.843,0.184,0.843,0.562c0,0.346-0.242,0.52-0.724,0.52
	c-0.038,0-0.159-0.014-0.358-0.041c-0.102,0.307-0.152,0.619-0.152,0.938c0,1.029,0.451,2.594,1.355,4.695H62.536
	c-0.44,0-0.66-0.029-0.66-0.084c0-0.098,0.18-0.166,0.542-0.209c0.662-0.125,0.992-0.529,0.992-1.209v-5.736
	c0-0.404-0.26-0.709-0.781-0.918c-0.501-0.225-0.753-0.527-0.753-0.918c0-0.041,0.041-0.059,0.12-0.041
	c0.141,0.041,0.23,0.062,0.271,0.062c0.5,0,0.817-0.096,0.947-0.281c0.13-0.189,0.195-0.574,0.195-1.156v-4.82
	c0-0.68-0.33-1.084-0.992-1.209c-0.362-0.043-0.542-0.105-0.542-0.188c0-0.07,0.22-0.104,0.66-0.104h10.806
	c-1.145,2.336-1.645,3.975-1.505,4.922c0.744-0.016,1.112,0.172,1.112,0.562s-0.319,0.582-0.963,0.582
	c-0.541,0-0.943-0.396-1.203-1.188c-0.221-0.641-0.4-1.139-0.541-1.502c-0.141-0.359-0.252-0.598-0.33-0.709
	c-0.524-0.791-1.366-1.188-2.529-1.188c-0.604,0-0.973,0.088-1.113,0.27v5.609h0.844c0.963,0,1.543-0.236,1.744-0.705
	c0.06-0.254,0.15-0.377,0.271-0.377c0.103,0,0.151,0.15,0.151,0.457v2.943c0,0.305-0.049,0.459-0.151,0.459
	c-0.12,0-0.211-0.127-0.271-0.379c-0.223-0.457-0.803-0.688-1.744-0.688H66.27V157.49z"/>
<path fill="#FFFFFF" d="M89.738,143.726c0.201,0,0.303,0.021,0.303,0.061c0,0.043-0.24,0.133-0.722,0.271
	c-0.481,0.154-0.763,0.312-0.842,0.482c-0.103,0.152-0.04,0.713,0.179,1.686l1.986,9.387l2.076-9.387
	c0.201-0.973,0.261-1.533,0.18-1.686c-0.08-0.17-0.361-0.328-0.842-0.482c-0.463-0.152-0.692-0.242-0.692-0.271
	c0-0.039,0.103-0.061,0.302-0.061h5.838c0.22-0.029,0.332-0.008,0.332,0.061c0,0.014-0.201,0.1-0.604,0.25
	c-0.48,0.182-0.841,0.469-1.083,0.865c-0.241,0.396-0.45,0.949-0.631,1.658l-2.769,11.305c-0.102,0.447-0.18,0.785-0.242,1.021
	c-0.06,0.238-0.09,0.363-0.09,0.377c0,0.389,0.263,0.701,0.783,0.939c0.522,0.236,0.783,0.334,0.783,0.291
	c0,0.029-0.091,0.043-0.271,0.043h-6.26c-0.24,0-0.361-0.014-0.361-0.043c0.021,0,0.1-0.025,0.242-0.072
	c0.139-0.051,0.319-0.119,0.541-0.209c0.222-0.092,0.391-0.191,0.512-0.301c0.302-0.252,0.451-0.566,0.451-0.939
	c0-0.209-0.017-0.428-0.045-0.658c-0.03-0.23-0.086-0.463-0.166-0.699l-1.836-6.318l-1.653,6.568
	c-0.243,0.961-0.362,1.428-0.362,1.398c0,0.402,0.249,0.715,0.752,0.939c0.501,0.219,0.752,0.32,0.752,0.291
	c0,0.029-0.111,0.043-0.332,0.043h-6.589c-0.22,0-0.33-0.014-0.33-0.043c0.019,0,0.104-0.025,0.254-0.072
	c0.151-0.051,0.335-0.119,0.56-0.209c0.218-0.092,0.4-0.191,0.541-0.301c0.32-0.24,0.479-0.551,0.479-0.939
	c0-0.141-0.015-0.322-0.044-0.543c-0.031-0.223-0.087-0.494-0.167-0.814l-1.053-4.588c-0.101-0.32-0.31-0.541-0.632-0.668
	c-0.139-0.041-0.282-0.084-0.42-0.125c-0.142-0.041-0.293-0.092-0.451-0.145c-0.342-0.195-0.512-0.357-0.512-0.48
	c0-0.098,0.02-0.16,0.06-0.188s0.11-0.027,0.211,0c0.202,0.027,0.332,0.041,0.39,0.041c0.303,0,0.492-0.027,0.572-0.084
	c0.141-0.096,0.212-0.328,0.212-0.686c0-0.322-0.062-0.787-0.182-1.4l-0.572-2.732c-0.16-0.807-0.339-1.359-0.541-1.668
	c-0.22-0.377-0.601-0.66-1.144-0.855c-0.439-0.137-0.659-0.221-0.659-0.25c0-0.039,0.09-0.061,0.269-0.061h5.928
	c0.18,0,0.271,0.021,0.271,0.061c0,0.029-0.242,0.113-0.722,0.25c-0.481,0.154-0.764,0.322-0.844,0.504
	c-0.101,0.152-0.041,0.713,0.182,1.686L83,155.613l2.105-9.387c0.201-0.887,0.251-1.453,0.152-1.686
	c-0.082-0.182-0.363-0.35-0.842-0.504c-0.463-0.15-0.692-0.236-0.692-0.25c0-0.039,0.098-0.061,0.3-0.061H89.738z"/>
<path fill="#FFFFFF" d="M120.535,143.707c1.277,2.072,1.914,4.879,1.914,8.418c0,3.514-0.637,6.338-1.914,8.473
	c-1.385,2.309-3.324,3.457-5.82,3.457c-2.497,0-4.426-1.148-5.781-3.457c-1.277-2.135-1.912-4.959-1.912-8.473
	c0-3.539,0.635-6.346,1.912-8.418c1.355-2.307,3.284-3.461,5.781-3.461C117.211,140.246,119.15,141.4,120.535,143.707
	 M111.761,145.003c-0.558,1.422-0.831,3.795-0.831,7.121c0,3.34,0.273,5.703,0.831,7.086c0.556,1.426,1.539,2.135,2.954,2.135
	c1.414,0,2.383-0.699,2.91-2.1c0.583-1.406,0.874-3.781,0.874-7.121c0-3.309-0.279-5.672-0.833-7.092
	c-0.526-1.404-1.51-2.107-2.951-2.107C113.271,142.925,112.285,143.621,111.761,145.003"/>
<path fill="#FFFFFF" d="M136.921,158.033c0.125,0.445,0.332,0.988,0.633,1.625c0.121,0.141,0.471,0.307,1.055,0.5l0.842,0.295
	c-0.021,0.057-0.189,0.084-0.512,0.084h-4.215l-2.162-7.26c-1.164,0.711-1.748,1.314-1.748,1.814
	c0.764,0.068,1.143,0.279,1.143,0.625c0,0.209-0.098,0.369-0.299,0.482c-0.201,0.109-0.402,0.168-0.602,0.168
	c-0.825,0-1.234-0.391-1.234-1.17c0-0.57,0.46-1.281,1.382-2.129c0.443-0.377,0.879-0.75,1.309-1.125
	c0.434-0.375,0.869-0.758,1.311-1.148c0.924-0.971,1.385-1.918,1.385-2.836c0-1.947-0.781-2.92-2.346-2.92h-2.199
	c-0.683,0-1.025,0.682-1.025,2.045v11.951c0,0.68,0.354,1.084,1.054,1.209c0.342,0.111,0.512,0.18,0.512,0.209
	c0,0.057-0.219,0.084-0.66,0.084h-4.636c-0.44,0-0.663-0.027-0.663-0.084c0-0.098,0.182-0.168,0.542-0.209
	c0.662-0.125,0.994-0.529,0.994-1.209v-5.736c0-0.406-0.261-0.711-0.784-0.918c-0.5-0.223-0.752-0.529-0.752-0.918
	c0-0.041,0.043-0.057,0.122-0.041c0.142,0.041,0.229,0.062,0.271,0.062c0.5,0,0.818-0.096,0.949-0.281
	c0.129-0.189,0.194-0.576,0.194-1.156v-4.82c0-0.68-0.332-1.086-0.994-1.209c-0.36-0.043-0.542-0.104-0.542-0.188
	c0-0.07,0.223-0.105,0.663-0.105h6.106c2.029,0,3.512,0.258,4.457,0.773c1.082,0.582,1.623,1.547,1.623,2.896
	c0,1.586-1.043,3.08-3.129,4.484L136.921,158.033z"/>
<path fill="#FFFFFF" d="M142.25,160.451c0-0.096,0.18-0.166,0.539-0.207c0.664-0.125,0.994-0.527,0.994-1.209v-5.736
	c0-0.406-0.26-0.709-0.779-0.918c-0.504-0.225-0.754-0.529-0.754-0.918c0-0.041,0.039-0.059,0.121-0.041
	c0.139,0.041,0.229,0.062,0.268,0.062c0.504,0,0.816-0.096,0.949-0.283c0.131-0.186,0.195-0.572,0.195-1.154v-4.82
	c0-0.68-0.33-1.086-0.994-1.209c-0.359-0.043-0.539-0.105-0.539-0.189c0-0.068,0.221-0.102,0.662-0.102h4.633
	c0.439,0,0.662,0.033,0.662,0.102c0,0.016-0.17,0.078-0.514,0.189c-0.701,0.123-1.049,0.529-1.049,1.209v11.992
	c0,0.418,0.02,0.756,0.059,1.014c0.039,0.256,0.113,0.459,0.225,0.604s0.254,0.244,0.436,0.291c0.182,0.051,0.41,0.072,0.693,0.072
	c1.104,0,1.785-0.4,2.045-1.207c0.041-0.152,0.08-0.383,0.121-0.689c0.041-0.305,0.08-0.695,0.121-1.17
	c0.018-0.4,0.066-0.748,0.137-1.041s0.152-0.533,0.254-0.73c0.541-0.93,1.184-1.395,1.928-1.395c0.18,0,0.365,0.061,0.555,0.186
	c0.191,0.125,0.289,0.273,0.289,0.439c0,0.389-0.273,0.582-0.816,0.582c-0.121,0-0.248-0.021-0.391-0.064
	c-0.299,0.574-0.451,1.178-0.451,1.816c0,1.072,0.541,2.572,1.623,4.508c-0.1,0.068-0.49,0.104-1.172,0.104h-9.387
	C142.47,160.537,142.25,160.509,142.25,160.451"/>
<path fill="#FFFFFF" d="M160.664,157.49c0,0.625,0.105,1.055,0.318,1.281c0.209,0.232,0.605,0.344,1.186,0.344
	c1.105,0,1.887-0.449,2.35-1.352c0.141-0.432,0.273-0.859,0.406-1.273c0.131-0.418,0.264-0.844,0.406-1.273
	c0.34-0.904,0.922-1.354,1.744-1.354c0.562,0,0.842,0.184,0.842,0.562c0,0.346-0.24,0.52-0.721,0.52
	c-0.043,0-0.16-0.014-0.361-0.041c-0.1,0.307-0.152,0.619-0.152,0.938c0,1.029,0.451,2.594,1.355,4.695h-11.104
	c-0.441,0-0.662-0.029-0.662-0.084c0-0.098,0.184-0.166,0.543-0.209c0.658-0.125,0.99-0.529,0.99-1.209v-5.736
	c0-0.404-0.26-0.709-0.779-0.918c-0.502-0.225-0.754-0.527-0.754-0.918c0-0.041,0.041-0.059,0.121-0.041
	c0.141,0.041,0.229,0.062,0.271,0.062c0.5,0,0.816-0.096,0.947-0.281c0.129-0.189,0.193-0.574,0.193-1.156v-4.82
	c0-0.68-0.332-1.084-0.99-1.209c-0.359-0.043-0.543-0.105-0.543-0.188c0-0.07,0.221-0.104,0.662-0.104h10.803
	c-1.146,2.336-1.645,3.975-1.504,4.922c0.744-0.016,1.115,0.172,1.115,0.562s-0.322,0.582-0.965,0.582
	c-0.541,0-0.943-0.396-1.203-1.188c-0.223-0.641-0.4-1.139-0.545-1.502c-0.139-0.359-0.248-0.598-0.328-0.709
	c-0.523-0.791-1.365-1.188-2.527-1.188c-0.604,0-0.975,0.088-1.115,0.27v5.609h0.844c0.963,0,1.545-0.236,1.746-0.705
	c0.059-0.254,0.148-0.377,0.27-0.377c0.102,0,0.15,0.15,0.15,0.457v2.943c0,0.305-0.049,0.459-0.15,0.459
	c-0.121,0-0.211-0.127-0.27-0.379c-0.221-0.457-0.803-0.688-1.746-0.688h-0.844V157.49z"/>
<path fill="#FFFFFF" d="M180.675,143.726c0.381,0,0.57,0.049,0.57,0.145c0,0.043-0.09,0.09-0.271,0.146
	c-0.24,0.068-0.42,0.174-0.537,0.314c-0.184,0.207-0.273,0.494-0.273,0.854c0,0.279,0.041,0.578,0.121,0.896l2.826,12.283
	c0.139,0.615,0.322,1.037,0.541,1.275c0.203,0.207,0.674,0.467,1.416,0.77l0.029,0.023c0,0.068-0.191,0.104-0.57,0.104h-5.295
	c-0.262,0-0.395-0.057-0.395-0.168c0-0.014,0.014-0.021,0.031-0.021c0.662-0.25,1.053-0.443,1.176-0.584
	c0.137-0.139,0.209-0.416,0.209-0.836c0-0.762-0.209-1.596-0.631-2.502c-0.504,0-0.904,0.139-1.207,0.42
	c0.303,0.416,0.453,0.723,0.453,0.916c0,0.209-0.109,0.398-0.332,0.576c-0.219,0.172-0.512,0.26-0.871,0.26
	c-0.242,0-0.459-0.08-0.646-0.24c-0.193-0.16-0.285-0.316-0.285-0.471c0-0.193,0.16-0.492,0.479-0.895
	c-0.119-0.502-0.541-0.713-1.262-0.625c-0.48,1.236-0.725,2.111-0.725,2.625c0,0.611,0.504,1.086,1.508,1.418
	c0.037,0.014,0.014,0.039-0.078,0.074c-0.09,0.035-0.203,0.053-0.344,0.053h-5.418c-0.102,0-0.211-0.016-0.33-0.043
	c-0.121-0.029-0.148-0.055-0.092-0.084c0.844-0.348,1.428-0.758,1.746-1.23c0.102-0.141,0.201-0.342,0.301-0.605
	c0.104-0.26,0.201-0.598,0.301-1l1.057-3.859c0.057-0.221,0.117-0.438,0.18-0.646c0-0.182-0.242-0.389-0.723-0.623
	c-0.102-0.045-0.197-0.105-0.287-0.191c-0.09-0.08-0.174-0.168-0.256-0.26c-0.08-0.09-0.129-0.18-0.152-0.27
	c-0.016-0.092,0-0.156,0.062-0.199c0.041-0.055,0.09-0.07,0.148-0.041c0.141,0.041,0.271,0.062,0.395,0.062
	c0.52,0,0.902-0.141,1.141-0.418c0.221-0.25,0.473-0.867,0.754-1.855l0.721-2.67c0.184-0.641,0.273-1.111,0.273-1.418
	c0-0.359-0.09-0.646-0.273-0.854c-0.115-0.141-0.281-0.246-0.48-0.314c-0.201-0.07-0.299-0.117-0.299-0.146
	c0-0.096,0.188-0.145,0.568-0.145H180.675z M176.375,154.132c0.236,0.111,0.75,0.426,1.533,0.938
	c0.299-0.191,0.76-0.471,1.383-0.832l-1.266-6.154c0-0.057-0.01-0.098-0.027-0.125c-0.021-0.027-0.043-0.027-0.062,0
	L176.375,154.132z"/>
<path fill="#FFFFFF" d="M197.433,145.226c0-0.654-0.35-1.057-1.049-1.209c-0.365-0.098-0.547-0.16-0.547-0.188
	c0-0.072,0.223-0.104,0.664-0.104h4.395c0.439,0,0.66,0.031,0.66,0.104c0,0.082-0.18,0.145-0.539,0.188
	c-0.686,0.123-1.023,0.527-1.023,1.209v12.473v0.875c0,0.211,0.006,0.348,0.027,0.418c0.023,0.111,0.068,0.232,0.137,0.365
	c0.072,0.133,0.154,0.281,0.258,0.447c0.803-0.139,1.203,0.014,1.203,0.459c0,0.475-0.332,0.709-0.996,0.709
	c-0.623,0-1.121-0.193-1.502-0.582c-0.32-0.293-0.713-0.871-1.174-1.732l-6.049-11.076v11.453c0,0.68,0.344,1.084,1.023,1.209
	c0.361,0.111,0.541,0.18,0.541,0.207c0,0.057-0.221,0.086-0.658,0.086h-4.396c-0.441,0-0.66-0.029-0.66-0.086
	c0-0.096,0.178-0.166,0.537-0.207c0.664-0.125,0.996-0.529,0.996-1.209v-5.736c0-0.404-0.262-0.709-0.781-0.918
	c-0.523-0.238-0.783-0.541-0.783-0.918c0-0.043,0.037-0.057,0.119-0.043c0.141,0.043,0.23,0.064,0.271,0.064
	c0.402,0,0.672-0.049,0.812-0.145c0.242-0.139,0.361-0.572,0.361-1.293v-4.82c0-0.682-0.332-1.086-0.996-1.209
	c-0.359-0.043-0.537-0.105-0.537-0.188c0-0.072,0.219-0.104,0.66-0.104h3.971l5.055,8.572V145.226z"/>
<path fill="#FFFFFF" d="M215.703,147.181c-0.086,0.139-0.24,0.428-0.469,0.869c-0.227,0.443-0.527,1.049-0.893,1.814
	c2.75,1.635,4.564,2.932,5.447,3.895c0.992,1.082,1.488,2.379,1.488,3.895c0,1.869-0.723,3.432-2.17,4.689
	c-1.533,1.299-3.49,1.949-5.875,1.949c-0.795,0-1.914-0.129-3.361-0.385s-2.566-0.383-3.361-0.383c-0.854,0-1.619,0.098-2.297,0.293
	l0.422-1.033c1.762-2.592,2.641-4.551,2.641-5.869v-0.264c0-0.1-0.014-0.199-0.043-0.297c-1.021-0.018-1.535-0.314-1.535-0.885
	c0-0.531,0.359-0.797,1.068-0.797c0.594,0,1.09,0.229,1.49,0.68c0.479,0.512,0.725,1.229,0.725,2.152v0.443
	c0,2.91,1.246,4.365,3.744,4.365c1.387,0,2.525-0.383,3.402-1.148c0.879-0.77,1.32-1.83,1.32-3.188c0-1.553-1.42-3.156-4.256-4.809
	c-0.311,0.154-0.598,0.59-0.852,1.297c-0.227,0.729-0.34,1.359-0.34,1.889c0,0.533,0.113,0.816,0.34,0.855
	c0.541-0.176,0.992-0.266,1.363-0.266c0.311,0,0.578,0.09,0.807,0.266c0.229,0.178,0.328,0.383,0.299,0.619
	c-0.086,0.611-0.625,0.914-1.617,0.914c-0.764,0-1.414-0.246-1.938-0.738c-0.525-0.486-0.785-1.09-0.785-1.797
	c0-0.668,0.381-1.949,1.146-3.836c-4-2.457-6.029-4.787-6.086-6.99c-0.057-1.514,0.625-2.803,2.043-3.865
	c1.391-1.062,3.039-1.592,4.938-1.592c0.881,0,2.059,0.156,3.533,0.471c1.504,0.275,2.797,0.434,3.873,0.473L215.703,147.181z
	 M212.593,142.048c-0.963,0-1.738,0.254-2.318,0.768c-0.582,0.51-0.873,1.211-0.873,2.096c0,1.334,1.236,2.74,3.703,4.217
	c1.475-2.459,2.213-4.17,2.213-5.133C215.318,142.697,214.412,142.048,212.593,142.048"/>
<path fill="#FFFEF0" d="M222.779,125.685c0-0.723,0.551-1.268,1.244-1.268c0.686,0,1.229,0.545,1.229,1.268
	c0,0.73-0.543,1.268-1.229,1.268C223.33,126.953,222.779,126.416,222.779,125.685 M224.023,127.21c0.828,0,1.537-0.646,1.537-1.525
	s-0.709-1.52-1.537-1.52c-0.834,0-1.547,0.641-1.547,1.52S223.189,127.21,224.023,127.21 M223.699,125.804h0.305l0.465,0.76h0.301
	l-0.502-0.777c0.26-0.027,0.457-0.16,0.457-0.48c0-0.344-0.203-0.5-0.617-0.5h-0.67v1.758h0.262V125.804z M223.699,125.58v-0.543
	h0.361c0.189,0,0.385,0.035,0.385,0.256c0,0.266-0.203,0.287-0.422,0.287H223.699z"/>
<path fill="#E7D8AC" d="M77.12,121.097c0,0-0.985-1.668-5.104-3.242c-5.525-2.107-3.518-8.822-0.18-7.65
	c1.138,0.396,1.668,1.176,1.562,2.438c-0.103,1.258-1.26,1.291-1.675,1.205c-0.632-0.125-0.798-1.359-0.798-1.359
	s0.465,0.705,0.628,0.121c0.167-0.582-0.849-1.283-0.917-0.438c-0.064,0.852-0.232,2.346,2.604,4.27
	C75.613,118.054,77.12,121.097,77.12,121.097"/>
<path fill="#141006" d="M71.616,109.023c0,0-3.853-0.828-4.46,3.08c0,0-1.814,6.168,6.938,8.039h1.375l-2.478-5.945L71.616,109.023z
	"/>
<path fill="#E7D8AC" d="M251.152,146.783c-1.789,0.16-3.232,1.607-2.809,3.268c0.307,1.227,1.109,1.807,2.137,1.902
	c1.693,0.154,1.857-2.125,1.857-2.125s0.629,0.531-0.143,1.822c-0.68,1.137-2.033,1.924-3.938,1.768
	c-1.596-0.139-3.178-0.178-4.936-3.025c-0.504-0.809-0.631-2.012-0.609-3.152c0.193-1.424,0.59-3.021,1.012-4.686
	c0.277-1.09,0.494-2.1,0.662-3.039c0.428-0.422,1.439-1.693,1.439-4.242c0-3.865,0.656-6.061,0.875-6.799s-2.182-0.385-2.834,0.857
	c-0.182,0.348-0.309,0.688-0.404,1.006c-0.92-1.037-2.244-1.336-3.75-1.084c-1.426,0.242-2.395,0.936-3.004,1.791v-0.004h-55.395
	c-0.268-0.123-6.734-3.1-15.863-3.775c3.26-2.504,1.066-7.248-1.846-6.98c-3.016,0.26-3.262,2.771-3.262,2.771
	s4.09-1.469,2.865,1.896c-0.467,1.291-1.744,1.953-3.408,2.32c-1.941,0.027-4.033,0.076-5.623,0.018
	c-1.43-0.207-3.391-0.447-4.623-0.943c-3.629-1.449-4.102-3.139-4.102-3.139s-1.471,2.84-0.326,3.643
	c0.146,0.104,0.289,0.195,0.428,0.281c-7.598-0.74-8.582-3.543-9.086-6.553c-0.561-3.348,2.91-5.178,3.803-3.791
	c1.09,1.686-1.084,2.051-1.084,2.051s0.492,0.65,1.057,0.857c1.309,0.479,3.029-0.082,3.312-2.602
	c0.713-6.326-11.809-8.201-13.146,1.111c-0.272,1.922-0.24,3.928,0.326,5.787c-0.145-0.076-0.287-0.156-0.453-0.209
	c-1.221-0.404-2.297-0.238-3.127,1.055c-0.826,1.291-0.176,2.504,0.209,2.75c1.51,0.963,2.067-0.508,2.067-0.508
	s-0.952-0.238-0.668-0.92c0.29-0.682,1.85-0.395,1.653,0.613c-0.245,1.27-0.943,2.432-2.959,3.057
	c0.104-0.213,0.191-0.457,0.136-0.645c-0.116-0.402-0.483-0.924-0.483-0.924s-0.994,0.977-2.136,1.09
	c-1.89,0.195-2.739,1.117-2.972,1.373c-0.701,0.113-1.34,0.221-1.899,0.314H75.627c3.658-1.195,4.33-4.09,3.998-6.715
	c-0.23-1.842-1.299-2.943-2.577-3.465c-0.361-0.771-1.658-3.266-3.772-4.414c-3.268-1.777-3.15-3.422-2.814-4.203
	c0.507-1.188,1.66-0.281,1.332,0.227c-0.293,0.453-0.834,0.021-0.834,0.021s-0.325,1.178,0.799,1.359
	c0.421,0.066,1.57,0.051,1.676-1.207c0.104-1.26-0.316-2.205-1.452-2.6c-3.341-1.172-5.458,5.707,0.072,7.812
	c3.089,1.184,4.415,2.416,4.883,2.959c-2.407-0.912-5.501,0.221-5.276,2.561c0.135,1.441,1.054,1.738,2,1.598
	c0.721-0.107,0.767-0.443,0.767-0.443s-1.126-0.008-0.614-1.191c0.375-0.869,2.729-0.191,2.204,2.227
	c-0.37,1.705-1.612,3.43-6.118,3.723c0.088-0.041,0.735-0.273,0.988-0.486c1.011-0.852-0.215-1.891-0.215-1.891
	s-0.581,0.902-2.744,1.664c-0.741,0.264-1.626,0.416-2.473,0.512c-0.933-0.047-1.982-0.096-3.135-0.143
	c-0.979-0.242-2.072-0.402-2.34-1.152c-0.854-2.381,1.877-1.238,1.877-1.238s-0.113-1.434-1.894-1.637
	c-1.722-0.197-3.074,2.463-1.179,3.949c-3.658,0.15-5.377,1.365-6.131,2.174H22.021c-0.468-1.379-1.568-2.502-3.433-2.494
	c-2.275,0.012-4.695,0.947-5.595,4.346c-0.155-0.1-0.426-0.23-0.91-0.432c-1.696-0.721-2.629,0.545-2.629,0.545
	s1.578,0.371,1.707,3.283c0.242,5.324,2.238,5.879,2.238,5.879l-0.002-0.109c0.106,0.48,0.223,0.967,0.352,1.48
	c0.652,2.537,1.117,4.688,1.201,6.67c0,0.021,0,0.041,0.002,0.062c-0.097,0.373-0.224,0.723-0.402,1.02
	c-1.758,2.934-3.337,3.057-4.934,3.275c-1.901,0.266-3.265-0.449-3.939-1.541c-0.768-1.248-0.141-1.812-0.141-1.812
	s0.164,2.266,1.854,2.006c1.03-0.145,1.453-0.389,1.769-1.631c0.422-1.678-0.648-3.43-2.431-3.49
	c-1.629-0.051-4.202,1.955-3.666,5.164c0.58,3.471,6.503,5.307,10.187,1.59c0.984-0.994,1.504-1.752,1.818-2.508
	c0.01,0.348-0.002,0.678-0.048,1.021c-0.021,0.137-0.046,0.26-0.069,0.391c-0.885,1.432-2.75,3.531-6.239,3.93
	c-2.048,0.234-3.248,2.658-2.275,4.008c0.619,0.863,1.771,0.959,2.32,0.707c1.28-0.586,1.174-1.387,1.174-1.387
	s-1.362,0.16-0.948-0.627c0.252-0.477,1.414-0.213,2.942-1.623c1.114-1.029,2.071-2.404,2.618-3.336c0,0,0.054,0.467-0.666,1.436
	c-4.53,6.014-7.943,8.191-6.188,12.945c1.565,4.225,5.354,4.805,8.276,3.426c-0.05,0.184-0.091,0.369-0.12,0.555
	c-0.323,2.055,1.189,3.846,3.076,3.875c2.285,0.033,3.939-1.385,3.486-3.162c-0.463-1.811-1.951-1.967-2.707-1.303
	c-0.209,0.184-0.348,0.592-0.348,0.592s0.501-0.139,0.852,0.27c0.248,0.293,0.347,1.004-0.321,1.434
	c-0.931,0.594-1.963-0.699-1.541-1.898c0.495-1.402,2.589-1.418,6.843-1.371c1.342,0.014,90.807-0.768,97.928-0.004
	c4.369,0.471,3.077,4.992,2.553,5.6c-1.322,1.541-3.793,1.08-3.607-1.1c0.135-1.568,1.571-1.57,2.407-1.193
	c0.823,0.371,0.665,1.43,0.665,1.43s0.359-0.268,0.402-0.896c0.084-1.148-0.502-2.646-3.092-2.543
	c-2.994,0.121-4.214,2.994-3.23,5.518c0.683,1.744,3.348,3.094,6.449,2.17c5.416-1.609,3.944-12.252-2.073-12.502
	c-14.462-0.604-97.79,0.307-100.324,0.246c-1.563-0.041-2.827,0.18-3.841,0.566c0.984-2.963-0.223-6.824-3.76-7.115
	c-2.705-0.227-4.588,2.359-4.316,5.057c0.348,3.473,4.73,2.557,4.891,0.689c0.237-2.756-1.923-2.115-1.923-2.115
	s0.656-0.83,1.671-0.512c1.478,0.467,1.559,4.531-1.521,5.031c-3.662,0.594-5.433-3.699-2.675-7.4
	c3.043-4.078,4.447-5.541,4.848-10.164c0.318-3.693-1.059-8.227-1.059-8.227s0.088,0.586,0.16,1.512
	c-0.281-2.482-0.522-4.49-0.656-5.846c-0.609-6.553,0.933-7.529,2.652-8.152c1.666-0.604,2.801,1.266,2.152,1.891
	c-0.795,0.783-1.105-0.453-1.105-0.453s-0.322,0.258-0.332,0.617c-0.037,0.945,0.178,1.822,1.474,1.777
	c0.892-0.039,1.544-0.633,1.938-1.463h214.201c0.283,1.002,0.955,1.742,1.908,1.738c1.105,0,1.482-0.537,1.453-1.354
	c-0.014-0.305-0.289-0.516-0.289-0.516s-0.262,1.068-0.941,0.428c-0.555-0.518,0.41-2.152,1.836-1.699
	c1.482,0.471,2.803,1.238,2.275,6.867c-0.141,1.455-0.43,3.771-0.744,6.684c-0.104,0.971-0.119,1.809-0.082,2.543
	c-0.006,0.557,0.018,1.209,0.082,1.98c0.4,4.607,1.479,6.885,4.523,10.797c2.758,3.568,0.994,7.967-2.674,7.547
	c-3.08-0.344-2.924-4.709-1.438-5.191c1.488-0.488,1.584,0.658,1.584,0.658s-1.951-0.688-1.758,2.293
	c0.135,2.094,4.381,2.469,4.727-1.02c0.275-2.705-1.48-5.348-4.188-4.99c-4.195,0.551-4.328,6.248-2.842,8.91
	c0.004,0.006,0.006,0.01,0.01,0.016c-1.164-0.826-2.846-1.365-5.232-1.307c-2.535,0.061-85.18-0.848-99.641-0.242
	c-6.019,0.246-7.49,10.889-2.074,12.5c3.1,0.926,5.764-0.43,6.447-2.17c0.984-2.523-0.232-5.398-3.23-5.518
	c-2.588-0.104-3.172,1.395-3.088,2.541c0.043,0.633,0.402,0.9,0.402,0.9s-0.158-1.061,0.662-1.434
	c0.838-0.373,2.275-0.371,2.408,1.193c0.186,2.182-2.287,2.643-3.609,1.102c-0.523-0.609-1.814-5.129,2.555-5.6
	c7.121-0.768,95.902,0.018,97.244,0.004c4.254-0.045,6.348-0.031,6.844,1.373c0.422,1.197-0.611,2.488-1.541,1.896
	c-0.666-0.43-0.57-1.139-0.322-1.432c0.35-0.412,0.852-0.271,0.852-0.271s-0.139-0.408-0.348-0.592
	c-0.754-0.664-2.244-0.508-2.707,1.303c-0.453,1.775,1.203,3.195,3.488,3.164c1.885-0.031,3.396-1.82,3.074-3.879
	c-0.1-0.617-0.307-1.256-0.65-1.859c2.777,1.951,7.41,1.32,9.146-3.465c1.756-4.838-1.66-6.82-6.184-12.605
	c-0.684-0.869-1.156-1.842-1.486-2.82c0.092,0.135,0.178,0.256,0.262,0.354c0.49,1.193,1.494,2.768,3.246,4.262
	c2.059,1.76,2.484,1.199,2.576,1.574c0.146,0.602-0.604,0.596-0.604,0.596s0.371,0.973,1.137,1.299
	c0.543,0.225,1.252,0.281,1.873-0.613c0.969-1.395,0.205-3.9-1.842-4.102c-4.018-0.393-5.896-2.365-6.262-3.627
	c-0.109-0.402-0.225-0.92-0.311-1.559c-0.027-0.207-0.043-0.42-0.055-0.635c0.275,1.061,0.752,1.955,2.086,3.229
	c3.688,3.518,9.607,1.324,10.184-2.168C255.351,148.484,252.781,146.634,251.152,146.783 M53.281,131.041
	c0.502-0.254,1.158-0.527,1.976-0.725c0.911-0.217,1.724-0.133,3.18-0.182c1.999-0.068,4.224,0.273,6.849,0.791
	c0.217,0.043,0.424,0.08,0.639,0.115H53.281z M128.168,131.041c2.656-0.705,3.943-2.467,4.08-4.105
	c1.521,1.938,4.051,3.443,8.004,4.105H128.168z"/>
<path fill="#141006" d="M131.087,33.309c0.359-1.814,1.223-3.005,2.807-4.197c0.963-0.736,2.066-1.264,3.078-2.003
	c0.523-0.378,0.893-0.98,1.016-1.605c0.195-0.984-0.34-1.587-1.438-1.587c-0.68,0-1.279,0.245-1.799,0.757h0.082
	c0.803,0,1.156,0.492,0.986,1.339c-0.217,1.115-0.98,1.777-2,1.777c-1.014,0-1.527-0.771-1.283-2.024
	c0.436-2.189,2.551-3.891,5.25-3.891c2.729,0,4.148,1.661,3.713,3.891c-0.406,2.062-1.812,3.029-4.441,3.858
	c-1.686,0.529-2.768,0.697-3.266,1.7c0.803-0.435,1.543-0.657,2.275-0.657c1.002,0,1.729,0.449,2.344,0.449
	c0.465,0,0.781-0.417,0.951-1.284c0.014-0.056,0.025-0.111,0.035-0.17h1.699c-0.029,0.229-0.072,0.452-0.117,0.659
	c-0.504,2.571-1.596,3.724-3.613,3.724c-1.613,0-2.771-0.887-3.668-0.887c-0.453,0-0.736,0.188-0.93,0.567h-1.75
	C131.05,33.573,131.062,33.438,131.087,33.309"/>
<path fill="#141006" d="M148.798,21.873c2.877,0,4.48,2.363,3.744,6.088c-0.727,3.699-3.242,6.068-6.176,6.068
	c-2.881,0-4.461-2.369-3.732-6.068C143.361,24.257,145.865,21.873,148.798,21.873 M148.435,23.706c-1.014,0-1.656,1.382-2.221,4.255
	c-0.566,2.871-0.467,4.232,0.529,4.232c1.016,0,1.635-1.361,2.201-4.232C149.513,25.088,149.416,23.706,148.435,23.706"/>
<path fill="#141006" d="M154.253,23.667c1.357-0.112,2.25-0.585,2.709-1.474h2.627l-1.787,9.074
	c-0.129,0.66,0.084,0.773,1.035,0.773h0.379l-0.326,1.665h-6.613l0.328-1.665h0.453c1.264,0,1.326-0.228,1.49-1.075
	c0.008-0.039,0.012-0.058,0.014-0.077l1.094-5.539h-1.732L154.253,23.667z"/>
<path fill="#141006" d="M160.22,33.309c0.359-1.814,1.221-3.005,2.809-4.197c0.955-0.736,2.062-1.264,3.078-2.003
	c0.52-0.378,0.889-0.98,1.014-1.605c0.193-0.984-0.338-1.587-1.438-1.587c-0.682,0-1.283,0.245-1.793,0.757h0.078
	c0.803,0,1.154,0.492,0.984,1.339c-0.217,1.115-0.98,1.777-1.998,1.777c-1.016,0-1.529-0.771-1.283-2.024
	c0.434-2.189,2.549-3.891,5.248-3.891c2.729,0,4.152,1.661,3.715,3.891c-0.406,2.062-1.816,3.029-4.443,3.858
	c-1.686,0.529-2.766,0.697-3.264,1.7c0.801-0.435,1.545-0.657,2.275-0.657c1,0,1.732,0.449,2.342,0.449
	c0.469,0,0.783-0.417,0.955-1.284c0.014-0.056,0.021-0.111,0.033-0.17h1.699c-0.031,0.229-0.074,0.452-0.117,0.659
	c-0.506,2.571-1.598,3.724-3.611,3.724c-1.617,0-2.775-0.887-3.672-0.887c-0.449,0-0.736,0.188-0.93,0.567h-1.748
	C160.187,33.573,160.195,33.438,160.22,33.309"/>
<path fill="#FFFFFF" d="M130.231,32.456c0.36-1.817,1.223-3.007,2.809-4.198c0.963-0.736,2.064-1.263,3.076-2.002
	c0.523-0.378,0.895-0.981,1.018-1.608c0.193-0.981-0.338-1.585-1.439-1.585c-0.678,0-1.279,0.243-1.797,0.756h0.082
	c0.801,0,1.158,0.491,0.99,1.341c-0.221,1.113-0.986,1.775-2.002,1.775c-1.018,0-1.531-0.772-1.283-2.022
	c0.432-2.193,2.549-3.893,5.246-3.893c2.73,0,4.15,1.661,3.713,3.893c-0.406,2.062-1.811,3.028-4.441,3.857
	c-1.686,0.532-2.766,0.697-3.264,1.701c0.801-0.435,1.543-0.66,2.277-0.66c0.998,0,1.727,0.451,2.344,0.451
	c0.461,0,0.779-0.416,0.953-1.284c0.008-0.055,0.02-0.111,0.033-0.171h1.695c-0.029,0.23-0.07,0.454-0.113,0.66
	c-0.508,2.572-1.602,3.722-3.611,3.722c-1.619,0-2.775-0.885-3.674-0.885c-0.453,0-0.732,0.188-0.928,0.569h-1.75
	C130.195,32.721,130.205,32.586,130.231,32.456"/>
<path fill="#FFFFFF" d="M147.943,21.02c2.881,0,4.482,2.361,3.746,6.088c-0.729,3.7-3.244,6.066-6.178,6.066
	c-2.879,0-4.461-2.366-3.73-6.066C142.509,23.401,145.011,21.02,147.943,21.02 M147.58,22.853c-1.016,0-1.656,1.382-2.219,4.255
	c-0.568,2.871-0.469,4.229,0.529,4.229c1.016,0,1.637-1.358,2.199-4.229C148.658,24.234,148.56,22.853,147.58,22.853"/>
<path fill="#FFFFFF" d="M153.402,22.814c1.357-0.116,2.246-0.587,2.705-1.472h2.631l-1.787,9.071
	c-0.131,0.66,0.084,0.774,1.031,0.774h0.381l-0.326,1.665h-6.613l0.328-1.665h0.451c1.268,0,1.326-0.23,1.492-1.077
	c0.008-0.038,0.01-0.056,0.014-0.076l1.092-5.539h-1.73L153.402,22.814z"/>
<path fill="#FFFFFF" d="M159.367,32.456c0.357-1.817,1.223-3.007,2.809-4.198c0.957-0.736,2.062-1.263,3.078-2.002
	c0.52-0.378,0.889-0.981,1.014-1.608c0.191-0.981-0.336-1.585-1.439-1.585c-0.68,0-1.283,0.243-1.793,0.756h0.082
	c0.799,0,1.15,0.491,0.98,1.341c-0.219,1.113-0.979,1.775-1.996,1.775s-1.527-0.772-1.283-2.022
	c0.434-2.193,2.549-3.893,5.248-3.893c2.729,0,4.152,1.661,3.715,3.893c-0.406,2.062-1.818,3.028-4.445,3.857
	c-1.686,0.532-2.766,0.697-3.26,1.701c0.799-0.435,1.541-0.66,2.275-0.66c0.998,0,1.727,0.451,2.338,0.451
	c0.469,0,0.783-0.416,0.959-1.284c0.01-0.055,0.02-0.111,0.029-0.171h1.701c-0.033,0.23-0.076,0.454-0.117,0.66
	c-0.508,2.572-1.598,3.722-3.613,3.722c-1.615,0-2.773-0.885-3.67-0.885c-0.451,0-0.738,0.188-0.932,0.569H159.3
	C159.332,32.721,159.339,32.586,159.367,32.456"/>
<path fill="#141006" d="M179.314,26.256c0,0,0.342,2.432,2.66,2.88l-3.26,0.044L179.314,26.256z"/>
<path fill="#141006" d="M158.642,129.511c0,0-3.705,0.018-6.242-0.162c-2.529-0.18-5.229-1.066-5.229-1.066
	s-0.971,1.727,1.852,1.654S158.642,129.511,158.642,129.511"/>
<path fill="#141006" d="M133.033,116.453c0,0-2.646,7.43,3.775,11.928c0,0-4.334-2.125-5.053-7.07
	C131.246,117.81,133.033,116.453,133.033,116.453"/>
</svg>
