<?xml version="1.0" encoding="UTF-8" standalone="no"?>
<svg
   xmlns:dc="http://purl.org/dc/elements/1.1/"
   xmlns:cc="http://creativecommons.org/ns#"
   xmlns:rdf="http://www.w3.org/1999/02/22-rdf-syntax-ns#"
   xmlns:svg="http://www.w3.org/2000/svg"
   xmlns="http://www.w3.org/2000/svg"
   viewBox="0 0 519.33331 519.33331"
   height="519.33331"
   width="519.33331"
   xml:space="preserve"
   id="svg2"
   version="1.1"><metadata
     id="metadata8"><rdf:RDF><cc:Work
         rdf:about=""><dc:format>image/svg+xml</dc:format><dc:type
           rdf:resource="http://purl.org/dc/dcmitype/StillImage" /></cc:Work></rdf:RDF></metadata><defs
     id="defs6" /><g
     transform="matrix(1.3333333,0,0,-1.3333333,0,519.33333)"
     id="g10"><g
       transform="scale(0.1)"
       id="g12"><path
         id="path14"
         style="fill:#03a3b2;fill-opacity:1;fill-rule:nonzero;stroke:none"
         d="m 3284.18,2656.6 99.32,502.37 h -197.35 l 29.98,151.58 h -218.22 c -79.98,0 -136.25,33.85 -137.95,133.26 h -146.8 c -12.57,31.08 -30.2,59.96 -52.86,85.6 -57.51,64.93 -139.34,100.75 -230.51,100.75 -88.73,0 -176.13,-34.26 -245.93,-96.37 -29.75,-26.57 -54.89,-56.96 -74.83,-89.98 h -133.85 c -15.2,-35.55 -41.26,-64.18 -78.05,-84.49 -55.49,190.45 -231.48,330.11 -439.61,330.11 -252.47,0 -457.883,-205.42 -457.883,-457.89 0,-50.06 8.193,-98.17 23.073,-143.3 H 559.387 L 530.563,2966.4 c 42.593,-44.89 49.132,-105.58 41.257,-164.93 L 367.973,1944.31 H 644.344 L 253.547,300.91 1646.08,642.488 2811.33,261.039 3106.81,1758.79 c 24.96,-4.19 50.65,-6.54 76.76,-6.54 252.47,0 457.89,205.37 457.89,457.84 0,217.85 -153.06,400.56 -357.28,446.51" /><path
         id="path16"
         style="fill:#211c1d;fill-opacity:1;fill-rule:nonzero;stroke:none"
         d="m 3212.28,2605.88 97.21,492.24 h -197.36 l 30.02,151.54 h -120.22 c -30.35,0 -57.38,2.11 -81.28,6.12 -76.48,16.9 -128.24,67.23 -135.05,126.77 -0.05,0.14 -0.05,0.32 -0.09,0.46 h -137.17 c -24.09,108.39 -117.38,186.3 -238.52,186.3 -121.11,0 -233.55,-77.91 -284.25,-186.3 h -135.61 c -18.14,-30.81 -63.45,-81.37 -158.03,-106.14 -22.56,197.95 -190.49,351.7 -394.43,351.7 -219.27,0 -397.01,-177.74 -397.01,-397.01 0,-74.68 20.63,-144.45 56.4,-204.12 l -509.363,-0.05 -11.371,-48.03 c 25.832,-35.96 48.668,-95.31 35.547,-189.06 L 444.984,2005.16 h 0.047 276.324 L 335.766,383.73 h 0.043 L 1648.5,705.691 2764.99,340.219 3059.73,1832.9 c 38.96,-12.75 80.58,-19.8 123.86,-19.8 219.28,0 397.02,177.7 397.02,396.97 0,209.6 -162.46,381.12 -368.33,395.81" /><path
         id="path18"
         style="fill:#03a3b2;fill-opacity:1;fill-rule:nonzero;stroke:none"
         d="m 3109.71,2631.38 c -67.46,48.85 -136.57,92.14 -206.06,130.49 -10.5,5.81 -23.62,-0.13 -26.43,-11.78 l -33.02,-138.14 c -1.61,-6.86 0.88,-14.05 6.41,-18.38 25.28,-19.89 50.74,-40.7 76.34,-62.3 6.49,-5.43 15.79,-5.66 22.61,-0.64 44.85,32.78 96.84,56.45 153.2,68.15 15.56,3.18 19.84,23.25 6.95,32.6" /><path
         id="path20"
         style="fill:#03a3b2;fill-opacity:1;fill-rule:nonzero;stroke:none"
         d="m 2111.62,3013.11 c 1.52,9.89 -5.25,19.19 -15.15,20.76 -161.34,25.19 -277.75,27.49 -280.19,27.49 82.75,-15.52 181.19,-36.06 272.18,-62.85 10.59,-3.09 21.5,3.68 23.16,14.6" /><path
         id="path22"
         style="fill:#03a3b2;fill-opacity:1;fill-rule:nonzero;stroke:none"
         d="m 2178.62,798.941 c -73.49,16.95 -179.26,47.891 -246.86,66.629 -16.39,4.559 -30.62,-12.058 -23.48,-27.488 l 15.38,-47.102 c 2.76,-5.992 8.38,-10.218 14.83,-11.332 68.56,-11.687 172.35,-27.027 233.96,-35.039 12.34,-1.57 22.98,8.383 22.42,20.77 l -0.78,15.191 c -0.41,8.891 -6.81,16.391 -15.47,18.371" /><path
         id="path24"
         style="fill:#03a3b2;fill-opacity:1;fill-rule:nonzero;stroke:none"
         d="m 698.574,1218.18 c 68.61,-41.17 174.102,-93.48 245.242,-128.29 7.735,-3.82 17.082,-2.17 23.071,4.05 l 80.443,101.86 c 9.02,9.25 6.91,24.49 -4.24,31.03 -121.883,72.06 -225.856,150.2 -281.481,194.36 -11.418,9.03 -28.316,3.13 -31.679,-11.09 l -40.477,-170.15 c -2.023,-8.42 1.66,-17.31 9.121,-21.77" /><path
         id="path26"
         style="fill:#03a3b2;fill-opacity:1;fill-rule:nonzero;stroke:none"
         d="m 2667.46,1263.84 c 0,0 39.83,-8.24 91.95,-8.24 52.22,0 96.98,8.24 96.98,8.24 0,0 -39.79,8.15 -92.01,8.15 -52.07,0 -96.92,-8.15 -96.92,-8.15" /><path
         id="path28"
         style="fill:#03a3b2;fill-opacity:1;fill-rule:nonzero;stroke:none"
         d="m 2448.65,1189.87 c 0,0 68.98,-11.47 159.46,-11.47 90.52,0 168.16,11.47 168.16,11.47 0,0 -68.93,11.41 -159.46,11.41 -90.48,0 -168.16,-11.41 -168.16,-11.41" /><path
         id="path30"
         style="fill:#03a3b2;fill-opacity:1;fill-rule:nonzero;stroke:none"
         d="m 2138.87,953.469 c 0,0 -79.85,11.562 -184.6,11.562 -19.8,0 -39.05,-0.422 -57.29,-1.062 32.14,-7.321 64.56,-14.367 97.3,-21.231 81.73,2.633 144.59,10.731 144.59,10.731" /><path
         id="path32"
         style="fill:#03a3b2;fill-opacity:1;fill-rule:nonzero;stroke:none"
         d="m 2254.3,589.891 c 0,0 98.95,-16.809 225.95,-16.809 126.95,0 233.82,16.809 233.82,16.809 0,0 -98.95,16.851 -225.9,16.851 -127,0 -233.87,-16.851 -233.87,-16.851" /><path
         id="path34"
         style="fill:#ffffff;fill-opacity:1;fill-rule:nonzero;stroke:none"
         d="m 1663.65,3142.25 31.5,47.8 1.52,-47.8 z m -126.21,-0.55 31.54,47.79 1.71,-47.79 z m 115.62,92 -9.67,-34.07 h 12.71 l -40.29,-63.92 -5.62,97.99 h -82.83 l -9.4,-33.94 12.67,-0.13 -54.06,-82.02 -44.53,0.19 c -1.2,0 -3.18,0.27 -5.53,1.01 -7.04,2.26 -17.17,8.89 -17.17,25.51 v 0.05 c 0,15.33 9.99,35.41 23.3,46.51 6.08,5.01 12.75,8.19 19.52,8.19 l 9.03,-0.23 c -1.52,-5.52 -4.7,-16.95 -4.7,-16.95 h 39.6 l 14.23,51.81 -61.06,0.23 c -9.44,0 -18.51,-1.71 -26.84,-4.75 -8.66,-3.08 -16.53,-7.59 -23.53,-13.03 -0.6,-0.46 -1.29,-0.87 -1.94,-1.33 -0.87,-0.78 -1.65,-1.61 -2.53,-2.39 -1.52,-1.3 -3.08,-2.63 -4.47,-4.01 -0.13,-0.19 -0.27,-0.32 -0.46,-0.51 -6.4,-6.53 -11.6,-13.86 -15.33,-21.46 -0.14,-0.32 -0.23,-0.64 -0.37,-1.01 -1.1,-2.26 -2.12,-4.51 -2.85,-6.81 v 0.04 0.05 l 15.79,54.75 -54.29,0.23 -9.67,-34.07 14.09,0.13 h -0.04 0.04 l -14.09,-49.91 -35.64,83.62 h -50.83 l -9.53,-33.84 h 13.99 l -31.58,-114.84 h 40.7 c 0,0 15.61,56.91 19.71,71.55 5.75,-13.81 29.56,-71.55 29.56,-71.55 h 45.31 l 20.72,72.93 c -0.92,-5.38 -1.43,-10.96 -1.43,-16.53 0,-5.62 0.46,-11.28 1.43,-16.9 3.96,-23.99 27.21,-39.5 52.63,-39.5 h 82.2 l 14.13,21.27 h 57.97 l 1.2,-21.09 h 51.39 l 13.08,21.09 h 59.35 l 2.3,-21.27 h 36.33 l 8.15,16.2 -9.3,132.71 h -81.55" /><path
         id="path36"
         style="fill:#1d5fad;fill-opacity:1;fill-rule:nonzero;stroke:none"
         d="m 1663.65,3142.25 h 33.02 l -1.52,47.8 z" /><path
         id="path38"
         style="fill:#1d5fad;fill-opacity:1;fill-rule:nonzero;stroke:none"
         d="m 1537.46,3141.69 h 33.24 l -1.7,47.84 z" /><path
         id="path40"
         style="fill:#1d5fad;fill-opacity:1;fill-rule:nonzero;stroke:none"
         d="m 1457.46,2916.92 c 120.73,0 225.58,67.97 278.3,167.89 h -36.33 l -2.3,21.23 h -59.35 l -13.08,-21.09 h -51.39 l -1.2,21.09 h -57.97 l -14.13,-21.23 h -82.2 c -25.42,0 -48.67,15.51 -52.63,39.51 -0.97,5.57 -1.43,11.28 -1.43,16.85 0,5.57 0.51,11.14 1.43,16.53 l -20.72,-72.89 h -45.31 c 0,0 -23.81,57.74 -29.56,71.51 -4.1,-14.64 -19.71,-71.51 -19.71,-71.51 h -40.7 l 31.58,114.84 h -13.99 l 9.53,33.84 h 50.83 l 35.64,-83.62 14.09,49.87 h -0.04 l -14.05,-0.09 9.67,34.03 54.29,-0.19 -15.79,-54.75 c 0.83,2.26 1.79,4.47 2.85,6.72 0.14,0.33 0.23,0.7 0.37,1.02 3.73,7.55 8.93,14.91 15.33,21.45 0.19,0.14 0.33,0.33 0.46,0.51 1.39,1.34 2.95,2.72 4.47,4.01 0.88,0.78 1.66,1.61 2.58,2.35 0.6,0.46 1.29,0.92 1.89,1.38 7,5.39 14.87,9.95 23.53,13.03 8.33,2.99 17.4,4.7 26.84,4.7 l 61.06,-0.23 -14.23,-51.76 h -39.6 c 0,0 3.18,11.42 4.7,16.94 l -9.03,0.19 c -6.77,0 -13.44,-3.13 -19.52,-8.2 -13.26,-11.05 -23.3,-31.13 -23.3,-46.51 0,-16.66 10.13,-23.25 17.17,-25.5 2.35,-0.74 4.33,-1.02 5.53,-1.02 l 44.53,-0.18 54.06,82.01 -12.67,0.09 v 0.05 l 9.4,33.89 h 82.83 l 5.62,-97.95 40.29,63.92 h -12.71 l 9.67,34.03 h 81.55 l 9.3,-132.66 c 18.01,39.78 28.23,83.98 28.23,130.53 0,173.74 -140.9,314.64 -314.68,314.64 -173.73,0 -314.64,-140.9 -314.64,-314.64 0,-173.73 140.91,-314.63 314.64,-314.63" /><path
         id="path42"
         style="fill:#1d5fad;fill-opacity:1;fill-rule:nonzero;stroke:none"
         d="m 1775.17,2997.53 c 0,-3.92 -3.91,-5.53 -8.74,-5.53 h -4.19 v 10.82 c 0.92,0.23 2.57,0.46 4.88,0.46 5.52,0 8.05,-2.3 8.05,-5.75 m -21.91,10.82 v -37.81 h 8.79 v 15.25 h 4.15 c 4.83,0 7.13,-1.9 7.82,-6.04 1.15,-4.37 1.84,-7.83 3,-9.21 h 9.44 c -0.88,1.38 -1.62,3.69 -2.77,9.44 -1.15,5.07 -3.22,7.88 -6.9,9.21 v 0.51 c 4.6,1.38 7.87,4.6 7.87,8.75 0,3.68 -1.66,6.68 -3.73,8.28 -2.76,1.62 -5.99,2.77 -13.17,2.77 -6.22,0 -11,-0.46 -14.5,-1.15" /><path
         id="path44"
         style="fill:#1d5fad;fill-opacity:1;fill-rule:nonzero;stroke:none"
         d="m 1797.07,2990.15 c 0,-16.62 -12.2,-29.97 -28.82,-29.97 -17.08,0 -29.52,13.35 -29.52,30.2 0,16.62 12.44,30.21 29.29,30.21 16.85,0 29.05,-13.59 29.05,-30.44 m -68.05,0.23 c 0,-21.46 17.31,-38.31 39,-38.31 21.92,0 38.77,16.85 38.77,38.31 0,20.95 -16.85,37.8 -38.77,37.8 -21.69,0 -39,-16.85 -39,-37.8" /><path
         id="path46"
         style="fill:#eb1a2c;fill-opacity:1;fill-rule:nonzero;stroke:none"
         d="m 3117.8,2759.74 42.46,214.57 h -518.72 c 229.09,-69.57 415.2,-177.09 476.26,-214.57" /><path
         id="path48"
         style="fill:#eb1a2c;fill-opacity:1;fill-rule:nonzero;stroke:none"
         d="M 533.09,582.449 1418.1,799.512 C 1165.4,871.211 902.844,970.441 657.969,1107.56 L 533.09,582.449" /><path
         id="path50"
         style="fill:#eb1a2c;fill-opacity:1;fill-rule:nonzero;stroke:none"
         d="m 2184.47,2965.13 c 31.22,-11.1 76.39,-26.53 108.48,-39.65 6.54,-2.67 14.05,-1.38 19.2,3.41 l 27.58,25.5 c 10.6,9.77 6.18,27.5 -7.82,30.99 -39.37,9.91 -90.94,22.01 -127.32,29.48 -7.05,1.42 -14.23,-1.48 -18.42,-7.33 l -10.45,-14.73 c -7.05,-9.85 -2.67,-23.62 8.75,-27.67" /><path
         id="path52"
         style="fill:#eb1a2c;fill-opacity:1;fill-rule:nonzero;stroke:none"
         d="m 1810.14,899.629 c -80.68,25.641 -191.88,68.332 -263.3,95.5 -9.48,3.59 -20.12,-0.559 -24.72,-9.629 l -31.55,-78.371 c -5.66,-11.231 0.37,-24.91 12.48,-28.27 91.17,-25.14 212.18,-53.828 298.48,-71.968 12.52,-2.672 24.22,7.23 23.94,20.031 l -1.38,54.289 c -0.23,8.469 -5.85,15.84 -13.95,18.418" /><path
         id="path54"
         style="fill:#eb1a2c;fill-opacity:1;fill-rule:nonzero;stroke:none"
         d="m 2553.78,710.141 c 88.32,-4.289 139.11,-3.832 139.11,-3.832 -128.33,17.043 -284.94,42.5 -399.96,65.531 -8.84,1.789 -17.73,-2.629 -21.69,-10.781 -6.12,-12.477 2.12,-27.161 15.98,-28.59 92.09,-9.117 205.78,-19.387 266.56,-22.328" /><path
         id="path56"
         style="fill:#eb1a2c;fill-opacity:1;fill-rule:nonzero;stroke:none"
         d="m 3258.82,2058.2 c -2.12,-15.51 -4.6,-31.17 -7.51,-46.92 -7.73,-41.62 -18.55,-84.22 -32.64,-127.13 62.3,6.54 119.53,30.3 166.78,66.4 105.58,124.92 96.88,222.54 53.37,301.46 -22.84,-73.81 -79.8,-143.57 -180,-193.81" /><path
         id="path58"
         style="fill:#eb1a2c;fill-opacity:1;fill-rule:nonzero;stroke:none"
         d="m 2954.8,2036.65 c 7.87,-38.64 28.41,-76.63 67.13,-112.4 45.87,-25.56 98.36,-40.53 154.35,-41.72 18.56,53.87 31.5,106.32 39.88,156.83 -90.57,-34.4 -188.52,-34.72 -261.36,-2.71" /><path
         id="path60"
         style="fill:#eb1a2c;fill-opacity:1;fill-rule:nonzero;stroke:none"
         d="m 3482.08,2362.86 c -12.8,13.08 -26.2,25.09 -40.01,36.05 7.41,-29.51 10.26,-60 7.73,-90.52 32.42,-46.1 58.16,-100.29 59.36,-162.96 4.78,22.51 7.41,45.86 7.41,69.8 0,53.05 -12.48,103.1 -34.49,147.63" /><path
         id="path62"
         style="fill:#eb1a2c;fill-opacity:1;fill-rule:nonzero;stroke:none"
         d="m 2868.28,2108.55 c 11.74,-34.86 29.15,-67.14 51.07,-95.78 -4.98,16.58 -7.83,33.11 -8.75,49.68 -16.9,12.94 -31.22,28.28 -42.32,46.1" /><path
         id="path64"
         style="fill:#ef6419;fill-opacity:1;fill-rule:nonzero;stroke:none"
         d="m 2148.67,3134.79 h -107.15 l 4.93,22.05 5.52,4.05 h 77.78 l 29.56,21.32 14.36,63.96 -23.43,25.14 h -104.02 l -33.66,-24.35 -6.77,-29.84 h 54.75 l 3.59,16.02 4.83,3.32 h 43.79 l 3.27,-3.32 -7.04,-31.35 -5.44,-3.74 h -77.81 l -29.34,-21.59 -17.59,-78.33 h 161.58 l 8.29,36.66" /><path
         id="path66"
         style="fill:#ef6419;fill-opacity:1;fill-rule:nonzero;stroke:none"
         d="m 2275.26,3227.89 11.74,8.57 h 41.16 l 7.88,-8.57 -19.39,-86.34 -11.65,-8.51 h -41.21 l -7.87,8.51 z m 55.57,-129.76 36.79,26.62 26.99,119.95 -24.87,26.61 h -108.9 l -36.51,-26.61 -26.94,-119.95 24.54,-26.62 h 108.9" /><path
         id="path68"
         style="fill:#ef6419;fill-opacity:1;fill-rule:nonzero;stroke:none"
         d="m 2542.04,3133.28 h -37.43 l 30.9,138.05 h -92.7 l -7.78,-34.9 h 37.99 l -23.21,-103.15 h -38.03 l -7.87,-35.13 h 130.21 l 7.92,35.13" /><path
         id="path70"
         style="fill:#ef6419;fill-opacity:1;fill-rule:nonzero;stroke:none"
         d="m 2637.19,3163.9 8.61,6.26 h 49.87 l 5.48,-6.26 -6.03,-26.84 -8.33,-6.31 h -49.83 l -5.8,6.31 z m 15.75,68.75 8.61,6.31 h 48.95 l 5.8,-6.31 -5.39,-24.08 -8.65,-6.27 h -48.95 l -5.8,6.27 z m 60.55,-134.5 33.02,24.08 9.94,44.2 -18.51,20.36 27.17,19.52 9.21,40.94 -22.29,24.08 h -117.55 l -32.74,-24.08 -9.21,-40.94 18.09,-19.52 -27.62,-20.36 -9.9,-44.2 22.24,-24.08 h 118.15" /><path
         id="path72"
         style="fill:#ef6419;fill-opacity:1;fill-rule:nonzero;stroke:none"
         d="m 1136.17,1356.65 26.84,16.76 9.03,39.46 -16.44,14.23 h -64.69 l -2.95,2.72 3.73,16.02 5.39,3.55 h 33.98 l 4.23,-3.69 -2.11,-9.53 h 43.69 l 4.47,19.71 -18.74,16.25 h -85.78 l -26.94,-16.71 -8.8,-38.82 16.4,-14.41 h 64.69 l 2.9,-2.53 -3.77,-16.76 -5.39,-3.32 h -35.13 l -4.29,3.5 2.12,9.58 h -43.65 l -4.47,-19.76 18.79,-16.25 h 86.89" /><path
         id="path74"
         style="fill:#ef6419;fill-opacity:1;fill-rule:nonzero;stroke:none"
         d="m 1263.94,1410.54 23.72,41.31 h 4.42 l 4.65,-41.31 z m 91.18,61.57 h -115.86 l -4.65,-20.95 h 16.58 l -45.59,-73.4 h -8.93 l -4.83,-21.09 h 61.51 l 4.61,20.58 h -12.94 l 7.37,12.71 h 46.69 l 1.47,-12.71 h -11.79 l -4.69,-20.58 h 65.24 l 4.79,21.09 h -9.02 l -12.25,73.4 h 17.59 l 4.7,20.95" /><path
         id="path76"
         style="fill:#ef6419;fill-opacity:1;fill-rule:nonzero;stroke:none"
         d="m 1481.96,1356.67 h 44.67 l 21.27,94.03 h 12.99 l 4.88,21.41 h -66.86 l -4.84,-21.41 h 15.71 l -10.5,-46.32 -35.73,67.73 h -58.3 l -4.83,-21.41 h 14.09 l -16.44,-72.48 h -14.09 l -4.93,-21.55 h 67.32 l 4.83,21.55 h -14.96 l 10.68,47.25 35.04,-68.8" /><path
         id="path78"
         style="fill:#ef6419;fill-opacity:1;fill-rule:nonzero;stroke:none"
         d="m 1722.32,1410.54 23.71,41.31 h 4.42 l 4.65,-41.31 z m 91.21,61.57 h -115.89 l -4.7,-20.95 h 16.62 l -45.58,-73.4 h -8.94 l -4.79,-21.09 h 61.48 l 4.6,20.58 h -12.89 l 7.32,12.71 h 46.69 l 1.43,-12.71 h -11.75 l -4.64,-20.58 h 65.2 l 4.83,21.09 h -9.12 l -12.2,73.4 h 17.59 l 4.74,20.95" /><path
         id="path80"
         style="fill:#ef6419;fill-opacity:1;fill-rule:nonzero;stroke:none"
         d="M 1940.34,1356.67 H 1985 l 21.32,94.03 h 12.94 l 4.83,21.41 h -66.81 l -4.88,-21.41 h 15.75 l -10.5,-46.32 -35.73,67.73 h -58.3 l -4.83,-21.41 h 14.09 l -16.44,-72.48 h -14.04 l -4.98,-21.55 h 67.32 l 4.93,21.55 h -15.06 l 10.69,47.25 35.04,-68.8" /><path
         id="path82"
         style="fill:#ef6419;fill-opacity:1;fill-rule:nonzero;stroke:none"
         d="m 2185.19,1429.79 9.62,42.32 h -145.42 l -9.57,-42.32 h 33.2 l 4.83,21.09 h 17.31 l -16.53,-73.12 h -20.86 l -4.74,-21.09 h 85.74 l 4.83,21.09 h -21.04 l 16.58,73.12 h 17.31 l -4.83,-21.09 h 33.57" /><path
         id="path84"
         style="fill:#ef6419;fill-opacity:1;fill-rule:nonzero;stroke:none"
         d="m 2261.63,1443.17 9.12,5.66 h 33.06 l 6.63,-5.66 -13.12,-57.56 -9.17,-5.71 h -33.06 l -6.54,5.71 z m 48.4,-86.53 28.73,17.73 18.14,79.99 -20.72,17.77 h -87.44 l -28.46,-17.77 -18.19,-79.99 20.45,-17.73 h 87.49" /><path
         id="path86"
         style="fill:#ef6419;fill-opacity:1;fill-rule:nonzero;stroke:none"
         d="m 2471.54,1356.67 h 44.66 l 21.28,94.03 h 12.93 l 4.88,21.41 h -66.81 l -4.83,-21.41 h 15.7 l -10.45,-46.32 -35.78,67.73 h -58.3 l -4.83,-21.41 h 14.14 l -16.49,-72.48 h -14.09 l -4.88,-21.55 h 67.27 l 4.88,21.55 h -15.01 l 10.69,47.25 35.04,-68.8" /><path
         id="path88"
         style="fill:#ef6419;fill-opacity:1;fill-rule:nonzero;stroke:none"
         d="m 2655.95,1451.17 4.78,20.95 h -75.65 l -4.74,-20.95 h 15.97 l -16.66,-73.44 h -15.98 l -4.75,-21.09 h 75.57 l 4.79,21.09 h -15.94 l 16.67,73.44 h 15.94" /><path
         id="path90"
         style="fill:#ef6419;fill-opacity:1;fill-rule:nonzero;stroke:none"
         d="m 2767.78,1385.61 -9.16,-5.71 h -33.06 l -6.63,5.71 13.12,57.56 9.07,5.66 h 33.16 l 6.53,-5.66 z m -48.62,86.52 -28.51,-17.77 -18.14,-79.99 20.45,-17.73 h 87.44 l 28.73,17.73 18.19,79.99 -20.77,17.77 h -87.39" /><path
         id="path92"
         style="fill:#ef6419;fill-opacity:1;fill-rule:nonzero;stroke:none"
         d="m 3438.83,2252.03 c -26.07,47.39 -64.65,88.14 -98.73,123.96 -36.84,38.91 -65.94,69.85 -71,100.47 -15.52,2.49 -31.22,3.73 -47.02,4.06 35.83,-102.09 59.68,-253.3 36.75,-422.3 100.2,50.24 157.16,120 180,193.81" /><path
         id="path94"
         style="fill:#ef6419;fill-opacity:1;fill-rule:nonzero;stroke:none"
         d="m 3271.28,2515.95 c 2.07,6.58 5.01,12.57 8.88,17.96 -27.58,8.33 -56.73,13.12 -86.84,14.04 4.51,-8.65 9.07,-18.1 13.49,-28.23 21.64,0.47 43.19,-0.69 64.47,-3.77" /><path
         id="path96"
         style="fill:#ef6419;fill-opacity:1;fill-rule:nonzero;stroke:none"
         d="m 3112.68,2505.99 c 17.17,4.65 34.39,8.15 51.66,10.45 -5.39,11.52 -10.68,21.46 -15.79,29.89 -22.52,-2.35 -44.39,-6.96 -65.3,-13.54 11.75,-6.68 21.78,-15.75 29.43,-26.8" /><path
         id="path98"
         style="fill:#ef6419;fill-opacity:1;fill-rule:nonzero;stroke:none"
         d="m 3180.09,2478.78 c -19.62,-1.93 -39.19,-5.66 -58.62,-11 0,-0.19 0.09,-0.37 0.09,-0.51 4.01,-33.52 -23.58,-75.29 -61.66,-133.12 -55.94,-85 -126.39,-193.58 -105.12,-297.51 72.85,-32 170.79,-31.72 261.36,2.72 30.76,185.66 -0.05,343.51 -36.05,439.42" /><path
         id="path100"
         style="fill:#ef6419;fill-opacity:1;fill-rule:nonzero;stroke:none"
         d="m 3321.37,2518.33 c -2.67,-1.24 -5.3,-2.9 -7.51,-5.43 -1.24,-1.43 -2.34,-3.13 -3.17,-5.07 24.49,-6.21 48.58,-14.64 71.88,-25.65 -18.93,14.14 -39.42,26.25 -61.2,36.15" /><path
         id="path102"
         style="fill:#ef6419;fill-opacity:1;fill-rule:nonzero;stroke:none"
         d="m 3442.06,2398.9 c -39.09,30.99 -81.87,53.64 -126.76,67.14 10.68,-17.69 31.77,-40.02 54.01,-63.36 25.14,-26.43 54.89,-57.84 80.49,-94.26 2.53,30.48 -0.32,60.96 -7.74,90.48" /><path
         id="path104"
         style="fill:#ef6419;fill-opacity:1;fill-rule:nonzero;stroke:none"
         d="m 3054.76,2502.89 c -11.14,3.96 -23.53,4.37 -36.19,1.47 -74.37,-42.55 -130.68,-112.91 -154.81,-196.99 45.91,84.82 118.29,150.48 207.95,185.39 -4.79,4.33 -10.46,7.82 -16.95,10.13" /><path
         id="path106"
         style="fill:#ef6419;fill-opacity:1;fill-rule:nonzero;stroke:none"
         d="m 3081.43,2454.21 c -118.89,-48.31 -203.39,-157.34 -226.23,-293.46 2.95,-17.91 7.37,-35.36 13.08,-52.21 11.1,-17.82 25.42,-33.16 42.31,-46.1 -6.4,107.06 63.27,213.01 115.9,292.95 24.92,37.9 50.56,76.85 54.94,98.82" /><path
         id="path108"
         style="fill:#ffffff;fill-opacity:1;fill-rule:nonzero;stroke:none"
         d="m 2892.2,1731.38 h -4.14 v 10.82 c 0.92,0.23 2.53,0.46 4.83,0.46 5.53,0 8.06,-2.3 8.06,-5.75 0,-3.92 -3.91,-5.53 -8.75,-5.53 m 10.41,-2.81 v 0.51 c 4.56,1.38 7.83,4.61 7.83,8.75 0,3.68 -1.66,6.68 -3.73,8.29 -2.72,1.61 -5.94,2.81 -13.12,2.81 -6.22,0 -11.1,-0.46 -14.51,-1.2 v -37.8 h 8.7 v 15.24 h 4.19 c 4.84,0 7.09,-1.89 7.83,-6.04 1.15,-4.37 1.84,-7.82 2.99,-9.2 h 9.49 c -0.92,1.38 -1.66,3.68 -2.76,9.43 -1.15,5.12 -3.23,7.88 -6.91,9.21" /><path
         id="path110"
         style="fill:#ffffff;fill-opacity:1;fill-rule:nonzero;stroke:none"
         d="m 2894.05,1699.55 c -17.09,0 -29.57,13.4 -29.57,30.2 0,16.63 12.48,30.21 29.34,30.21 16.8,0 29.05,-13.58 29.05,-30.44 0,-16.57 -12.25,-29.97 -28.82,-29.97 m -0.23,68.05 c -21.69,0 -39.01,-16.85 -39.01,-37.85 0,-21.45 17.32,-38.26 39.01,-38.26 21.91,0 38.72,16.81 38.72,38.26 0,21 -16.81,37.85 -38.72,37.85" /><path
         id="path112"
         style="fill:#ffffff;fill-opacity:1;fill-rule:nonzero;stroke:none"
         d="m 1429.87,1661.01 84.31,352.9 c 2.21,9.3 9.9,13.68 23.99,13.68 h 53.42 c 14.13,0 19.52,-4.38 17.45,-13.68 l -84.36,-352.9 c -2.3,-9.49 -9.76,-13.9 -23.85,-13.9 h -53.6 c -14.18,0 -19.66,4.41 -17.36,13.9 m 257.68,-60.5 113.27,473.95 -77.91,65.02 h -266.84 l -104.48,-65.02 -113.18,-473.95 73.26,-65.21 h 280.61 l 95.27,65.21" /><path
         id="path114"
         style="fill:#ffffff;fill-opacity:1;fill-rule:nonzero;stroke:none"
         d="M 2367.76,2139.48 H 2190.43 L 2076.1,1661.02 c -2.35,-9.49 -9.86,-13.91 -24.09,-13.91 h -47.98 c -14.36,0 -19.66,4.42 -17.35,13.91 l 114.33,478.46 h -183.45 l -0.05,-0.04 h -22.05 l -2.54,-10.45 c 8.89,-9.81 18.88,-27.54 14.32,-59.08 l -112.16,-469.45 75.33,-65.2 h 272.55 l 95.96,65.2 128.84,539.02" /><path
         id="path116"
         style="fill:#ffffff;fill-opacity:1;fill-rule:nonzero;stroke:none"
         d="m 2590.56,1866.76 38.45,161.48 h 91.63 c 14.28,0 19.62,-4.37 17.32,-13.77 l -32.01,-134.22 c -2.21,-9.17 -9.76,-13.49 -23.89,-13.49 z m 305.84,69.48 c -52.58,55.07 -89.37,125.2 -103.42,203.2 l -343,0.09 -2.48,-10.26 c 8.24,-9.07 19.2,-28 14.41,-58.81 l -127.83,-535.19 h 128.15 c 21.83,0 52.36,13.21 56.18,29.74 l 45.49,190.5 h 36.06 l 55.85,-220.24 h 138.05 c 22.1,0 37.29,13.49 34.21,30.02 l -53.37,206.29 95.36,54.93 26.34,109.73" /><path
         id="path118"
         style="fill:#ffffff;fill-opacity:1;fill-rule:nonzero;stroke:none"
         d="m 886.961,1458.52 c 10.73,-8.01 21.641,-16.07 32.785,-24.03 l 73.121,304.5 h 142.103 c 21.92,0 34.3,8.47 39.64,24.04 l 35.27,87.95 h -190.26 l 3.82,15.97 38.41,160.57 h 172.35 c 21.92,0 42.91,13.53 47.01,30.07 l 19.52,81.91 H 860.117 l -3.961,-16.11 c 13.77,-15.2 29.239,-42.5 21.871,-91.59 l -113.55,-475.34 c 10.406,-8.93 21.136,-17.91 32.14,-26.98 28.274,-23.39 58.391,-47.11 90.344,-70.96" /><path
         id="path120"
         style="fill:#ffffff;fill-opacity:1;fill-rule:nonzero;stroke:none"
         d="m 786.887,2181.37 84.398,351.75 h 142.055 c 22.01,0 34.35,8.51 39.65,24.08 l 35.36,87.85 H 898.039 l 42.227,176.59 h 172.354 c 21.91,0 42.86,13.49 46.96,30.07 l 19.57,81.92 H 738.535 l -3.961,-16.08 c 13.817,-15.23 29.196,-42.54 21.828,-91.58 L 595.285,2151.3 h 144.817 c 22.515,0 42.82,13.21 46.785,30.07" /><path
         id="path122"
         style="fill:#ffffff;fill-opacity:1;fill-rule:nonzero;stroke:none"
         d="m 2265.86,2723.65 h 7.04 l -26.84,-279.04 h -88.18 z m -208.73,-492.28 c 12.8,0 21.69,4.42 26.34,13.03 l 37.2,96.65 h 114.38 l -8.89,-96.65 c 0.51,-8.61 7.05,-13.03 20.08,-13.03 h 156.47 l 19.66,574.43 c -1.11,16.39 -19.53,29.84 -41.4,29.84 h -252.88 l -2.49,-10.27 c 9.62,-10.64 22.38,-29.89 3.55,-66.77 l 0.64,-0.23 -228.16,-527 h 155.5" /><path
         id="path124"
         style="fill:#ffffff;fill-opacity:1;fill-rule:nonzero;stroke:none"
         d="m 1078.68,2231.35 h 137.44 c 21.83,0 42.92,13.49 46.74,30.07 l 137.36,574.2 h -205.55 l -2.49,-10.23 c 8.84,-9.8 18.79,-27.44 14.37,-58.89 l -127.87,-535.15" /><path
         id="path126"
         style="fill:#ffffff;fill-opacity:1;fill-rule:nonzero;stroke:none"
         d="m 1367.1,2231.35 h 125.57 c 21.96,0 42.91,13.49 46.92,30.07 l 70.72,290.64 51.67,-302.98 c 4.42,-11.79 17.17,-17.73 34.76,-17.73 h 130.73 l 144.22,604.27 h -165.31 l -68.43,-285.91 -46.59,268.5 c -3.6,10.27 -13.54,16.03 -27.68,17.41 h -181.19 l -2.44,-10.23 c 7.09,-7.92 15.01,-20.72 15.52,-41.67 0.18,-7 -0.42,-14.87 -2.21,-23.8 L 1367.1,2231.35" /><path
         id="path128"
         style="fill:#ffffff;fill-opacity:1;fill-rule:nonzero;stroke:none"
         d="m 2696.06,1003.91 14.91,80.35 h -84.91 c -40.98,0 -144.58,8.75 -222.12,54.88 -273.7,163.1 -473.04,159.69 -572.41,159.69 -24.86,0 -134.77,-3.08 -241.37,-24.31 h 0.09 c 101.44,8.84 347.24,44.85 665.46,-145.74 77.32,-46.32 153.84,-60.55 208.23,-60.55 h 30.94 l -25.19,-115.941 h 97.3 l -25.74,-132.801 c 62.07,-10.679 124.83,-20.437 188.05,-29.238 l 32,162.309 -177.04,-0.27 111.8,51.621" /><path
         id="path130"
         style="fill:#ffffff;fill-opacity:1;fill-rule:nonzero;stroke:none"
         d="m 1955.34,1055.93 c -46.28,13.91 -98.22,23.02 -156.47,25.37 -57.7,0.74 -113,-6.4 -165.63,-19.25 34.31,-12.94 68.93,-25.55 104.07,-37.75 58.93,21.45 122.85,34.48 189.94,33.61 9.62,-0.37 18.92,-1.06 28.09,-1.98" /><path
         id="path132"
         style="fill:#ffffff;fill-opacity:1;fill-rule:nonzero;stroke:none"
         d="m 2430.03,2955.43 c -9.21,2.77 -18.92,-2.16 -22.29,-11.18 l -15.33,-44.16 c -3.27,-8.8 0.65,-18.51 9.07,-22.61 30.62,-14.88 75.24,-39.1 106.46,-56.22 10.55,-5.76 23.71,-0.05 26.52,11.6 l 16.49,68.89 c 2.21,9.11 -2.9,18.46 -11.83,21.54 -31.18,10.73 -78.88,22.98 -109.09,32.14" /><path
         id="path134"
         style="fill:#ffffff;fill-opacity:1;fill-rule:nonzero;stroke:none"
         d="m 1102.13,1022.05 c 91.03,-37.159 194.41,-77.96 284.98,-106.691 13.21,-4.187 26.48,6.032 25.92,19.84 l -4.14,102.091 c -0.32,7.6 -5.02,14.32 -11.97,17.36 -87.31,38.36 -177.33,83.44 -247.64,120.73 -11.42,6.04 -25.46,-0.18 -28.64,-12.75 l -30.35,-117.19 c -2.44,-9.62 2.63,-19.62 11.84,-23.39" /><path
         id="path136"
         style="fill:#ffffff;fill-opacity:1;fill-rule:nonzero;stroke:none"
         d="m 2683.2,2343.32 117.6,492.28 h -205.55 l -2.49,-10.22 c 8.24,-9.12 19.11,-28 14.41,-58.9 l -127.91,-535.15 h 307.77 c 3.82,58.53 17.91,100.48 22.19,111.99 H 2683.2" /><path
         id="path138"
         style="fill:#d7bd86;fill-opacity:1;fill-rule:nonzero;stroke:none"
         d="m 2469.69,952.309 25.19,115.941 h -30.94 c -54.39,0 -130.92,14.23 -208.23,60.55 -318.22,190.54 -564.02,154.54 -665.46,145.74 -76.67,-12.99 -170.28,-35.55 -277.43,-75.01 17.18,-8.43 34.54,-16.76 52.13,-24.96 50.83,-23.76 103.09,-46.64 156.55,-68.7 85.83,26.25 179.22,40.57 277.71,34.81 261.54,-21.82 400.93,-155.129 463.32,-265.68 91.26,-20.629 184.28,-39.191 278.72,-55.488 l 25.74,132.797 h -97.3" /><path
         id="path140"
         style="fill:#d7bd86;fill-opacity:1;fill-rule:nonzero;stroke:none"
         d="m 809.977,2438.38 c -38.356,-6.86 -75.883,-14.09 -112.723,-21.73 L 642.598,2187.8 h 97.386 c 5.344,0 9.258,2.21 10.641,3.4 l 59.352,247.18" /><path
         id="path142"
         style="fill:#d7bd86;fill-opacity:1;fill-rule:nonzero;stroke:none"
         d="m 2052.35,2267.87 42.23,109.68 h 181.56 l -10.09,-109.68 h 100.29 l 7.6,222.4 c -28.64,2.86 -57.51,5.53 -86.66,7.97 l -8.34,-90.12 h -172.49 l 38.73,100.29 c -26.85,1.57 -53.83,2.95 -81,4.15 l -105.9,-244.69 h 94.07" /><path
         id="path144"
         style="fill:#d7bd86;fill-opacity:1;fill-rule:nonzero;stroke:none"
         d="m 1125.96,2267.87 h 90.02 c 4.65,0 9.03,2.16 10.73,3.68 l 54.33,227.19 c -34.39,-2.85 -68.47,-5.98 -102.17,-9.39 l -52.91,-221.48" /><path
         id="path146"
         style="fill:#d7bd86;fill-opacity:1;fill-rule:nonzero;stroke:none"
         d="m 1797.57,2267.87 59.81,250.63 c -25.32,0.32 -50.79,0.55 -76.34,0.55 -3.96,0 -7.92,-0.05 -11.84,-0.05 l -37.07,-155.04 -26.84,154.58 c -17.08,-0.23 -34.12,-0.46 -51.07,-0.78 l 42.64,-249.89 h 100.71" /><path
         id="path148"
         style="fill:#d7bd86;fill-opacity:1;fill-rule:nonzero;stroke:none"
         d="m 1414.38,2267.87 h 78.14 c 5.11,0 9.35,2.39 10.96,3.82 l 59.26,243.54 c -30.25,-1.06 -60.32,-2.31 -90.16,-3.78 l -58.2,-243.58" /><path
         id="path150"
         style="fill:#d7bd86;fill-opacity:1;fill-rule:nonzero;stroke:none"
         d="m 1696.39,1798.9 c -34.03,-1.2 -67.73,-2.81 -101.25,-4.6 l -33.89,-141.69 c -2.44,-9.99 -13.82,-41.99 -60.32,-41.99 h -53.56 c -20.3,0 -35.73,6.21 -45.72,18.55 -5.2,6.5 -13.26,20.31 -8.29,40.48 l 26.94,112.67 c -34.44,-2.9 -68.47,-6.07 -102.18,-9.57 l -38.17,-159.88 46.18,-41.07 h 254.13 l 73.91,50.56 42.22,176.54" /><path
         id="path152"
         style="fill:#d7bd86;fill-opacity:1;fill-rule:nonzero;stroke:none"
         d="m 2147.73,1799.37 -35.09,-146.75 c -2.49,-10.13 -14.05,-42.04 -60.55,-42.04 h -47.98 c -20.31,0 -35.64,6.26 -45.59,18.47 -5.29,6.44 -13.31,20.21 -8.43,40.42 l 31.91,133.54 c -17.91,0.14 -35.87,0.23 -53.96,0.23 -15.38,0 -30.67,-0.09 -46,-0.19 l -45.31,-189.85 47.84,-41.39 h 246.44 l 74.55,50.6 41.26,172.68 c -32.74,1.66 -65.8,3.13 -99.09,4.28" /><path
         id="path154"
         style="fill:#d7bd86;fill-opacity:1;fill-rule:nonzero;stroke:none"
         d="m 2637.06,1761.67 48.12,-189.9 h 102.5 l -45.54,175.99 c -34.58,4.88 -69.58,9.58 -105.08,13.91" /><path
         id="path156"
         style="fill:#d7bd86;fill-opacity:1;fill-rule:nonzero;stroke:none"
         d="m 2381.38,1571.8 h 80.77 c 6.81,0 16.25,3.45 20.81,6.35 l 44.39,185.71 2.34,9.76 c -32.32,3.27 -64.97,6.31 -97.94,9.02 l -50.37,-210.84" /><path
         id="path158"
         style="fill:#d7bd86;fill-opacity:1;fill-rule:nonzero;stroke:none"
         d="m 837.184,1699.41 -40.571,-169.95 c 28.274,-23.39 58.391,-47.06 90.344,-70.91 l 63.082,262.78 c -38.402,-6.9 -76.019,-14.23 -112.855,-21.92" /><path
         id="path160"
         style="fill:#d7bd86;fill-opacity:1;fill-rule:nonzero;stroke:none"
         d="m 2635.94,2306.85 34.72,145.32 c -31.78,5.07 -63.96,9.85 -96.61,14.37 l -47.47,-198.69 h 260.43 c 1.39,0 2.72,0.23 3.92,0.55 h 0.04 c 2.17,14.55 4.79,27.53 7.42,38.45 h -162.45" /></g></g></svg>