<?xml version="1.0" encoding="utf-8"?>
<!-- Generator: Adobe Illustrator 15.0.0, SVG Export Plug-In . SVG Version: 6.00 Build 0)  -->
<!DOCTYPE svg PUBLIC "-//W3C//DTD SVG 1.1//EN" "http://www.w3.org/Graphics/SVG/1.1/DTD/svg11.dtd">
<svg version="1.1" id="Layer_1" xmlns="http://www.w3.org/2000/svg" xmlns:xlink="http://www.w3.org/1999/xlink" x="0px" y="0px"
	 width="121.268px" height="121.267px" viewBox="0 0 121.268 121.267" enable-background="new 0 0 121.268 121.267"
	 xml:space="preserve">
<g opacity="0.8789">
	<g>
		<defs>
			<polyline id="SVGID_1_" points="122.214,10.996 122.214,10.125 121.343,10.125 			"/>
		</defs>
		<clipPath id="SVGID_2_">
			<use xlink:href="#SVGID_1_"  overflow="visible"/>
		</clipPath>
		<g clip-path="url(#SVGID_2_)">
			<defs>
				<rect id="SVGID_3_" x="121.343" y="10.126" width="0.871" height="0.87"/>
			</defs>
			<clipPath id="SVGID_4_">
				<use xlink:href="#SVGID_3_"  overflow="visible"/>
			</clipPath>
			<path clip-path="url(#SVGID_4_)" fill="#FFFFFF" d="M121.343,10.56c0-0.24,0.194-0.436,0.436-0.436
				c0.24,0,0.438,0.196,0.438,0.436c0,0.241-0.197,0.436-0.438,0.436C121.538,10.996,121.343,10.801,121.343,10.56"/>
		</g>
	</g>
</g>
<path fill="#FFFFFF" d="M34.743,122.944c0-0.23,0.188-0.419,0.42-0.419c0.231,0,0.419,0.188,0.419,0.419"/>
<polyline fill="none" points="35.581,123.362 35.581,122.524 34.742,122.524 34.742,123.362 "/>
<polyline fill="none" points="35.582,123.362 35.582,122.526 34.743,122.526 34.743,123.362 "/>
<path fill="#FFFFFF" d="M77.894,122.763c-0.273,0-0.494-0.221-0.494-0.494"/>
<path fill="#FFFFFF" d="M77.4,122.269c0-0.271,0.221-0.494,0.494-0.494c0.271,0,0.494,0.223,0.494,0.494
	c0,0.273-0.223,0.494-0.494,0.494"/>
<polyline fill="none" points="78.388,122.762 78.388,121.776 77.4,121.776 77.4,122.762 "/>
<polyline fill="none" points="78.388,122.762 78.388,121.776 77.4,121.776 77.4,122.762 "/>
<g opacity="0.5764">
	<g>
		<defs>
			<rect id="SVGID_5_" x="120.376" y="42.901" width="0.76" height="0.757"/>
		</defs>
		<clipPath id="SVGID_6_">
			<use xlink:href="#SVGID_5_"  overflow="visible"/>
		</clipPath>
		<g clip-path="url(#SVGID_6_)">
			<defs>
				<rect id="SVGID_7_" x="120.376" y="42.9" width="0.758" height="0.758"/>
			</defs>
			<clipPath id="SVGID_8_">
				<use xlink:href="#SVGID_7_"  overflow="visible"/>
			</clipPath>
			<path clip-path="url(#SVGID_8_)" fill="#FFFFFF" d="M120.376,43.279c0-0.209,0.17-0.379,0.379-0.379s0.381,0.17,0.381,0.379
				c0,0.21-0.172,0.379-0.381,0.379S120.376,43.489,120.376,43.279"/>
		</g>
	</g>
</g>
<path fill="#FFFFFF" d="M-2.542,89.236c0-0.178,0.144-0.321,0.323-0.321c0.177,0,0.322,0.144,0.322,0.321
	c0,0.179-0.145,0.322-0.322,0.322C-2.397,89.559-2.542,89.415-2.542,89.236"/>
<polyline fill="none" points="-2.541,89.558 -1.897,89.558 -1.897,88.914 -2.541,88.914 "/>
<polyline fill="none" points="-2.542,89.559 -1.896,89.559 -1.896,88.914 -2.542,88.914 "/>
<path fill="#FFFFFF" d="M72.697,6.433"/>
<path fill="#002B5C" d="M121.268,60.635c0,33.486-27.146,60.632-60.633,60.632C27.145,121.267,0,94.121,0,60.635
	C0,27.149,27.145,0,60.635,0C94.123,0,121.268,27.149,121.268,60.635"/>
<path fill="#FFFFFF" d="M30.899,32.738l-0.333,1.176h0.436l-1.39,2.207V36.12l-0.002,0.002l-0.195-3.383h-2.858l-0.324,1.17
	l0.436,0.006L24.8,36.747l-0.768-0.003l-0.768-0.001c-0.105,0-0.402-0.07-0.6-0.325c-0.106-0.136-0.184-0.326-0.184-0.593
	c0-0.772,0.735-1.889,1.479-1.889l0.312,0.007c-0.04,0.142-0.111,0.398-0.146,0.518c-0.009,0.04-0.016,0.067-0.016,0.067h1.369
	l0.493-1.789l-2.109-0.005c-1.313,0-2.373,0.94-2.708,1.911v-0.002l0.544-1.898l-0.937-0.004l-0.939-0.002l-0.329,1.176l0.484-0.001
	l-0.487,1.721l-0.616-1.447l-0.612-1.443h-1.759l-0.328,1.17h0.481l-0.544,1.984l-0.544,1.981h1.405c0,0,0.542-1.964,0.681-2.47
	c0.118,0.287,0.461,1.119,0.716,1.738c0.173,0.413,0.307,0.732,0.307,0.732h0.782h0.781l0.357-1.258l0.36-1.26v0.002v-0.002
	c-0.034,0.188-0.05,0.379-0.05,0.576c0,0.03,0.003,0.06,0.005,0.094c0.002,0.162,0.017,0.325,0.041,0.484
	c0.019,0.106,0.047,0.203,0.085,0.299c0.256,0.656,0.968,1.065,1.735,1.065h2.839l0.486-0.735h2.004l0.039,0.73h1.776l0.454-0.73
	h2.046l0.079,0.735h1.259l0.279-0.562l-0.297-4.3l-0.02-0.279H30.899z M26.905,35.917l1.089-1.65l0.059,1.65H26.905z M31.262,35.894
	l1.089-1.647l0.055,1.647H31.262z"/>
<path fill="#0079C2" d="M34.384,39.29h0.148V38.87h0.166l0.255,0.419h0.163l-0.273-0.424c0.14-0.021,0.249-0.094,0.249-0.267
	c0-0.19-0.114-0.275-0.339-0.275h-0.369V39.29z M34.532,38.447h0.196c0.105,0,0.212,0.022,0.212,0.141
	c0,0.15-0.111,0.158-0.236,0.158h-0.172V38.447z"/>
<path fill="#0079C2" d="M33.857,38.805c0,0.484,0.39,0.84,0.85,0.84c0.457,0,0.845-0.356,0.845-0.84
	c0-0.481-0.388-0.834-0.845-0.834C34.248,37.971,33.857,38.324,33.857,38.805 M35.384,38.805c0,0.4-0.3,0.697-0.677,0.697
	c-0.383,0-0.681-0.297-0.681-0.697c0-0.396,0.298-0.695,0.681-0.695C35.084,38.11,35.384,38.409,35.384,38.805"/>
<polygon fill="#0079C2" points="26.905,35.918 28.053,35.918 27.995,34.268 "/>
<polygon fill="#0079C2" points="31.262,35.894 32.406,35.894 32.351,34.247 "/>
<path fill="#0079C2" d="M24.143,43.678c4.171,0,7.791-2.349,9.612-5.795h-1.258l-0.08-0.738h-2.045l-0.455,0.73h-1.776l-0.039-0.73
	h-2.004l-0.487,0.738h-2.838c-0.767,0-1.478-0.412-1.736-1.068c-0.037-0.096-0.066-0.194-0.083-0.299
	c-0.025-0.159-0.04-0.322-0.041-0.484c-0.002-0.034-0.006-0.064-0.006-0.096c0-0.196,0.016-0.386,0.048-0.572l-0.358,1.257
	L20.24,37.88h-0.781l-0.782,0.003c0,0-0.134-0.322-0.306-0.735c-0.256-0.619-0.599-1.45-0.717-1.739
	c-0.139,0.509-0.681,2.474-0.681,2.474h-1.405V37.88l0.546-1.981l0.542-1.985h-0.481l0.328-1.17h1.759l0.614,1.444l0.614,1.447
	l0.489-1.722l-0.485,0.001l0.328-1.175l0.939,0.001l0.937,0.004l-0.544,1.899c0.336-0.969,1.395-1.912,2.706-1.912h0.002
	l2.109,0.008l-0.493,1.789h-1.369c0,0,0.007-0.027,0.016-0.067c0.036-0.12,0.106-0.376,0.146-0.518l-0.312-0.007
	c-0.744,0-1.479,1.117-1.479,1.888c0,0.268,0.078,0.458,0.184,0.594c0.198,0.258,0.496,0.324,0.6,0.324l0.768,0.001l0.768,0.003
	l1.869-2.832l-0.436-0.005v-0.001l0.324-1.169h2.858l0.197,3.382l0.002-0.002l1.388-2.205h-0.436l0.333-1.175h2.818l0.02,0.279
	l0.298,4.3c0.625-1.372,0.974-2.898,0.974-4.507c0-6-4.864-10.865-10.866-10.865c-6.001,0-10.867,4.865-10.867,10.865
	C13.276,38.814,18.142,43.678,24.143,43.678"/>
<path fill="#FFFFFF" d="M75.871,108.473c-5.955,1.718-13.709-5.024-20.354-15.479l-0.375-0.598L55.1,92.331l-0.015-0.026
	c0,0-2.778-4.722-4.055-7.285c-0.513,0.193-1.465,0.728-1.411,0.839c8.064,16.115,18.762,25.896,26.499,24.549
	c5.489-0.957,9.146-7.129,10.761-16.289h-1.554C83.838,101.817,80.694,107.081,75.871,108.473"/>
<path fill="#FFFFFF" d="M49.891,9.729c6.238-0.162,15.929,6.677,24.304,23.714h1.155C67.018,17.22,56.501,7.493,47.783,9.67
	c-3.794,0.949-8.364,7.185-10.441,15.583c0.004,0.003,0.009,0.01,0.014,0.017C38.289,21.833,42.083,9.932,49.891,9.729"/>
<polygon fill="#FFFFFF" points="43.113,96.291 46.255,92.413 41.433,93.705 38.718,89.519 38.458,94.502 33.635,95.794 
	38.296,97.582 38.034,102.565 41.175,98.688 45.832,100.476 "/>
<polygon fill="#FFFFFF" points="49.792,103.342 48.251,100.97 48.106,103.793 45.373,104.526 48.014,105.539 47.866,108.362 
	49.645,106.164 52.285,107.177 50.741,104.808 52.524,102.612 "/>
<polygon fill="#FFFFFF" points="25.919,92.87 24.691,90.979 24.571,93.234 22.396,93.816 24.5,94.627 24.382,96.879 25.801,95.123 
	27.907,95.933 26.68,94.041 28.099,92.288 "/>
<polygon fill="#FFFFFF" points="57.554,24.541 61.201,25.943 59.073,22.664 61.531,19.629 57.757,20.641 55.628,17.362 
	55.425,21.264 51.65,22.275 55.298,23.677 55.093,27.58 "/>
<polygon fill="#FFFFFF" points="47.944,17.266 46.559,15.139 46.428,17.674 43.973,18.33 46.344,19.241 46.211,21.779 
	47.811,19.805 50.18,20.715 48.798,18.583 50.397,16.61 "/>
<polygon fill="#FFFFFF" points="89.943,20.924 91.364,19.17 93.47,19.98 92.242,18.085 93.662,16.332 91.482,16.917 90.253,15.024 
	90.132,17.278 87.958,17.861 90.064,18.67 "/>
<path fill="#FFFFFF" d="M74.521,14.592c0.823,1.591,2.676,2.436,4.467,1.93c1.791-0.511,2.924-2.203,2.789-3.987
	c2.922-0.968,4.901-1.838,4.807-2.17c-0.094-0.328-2.23-0.031-5.227,0.678c-0.826-1.591-2.678-2.432-4.467-1.928
	c-1.79,0.508-2.923,2.2-2.791,3.985c-2.923,0.971-4.9,1.838-4.808,2.17C69.386,15.6,71.525,15.299,74.521,14.592 M84.158,11.055
	c0.057,0.197-0.899,0.654-2.418,1.199c-0.022-0.16-0.053-0.325-0.099-0.484c-0.047-0.164-0.106-0.319-0.17-0.469
	C83.046,10.971,84.103,10.858,84.158,11.055 M78.725,16.149c-1.218,0.382-2.524-0.375-3.143-1.817
	c0.356-0.089,0.718-0.183,1.086-0.281C77.125,15.094,77.878,15.83,78.725,16.149 M76.884,9.499
	c-0.659,1.097-0.855,2.622-0.404,4.055c0.03,0.091,0.064,0.179,0.098,0.268c-0.377,0.098-0.738,0.188-1.088,0.268
	c-0.017-0.048-0.039-0.102-0.055-0.152C74.869,12.144,75.518,10.17,76.884,9.499 M74.133,13.382
	c0.026,0.163,0.058,0.325,0.104,0.484c0.043,0.163,0.102,0.319,0.168,0.47c-1.576,0.328-2.631,0.44-2.688,0.246
	C71.662,14.386,72.623,13.925,74.133,13.382"/>
<path fill="#FFFFFF" d="M105.646,81.038c0-0.19-0.11-0.274-0.336-0.274h-0.367v0.963h0.146v-0.418h0.167l0.255,0.418h0.165
	l-0.275-0.429C105.542,81.284,105.646,81.208,105.646,81.038 M105.088,81.185v-0.298h0.198c0.102,0,0.21,0.019,0.21,0.14
	c0,0.146-0.111,0.158-0.231,0.158H105.088z"/>
<path fill="#FFFFFF" d="M105.264,80.409c-0.457,0-0.847,0.354-0.847,0.834c0,0.483,0.39,0.836,0.847,0.836
	c0.454,0,0.845-0.353,0.845-0.836C106.109,80.764,105.718,80.409,105.264,80.409 M105.264,81.938c-0.38,0-0.679-0.296-0.679-0.695
	c0-0.396,0.299-0.697,0.679-0.697c0.376,0,0.674,0.302,0.674,0.697C105.938,81.643,105.64,81.938,105.264,81.938"/>
<polygon fill="#FFFFFF" points="60.025,34.504 60.136,33.973 53.568,33.973 49.762,52.102 50.405,52.102 56.332,52.102 "/>
<path fill="#FFFFFF" d="M42.29,51.969l1.699-8.037h5.502l1.268-5.926l0.115-0.533h-4.829h-0.631l0.569-2.985h6.126l1.442-6.445
	l0.117-0.531H39.252l-5.218,24.564h0.643h6.104C41.333,52.013,41.832,51.977,42.29,51.969"/>
<path fill="#FFFFFF" d="M20.206,68.326h4.771c0.042-0.832,0.151-1.565,0.355-1.959v-0.001c0.049-0.095,0.081-0.184,0.106-0.26
	c0.005-0.018,0.009-0.026,0.012-0.043c0.076-0.246,0.056-0.411,0.056-0.411c-0.034-0.547-0.063-1.181,0.863-3.174
	c0.407-0.874,0.99-1.972,1.675-3.016h-5.171h-0.613l-0.045,0.029l0.92-4.051h8.569l2.018-9.119l0.117-0.532H13.72L5.195,82.782
	h0.652h11.094L20.206,68.326z"/>
<path fill="#FFFFFF" d="M99.784,73.592c-0.226-0.528-0.509-0.898-0.782-1.203c3.479-1.287,5.133-3.206,5.945-6.871
	c0.197-0.905,0.302-1.759,0.302-2.549c0-1.696-0.459-3.123-1.375-4.259c-0.057-0.073-0.118-0.141-0.181-0.21
	c-1.534-1.737-4.151-2.654-7.6-2.654H84.812l-5.961,26.938h0.647h9.33l-0.005-0.002l1.514-7.31l0.328,1.496l1.293,5.815h0.411
	h11.267L99.784,73.592z M95.198,64.48c-0.245,2.687-1.798,3.058-2.69,3.041c-0.371-0.007-0.629-0.079-0.629-0.079l1.068-4.941
	c1.182-0.181,1.751,0.218,2.023,0.707C95.292,63.784,95.198,64.48,95.198,64.48"/>
<path fill="#FFFFFF" d="M101.312,45.092h-0.649l2.343-10.589l0.116-0.532h-6.575l-3.27,15.508l-0.307,1.445l-1.867-16.421
	l-0.059-0.532h-6.936L76.134,49.12l-1.069,2.033l3.499-16.638l0.111-0.529h-6.086l-1.515,7.196l-0.129,0.623l-2.542-7.29
	l-0.184-0.529h-6.125l-3.845,18.09h0.644h5.484l1.721-8.114v0.001l0.391,1.182l2.293,6.931h0.355h5.441l6.865,0.026l1.266-2.935
	v0.003h3.399l0.013,0.531l0.059,2.401h0.518l6.027-0.024l-0.004,0.024l0.027-0.024l-0.027,0.024h11.373l1.226-6.481l0.101-0.529
	H101.312z M86.157,40.597l0.041,1.668l0.063,2.646h-1.205h-0.76L86.157,40.597z"/>
<path fill="#E86D1F" d="M65.373,85.286c-1.158,0-1.8,0.556-1.8,2.086v2.935c0,1.534,0.642,2.088,1.8,2.088h4.064
	c1.156,0,1.801-0.554,1.801-2.088v-2.935c0-1.53-0.645-2.086-1.801-2.086H65.373z M68.526,90.765c0,0.342-0.177,0.456-0.534,0.456
	h-1.177c-0.353,0-0.531-0.114-0.531-0.456v-3.848c0-0.344,0.179-0.455,0.531-0.455h1.177c0.357,0,0.534,0.111,0.534,0.455V90.765z"
	/>
<path fill="#E86D1F" d="M74.01,92.395h3.599c1.545,0,1.988-0.577,1.988-2.198v-3.631c0-0.802,0.034-0.945,0.268-1.279h-1.713
	c0.234,0.334,0.267,0.478,0.267,1.279v3.942c0,0.633-0.054,0.713-0.81,0.713h-2.181c-0.476,0-0.677-0.202-0.677-0.669v-4.045
	c0-0.676,0.089-0.944,0.223-1.221h-3.152c0.129,0.276,0.219,0.545,0.219,1.221v3.689C72.041,91.686,72.619,92.395,74.01,92.395"/>
<path fill="#E86D1F" d="M85.465,87.485h-1.922c-0.421,0-0.521-0.045-0.521-0.311v-0.401c0-0.255,0.1-0.312,0.521-0.312h2.522
	c0.522,0,0.767,0.09,1.102,0.235l-0.234-1.411h-5.031c-0.959,0-1.5,0.576-1.5,1.686v1.591c0,1.188,0.42,1.543,1.5,1.543h2.209
	c0.418,0,0.512,0.059,0.512,0.313v0.488c0,0.268-0.094,0.309-0.512,0.309H81.49c-0.531,0-0.801-0.129-1.069-0.268l0.237,1.447h4.885
	c1.3,0,1.701-0.622,1.701-1.745v-1.733C87.244,87.884,86.621,87.485,85.465,87.485"/>
<path fill="#E86D1F" d="M87.978,85.286l-0.223,1.467c0.3-0.189,0.512-0.291,1.008-0.291h1.234v4.713
	c0,0.676-0.086,0.944-0.223,1.221h3.158c-0.139-0.276-0.223-0.545-0.223-1.221v-4.713h1.232c0.5,0,0.708,0.102,1.012,0.291
	l-0.225-1.467H87.978z"/>
<path fill="#E86D1F" d="M101.369,85.286h-4.066c-1.158,0-1.798,0.556-1.798,2.086v2.935c0,1.534,0.64,2.089,1.798,2.089h4.066
	c1.152,0,1.796-0.555,1.796-2.089v-2.935C103.165,85.842,102.521,85.286,101.369,85.286 M100.453,90.765
	c0,0.342-0.176,0.452-0.531,0.452h-1.176c-0.355,0-0.535-0.11-0.535-0.452v-3.848c0-0.344,0.18-0.455,0.535-0.455h1.176
	c0.355,0,0.531,0.111,0.531,0.455V90.765z"/>
<path fill="#E86D1F" d="M110.205,85.286c0.232,0.333,0.264,0.479,0.264,1.277v4.522h-0.031l-2.887-5.8h-3.811
	c0.234,0.333,0.266,0.479,0.266,1.277v4.555c0,0.798-0.031,0.945-0.266,1.277h1.71c-0.233-0.332-0.269-0.479-0.269-1.277v-4.611
	h0.022l2.935,5.889h3.51v-5.832c0-0.799,0.033-0.944,0.269-1.277H110.205z"/>
<path fill="#E86D1F" d="M55.719,92.396h2.505c-0.13-0.275-0.221-0.544-0.221-1.221v-1.868h2.022v1.868
	c0,0.677-0.091,0.945-0.22,1.221h2.504h0.651c-0.096-0.193-0.167-0.387-0.202-0.716c0,0-0.022-0.306-0.022-0.505v-4.668
	c0-0.475,0.047-0.743,0.115-0.965c0.03-0.088,0.068-0.174,0.109-0.256h-3.155c0.129,0.276,0.22,0.545,0.22,1.221v1.621h-2.022
	v-1.621c0-0.676,0.091-0.944,0.221-1.221h-3.155c0.04,0.082,0.076,0.168,0.108,0.256c0.071,0.222,0.113,0.49,0.113,0.965v4.668
	c0,0.199-0.021,0.505-0.021,0.505c-0.029,0.293-0.092,0.476-0.173,0.651l0.045,0.064H55.719z"/>
<path fill="#E86D1F" d="M80.694,29.912l2.815-0.14c1.234-0.058,1.666-0.36,1.666-1.479v-1.486c0-1.049-0.305-1.7-1.979-1.7h-5.494
	l-0.241,1.499c0.346-0.185,0.744-0.268,1.161-0.268h3.261c0.418,0,0.547,0.141,0.547,0.351v0.408c0,0.292-0.084,0.395-0.444,0.407
	l-3.024,0.164c-0.99,0.055-1.443,0.301-1.443,1.57v3.317H85l0.268-1.559c-0.627,0.241-0.803,0.324-1.547,0.324h-3.361v-0.918
	C80.359,30.157,80.402,29.924,80.694,29.912"/>
<path fill="#E86D1F" d="M86.023,27.293v3.072c0,1.606,0.678,2.189,1.888,2.189h4.261c1.209,0,1.883-0.583,1.883-2.189v-3.072
	c0-1.606-0.674-2.186-1.883-2.186h-4.261C86.701,25.107,86.023,25.688,86.023,27.293 M88.864,26.816c0-0.361,0.188-0.479,0.56-0.479
	h1.235c0.372,0,0.558,0.118,0.558,0.479v4.027c0,0.364-0.186,0.477-0.558,0.477h-1.235c-0.371,0-0.56-0.113-0.56-0.477V26.816z"/>
<path fill="#E86D1F" d="M95.873,31.529c0,0.56-0.092,0.803-0.257,1.025h3.364c-0.162-0.222-0.268-0.465-0.268-1.025v-6.422h-0.756
	l-3.143,0.953v1.315h1.059V31.529z"/>
<path fill="#E86D1F" d="M100.893,31.529c0,0.56-0.093,0.803-0.258,1.025H104c-0.162-0.222-0.266-0.465-0.266-1.025v-6.422h-0.758
	l-3.143,0.953v1.315h1.06V31.529z"/>
<polygon fill="#E86D1F" points="56.863,52.633 60.669,34.504 60.025,34.504 56.332,52.102 50.405,52.102 50.294,52.633 "/>
<polygon fill="#E86D1F" points="76.134,49.12 79.208,34.515 78.566,34.515 75.066,51.152 "/>
<polygon fill="#E86D1F" points="66.1,43.962 64.376,52.076 58.895,52.076 58.784,52.606 64.908,52.606 66.49,45.145 "/>
<polygon fill="#E86D1F" points="71.075,41.182 68.75,34.515 68.404,34.515 70.946,41.805 "/>
<path fill="#E86D1F" d="M78.954,71.8c-0.845,3.811-2.623,6.729-5.209,8.659c-0.845,0.633-1.781,1.153-2.794,1.569
	c-1.865,0.766-4,1.168-6.387,1.168c-1.477,0-2.797-0.152-3.959-0.453c-1.135-0.291-2.119-0.721-2.943-1.297
	c-0.242-0.168-0.471-0.353-0.686-0.545c0.359,0.398,0.762,0.76,1.216,1.075c1.67,1.16,3.982,1.75,6.904,1.75
	c3.688,0,6.78-0.944,9.182-2.737c2.586-1.932,4.365-4.85,5.207-8.659l0.18-0.806l3.35-15.147h-0.646L79.13,70.993L78.954,71.8z"/>
<path fill="#E86D1F" d="M65.309,70.912c-0.133,0.599-0.28,1.282-0.297,1.84c-0.006,0.232,0.006,0.445,0.06,0.617
	c0.022,0.077,0.051,0.144,0.09,0.202c0.014,0.023,0.025,0.049,0.041,0.07c0.088,0.104,0.22,0.187,0.396,0.244
	c-0.164-0.59,0.058-1.602,0.242-2.44l0.124-0.563l3.21-14.505h-0.648l-3.092,13.974L65.309,70.912z"/>
<path fill="#E86D1F" d="M43.989,43.932l-1.699,8.037c0.223-0.006,0.437,0,0.643,0.004l1.587-7.51h5.503l1.382-6.457h-0.646
	l-1.268,5.926H43.989z"/>
<polygon fill="#E86D1F" points="45.983,34.487 45.414,37.472 46.044,37.472 46.515,35.018 52.638,35.018 54.201,28.043 
	53.55,28.043 52.109,34.487 "/>
<path fill="#E86D1F" d="M40.782,52.076h-6.104l-0.114,0.529h3.355c0.8-0.205,1.634-0.375,2.528-0.491
	C40.562,52.1,40.672,52.087,40.782,52.076"/>
<path fill="#E86D1F" d="M23.134,55.44l-0.92,4.051l0.045-0.029h0.613l0.794-3.493h7.586c0.209-0.253,0.583-0.613,1.21-1.035
	l1.907-8.613h-0.648l-2.018,9.119H23.134z"/>
<path fill="#E86D1F" d="M20.206,68.326l-3.264,14.456H5.848l-0.122,0.531h11.75l3.259-14.456h4.222
	c0.004-0.181,0.01-0.356,0.02-0.531H20.206z"/>
<polygon fill="#E86D1F" points="88.824,82.782 88.829,82.783 79.499,82.783 79.382,83.315 89.359,83.315 89.355,83.313 
	90.666,76.97 90.337,75.472 "/>
<path fill="#E86D1F" d="M100.315,74.119c-0.228-0.522-0.509-0.894-0.782-1.198c3.479-1.287,5.133-3.207,5.946-6.871
	c0.198-0.906,0.301-1.76,0.301-2.552c0-1.695-0.459-3.121-1.373-4.26c-0.212-0.265-0.452-0.512-0.714-0.739
	c0.061,0.069,0.124,0.138,0.182,0.21c0.916,1.137,1.375,2.563,1.375,4.261c0,0.789-0.104,1.643-0.303,2.547
	c-0.812,3.666-2.467,5.584-5.945,6.873c0.273,0.304,0.558,0.674,0.782,1.203l3.853,9.19H92.373l0.115,0.532h11.68L100.315,74.119z"
	/>
<path fill="#E86D1F" d="M92.947,62.502l-1.068,4.94c0,0,0.258,0.072,0.629,0.08l0.972-4.49c0.683-0.104,1.155-0.012,1.491,0.175
	C94.698,62.719,94.128,62.319,92.947,62.502"/>
<polygon fill="#E86D1F" points="101.312,45.092 103.651,34.503 103.003,34.503 100.664,45.092 "/>
<polygon fill="#E86D1F" points="92.722,52.102 92.727,52.079 86.699,52.102 86.71,52.633 93.256,52.607 93.252,52.633 
	93.279,52.607 93.281,52.607 93.252,52.633 104.625,52.633 105.951,45.622 105.322,45.622 104.095,52.102 "/>
<polygon fill="#E86D1F" points="93.277,49.479 91.575,34.502 91.104,34.502 92.97,50.923 "/>
<path fill="#E86D1F" d="M92.75,52.078l-0.027,0.023L92.75,52.078z"/>
<polygon fill="#E86D1F" points="82.71,49.17 82.71,49.167 81.445,52.102 74.58,52.076 69.138,52.076 69.314,52.606 75.111,52.606 
	81.976,52.633 83.24,49.698 83.24,49.7 86.123,49.7 86.109,49.17 "/>
<polygon fill="#E86D1F" points="86.198,42.265 86.157,40.597 84.296,44.911 85.056,44.911 "/>
<g>
	<defs>
		<path id="SVGID_9_" d="M58.493,74.766c-1.359,2.211-2.261,3.228-2.261,3.228c-0.191,1.715-0.986,2.449-1.085,2.537
			c0.283-0.198,0.55-0.461,0.809-0.773c0.493-0.594,0.962-1.375,1.474-2.284c0.784-1.392,1.113-2.692,1.113-2.692
			c-0.032-0.061-0.049-0.125-0.054-0.183C58.485,74.7,58.493,74.766,58.493,74.766 M24.977,68.327
			c-0.01,0.174-0.017,0.35-0.021,0.529c-0.024,1.301,0.086,2.726,0.254,3.506c0.298,1.407,1.493,4.811,2.018,5.447
			c0.491,0.596,0.754,1.076,0.754,1.076c0.223,0.695,3.346,5.182,8.798,6.786c5.451,1.606,8.579,0.56,8.579,0.56
			s1.427-0.005,4.228-1.269c2.798-1.265,4.497-3.03,4.887-3.451c0.391-0.421,0.661-0.974,0.661-0.974h0.001
			c0.518-1.213,0.45-1.848,0.45-1.848c-0.301,0.301-0.645,0.662-1.011,1.049c-0.4,0.477-0.826,0.93-1.275,1.354
			c-0.361,0.381-0.722,0.755-1.076,1.101c-1.168,1.16-2.031,1.812-3.629,2.787c-1.598,0.978-2.686,1.071-2.686,1.071
			c1.678-0.476,3.421-1.774,4.71-2.897c0.869-0.752,1.532-1.426,1.826-1.709c0.731-0.711,1.835-1.873,2.334-2.381
			c0.498-0.508,0.778-0.93,0.778-0.93c-0.098-1.119-0.446-2.056-0.446-2.056s-1.602,1.915-4.71,3.752
			c-3.11,1.833-6.591,3.11-9.979,3.522c-3.114,0.381-5.229-0.02-7.315-0.606c-0.181-0.048-0.361-0.104-0.542-0.155
			c-2.269-0.667-4.347-3.418-4.347-3.418c1.207,1.167,2.356,1.962,3.482,2.507c1.861,0.9,3.66,1.101,5.558,1.15
			c3.047,0.077,6.376-0.744,8.602-1.573c2.222-0.827,4.569-2.188,6.223-3.449c1.657-1.263,2.766-2.418,2.766-2.418
			c-0.404-1.117-1.17-2.518-1.17-2.518c-0.056,0.047-0.116,0.085-0.172,0.127c-2.888,2.183-5.391,2.434-8.368,1.854
			c-3.039-0.591-6.531-1.455-10.781-2.957c-4.253-1.504-6.871-2.968-8.018-3.93c-1.143-0.961-1.009-1.602-1.009-1.602
			C25.128,66.76,25.019,67.493,24.977,68.327 M25.331,66.366L25.331,66.366 M25.331,66.366L25.331,66.366L25.331,66.366z
			 M42.29,51.969c-0.458,0.008-0.958,0.044-1.509,0.107c-0.109,0.012-0.219,0.024-0.334,0.039c-0.894,0.116-1.728,0.286-2.528,0.49
			c-1.723,0.446-3.249,1.083-4.655,1.848c-0.306,0.169-0.569,0.33-0.801,0.482c-0.627,0.421-1.002,0.782-1.211,1.034
			c-0.201,0.24-0.263,0.387-0.263,0.387c-1.034,0.542-2.069,1.775-2.945,3.106c-0.685,1.044-1.268,2.142-1.675,3.016
			c-0.924,1.993-0.897,2.627-0.863,3.176c0,0,0.006,0.08-0.01,0.207c0.018-0.129,0.01-0.207,0.01-0.207
			c0.324,1.021,1.636,1.836,3.576,2.834c1.935,0.998,5.294,2.309,8.252,3.178c2.954,0.869,9.154,2.783,11.834,2.287
			c2.68-0.494,4.043-1.967,4.043-1.967c-1.905-3.236-4.43-6.479-7.324-9.009c-2.897-2.529-4.175-3.458-7.123-5.201
			c-2.952-1.741-4.879-1.916-5.789-1.916c-0.909,0-1.849,0.398-1.849,0.398s0.481-0.551,1.373-0.797
			c0.907-0.251,2.229-0.189,2.9,0.012c2.846,0.836,5.05,2.031,7.865,4.024c2.81,1.991,4.821,4.07,6.922,6.479
			c2.103,2.412,3.729,5.247,3.729,5.247c1.43-1.865,2.241-4.292,1.454-7.439c-0.786-3.149-2.219-6.102-4.202-8.185
			c-1.853-1.944-3.857-2.684-4.118-2.773c1.939,0.577,3.888,1.913,5.17,3.371c1.516,1.727,2.442,3.648,2.876,4.787
			c0.563,1.491,1.084,3.103,1.182,4.848c0.041,0.724,0.01,1.468-0.125,2.238c-0.449,2.623-1.821,3.97-1.821,3.97
			c0.667,1.417,1.192,2.585,1.192,2.585c1.383-1.6,2.261-3.186,2.802-4.689c0.085-0.242,0.166-0.482,0.235-0.718
			c0.503-1.713,0.356-3.575,0.356-3.575c0.521,2.16-0.033,4.223-0.711,5.772c-0.491,1.128-1.048,1.985-1.306,2.399
			c-0.61,0.986-1.094,1.576-1.094,1.576c0.238,1.062,0.337,2.043,0.337,2.043c0.022-0.013,0.048-0.035,0.073-0.052
			c0.589-0.456,2.302-3.06,2.324-3.094l0.002-0.003c0.73-1.075,1.03-3.621,0.926-5.754c-0.007-0.149-0.014-0.297-0.026-0.441
			c-0.172-2.208-0.65-3.188-0.65-3.188s-0.201-1.854-1.431-4.014c-0.197-0.345-0.414-0.696-0.668-1.049
			c-1.829-2.571-4.067-4.659-6.523-5.898c-2.455-1.242-3.469-1.254-3.469-1.254c-1.315-0.387-2.386-0.67-3.767-0.716
			c-0.137-0.004-0.273-0.004-0.415-0.004H42.29z"/>
	</defs>
	<clipPath id="SVGID_10_">
		<use xlink:href="#SVGID_9_"  overflow="visible"/>
	</clipPath>
	
		<radialGradient id="SVGID_11_" cx="-236.6475" cy="445.2754" r="1" gradientTransform="matrix(25.2842 0 0 -25.2842 6020.0664 11321.9111)" gradientUnits="userSpaceOnUse">
		<stop  offset="0" style="stop-color:#E76E24"/>
		<stop  offset="0.4847" style="stop-color:#E76E24"/>
		<stop  offset="0.908" style="stop-color:#923F1F"/>
		<stop  offset="1" style="stop-color:#923F1F"/>
	</radialGradient>
	<rect x="24.932" y="51.969" clip-path="url(#SVGID_10_)" fill="url(#SVGID_11_)" width="34.639" height="35.31"/>
</g>
<path d="M56.232,77.994c0,0,0.902-1.017,2.261-3.229c0,0-0.008-0.063-0.004-0.166c0.004-0.084,0.015-0.19,0.054-0.312l-0.003,0.003
	c-0.023,0.034-1.736,2.638-2.326,3.095c-0.024,0.016-0.049,0.038-0.07,0.051c0,0-0.101-0.98-0.339-2.043c0,0,0.484-0.59,1.094-1.576
	c0.258-0.414,0.815-1.271,1.307-2.399c0.677-1.55,1.229-3.612,0.71-5.772c0,0,0.147,1.863-0.356,3.576
	c-0.069,0.234-0.148,0.474-0.235,0.717c-0.54,1.504-1.419,3.091-2.802,4.689c0,0-0.525-1.168-1.192-2.583
	c0,0,1.373-1.349,1.821-3.973c0.133-0.769,0.166-1.515,0.123-2.237c-0.097-1.745-0.616-3.357-1.18-4.848
	c-0.433-1.139-1.36-3.06-2.877-4.787c-1.281-1.458-3.23-2.794-5.169-3.372c0.261,0.09,2.265,0.83,4.118,2.774
	c1.983,2.082,3.416,5.035,4.202,8.183c0.783,3.149-0.024,5.575-1.453,7.44c0,0-1.629-2.834-3.73-5.248
	c-2.101-2.407-4.111-4.487-6.923-6.479c-2.814-1.993-5.017-3.189-7.864-4.024c-0.671-0.202-1.994-0.264-2.9-0.015
	c-0.892,0.248-1.372,0.802-1.372,0.802s0.939-0.401,1.848-0.401c0.909,0,2.839,0.176,5.788,1.916
	c2.949,1.743,4.229,2.674,7.124,5.201c2.894,2.53,5.419,5.773,7.324,9.009c0,0-1.363,1.474-4.043,1.969
	c-2.681,0.496-8.879-1.419-11.834-2.288c-2.956-0.869-6.32-2.18-8.252-3.178c-1.94-0.999-3.252-1.812-3.577-2.835
	c0,0,0.026,0.172-0.067,0.454c-0.025,0.076-0.058,0.162-0.106,0.26v0.001c0,0-0.135,0.64,1.008,1.601
	c1.147,0.963,3.765,2.426,8.018,3.93c4.25,1.5,7.742,2.367,10.781,2.957c2.977,0.58,5.48,0.328,8.367-1.852
	c0.057-0.044,0.117-0.082,0.173-0.129c0,0,0.766,1.4,1.17,2.518c0,0-1.109,1.155-2.764,2.418c-1.657,1.262-4.002,2.623-6.225,3.449
	c-2.226,0.825-5.555,1.65-8.602,1.573c-1.898-0.049-3.697-0.251-5.557-1.149c-1.128-0.545-2.276-1.34-3.483-2.508
	c0,0,2.078,2.752,4.346,3.418c0.183,0.051,0.362,0.104,0.543,0.155c2.086,0.587,4.2,0.987,7.315,0.604
	c3.389-0.41,6.87-1.688,9.979-3.521c3.108-1.836,4.71-3.756,4.71-3.756s0.348,0.94,0.446,2.06c0,0-0.28,0.422-0.778,0.93
	c-0.499,0.508-1.603,1.67-2.334,2.381c-0.294,0.283-0.957,0.957-1.826,1.709c-1.289,1.123-3.032,2.421-4.71,2.898
	c0,0,1.088-0.095,2.686-1.072c1.598-0.976,2.461-1.629,3.631-2.787c0.352-0.346,0.713-0.723,1.073-1.1
	c0.439-0.459,0.87-0.923,1.276-1.354c0.364-0.388,0.708-0.75,1.011-1.052c0,0,0.068,0.636-0.45,1.849h-0.002
	c0,0,0.005-0.004,0.013-0.008C55.247,80.442,56.041,79.708,56.232,77.994"/>
<path fill="#FFFFFF" d="M82.48,55.846H72.318l-3.148,14.212l-0.131,0.6c-0.136,0.623-0.273,1.149-0.432,1.594
	c-0.209,0.589-0.464,1.025-0.827,1.311c-0.356,0.277-0.817,0.415-1.444,0.415c-0.307,0-0.547-0.03-0.737-0.092
	c-0.179-0.058-0.308-0.14-0.396-0.243c-0.016-0.021-0.027-0.047-0.041-0.07c-0.037-0.059-0.067-0.125-0.09-0.203
	c-0.054-0.17-0.066-0.383-0.06-0.616c0.017-0.558,0.163-1.241,0.297-1.841l0.125-0.56l3.092-13.975l0.117-0.531H58.476L57.36,60.89
	c1.231,2.159,1.432,4.014,1.432,4.014s0.479,0.979,0.649,3.188c0.01,0.145,0.019,0.292,0.026,0.441
	c0.104,2.131-0.196,4.679-0.925,5.754l-0.002,0.002l0.002-0.002c-0.038,0.123-0.047,0.229-0.053,0.312
	c0.006,0.058,0.021,0.122,0.053,0.185c0,0-0.328,1.299-1.113,2.69c-0.512,0.909-0.98,1.69-1.472,2.284
	c0.079,0.117,0.163,0.23,0.253,0.344c0.233,0.289,0.488,0.553,0.766,0.801c0.215,0.192,0.443,0.377,0.686,0.545
	c0.824,0.576,1.807,1.006,2.943,1.297c1.162,0.301,2.482,0.453,3.96,0.453c2.386,0,4.521-0.402,6.386-1.166
	c1.012-0.416,1.949-0.938,2.795-1.571c2.586-1.931,4.363-4.849,5.209-8.659l0.176-0.807l3.236-14.616l0.117-0.531H82.48z"/>
</svg>
