<?xml version="1.0" encoding="utf-8"?>
<!-- Generator: Adobe Illustrator 14.0.0, SVG Export Plug-In . SVG Version: 6.00 Build 43363)  -->
<!DOCTYPE svg PUBLIC "-//W3C//DTD SVG 1.1//EN" "http://www.w3.org/Graphics/SVG/1.1/DTD/svg11.dtd">
<svg version="1.1" id="Layer_1" xmlns="http://www.w3.org/2000/svg" xmlns:xlink="http://www.w3.org/1999/xlink" x="0px" y="0px"
	 width="250px" height="148px" viewBox="0 0 250 148" enable-background="new 0 0 250 148" xml:space="preserve">
<g>
	<g>
		<path fill="#141006" d="M161.605,5.299l-3.231-0.157c-7.561-0.373-14.213,0.151-19.774,1.549
			c-14.253,3.581-23.02,14.195-24.985,23.615c-6.605-5.794-19.206-8.556-31.5-2.77c-4.611,2.174-9.462,5.556-14.417,10.056
			l-2.375,2.163c0,0,5.886,0.036,6.675,0.04v0.009c0.308,0.002,30.968,0.707,50.466,20.62c0,0,0.463,0.472,0.926,0.946
			c0.155,1.318,0.625,2.439,1.64,2.991l2.18,1.975l0.197-2.58c2.389-31.211,28.495-53.697,28.757-53.92l-0.005-0.007
			C156.823,9.275,161.605,5.299,161.605,5.299z M123.861,56.104c-0.21-0.295-0.432-0.576-0.68-0.855
			c0.262,0.062,0.572,0.084,0.851,0.131C123.974,55.606,123.921,55.854,123.861,56.104z"/>
		<g>
			<g>
				<path fill="#5B8E3F" d="M158.308,6.396c-7.849-0.386-14.23,0.212-19.394,1.511c-15.503,3.9-23.524,15.824-24.384,24.714
					c-0.7,7.308,3.838,12.334,4.811,13.318c3.659-13.258,32.249-34.115,32.249-34.115l-1.374,1.252c0,0-9.368,7.016-17.676,15.549
					c-12.421,12.266-13.551,20.62-13.551,20.62c-0.073-0.751-0.022-1.542,0.137-2.374c-1.095,4.04,0.452,6.976,6.51,7.49
					c0,0-2.464,7.904,0.142,8.972l0.361,0.326c2.46-32.125,29.2-54.778,29.2-54.778c-0.111,0.089-0.262,0.213-0.452,0.361
					L158.308,6.396z M126.063,60.031c-0.004,0.04-0.011,0.082-0.016,0.12C126.053,60.113,126.06,60.071,126.063,60.031z
					 M149.909,13.441c0.089-0.089,0.169-0.177,0.257-0.268l0.479-0.399C150.396,12.993,150.153,13.217,149.909,13.441z"/>
				<path fill="#FFFFFF" d="M118.988,49.246c0,0,1.13-8.354,13.551-20.62c8.308-8.534,17.676-15.549,17.676-15.549l1.374-1.252
					c0,0-28.59,20.856-32.249,34.115c-0.086,0.317-0.157,0.627-0.215,0.933C118.966,47.704,118.915,48.495,118.988,49.246z"/>
			</g>
			<g>
				<path fill="#141006" d="M149.785,13.585c0,0-9.329,7.111-17.577,15.717c-12.327,12.378-13.357,20.699-13.357,20.699
					c-1.063-12.504,29.309-35.344,32.654-38.09L149.785,13.585z"/>
			</g>
		</g>
		<g>
			<g>
				<path fill="#5B8E3F" d="M118.381,52.922c3.833-3.741,3.209-6.608,0.16-8.751c0.576,0.474,1.066,0.984,1.445,1.536
					c0,0-5.571-5.068-21.083-6.473c-10.57-1.164-20.985-0.698-20.985-0.698l-1.653-0.084c0,0,31.471-1.799,41.58,5.194
					c0.098-1.261,0.288-7.213-4.365-11.782c-5.687-5.584-18.002-9.225-30.815-3.191c-4.272,2.007-8.97,5.178-14.104,9.845
					l3.946,0.024c-0.204,0.002-0.37,0.004-0.487,0.004c0,0,31.24,0.463,51.359,21.003l0.055-0.423
					C124.608,56.942,118.381,52.922,118.381,52.922z M121.475,57.152c-0.067-0.06-0.129-0.122-0.193-0.184
					C121.346,57.033,121.41,57.093,121.475,57.152z M78.011,38.574c0.111,0.013,0.217,0.026,0.328,0.042
					c-0.297-0.018-0.594-0.036-0.891-0.047L78.011,38.574z"/>
				<path fill="#FFFFFF" d="M76.265,38.452l1.653,0.084c0,0,10.415-0.465,20.985,0.698c15.512,1.405,21.083,6.473,21.083,6.473
					c-0.379-0.552-0.869-1.062-1.445-1.536c-0.217-0.179-0.45-0.354-0.696-0.525C107.735,36.653,76.265,38.452,76.265,38.452z"/>
			</g>
			<g>
				<path fill="#141006" d="M78.503,38.641c0,0,10.448-0.379,21.014,0.871c15.512,1.529,20.992,6.635,20.992,6.635
					c-6.448-9.132-40.281-7.687-44.137-7.685L78.503,38.641z"/>
			</g>
		</g>
		<path fill="#141006" d="M228.469,56.955c-2.118-3.366-4.388-6.577-6.768-9.626C203.38,22.495,177.263,7.865,159.5,13.283
			c-0.009,0-0.053-0.002-0.053-0.002l0.026,0.011c-0.058,0.018-0.111,0.029-0.164,0.046c-0.443,0.069-0.904,0.252-1.388,0.477
			l0.106-0.042l-2.136,0.926c-0.851,0.428-1.666,0.926-2.504,1.518c-6.772,3.953-19.098,12.704-25.958,27.061
			c-8.33,17.429-6.195,37.494,6.347,59.646l0.026,0.047l0.029,0.046c1.385,2.095,2.838,4.096,4.358,6.019
			c20.015,27.381,52.385,38.718,85.514,29.637c3.093-0.281,5.916-1.046,8.376-2.287c0.718-0.363,1.436-0.813,2.146-1.296
			c0.021-0.007,0.039-0.019,0.039-0.019c1.645-0.671,2.877-1.79,3.696-3.311c2.429-2.78,4.269-6.307,5.447-10.499
			c1.072-3.809,1.591-8.09,1.591-12.684C245,92.967,239.017,73.73,228.469,56.955z"/>
		<path fill="#FDB913" d="M159.495,14.853c0.164-0.213-59.484,25.21-24.331,87.306c21.814,33.035,60.381,43.785,96.594,28.947
			C254.449,121.845,170.004,14.631,159.495,14.853z"/>
		<path fill="#FFFFFF" d="M223.714,56.188c-19.395-30.837-49.788-46.863-66.297-38.535c-16.558,8.343-15.321,42.615,4.073,73.452
			c19.35,30.777,50.599,48.163,67.16,39.813C245.159,122.594,243.063,86.961,223.714,56.188z"/>
		<path fill="#FDB913" d="M156.615,16.098c-5.199,2.622-8.979,7.674-10.934,14.612c-4.557,16.183,1.063,40.253,14.311,61.318
			c9.382,14.92,21.894,27.408,35.229,35.158c13.198,7.674,25.674,9.602,34.228,5.284c4.981-2.513,8.62-7.405,10.518-14.144
			c4.608-16.356-1.321-41.693-14.754-63.055l0,0C206.119,24.913,174.71,6.977,156.615,16.098z M197.007,124.183
			c-12.848-7.473-24.934-19.545-34.019-33.997c-12.751-20.276-18.211-43.253-13.903-58.541c1.68-5.974,4.835-10.275,9.134-12.442
			c7.495-3.778,18.57-2.123,30.39,4.545c12.622,7.122,24.558,18.971,33.607,33.361l0,0c12.945,20.584,18.716,44.809,14.354,60.283
			c-1.622,5.774-4.64,9.916-8.722,11.975C220.39,133.126,209.146,131.238,197.007,124.183z"/>
		<path fill="#FDB913" d="M189.233,43.948c-2.504-2.436-5.863-4.618-8.119-5.589c-3.209,5.139-10.078,8.715-10.078,8.715
			s-11.629,7.545-12.063,20.358c-0.12,3.401,0.279,7.341,1.427,11.921l-0.106-0.039c2.354,4.702,5.102,9.427,8.274,14.073
			c5.411,7.933,12.334,15.527,19.323,21.468C184.079,107.988,177.352,58.573,189.233,43.948z M214.518,84.338
			c-3.679-8.456-6.883-15.339-6.271-22.727c-1.259-4.115-11.159-12.719-14.688-14.182c-11.939,15.408-4.117,65.158-0.47,71.821
			c6.107,4.709,11.758,7.569,18.637,9.111c3.523-2.497,6.019-6.103,7.454-10.541C222.029,109.023,220.182,97.343,214.518,84.338z
			 M212.328,66.085c0.359,5.046,3.346,10.731,6.497,17.969c5.163,11.862,6.054,22.96,4.76,31.888
			c-0.767,5.223-2.614,9.697-5.549,13.123c3.878-0.058,7.361-1.11,10.265-3.271c5.442-4.045,8.035-11.368,8.004-20.478
			C236.3,103.233,224.804,81.477,212.328,66.085z M215.665,52.125c-3.541-5.586-7.889-9.954-10.45-12.221
			c-4.108-2.001-8.921,1.336-10.127,4.789c4.388,1.95,10.429,7.802,13.93,13.22C209.435,53.164,211.438,48.892,215.665,52.125z
			 M168.377,43.043c0,0,5.957-3.116,9.086-7.177c0.922-1.201-19.049-11.333-23.437-6.566c-0.531,0.578-1.945,4.574-2.26,5.804
			c-2.229,8.819-0.812,20.779,3.904,33.563c-0.204-3.211-0.022-6.036,0.43-8.514C158.033,49.751,168.377,43.043,168.377,43.043z
			 M175.871,21.6c-5.061-0.995-11.943-0.729-16.509,2.194c4.653-0.162,14.967,4.804,19.372,8.088
			C180.02,28.002,175.871,21.6,175.871,21.6z M191.077,40.967c0.342-0.893,3.688-6.945,9.692-5.64
			c-6.262-5.021-14.847-10.938-20.728-12.873c4.733,5.664,2.331,12.303,2.349,12.527C184.868,36.065,188.729,38.811,191.077,40.967z
			 M213.224,62.121c6.714,5.312,18.826,25.259,22.864,36.337c-0.497-2.921-2.274-9.945-2.482-10.675
			c-2.189-7.733-5.686-15.946-10.419-24.085c-1.033-1.768-2.974-4.93-4.122-6.688C213.224,53.254,213.268,62.014,213.224,62.121z"/>
	</g>
	<g>
		<g>
			<polygon fill="none" points="41.949,53.583 44.213,53.583 44.103,50.358 			"/>
			<polygon fill="none" points="33.309,53.627 35.58,53.627 35.465,50.39 			"/>
			<path fill="#FFFFFF" d="M46.811,47.402h-5.589l-0.658,2.302c0,0,0.858,0,0.867,0l-2.761,4.321l-0.383-6.624h-5.668l-0.645,2.289
				l0.864,0.013l-3.703,5.551l-3.047-0.016c-0.319,0-1.551-0.291-1.551-1.797c0-1.511,1.454-3.701,2.93-3.701l0.616,0.014
				c-0.102,0.375-0.319,1.147-0.319,1.147h2.712l0.977-3.501l-4.182-0.02c-2.601,0-4.702,1.851-5.367,3.75l1.081-3.721l-3.718-0.009
				l-0.656,2.302l0.964-0.004l-0.968,3.373l-2.433-5.662h-3.483l-0.656,2.293h0.958l-2.161,7.773h2.786c0,0,1.072-3.851,1.35-4.844
				c0.39,0.937,2.027,4.844,2.027,4.844l3.1-0.002l1.418-4.935c-0.125,0.736-0.131,1.502-0.002,2.265
				c0.275,1.618,1.866,2.672,3.603,2.672h5.628l0.969-1.447h3.973l0.077,1.434h3.517l0.899-1.434h4.06l0.16,1.447h2.491l0.55-1.104
				L46.811,47.402z M33.309,53.627l2.156-3.237l0.115,3.237H33.309z M41.949,53.583l2.154-3.224l0.111,3.224H41.949z"/>
		</g>
		<path fill="#007AC2" d="M48.421,59.417h0.334l0.505,0.818h0.324l-0.543-0.833c0.281-0.036,0.494-0.182,0.494-0.521
			c0-0.372-0.222-0.534-0.676-0.534h-0.727v1.888h0.288V59.417z M48.421,58.586h0.396c0.204,0,0.417,0.044,0.417,0.279
			c0,0.288-0.217,0.308-0.465,0.308h-0.348V58.586z"/>
		<path fill="#007AC2" d="M48.774,60.931c0.904,0,1.677-0.696,1.677-1.644c0-0.94-0.773-1.638-1.677-1.638
			c-0.913,0-1.687,0.698-1.687,1.638C47.087,60.235,47.861,60.931,48.774,60.931z M48.774,57.924c0.749,0,1.343,0.585,1.343,1.363
			c0,0.791-0.594,1.367-1.343,1.367c-0.76,0-1.352-0.576-1.352-1.367C47.422,58.509,48.014,57.924,48.774,57.924z"/>
		<polygon fill="#007AC2" points="33.309,53.627 35.58,53.627 35.465,50.39 		"/>
		<polygon fill="#007AC2" points="44.103,50.358 41.949,53.583 44.213,53.583 		"/>
		<path fill="#007AC2" d="M46.886,57.478h-2.491l-0.16-1.447h-4.06l-0.899,1.434h-3.517l-0.077-1.434h-3.973l-0.969,1.447h-5.628
			c-1.737,0-3.328-1.055-3.603-2.672c-0.128-0.762-0.122-1.529,0.002-2.265l-1.418,4.935l-3.1,0.002c0,0-1.638-3.907-2.027-4.844
			c-0.277,0.993-1.35,4.844-1.35,4.844H10.83l2.161-7.773h-0.958l0.656-2.293h3.483l2.433,5.662l0.968-3.373l-0.964,0.004
			l0.656-2.302l3.718,0.009l-1.081,3.721c0.665-1.899,2.766-3.75,5.367-3.75l4.182,0.02l-0.977,3.501h-2.712
			c0,0,0.217-0.773,0.319-1.147l-0.616-0.014c-1.476,0-2.93,2.189-2.93,3.701c0,1.507,1.232,1.797,1.551,1.797l3.047,0.016
			l3.703-5.551l-0.864-0.013l0.645-2.289h5.668l0.383,6.624l2.761-4.321c-0.009,0-0.867,0-0.867,0l0.658-2.302h5.589l0.625,8.972
			c1.196-2.592,1.879-5.467,1.928-8.491c0-0.113,0.009-0.224,0.009-0.339c0-1.792-0.23-3.537-0.647-5.203
			c-2.354-9.243-10.814-16.09-20.894-16.09c-11.897,0-21.542,9.533-21.542,21.293c0,11.758,9.644,21.291,21.542,21.291
			c0.485,0,0.968-0.018,1.447-0.049c2.743-0.18,5.349-0.871,7.718-1.975C41.226,64.844,44.705,61.551,46.886,57.478z"/>
	</g>
	<g>
		<path fill="#141006" d="M155.631,93.901l0.23-1.212c0.173-0.917,2.682-14.111,2.93-15.425l0.337-1.758l-3.612-4.164h-1.808h-0.337
			c0.931-4.102,2.029-8.939,2.207-9.714l0.416-1.811l-3.611-4.164h-1.875H85.864c0.19-1.019,0.35-1.868,0.412-2.227l0.328-1.752
			l-3.612-4.162h-1.801H54.98h-1.225l-0.244,1.188c-0.173,0.833-3.763,18.16-4.742,22.896H20.507h-1.192l-0.271,1.147
			c-0.08,0.341-13.202,55.955-13.615,57.699L5,132.264l3.61,4.162h1.892h23.345h1.166l0.292-1.112
			c0.182-0.714,2.267-8.704,3.045-11.691l3.537,0.013c0.41,0.663,0.844,1.304,1.33,1.897c0.616,0.747,3.129,3.572,3.61,4.161
			c2.331,2.837,6.694,6.249,14.255,6.389c0.155,0.002,0.308,0.005,0.461,0.005c3.865,0,7.446-0.778,10.639-2.305
			c2.79-1.337,5.321-3.262,7.537-5.732c0.071,0.058,0.146,0.11,0.222,0.17c0.376,0.665,0.793,1.294,1.254,1.859
			c3.297,4.062,8.521,6.118,15.525,6.118c4.702,0,8.899-0.939,12.534-2.801c0-0.016,0.775,2.238,0.775,2.238h1.87h44.164h2.256
			l-0.868-2.055c-0.554-1.301-4.915-11.609-6.378-15.051c1.582-1.141,2.85-2.477,3.865-4.07c1.116-1.753,1.932-3.822,2.495-6.338
			c0.354-1.564,0.527-3.089,0.527-4.531c0-4.392-1.64-7.333-3.019-9.027c-0.182-0.225-0.377-0.443-0.585-0.661h0.031H155.631z"/>
		<g>
			<path fill="#FFFFFF" d="M146.04,113.542c3.329-2.203,5.274-5.257,6.312-9.903c0.328-1.456,0.496-2.876,0.496-4.21
				c0-3.958-1.463-6.589-2.69-8.098c-0.536-0.66-1.188-1.278-2.074-1.95l-1.479-1.128c0,0,3.475,0,4.175,0
				c0.177-0.917,2.681-14.106,2.93-15.427c-1.206,0-6.772,0-6.772,0s3.253-14.299,3.572-15.684c-1.4,0-15.884,0-15.884,0
				l-1.348,6.386l-1.086-6.344l-14.25-0.042l-3.585,6.061l0.939-6.061h-13.856l-0.896,4.554l-1.739-4.554H79.677
				c0,0,1.29-6.916,1.514-8.142c-1.416,0-25.237,0-26.21,0c-0.202,0.964-4.986,24.085-4.986,24.085s-28.51,0-29.487,0
				c-0.222,0.944-13.26,56.205-13.615,57.694c1.471,0,22.43,0,23.345,0c0.229-0.875,3.344-12.808,3.344-12.808L41.063,118
				l0.133,0.452c0.691,2.338,1.764,4.405,3.188,6.145c2.13,2.589,6.132,5.706,13.116,5.839c7.497,0.115,13.681-2.771,18.381-8.586
				l0.663-0.818l0.417,0.962c0.492,1.126,1.095,2.134,1.795,2.996c3,3.691,7.827,5.562,14.351,5.562
				c5.87,0,10.894-1.537,14.931-4.563l1.385-1.037c0,0-0.902,4.024-1.132,5.039c1.498,0,42.365,0,44.16,0
				c-0.661-1.562-6.843-16.16-6.843-16.16L146.04,113.542z"/>
		</g>
		<g>
			<path fill="none" d="M63.104,101.378c-2.342,0.061-4.435,4.321-5.29,8.489c-0.57,2.819-0.762,6.362,0.412,7.874
				c0.359,0.458,0.815,0.688,1.432,0.727h0.002c2.475,0.155,4.43-4.195,5.265-8.571c0.711-3.714,0.536-6.752-0.461-7.931
				C64.117,101.556,63.68,101.369,63.104,101.378z"/>
			<path fill="none" d="M122.972,71.802c0,0,0.014-0.315,0.016-0.432c-0.716,1.657-1.287,2.971-1.633,3.767c0.673,0,1.139,0,1.648,0
				C122.992,74.042,122.972,71.804,122.972,71.802z"/>
			<path fill="none" d="M135.319,103.771c0-0.281-0.049-0.547-0.194-0.725c-0.377-0.461-1.472-0.519-2.383-0.519
				c0,0-0.166,0-0.285,0c-0.185,0.826-0.7,3.118-0.969,4.321c1.996-0.021,3.317-0.433,3.733-2.287
				C135.275,104.316,135.319,104.033,135.319,103.771z"/>
			<line fill="none" x1="59.561" y1="120.094" x2="59.557" y2="120.094"/>
			<g>
				<path fill="none" d="M63.104,101.378c-2.342,0.061-4.435,4.321-5.29,8.489c-0.57,2.819-0.762,6.362,0.412,7.874
					c0.359,0.458,0.815,0.688,1.432,0.727h0.002c2.475,0.155,4.43-4.195,5.265-8.571c0.711-3.714,0.536-6.752-0.461-7.931
					C64.117,101.556,63.68,101.369,63.104,101.378z"/>
				<path fill="#141006" d="M63.973,92.696c-13.36,0.41-16.799,13.176-17.535,17.083c-1.006,5.203-0.097,10.145,2.429,13.225
					c2.034,2.479,5.055,3.771,8.97,3.845c11.111,0.173,17.059-8.941,18.778-16.8c0.277-1.298,0.408-2.607,0.408-3.889
					c0-3.656-1.09-7.093-3.116-9.491C71.594,93.926,68.25,92.588,63.973,92.696z M66.545,110.2
					c-0.456,2.393-2.311,10.18-6.984,9.894c-1.082-0.066-1.995-0.533-2.642-1.36c-0.922-1.186-1.201-2.987-1.201-4.737
					c0-1.755,0.281-3.459,0.479-4.45c0.917-4.458,3.264-9.699,6.874-9.796c1.077-0.014,1.999,0.39,2.655,1.167
					C67.572,103.094,67.029,107.669,66.545,110.2z"/>
				<path fill="#141006" d="M75.172,95.628c-2.615-3.101-6.504-4.68-11.246-4.559c-9.852,0.307-16.994,7.183-19.108,18.406
					c-1.095,5.661-0.06,11.104,2.772,14.554c2.354,2.868,5.792,4.368,10.22,4.447c12.112,0.191,18.567-9.626,20.417-18.088
					l0.002-0.007C79.394,104.897,78.224,99.242,75.172,95.628z M76.615,110.049c-1.719,7.858-7.667,16.973-18.778,16.8
					c-3.916-0.073-6.936-1.365-8.97-3.845c-2.526-3.08-3.435-8.021-2.429-13.225c0.736-3.907,4.175-16.673,17.535-17.083
					c4.276-0.108,7.621,1.229,9.934,3.973c2.025,2.398,3.116,5.835,3.116,9.491C77.022,107.441,76.892,108.751,76.615,110.049z"/>
				<path fill="#141006" d="M63.071,99.75c-3.609,0.097-5.956,5.338-6.874,9.796c-0.197,0.991-0.479,2.695-0.479,4.45
					c0,1.75,0.279,3.552,1.201,4.737c0.647,0.827,1.56,1.294,2.642,1.36c4.673,0.286,6.528-7.501,6.984-9.894
					c0.483-2.531,1.026-7.106-0.82-9.283C65.07,100.14,64.148,99.736,63.071,99.75z M64.926,109.896
					c-0.835,4.376-2.79,8.727-5.265,8.571h-0.002c-0.616-0.038-1.073-0.269-1.432-0.727c-1.174-1.512-0.982-5.055-0.412-7.874
					c0.855-4.168,2.947-8.429,5.29-8.489c0.576-0.009,1.012,0.178,1.36,0.588C65.462,103.145,65.637,106.183,64.926,109.896z"/>
			</g>
			<g>
				<path fill="#141006" d="M118.009,91.309h-1.028h-12.999l-4.519,20.186c-0.693,3.08-1.288,4.529-3.729,4.529
					c-0.789,0-1.312-0.155-1.564-0.461c-0.532-0.66-0.157-2.354,0.146-3.716l4.604-20.538H84.894l-4.793,21.397
					c-1.119,5.002-0.559,8.928,1.664,11.663c2.278,2.803,6.151,4.223,11.519,4.223c10.561,0,17.61-5.518,19.853-15.533
					L118.009,91.309z"/>
				<path fill="#141006" d="M136.777,92.938c0,0-13.029,0-14.239,0c-0.266,1.194-7.082,31.631-7.494,33.466
					c1.618,0,9.302,0,10.379,0c0.257-1.137,2.522-11.267,2.522-11.267h1.528c0,0,2.598,10.169,2.881,11.267
					c1.063,0,10.384,0,12.348,0c-1.219-2.874-4.348-10.265-4.348-10.267c-0.342-0.778-0.812-1.234-1.268-1.683l-0.479-0.472
					l0.261-1.172l0.448-0.146c4.955-1.584,6.989-3.736,8.062-8.524c0.253-1.115,0.377-2.152,0.377-3.111
					c0-1.939-0.515-3.546-1.529-4.8C144.02,93.507,139.871,92.938,136.777,92.938z M136.831,104.91
					c-0.803,3.577-4.104,3.577-5.514,3.577h-1.883l1.701-7.59h0.658h0.948c1.43,0,2.861,0.138,3.668,1.128
					C136.973,102.721,137.105,103.663,136.831,104.91z"/>
				<path fill="#141006" d="M132.742,100.897h-0.948h-0.658l-1.701,7.59h1.883c1.409,0,4.711,0,5.514-3.577
					c0.274-1.247,0.142-2.189-0.421-2.885C135.604,101.035,134.172,100.897,132.742,100.897z M131.488,106.85
					c0.269-1.203,0.784-3.495,0.969-4.321c0.119,0,0.285,0,0.285,0c0.911,0,2.006,0.058,2.383,0.519
					c0.146,0.178,0.194,0.443,0.194,0.725c0,0.262-0.044,0.545-0.098,0.791C134.806,106.417,133.484,106.829,131.488,106.85z"/>
				<path fill="#141006" d="M136.777,91.309h-14.899h-0.663l-8.224,36.723h13.756c0,0,1.304-5.823,2.02-9.014
					c0.813,3.184,2.302,9.014,2.302,9.014h16.11l-5.31-12.531c-0.311-0.718-0.705-1.223-1.081-1.637
					c4.799-1.758,7.082-4.375,8.198-9.372c0.279-1.233,0.417-2.395,0.417-3.477c0-2.309-0.63-4.257-1.893-5.804
					C145.438,92.656,141.729,91.309,136.777,91.309z M147.379,104.14c-1.072,4.788-3.106,6.94-8.062,8.524l-0.448,0.146
					l-0.261,1.172l0.479,0.472c0.456,0.448,0.926,0.904,1.268,1.683c0,0.002,3.129,7.393,4.348,10.267c-1.964,0-11.284,0-12.348,0
					c-0.283-1.098-2.881-11.267-2.881-11.267h-1.528c0,0-2.265,10.13-2.522,11.267c-1.077,0-8.762,0-10.379,0
					c0.412-1.835,7.228-32.271,7.494-33.466c1.21,0,14.239,0,14.239,0c3.094,0,7.242,0.569,9.449,3.291
					c1.015,1.254,1.529,2.86,1.529,4.8C147.756,101.987,147.632,103.024,147.379,104.14z"/>
				<path fill="#141006" d="M73.074,85.614h9.059l5.248-24.712h-0.731h-8.327L73.074,85.614z"/>
				<path fill="#141006" d="M93.168,85.614l1.715-8.95c0.159-0.712,0.261-1.412,0.339-2.136c1.021,3.078,3.665,11.086,3.665,11.086
					h8.414l5.248-24.712h-0.734h-7.979l-1.602,7.151c-0.252,1.132-0.377,2.269-0.465,3.395c-1.035-2.992-3.645-10.546-3.645-10.546
					h-8.434l-5.248,24.712H93.168z"/>
				<path d="M116.174,84.439c0.208-0.665,1.25-4,1.25-4h6.949c0,0,0.071,3.158,0.093,4c0.917,0,6.01,0,7.052,0
					c-0.138-1.212-2.456-21.395-2.568-22.363c-0.894,0-7.169,0-7.785,0c-0.314,0.587-11.038,20.788-11.875,22.363
					C110.727,84.439,115.482,84.439,116.174,84.439z M123.017,68.332h0.678l0.638-0.002l-0.066,0.853c0,0-0.106,2.597-0.106,2.6
					l0.04,4.531h-4.649L123.017,68.332z"/>
				<path fill="#141006" d="M124.16,71.782c0-0.002,0.106-2.6,0.106-2.6l0.066-0.853l-0.638,0.002h-0.678l-3.466,7.981h4.649
					L124.16,71.782z M122.988,71.37c-0.002,0.117-0.016,0.432-0.016,0.432c0,0.002,0.02,2.24,0.031,3.334c-0.51,0-0.975,0-1.648,0
					C121.701,74.341,122.272,73.027,122.988,71.37z"/>
				<path fill="#141006" d="M117.049,85.614c0,0,1.043-3.335,1.252-4.002c0.673,0,4.04,0,4.906,0
					c0.022,0.844,0.097,4.002,0.097,4.002h9.053h0.494h15.161l1.826-9.558c0,0-5.394,0-6.56,0
					c0.288-1.294,3.395-15.155,3.395-15.155h-0.744h-8.327l-4.924,23.201l-2.664-23.201h-0.532h-9.039l-13.121,24.712H117.049z
					 M128.949,62.076c0.112,0.968,2.431,21.151,2.568,22.363c-1.042,0-6.134,0-7.052,0c-0.022-0.842-0.093-4-0.093-4h-6.949
					c0,0-1.042,3.335-1.25,4c-0.691,0-5.447,0-6.885,0c0.837-1.575,11.561-21.776,11.875-22.363
					C121.78,62.076,128.056,62.076,128.949,62.076z"/>
				<path fill="#141006" d="M62.712,85.716c0,0,2.292-10.391,2.478-11.241c0.842,0,7.485,0,7.485,0l1.952-8.724c0,0-6.353,0-7.519,0
					c0.171-0.938,0.627-3.461,0.751-4.148c0.884,0,8.511,0,8.511,0l2.125-9.498h-0.742H58.458l-7.242,33.611H62.712z"/>
				<path fill="#141006" d="M35.948,96.237c0.288-1.312,1.011-4.587,1.208-5.486c1.181,0,11.817,0,11.817,0l2.947-13.158h-1.028
					H24.168l-11.913,51.245h15.933c0,0,4.758-19.345,5.043-20.515c1.139,0,10.393,0,10.393,0l2.703-12.086
					C46.327,96.237,37.61,96.237,35.948,96.237z"/>
			</g>
		</g>
		<g>
			<path fill="none" d="M121.88,70.627c0,0,0.016-0.321,0.02-0.432c-0.722,1.655-1.29,2.97-1.635,3.767c0.673,0,1.139,0,1.648,0
				C121.9,72.866,121.88,70.627,121.88,70.627z"/>
			<path fill="none" d="M61.578,99.349c-2.375,0.062-4.501,4.385-5.372,8.62c-0.576,2.858-0.771,6.457,0.419,7.988
				c0.37,0.47,0.831,0.702,1.456,0.738h0.004c2.513,0.161,4.494-4.255,5.341-8.696c0.725-3.777,0.542-6.864-0.47-8.057
				C62.608,99.528,62.167,99.342,61.578,99.349z"/>
			<path fill="none" d="M133.769,102.141c0-0.284-0.049-0.548-0.195-0.725c-0.374-0.463-1.471-0.521-2.382-0.521
				c0,0-0.162,0-0.286,0c-0.182,0.826-0.695,3.122-0.966,4.325c1.992-0.02,3.314-0.432,3.729-2.294
				C133.727,102.688,133.769,102.402,133.769,102.141z"/>
			<g>
				<path fill="#5B8E3F" d="M80.076,83.261c0.186-0.866,4.472-21.056,4.751-22.363c-1.124,0-5.866,0-6.635,0
					c-0.182,0.871-4.467,21.058-4.746,22.363C74.569,83.261,79.31,83.261,80.076,83.261z"/>
				<path fill="#5B8E3F" d="M91.094,83.261c0.337-1.771,1.531-7.993,1.534-8.009c0.308-1.385,0.408-2.743,0.5-4.376l0.031-0.554
					h1.223c0,0,4.024,12.183,4.277,12.939c0.711,0,5.792,0,6.585,0c0.182-0.866,4.472-21.056,4.747-22.363c-1.108,0-5.54,0-6.293,0
					c-0.333,1.498-1.392,6.229-1.392,6.229c-0.39,1.742-0.49,3.534-0.585,5.27l-0.049,0.875h-1.219c0,0-4.011-11.627-4.272-12.374
					c-0.705,0-5.824,0-6.617,0c-0.186,0.871-4.472,21.058-4.751,22.363C85.917,83.261,90.318,83.261,91.094,83.261z"/>
				<path fill="#5B8E3F" d="M115.082,83.261c0.206-0.665,1.252-3.998,1.252-3.998h6.945c0,0,0.075,3.156,0.093,3.998
					c0.922,0,6.017,0,7.056,0c-0.138-1.208-2.46-21.395-2.566-22.363c-0.895,0-7.166,0-7.787,0
					c-0.314,0.592-11.038,20.792-11.873,22.363C109.637,83.261,114.395,83.261,115.082,83.261z M121.924,67.151h0.678h0.636
					l-0.058,0.793c0,0-0.108,2.659-0.108,2.661l0.042,4.531h-4.653L121.924,67.151z"/>
				<path fill="#5B8E3F" d="M145.938,83.261c0.146-0.775,1.17-6.104,1.378-7.204c-1.143,0-6.607,0-6.607,0
					s3.103-13.858,3.391-15.159c-1.131,0-5.859,0-6.622,0c-0.19,0.871-4.472,21.058-4.746,22.363
					C134.003,83.261,145.069,83.261,145.938,83.261z"/>
				<path fill="#5B8E3F" d="M70.629,72.125c0.167-0.731,1.181-5.285,1.425-6.375c-1.201,0-7.459,0-7.459,0l1.174-6.502
					c0,0,7.703,0,8.554,0c0.164-0.749,1.347-6.025,1.6-7.146c-1.33,0-16.712,0-17.59,0c-0.191,0.884-6.451,29.922-6.739,31.258
					c1.206,0,8.263,0,9.065,0c0.19-0.849,2.478-11.235,2.478-11.235S69.79,72.125,70.629,72.125z"/>
				<path fill="#5B8E3F" d="M114.406,91.309c-1.626,0-9.569,0-10.652,0c-0.733,3.277-4.23,18.909-4.23,18.909
					c-0.581,2.586-1.299,5.806-5.341,5.806c-1.334,0-2.262-0.348-2.85-1.075c-0.465-0.573-0.629-1.305-0.629-2.101
					c0-0.957,0.233-2.003,0.455-2.98c0,0,3.754-16.774,4.155-18.559c-1.626,0-9.564,0-10.646,0
					c-0.27,1.197-4.507,20.117-4.507,20.117c-0.348,1.558-0.523,2.989-0.523,4.292c0,2.466,0.625,4.476,1.866,6.007
					c1.945,2.396,5.389,3.608,10.233,3.608c9.706,0,16.186-5.063,18.242-14.258C109.978,111.075,114,93.104,114.406,91.309z"/>
				<path fill="#5B8E3F" d="M135.231,91.309c0,0-13.032,0-14.24,0c-0.27,1.19-7.082,31.631-7.494,33.468c1.618,0,9.303,0,10.379,0
					c0.252-1.142,2.517-11.266,2.517-11.266h1.531c0,0,2.6,10.162,2.881,11.266c1.062,0,10.382,0,12.345,0
					c-1.214-2.874-4.352-10.269-4.352-10.269c-0.333-0.778-0.807-1.239-1.264-1.685l-0.487-0.47l0.271-1.174l0.447-0.143
					c4.96-1.586,6.994-3.74,8.063-8.524c0.252-1.119,0.376-2.158,0.376-3.118c0-1.932-0.51-3.541-1.528-4.795
					C142.464,91.876,138.32,91.309,135.231,91.309z M135.279,103.279c-0.797,3.572-4.099,3.572-5.511,3.572h-1.886l1.702-7.585h0.66
					h0.946c1.43,0,2.86,0.135,3.667,1.13C135.417,101.088,135.559,102.034,135.279,103.279z"/>
				<path fill="#5B8E3F" d="M62.459,90.533c-13.566,0.421-17.054,13.378-17.801,17.34c-1.021,5.28-0.1,10.3,2.466,13.431
					c2.065,2.516,5.13,3.827,9.105,3.902c11.281,0.176,17.317-9.078,19.063-17.058c0.279-1.319,0.417-2.648,0.417-3.949
					c0-3.71-1.11-7.19-3.165-9.631C70.195,91.783,66.803,90.427,62.459,90.533z M65.07,108.306
					c-0.461,2.429-2.347,10.337-7.089,10.04h-0.002h0.002c-1.097-0.062-2.023-0.538-2.679-1.378
					c-0.939-1.206-1.223-3.034-1.223-4.809c0-1.786,0.286-3.515,0.488-4.517c0.931-4.529,3.315-9.848,6.98-9.945
					c1.092-0.018,2.021,0.396,2.692,1.182C66.111,101.084,65.566,105.734,65.07,108.306z"/>
				<path fill="#5B8E3F" d="M40.335,105.065c0.226-1.011,1.638-7.314,1.977-8.828c-1.667,0-10.371,0-10.371,0l1.923-8.744
					c0,0,10.646,0,11.824,0c0.23-1.037,1.866-8.346,2.214-9.896c-1.846,0-23.19,0-24.386,0
					c-0.282,1.205-10.916,46.701-11.359,48.594c1.697,0,11.479,0,12.569,0c0.29-1.17,5.251-21.125,5.251-21.125
					S39.174,105.065,40.335,105.065z"/>
			</g>
			<g>
				<g>
					<path fill="#FDB913" d="M71.979,84.439h9.063l5.247-24.716h-0.731h-8.332L71.979,84.439z M84.827,60.897
						c-0.279,1.307-4.565,21.497-4.751,22.363c-0.767,0-5.507,0-6.63,0c0.279-1.306,4.564-21.493,4.746-22.363
						C78.961,60.897,83.704,60.897,84.827,60.897z"/>
					<path fill="#FDB913" d="M92.073,84.439l1.72-8.948c0.16-0.713,0.261-1.414,0.337-2.138c1.019,3.076,3.667,11.086,3.667,11.086
						h8.412l5.25-24.716h-0.736h-7.978l-1.6,7.153c-0.253,1.135-0.381,2.271-0.47,3.397c-1.033-2.989-3.643-10.55-3.643-10.55
						h-8.436l-5.25,24.716H92.073z M96.182,60.897c0.262,0.747,4.272,12.374,4.272,12.374h1.219l0.049-0.875
						c0.095-1.735,0.195-3.528,0.585-5.27c0,0,1.059-4.731,1.392-6.229c0.753,0,5.185,0,6.293,0
						c-0.274,1.307-4.564,21.497-4.747,22.363c-0.793,0-5.874,0-6.585,0c-0.253-0.756-4.277-12.939-4.277-12.939h-1.223
						l-0.031,0.554c-0.093,1.633-0.193,2.991-0.5,4.376c-0.002,0.016-1.197,6.238-1.534,8.009c-0.775,0-5.176,0-6.28,0
						c0.279-1.306,4.565-21.493,4.751-22.363C90.358,60.897,95.477,60.897,96.182,60.897z"/>
					<path fill="#FDB913" d="M123.072,70.605c0-0.002,0.108-2.661,0.108-2.661l0.058-0.793h-0.636h-0.678l-3.463,7.986h4.653
						L123.072,70.605z M121.9,70.195c-0.004,0.111-0.02,0.432-0.02,0.432s0.02,2.238,0.033,3.335c-0.51,0-0.975,0-1.648,0
						C120.61,73.165,121.178,71.851,121.9,70.195z"/>
					<path fill="#FDB913" d="M115.957,84.439c0,0,1.046-3.337,1.254-4c0.671,0,4.038,0,4.906,0c0.018,0.845,0.093,4,0.093,4h9.059
						h0.492h15.161l1.826-9.56c0,0-5.394,0-6.559,0c0.288-1.298,3.39-15.157,3.39-15.157h-0.74h-8.331l-4.924,23.206l-2.662-23.206
						h-0.529h-9.041l-13.118,24.716H115.957z M144.1,60.897c-0.288,1.301-3.391,15.159-3.391,15.159s5.465,0,6.607,0
						c-0.208,1.1-1.231,6.429-1.378,7.204c-0.869,0-11.936,0-13.207,0c0.274-1.306,4.556-21.493,4.746-22.363
						C138.24,60.897,142.969,60.897,144.1,60.897z M127.86,60.897c0.106,0.968,2.429,21.155,2.566,22.363c-1.039,0-6.134,0-7.056,0
						c-0.018-0.842-0.093-3.998-0.093-3.998h-6.945c0,0-1.046,3.333-1.252,3.998c-0.687,0-5.445,0-6.88,0
						c0.835-1.571,11.558-21.771,11.873-22.363C120.694,60.897,126.966,60.897,127.86,60.897z"/>
					<path fill="#FDB913" d="M64.099,73.298c0.838,0,7.485,0,7.485,0l1.95-8.727c0,0-6.355,0-7.517,0
						c0.168-0.939,0.625-3.466,0.749-4.148c0.884,0,8.509,0,8.509,0l2.127-9.498h-0.74H57.37l-7.244,33.613h11.496
						C61.622,84.539,63.909,74.149,64.099,73.298z M51.595,83.36c0.288-1.336,6.548-30.374,6.739-31.258c0.877,0,16.26,0,17.59,0
						c-0.252,1.121-1.436,6.397-1.6,7.146c-0.851,0-8.554,0-8.554,0l-1.174,6.502c0,0,6.258,0,7.459,0
						c-0.244,1.09-1.259,5.644-1.425,6.375c-0.84,0-7.492,0-7.492,0S60.851,82.512,60.66,83.36
						C59.858,83.36,52.8,83.36,51.595,83.36z"/>
					<path fill="#FDB913" d="M116.458,89.678h-1.028h-12.999l-4.521,20.189c-0.687,3.078-1.279,4.525-3.728,4.525
						c-0.787,0-1.312-0.153-1.562-0.459c-0.539-0.665-0.157-2.355,0.144-3.712c0-0.004,4.6-20.544,4.6-20.544H83.342l-4.791,21.397
						c-1.117,5.001-0.559,8.931,1.666,11.667c2.274,2.799,6.152,4.222,11.519,4.222c10.562,0,17.608-5.518,19.851-15.538
						L116.458,89.678z M91.736,125.333c-4.844,0-8.288-1.213-10.233-3.608c-1.241-1.531-1.866-3.541-1.866-6.007
						c0-1.303,0.175-2.734,0.523-4.292c0,0,4.237-18.92,4.507-20.117c1.082,0,9.019,0,10.646,0
						c-0.401,1.784-4.155,18.559-4.155,18.559c-0.222,0.978-0.455,2.023-0.455,2.98c0,0.796,0.164,1.527,0.629,2.101
						c0.587,0.728,1.516,1.075,2.85,1.075c4.042,0,4.76-3.22,5.341-5.806c0,0,3.497-15.632,4.23-18.909c1.083,0,9.026,0,10.652,0
						c-0.406,1.795-4.428,19.767-4.428,19.767C107.922,120.27,101.442,125.333,91.736,125.333z"/>
					<path fill="#FDB913" d="M131.191,99.267h-0.946h-0.66l-1.702,7.585h1.886c1.412,0,4.714,0,5.511-3.572
						c0.279-1.245,0.138-2.191-0.421-2.883C134.052,99.401,132.621,99.267,131.191,99.267z M129.939,105.221
						c0.271-1.203,0.784-3.499,0.966-4.325c0.124,0,0.286,0,0.286,0c0.911,0,2.008,0.058,2.382,0.521
						c0.146,0.177,0.195,0.44,0.195,0.725c0,0.262-0.042,0.547-0.1,0.786C133.254,104.789,131.932,105.201,129.939,105.221z"/>
					<path fill="#FDB913" d="M135.231,89.678h-14.905h-0.658l-8.223,36.728h13.752c0,0,1.305-5.83,2.017-9.019
						c0.815,3.182,2.309,9.019,2.309,9.019h16.105l-5.31-12.536c-0.31-0.716-0.7-1.223-1.076-1.635
						c4.791-1.755,7.077-4.374,8.198-9.374c0.275-1.234,0.413-2.396,0.413-3.475c0-2.309-0.63-4.254-1.893-5.808
						C143.887,91.027,140.177,89.678,135.231,89.678z M145.828,102.513c-1.068,4.784-3.103,6.938-8.063,8.524l-0.447,0.143
						l-0.271,1.174l0.487,0.47c0.457,0.445,0.931,0.906,1.264,1.685c0,0,3.138,7.395,4.352,10.269c-1.963,0-11.283,0-12.345,0
						c-0.281-1.104-2.881-11.266-2.881-11.266h-1.531c0,0-2.265,10.124-2.517,11.266c-1.077,0-8.762,0-10.379,0
						c0.412-1.837,7.224-32.277,7.494-33.468c1.208,0,14.24,0,14.24,0c3.089,0,7.232,0.567,9.444,3.291
						c1.019,1.254,1.528,2.863,1.528,4.795C146.204,100.354,146.08,101.394,145.828,102.513z"/>
					<path fill="#FDB913" d="M61.546,97.697c-3.665,0.098-6.049,5.416-6.98,9.945c-0.202,1.002-0.488,2.73-0.488,4.517
						c0,1.774,0.284,3.603,1.223,4.809c0.656,0.84,1.583,1.316,2.679,1.378c4.742,0.297,6.628-7.611,7.089-10.04
						c0.497-2.571,1.042-7.222-0.831-9.427C63.567,98.094,62.639,97.68,61.546,97.697z M63.426,107.999
						c-0.847,4.441-2.828,8.857-5.341,8.696h-0.004c-0.625-0.036-1.085-0.269-1.456-0.738c-1.19-1.531-0.995-5.13-0.419-7.988
						c0.871-4.235,2.996-8.559,5.372-8.62c0.589-0.007,1.03,0.18,1.378,0.594C63.968,101.135,64.15,104.222,63.426,107.999z"/>
					<path fill="#FDB913" d="M62.415,88.883c-10.007,0.31-17.258,7.295-19.398,18.687c-1.114,5.748-0.064,11.272,2.808,14.771
						c2.391,2.916,5.881,4.433,10.377,4.517c12.298,0.192,18.849-9.771,20.728-18.361v-0.005c1.183-5.566-0.004-11.308-3.098-14.979
						C71.177,90.36,67.228,88.761,62.415,88.883z M75.294,108.148c-1.746,7.979-7.782,17.233-19.063,17.058
						c-3.976-0.075-7.04-1.387-9.105-3.902c-2.566-3.131-3.488-8.15-2.466-13.431c0.747-3.962,4.235-16.919,17.801-17.34
						c4.343-0.106,7.736,1.25,10.087,4.035c2.054,2.44,3.165,5.921,3.165,9.631C75.711,105.5,75.573,106.829,75.294,108.148z"/>
					<path fill="#FDB913" d="M33.984,94.606c0.288-1.31,1.011-4.585,1.21-5.482c1.184,0,11.818,0,11.818,0l2.94-13.16h-1.024H22.207
						l-12.119,51.857h15.928c0,0,4.959-19.955,5.251-21.127c1.135,0,10.389,0,10.389,0l2.71-12.088
						C44.366,94.606,35.649,94.606,33.984,94.606z M12.158,126.19c0.443-1.893,11.077-47.389,11.359-48.594
						c1.196,0,22.541,0,24.386,0c-0.348,1.551-1.983,8.859-2.214,9.896c-1.179,0-11.824,0-11.824,0l-1.923,8.744
						c0,0,8.704,0,10.371,0c-0.339,1.514-1.75,7.817-1.977,8.828c-1.161,0-10.357,0-10.357,0s-4.961,19.955-5.251,21.125
						C23.636,126.19,13.855,126.19,12.158,126.19z"/>
				</g>
			</g>
		</g>
		<g>
			<path fill="#141006" d="M155.512,117.885c0.97,0,1.746,0.78,1.746,1.753c0,0.993-0.776,1.766-1.755,1.766
				c-0.967,0-1.756-0.772-1.756-1.766c0-0.973,0.789-1.753,1.756-1.753H155.512z M155.503,118.159c-0.78,0-1.419,0.663-1.419,1.479
				c0,0.838,0.639,1.491,1.428,1.491c0.793,0.009,1.422-0.653,1.422-1.48c0-0.826-0.629-1.489-1.422-1.489H155.503z
				 M155.175,120.664h-0.319v-1.959c0.168-0.024,0.323-0.049,0.559-0.049c0.306,0,0.501,0.06,0.616,0.148
				c0.119,0.084,0.186,0.219,0.186,0.403c0,0.264-0.177,0.419-0.386,0.48v0.016c0.173,0.029,0.293,0.184,0.328,0.475
				c0.049,0.303,0.093,0.421,0.129,0.485h-0.333c-0.048-0.064-0.093-0.244-0.133-0.501c-0.049-0.251-0.173-0.344-0.43-0.344h-0.217
				V120.664z M155.175,119.578h0.226c0.262,0,0.483-0.096,0.483-0.337c0-0.171-0.124-0.344-0.483-0.344
				c-0.102,0-0.177,0.011-0.226,0.018V119.578z"/>
		</g>
	</g>
	<g>
		<g>
			<path fill="#141006" d="M144.977,37.836c-0.009-0.013-0.018-0.022-0.022-0.038c-0.004-0.004-0.009-0.009-0.013-0.016
				c-0.009-0.018-0.026-0.033-0.04-0.051c0-0.009-0.009-0.013-0.009-0.02c-0.009-0.018-0.022-0.033-0.031-0.049
				c-0.009-0.011-0.013-0.015-0.018-0.022c0-0.004-0.005-0.009-0.009-0.016c-0.018-0.033-0.04-0.058-0.058-0.086
				c-0.005-0.006-0.009-0.013-0.009-0.02c-0.005-0.004-0.009-0.009-0.014-0.015c-0.021-0.034-0.044-0.058-0.062-0.086
				c-0.005-0.007-0.009-0.011-0.014-0.018c-0.014-0.022-0.022-0.033-0.04-0.053c0-0.006-0.004-0.011-0.009-0.015
				c-0.004-0.009-0.009-0.014-0.009-0.02c-0.004-0.011-0.013-0.022-0.018-0.033c-0.014-0.02-0.026-0.036-0.04-0.056
				c-0.004-0.004-0.009-0.011-0.014-0.013c-0.004-0.009-0.009-0.013-0.009-0.018c-0.018-0.02-0.026-0.033-0.035-0.056
				c-0.004-0.004-0.009-0.011-0.013-0.016c-0.01-0.013-0.019-0.024-0.022-0.035c-0.014-0.018-0.026-0.036-0.04-0.051
				c0-0.009-0.005-0.011-0.009-0.02c-0.005-0.007-0.009-0.011-0.014-0.018c-0.009-0.018-0.021-0.033-0.03-0.051
				c-0.014-0.018-0.027-0.031-0.036-0.051c-0.013-0.02-0.026-0.036-0.04-0.056c0-0.002-0.004-0.011-0.009-0.016
				c-0.013-0.02-0.021-0.033-0.035-0.053c-0.005-0.006-0.009-0.011-0.009-0.015c-0.014-0.02-0.026-0.036-0.04-0.056
				c-0.014-0.018-0.022-0.031-0.035-0.051c-0.014-0.02-0.022-0.033-0.036-0.053c-0.004-0.007-0.004-0.013-0.004-0.016
				c-0.014-0.018-0.031-0.033-0.04-0.053c-0.004-0.004-0.009-0.011-0.014-0.018c-0.013-0.02-0.021-0.036-0.035-0.051
				c-0.004-0.009-0.009-0.011-0.013-0.018c-0.005-0.013-0.014-0.022-0.019-0.033c-0.004-0.009-0.009-0.013-0.013-0.02
				c-0.014-0.02-0.031-0.035-0.04-0.051c0-0.007-0.005-0.011-0.009-0.018c-0.014-0.02-0.022-0.033-0.035-0.056
				c-0.014-0.018-0.022-0.031-0.04-0.049c0-0.006-0.005-0.011-0.005-0.018c-0.013-0.02-0.026-0.033-0.04-0.053
				c0-0.007-0.004-0.009-0.009-0.018c-0.062-0.109-0.133-0.206-0.199-0.295l0,0c-0.009-0.009-0.018-0.022-0.026-0.031
				c-0.377-0.479-1.117-1.048-2.526-1.048h-5.438c-1.126,0-2.07,0.37-2.764,1.024c-0.569-0.678-1.436-1.024-2.586-1.024h-5.042
				c-0.957,0-2.092,0.248-2.996,1.15c-0.006-0.013-0.015-0.024-0.024-0.035l0,0c-0.009-0.011-0.016-0.024-0.024-0.036
				c-0.565-0.713-1.454-1.079-2.635-1.079h-5.039c-0.92,0-1.995,0.228-2.881,1.039c-0.762-0.928-2.014-1.039-2.898-1.039h-7.497
				l-2.568,6.165c0,0,0.004-0.004,0.022-0.013L98.69,40.93c0,0,0.014-0.002,0.022-0.011l-0.009,0.031c0,0,0.009-0.005,0.022-0.011
				l-0.013,0.029c0,0,0.009-0.004,0.026-0.011l-0.013,0.029c0,0,0.009-0.004,0.024-0.011l-0.011,0.029c0,0,0.009-0.006,0.022-0.011
				l-0.011,0.026c0,0,0.009-0.002,0.024-0.011l-0.011,0.031c0,0,0.007-0.007,0.024-0.011l-0.013,0.029c0,0,0.006-0.004,0.022-0.013
				l-0.009,0.029c0,0,0.007-0.004,0.022-0.009l-0.013,0.026c0,0,0.009-0.004,0.027-0.011l-0.014,0.026c0,0,0.009,0,0.022-0.011
				l-0.009,0.029c0,0,0.009-0.005,0.02-0.007l-0.011,0.026c0,0,0.009-0.002,0.024-0.013l-0.014,0.031c0,0,0.011-0.007,0.024-0.011
				l-0.013,0.024c0,0,0.009,0,0.027-0.007l-0.014,0.027c0,0,0.009-0.002,0.022-0.011l-0.009,0.029c0,0,0.009-0.004,0.022-0.011
				l-0.013,0.027c0,0,0.009-0.002,0.026-0.011l-0.013,0.031c0,0,0.009-0.007,0.024-0.011l-0.011,0.029c0,0,0.007-0.002,0.022-0.011
				l-0.011,0.029c0,0,0.007-0.004,0.02-0.011L98.938,41.3c0,0,0.009-0.007,0.026-0.011l-0.018,0.026c0,0,0.011-0.002,0.026-0.011
				l-0.013,0.029c0,0,0.011-0.004,0.024-0.009l-0.011,0.024c0,0,0.007-0.002,0.024-0.009l-0.013,0.029c0,0,0.011-0.004,0.024-0.011
				l-0.011,0.029c0,0,0.007-0.004,0.024-0.011l-0.013,0.029c0,0,0.006-0.007,0.022-0.011l-0.009,0.027c0,0,0.007-0.004,0.022-0.011
				l-0.013,0.031c0,0,0.009-0.002,0.027-0.011l-0.014,0.026c0,0,0.009-0.004,0.022-0.011l-0.009,0.029c0,0,0.006-0.005,0.022-0.014
				l-0.013,0.031c0,0,0.009-0.002,0.024-0.009l-0.011,0.026c0,0,0.009-0.004,0.024-0.011l-0.013,0.027c0,0,0.006-0.002,0.024-0.009
				l-0.011,0.029c0,0,0.007-0.007,0.02-0.011l-0.009,0.027c0,0,0.009-0.002,0.022-0.014l-0.013,0.031c0,0,0.009-0.007,0.018-0.007
				l-1.219,4.833h0.013v0.02h0.014l-0.005,0.016h0.018l-0.004,0.018h0.015l-0.004,0.018h0.018l-0.002,0.016h0.013l-0.004,0.02h0.018
				l-0.007,0.016h0.016l-0.004,0.018h0.018L98.03,46.56h0.016l-0.002,0.018h0.013l-0.004,0.02h0.018l-0.004,0.015h0.015
				l-0.006,0.018h0.018l-0.004,0.018h0.016l-0.002,0.018h0.018l-0.009,0.018h0.018L98.123,46.7h0.018l-0.004,0.02h0.013
				l-0.002,0.016h0.016l-0.004,0.018h0.018l-0.004,0.018h0.016l-0.002,0.015h0.013l-0.004,0.018h0.018l-0.009,0.02h0.018
				l-0.002,0.018h0.015l-0.004,0.013h0.016l-0.004,0.02h0.016l-0.004,0.018h0.018l-0.004,0.016h0.013v0.02h0.013l-0.002,0.015h0.016
				l-0.004,0.02h0.018l-0.007,0.018h0.018l-0.005,0.015h0.016l-0.004,0.018h0.018l-0.009,0.018h0.02L98.36,47.05h0.013l-0.002,0.018
				h0.013l-0.004,0.018h0.018l-0.004,0.018h0.018l-0.004,0.013h0.014l-0.002,0.02h0.016l-0.004,0.018h0.018l-0.004,0.018h0.016
				l-0.004,0.018h0.015l-0.004,0.016h0.016l-0.002,0.02h0.018l-0.009,0.018h0.018L98.5,47.258h0.018l-0.004,0.018h0.013
				l-0.002,0.018h0.016l-0.004,0.018h0.018l-0.007,0.018h0.016l-0.004,0.018h0.018l-0.004,0.016h0.018l-0.009,0.018h0.02
				l-0.004,0.02h0.016l-0.004,0.016h0.016l-0.004,0.018h0.015l-0.004,0.016h0.018l-0.005,0.02h0.018l-0.004,0.018h0.013
				l-0.004,0.018h0.018l-0.006,0.015h0.02l-0.009,0.018h0.018l-0.005,0.02h0.016l-0.002,0.015h0.013l-0.004,0.016h0.018
				l-0.004,0.018h0.016l-0.002,0.018h0.016l-0.004,0.018h0.016l-0.004,0.018h0.018l-0.007,0.018h0.016l-0.004,0.015h0.018
				l-0.004,0.02h0.018l-0.004,0.018h0.013l-0.004,0.015h0.018l-0.004,0.02h0.016l-0.002,0.016h0.013l-0.004,0.02h0.018l-0.004,0.016
				h0.013l-0.002,0.018h0.016l-0.004,0.018h0.018l-0.004,0.018h0.016l-0.004,0.013h0.016l-0.004,0.022h0.018l-0.004,0.013h0.018
				l-0.007,0.02h0.016l-0.002,0.02h0.015l-0.006,0.016H99l-0.004,0.016h0.013l-0.004,0.018h0.018l-0.007,0.016h0.02l-0.009,0.022
				h0.018l-0.006,0.016h0.02l-0.004,0.018h0.013l-0.002,0.016h0.016l-0.004,0.018h0.016l-0.002,0.02h0.018l-0.009,0.018h0.018
				l-0.004,0.016h11.749l0.321-0.76c0.563,0.503,1.341,0.76,2.329,0.76h5.043c0.958,0,2.092-0.246,2.994-1.15
				c0.002,0.004,0.007,0.011,0.011,0.013c0.013,0.022,0.024,0.042,0.04,0.058c0.567,0.716,1.449,1.079,2.632,1.079h5.043
				c0.904,0,1.968-0.219,2.846-1.01c0.381,0.467,1.116,1.01,2.486,1.01h5.46c1.95,0,3.386-1.088,3.852-2.912l0.292-1.17
				c0.075-0.304,0.11-0.583,0.11-0.831c0-0.308-0.062-0.561-0.133-0.789c0.333-0.361,0.621-0.829,0.803-1.471
				c0.013-0.042,0.217-0.858,0.217-0.858c0.089-0.343,0.129-0.653,0.129-0.937C145.336,38.616,145.172,38.168,144.977,37.836z"/>
		</g>
		<g>
			<polygon fill="none" points="99.851,44.415 100.321,44.415 100.472,43.777 99.771,44.415 			"/>
			<path fill="#141006" d="M158.361,44.936h-6.378l0.124-0.521l-1.985-1.961l-49.416-0.004l-20.885,0.004l1.212,2.296
				c0.084,0.164,0.128,0.255,0.142,0.545c0,0.002,0.25,9.646,0.25,9.646l1.988,1.963h41.11l-0.006-0.013
				c0.202,0.013,0.37,0.013,0.48,0.013h8.029l0,0h0.14h12.374h1.684h8.177c2.141,0,3.364-1.221,3.874-2.453
				c0.186,0.31,1.072-7.554,1.072-7.554L158.361,44.936z M148.119,44.025l-0.523,2.233l-2.441,2.176h-1.255l1.477-1.957h-1.313
				l0.567-2.453H148.119z M141.325,51.794c-0.218,0.951-0.106,1.225,0.018,1.575h-4.255c0.288-0.35,0.536-0.625,0.754-1.575
				l0.788-3.375c0.094-0.423-0.013-0.572-0.442-0.572h-1.272c-0.426,0-0.611,0.148-0.714,0.572l-0.784,3.375
				c-0.222,0.951-0.11,1.225,0.018,1.575h-4.254c0.288-0.35,0.531-0.625,0.751-1.575l0.866-3.709c0.224-0.951,0.11-1.23-0.014-1.576
				h3.604l-0.062,0.713h0.026c0.243-0.352,0.549-0.713,1.067-0.713h2.828c1.635,0,2.092,0.962,1.732,2.495L141.325,51.794z
				 M123.012,53.37c-1.566,0-1.861-0.643-1.524-2.074l0.634-2.715c0.334-1.431,0.926-2.072,2.493-2.072h5.303
				c1.566,0,1.859,0.641,1.524,2.072l-0.491,2.101h-5.837l-0.148,0.645c-0.1,0.494,0.073,0.703,0.636,0.703h3.351
				c0.665,0,1.03-0.047,1.653-0.297l-0.652,1.637H123.012z M116.364,53.37c0.288-0.35,0.53-0.625,0.753-1.575l0.802-3.446
				c0.08-0.353-0.046-0.501-0.313-0.501h-1.15c-0.268,0-0.465,0.148-0.549,0.501l-0.802,3.446c-0.222,0.951-0.109,1.225,0.018,1.575
				h-3.962c0.292-0.35,0.532-0.625,0.753-1.575l0.807-3.446c0.08-0.353-0.049-0.501-0.315-0.501h-1.152
				c-0.266,0-0.461,0.148-0.541,0.501l-0.807,3.446c-0.222,0.951-0.111,1.225,0.013,1.575h-3.958
				c0.288-0.35,0.529-0.625,0.753-1.575l0.864-3.709c0.222-0.951,0.111-1.23-0.016-1.576h3.313l-0.111,0.829h0.031
				c0.253-0.441,0.505-0.829,1.097-0.829h3.118c0.855,0,0.958,0.186,1.037,0.742h0.029c0.124-0.277,0.366-0.742,0.955-0.742h2.393
				c1.155,0,2.039,0.319,1.485,2.681l-0.605,2.604c-0.222,0.951-0.108,1.225,0.016,1.575H116.364z M96.314,51.296l0.634-2.715
				c0.335-1.431,0.926-2.072,2.493-2.072h5.436c1.567,0,1.861,0.641,1.527,2.072l-0.636,2.715c-0.332,1.431-0.926,2.074-2.495,2.074
				h-5.433C96.271,53.37,95.978,52.727,96.314,51.296z M82.979,53.37l-0.217-8.132c-0.022-0.601-0.168-0.919-0.321-1.212h4.284
				c-0.113,0.175-0.186,0.292-0.262,0.611c-0.068,0.292-0.097,0.541-0.097,0.922l0.044,4.496h0.027l2.89-6.029h3.603l0.142,6.042
				h0.027l2.134-4.509c0.166-0.337,0.277-0.671,0.334-0.922c0.053-0.232,0.076-0.452,0.009-0.611h2.291
				c-0.19,0.175-0.554,0.467-1.01,1.416l-3.79,7.928h-3.488l-0.162-6.191h-0.029l-2.97,6.191H82.979z M146.944,53.37l0.12-1.651
				c0.567,0.293,0.855,0.397,2.083,0.397h2.938c0.354,0,0.479-0.086,0.54-0.366l0.036-0.146c0.062-0.277-0.019-0.368-0.373-0.368
				h-3.026c-1.601,0-1.662-0.8-1.507-1.646l0.306-1.332c0.248-1.05,1.285-1.749,2.61-1.749h6.001l-0.103,1.704
				c-0.204-0.334-1.156-0.452-1.963-0.452h-2.704c-0.346,0-0.491,0.086-0.531,0.25l-0.066,0.29c-0.04,0.164,0.07,0.25,0.412,0.25
				h3.018c1.592,0,1.653,0.802,1.507,1.635l-0.323,1.372c-0.199,0.875-0.953,1.81-2.504,1.81H146.944z"/>
			<path fill="#141006" d="M102.24,51.471l0.715-3.064c0.093-0.395,0.011-0.559-0.401-0.559h-1.449
				c-0.381,0-0.539,0.164-0.631,0.559l-0.716,3.064c-0.093,0.392-0.013,0.559,0.372,0.559h1.449
				C101.992,52.029,102.147,51.863,102.24,51.471z"/>
			<path fill="#141006" d="M127.867,49.339l0.22-0.933c0.091-0.395,0.009-0.559-0.375-0.559h-1.434
				c-0.381,0-0.538,0.164-0.629,0.559l-0.222,0.933H127.867z"/>
			<g>
				<path fill="#FFFFFF" d="M86.418,53.37l2.97-6.191h0.029l0.162,6.191h3.488l3.79-7.928c0.457-0.949,0.82-1.241,1.01-1.416h-2.291
					c0.066,0.159,0.044,0.379-0.009,0.611c-0.058,0.25-0.168,0.585-0.334,0.922l-2.134,4.509H93.07l-0.142-6.042h-3.603l-2.89,6.029
					h-0.027l-0.044-4.496c0-0.381,0.029-0.629,0.097-0.922c0.076-0.319,0.148-0.437,0.262-0.611H82.44
					c0.153,0.292,0.299,0.611,0.321,1.212l0.217,8.132H86.418z"/>
				<path fill="#FFFFFF" d="M97.839,53.37h5.433c1.569,0,2.163-0.643,2.495-2.074l0.636-2.715c0.334-1.431,0.04-2.072-1.527-2.072
					h-5.436c-1.567,0-2.158,0.641-2.493,2.072l-0.634,2.715C95.978,52.727,96.271,53.37,97.839,53.37z M100.13,52.029
					c-0.385,0-0.465-0.167-0.372-0.559l0.716-3.064c0.093-0.395,0.25-0.559,0.631-0.559h1.449c0.412,0,0.494,0.164,0.401,0.559
					l-0.715,3.064c-0.093,0.392-0.249,0.559-0.661,0.559H100.13z"/>
				<path fill="#FFFFFF" d="M120.322,53.37c-0.124-0.35-0.237-0.625-0.016-1.575l0.605-2.604c0.554-2.362-0.33-2.681-1.485-2.681
					h-2.393c-0.589,0-0.831,0.465-0.955,0.742h-0.029c-0.08-0.556-0.182-0.742-1.037-0.742h-3.118c-0.592,0-0.844,0.388-1.097,0.829
					h-0.031l0.111-0.829h-3.313c0.126,0.346,0.237,0.625,0.016,1.576l-0.864,3.709c-0.224,0.951-0.465,1.225-0.753,1.575h3.958
					c-0.124-0.35-0.235-0.625-0.013-1.575l0.807-3.446c0.08-0.353,0.275-0.501,0.541-0.501h1.152c0.266,0,0.395,0.148,0.315,0.501
					l-0.807,3.446c-0.222,0.951-0.461,1.225-0.753,1.575h3.962c-0.126-0.35-0.239-0.625-0.018-1.575l0.802-3.446
					c0.084-0.353,0.281-0.501,0.549-0.501h1.15c0.266,0,0.393,0.148,0.313,0.501l-0.802,3.446c-0.224,0.951-0.465,1.225-0.753,1.575
					H120.322z"/>
				<path fill="#FFFFFF" d="M129.952,53.37l0.652-1.637c-0.623,0.25-0.988,0.297-1.653,0.297h-3.351
					c-0.563,0-0.736-0.208-0.636-0.703l0.148-0.645h5.837l0.491-2.101c0.335-1.431,0.042-2.072-1.524-2.072h-5.303
					c-1.566,0-2.158,0.641-2.493,2.072l-0.634,2.715c-0.337,1.431-0.042,2.074,1.524,2.074H129.952z M125.649,48.406
					c0.091-0.395,0.248-0.559,0.629-0.559h1.434c0.384,0,0.466,0.164,0.375,0.559l-0.22,0.933h-2.439L125.649,48.406z"/>
				<path fill="#FFFFFF" d="M140.248,46.509h-2.828c-0.519,0-0.824,0.361-1.067,0.713h-0.026l0.062-0.713h-3.604
					c0.124,0.346,0.237,0.625,0.014,1.576l-0.866,3.709c-0.22,0.951-0.463,1.225-0.751,1.575h4.254
					c-0.128-0.35-0.239-0.625-0.018-1.575l0.784-3.375c0.103-0.423,0.288-0.572,0.714-0.572h1.272c0.43,0,0.536,0.148,0.442,0.572
					l-0.788,3.375c-0.218,0.951-0.466,1.225-0.754,1.575h4.255c-0.124-0.35-0.235-0.625-0.018-1.575l0.655-2.79
					C142.34,47.471,141.883,46.509,140.248,46.509z"/>
				<polygon fill="#FFFFFF" points="144.063,46.478 145.376,46.478 143.899,48.435 145.154,48.435 147.596,46.259 148.119,44.025 
					144.631,44.025 				"/>
				<path fill="#FFFFFF" d="M155.919,51.56l0.323-1.372c0.146-0.833,0.085-1.635-1.507-1.635h-3.018
					c-0.342,0-0.452-0.086-0.412-0.25l0.066-0.29c0.04-0.164,0.186-0.25,0.531-0.25h2.704c0.807,0,1.759,0.118,1.963,0.452
					l0.103-1.704h-6.001c-1.325,0-2.362,0.698-2.61,1.749l-0.306,1.332c-0.155,0.847-0.094,1.646,1.507,1.646h3.026
					c0.354,0,0.435,0.091,0.373,0.368l-0.036,0.146c-0.062,0.279-0.186,0.366-0.54,0.366h-2.938c-1.228,0-1.516-0.104-2.083-0.397
					l-0.12,1.651h6.471C154.966,53.37,155.72,52.435,155.919,51.56z"/>
			</g>
		</g>
		<g>
			<path fill="#FFFFFF" d="M107.534,43.493c0.88,0,1.113-0.097,1.926-0.381l-0.775,1.824h-8.859l0.979-3.88
				c0.375-1.484,0.984-1.772,2.171-1.837l3.63-0.195c0.434-0.011,0.559-0.138,0.645-0.477l0.12-0.477
				c0.062-0.246-0.047-0.405-0.545-0.405h-3.858c-0.496,0-0.988,0.091-1.458,0.31l0.736-1.755h6.501c1.988,0,2.149,0.76,1.844,1.985
				l-0.441,1.744c-0.331,1.307-0.929,1.664-2.404,1.73l-3.377,0.167c-0.35,0.011-0.472,0.286-0.545,0.569l-0.272,1.077H107.534z"/>
			<path fill="#FFFFFF" d="M119.564,36.221c1.431,0,2.061,0.68,1.586,2.557l-0.909,3.597c-0.474,1.881-1.442,2.562-2.876,2.562
				h-5.043c-1.432,0-2.059-0.68-1.587-2.562l0.906-3.597c0.477-1.877,1.445-2.557,2.883-2.557H119.564z M115.95,37.666
				c-0.441,0-0.698,0.133-0.805,0.556l-1.19,4.713c-0.104,0.423,0.082,0.558,0.521,0.558h1.462c0.441,0,0.696-0.135,0.802-0.558
				l1.19-4.713c0.104-0.423-0.082-0.556-0.521-0.556H115.95z"/>
			<path fill="#FFFFFF" d="M130.285,36.221c1.432,0,2.061,0.68,1.587,2.557l-0.909,3.597c-0.472,1.881-1.444,2.562-2.876,2.562
				h-5.043c-1.434,0-2.061-0.68-1.587-2.562l0.909-3.597c0.474-1.877,1.445-2.557,2.878-2.557H130.285z M126.671,37.666
				c-0.445,0-0.694,0.133-0.805,0.556l-1.188,4.713c-0.106,0.423,0.08,0.558,0.519,0.558h1.463c0.44,0,0.695-0.135,0.802-0.558
				l1.19-4.713c0.104-0.423-0.082-0.556-0.521-0.556H126.671z"/>
			<path fill="#FFFFFF" d="M141.072,36.221c1.325,0,1.786,0.68,1.507,1.797l-0.204,0.818c-0.381,1.332-1.308,1.442-2.499,1.553
				l-0.005,0.024c1.339,0.029,1.999,0.41,1.715,1.554l-0.297,1.172c-0.279,1.117-1.09,1.797-2.41,1.797h-5.458
				c-1.328,0-1.771-0.68-1.489-1.797l0.292-1.172c0.288-1.144,1.128-1.525,2.489-1.554l0.009-0.024
				c-1.133-0.111-1.999-0.221-1.704-1.553l0.206-0.818c0.279-1.117,1.09-1.797,2.411-1.797H141.072z M136.326,41.123
				c-0.333,0-0.555,0.108-0.665,0.571l-0.311,1.228c-0.119,0.461,0.044,0.571,0.377,0.571h1.582c0.332,0,0.554-0.11,0.665-0.547
				l0.314-1.252c0.119-0.463-0.035-0.571-0.395-0.571H136.326z M138.275,39.68c0.333,0,0.55-0.108,0.656-0.545l0.23-0.9
				c0.115-0.461-0.044-0.569-0.381-0.569h-1.587c-0.328,0-0.55,0.108-0.665,0.569l-0.217,0.871c-0.12,0.465,0.044,0.574,0.377,0.574
				H138.275z"/>
		</g>
	</g>
	<g>
		<path fill="#141006" d="M70.543,131.717l-0.002,0.011l0.007-0.007l0.026,0.022l0.075-0.073l2.85-1.533
			c-0.519,2.052-1.112,4.407-1.112,4.407c-0.261,1.028-0.465,1.31-0.683,1.601l-1.542,2.094l0.177,0.175l0.177,0.178l0.177,0.177
			l0.177,0.176l0.177,0.175l0.177,0.175l0.177,0.178l0.18,0.175h9.67l-0.348-1.489c0.022,0.022,0.044,0.042,0.071,0.064
			c0.058,0.06,0.115,0.122,0.177,0.173c0.058,0.064,0.115,0.126,0.177,0.177c0.058,0.061,0.115,0.122,0.177,0.176
			c0.767,0.793,1.901,0.899,2.712,0.899h3.177c0.262,0,0.492-0.026,0.727-0.049c0,0.005,0,0.049,0,0.049h5.56h2.396h12.6
			l-0.483,1.923l0.177,0.176l0.178,0.175l0.177,0.178l0.177,0.175l0.177,0.175l0.177,0.175l0.177,0.176l0.179,0.177h8.392
			l-0.576-1.729c-0.02-0.06-0.044-0.128-0.044-0.255c0-0.135,0.027-0.337,0.111-0.66c0,0,0.071-0.306,0.175-0.695
			c0.046,0.002,0.1,0.011,0.148,0.011h3.501c1.174,0,2.167-0.306,2.956-0.875c0.762,0.769,1.879,0.875,2.686,0.875h3.18
			c0.262,0,0.489-0.026,0.725-0.049c0,0.005,0,0.049,0,0.049h7.955l-0.931-1.895c-0.022-0.036-0.075-0.153,0.071-0.751l0.971-3.839
			c0.274-1.081,0.536-2.654-0.355-3.777c-0.119-0.151-0.257-0.282-0.394-0.397c-0.063-0.06-0.115-0.128-0.178-0.177
			c-0.063-0.06-0.115-0.126-0.178-0.175c-0.062-0.061-0.114-0.127-0.182-0.178c-0.058-0.058-0.115-0.124-0.173-0.173
			c-0.066-0.06-0.115-0.126-0.182-0.177c-0.058-0.061-0.115-0.125-0.177-0.178c-0.063-0.058-0.115-0.124-0.182-0.175
			c-0.939-0.931-2.371-0.944-2.872-0.944h-9.039l-0.33,0.812c-0.618-0.527-1.474-0.812-2.575-0.812h-3.77
			c-0.038,0-0.064,0.018-0.1,0.018l-0.002-0.018h-7.512l0.029,0.096c-0.448-0.089-0.851-0.096-1.083-0.096h-3.069
			c-0.348,0-0.758,0.08-1.161,0.29c-0.386-0.175-0.833-0.29-1.432-0.29H92.627l0.048,0.138c-0.571-0.133-1.094-0.138-1.358-0.138
			h-4.359l0.177-1.777l-0.182-0.173l-0.175-0.177l-0.179-0.176l-0.177-0.175l-0.178-0.177l-0.177-0.173l-0.177-0.178l-0.177-0.175
			h-13.88l-2.69,6.632l-0.035,0.038l0.013,0.016v0.004v-0.002"/>
		<path fill="#141006" d="M184.797,128.04l-0.177-0.173l-0.178-0.177l-0.177-0.178l-0.178-0.175l-0.177-0.175l-0.178-0.175
			l-0.182-0.178h-15.897l0.054,0.15c-0.599-0.148-1.148-0.15-1.418-0.15h-6.373c-0.089-0.192-0.187-0.383-0.333-0.567
			c-0.115-0.142-0.243-0.268-0.372-0.381c-0.062-0.06-0.115-0.124-0.177-0.175c-0.063-0.058-0.115-0.122-0.183-0.176
			c-0.058-0.06-0.11-0.124-0.177-0.177c-0.058-0.06-0.115-0.124-0.178-0.175c-0.058-0.061-0.115-0.124-0.177-0.176
			c-0.063-0.058-0.115-0.121-0.182-0.175c-0.054-0.06-0.111-0.124-0.173-0.175c-0.882-0.885-2.238-1.004-3.223-1.004H143.15
			l0.382,1.611c0.049,0.232,0.106,0.472-0.138,1.444l-1.981,7.857c-0.261,1.028-0.465,1.31-0.682,1.601l-1.547,2.094l0.177,0.175
			l0.182,0.178l0.178,0.177l0.177,0.176l0.178,0.175l0.177,0.175l0.178,0.178l0.177,0.175h12.543c1.409,0,2.526-0.284,3.363-0.862
			c0.763,0.761,1.875,0.862,2.677,0.862h3.183c0.252,0,0.487-0.026,0.723-0.049c0,0.005,0,0.049,0,0.049h3.168l-0.177,1.923
			l0.173,0.176l0.182,0.175l0.177,0.178l0.178,0.175l0.178,0.175l0.177,0.175l0.178,0.176l0.177,0.177h10.229
			c2.234,0,4.122-1.228,4.405-3.503l2.837-11.253L184.797,128.04z"/>
	</g>
	<g>
		<path fill="#FFFFFF" d="M84.242,124.947l-0.244,2.469c-0.43-0.315-0.749-0.488-1.6-0.488h-2.101l-1.999,7.934
			c-0.288,1.144-0.252,1.593-0.142,2.061h-5.376c0.343-0.468,0.607-0.917,0.896-2.061l2.001-7.934h-2.101
			c-0.851,0-1.252,0.173-1.846,0.488l1.001-2.469H84.242z"/>
		<path fill="#FFFFFF" d="M86.702,132.694c-0.687,0.018-0.975,0.11-1.134,0.749l-0.257,1.008c-0.159,0.639,0.084,0.729,0.762,0.751
			h1.037c0.855,0,0.982-0.133,1.266-1.256l0.314-1.252H86.702z M91.318,128.129c2.138,0,2.763,0.897,2.156,3.311l-0.964,3.836
			c-0.23,0.897-0.157,1.292,0.016,1.646h-4.467l0.02-0.973H88.04c-0.425,0.784-0.853,0.973-2.065,0.973h-3.178
			c-2.008,0-2.369-0.824-1.906-2.654l0.16-0.639c0.463-1.835,1.239-2.654,3.246-2.654h4.071c0.623,0,0.793-0.15,0.9-0.565
			c0.097-0.39,0.009-0.561-0.616-0.561h-4.45c-0.833,0-1.276,0.113-1.875,0.375l0.851-2.095H91.318z"/>
		<path fill="#FFFFFF" d="M98.721,128.129l-0.155,1.063h0.036c0.333-0.561,0.667-1.063,1.425-1.063h3.995
			c1.099,0,1.228,0.239,1.312,0.951h0.038c0.164-0.353,0.485-0.951,1.243-0.951h3.069c1.476,0,2.602,0.41,1.837,3.441l-0.842,3.331
			c-0.303,1.219-0.168,1.571-0.013,2.021h-5.075c0.377-0.449,0.696-0.802,1.002-2.021l1.112-4.417
			c0.115-0.449-0.046-0.636-0.388-0.636h-1.478c-0.339,0-0.594,0.187-0.709,0.636l-1.112,4.417c-0.306,1.219-0.17,1.571-0.018,2.021
			h-5.075c0.379-0.449,0.696-0.802,1.002-2.021l1.114-4.417c0.113-0.449-0.046-0.636-0.388-0.636h-1.476
			c-0.341,0-0.599,0.187-0.711,0.636l-1.115,4.417c-0.306,1.219-0.168,1.571-0.016,2.021h-5.072c0.377-0.449,0.694-0.802,1-2.021
			l1.199-4.751c0.308-1.217,0.173-1.576,0.018-2.021H98.721z"/>
		<path fill="#FFFFFF" d="M115.811,134.524c-0.122,0.489,0.022,0.678,0.457,0.678h1.777c0.439,0,0.674-0.188,0.796-0.678
			l1.008-4.002c0.126-0.487-0.018-0.674-0.452-0.674h-1.782c-0.435,0-0.669,0.187-0.793,0.674L115.811,134.524z M116.934,128.129
			l0.009,0.934c0.481-0.637,0.787-0.934,1.409-0.934h3.77c2.043,0,2.517,1.121,2.112,2.729l-0.84,3.335
			c-0.406,1.606-1.445,2.729-3.49,2.729H116.4c-0.815,0-0.913-0.505-0.939-0.859h-0.036l-0.643,2.544
			c-0.226,0.897-0.155,1.289-0.04,1.648h-4.844l2.644-10.481c0.228-0.897,0.157-1.29,0.036-1.645H116.934z"/>
		<path fill="#FFFFFF" d="M129.452,132.694c-0.689,0.018-0.978,0.11-1.14,0.749l-0.252,1.008c-0.16,0.639,0.079,0.729,0.755,0.751
			h1.044c0.852,0,0.979-0.133,1.264-1.256l0.314-1.252H129.452z M134.065,128.129c2.136,0,2.766,0.897,2.158,3.311l-0.966,3.836
			c-0.23,0.897-0.16,1.292,0.018,1.646h-4.47l0.018-0.973h-0.037c-0.426,0.784-0.852,0.973-2.063,0.973h-3.178
			c-2.005,0-2.366-0.824-1.905-2.654l0.159-0.639c0.461-1.835,1.239-2.654,3.246-2.654h4.069c0.624,0,0.793-0.15,0.901-0.565
			c0.1-0.39,0.007-0.561-0.618-0.561h-4.449c-0.834,0-1.274,0.113-1.875,0.375l0.851-2.095H134.065z"/>
		<path fill="#FFFFFF" d="M148.615,129.74h2.69c0.585,0,0.78-0.098,0.926-0.678l0.363-1.459c0.151-0.578,0-0.676-0.585-0.676h-2.689
			L148.615,129.74z M144.685,127.006c0.292-1.144,0.252-1.589,0.142-2.059h9.918c2.558,0,2.89,1.01,2.522,2.469l-0.351,1.364
			c-0.377,1.516-1.387,1.777-3.111,1.913l-0.009,0.035c1.95,0.246,2.518,0.47,2.198,1.739l-0.505,1.983
			c-0.368,1.46-1.21,2.471-3.763,2.471h-9.919c0.342-0.468,0.607-0.917,0.896-2.061L144.685,127.006z M147.304,134.938h2.689
			c0.586,0,0.78-0.093,0.922-0.671l0.475-1.873c0.146-0.58,0-0.676-0.585-0.676h-2.69L147.304,134.938z"/>
		<path fill="#FFFFFF" d="M161.672,132.694c-0.688,0.018-0.976,0.11-1.14,0.749l-0.252,1.008c-0.16,0.639,0.079,0.729,0.758,0.751
			h1.041c0.855,0,0.979-0.133,1.268-1.256l0.311-1.252H161.672z M166.29,128.129c2.136,0,2.761,0.897,2.153,3.311l-0.966,3.836
			c-0.227,0.897-0.159,1.292,0.018,1.646h-4.468l0.019-0.973h-0.04c-0.421,0.784-0.847,0.973-2.061,0.973h-3.183
			c-2.003,0-2.366-0.824-1.901-2.654l0.16-0.639c0.46-1.835,1.236-2.654,3.244-2.654h4.068c0.625,0,0.797-0.15,0.899-0.565
			c0.102-0.39,0.009-0.561-0.616-0.561h-4.449c-0.829,0-1.276,0.113-1.87,0.375l0.851-2.095H166.29z"/>
		<path fill="#FFFFFF" d="M170.753,136.922c-2.101,0-2.659-1.234-2.168-3.199l0.904-3.572c0.306-1.217,0.164-1.576,0.018-2.021h4.96
			l-1.601,6.342c-0.137,0.543,0.005,0.731,0.555,0.731h1.644c0.417,0,0.546-0.058,0.719-0.751l1.179-4.658
			c0.279-1.105,0.204-1.271,0.062-1.664h4.826l-2.429,9.617c-0.416,1.667-1.479,2.509-3.115,2.509h-8.762l0.199-2.154
			c0.368,0.204,0.767,0.428,1.826,0.428h4.276c0.758,0,0.967-0.224,1.068-0.634l0.466-1.832h-0.036
			c-0.354,0.559-0.598,0.859-1.657,0.859H170.753z"/>
		<g>
			<g>
				<path fill="#FFFFFF" d="M84.242,124.947l-0.244,2.469c-0.43-0.315-0.749-0.488-1.6-0.488h-2.101l-1.999,7.934
					c-0.288,1.144-0.252,1.593-0.142,2.061h-5.376c0.343-0.468,0.607-0.917,0.896-2.061l2.001-7.934h-2.101
					c-0.851,0-1.252,0.173-1.846,0.488l1.001-2.469H84.242z"/>
				<path fill="#FFFFFF" d="M86.702,132.694c-0.687,0.018-0.975,0.11-1.134,0.749l-0.257,1.008
					c-0.159,0.639,0.084,0.729,0.762,0.751h1.037c0.855,0,0.982-0.133,1.266-1.256l0.314-1.252H86.702z M91.318,128.129
					c2.138,0,2.763,0.897,2.156,3.311l-0.964,3.836c-0.23,0.897-0.157,1.292,0.016,1.646h-4.467l0.02-0.973H88.04
					c-0.425,0.784-0.853,0.973-2.065,0.973h-3.178c-2.008,0-2.369-0.824-1.906-2.654l0.16-0.639
					c0.463-1.835,1.239-2.654,3.246-2.654h4.071c0.623,0,0.793-0.15,0.9-0.565c0.097-0.39,0.009-0.561-0.616-0.561h-4.45
					c-0.833,0-1.276,0.113-1.875,0.375l0.851-2.095H91.318z"/>
				<path fill="#FFFFFF" d="M98.721,128.129l-0.155,1.063h0.036c0.333-0.561,0.667-1.063,1.425-1.063h3.995
					c1.099,0,1.228,0.239,1.312,0.951h0.038c0.164-0.353,0.485-0.951,1.243-0.951h3.069c1.476,0,2.602,0.41,1.837,3.441
					l-0.842,3.331c-0.303,1.219-0.168,1.571-0.013,2.021h-5.075c0.377-0.449,0.696-0.802,1.002-2.021l1.112-4.417
					c0.115-0.449-0.046-0.636-0.388-0.636h-1.478c-0.339,0-0.594,0.187-0.709,0.636l-1.112,4.417
					c-0.306,1.219-0.17,1.571-0.018,2.021h-5.075c0.379-0.449,0.696-0.802,1.002-2.021l1.114-4.417
					c0.113-0.449-0.046-0.636-0.388-0.636h-1.476c-0.341,0-0.599,0.187-0.711,0.636l-1.115,4.417
					c-0.306,1.219-0.168,1.571-0.016,2.021h-5.072c0.377-0.449,0.694-0.802,1-2.021l1.199-4.751
					c0.308-1.217,0.173-1.576,0.018-2.021H98.721z"/>
				<path fill="#FFFFFF" d="M115.811,134.524c-0.122,0.489,0.022,0.678,0.457,0.678h1.777c0.439,0,0.674-0.188,0.796-0.678
					l1.008-4.002c0.126-0.487-0.018-0.674-0.452-0.674h-1.782c-0.435,0-0.669,0.187-0.793,0.674L115.811,134.524z M116.934,128.129
					l0.009,0.934c0.481-0.637,0.787-0.934,1.409-0.934h3.77c2.043,0,2.517,1.121,2.112,2.729l-0.84,3.335
					c-0.406,1.606-1.445,2.729-3.49,2.729H116.4c-0.815,0-0.913-0.505-0.939-0.859h-0.036l-0.643,2.544
					c-0.226,0.897-0.155,1.289-0.04,1.648h-4.844l2.644-10.481c0.228-0.897,0.157-1.29,0.036-1.645H116.934z"/>
				<path fill="#FFFFFF" d="M129.452,132.694c-0.689,0.018-0.978,0.11-1.14,0.749l-0.252,1.008c-0.16,0.639,0.079,0.729,0.755,0.751
					h1.044c0.852,0,0.979-0.133,1.264-1.256l0.314-1.252H129.452z M134.065,128.129c2.136,0,2.766,0.897,2.158,3.311l-0.966,3.836
					c-0.23,0.897-0.16,1.292,0.018,1.646h-4.47l0.018-0.973h-0.037c-0.426,0.784-0.852,0.973-2.063,0.973h-3.178
					c-2.005,0-2.366-0.824-1.905-2.654l0.159-0.639c0.461-1.835,1.239-2.654,3.246-2.654h4.069c0.624,0,0.793-0.15,0.901-0.565
					c0.1-0.39,0.007-0.561-0.618-0.561h-4.449c-0.834,0-1.274,0.113-1.875,0.375l0.851-2.095H134.065z"/>
				<path fill="#FFFFFF" d="M148.615,129.74h2.69c0.585,0,0.78-0.098,0.926-0.678l0.363-1.459c0.151-0.578,0-0.676-0.585-0.676
					h-2.689L148.615,129.74z M144.685,127.006c0.292-1.144,0.252-1.589,0.142-2.059h9.918c2.558,0,2.89,1.01,2.522,2.469
					l-0.351,1.364c-0.377,1.516-1.387,1.777-3.111,1.913l-0.009,0.035c1.95,0.246,2.518,0.47,2.198,1.739l-0.505,1.983
					c-0.368,1.46-1.21,2.471-3.763,2.471h-9.919c0.342-0.468,0.607-0.917,0.896-2.061L144.685,127.006z M147.304,134.938h2.689
					c0.586,0,0.78-0.093,0.922-0.671l0.475-1.873c0.146-0.58,0-0.676-0.585-0.676h-2.69L147.304,134.938z"/>
				<path fill="#FFFFFF" d="M161.672,132.694c-0.688,0.018-0.976,0.11-1.14,0.749l-0.252,1.008c-0.16,0.639,0.079,0.729,0.758,0.751
					h1.041c0.855,0,0.979-0.133,1.268-1.256l0.311-1.252H161.672z M166.29,128.129c2.136,0,2.761,0.897,2.153,3.311l-0.966,3.836
					c-0.227,0.897-0.159,1.292,0.018,1.646h-4.468l0.019-0.973h-0.04c-0.421,0.784-0.847,0.973-2.061,0.973h-3.183
					c-2.003,0-2.366-0.824-1.901-2.654l0.16-0.639c0.46-1.835,1.236-2.654,3.244-2.654h4.068c0.625,0,0.797-0.15,0.899-0.565
					c0.102-0.39,0.009-0.561-0.616-0.561h-4.449c-0.829,0-1.276,0.113-1.87,0.375l0.851-2.095H166.29z"/>
				<path fill="#FFFFFF" d="M170.753,136.922c-2.101,0-2.659-1.234-2.168-3.199l0.904-3.572c0.306-1.217,0.164-1.576,0.018-2.021
					h4.96l-1.601,6.342c-0.137,0.543,0.005,0.731,0.555,0.731h1.644c0.417,0,0.546-0.058,0.719-0.751l1.179-4.658
					c0.279-1.105,0.204-1.271,0.062-1.664h4.826l-2.429,9.617c-0.416,1.667-1.479,2.509-3.115,2.509h-8.762l0.199-2.154
					c0.368,0.204,0.767,0.428,1.826,0.428h4.276c0.758,0,0.967-0.224,1.068-0.634l0.466-1.832h-0.036
					c-0.354,0.559-0.598,0.859-1.657,0.859H170.753z"/>
			</g>
		</g>
	</g>
</g>
</svg>
