<?xml version="1.0" encoding="UTF-8" standalone="no"?>
<!-- Created with Inkscape (http://www.inkscape.org/) -->

<svg
   xmlns:dc="http://purl.org/dc/elements/1.1/"
   xmlns:cc="http://creativecommons.org/ns#"
   xmlns:rdf="http://www.w3.org/1999/02/22-rdf-syntax-ns#"
   xmlns:svg="http://www.w3.org/2000/svg"
   xmlns="http://www.w3.org/2000/svg"
   xmlns:sodipodi="http://sodipodi.sourceforge.net/DTD/sodipodi-0.dtd"
   xmlns:inkscape="http://www.inkscape.org/namespaces/inkscape"
   width="116.5"
   height="106"
   viewBox="0 0 116.5 106"
   id="svg18107"
   version="1.1"
   inkscape:version="0.91 r13725"
   sodipodi:docname="2005 ncaa womens final four.svg">
  <defs
     id="defs18109">
    <clipPath
       id="clipPath6900"
       clipPathUnits="userSpaceOnUse">
      <path
         style="clip-rule:evenodd"
         inkscape:connector-curvature="0"
         id="path6902"
         d="m 411.413,118.517 105.954,0 0,-126.005 -105.954,0 0,126.005 z" />
    </clipPath>
    <clipPath
       id="clipPath6906"
       clipPathUnits="userSpaceOnUse">
      <path
         inkscape:connector-curvature="0"
         id="path6908"
         d="M 0,792 612,792 612,0 0,0 0,792 Z" />
    </clipPath>
    <clipPath
       id="clipPath6912"
       clipPathUnits="userSpaceOnUse">
      <path
         inkscape:connector-curvature="0"
         id="path6914"
         d="m 0,792.06 612,0 0,-792 -612,0 0,792 z" />
    </clipPath>
    <clipPath
       id="clipPath6920"
       clipPathUnits="userSpaceOnUse">
      <path
         inkscape:connector-curvature="0"
         id="path6922"
         d="m 0,0.06 612,0 0,792 -612,0 0,-792 z" />
    </clipPath>
    <clipPath
       id="clipPath6928"
       clipPathUnits="userSpaceOnUse">
      <path
         style="clip-rule:evenodd"
         inkscape:connector-curvature="0"
         id="path6930"
         d="m 411.413,118.517 105.954,0 0,-126.005 -105.954,0 0,126.005 z" />
    </clipPath>
    <clipPath
       id="clipPath6934"
       clipPathUnits="userSpaceOnUse">
      <path
         inkscape:connector-curvature="0"
         id="path6936"
         d="M 0,792 612,792 612,0 0,0 0,792 Z" />
    </clipPath>
    <clipPath
       id="clipPath6940"
       clipPathUnits="userSpaceOnUse">
      <path
         inkscape:connector-curvature="0"
         id="path6942"
         d="m 0,792.06 612,0 0,-792 -612,0 0,792 z" />
    </clipPath>
    <clipPath
       id="clipPath6950"
       clipPathUnits="userSpaceOnUse">
      <path
         inkscape:connector-curvature="0"
         id="path6952"
         d="m -4.52,-0.171 6.616,0 0,9.418001 -6.616,0 0,-9.418001 z" />
    </clipPath>
    <radialGradient
       id="radialGradient6964"
       spreadMethod="pad"
       gradientTransform="matrix(0.369335,0.068009,0.061824,-0.40628,0.504709,0.475881)"
       gradientUnits="userSpaceOnUse"
       r="1"
       cy="0"
       cx="0"
       fy="0"
       fx="0">
      <stop
         id="stop6966"
         offset="0"
         style="stop-opacity:1;stop-color:#ffd49a" />
      <stop
         id="stop6968"
         offset="0.196629"
         style="stop-opacity:1;stop-color:#ffd49a" />
      <stop
         id="stop6970"
         offset="0.50378567"
         style="stop-opacity:1;stop-color:#ffd49a" />
      <stop
         id="stop6972"
         offset="1"
         style="stop-opacity:1;stop-color:#b66611" />
    </radialGradient>
    <linearGradient
       id="linearGradient7014"
       spreadMethod="pad"
       gradientTransform="matrix(0.560469,0,0,-0.631577,0.313357,0.52032)"
       gradientUnits="userSpaceOnUse"
       y2="0"
       x2="1"
       y1="0"
       x1="0">
      <stop
         id="stop7016"
         offset="0"
         style="stop-opacity:1;stop-color:#808285" />
      <stop
         id="stop7018"
         offset="0.5"
         style="stop-opacity:1;stop-color:#d2d3d5" />
      <stop
         id="stop7020"
         offset="1"
         style="stop-opacity:1;stop-color:#808285" />
    </linearGradient>
    <clipPath
       id="clipPath7044"
       clipPathUnits="userSpaceOnUse">
      <path
         inkscape:connector-curvature="0"
         id="path7046"
         d="M 1,1 0,1 0,0 1,0 1,1 Z" />
    </clipPath>
    <linearGradient
       id="linearGradient7102"
       spreadMethod="pad"
       gradientTransform="matrix(0,-0.106828,-0.097113,0,0.148804,0.402534)"
       gradientUnits="userSpaceOnUse"
       y2="0"
       x2="1"
       y1="0"
       x1="0">
      <stop
         id="stop7104"
         offset="0"
         style="stop-opacity:1;stop-color:#ffffff" />
      <stop
         id="stop7106"
         offset="0.3315508"
         style="stop-opacity:1;stop-color:#ffffff" />
      <stop
         id="stop7108"
         offset="1"
         style="stop-opacity:1;stop-color:#ffd49a" />
    </linearGradient>
    <linearGradient
       id="linearGradient7124"
       spreadMethod="pad"
       gradientTransform="matrix(0,-0.106828,-0.097113,0,0.217762,0.402534)"
       gradientUnits="userSpaceOnUse"
       y2="0"
       x2="1"
       y1="0"
       x1="0">
      <stop
         id="stop7126"
         offset="0"
         style="stop-opacity:1;stop-color:#ffffff" />
      <stop
         id="stop7128"
         offset="0.3315508"
         style="stop-opacity:1;stop-color:#ffffff" />
      <stop
         id="stop7130"
         offset="1"
         style="stop-opacity:1;stop-color:#ffd49a" />
    </linearGradient>
    <linearGradient
       id="linearGradient7146"
       spreadMethod="pad"
       gradientTransform="matrix(0,-0.106828,-0.097113,0,0.300539,0.402534)"
       gradientUnits="userSpaceOnUse"
       y2="0"
       x2="1"
       y1="0"
       x1="0">
      <stop
         id="stop7148"
         offset="0"
         style="stop-opacity:1;stop-color:#ffffff" />
      <stop
         id="stop7150"
         offset="0.3315508"
         style="stop-opacity:1;stop-color:#ffffff" />
      <stop
         id="stop7152"
         offset="1"
         style="stop-opacity:1;stop-color:#ffd49a" />
    </linearGradient>
    <linearGradient
       id="linearGradient7168"
       spreadMethod="pad"
       gradientTransform="matrix(0,-0.106828,-0.097113,0,0.401843,0.402534)"
       gradientUnits="userSpaceOnUse"
       y2="0"
       x2="1"
       y1="0"
       x1="0">
      <stop
         id="stop7170"
         offset="0"
         style="stop-opacity:1;stop-color:#ffffff" />
      <stop
         id="stop7172"
         offset="0.3315508"
         style="stop-opacity:1;stop-color:#ffffff" />
      <stop
         id="stop7174"
         offset="1"
         style="stop-opacity:1;stop-color:#ffd49a" />
    </linearGradient>
    <linearGradient
       id="linearGradient7192"
       spreadMethod="pad"
       gradientTransform="matrix(0,-0.106828,-0.097113,0,0.507067,0.402534)"
       gradientUnits="userSpaceOnUse"
       y2="0"
       x2="1"
       y1="0"
       x1="0">
      <stop
         id="stop7194"
         offset="0"
         style="stop-opacity:1;stop-color:#ffffff" />
      <stop
         id="stop7196"
         offset="0.3315508"
         style="stop-opacity:1;stop-color:#ffffff" />
      <stop
         id="stop7198"
         offset="1"
         style="stop-opacity:1;stop-color:#ffd49a" />
    </linearGradient>
    <linearGradient
       id="linearGradient7214"
       spreadMethod="pad"
       gradientTransform="matrix(0,-0.106821,-0.097107,0,0.575047,0.449885)"
       gradientUnits="userSpaceOnUse"
       y2="0"
       x2="1"
       y1="0"
       x1="0">
      <stop
         id="stop7216"
         offset="0"
         style="stop-opacity:1;stop-color:#ffffff" />
      <stop
         id="stop7218"
         offset="0.3315508"
         style="stop-opacity:1;stop-color:#ffffff" />
      <stop
         id="stop7220"
         offset="1"
         style="stop-opacity:1;stop-color:#ffd49a" />
    </linearGradient>
    <linearGradient
       id="linearGradient7236"
       spreadMethod="pad"
       gradientTransform="matrix(0,-0.106821,-0.097107,0,0.671225,0.449885)"
       gradientUnits="userSpaceOnUse"
       y2="0"
       x2="1"
       y1="0"
       x1="0">
      <stop
         id="stop7238"
         offset="0"
         style="stop-opacity:1;stop-color:#ffffff" />
      <stop
         id="stop7240"
         offset="0.3315508"
         style="stop-opacity:1;stop-color:#ffffff" />
      <stop
         id="stop7242"
         offset="1"
         style="stop-opacity:1;stop-color:#ffd49a" />
    </linearGradient>
    <linearGradient
       id="linearGradient7260"
       spreadMethod="pad"
       gradientTransform="matrix(0,-0.106821,-0.097107,0,0.784125,0.449885)"
       gradientUnits="userSpaceOnUse"
       y2="0"
       x2="1"
       y1="0"
       x1="0">
      <stop
         id="stop7262"
         offset="0"
         style="stop-opacity:1;stop-color:#ffffff" />
      <stop
         id="stop7264"
         offset="0.3315508"
         style="stop-opacity:1;stop-color:#ffffff" />
      <stop
         id="stop7266"
         offset="1"
         style="stop-opacity:1;stop-color:#ffd49a" />
    </linearGradient>
    <linearGradient
       id="linearGradient7282"
       spreadMethod="pad"
       gradientTransform="matrix(0,-0.106821,-0.097107,0,0.884821,0.449885)"
       gradientUnits="userSpaceOnUse"
       y2="0"
       x2="1"
       y1="0"
       x1="0">
      <stop
         id="stop7284"
         offset="0"
         style="stop-opacity:1;stop-color:#ffffff" />
      <stop
         id="stop7286"
         offset="0.3315508"
         style="stop-opacity:1;stop-color:#ffffff" />
      <stop
         id="stop7288"
         offset="1"
         style="stop-opacity:1;stop-color:#ffd49a" />
    </linearGradient>
  </defs>
  <sodipodi:namedview
     id="base"
     pagecolor="#ffffff"
     bordercolor="#666666"
     borderopacity="1.0"
     inkscape:pageopacity="0.0"
     inkscape:pageshadow="2"
     inkscape:zoom="5.1226415"
     inkscape:cx="58.25"
     inkscape:cy="53"
     inkscape:document-units="px"
     inkscape:current-layer="layer1"
     showgrid="false"
     units="px"
     inkscape:window-width="1280"
     inkscape:window-height="744"
     inkscape:window-x="-4"
     inkscape:window-y="-4"
     inkscape:window-maximized="1" />
  <metadata
     id="metadata18112">
    <rdf:RDF>
      <cc:Work
         rdf:about="">
        <dc:format>image/svg+xml</dc:format>
        <dc:type
           rdf:resource="http://purl.org/dc/dcmitype/StillImage" />
        <dc:title></dc:title>
      </cc:Work>
    </rdf:RDF>
  </metadata>
  <g
     inkscape:label="Layer 1"
     inkscape:groupmode="layer"
     id="layer1"
     transform="translate(0,-946.36216)">
    <g
       id="g6896"
       transform="matrix(1.25,0,0,-1.25,-522.2364,1070.0048)">
      <g
         id="g6898"
         clip-path="url(#clipPath6900)">
        <g
           id="g6904"
           clip-path="url(#clipPath6906)">
          <g
             id="g6910"
             clip-path="url(#clipPath6912)">
            <g
               id="g6916">
              <g
                 id="g6918"
                 clip-path="url(#clipPath6920)">
                <g
                   id="g6924">
                  <g
                     id="g6926"
                     clip-path="url(#clipPath6928)">
                    <g
                       id="g6932"
                       clip-path="url(#clipPath6934)">
                      <g
                         id="g6938"
                         clip-path="url(#clipPath6940)">
                        <g
                           id="g6944"
                           transform="matrix(92.5062,0,0,84.0942,418.136,14.467)">
                          <g
                             id="g6946">
                            <g
                               id="g6948"
                               clip-path="url(#clipPath6950)">
                              <g
                                 id="g6954">
                                <g
                                   id="g6956">
                                <g
                                   id="g6962">
                                <path
                                   d="M 0.13063,0.50134 C 0.14271,0.72846 0.31988,0.90183 0.52635,0.88855 0.73282,0.87526 0.89041,0.68038 0.87835,0.45325 0.86627,0.22612 0.68911,0.052755 0.48264,0.066058 0.27618,0.079318 0.11857,0.27421 0.13063,0.50134"
                                   style="fill:url(#radialGradient6964);stroke:none"
                                   id="path6974"
                                   inkscape:connector-curvature="0" />
                                </g>
                                </g>
                              </g>
                              <path
                                 d="M 0.82942,0.26667 C 0.72425,0.25745 0.60564,0.2838 0.4949,0.34094 0.49557,0.34248 0.51912,0.38811 0.55086,0.45303 0.6402,0.41005 0.74617,0.40148 0.87164,0.42692 0.86771,0.37099 0.85347,0.31632 0.82942,0.26667 Z M 0.59592,0.072587 c 0,0 -0.00508,-0.001046 -0.00514,-0.001085 C 0.55767,0.14032 0.50847,0.19766 0.44828,0.23757 0.46035,0.26348 0.47222,0.28961 0.48365,0.31534 0.59418,0.26261 0.71232,0.2373 0.8173,0.24372 0.76675,0.15425 0.68837,0.093545 0.59592,0.072587 Z M 0.37809,0.093442 C 0.39761,0.1317 0.41834,0.17396 0.43829,0.21621 0.49402,0.18215 0.54031,0.1311 0.57251,0.068238 0.50564,0.057696 0.4386,0.066376 0.37809,0.093442 Z M 0.30508,0.29401 C 0.25088,0.30283 0.19702,0.29932 0.1449,0.28379 0.12219,0.34155 0.11243,0.40365 0.11571,0.46509 0.11829,0.5136 0.12913,0.56162 0.14785,0.60679 0.16469,0.58076 0.18365,0.55509 0.20443,0.53044 0.2711,0.45138 0.35522,0.38338 0.44783,0.33353 0.44593,0.32999 0.44131,0.32144 0.44131,0.32144 0.43039,0.30135 0.41905,0.28104 0.40761,0.26101 0.37512,0.27709 0.34065,0.28824 0.30508,0.29401 Z M 0.29063,0.82395 C 0.34964,0.86469 0.4179,0.88671 0.48929,0.88712 0.55553,0.8875 0.61911,0.86948 0.67519,0.83527 0.64584,0.74943 0.57662,0.59844 0.52772,0.49501 0.4235,0.5593 0.3514,0.67525 0.29063,0.82395 Z M 0.75839,0.76639 C 0.83031,0.6877 0.86991,0.58179 0.86991,0.46817 l 0.00272,0 c 9e-5,-0.00469 1.2e-4,-0.00937 8e-5,-0.01405 C 0.74496,0.42722 0.6442,0.43711 0.56215,0.47622 0.61217,0.57952 0.67675,0.71964 0.70677,0.81369 0.72504,0.79976 0.74232,0.78398 0.75839,0.76639 Z M 0.88822,0.43045 C 0.89803,0.43264 0.90794,0.43499 0.91798,0.43759 L 0.91247,0.46342 C 0.90447,0.46135 0.8966,0.45946 0.88879,0.45767 c -3e-5,0.00349 -8e-5,0.00699 -1.9e-4,0.0105 l 0.00543,0 C 0.89403,0.5889 0.8519,0.70149 0.77541,0.7852 0.75658,0.80581 0.73619,0.8241 0.71454,0.83996 0.71797,0.85264 0.72052,0.8641 0.72199,0.87404 0.72712,0.87648 0.69035,0.88132 0.68794,0.88009 0.68693,0.87456 0.68532,0.86802 0.68323,0.86068 0.62447,0.89565 0.55817,0.91405 0.48916,0.91365 0.41442,0.91322 0.3429,0.89053 0.28082,0.8485 0.27628,0.8601 0.27932,0.84978 0.27488,0.86174 L 0.25255,0.85173 C 0.25765,0.83795 0.25525,0.8467 0.26038,0.83369 0.24081,0.81856 0.19054,0.76817 0.17251,0.74091 L 0.18965,0.72224 C 0.2081,0.74885 0.23947,0.78611 0.27035,0.80893 0.33155,0.66042 0.39592,0.56399 0.47512,0.50077 0.48851,0.49008 0.50235,0.4804 0.51665,0.47166 0.49188,0.41962 0.47459,0.38441 0.47459,0.38441 c 0,0 -0.01101,-0.02115 -0.01309,-0.02514 C 0.38665,0.40283 0.31818,0.46006 0.2634,0.525 0.22702,0.56818 0.19726,0.61384 0.17481,0.66077 0.17551,0.6619 0.17655,0.66363 0.17655,0.66363 L 0.17236,0.66432 0.11054,0.67185 0.11305,0.66695 C 0.11827,0.65671 0.12393,0.64637 0.12982,0.63619 0.10961,0.5866 0.09804,0.53384 0.095205,0.48061 0.091555,0.41197 0.10247,0.3426 0.12782,0.27828 0.1167,0.27435 0.10569,0.26993 0.095036,0.26497 L 0.092582,0.26381 0.093674,0.26112 C 0.09817,0.24996 0.10311,0.23895 0.10829,0.22839 L 0.10947,0.22603 0.11169,0.22714 C 0.12204,0.23233 0.13303,0.23707 0.1443,0.24134 0.15443,0.22101 0.166,0.20139 0.17881,0.18309 L 0.18091,0.18011 0.19205,0.19627 0.19084,0.19801 C 0.17997,0.21354 0.17016,0.2301 0.16144,0.24718 0.21319,0.26363 0.26909,0.26781 0.32344,0.25898 0.34778,0.25501 0.3717,0.24809 0.39464,0.23849 0.37137,0.19858 0.34773,0.16 0.32428,0.12371 0.2922,0.14585 0.26421,0.17313 0.24117,0.20498 L 0.23896,0.20805 0.21434,0.16824 0.21565,0.16658 C 0.23919,0.13608 0.26784,0.10966 0.30068,0.087848 0.29818,0.084181 0.2879,0.069069 0.2879,0.069069 L 0.29117,0.067717 C 0.29691,0.065341 0.30254,0.056497 0.30849,0.04714 0.31659,0.034462 0.32496,0.021344 0.33653,0.018847 l 0.00182,-3.85e-4 c 0,0 0.01853,0.034254 0.0205,0.037925 0.06981,-0.029849 0.146,-0.036798 0.22056,-0.019921 0,0 0.00437,0.001081 0.0071,0.001709 C 0.59139,0.026488 0.5958,0.014534 0.59957,0.002611 L 0.6004,0 0.60278,7.92e-4 0.61653,0.005447 0.61564,0.008248 C 0.61211,0.019696 0.60797,0.031329 0.60337,0.042862 0.70414,0.072997 0.78769,0.14478 0.83898,0.24541 0.84142,0.24572 0.86514,0.24874 0.86514,0.24874 l 5.3e-4,0.00141 0.00955,0.02277 -0.00486,-7.9e-4 c 0,0 -0.01406,-0.00216 -0.02026,-0.00309 0.0223,0.05082 0.03514,0.10491 0.03807,0.16011 3e-5,4.3e-4 3e-5,8.7e-4 5e-5,0.0013"
                                 style="fill:#003263;fill-opacity:1;fill-rule:nonzero;stroke:none"
                                 id="path6976"
                                 inkscape:connector-curvature="0" />
                              <path
                                 d="M 0.83935,0.68722 0.84907,0.77046 0.8258,0.76854 0.82826,0.78666 0.80229,0.7943 0.7993,0.77471 0.77651,0.78897 0.76403,0.68491 0.74815,0.66998 0.76589,0.84448 0.74308,0.85449 0.68866,0.80882 0.68453,0.73809 l -0.01469,0.0014 0.00438,0.11612 -0.007,0.00541 4.3e-4,0.01087 -0.02796,0.05583 -0.00692,0.00221 0,0.05156 -0.00231,0.00231 0,-0.05325 -0.00971,0.00149 0,0.05524 -0.0023,0.0023 0,-0.05719 L 0.61678,0.93265 0.60959,0.93413 0.58892,0.88424 0.5887,0.87415 0.58115,0.87029 0.581,0.71485 0.57175,0.71453 0.56997,0.75235 0.56334,0.75201 C 0.56148,0.7878 0.54133,0.81626 0.51365,0.8207 l -3.9e-4,0.0121 -2e-4,0 C 0.51287,0.83862 0.50936,0.8433 0.50491,0.84411 l -6e-4,0.01839 -0.00299,-1.5e-4 0,-1.8e-4 C 0.49443,0.86145 0.49288,0.85724 0.48643,0.85646 l 3e-5,-0.01262 c 0.00658,8.1e-4 0.00806,0.00514 0.01528,0.00577 L 0.50191,0.84404 C 0.49727,0.84304 0.49382,0.83788 0.49402,0.83183 l -2e-4,-2e-5 3.8e-4,-0.012 C 0.46664,0.81283 0.44818,0.7821 0.44862,0.74602 L 0.442,0.74567 0.44336,0.70387 0.43272,0.7035 0.42163,0.79406 0.41662,0.79706 0.41045,0.83946 0.39074,0.85643 0.37071,0.852 0.36731,0.89187 c 0,0 -0.01232,-0.00385 -0.01725,-0.00461 L 0.35129,0.87415 c 0.00617,0.00154 0.0148,0.00462 0.0148,0.00462 L 0.36858,0.85124 0.35091,0.8466 0.33096,0.82329 0.34968,0.68096 0.31837,0.62768 0.38068,0.41141 0.79993,0.40477 0.86306,0.62768 0.83935,0.68722"
                                 style="fill:#ffd49a;fill-opacity:1;fill-rule:nonzero;stroke:none"
                                 id="path6978"
                                 inkscape:connector-curvature="0" />
                              <path
                                 d="m 0.49558,0.8552 c 0.00152,9.2e-4 0.00294,0.00159 0.00471,0.00201 4e-5,-0.00127 5e-5,-0.0016 10e-5,-0.00317 C 0.49636,0.85348 0.4937,0.85196 0.49158,0.85068 c -3.3e-4,-2e-4 -6.3e-4,-3.4e-4 -9.4e-4,-5.2e-4 0,0.00136 0,0.00161 -1e-5,0.00271 0.00191,6.8e-4 0.00357,0.00149 0.00495,0.00233 z m 0.11647,0.07373 c 0.00196,-4e-4 0.00396,-8.1e-4 0.00396,-8.1e-4 5e-5,-10e-6 0.00663,-0.00104 0.00663,-0.00104 l 0,10e-6 C 0.62539,0.92667 0.63021,0.92593 0.63028,0.92592 0.63093,0.92571 0.63494,0.92443 0.63686,0.92382 0.6384,0.92074 0.66235,0.8729 0.66341,0.87079 c -8e-5,-0.002 -4.8e-4,-0.0121 -4.8e-4,-0.0121 0,0 0.00499,-0.00385 0.007,-0.00541 -1.8e-4,-0.00482 -0.00445,-0.118 -0.00445,-0.118 L 0.68844,0.73309 c 0,0 0.00405,0.06939 0.00428,0.07334 C 0.69549,0.80875 0.74031,0.84637 0.74373,0.84924 0.74681,0.84788 0.75737,0.84325 0.76137,0.8415 0.76068,0.83479 0.7428,0.65887 0.7428,0.65887 l 0.02518,0.02368 c 0,0 0.01045,0.08715 0.01187,0.09902 0.0063,-0.00393 0.02259,-0.01413 0.02259,-0.01413 0,0 0.00237,0.01555 0.00322,0.02109 C 0.81075,0.78704 0.81927,0.78453 0.82356,0.78327 0.8229,0.77837 0.82088,0.76351 0.82088,0.76351 c 0,0 0.01714,0.00141 0.02338,0.00193 -0.00114,-0.00976 -0.00921,-0.0789 -0.00921,-0.0789 0,0 0.02234,-0.05614 0.02353,-0.05913 C 0.85768,0.62422 0.79866,0.41577 0.79686,0.40943 0.79073,0.40953 0.38969,0.41588 0.38377,0.41597 0.38201,0.42207 0.32412,0.623 0.32296,0.627 c 0.00201,0.00341 0.03109,0.05291 0.03109,0.05291 0,0 -0.01809,0.13757 -0.01865,0.14184 0.00229,0.00267 0.01624,0.01898 0.0177,0.02068 0.00212,5.6e-4 0.02002,0.00526 0.02002,0.00526 0,0 -2e-5,1.2e-4 -2e-5,1.3e-4 0.0024,5.3e-4 0.01373,0.00304 0.01657,0.00367 C 0.39208,0.84942 0.4045,0.83873 0.40657,0.83694 0.40705,0.83366 0.4128,0.79409 0.4128,0.79409 c 0,0 0.00349,-0.00209 0.00496,-0.00297 5.4e-4,-0.0044 0.01131,-0.09236 0.01131,-0.09236 l 0.01864,6.5e-4 c 0,0 -0.00114,0.03463 -0.00137,0.04187 0.00116,6e-5 0.00654,3.4e-4 0.00654,3.4e-4 l -6e-5,0.00446 c -1e-5,4.1e-4 -1e-5,8.2e-4 -1e-5,0.00123 0,0.03379 0.01729,0.06166 0.04233,0.068 l 0.00337,8.5e-4 -5e-4,0.01581 c 8e-5,0.00373 0.00202,0.00696 0.0047,0.00754 0,0 5.2e-4,1.1e-4 8.1e-4,1.8e-4 2.3e-4,-5e-5 7.1e-4,-1.3e-4 7.1e-4,-1.3e-4 0.00253,-4.7e-4 0.00453,-0.00344 0.00463,-0.00692 2.1e-4,0 6e-4,-0.0121 6e-4,-0.0121 L 0.50959,0.81669 0.51305,0.81614 C 0.53843,0.81206 0.5574,0.78558 0.55916,0.75175 l 2.3e-4,-0.00456 c 0,0 0.00546,2.8e-4 0.00661,3.4e-4 3.3e-4,-0.00708 0.00177,-0.03774 0.00177,-0.03774 l 0.01742,5.8e-4 c 0,0 1.5e-4,0.15132 1.5e-4,0.15698 0.00224,0.00114 0.00749,0.00383 0.00749,0.00383 0,0 2.3e-4,0.01045 2.6e-4,0.012 6.4e-4,0.00155 0.01663,0.04013 0.01896,0.04575 z M 0.3636,0.88597 c 7e-5,-7.4e-4 1.8e-4,-0.00207 2.7e-4,-0.00314 -0.00161,-5.6e-4 -0.0052,-0.00178 -0.0089,-0.0029 -1.7e-4,0.00174 -2e-4,0.00203 -3.4e-4,0.0036 0.00291,7e-4 0.00626,0.00165 0.00897,0.00244 z m 0.25065,0.10361 c 0,0 0,-0.04277 0,-0.05171 C 0.61237,0.93825 0.60714,0.93933 0.60714,0.93933 L 0.58475,0.88529 c 0,0 -1.1e-4,-0.00523 -1.8e-4,-0.00816 -0.00223,-0.00114 -0.00761,-0.0039 -0.00761,-0.0039 0,0 -1.4e-4,-0.14548 -1.5e-4,-0.15391 -5.3e-4,-2e-5 -5.5e-4,-2e-5 -0.00109,-4e-5 -3.2e-4,0.007 -0.00178,0.0379 -0.00178,0.0379 0,0 -0.00559,-2.9e-4 -0.00695,-3.6e-4 C 0.56368,0.79131 0.54413,0.81811 0.51773,0.82431 0.51762,0.82784 0.51745,0.83296 0.51745,0.83296 0.51708,0.83938 0.51371,0.84478 0.50901,0.84728 0.50887,0.85148 0.50834,0.86733 0.50834,0.86733 L 0.50112,0.86696 C 0.49653,0.8663 0.49377,0.86463 0.49154,0.86329 0.48973,0.86219 0.48829,0.86132 0.48597,0.86104 l -0.00374,-4.5e-4 5e-5,-0.0219 0.00465,5.7e-4 C 0.48891,0.8395 0.49052,0.84 0.49192,0.8406 0.49069,0.83811 0.48982,0.83535 0.48982,0.83232 c 0,-2.2e-4 1e-5,-4.4e-4 1e-5,-6.5e-4 -4e-5,-1e-5 -6e-5,-5.5e-4 -6e-5,-0.00141 0,-0.00178 7e-5,-0.0048 1.4e-4,-0.0072 C 0.46368,0.81445 0.44566,0.78559 0.44463,0.75043 0.44324,0.75036 0.43766,0.75007 0.43766,0.75007 c 0,0 0.00112,-0.03441 0.00136,-0.04173 -0.00127,-4e-5 -0.00144,-5e-5 -0.00265,-9e-5 C 0.43545,0.71577 0.42551,0.797 0.42551,0.797 c 0,0 -0.0036,0.00215 -0.00508,0.00303 C 0.41985,0.80405 0.41434,0.84198 0.41434,0.84198 L 0.3918,0.86137 c 0,0 -0.01191,-0.00264 -0.01735,-0.00384 C 0.37379,0.86529 0.37059,0.89745 0.37059,0.89745 L 0.36617,0.89631 C 0.36281,0.89527 0.35329,0.89242 0.34948,0.89183 L 0.34548,0.89121 0.34761,0.8685 0.35222,0.86965 C 0.35552,0.87048 0.3594,0.87169 0.36242,0.87269 0.36295,0.86687 0.36364,0.85925 0.36404,0.85479 0.3595,0.8536 0.34871,0.85077 0.34871,0.85077 L 0.32652,0.82483 c 0,0 0.01834,-0.13947 0.01878,-0.14282 C 0.34369,0.67927 0.31377,0.62836 0.31377,0.62836 L 0.3776,0.40684 0.803,0.40011 0.86752,0.62795 c 0,0 -0.02296,0.0577 -0.02386,0.05995 2.9e-4,0.00246 0.01023,0.08759 0.01023,0.08759 0,0 -0.01687,-0.0014 -0.02316,-0.00192 7.3e-4,0.00536 0.00223,0.01648 0.00223,0.01648 L 0.79891,0.80007 c 0,0 -0.00187,-0.01228 -0.00275,-0.01808 -0.00621,0.00388 -0.023,0.01438 -0.023,0.01438 0,0 -0.01267,-0.10572 -0.01308,-0.10911 C 0.75915,0.68639 0.75679,0.68417 0.7535,0.68107 0.75556,0.70131 0.77041,0.84746 0.77041,0.84746 L 0.74243,0.85975 0.6846,0.81121 c 0,0 -0.0035,-0.05991 -0.00398,-0.06812 -0.00265,2.6e-4 -0.00388,3.8e-4 -0.00643,6.2e-4 3.1e-4,0.00816 0.00432,0.11423 0.00432,0.11423 0,0 -0.00499,0.00385 -0.007,0.0054 1.2e-4,0.00298 3.8e-4,0.00964 3.8e-4,0.00964 L 0.64252,0.93162 c 0,0 -0.00364,0.00116 -0.00556,0.00177 0,0.00604 0,0.05014 0,0.05014 l -0.0107,0.0107 c 0,0 0,-0.04978 0,-0.05838 -6.5e-4,10e-5 -6.9e-4,1.1e-4 -0.00131,2e-4 0,0.00691 0,0.05327 0,0.05327 L 0.61425,1 l 0,-0.01042"
                                 style="fill:#003263;fill-opacity:1;fill-rule:nonzero;stroke:none"
                                 id="path6980"
                                 inkscape:connector-curvature="0" />
                              <path
                                 d="M 0.70473,0.73461 0.70559,0.74921 0.70903,0.80802 0.69937,0.79991 0.69567,0.7363 0.69562,0.73548 0.70473,0.73461"
                                 style="fill:#ffffff;fill-opacity:1;fill-rule:nonzero;stroke:none"
                                 id="path6982"
                                 inkscape:connector-curvature="0" />
                              <path
                                 d="M 0.70473,0.73461 0.70559,0.74921 0.70903,0.80802 0.69937,0.79991 0.69567,0.7363 0.69562,0.73548 0.70473,0.73461 Z"
                                 style="fill:none;stroke:#ffffff;stroke-width:0.002;stroke-linecap:butt;stroke-linejoin:miter;stroke-miterlimit:4;stroke-dasharray:none;stroke-opacity:1"
                                 id="path6984"
                                 inkscape:connector-curvature="0" />
                              <path
                                 d="M 0.78047,0.68541 0.78428,0.68902 0.78499,0.69493 0.79295,0.7613 0.78515,0.76619 0.77506,0.682 0.77483,0.68012 0.78047,0.68541"
                                 style="fill:#ffffff;fill-opacity:1;fill-rule:nonzero;stroke:none"
                                 id="path6986"
                                 inkscape:connector-curvature="0" />
                              <path
                                 d="M 0.78047,0.68541 0.78428,0.68902 0.78499,0.69493 0.79295,0.7613 0.78515,0.76619 0.77506,0.682 0.77483,0.68012 0.78047,0.68541 Z"
                                 style="fill:none;stroke:#ffffff;stroke-width:0.002;stroke-linecap:butt;stroke-linejoin:miter;stroke-miterlimit:4;stroke-dasharray:none;stroke-opacity:1"
                                 id="path6988"
                                 inkscape:connector-curvature="0" />
                              <path
                                 d="M 0.34066,0.63714 0.3685,0.68448 0.37141,0.68944 0.37061,0.69551 0.35306,0.82899 0.34297,0.8172 0.36068,0.68259 0.36149,0.67654 0.35857,0.67156 0.33073,0.62421 0.36861,0.47113 0.34066,0.63714"
                                 style="fill:#ffffff;fill-opacity:1;fill-rule:nonzero;stroke:none"
                                 id="path6990"
                                 inkscape:connector-curvature="0" />
                              <path
                                 d="M 0.34066,0.63714 0.3685,0.68448 0.37141,0.68944 0.37061,0.69551 0.35306,0.82899 0.34297,0.8172 0.36068,0.68259 0.36149,0.67654 0.35857,0.67156 0.33073,0.62421 0.36861,0.47113 0.34066,0.63714 Z"
                                 style="fill:none;stroke:#ffffff;stroke-width:0.002;stroke-linecap:butt;stroke-linejoin:miter;stroke-miterlimit:4;stroke-dasharray:none;stroke-opacity:1"
                                 id="path6992"
                                 inkscape:connector-curvature="0" />
                              <path
                                 d="m 0.45451,0.70373 7e-5,-0.00223 0.01034,3.6e-4 -4.8e-4,0.01478 -8.9e-4,0.02722 0.00634,3.2e-4 -1.8e-4,0.01424 C 0.46954,0.77217 0.47274,0.78476 0.47838,0.79491 0.46669,0.78399 0.45953,0.76597 0.45978,0.74551 L 0.45997,0.73126 0.45362,0.73094 0.45451,0.70373"
                                 style="fill:#ffffff;fill-opacity:1;fill-rule:nonzero;stroke:none"
                                 id="path6994"
                                 inkscape:connector-curvature="0" />
                              <path
                                 d="m 0.45451,0.70373 7e-5,-0.00223 0.01034,3.6e-4 -4.8e-4,0.01478 -8.9e-4,0.02722 0.00634,3.2e-4 -1.8e-4,0.01424 C 0.46954,0.77217 0.47274,0.78476 0.47838,0.79491 0.46669,0.78399 0.45953,0.76597 0.45978,0.74551 L 0.45997,0.73126 0.45362,0.73094 0.45451,0.70373 Z"
                                 style="fill:none;stroke:#ffffff;stroke-width:0.002;stroke-linecap:butt;stroke-linejoin:miter;stroke-miterlimit:4;stroke-dasharray:none;stroke-opacity:1"
                                 id="path6996"
                                 inkscape:connector-curvature="0" />
                              <path
                                 d="m 0.60208,0.71281 1.5e-4,0.15985 3e-4,1.4e-4 0.00705,0.00361 2e-4,0.00951 1.6e-4,0.00674 L 0.61988,0.91664 0.61659,0.91715 0.61556,0.9173 0.60001,0.87975 0.59986,0.87301 0.59965,0.86348 0.5926,0.85988 0.5923,0.85974 0.59217,0.71249 0.60208,0.71281"
                                 style="fill:#ffffff;fill-opacity:1;fill-rule:nonzero;stroke:none"
                                 id="path6998"
                                 inkscape:connector-curvature="0" />
                              <path
                                 d="m 0.60208,0.71281 1.5e-4,0.15985 3e-4,1.4e-4 0.00705,0.00361 2e-4,0.00951 1.6e-4,0.00674 L 0.61988,0.91664 0.61659,0.91715 0.61556,0.9173 0.60001,0.87975 0.59986,0.87301 0.59965,0.86348 0.5926,0.85988 0.5923,0.85974 0.59217,0.71249 0.60208,0.71281 Z"
                                 style="fill:none;stroke:#ffffff;stroke-width:0.002;stroke-linecap:butt;stroke-linejoin:miter;stroke-miterlimit:4;stroke-dasharray:none;stroke-opacity:1"
                                 id="path7000"
                                 inkscape:connector-curvature="0" />
                              <path
                                 d="m 0.84608,0.56214 c 0,0 -0.01004,0.11792 -0.07291,0.10801 C 0.75929,0.66796 0.75718,0.66562 0.74807,0.6767 0.73732,0.68978 0.71221,0.6996 0.71221,0.6996 c 0,0 -0.02749,0 -0.0514,-0.00654 -0.02816,0.02903 -0.06765,0.01311 -0.06765,0.01311 -0.04472,0.01238 -0.0495,0.00162 -0.0495,0.00162 0,0 -0.02244,-0.02021 -0.01965,-0.02178 C 0.45679,0.7235 0.43354,0.67418 0.43354,0.67418 c 0,0 -0.0105,0.00169 0,0 C 0.33505,0.69006 0.33579,0.56648 0.33579,0.56648"
                                 style="fill:#ffffff;fill-opacity:1;fill-rule:nonzero;stroke:none"
                                 id="path7002"
                                 inkscape:connector-curvature="0" />
                              <g
                                 id="g7004">
                                <g
                                   id="g7006">
                                <g
                                   id="g7012">
                                <path
                                   d="M 0.85461,0.49828 0.87383,0.54719 C 0.70162,0.63145 0.52644,0.66012 0.31336,0.54763 L 0.33063,0.49602 C 0.33845,0.49846 0.34607,0.50081 0.35356,0.50308 L 0.36986,0.42072 C 0.36444,0.41823 0.82089,0.41863 0.81521,0.42119 L 0.83218,0.5052 C 0.83952,0.50299 0.84698,0.50068 0.85461,0.49828"
                                   style="fill:url(#linearGradient7014);stroke:none"
                                   id="path7022"
                                   inkscape:connector-curvature="0" />
                                </g>
                                </g>
                              </g>
                              <path
                                 d="M 0.41878,0.66969 C 0.40883,0.66955 0.37958,0.66689 0.36377,0.6411 0.34457,0.60875 0.34235,0.57567 0.34242,0.56849 L 0.33995,0.56616 0.33833,0.55618 0.35021,0.56269 c -7e-5,0.00718 0.00214,0.04024 0.02134,0.07259 0.01144,0.01867 0.02991,0.02522 0.04303,0.02747 0.00132,0.00232 0.00271,0.00464 0.0042,0.00694"
                                 style="fill:#d5d7d8;fill-opacity:1;fill-rule:nonzero;stroke:none"
                                 id="path7024"
                                 inkscape:connector-curvature="0" />
                              <path
                                 d="m 0.5087,0.69078 c 8e-4,9.4e-4 0.00161,0.00186 0.00244,0.00276 C 0.50197,0.69722 0.4761,0.70449 0.45062,0.68451 0.41898,0.65915 0.40712,0.59602 0.40698,0.59553 L 0.39955,0.59145 0.39684,0.5799 0.41476,0.58972 c 1.5e-4,5e-4 0.01199,0.06364 0.04364,0.08899 0.01887,0.01479 0.03794,0.01464 0.0503,0.01207"
                                 style="fill:#d5d7d8;fill-opacity:1;fill-rule:nonzero;stroke:none"
                                 id="path7026"
                                 inkscape:connector-curvature="0" />
                              <path
                                 d="M 0.58797,0.7068 C 0.58001,0.70819 0.5478,0.71205 0.52418,0.6883 0.50355,0.66714 0.48471,0.61902 0.48407,0.61271 L 0.47703,0.6127 0.47505,0.60687 0.49186,0.6069 C 0.4925,0.61321 0.51133,0.66133 0.53197,0.6825 0.55912,0.70979 0.5976,0.70062 0.5976,0.70062 0.59662,0.70303 0.59308,0.70522 0.58797,0.7068"
                                 style="fill:#d5d7d8;fill-opacity:1;fill-rule:nonzero;stroke:none"
                                 id="path7028"
                                 inkscape:connector-curvature="0" />
                              <path
                                 d="M 0.76435,0.66897 C 0.7743,0.66885 0.80355,0.66617 0.81936,0.64039 0.83856,0.60803 0.84078,0.57497 0.8407,0.56777 L 0.84319,0.56544 0.8448,0.55547 0.83293,0.56197 C 0.83299,0.56914 0.83079,0.60222 0.81157,0.63457 0.80014,0.65323 0.78166,0.65979 0.76856,0.66203 0.76723,0.66435 0.76583,0.66667 0.76435,0.66897"
                                 style="fill:#d5d7d8;fill-opacity:1;fill-rule:nonzero;stroke:none"
                                 id="path7030"
                                 inkscape:connector-curvature="0" />
                              <path
                                 d="M 0.67443,0.69007 C 0.67362,0.691 0.67281,0.69193 0.672,0.69282 0.68116,0.6965 0.70704,0.70377 0.73251,0.68379 0.76415,0.65844 0.77601,0.59531 0.77616,0.59481 L 0.78359,0.59073 0.78629,0.57919 0.76836,0.589 C 0.76823,0.58951 0.75638,0.65264 0.72472,0.67799 0.70587,0.69278 0.68679,0.69263 0.67443,0.69007"
                                 style="fill:#d5d7d8;fill-opacity:1;fill-rule:nonzero;stroke:none"
                                 id="path7032"
                                 inkscape:connector-curvature="0" />
                              <path
                                 d="M 0.59516,0.70608 C 0.60313,0.70748 0.63532,0.71134 0.65894,0.68759 0.67958,0.66642 0.6984,0.6183 0.69907,0.612 l 0.00703,-2e-5 0.00198,-0.00583 -0.01682,4e-5 C 0.69063,0.6125 0.67179,0.66061 0.65115,0.68179 0.62402,0.70907 0.58553,0.69991 0.58553,0.69991 0.5865,0.70231 0.59005,0.7045 0.59516,0.70608"
                                 style="fill:#d5d7d8;fill-opacity:1;fill-rule:nonzero;stroke:none"
                                 id="path7034"
                                 inkscape:connector-curvature="0" />
                              <path
                                 d="m 0.59577,0.31724 -4e-5,-1.8e-4 C 0.62285,0.31728 0.74659,0.35251 0.801,0.38475 0.74495,0.36036 0.63453,0.33449 0.55289,0.31687 c 0.01778,5e-4 0.03327,5.8e-4 0.04288,3.7e-4"
                                 style="fill:#003263;fill-opacity:1;fill-rule:nonzero;stroke:none"
                                 id="path7036"
                                 inkscape:connector-curvature="0" />
                              <path
                                 d="m 0.85487,0.50261 c -0.1563,0.07908 -0.36561,0.07908 -0.52302,8e-5 L 0.31913,0.54453 C 0.49697,0.63982 0.69146,0.63893 0.8677,0.54202 L 0.85487,0.50261 Z M 0.81343,0.42823 C 0.79298,0.43498 0.77015,0.44173 0.7688,0.44199 0.75293,0.44505 0.67945,0.46885 0.59331,0.46506 l 0,2.3e-4 C 0.50677,0.46927 0.43481,0.44727 0.41688,0.44225 0.41555,0.44188 0.3927,0.43524 0.37227,0.42849 L 0.36283,0.48843 C 0.50425,0.54867 0.68327,0.54844 0.82341,0.48775 L 0.81343,0.42823 Z M 0.34226,0.56878 C 0.34219,0.57596 0.34441,0.60904 0.3636,0.64139 0.37942,0.66718 0.40866,0.66984 0.41862,0.66998 0.40173,0.64389 0.39586,0.61528 0.39538,0.61365 L 0.38953,0.58874 C 0.37347,0.58264 0.3575,0.57579 0.34165,0.5682 l 6.1e-4,5.8e-4 z M 0.45045,0.6848 C 0.47593,0.70478 0.5018,0.69752 0.51098,0.69383 0.49071,0.67172 0.47548,0.63726 0.4748,0.63565 l -0.0077,-0.02269 0.00274,1e-5 C 0.44737,0.60793 0.42501,0.60148 0.40281,0.59362 l 0.004,0.0022 c 1.5e-4,4.9e-4 0.012,0.06363 0.04364,0.08898 z M 0.67184,0.69328 C 0.68101,0.69697 0.70689,0.70423 0.73237,0.68425 0.764,0.6589 0.77421,0.59631 0.77437,0.59582 L 0.77626,0.59488 C 0.75614,0.60189 0.73588,0.60774 0.71551,0.61242 l 2e-4,0 -0.00768,0.02267 C 0.70734,0.6367 0.6921,0.67116 0.67184,0.69328 Z M 0.81922,0.64084 C 0.83835,0.60857 0.84061,0.5756 0.84055,0.5683 0.82501,0.57578 0.80934,0.5825 0.79357,0.58855 L 0.78892,0.61143 C 0.78844,0.61306 0.78109,0.64334 0.76419,0.66942 0.77415,0.6693 0.8034,0.66663 0.81922,0.64084 Z M 0.87561,0.55011 C 0.86772,0.55451 0.85977,0.55866 0.85181,0.56269 L 0.85019,0.57737 c -8e-5,0.00145 -7e-4,0.03762 -0.02277,0.07095 C 0.80583,0.67969 0.77605,0.6778 0.76077,0.67438 0.75599,0.681 0.75034,0.68725 0.74368,0.6926 0.7107,0.71839 0.67603,0.70012 0.66919,0.69609 0.66778,0.69749 0.66638,0.69884 0.66494,0.70012 0.63997,0.72184 0.59701,0.71559 0.59316,0.70617 c 0,0 0.03848,0.00916 0.06563,-0.01811 C 0.67719,0.66917 0.69284,0.62934 0.69648,0.61645 0.62626,0.63007 0.55502,0.62993 0.48463,0.61608 0.48833,0.62865 0.50545,0.66954 0.52401,0.6886 0.55115,0.71588 0.58965,0.70672 0.58965,0.70672 0.5858,0.71614 0.54285,0.72239 0.51787,0.70067 0.51643,0.6994 0.51502,0.69804 0.51363,0.69663 0.50679,0.70067 0.4721,0.71894 0.43914,0.69314 0.43247,0.6878 0.42684,0.68155 0.42204,0.67494 0.40675,0.67835 0.37698,0.68024 0.35539,0.64886 0.33333,0.61553 0.33271,0.57938 0.33262,0.57791 L 0.33097,0.56297 C 0.32439,0.55967 0.31783,0.55628 0.3113,0.55272 L 0.29956,0.54647 0.30914,0.54314 0.32602,0.49429 0.32765,0.48835 0.33258,0.49087 c 0.00515,0.00262 0.01036,0.00516 0.01563,0.0076 L 0.3632,0.42545 C 0.35374,0.42218 0.83195,0.42192 0.82247,0.42517 L 0.83788,0.49873 C 0.84306,0.4963 0.8482,0.49379 0.85325,0.49121 L 0.85803,0.48876 0.85977,0.49447 0.87738,0.5409 0.88457,0.54481 0.87561,0.55011"
                                 style="fill:#003263;fill-opacity:1;fill-rule:nonzero;stroke:none"
                                 id="path7038"
                                 inkscape:connector-curvature="0" />
                              <g
                                 id="g7040">
                                <g
                                   id="g7042"
                                   clip-path="url(#clipPath7044)">
                                <path
                                   d="m 0.98592,0.45459 c 0.0015,0 0.00239,3.4e-4 0.00239,0.00225 0,0.00178 -0.00174,0.00191 -0.00301,0.00191 l -0.00235,0 0,-0.00416 0.00297,0 z m -0.00297,-0.01018 -0.00336,0 0,0.01727 0.00586,0 c 0.00405,0 0.00645,-0.00127 0.00645,-0.00522 0,-0.00318 -0.0017,-0.00433 -0.00379,-0.0045 l 0.00402,-0.00755 -0.00398,0 -0.00362,0.00725 -0.00158,0 0,-0.00725 z m 0.00242,0.02092 c -0.00578,0 -0.01045,-0.00492 -0.01045,-0.01231 0,-0.00738 0.00467,-0.01235 0.01045,-0.01231 l 0,-4e-5 c 0.00564,0 0.01043,0.00497 0.01043,0.01235 0,0.00739 -0.00479,0.01231 -0.01043,0.01231 z m 0,-0.02836 c -0.00775,0 -0.01466,0.0059 -0.01466,0.01605 0,0.01015 0.00691,0.01605 0.01466,0.01605 C 0.9931,0.46907 1,0.46317 1,0.45302 1,0.44287 0.9931,0.43697 0.98537,0.43697"
                                   style="fill:#003263;fill-opacity:1;fill-rule:nonzero;stroke:none"
                                   id="path7048"
                                   inkscape:connector-curvature="0" />
                                <path
                                   d="m 0.57245,0.28015 -0.00803,0.00359 0.01091,0.03205 0.27392,0 L 0.83232,0.28056 0.57245,0.28015 Z M 0.98122,0.25697 c -4e-5,2.3e-4 -0.01439,0.06924 -0.01439,0.06924 l -1.2e-4,-2e-4 C 0.96467,0.33192 0.95926,0.33644 0.95183,0.33991 0.95052,0.34239 0.94539,0.36553 0.94474,0.36882 c 0.00687,0.00527 0.01155,0.01376 0.01399,0.02545 1e-5,2e-5 0.0041,0.0197 0.0041,0.0197 0.001,0.00478 0.00149,0.00905 0.00149,0.01305 0,0.00817 -0.00209,0.0152 -0.00621,0.02088 C 0.9565,0.45013 0.95453,0.452 0.95236,0.45366 0.95169,0.45496 0.95098,0.45624 0.95014,0.45742 0.94084,0.47025 0.92498,0.47025 0.91976,0.47025 L 0.514,0.47193 c -3.8e-4,6.5e-4 -7.7e-4,0.00132 -0.00116,0.00199 0.0012,0.00329 0.0019,0.00685 0.0019,0.0106 0,0.01578 -0.01174,0.02863 -0.02618,0.02863 -0.00209,0 -0.00408,-3.6e-4 -0.00603,-8.9e-4 L 0.4776,0.59168 0.28292,0.59183 C 0.27519,0.59191 0.26774,0.59023 0.2608,0.58732 0.26119,0.5888 0.26194,0.59166 0.26194,0.59166 l -0.06386,3e-5 c 0,0 -0.00343,-0.01335 -0.00356,-0.01387 -2.3e-4,6e-4 -0.0053,0.01373 -0.0053,0.01373 l -0.05226,0 L 0.13479,0.58309 C 0.12796,0.59136 0.1173,0.59619 0.10403,0.59619 0.079527,0.59619 0.061691,0.5798 0.057467,0.55341 L 4.21e-4,0.30936 C 3.97e-4,0.30921 3.97e-4,0.30902 3.75e-4,0.30885 -6.82e-4,0.30237 7.55e-4,0.2962 0.001525,0.2934 0.002682,0.289 0.004535,0.28489 0.007116,0.2813 0.012019,0.27447 0.021753,0.26634 0.040351,0.26634 c 0.013867,0 0.024603,0.00464 0.032367,0.01174 0.001553,0 0.003197,0 0.004842,0 C 0.074788,0.27353 0.071765,0.26857 0.071765,0.26857 l 0.207505,0 C 0.26994,0.26109 0.26315,0.25047 0.26113,0.23845 0.26071,0.23599 0.2605,0.23347 0.2605,0.231 0.2605,0.2222 0.26315,0.21394 0.26818,0.2071 0.27558,0.19701 0.28741,0.19122 0.30063,0.19122 L 0.91541,0.18976 c 0.03071,1.6e-4 0.04681,0.01319 0.05492,0.02409 0.0107,0.01441 0.01264,0.03172 0.01089,0.04312"
                                   style="fill:#003263;fill-opacity:1;fill-rule:nonzero;stroke:none"
                                   id="path7050"
                                   inkscape:connector-curvature="0" />
                                </g>
                              </g>
                              <path
                                 d="m 0.30064,0.20999 c -0.00807,0 -0.01511,0.0032 -0.01934,0.0088 -0.00264,0.0035 -0.00401,0.00776 -0.00401,0.01229 0,0.00128 1.1e-4,0.00259 3.3e-4,0.0039 0.00241,0.01433 0.017,0.026 0.03253,0.026 1e-5,0 0.55594,8.7e-4 0.55594,8.7e-4 l 0.05945,0 C 0.9472,0.26206 0.9558,0.2724 0.96,0.28091 0.9617,0.27104 0.96469,0.25373 0.96469,0.25373 0.96491,0.25235 0.96503,0.25079 0.96503,0.24911 0.96503,0.24221 0.96302,0.23316 0.95714,0.22546 0.94874,0.21448 0.93433,0.20862 0.91543,0.20852 c -3e-5,0 -0.61479,0.00147 -0.61479,0.00147 z M 0.95867,0.29097 0.95818,0.28963 C 0.95517,0.28137 0.95013,0.26756 0.92552,0.26732 l -0.05944,0 c 0,0 -0.55593,-8.7e-4 -0.55593,-8.7e-4 -0.01781,0 -0.0346,-0.01367 -0.03742,-0.03048 C 0.27144,0.22839 0.27313,0.22105 0.27747,0.2153 0.28265,0.20844 0.29109,0.20451 0.30063,0.20451 L 0.91545,0.20305 c 0.02577,1.3e-4 0.03897,0.01035 0.0455,0.01889 0.0084,0.011 0.00997,0.02414 0.00864,0.03276 -10e-6,6e-5 -0.00775,0.04486 -0.00775,0.04486 L 0.95867,0.29097"
                                 style="fill:#ffd49a;fill-opacity:1;fill-rule:nonzero;stroke:none"
                                 id="path7052"
                                 inkscape:connector-curvature="0" />
                              <path
                                 d="m 0.30813,0.22173 c 0.00243,0.00878 0.0049,0.01739 0.00686,0.02902 l 0.01126,0 C 0.32384,0.24246 0.32188,0.23433 0.31945,0.22173 l -0.01132,0"
                                 style="fill:#ffffff;fill-opacity:1;fill-rule:nonzero;stroke:none"
                                 id="path7054"
                                 inkscape:connector-curvature="0" />
                              <path
                                 d="m 0.35374,0.2433 -3e-4,0 C 0.35216,0.23748 0.35015,0.22934 0.34872,0.22173 l -0.01004,0 c 0.003,0.00963 0.00527,0.01931 0.00722,0.02902 l 0.0131,0 C 0.36468,0.24327 0.37144,0.23617 0.37722,0.22878 l 1.4e-4,0 C 0.37902,0.23556 0.381,0.24348 0.38237,0.25075 l 0.0099,0 C 0.38937,0.24129 0.38689,0.23136 0.38498,0.22173 l -0.01268,0 -0.01856,0.02157"
                                 style="fill:#ffffff;fill-opacity:1;fill-rule:nonzero;stroke:none"
                                 id="path7056"
                                 inkscape:connector-curvature="0" />
                              <path
                                 d="m 0.41645,0.22635 0.00766,0 c 0.01435,0 0.01967,0.00565 0.02063,0.01126 6.8e-4,0.00395 -0.00134,0.00852 -0.01137,0.00852 l -0.01219,0 -0.00473,-0.01978 z m 0.01885,0.0244 c 0.01219,0 0.02131,-0.00361 0.01969,-0.01323 C 0.45345,0.22851 0.44398,0.22173 0.42542,0.22173 l -0.02065,0 c 0.00148,0.00451 0.00511,0.01739 0.00708,0.02902 l 0.02345,0"
                                 style="fill:#ffffff;fill-opacity:1;fill-rule:nonzero;stroke:none"
                                 id="path7058"
                                 inkscape:connector-curvature="0" />
                              <path
                                 d="m 0.46802,0.22173 c 0.00242,0.00878 0.00487,0.01739 0.00685,0.02902 l 0.01125,0 C 0.48372,0.24246 0.48178,0.23433 0.47935,0.22173 l -0.01133,0"
                                 style="fill:#ffffff;fill-opacity:1;fill-rule:nonzero;stroke:none"
                                 id="path7060"
                                 inkscape:connector-curvature="0" />
                              <path
                                 d="M 0.52928,0.23647 0.52543,0.24618 0.51595,0.23647 l 0.01333,0 z M 0.51203,0.23185 C 0.50876,0.22863 0.50551,0.22516 0.50235,0.22173 l -0.01182,0 C 0.50074,0.23127 0.51077,0.24101 0.5204,0.25075 l 0.01295,0 C 0.53711,0.24107 0.54155,0.23133 0.54585,0.22173 l -0.01148,0 C 0.53333,0.2252 0.5319,0.22863 0.53044,0.23185 l -0.01841,0"
                                 style="fill:#ffffff;fill-opacity:1;fill-rule:nonzero;stroke:none"
                                 id="path7062"
                                 inkscape:connector-curvature="0" />
                              <path
                                 d="m 0.57275,0.2433 -2.9e-4,0 C 0.5712,0.23748 0.56915,0.22934 0.56772,0.22173 l -0.01002,0 c 0.00299,0.00963 0.00526,0.01931 0.0072,0.02902 l 0.01311,0 C 0.58371,0.24327 0.59046,0.23617 0.59624,0.22878 l 1.2e-4,0 c 0.00165,0.00678 0.00366,0.0147 0.00501,0.02197 l 0.00993,0 C 0.60838,0.24129 0.60592,0.23136 0.60398,0.22173 l -0.01268,0 -0.01855,0.02157"
                                 style="fill:#ffffff;fill-opacity:1;fill-rule:nonzero;stroke:none"
                                 id="path7064"
                                 inkscape:connector-curvature="0" />
                              <path
                                 d="M 0.65453,0.23647 0.65065,0.24618 0.64119,0.23647 l 0.01334,0 z M 0.63726,0.23185 C 0.634,0.22863 0.63074,0.22516 0.6276,0.22173 l -0.01184,0 c 0.01022,0.00954 0.02025,0.01928 0.02986,0.02902 l 0.01298,0 C 0.66235,0.24107 0.66677,0.23133 0.67109,0.22173 l -0.01146,0 C 0.65858,0.2252 0.65715,0.22863 0.65569,0.23185 l -0.01843,0"
                                 style="fill:#ffffff;fill-opacity:1;fill-rule:nonzero;stroke:none"
                                 id="path7066"
                                 inkscape:connector-curvature="0" />
                              <path
                                 d="m 0.69855,0.23816 c 0.00134,-1.1e-4 0.00261,-2e-4 0.00399,-2e-4 0.00659,0 0.01025,0.00178 0.01081,0.005 4.6e-4,0.00277 -0.00193,0.00352 -0.00694,0.00352 -0.00259,0 -0.00511,-9e-5 -0.0077,-2.2e-4 C 0.69794,0.24348 0.69457,0.22899 0.69331,0.22173 l -0.01037,0 c 0.00184,0.00501 0.00568,0.02175 0.00691,0.02902 l 0.02272,0 c 0.00948,0 0.01156,-0.00457 0.01104,-0.00762 C 0.72259,0.23702 0.7142,0.23368 0.70474,0.23368 c -0.00172,0 -0.00342,10e-5 -0.00518,2.7e-4 L 0.69855,0.23816"
                                 style="fill:#ffffff;fill-opacity:1;fill-rule:nonzero;stroke:none"
                                 id="path7068"
                                 inkscape:connector-curvature="0" />
                              <path
                                 d="m 0.74657,0.23565 c -0.001,-0.00596 0.00474,-0.00984 0.01455,-0.00984 0.01062,0 0.01728,0.0047 0.01833,0.01087 9.8e-4,0.00578 -0.00406,0.00998 -0.01387,0.00998 -0.01075,0 -0.01794,-0.0047 -0.01901,-0.01101 z M 0.79028,0.23682 C 0.78854,0.2265 0.77605,0.2212 0.75983,0.2212 c -0.01447,0 -0.02574,0.00465 -0.02412,0.01411 0.00176,0.01038 0.01461,0.01597 0.031,0.01597 0.0147,0 0.02518,-0.00502 0.02357,-0.01446"
                                 style="fill:#ffffff;fill-opacity:1;fill-rule:nonzero;stroke:none"
                                 id="path7070"
                                 inkscape:connector-curvature="0" />
                              <path
                                 d="m 0.837,0.22173 -0.03349,0 c 0.00321,0.00963 0.0055,0.01931 0.00736,0.02902 l 0.01118,0 C 0.82133,0.24818 0.81714,0.2319 0.81591,0.22635 l 0.00866,0 c 0.00462,0 0.00919,0 0.01372,1e-4 L 0.837,0.22173"
                                 style="fill:#ffffff;fill-opacity:1;fill-rule:nonzero;stroke:none"
                                 id="path7072"
                                 inkscape:connector-curvature="0" />
                              <path
                                 d="M 0.85089,0.22173 C 0.8533,0.23051 0.85577,0.23912 0.85775,0.25075 l 0.01125,0 C 0.8666,0.24246 0.86464,0.23433 0.8622,0.22173 l -0.01131,0"
                                 style="fill:#ffffff;fill-opacity:1;fill-rule:nonzero;stroke:none"
                                 id="path7074"
                                 inkscape:connector-curvature="0" />
                              <path
                                 d="M 0.91461,0.24539 C 0.91158,0.2461 0.90828,0.24666 0.90486,0.24666 0.90036,0.24666 0.89681,0.24529 0.8965,0.24339 0.89574,0.2389 0.91371,0.2359 0.91255,0.22905 0.91199,0.22581 0.9075,0.2212 0.89424,0.2212 c -0.00459,0 -0.00894,5.3e-4 -0.01328,0.00114 l 1.2e-4,0.00535 C 0.88483,0.22659 0.889,0.22581 0.89336,0.22581 c 0.00338,0 0.00795,7.8e-4 0.00837,0.00328 7.8e-4,0.00456 -0.01719,0.00763 -0.01598,0.01478 8.6e-4,0.0051 0.00937,0.00741 0.01781,0.00741 0.00381,0 0.00755,-3e-4 0.01118,-8e-4 L 0.91461,0.24539"
                                 style="fill:#ffffff;fill-opacity:1;fill-rule:nonzero;stroke:none"
                                 id="path7076"
                                 inkscape:connector-curvature="0" />
                              <path
                                 d="m 0.19357,0.32734 6.6e-4,0.002 L 0.19978,0.35591 0.19664,0.35484 C 0.19281,0.35354 0.18885,0.35218 0.18148,0.35218 c 0,0 -0.01853,0 -0.02212,0 7.4e-4,0.00358 0.00394,0.0189 0.00443,0.02126 0.00248,0 0.0264,0 0.0264,0 0.00762,0 0.01092,-0.00138 0.01412,-0.00271 l 0.00213,-8.8e-4 2.3e-4,0.00248 0.0018,0.02258 -0.08135,0 4.5e-4,-0.00229 C 0.12828,0.38891 0.12866,0.38527 0.12654,0.37508 L 0.11192,0.30498 C 0.10978,0.29474 0.10785,0.29103 0.10554,0.28725 L 0.10375,0.2843 l 0.045,0 -4.4e-4,0.00229 c -7.2e-4,0.0037 -0.0011,0.00734 0.00103,0.01754 0,0 0.00499,0.02393 0.00554,0.02657 0.00244,0 0.02291,0 0.02291,0 0.00734,0 0.0107,-0.00133 0.01395,-0.00263 l 0.00183,-7.3e-4"
                                 style="fill:#b66611;fill-opacity:1;fill-rule:nonzero;stroke:none"
                                 id="path7078"
                                 inkscape:connector-curvature="0" />
                              <path
                                 d="M 0.25176,0.37423 C 0.2539,0.38449 0.25583,0.38819 0.25813,0.39196 l 0.0018,0.00295 -0.045,0 4.4e-4,-0.00229 C 0.21609,0.38891 0.21646,0.38527 0.21434,0.37508 L 0.19972,0.30498 C 0.19759,0.29474 0.19565,0.29103 0.19335,0.28725 l -0.0018,-0.00295 0.045,0 -4.4e-4,0.00229 C 0.23539,0.2903 0.23501,0.29395 0.23714,0.30413 l 0.01462,0.0701"
                                 style="fill:#b66611;fill-opacity:1;fill-rule:nonzero;stroke:none"
                                 id="path7080"
                                 inkscape:connector-curvature="0" />
                              <path
                                 d="m 0.42201,0.33449 c -0.00299,0 -0.01672,0 -0.0212,0 C 0.40335,0.33881 0.41437,0.35755 0.41785,0.36346 0.41882,0.35667 0.42154,0.3378 0.42201,0.33449 Z M 0.54186,0.30578 c 0,0 -0.02262,0 -0.02631,0 9e-4,0.00434 0.01428,0.06845 0.01428,0.06845 0.00213,0.01026 0.00406,0.01396 0.00637,0.01773 l 0.0018,0.00295 -0.04501,0 4.4e-4,-0.00229 C 0.49415,0.38891 0.49453,0.38527 0.4924,0.37508 L 0.47779,0.30498 C 0.47564,0.29473 0.47372,0.29102 0.47141,0.28725 l -4e-4,-6.5e-4 -3.3e-4,5.9e-4 C 0.46852,0.29107 0.46691,0.29605 0.46617,0.30119 l -0.01284,0.09372 -0.04458,0 c 0,0 0.00282,-0.00638 0.00343,-0.00775 C 0.41111,0.38539 0.36322,0.30661 0.36322,0.30661 0.35828,0.29839 0.35601,0.29548 0.34917,0.2875 L 0.34688,0.28483 0.36535,0.3734 c 0.00251,0.01205 0.00336,0.01382 0.00697,0.01837 l 0.0025,0.00314 -0.02787,0 9.8e-4,-0.00262 C 0.34871,0.39024 0.34914,0.3888 0.34914,0.38667 c 0,-0.0025 -6e-4,-0.00595 -0.00195,-0.01242 0,0 -0.00907,-0.04352 -0.01269,-0.06087 C 0.33202,0.32531 0.31754,0.39491 0.31754,0.39491 l -0.05184,0 9.9e-4,-0.00262 C 0.26837,0.38784 0.26846,0.38625 0.26595,0.37425 L 0.25168,0.30581 C 0.24917,0.29377 0.24833,0.292 0.24471,0.28745 L 0.24222,0.2843 l 0.02786,0 -9.8e-4,0.00262 c -7.7e-4,0.00205 -0.00121,0.0035 -0.00121,0.00563 0,0.00249 6e-4,0.00594 0.00195,0.01242 0,0 0.00919,0.04407 0.0129,0.06187 C 0.28532,0.35443 0.29992,0.2843 0.29992,0.2843 l 0.07812,0 -7.1e-4,0.00246 c -5.4e-4,0.00191 -7.8e-4,0.00277 -7.8e-4,0.00368 0,7.5e-4 1.6e-4,0.00155 4.6e-4,0.00301 4.2e-4,0.00198 0.0012,0.00389 0.00232,0.00569 1e-5,1e-5 0.00669,0.01083 0.00856,0.01387 0.00168,0 0.0342,0 0.03685,0 3.7e-4,-0.00249 0.0018,-0.0121 0.0018,-0.0121 9e-5,-6.4e-4 1.4e-4,-0.00137 1.4e-4,-0.00217 0,-0.0016 -1.9e-4,-0.00343 -5.4e-4,-0.00511 C 0.42573,0.29166 0.42548,0.29124 0.42301,0.28732 l -0.00185,-0.00297 0.00325,-5e-5 0.12668,0 L 0.56062,0.31178 0.55638,0.30902 C 0.5527,0.30663 0.54626,0.30578 0.54186,0.30578"
                                 style="fill:#b66611;fill-opacity:1;fill-rule:nonzero;stroke:none"
                                 id="path7082"
                                 inkscape:connector-curvature="0" />
                              <path
                                 d="M 0.62288,0.40219 C 0.61905,0.40089 0.6151,0.39954 0.60773,0.39954 c 0,0 -0.01854,0 -0.02214,0 7.5e-4,0.00357 0.00395,0.01889 0.00444,0.02125 0.00248,0 0.0264,0 0.0264,0 0.00763,0 0.01109,-0.00145 0.01414,-0.00271 l 0.00213,-8.9e-4 2.2e-4,0.00249 0.00179,0.02258 -0.08134,0 4.4e-4,-0.00228 C 0.55453,0.43626 0.5549,0.4326 0.55278,0.42243 L 0.53816,0.35234 C 0.53602,0.34207 0.53409,0.33838 0.53179,0.33461 l -0.0018,-0.00295 0.04501,0 -4.5e-4,0.00229 c -7.2e-4,0.00371 -0.0011,0.00735 0.00102,0.01754 0,0 0.005,0.02392 0.00555,0.02656 0.00245,0 0.02292,0 0.02292,0 0.00734,0 0.0107,-0.00134 0.01396,-0.00264 L 0.61983,0.37468 0.62048,0.37669 0.62602,0.40327 0.62288,0.40219"
                                 style="fill:#b66611;fill-opacity:1;fill-rule:nonzero;stroke:none"
                                 id="path7084"
                                 inkscape:connector-curvature="0" />
                              <path
                                 d="M 0.69765,0.41626 0.6856,0.35851 C 0.68476,0.3545 0.68314,0.35314 0.67915,0.35314 l -0.01479,0 c -0.00185,0 -0.00306,3.3e-4 -0.00351,9.4e-4 -4.2e-4,5.9e-4 -4.5e-4,0.00182 -8e-5,0.00358 L 0.6728,0.41542 c 8.4e-4,0.00401 0.00247,0.00537 0.00646,0.00537 l 0.01478,0 c 0.00185,0 0.00306,-3.3e-4 0.00352,-9.5e-4 4.2e-4,-5.9e-4 4.5e-4,-0.00183 9e-5,-0.00358 z M 0.73171,0.43575 C 0.72854,0.44013 0.72336,0.44226 0.71589,0.44226 l -0.0511,0 c -0.01636,0 -0.02616,-0.01044 -0.03083,-0.03284 L 0.62477,0.36535 C 0.6221,0.35254 0.62273,0.34365 0.62669,0.33817 0.62986,0.33379 0.63504,0.33166 0.64251,0.33166 l 0.0511,0 c 0.01636,0 0.02616,0.01043 0.03084,0.03284 l 0.00919,0.04407 c 0.00267,0.01281 0.00204,0.0217 -0.00193,0.02718"
                                 style="fill:#b66611;fill-opacity:1;fill-rule:nonzero;stroke:none"
                                 id="path7086"
                                 inkscape:connector-curvature="0" />
                              <path
                                 d="M 0.84408,0.42075 C 0.8466,0.4328 0.84744,0.43457 0.85105,0.43912 l 0.0025,0.00314 -0.02787,0 9.9e-4,-0.00262 C 0.82834,0.4352 0.82843,0.43361 0.82592,0.4216 L 0.81356,0.36234 C 0.81179,0.35384 0.81165,0.35314 0.80283,0.35314 l -0.02735,0 c -0.00231,0 -0.00383,4.9e-4 -0.00453,0.00146 -7.9e-4,0.00108 -8.6e-4,0.00318 -2.3e-4,0.00624 L 0.7834,0.42158 c 0.00214,0.0103 0.00406,0.01398 0.00636,0.01773 l 0.00181,0.00295 -0.04501,0 4.5e-4,-0.00229 C 0.74772,0.43626 0.7481,0.43261 0.74597,0.42243 L 0.73441,0.36702 C 0.73164,0.35371 0.73231,0.34446 0.73646,0.33874 0.73991,0.33398 0.74562,0.33166 0.75391,0.33166 l 0.04523,0 c 0.01971,0 0.02818,0.00871 0.03356,0.03452 l 0.01138,0.05457"
                                 style="fill:#b66611;fill-opacity:1;fill-rule:nonzero;stroke:none"
                                 id="path7088"
                                 inkscape:connector-curvature="0" />
                              <path
                                 d="m 0.89253,0.42079 c 0.00237,0 0.01788,0 0.01788,0 0.00242,0 0.00284,-3.2e-4 0.0029,-4.2e-4 2e-5,-2e-5 1.1e-4,-1.7e-4 1.1e-4,-6.9e-4 0,-4.7e-4 -7e-5,-0.00127 -3.5e-4,-0.00258 L 0.91035,0.40407 C 0.90947,0.39984 0.90883,0.39954 0.9052,0.39954 c 0,0 -0.01369,0 -0.0171,0 7.4e-4,0.00357 0.00394,0.01889 0.00443,0.02125 z M 0.94879,0.43587 C 0.94564,0.44023 0.93985,0.44226 0.93057,0.44226 l -0.07603,0 0.00104,-0.00265 C 0.85703,0.43593 0.85736,0.43241 0.85527,0.42243 L 0.84066,0.35234 C 0.83853,0.34209 0.83659,0.33839 0.83429,0.33461 l -0.00181,-0.00295 0.04501,0 -4.4e-4,0.00229 c -3.2e-4,0.00163 -5.7e-4,0.00325 -5.7e-4,0.00542 0,0.00277 4.1e-4,0.00642 0.0016,0.01212 0,0 0.00435,0.02089 0.00554,0.02656 0.00174,0 0.00577,0 0.00761,0 4.2e-4,-0.00299 0.00653,-0.04639 0.00653,-0.04639 l 0.04256,0 L 0.93883,0.3345 C 0.93739,0.33726 0.93674,0.34091 0.93591,0.34554 l -8.8e-4,0.00477 c 0,0 -0.00417,0.02132 -0.00547,0.02795 0.0066,7.2e-4 0.01357,0.00273 0.01685,0.01846 l 0.00411,0.01971 c 7.2e-4,0.00347 0.00109,0.00653 0.00109,0.00922 0,0.00428 -9.3e-4,0.00762 -0.00282,0.01022"
                                 style="fill:#b66611;fill-opacity:1;fill-rule:nonzero;stroke:none"
                                 id="path7090"
                                 inkscape:connector-curvature="0" />
                              <g
                                 id="g7092">
                                <g
                                   id="g7094">
                                <g
                                   id="g7100">
                                <path
                                   d="M 0.13968,0.31407 C 0.13756,0.30389 0.13784,0.29989 0.13865,0.29571 l -0.03965,0 c 0.00255,0.00418 0.0045,0.00818 0.00662,0.01836 l 0.01462,0.07011 c 0.00212,0.01017 0.00184,0.01418 0.00104,0.01835 l 0.07733,0 L 0.19698,0.38201 C 0.19377,0.38334 0.19018,0.38484 0.18222,0.38484 l -0.02778,0 -0.00523,-0.02503 0.02429,0 c 0.00782,0 0.01205,0.0015 0.01595,0.00283 L 0.18458,0.33927 C 0.18123,0.34062 0.17763,0.34211 0.16982,0.34211 l -0.02429,0 -0.00585,-0.02804"
                                   style="fill:url(#linearGradient7102);stroke:none"
                                   id="path7110"
                                   inkscape:connector-curvature="0" />
                                </g>
                                </g>
                              </g>
                              <path
                                 d="M 0.19635,0.40026 C 0.1961,0.39706 0.19545,0.38885 0.19516,0.38514 0.19226,0.3862 0.18856,0.38712 0.18222,0.38712 l -0.02943,0 -0.00617,-0.02958 0.02688,0 c 0.00593,0 0.00989,8.4e-4 0.01314,0.00181 C 0.18568,0.3547 0.18376,0.34549 0.18308,0.34226 0.18008,0.34337 0.17634,0.34439 0.16982,0.34439 l -0.02594,0 L 0.13766,0.31458 C 0.13646,0.30878 0.13599,0.30483 0.13599,0.30159 c 0,-0.00133 2.2e-4,-0.00244 3.6e-4,-0.00361 -0.00368,0 -0.02798,0 -0.03366,0 0.00169,0.00334 0.0033,0.00768 0.00494,0.01558 l 0.01462,0.0701 c 0.00121,0.00581 0.00168,0.00977 0.00168,0.01301 0,0.00133 -2.2e-4,0.00243 -3.5e-4,0.00359 0.00419,0 0.06865,0 0.07277,0 z m 0.00226,0.00455 -0.07988,0 5.2e-4,-0.00274 C 0.11996,0.3984 0.12033,0.39479 0.11822,0.38469 0.11822,0.38468 0.1036,0.31458 0.1036,0.31458 0.10148,0.30441 0.099567,0.30073 0.097281,0.29697 l -0.002156,-0.00354 0.046075,0 -5.3e-4,0.00275 c -7.1e-4,0.00367 -0.00108,0.00728 0.00102,0.01738 0,0 0.00484,0.02318 0.00549,0.02628 0.00286,0 0.02264,0 0.02264,0 0.00732,0 0.01066,-0.00134 0.0139,-0.00264 L 0.18591,0.33631 0.1866,0.33876 0.19227,0.36598 0.18862,0.36473 C 0.18481,0.36344 0.18086,0.36209 0.1735,0.36209 c 0,0 -0.01755,0 -0.02169,0 8.5e-4,0.00404 0.00371,0.01779 0.00427,0.02048 0.00292,0 0.02614,0 0.02614,0 0.00755,0 0.01083,-0.00137 0.014,-0.00268 l 0.00255,-0.00106 2.7e-4,0.00298 0.00182,0.023 -0.00225,0"
                                 style="fill:#b66611;fill-opacity:1;fill-rule:nonzero;stroke:none"
                                 id="path7112"
                                 inkscape:connector-curvature="0" />
                              <g
                                 id="g7114">
                                <g
                                   id="g7116">
                                <g
                                   id="g7122">
                                <path
                                   d="m 0.1868,0.29571 c 0.00255,0.00418 0.0045,0.00818 0.00662,0.01836 l 0.01462,0.07011 c 0.00212,0.01017 0.00184,0.01418 0.00104,0.01835 l 0.03964,0 C 0.24617,0.39836 0.24422,0.39435 0.2421,0.38418 L 0.22748,0.31407 C 0.22536,0.30389 0.22564,0.29989 0.22645,0.29571 l -0.03965,0"
                                   style="fill:url(#linearGradient7124);stroke:none"
                                   id="path7132"
                                   inkscape:connector-curvature="0" />
                                </g>
                                </g>
                              </g>
                              <path
                                 d="M 0.24502,0.40026 C 0.24314,0.39654 0.24165,0.39217 0.24009,0.38468 L 0.22547,0.31458 C 0.22426,0.30878 0.22379,0.30482 0.22379,0.30158 c 0,-0.00133 2.2e-4,-0.00243 3.6e-4,-0.0036 -0.00368,0 -0.02798,0 -0.03366,0 0.00169,0.00334 0.0033,0.00768 0.00495,0.01558 l 0.01462,0.0701 c 0.00121,0.00581 0.00168,0.00977 0.00168,0.01301 0,0.00133 -2.2e-4,0.00243 -3.6e-4,0.00359 0.00367,0 0.02795,0 0.03364,0 z m 0.0037,0.00455 -0.04219,0 5.2e-4,-0.00274 C 0.20776,0.3984 0.20813,0.3948 0.20603,0.38468 L 0.19141,0.31458 C 0.18929,0.3044 0.18737,0.30072 0.18508,0.29698 l -0.00216,-0.00355 0.04608,0 -5.3e-4,0.00275 C 0.22776,0.29984 0.22739,0.30345 0.2295,0.31356 l 0.01462,0.0701 c 0.00212,0.0102 0.00404,0.01387 0.00632,0.01761 l 0.00216,0.00354 -0.00388,0"
                                 style="fill:#b66611;fill-opacity:1;fill-rule:nonzero;stroke:none"
                                 id="path7134"
                                 inkscape:connector-curvature="0" />
                              <g
                                 id="g7136">
                                <g
                                   id="g7138">
                                <g
                                   id="g7144">
                                <path
                                   d="m 0.2749,0.38418 -2.8e-4,0 L 0.26018,0.3149 C 0.25768,0.30289 0.25764,0.30072 0.25953,0.29571 l -0.0215,0 C 0.24201,0.30072 0.24288,0.30289 0.24539,0.3149 l 0.01427,0.06844 c 0.0025,0.01202 0.00253,0.01418 6.5e-4,0.01919 l 0.04788,0 0.01812,-0.08712 4.2e-4,0 0.01416,0.06793 c 0.00251,0.01202 0.00255,0.01418 6.6e-4,0.01919 l 0.02149,0 C 0.35907,0.39752 0.3582,0.39536 0.3557,0.38334 l -0.01828,-0.08763 -0.04411,0 -0.01841,0.08847"
                                   style="fill:url(#linearGradient7146);stroke:none"
                                   id="path7154"
                                   inkscape:connector-curvature="0" />
                                </g>
                                </g>
                              </g>
                              <path
                                 d="M 0.35878,0.40026 C 0.35661,0.39673 0.3556,0.39303 0.35368,0.38384 c 0,0 -0.01543,-0.07398 -0.0179,-0.08586 -0.00294,0 -0.03789,0 -0.04082,0 -7.1e-4,0.0034 -0.01804,0.0867 -0.01804,0.0867 l -0.00431,0 L 0.25817,0.31541 C 0.2568,0.30884 0.25614,0.305 0.25614,0.30201 c 0,-0.00146 2e-4,-0.00275 5.1e-4,-0.00403 -0.00334,0 -0.00979,0 -0.01435,0 0.00217,0.00353 0.00319,0.00723 0.0051,0.01641 L 0.26167,0.38283 C 0.26304,0.3894 0.2637,0.39322 0.2637,0.39621 c 0,0.00147 -2e-4,0.00276 -5.1e-4,0.00405 0.0049,0 0.04047,0 0.04335,0 7e-4,-0.00339 0.01812,-0.08713 0.01812,-0.08713 l 0.00372,0 0.01453,0.0697 c 0.00137,0.00657 0.00203,0.0104 0.00203,0.0134 0,0.00146 -2e-4,0.00274 -5.1e-4,0.00403 0.00333,0 0.00979,0 0.01435,0 z m 0.00426,0.00455 -0.02459,0 0.00119,-0.00315 c 7.5e-4,-0.00199 0.00118,-0.00341 0.00118,-0.00549 0,-0.00247 -6e-4,-0.00588 -0.00194,-0.01233 0,0 -0.00855,-0.041 -0.01236,-0.05925 C 0.3236,0.33864 0.30983,0.40481 0.30983,0.40481 l -0.05262,0 L 0.2584,0.40167 C 0.26004,0.3973 0.26012,0.39573 0.25764,0.38384 L 0.24337,0.31541 C 0.24086,0.30337 0.24009,0.30176 0.23648,0.2972 l -0.003,-0.00377 0.02914,0 -0.00118,0.00315 c -7.5e-4,0.00199 -0.00118,0.0034 -0.00118,0.00549 0,0.00247 5.9e-4,0.00588 0.00194,0.01232 0,0 0.00972,0.04663 0.01256,0.06027 0.00303,-0.01454 0.0169,-0.08123 0.0169,-0.08123 l 0.04741,0 0.01864,0.0894 C 0.36022,0.39487 0.36098,0.39648 0.3646,0.40104 l 0.00298,0.00377 -0.00454,0"
                                 style="fill:#b66611;fill-opacity:1;fill-rule:nonzero;stroke:none"
                                 id="path7156"
                                 inkscape:connector-curvature="0" />
                              <g
                                 id="g7158">
                                <g
                                   id="g7160">
                                <g
                                   id="g7166">
                                <path
                                   d="m 0.41605,0.34211 -0.00518,0.03606 -0.0212,-0.03606 0.02638,0 z M 0.379,0.32442 0.36994,0.30973 C 0.36868,0.30773 0.36781,0.30556 0.36736,0.30339 0.3666,0.29972 0.36667,0.29939 0.36771,0.29571 l -0.02527,0 C 0.34946,0.30389 0.35176,0.3069 0.35667,0.31507 l 0.04952,0.08146 -0.00266,0.006 0.04034,0 0.01261,-0.09214 C 0.45729,0.30489 0.459,0.29972 0.46124,0.29571 l -0.04481,0 c 0.00251,0.00401 0.00293,0.00468 0.00341,0.00701 5.3e-4,0.00252 7.7e-4,0.00568 4.2e-4,0.00802 l -0.00203,0.01368 -0.03923,0"
                                   style="fill:url(#linearGradient7168);stroke:none"
                                   id="path7176"
                                   inkscape:connector-curvature="0" />
                                </g>
                                </g>
                              </g>
                              <path
                                 d="M 0.44209,0.40026 C 0.4426,0.39655 0.45444,0.31006 0.45444,0.31006 0.45507,0.30572 0.45639,0.30167 0.45799,0.29798 c -0.00507,0 -0.0318,0 -0.03771,0 8.1e-4,0.00147 0.00123,0.00255 0.00158,0.00423 3.4e-4,0.00166 6.3e-4,0.0039 6.3e-4,0.00608 0,9.7e-4 -5e-5,0.00192 -1.9e-4,0.00281 l -0.00231,0.01559 -0.04209,0 L 0.36823,0.31101 C 0.36686,0.30884 0.36586,0.30637 0.36534,0.30391 0.36497,0.30211 0.36478,0.30097 0.36478,0.2999 c 0,-6.3e-4 9e-5,-0.00124 2.2e-4,-0.00192 -0.00342,0 -0.01239,0 -0.01782,0 0.0046,0.00552 0.00711,0.00901 0.01122,0.01584 l 0.05016,0.08252 c 0,0 -0.00113,0.00256 -0.00173,0.00392 0.0053,0 0.03229,0 0.03526,0 z m 0.00178,0.00455 -0.04365,0 c 0,0 0.00291,-0.00659 0.00359,-0.0081 C 0.40252,0.39459 0.35495,0.31634 0.35495,0.31634 0.35002,0.30813 0.34775,0.30521 0.34094,0.29727 l -0.00329,-0.00384 0.03288,0 -8.4e-4,0.00296 c -5.3e-4,0.00185 -7.7e-4,0.00269 -7.7e-4,0.00358 0,7.4e-4 1.6e-4,0.00151 4.5e-4,0.00292 4e-4,0.00191 0.00119,0.00383 0.00227,0.00555 10e-6,1e-5 0.00647,0.01048 0.00846,0.0137 0.00197,0 0.03326,0 0.03637,0 4.2e-4,-0.00282 0.00175,-0.01177 0.00175,-0.01177 9e-5,-6.1e-4 1.4e-4,-0.00133 1.4e-4,-0.0021 0,-0.00157 -1.8e-4,-0.00338 -5.3e-4,-0.00504 C 0.41744,0.30136 0.41724,0.30101 0.41473,0.29701 l -0.00222,-0.00357 0.00392,-10e-6 0.04851,0 L 0.463,0.2969 C 0.46086,0.30073 0.45927,0.30565 0.45852,0.31076 l -0.01287,0.09405 -0.00178,0"
                                 style="fill:#b66611;fill-opacity:1;fill-rule:nonzero;stroke:none"
                                 id="path7178"
                                 inkscape:connector-curvature="0" />
                              <path
                                 d="M 0.40967,0.37194 C 0.41075,0.36443 0.4131,0.34811 0.41364,0.34439 c -0.00336,0 -0.0152,0 -0.02017,0 0.00285,0.00484 0.01234,0.02098 0.0162,0.02755 z M 0.40913,0.3794 0.38587,0.33984 l 0.03261,0 L 0.41207,0.38439 0.40913,0.3794"
                                 style="fill:#b66611;fill-opacity:1;fill-rule:nonzero;stroke:none"
                                 id="path7180"
                                 inkscape:connector-curvature="0" />
                              <g
                                 id="g7182">
                                <g
                                   id="g7184">
                                <g
                                   id="g7190">
                                <path
                                   d="m 0.53389,0.31341 c 0.00391,0 0.01102,6.6e-4 0.01538,0.0035 l -0.00735,-0.0212 -0.07705,0 C 0.46741,0.29989 0.46936,0.30389 0.47149,0.31407 L 0.4861,0.38418 c 0.00212,0.01017 0.00185,0.01418 0.00104,0.01835 l 0.03965,0 C 0.52424,0.39836 0.52229,0.39435 0.52017,0.38418 l -0.01476,-0.07077 0.02848,0"
                                   style="fill:url(#linearGradient7192);stroke:none"
                                   id="path7200"
                                   inkscape:connector-curvature="0" />
                                </g>
                                </g>
                              </g>
                              <path
                                 d="M 0.52309,0.40026 C 0.52121,0.39653 0.51971,0.39216 0.51815,0.38468 l -0.01534,-0.07354 0.03108,0 c 0.00184,0 0.00699,1.6e-4 0.01175,0.00168 C 0.54381,0.30755 0.54116,0.29989 0.5405,0.29798 c -0.00262,0 -0.06537,0 -0.07194,0 0.00188,0.00373 0.00338,0.0081 0.00494,0.01558 l 0.01462,0.0701 c 0.00121,0.00582 0.00168,0.00978 0.00168,0.01302 0,0.00132 -2.2e-4,0.00242 -3.6e-4,0.00358 0.00368,0 0.02796,0 0.03365,0 z m 0.0037,0.00455 -0.0422,0 5.3e-4,-0.00275 C 0.48583,0.39841 0.4862,0.39481 0.48409,0.38468 L 0.46947,0.31458 C 0.46735,0.3044 0.46543,0.30072 0.46315,0.29697 l -0.00216,-0.00354 0.08235,0 0.00997,0.02876 -0.0051,-0.00332 C 0.54461,0.31652 0.53846,0.31569 0.53389,0.31569 c 0,0 -0.0216,0 -0.02589,0 0.00107,0.00513 0.01419,0.06797 0.01419,0.06797 0.00212,0.01018 0.00403,0.01386 0.00631,0.01761 l 0.00216,0.00354 -0.00387,0"
                                 style="fill:#b66611;fill-opacity:1;fill-rule:nonzero;stroke:none"
                                 id="path7202"
                                 inkscape:connector-curvature="0" />
                              <g
                                 id="g7204">
                                <g
                                   id="g7206">
                                <g
                                   id="g7212">
                                <path
                                   d="M 0.56592,0.36142 C 0.5638,0.35125 0.56409,0.34724 0.56488,0.34307 l -0.03964,0 c 0.00255,0.00417 0.0045,0.00818 0.00662,0.01835 l 0.01463,0.0701 C 0.5486,0.4417 0.54832,0.44571 0.54751,0.44988 l 0.07734,0 L 0.62322,0.42936 C 0.62001,0.43069 0.61642,0.43219 0.60846,0.43219 l -0.02778,0 -0.00522,-0.02502 0.0243,0 c 0.00781,0 0.01202,0.00149 0.01593,0.00282 L 0.61082,0.38662 C 0.60747,0.38796 0.60388,0.38946 0.59606,0.38946 l -0.02429,0 -0.00585,-0.02804"
                                   style="fill:url(#linearGradient7214);stroke:none"
                                   id="path7222"
                                   inkscape:connector-curvature="0" />
                                </g>
                                </g>
                              </g>
                              <path
                                 d="M 0.6226,0.44761 C 0.62234,0.44441 0.62169,0.4362 0.62139,0.43249 0.6185,0.43355 0.6148,0.43447 0.60846,0.43447 l -0.02943,0 -0.00617,-0.02958 0.0269,0 c 0.00591,0 0.00987,8.3e-4 0.01313,0.00181 C 0.61192,0.40205 0.61,0.39285 0.60932,0.38961 0.60632,0.39072 0.60259,0.39174 0.59606,0.39174 l -0.02594,0 L 0.56391,0.36193 C 0.5627,0.35614 0.56223,0.35218 0.56223,0.34893 c 0,-0.00132 2.2e-4,-0.00243 3.6e-4,-0.00359 -0.00367,0 -0.02796,0 -0.03365,0 0.00188,0.00373 0.00338,0.0081 0.00494,0.01557 L 0.5485,0.43102 c 0.00121,0.00581 0.00167,0.00976 0.00167,0.013 0,0.00133 -2.2e-4,0.00242 -3.6e-4,0.00359 0.0042,0 0.06866,0 0.07279,0 z m 0.00225,0.00455 -0.07989,0 5.3e-4,-0.00275 C 0.5462,0.44576 0.54657,0.44216 0.54447,0.43203 L 0.52985,0.36193 C 0.52773,0.35175 0.52581,0.34808 0.52352,0.34433 l -0.00215,-0.00354 0.04606,0 -5.2e-4,0.00274 c -3.1e-4,0.00161 -5.5e-4,0.00321 -5.5e-4,0.00535 0,0.00274 4e-4,0.00636 0.00158,0.01203 0,0 0.00483,0.02318 0.00547,0.02628 0.00287,0 0.02265,0 0.02265,0 0.00731,0 0.01065,-0.00134 0.01387,-0.00263 L 0.61213,0.38368 0.61284,0.38612 0.61851,0.41333 0.61485,0.41208 C 0.61104,0.41078 0.60711,0.40944 0.59976,0.40944 c 0,0 -0.01757,0 -0.02171,0 8.5e-4,0.00405 0.00372,0.01779 0.00428,0.02048 0.00291,0 0.02613,0 0.02613,0 0.00755,0 0.01082,-0.00136 0.01399,-0.00267 L 0.625,0.42618 l 2.8e-4,0.00297 0.00183,0.02301 -0.00226,0"
                                 style="fill:#b66611;fill-opacity:1;fill-rule:nonzero;stroke:none"
                                 id="path7224"
                                 inkscape:connector-curvature="0" />
                              <g
                                 id="g7226">
                                <g
                                   id="g7228">
                                <g
                                   id="g7234">
                                <path
                                   d="M 0.65111,0.3676 C 0.65003,0.36243 0.65191,0.36076 0.65638,0.36076 l 0.0148,0 c 0.00447,0 0.00704,0.00167 0.00813,0.00684 L 0.69135,0.42535 C 0.69243,0.43053 0.69053,0.43219 0.68607,0.43219 l -0.01479,0 c -0.00447,0 -0.00706,-0.00166 -0.00813,-0.00684 L 0.65111,0.3676 Z M 0.62765,0.41851 C 0.63246,0.44154 0.6423,0.44988 0.65681,0.44988 l 0.05109,0 c 0.01453,0 0.02089,-0.00834 0.01608,-0.03137 L 0.71479,0.37444 C 0.70998,0.35141 0.70015,0.34307 0.68563,0.34307 l -0.05109,0 c -0.01451,0 -0.02087,0.00834 -0.01607,0.03137 l 0.00918,0.04407"
                                   style="fill:url(#linearGradient7236);stroke:none"
                                   id="path7244"
                                   inkscape:connector-curvature="0" />
                                </g>
                                </g>
                              </g>
                              <path
                                 d="m 0.65681,0.44761 0.05109,0 C 0.71416,0.44761 0.71837,0.446 0.72077,0.44267 0.72393,0.43831 0.72433,0.43035 0.72196,0.41902 L 0.71277,0.37495 C 0.70849,0.35447 0.70013,0.34534 0.68563,0.34534 l -0.05109,0 c -0.00625,0 -0.01045,0.00161 -0.01286,0.00494 -0.00315,0.00436 -0.00356,0.01231 -0.0012,0.02366 l 0.00919,0.04406 0,0 c 0.00428,0.02048 0.01265,0.02961 0.02714,0.02961 z m 0,0.00455 c -0.01654,0 -0.02645,-0.01053 -0.03117,-0.03314 L 0.61645,0.37495 C 0.61376,0.36202 0.61441,0.35302 0.61845,0.34744 0.62169,0.34297 0.62695,0.34079 0.63454,0.34079 l 0.05109,0 c 0.01655,0 0.02645,0.01053 0.03117,0.03314 0,0 0.00919,0.04407 0.00919,0.04407 C 0.72869,0.43093 0.72804,0.43993 0.72401,0.4455 0.72076,0.44998 0.7155,0.45216 0.7079,0.45216 l -0.05109,0"
                                 style="fill:#b66611;fill-opacity:1;fill-rule:nonzero;stroke:none"
                                 id="path7246"
                                 inkscape:connector-curvature="0" />
                              <path
                                 d="m 0.65314,0.36383 c -3.5e-4,4.8e-4 -3.5e-4,0.00167 -2e-5,0.00326 l 0.01204,0.05775 c 8e-4,0.00385 0.00229,0.00508 0.00612,0.00508 l 0.01479,0 c 0.00231,0 0.00302,-5e-4 0.00324,-8e-4 3.4e-4,-4.8e-4 3.5e-4,-0.00167 2e-5,-0.00326 L 0.67729,0.36811 C 0.67649,0.36427 0.675,0.36303 0.67118,0.36303 l -0.0148,0 c -0.00231,0 -0.00302,5e-4 -0.00324,8e-4 z m 0.01814,0.07064 c -0.0057,0 -0.00892,-0.00274 -0.01015,-0.00861 l -0.01204,-0.05775 0,0 C 0.64844,0.36499 0.64871,0.36266 0.6499,0.361 0.65154,0.35875 0.65438,0.35849 0.65638,0.35849 l 0.0148,0 c 0.00577,0 0.0089,0.00265 0.01014,0.0086 0,0 0.01204,0.05775 0.01204,0.05775 6.5e-4,0.00313 3.8e-4,0.00546 -8.2e-4,0.00711 C 0.69091,0.43421 0.68806,0.43447 0.68607,0.43447 l -0.01479,0"
                                 style="fill:#b66611;fill-opacity:1;fill-rule:nonzero;stroke:none"
                                 id="path7248"
                                 inkscape:connector-curvature="0" />
                              <g
                                 id="g7250">
                                <g
                                   id="g7252">
                                <g
                                   id="g7258">
                                <path
                                   d="m 0.79485,0.36076 c 0.0095,0 0.01044,0.00116 0.01242,0.01068 l 0.01235,0.05925 c 0.00252,0.01201 0.00255,0.01419 6.6e-4,0.01919 l 0.0215,0 C 0.8378,0.44488 0.83693,0.4427 0.83442,0.43069 L 0.82304,0.3761 C 0.81797,0.35174 0.81057,0.34307 0.79117,0.34307 l -0.04523,0 c -0.01745,0 -0.02249,0.01068 -0.01782,0.03303 L 0.73967,0.43152 C 0.7418,0.4417 0.74152,0.44571 0.74071,0.44988 l 0.03965,0 C 0.77781,0.44571 0.77586,0.4417 0.77374,0.43152 L 0.76107,0.37077 C 0.7596,0.36376 0.76149,0.36076 0.76749,0.36076 l 0.02736,0"
                                   style="fill:url(#linearGradient7260);stroke:none"
                                   id="path7268"
                                   inkscape:connector-curvature="0" />
                                </g>
                                </g>
                              </g>
                              <path
                                 d="M 0.83752,0.44761 C 0.83535,0.44408 0.83433,0.44038 0.83241,0.4312 c 0,0 -0.01139,-0.05458 -0.01139,-0.05458 C 0.81604,0.35265 0.80906,0.34534 0.79117,0.34534 l -0.04523,0 c -0.00707,0 -0.01181,0.0018 -0.01449,0.00551 -0.00195,0.00268 -0.00292,0.00649 -0.00292,0.01152 0,0.00373 5.4e-4,0.00813 0.0016,0.01323 l 0.01155,0.05542 c 0.00122,0.00581 0.00169,0.00976 0.00169,0.013 0,0.00133 -2.2e-4,0.00243 -3.6e-4,0.00359 0.00367,0 0.02795,0 0.03365,0 C 0.77478,0.4439 0.77328,0.43953 0.77173,0.43203 L 0.75905,0.37129 C 0.7587,0.36961 0.75853,0.36812 0.75853,0.36681 c 0,-0.0022 4.8e-4,-0.00393 0.00148,-0.0053 C 0.76149,0.35948 0.76393,0.35849 0.76749,0.35849 l 0.02736,0 c 0.0103,0 0.01218,0.00162 0.01443,0.01243 l 0.01235,0.05926 c 0.00138,0.00658 0.00204,0.01041 0.00204,0.0134 0,0.00146 -1.9e-4,0.00274 -5.1e-4,0.00403 0.00334,0 0.0098,0 0.01436,0 z m 0.00426,0.00455 -0.02459,0 0.00118,-0.00314 C 0.82001,0.44465 0.8201,0.44309 0.8176,0.4312 L 0.80525,0.37194 C 0.8035,0.36354 0.80339,0.36303 0.79485,0.36303 l -0.02736,0 c -0.00219,0 -0.00362,4.5e-4 -0.00425,0.00132 -7.1e-4,9.8e-4 -7.6e-4,0.00302 -1.6e-4,0.00592 0,0 0.01268,0.06075 0.01268,0.06075 0.00212,0.01021 0.00404,0.01387 0.00631,0.01759 l 0.00217,0.00355 -0.04609,0 5.4e-4,-0.00275 C 0.7394,0.44575 0.73977,0.44215 0.73765,0.43204 0.73765,0.43203 0.7261,0.37662 0.7261,0.37662 0.7233,0.36319 0.72399,0.35384 0.72821,0.34802 0.73173,0.34315 0.73753,0.34079 0.74594,0.34079 l 0.04523,0 c 0.01992,0 0.02847,0.00878 0.03389,0.03481 l 0.01138,0.05458 c 0.00251,0.01203 0.00328,0.01364 0.0069,0.01821 l 0.00298,0.00377 -0.00454,0"
                                 style="fill:#b66611;fill-opacity:1;fill-rule:nonzero;stroke:none"
                                 id="path7270"
                                 inkscape:connector-curvature="0" />
                              <g
                                 id="g7272">
                                <g
                                   id="g7274">
                                <g
                                   id="g7280">
                                <path
                                   d="m 0.87796,0.40717 0.01926,0 c 0.00433,0 0.00576,8.3e-4 0.00684,0.006 l 0.00271,0.01302 c 0.00108,0.00517 0,0.006 -0.00433,0.006 l -0.01926,0 L 0.87796,0.40717 Z M 0.87427,0.38946 0.86841,0.36142 C 0.8663,0.35125 0.86658,0.34724 0.86739,0.34307 l -0.03965,0 c 0.00254,0.00417 0.0045,0.00818 0.00662,0.01835 l 0.01462,0.0701 c 0.00212,0.01018 0.00184,0.01419 2e-4,0.01836 l 0.07342,0 c 0.01563,0 0.022,-0.00567 0.01826,-0.02353 L 0.93676,0.40666 C 0.93349,0.39096 0.92689,0.39013 0.91949,0.38946 L 0.92537,0.35943 C 0.92673,0.35259 0.92727,0.34707 0.92936,0.34307 l -0.03811,0 -0.00651,0.04639 -0.01047,0"
                                   style="fill:url(#linearGradient7282);stroke:none"
                                   id="path7290"
                                   inkscape:connector-curvature="0" />
                                </g>
                                </g>
                              </g>
                              <path
                                 d="m 0.9226,0.44761 c 0.00803,0 0.01287,-0.00153 0.01525,-0.00482 0.00132,-0.00182 0.00198,-0.00437 0.00198,-0.00769 0,-0.00235 -3.3e-4,-0.00509 -9.9e-4,-0.00824 0,0 -0.0041,-0.01969 -0.0041,-0.01969 C 0.93176,0.39285 0.92627,0.39235 0.91932,0.39173 L 0.91697,0.39152 0.92335,0.35895 c 10e-6,-1e-5 8.7e-4,-0.00471 8.7e-4,-0.00471 6e-4,-0.00334 0.00126,-0.00624 0.00213,-0.0089 -0.00486,0 -0.03037,0 -0.03333,0 -4.9e-4,0.00354 -0.00652,0.0464 -0.00652,0.0464 l -0.01388,0 L 0.8664,0.36193 C 0.8652,0.35614 0.86473,0.35219 0.86473,0.34896 c 0,-0.00134 2.2e-4,-0.00245 3.6e-4,-0.00362 -0.00368,0 -0.02798,0 -0.03366,0 0.00169,0.00335 0.00331,0.00769 0.00495,0.01557 l 0.01461,0.07011 c 0.00105,0.005 0.00157,0.0087 0.00157,0.01179 0,0.00176 -2.2e-4,0.0033 -5.6e-4,0.0048 0.00523,0 0.0706,0 0.0706,0 z m -0.07342,0.00455 -0.00315,0 0.00125,-0.00318 C 0.8487,0.44535 0.84902,0.44189 0.84696,0.43203 L 0.83235,0.36193 C 0.83023,0.35179 0.82831,0.3481 0.82602,0.34433 l -0.00215,-0.00354 0.04607,0 -5.3e-4,0.00275 c -3.1e-4,0.00161 -5.6e-4,0.00321 -5.6e-4,0.00536 0,0.00273 4e-4,0.00636 0.00158,0.01201 0,0 0.00423,0.02028 0.00549,0.02628 0.00186,0 0.00506,0 0.00705,0 4.9e-4,-0.00354 0.00651,-0.0464 0.00651,-0.0464 l 0.04346,0 L 0.93115,0.3442 C 0.92974,0.34691 0.92909,0.35052 0.92828,0.35511 l -8.9e-4,0.0048 c 0,0 -0.00456,0.02331 -0.00539,0.02752 0.0066,7.7e-4 0.0135,0.00303 0.01678,0.01872 l 0.00409,0.0197 c 7.4e-4,0.00351 0.00111,0.00659 0.00111,0.00931 0,0.00438 -9.6e-4,0.00779 -0.00289,0.01047 C 0.93786,0.45009 0.93198,0.45216 0.9226,0.45216 l -0.07342,0"
                                 style="fill:#b66611;fill-opacity:1;fill-rule:nonzero;stroke:none"
                                 id="path7292"
                                 inkscape:connector-curvature="0" />
                              <path
                                 d="m 0.90244,0.42992 c 0.00194,0 0.00245,-2e-4 0.00261,-3e-4 10e-6,-5e-5 5e-5,-1.3e-4 5e-5,-4.3e-4 0,-4.3e-4 -7e-5,-0.00119 -3.4e-4,-0.00249 0,0 -0.00272,-0.01302 -0.00272,-0.01302 C 0.90121,0.40967 0.90071,0.40944 0.89722,0.40944 c 0,0 -0.01278,0 -0.01667,0 8.4e-4,0.00405 0.00371,0.01779 0.00428,0.02048 0.00275,0 0.01761,0 0.01761,0 z m -0.01926,0.00455 -0.00165,0 -0.00617,-0.02958 0.02186,0 c 0.00491,0 0.00748,0.00116 0.00886,0.00776 l 0.00271,0.01303 c 5.2e-4,0.00247 8.1e-4,0.005 -4.9e-4,0.0068 C 0.90698,0.43431 0.90468,0.43447 0.90244,0.43447 l -0.01926,0"
                                 style="fill:#b66611;fill-opacity:1;fill-rule:nonzero;stroke:none"
                                 id="path7294"
                                 inkscape:connector-curvature="0" />
                              <path
                                 d="M 0.13294,0.41496 0.13162,0.44766 C 0.13147,0.45249 0.13108,0.45381 0.13037,0.45513 l 0.01926,0 C 0.14865,0.45387 0.14818,0.45293 0.14789,0.45205 0.14748,0.4508 0.14732,0.44954 0.14736,0.44766 l 5.4e-4,-0.02404 1.6e-4,0 0.021,0.03151 0.01213,0 6.5e-4,-0.03151 1.6e-4,0 0.01574,0.02391 c 8.4e-4,0.00132 0.00209,0.00339 0.00254,0.00477 3.9e-4,0.0012 5.3e-4,0.00213 3.5e-4,0.00283 l 0.01065,0 C 0.20811,0.45268 0.20641,0.45023 0.20477,0.44772 l -0.0219,-0.03276 -0.01558,0 -8.2e-4,0.02617 -1.6e-4,0 -0.01746,-0.02617 -0.01591,0"
                                 style="fill:#ffd49a;fill-opacity:1;fill-rule:nonzero;stroke:none"
                                 id="path7296"
                                 inkscape:connector-curvature="0" />
                              <path
                                 d="m 0.23043,0.44998 c -0.00205,0 -0.00303,-5e-4 -0.00338,-0.00157 L 0.21834,0.42168 C 0.21799,0.42061 0.21865,0.42011 0.2207,0.42011 l 0.01558,0 c 0.00205,0 0.00303,5e-4 0.00338,0.00157 l 0.00871,0.02673 c 3.4e-4,0.00107 -3.1e-4,0.00157 -0.00236,0.00157 l -0.01558,0 z m 0.02594,0.00515 c 0.00574,0 0.0088,-0.00245 0.00722,-0.00728 L 0.25526,0.42224 C 0.25368,0.41741 0.24903,0.41496 0.24329,0.41496 l -0.03296,0 c -0.00573,0 -0.00879,0.00245 -0.00722,0.00728 l 0.00834,0.02561 c 0.00158,0.00483 0.00623,0.00728 0.01197,0.00728 l 0.03295,0"
                                 style="fill:#ffd49a;fill-opacity:1;fill-rule:nonzero;stroke:none"
                                 id="path7298"
                                 inkscape:connector-curvature="0" />
                              <path
                                 d="m 0.29909,0.42594 0.02475,0.02919 0.0196,0 C 0.342,0.45324 0.34129,0.45155 0.3407,0.44973 L 0.33113,0.42036 C 0.33054,0.41854 0.33015,0.41685 0.33035,0.41496 l -0.01688,0 c 0.00143,0.00189 0.00215,0.00358 0.00274,0.0054 l 0.00944,0.02899 -1.6e-4,0 -0.02916,-0.03439 -0.01065,0 -0.00643,0.03439 -1.6e-4,0 L 0.26964,0.42036 C 0.26905,0.41854 0.26866,0.41685 0.26887,0.41496 l -0.00902,0 C 0.26128,0.41685 0.262,0.41854 0.26259,0.42036 l 0.00957,0.02937 c 5.9e-4,0.00182 9.8e-4,0.00351 7.7e-4,0.0054 l 0.02066,0 0.0055,-0.02919"
                                 style="fill:#ffd49a;fill-opacity:1;fill-rule:nonzero;stroke:none"
                                 id="path7300"
                                 inkscape:connector-curvature="0" />
                              <path
                                 d="m 0.33609,0.41496 c 0.00144,0.00189 0.00215,0.00358 0.00274,0.0054 L 0.3484,0.44973 c 6e-4,0.00182 9.8e-4,0.00351 7.8e-4,0.0054 l 0.04303,0 -6.7e-4,-0.00609 c -0.00219,8.2e-4 -0.00551,9.4e-4 -0.0078,9.4e-4 l -0.01984,0 -0.00397,-0.01217 0.0173,0 c 0.00229,0 0.0057,1.2e-4 0.00842,9.4e-4 L 0.38336,0.43172 c -0.00219,8.2e-4 -0.00551,9.4e-4 -0.00781,9.4e-4 l -0.0173,0 -0.00409,-0.01255 0.01985,0 c 0.00229,0 0.00569,1.3e-4 0.00842,9.4e-4 l -0.00329,-0.00609 -0.04305,0"
                                 style="fill:#ffd49a;fill-opacity:1;fill-rule:nonzero;stroke:none"
                                 id="path7302"
                                 inkscape:connector-curvature="0" />
                              <path
                                 d="m 0.42094,0.41496 -0.0163,0.03251 -1.6e-4,0 L 0.39565,0.42036 C 0.39506,0.41854 0.39467,0.41685 0.39487,0.41496 l -0.00901,0 c 0.00143,0.00189 0.00215,0.00358 0.00274,0.0054 l 0.00957,0.02937 c 5.9e-4,0.00182 9.8e-4,0.00351 7.7e-4,0.0054 l 0.01926,0 0.01602,-0.03188 1.6e-4,0 0.00863,0.02648 c 5.9e-4,0.00182 9.8e-4,0.00351 7.7e-4,0.0054 l 0.00902,0 C 0.45137,0.45324 0.45065,0.45155 0.45006,0.44973 l -0.01132,-0.03477 -0.0178,0"
                                 style="fill:#ffd49a;fill-opacity:1;fill-rule:nonzero;stroke:none"
                                 id="path7304"
                                 inkscape:connector-curvature="0" />
                              <path
                                 d="m 0.45872,0.44132 0.00532,0.00552 -0.00607,0 0.0027,0.00829 0.01541,0 -0.00257,-0.00791 -0.00873,-0.0059 -0.00606,0"
                                 style="fill:#ffd49a;fill-opacity:1;fill-rule:nonzero;stroke:none"
                                 id="path7306"
                                 inkscape:connector-curvature="0" />
                              <path
                                 d="M 0.5214,0.42312 C 0.51959,0.41754 0.51506,0.41496 0.50826,0.41496 l -0.03575,0 6.7e-4,0.00609 c 0.0022,-8.1e-4 0.00552,-9.4e-4 0.00781,-9.4e-4 l 0.02157,0 c 0.0022,0 0.00313,5.6e-4 0.00372,0.00238 L 0.508,0.42777 c 5.9e-4,0.00181 4e-5,0.00238 -0.00218,0.00238 l -0.01959,0 c -0.0068,0 -0.00965,0.00257 -0.00784,0.00816 l 0.00282,0.00866 c 0.00182,0.00558 0.00635,0.00816 0.01316,0.00816 l 0.03582,0 -6.7e-4,-0.00609 c -0.00219,8.2e-4 -0.00551,9.4e-4 -0.00781,9.4e-4 l -0.02165,0 c -0.0022,0 -0.00313,-5.7e-4 -0.00372,-0.00239 L 0.49507,0.4437 C 0.49448,0.44189 0.49503,0.44132 0.49725,0.44132 l 0.01959,0 c 0.00681,0 0.00966,-0.00257 0.00784,-0.00816 L 0.5214,0.42312"
                                 style="fill:#ffd49a;fill-opacity:1;fill-rule:nonzero;stroke:none"
                                 id="path7308"
                                 inkscape:connector-curvature="0" />
                              <path
                                 d="m 0.47382,0.47066 -0.00649,0.10422 -0.05189,0 -0.00613,-0.02382 c 0,0 0.00795,0 0.00806,0 L 0.39174,0.50637 0.38815,0.57488 0.3355,0.57488 0.32952,0.55118 0.33754,0.55106 0.30316,0.4937 0.27485,0.49381 c -0.00297,0 -0.01439,0.00303 -0.01439,0.0186 0,0.0156 0.01348,0.03824 0.0272,0.03824 L 0.2934,0.5505 C 0.29244,0.54666 0.29042,0.53868 0.29042,0.53868 l 0.02521,0 0.00905,0.0362 -0.03897,1.5e-4 C 0.26297,0.57527 0.24218,0.55594 0.23599,0.53632 l 0.01013,0.03855 -0.03459,10e-6 -0.0061,-0.02382 0.00895,5e-5 -0.00901,-0.03486 -0.02259,0.0585 -0.03236,0 -0.00609,-0.02369 0.00888,0 -0.02006,-0.08036 0.02589,0 c 0,0 0.00996,0.03982 0.01252,0.05007 C 0.17521,0.51109 0.19039,0.4707 0.19039,0.4707 l 0.0288,1e-5 0.01317,0.05103 C 0.2312,0.51415 0.23114,0.50619 0.23236,0.49833 0.23489,0.48161 0.24967,0.4707 0.26583,0.4707 l 0.05227,0 0.00897,0.01494 0.03686,0 7.6e-4,-0.01478 0.03269,0 0.00832,0.01478 0.0377,0 0.00148,-0.01494 0.02894,-4e-5 z m -0.05167,0.0403 0.02002,0.03334 0.001,-0.03334 -0.02102,0 z m -0.08022,-4.5e-4 0.02003,0.03346 0.00108,-0.03346 -0.02111,0"
                                 style="fill:#ffffff;fill-opacity:1;fill-rule:nonzero;stroke:none"
                                 id="path7310"
                                 inkscape:connector-curvature="0" />
                              <path
                                 d="m 0.48886,0.48406 0,0.00473 0.00287,0 c 0.00146,0 0.00301,-3.4e-4 0.00301,-0.00224 0,-0.00234 -0.0016,-0.00249 -0.00337,-0.00249 l -0.00251,0 z m 0,-0.00196 0.00241,0 0.00366,-0.00662 0.00236,0 -0.00394,0.00673 c 0.00204,2.9e-4 0.00359,0.00148 0.00359,0.0042 0,0.00302 -0.00163,0.00434 -0.0049,0.00434 l -0.00527,0 0,-0.01527 0.00209,0 0,0.00662 z M 0.4914,0.46989 c 0.00656,0 0.01215,0.00559 0.01215,0.01326 0,0.0076 -0.00559,0.0132 -0.01215,0.0132 -0.00664,0 -0.01221,-0.0056 -0.01221,-0.0132 0,-0.00767 0.00557,-0.01326 0.01221,-0.01326 z M 0.4816,0.48315 c 0,0.00628 0.0043,0.011 0.0098,0.011 0.00545,0 0.00973,-0.00472 0.00973,-0.011 0,-0.00636 -0.00428,-0.01105 -0.00973,-0.01105 -0.0055,0 -0.0098,0.00469 -0.0098,0.01105"
                                 style="fill:#ffffff;fill-opacity:1;fill-rule:nonzero;stroke:none"
                                 id="path7312"
                                 inkscape:connector-curvature="0" />
                              <path
                                 d="M 0.074561,0.5505 C 0.077237,0.56721 0.08819,0.57525 0.10312,0.57525 0.11523,0.57525 0.1263,0.56971 0.12569,0.55577 0.1249,0.53765 0.10477,0.53389 0.09169,0.52773 l -5e-6,-1.8e-4 0.028975,0 -0.00384,-0.01519 -0.052304,0 C 0.067812,0.53148 0.080837,0.53622 0.094458,0.54274 0.10358,0.54711 0.1079,0.54908 0.10815,0.55488 0.10828,0.55765 0.10648,0.56113 0.10136,0.56113 c -0.006625,0 -0.010116,-0.005 -0.010362,-0.01063 l -0.016437,0"
                                 style="fill:#ffd49a;fill-opacity:1;fill-rule:nonzero;stroke:none"
                                 id="path7314"
                                 inkscape:connector-curvature="0" />
                              <path
                                 d="m 0.077804,0.45052 c 0.007775,0 0.01432,0.01244 0.014982,0.02779 C 0.093044,0.48403 0.090331,0.48679 0.086088,0.48679 0.07443,0.48679 0.071111,0.46536 0.070895,0.46035 0.070708,0.45598 0.071611,0.45052 0.077804,0.45052 Z m 0.00906,0.04994 c 0.013786,0 0.022866,-0.00858 0.022176,-0.02447 -5e-4,-0.01134 -0.00718,-0.03912 -0.032805,-0.03912 -0.011306,0 -0.022413,0.00678 -0.021659,0.02411 0.001049,0.02412 0.016555,0.03948 0.032288,0.03948"
                                 style="fill:#ffd49a;fill-opacity:1;fill-rule:nonzero;stroke:none"
                                 id="path7316"
                                 inkscape:connector-curvature="0" />
                              <path
                                 d="m 0.061155,0.37575 c 0.007772,0 0.014318,0.01241 0.014991,0.02778 2.46e-4,0.0057 -0.002462,0.00848 -0.006697,0.00848 -0.01167,0 -0.014986,-0.02145 -0.015207,-0.02645 -1.83e-4,-0.00437 7.26e-4,-0.00981 0.006913,-0.00981 z m 0.009061,0.04992 c 0.013786,0 0.022871,-0.00858 0.022177,-0.02448 C 0.091897,0.38985 0.085207,0.36207 0.059589,0.36207 c -0.011309,0 -0.022416,0.00679 -0.021662,0.02412 0.001047,0.02412 0.016565,0.03948 0.032289,0.03948"
                                 style="fill:#ffd49a;fill-opacity:1;fill-rule:nonzero;stroke:none"
                                 id="path7318"
                                 inkscape:connector-curvature="0" />
                              <path
                                 d="m 0.073312,0.33498 -0.02739,0 -0.002975,-0.00813 1.77e-4,0 c 0.002187,0.00224 0.006722,0.0034 0.011575,0.0034 0.010607,0 0.018088,-0.00697 0.017775,-0.01777 -2.39e-4,-0.00841 -0.005146,-0.02521 -0.02917,-0.02521 -0.018821,0 -0.024886,0.01046 -0.02389,0.02029 l 0.016787,0 C 0.036397,0.30524 0.037407,0.30362 0.038974,0.30274 0.040535,0.30175 0.042558,0.3014 0.044684,0.3014 c 0.007152,0 0.010799,0.00375 0.010948,0.00901 1.63e-4,0.00556 -0.003392,0.00798 -0.008168,0.00798 -0.003088,0 -0.007167,-6.4e-4 -0.008863,-0.00404 l -0.015901,0 0.012612,0.03582 0.041615,0 -0.003615,-0.01519"
                                 style="fill:#ffd49a;fill-opacity:1;fill-rule:nonzero;stroke:none"
                                 id="path7320"
                                 inkscape:connector-curvature="0" />
                            </g>
                          </g>
                        </g>
                      </g>
                    </g>
                  </g>
                </g>
              </g>
            </g>
          </g>
        </g>
      </g>
    </g>
  </g>
</svg>
