<?xml version="1.0" encoding="UTF-8" standalone="no"?>
<svg
   xmlns:dc="http://purl.org/dc/elements/1.1/"
   xmlns:cc="http://creativecommons.org/ns#"
   xmlns:rdf="http://www.w3.org/1999/02/22-rdf-syntax-ns#"
   xmlns:svg="http://www.w3.org/2000/svg"
   xmlns="http://www.w3.org/2000/svg"
   viewBox="0 0 724.23999 698.96002"
   height="698.96002"
   width="724.23999"
   xml:space="preserve"
   id="svg2"
   version="1.1"><metadata
     id="metadata8"><rdf:RDF><cc:Work
         rdf:about=""><dc:format>image/svg+xml</dc:format><dc:type
           rdf:resource="http://purl.org/dc/dcmitype/StillImage" /></cc:Work></rdf:RDF></metadata><defs
     id="defs6" /><g
     transform="matrix(1.3333333,0,0,-1.3333333,0,698.96)"
     id="g10"><g
       transform="scale(0.1)"
       id="g12"><path
         id="path14"
         style="fill:#756d4f;fill-opacity:1;fill-rule:nonzero;stroke:none"
         d="m 2689.53,913.172 c -145.23,6.5 -271.84,66.699 -347.66,155.308 -55.26,-117.98 -66.31,-247.121 64.37,-371.308 l -0.09,-0.09 c 79.01,-61.953 176.93,-100.832 283.77,-106.262 -0.2,7.762 -0.39,16.481 -0.39,26.66 v 295.692" /><path
         id="path16"
         style="fill:#756d4f;fill-opacity:1;fill-rule:nonzero;stroke:none"
         d="m 3025.64,697.141 c 130.69,124.289 119.54,253.328 64.28,371.309 C 3014.2,979.84 2887.49,919.73 2742.27,913.141 V 617.449 c 0,-10.078 -0.1,-18.898 -0.39,-26.66 106.83,5.43 204.75,44.402 283.76,106.352" /><path
         id="path18"
         style="fill:#756d4f;fill-opacity:1;fill-rule:nonzero;stroke:none"
         d="m 3125.31,1118.3 c 34.51,-65.34 59.33,-135.628 58.94,-208.05 22.11,56.621 34.42,118.18 34.42,182.65 0,32.87 -3.3,64.96 -9.31,96.08 -8.63,30.25 -24.04,59.14 -45.27,85.8 0.29,-4.66 0.48,-9.31 0.48,-13.96 0,-50.8 -14.06,-98.99 -39.26,-142.52" /><path
         id="path20"
         style="fill:#756d4f;fill-opacity:1;fill-rule:nonzero;stroke:none"
         d="m 2267.24,1260.77 c 0,4.65 0.2,9.31 0.49,13.96 -21.23,-26.76 -36.65,-55.65 -45.28,-86.09 -6.01,-31.02 -9.21,-63.02 -9.21,-95.79 0,-64.46 12.22,-126.03 34.32,-182.639 -0.29,72.418 24.43,142.699 58.95,208.049 -25.11,43.52 -39.27,91.71 -39.27,142.51" /><path
         id="path22"
         style="fill:#b1a871;fill-opacity:1;fill-rule:nonzero;stroke:none"
         d="m 2552.84,1489.09 c 43.53,9.02 89.39,14.44 136.69,15.9 v 89.87 c -73.19,-3.78 -142.22,-23.37 -203.88,-55.16 33.74,-5.92 55.17,-27.73 67.19,-50.61" /><path
         id="path24"
         style="fill:#b1a871;fill-opacity:1;fill-rule:nonzero;stroke:none"
         d="m 2742.29,1505.02 c 47.3,-1.46 93.16,-6.98 136.69,-15.9 12.02,22.78 33.45,44.69 67.19,50.6 -61.66,31.8 -130.69,51.39 -203.88,55.17 v -89.87" /><path
         id="path26"
         style="fill:#b1a871;fill-opacity:1;fill-rule:nonzero;stroke:none"
         d="m 2951.68,1493.67 c -8.24,-3.69 -15.61,-9.12 -21.23,-17.07 74.26,-20.84 140.38,-52.25 194.28,-91.32 -28.98,40.42 -63.79,76.39 -103.34,106.74 -24.43,9.69 -51.77,9.5 -69.71,1.65" /><path
         id="path28"
         style="fill:#b1a871;fill-opacity:1;fill-rule:nonzero;stroke:none"
         d="m 2307.06,1385.2 c 53.9,39.07 120.02,70.48 194.38,91.42 -5.62,7.95 -13.09,13.38 -21.23,17.06 -18.04,7.86 -45.37,8.05 -69.9,-1.74 -39.46,-30.25 -74.26,-66.31 -103.25,-106.74" /><path
         id="path30"
         style="fill:#b1a871;fill-opacity:1;fill-rule:nonzero;stroke:none"
         d="m 2306.55,1118.28 c 35.57,67.19 81.43,129.14 120.99,182.75 34.41,46.63 69.9,87.06 80.66,120.89 -104.03,-30.24 -189.15,-82.4 -240.53,-147.16 -0.2,-4.66 -0.39,-9.31 -0.39,-13.96 0,-50.8 14.06,-98.99 39.27,-142.52" /><path
         id="path32"
         style="fill:#b1a871;fill-opacity:1;fill-rule:nonzero;stroke:none"
         d="m 2689.53,913.172 v 537.088 c -43.34,-1.45 -85.22,-6.49 -124.97,-14.44 -4.17,-48.09 -41.69,-96.18 -94.04,-166.95 -44.5,-60.2 -94.81,-128.26 -128.65,-200.39 75.82,-88.609 202.43,-148.808 347.66,-155.308" /><path
         id="path34"
         style="fill:#b1a871;fill-opacity:1;fill-rule:nonzero;stroke:none"
         d="m 3089.96,1068.5 c -33.84,72.13 -84.05,140.19 -128.55,200.39 -52.36,70.77 -89.87,118.86 -94.14,166.95 -39.75,7.95 -81.63,12.99 -124.97,14.34 V 913.191 c 145.23,6.5 271.85,66.7 347.66,155.309" /><path
         id="path36"
         style="fill:#b1a871;fill-opacity:1;fill-rule:nonzero;stroke:none"
         d="m 3125.31,1118.3 c 25.2,43.53 39.26,91.72 39.26,142.52 0,4.65 -0.19,9.3 -0.48,13.96 -51.29,64.76 -136.31,116.92 -240.44,147.16 10.86,-33.83 46.25,-74.26 80.67,-120.89 39.55,-53.61 85.41,-115.56 120.99,-182.75" /><path
         id="path38"
         style="fill:#ffffff;fill-opacity:1;fill-rule:nonzero;stroke:none"
         d="m 3118.38,4334.8 v 0 h -55.74 l 30.73,46.63 22.2,33.64 z m -268.35,-1.16 53.23,80.66 2.71,-80.66 z m 194.87,155.02 -4.66,-16.2 -11.63,-41.1 h 21.33 l -25.11,-39.84 -42.75,-67.87 -9.51,165.01 h -139.6 l -15.71,-57.01 21.23,-0.29 -91.13,-138.25 -74.94,0.3 c -7.94,0 -38.19,7.27 -38.19,44.88 v 0.1 c 0,12.99 4.36,28.11 11.53,42.27 13.48,26.56 36.84,49.73 60.5,49.73 l 14.93,-0.29 0.39,-0.1 c -0.88,-3.1 -2.14,-7.46 -3.3,-11.73 -2.33,-8.34 -4.65,-16.67 -4.65,-16.67 h 66.79 l 23.95,87.06 -102.57,0.38 h -0.29 c -9.02,0 -17.74,-0.97 -26.27,-2.71 -15.71,-3.1 -30.25,-9.12 -43.44,-16.87 -23.85,-14.06 -42.85,-34.22 -54.58,-56.13 -3.1,-5.72 -5.72,-11.63 -7.75,-17.55 l 26.56,92.59 -91.42,0.29 -16.1,-57.3 23.66,0.1 -23.85,-83.96 -59.91,140.87 h -85.8 l -16,-57.01 h 23.56 l -53.13,-193.6 h 68.54 c 0,0 0.59,2.32 1.75,6.39 0.39,1.65 0.97,3.49 1.55,5.63 1.46,5.33 3.3,12.21 5.43,19.87 8.34,30.25 20.17,73.39 24.33,88.81 h 0.1 c 9.02,-21.91 44.98,-108.78 49.44,-119.64 0.3,-0.68 0.49,-1.06 0.49,-1.06 l 76.2,0.09 34.9,122.93 c -1.45,-9.21 -2.33,-18.51 -2.33,-28.02 0,-9.4 0.78,-18.9 2.33,-28.4 0.97,-5.72 2.62,-11.15 4.85,-16.29 13.09,-30.93 47.11,-50.31 83.86,-50.31 h 138.44 l 23.85,36.06 h 97.62 l 1.94,-35.58 H 2997 l 22.01,35.58 h 99.86 l 3.97,-36.06 h 61.27 0.1 l 13.48,27.43 -15.42,223.47 H 3044.9" /><path
         id="path40"
         style="fill:#2c5fad;fill-opacity:1;fill-rule:nonzero;stroke:none"
         d="m 3184.13,4237.77 h -61.27 l -3.97,36.06 h -99.86 l -22.01,-35.58 h -86.67 l -1.94,35.58 h -97.62 -0.1 l -23.75,-36.06 H 2648.5 c -36.75,0 -70.77,19.39 -83.96,50.31 -2.13,5.14 -3.78,10.57 -4.75,16.29 -1.55,9.4 -2.33,19 -2.33,28.4 0,9.5 0.78,18.81 2.33,28.02 l -34.9,-122.93 -76.2,-0.09 c 0,0 -0.2,0.38 -0.49,1.06 -4.46,10.76 -40.43,97.72 -49.54,119.63 -4.26,-15.51 -16.09,-58.55 -24.33,-88.8 -2.13,-7.66 -3.98,-14.54 -5.43,-19.87 -0.58,-2.14 -1.16,-3.98 -1.55,-5.63 -1.16,-4.07 -1.75,-6.39 -1.75,-6.39 h -68.54 l 53.13,193.6 h -23.66 l 16.1,57.01 h 85.8 l 59.91,-140.97 23.75,84.05 -23.65,-0.09 16.19,57.39 91.42,-0.38 -26.57,-92.59 c 2.04,5.91 4.66,11.83 7.76,17.55 11.73,21.91 30.73,42.07 54.58,56.13 13.19,7.76 27.73,13.77 43.43,16.87 8.44,1.74 17.16,2.71 26.18,2.71 h 0.1 0.29 l 102.57,-0.29 v -0.09 l -24.04,-87.06 h -66.71 c 0,0 2.33,8.34 4.66,16.67 1.16,4.27 2.33,8.63 3.2,11.73 h -0.29 l -14.93,0.39 c -23.75,0 -47.02,-23.17 -60.5,-49.73 -7.17,-14.16 -11.54,-29.28 -11.54,-42.37 0,-37.62 30.16,-44.89 38.2,-44.89 l 74.94,-0.28 91.04,138.24 -21.23,0.29 15.8,57.1 h 139.51 l 9.59,-165 42.76,67.76 25.11,39.85 h -21.33 l 11.63,41.11 4.56,16.28 h 137.47 l 15.41,-223.56 c 30.45,66.99 47.61,141.45 47.61,219.88 0,145.42 -58.56,277.17 -153.47,372.96 -96.08,97.04 -229.28,157.15 -376.64,157.15 -292.69,0 -529.92,-237.33 -529.92,-530.11 0,-147.26 60.11,-280.47 157.06,-376.55 95.78,-94.81 227.44,-153.37 372.86,-153.37 203.49,0 380.13,114.5 468.93,282.61" /><path
         id="path42"
         style="fill:#2c5fad;fill-opacity:1;fill-rule:nonzero;stroke:none"
         d="M 2850.06,4333.69 H 2906 l -2.81,80.56 z" /><path
         id="path44"
         style="fill:#2c5fad;fill-opacity:1;fill-rule:nonzero;stroke:none"
         d="m 3115.59,4415.09 -22.2,-33.75 -30.73,-46.53 h 55.74 l -2.81,80.28" /><path
         id="path46"
         style="fill:#100f0d;fill-opacity:1;fill-rule:nonzero;stroke:none"
         d="m 1862.92,1838.73 -41.21,-87.83 h 48.28 z" /><path
         id="path48"
         style="fill:#100f0d;fill-opacity:1;fill-rule:nonzero;stroke:none"
         d="m 2127.6,2586.92 -104.9,-343.58 h 76.49 z" /><path
         id="path50"
         style="fill:#100f0d;fill-opacity:1;fill-rule:nonzero;stroke:none"
         d="m 4829.44,2204.49 c 10.95,0 18.42,-1.94 18.71,-14.54 0.19,-8.63 -4.07,-13.38 -12.51,-13.86 l 12.02,-18.91 h -10.85 l -11.44,18.91 h -8.34 l 0.39,-18.91 h -9.79 l -1.17,47.31 z m -2.62,-59.52 c 19.68,0 35,15.32 34.61,35.67 -0.58,20.36 -16.77,35.58 -36.35,35.58 -19.49,0 -35,-15.22 -34.42,-35.58 0.48,-20.35 16.67,-35.67 36.16,-35.67" /><path
         id="path52"
         style="fill:#100f0d;fill-opacity:1;fill-rule:nonzero;stroke:none"
         d="m 3418.26,1831.66 -8.63,-7.07 -20.45,-105.77 8.43,-7.18 h 54.97 l 8.34,7.18 20.45,105.77 -8.43,7.07 h -54.68" /><path
         id="path54"
         style="fill:#100f0d;fill-opacity:1;fill-rule:nonzero;stroke:none"
         d="m 2544.53,1838.73 -41.2,-87.83 h 48.28 z" /><path
         id="path56"
         style="fill:#100f0d;fill-opacity:1;fill-rule:nonzero;stroke:none"
         d="m 3584.15,284.02 -618.53,278.441 c 22.98,11.051 45.08,23.75 66.31,37.711 l 443.05,-198.84 -199.9,539.609 c 10.57,41.778 16.48,85.409 17.35,130.299 l 95.78,-258.47 z m -842.28,306.839 c 0.29,7.762 0.38,16.481 0.38,26.563 V 913.211 1450.2 c 43.34,-1.45 85.22,-6.39 125.07,-14.44 4.17,-47.99 41.68,-96.08 94.04,-166.95 44.49,-60.1 94.81,-128.16 128.55,-200.29 55.26,-117.981 66.41,-247.122 -64.28,-371.411 -79.01,-61.937 -176.93,-100.82 -283.76,-106.25 m -36.16,1082.711 -31.9,26.76 6.69,34.61 h 60.69 l -4.17,-20.17 4.46,-3.68 h 54.58 l 4.36,3.68 6.01,30.74 -2.42,1.93 -85.22,11.15 -28.21,23.56 11.73,60.01 32.19,27.63 h 118.95 l 31.9,-26.75 -6.98,-34.71 h -60.69 l 4.17,20.16 -4.75,3.98 h -52.65 l -4.36,-3.69 -5.62,-29.76 2.71,-2.33 84.93,-10.85 28.12,-23.85 -12.03,-60.79 -32.18,-27.63 z M 2406.14,697.109 h 0.09 c -130.68,124.289 -119.63,253.332 -64.37,371.311 33.83,72.23 84.15,140.29 128.65,200.39 52.35,70.87 89.87,118.96 94.04,166.95 39.75,8.05 81.63,12.99 124.96,14.44 V 913.211 617.422 c 0,-10.082 0.2,-18.801 0.39,-26.563 -106.83,5.43 -204.75,44.313 -283.76,106.25 M 1847.62,284.02 2092.51,944.719 h -0.1 l 26.57,71.641 20.46,55.17 c 0.87,-44.89 6.78,-88.608 17.35,-130.491 l -200,-539.707 442.56,199.227 c 21.33,-14.059 43.63,-26.86 66.9,-38.008 z m -617.46,328.359 38.11,1257.411 h 57.29 L 1289.98,696.82 1962.7,956.059 1936.13,884.512 Z M 1149.41,1987 h -125.16 l 140.86,726.24 h 161.42 l -133.98,-690.17 c -3.78,-19.88 -23.27,-36.07 -43.14,-36.07 M 868.16,3101.9 v 437.43 l 44.695,-79.69 v -335.73 c -15.125,-7.18 -30.054,-14.55 -44.695,-22.01 m 767.83,361.23 v -133.11 c -15.03,-3.2 -29.96,-6.4 -44.7,-9.79 v 142.9 z M 1113.83,1466.49 c -521.971,224.92 -857.795,554.15 -857.795,914.02 0,257.21 166.266,503.94 480.957,714.22 l -0.484,590.31 197.773,352.11 197.089,-350.17 v -615.62 c 28.6,11.25 57.88,22.1 87.84,32.77 v 257.2 h 241.49 v 232.48 h 174.22 v 232.38 h 150.07 l -5.33,-57.29 h -87.44 V 3536.52 H 1518 v -232.39 h -241.5 v -180.32 c 134.37,44.6 280.57,83.08 436.56,114.59 l -7.56,-81.43 c -373.44,-66.8 -701.61,-169.66 -960.27,-298.02 v 15.61 c 93.75,62.92 203.981,121.08 328.27,173.34 l -0.49,623.76 -138.729,247.31 -139.414,-249.25 V 3063.9 c -0.387,0.19 -0.871,0.29 -1.262,0.38 l 0.684,-0.38 -12.894,-8.44 C 475.23,2854.3 313.332,2620.94 313.332,2380.51 c 0,-334.85 312.848,-641.89 802.238,-855.66 z m 368.88,2235.52 h -44.69 v 728.85 h 44.69 z m -174.99,859.53 h 83.08 v 156.19 h 298.99 v -156.19 h 82.99 v -627.15 h -57.01 v 569.86 h -83.27 v 156.18 h -184.4 v -156.18 h -83.37 V 3469.62 h -57.01 z m -254.78,-1708.6 c 190.12,55.74 403.89,101.89 635.01,136.89 l -12.8,-136.89 z m -85.506,-434.42 -34.899,-104.61 c -3.879,-11.25 -16.773,-19.88 -31.121,-19.88 h -98.109 l -52.45,-270.96 C 747.074,2003.29 727.586,1987 707.715,1987 H 577.707 l 140.863,726.24 h 363.84 l -19.29,-98.7 c -3.78,-19.87 -23.07,-35.87 -43.04,-35.87 H 858.563 L 827.539,2418.52 Z M 1854.99,2713.53 1714.13,1987 h -119.15 c -15.9,0 -27.44,7.18 -31.22,21.33 l -56.42,356.48 -66.32,-341.65 c -3.87,-19.87 -23.16,-36.16 -43.14,-36.16 h -114.4 l 140.87,726.53 132.24,0.09 c 16.19,0 27.82,-6.98 31.41,-21.32 l 49.54,-322.64 66.79,343.87 z m 38.68,312.94 -6.88,-147.84 54.48,147.84 h 76.11 l 0.48,-147.84 47.12,147.84 h 51.67 l -72.71,-196.12 h -73.78 l -1.16,149.3 -55.16,-149.3 h -78.82 v 196.12 z m 288.91,-28.4 33.15,28.4 h 125.74 l 33.84,-28.4 -27.44,-139.31 -32.86,-28.41 h -126.04 l -33.54,28.41 z m 303.05,-1458.38 c 61.66,31.8 130.69,51.38 203.88,55.16 v -89.87 c -47.3,-1.45 -93.16,-6.88 -136.69,-15.9 -11.93,22.88 -33.45,44.69 -67.19,50.61 m -238.1,-629.479 c -22.1,56.609 -34.32,118.179 -34.32,182.739 0,32.67 3.2,64.67 9.21,95.69 8.63,30.44 24.05,59.33 45.28,86.09 51.38,64.76 136.4,117.01 240.52,147.17 -10.86,-33.84 -46.24,-74.27 -80.75,-120.9 -39.56,-53.51 -85.41,-115.46 -120.9,-182.74 -34.61,-65.25 -59.33,-135.631 -59.04,-208.049 m -50.9,-78.731 c 10.76,-22.39 23.08,-43.82 36.55,-64.468 l -41,-109.352 93.06,41.492 c 14.35,-16.191 29.67,-31.511 45.76,-45.953 L 2089.6,543.652 Z m -371.98,1038.31 h 88.51 l 25.21,-196.22 h -62.05 l -3.1,38.68 h -69.81 l -17.93,-38.68 h -60.69 z M 2239.87,1987 h -142.51 c -11.93,0 -17.84,5.33 -18.13,15.71 l 9.6,116.14 h -104.22 l -35.39,-116.14 c -4.46,-10.38 -12.5,-15.71 -24.23,-15.71 h -141.55 l 247.61,726.24 h 198.45 c 19.87,0 36.45,-16.19 37.23,-35.87 z m -96.56,-273.87 -7.66,-39.56 h -145.8 l 38.58,196.22 h 60.3 l -30.64,-156.66 z m 78.24,-333.5 c -10.08,-16.68 -19.2,-33.84 -27.53,-51.48 l -333.31,162 h 447.12 c -15.99,-16.1 -31.02,-33.16 -44.98,-51 h -161.03 z m 184.88,293.94 99.85,196.22 h 88.52 l 25.2,-196.22 h -62.04 l -3.2,38.68 h -69.71 l -17.93,-38.68 z m 3.88,-181.68 c 24.52,9.79 51.86,9.6 69.89,1.75 8.15,-3.59 15.61,-9.12 21.24,-17.07 -74.36,-20.84 -140.48,-52.25 -194.38,-91.32 28.98,40.43 63.79,76.39 103.25,106.64 m -57.59,221.24 -7.56,-39.56 h -145.81 l 38.49,196.22 h 60.3 l -30.54,-156.66 z m -884.94,-39.56 38.49,196.22 h 149.88 l 33.83,-28.5 -27.14,-139.22 -33.15,-28.5 z m 228.51,-187.11 470,-228.89 c -6.11,-19.39 -11.34,-39.17 -15.51,-59.33 l -591.19,288.22 z m 753.18,1226.78 h 166.17 l -114.78,-591.58 h 155.3 l -19.09,-98.59 c -3.88,-19.88 -23.27,-36.07 -43.24,-36.07 h -285.12 z m 17.55,313.23 h 91.52 l 5.91,-151.81 67.57,151.81 h 94.14 l -38.49,-196.12 h -57.68 l 31.6,161.71 -72.51,-161.71 h -69.71 l -8.33,162 -31.51,-162 h -51 z m 51.96,291.62 c 0,4.07 0.39,8.05 0.59,12.12 64.76,2.23 130.2,3.49 196.31,3.49 68.35,0 136.02,-1.36 202.92,-3.78 0.29,-3.88 0.67,-7.85 0.67,-11.83 v -78.14 c -67.28,2.23 -135.04,3.4 -203.59,3.4 -66.31,0 -131.84,-1.17 -196.9,-3.2 z m 455.17,-291.62 -7.27,-37.81 h -97.92 l -7.85,-39.45 h 88.52 l -7.28,-37.91 h -88.51 l -8.43,-43.14 h 99.17 l -7.56,-37.81 h -159.57 l 38.48,196.12 z m 368.98,-313.23 -19.19,-98.7 c -3.78,-19.87 -23.17,-35.87 -43.05,-35.87 h -161.51 l -31.02,-160.15 h 139.79 l -34.99,-104.61 c -3.78,-11.25 -16.58,-19.88 -31.12,-19.88 h -97.82 l -52.74,-270.96 c -3.78,-19.78 -23.17,-36.07 -43.05,-36.07 h -129.91 l 140.96,726.24 z m -283.95,313.23 h 64.37 l 48.76,-119.14 23.95,119.14 h 53.32 l -38.49,-196.12 h -63.69 l -48.77,122.83 -24.62,-122.83 h -53.32 z m 259.04,-58.84 h 17.84 l 2.91,2.61 2.23,10.77 h -20.46 l 9.21,45.46 h 54 l -12.99,-63.88 -19.29,-16.48 h -37.81 z m 181.1,-254.39 h 243.14 L 3815.85,2635 3705.33,2065.43 3601.6,1987 h -243.15 l -73.39,78.43 110.52,569.57 z m -69.51,178.48 h 60.69 l -4.17,-20.17 4.46,-3.68 h 54.67 l 4.27,3.68 6.01,30.73 -2.42,1.94 -85.22,11.15 -28.21,23.56 11.73,60.01 32.19,27.53 h 118.95 l 31.9,-26.66 -6.98,-34.7 h -60.69 l 4.17,20.16 -4.75,3.98 h -52.65 l -4.36,-3.69 -5.62,-29.86 2.71,-2.23 84.93,-10.86 28.11,-23.85 -12.02,-60.88 -32.18,-27.53 h -120.32 l -31.79,26.76 z m 454.1,1675.83 c 132.24,0 239.36,-107.12 239.36,-239.36 0,-74.07 -33.64,-140.38 -86.48,-184.2 v -504.32 h -57.29 v 533.79 c 44.11,27.34 75.71,73 84.05,126.42 h -359.38 c 8.43,-53.42 39.94,-99.08 84.15,-126.42 v -841.89 c -16.29,3.49 -32.38,7.08 -48.86,10.37 l -8.44,1.75 v 800.2 c -52.84,43.92 -86.57,110.14 -86.57,184.3 0,132.24 107.22,239.36 239.46,239.36 m -22.4,-927.88 v 504.71 c 7.37,-0.97 14.84,-1.55 22.4,-1.55 7.56,0 15.02,0.58 22.39,1.55 v -504.71 z m 557.74,-22.88 v -479.8 c -14.73,6.4 -29.57,12.61 -44.69,18.81 v 460.99 z M 4049.5,3402.05 V 3267 c -14.84,4.17 -29.77,8.34 -44.79,12.51 v 122.54 z m 86.57,130.59 h 0.29 v -57.2 h -204.85 v -285.9 c 110.71,-28.6 215.22,-61.08 312.56,-96.85 v 654.69 h 177.99 v 167.81 h 272.62 v -820.46 l -0.48,-0.2 c 311,-208.24 481.44,-459.34 481.44,-714.02 0,-359.77 -335.73,-689.1 -857.7,-914.02 l -1.74,58.36 c 489.39,213.77 802.14,520.81 802.14,855.66 0,241.31 -170.04,482.12 -479.98,682.51 0.38,0.68 0.87,1.36 1.26,2.14 l -2.24,-1.26 v 794 h -158.02 v -167.82 h -178 v -619.11 c 147.66,-57.97 277.37,-123.99 385.18,-196.41 v -15.61 c -258.66,128.36 -586.83,231.22 -960.36,298.02 l -7.57,81.43 c 53.03,-10.76 104.9,-22.3 155.6,-34.51 v 327.58 h 262.05 z m 735.25,-1352.03 c 0.68,-25.31 -18.81,-45.57 -44.21,-45.57 -25.3,0 -45.85,20.26 -46.44,45.57 -0.58,25.4 18.81,45.56 44.12,45.56 25.4,0 45.95,-20.16 46.53,-45.56 m -444.21,532.63 h 341.15 l 73.2,-77.85 -57.88,-298.31 -87.93,-66.02 45.47,-247.9 c 2.62,-19.87 -11.44,-36.16 -31.61,-36.16 h -123.8 l -48.86,272.23 h -29.96 l -45.95,-236.36 C 4457.26,2003 4429.24,1987 4409.37,1987 h -123.22 z m -663.71,139.7 -12.79,136.89 c 231.02,-35 444.79,-81.15 635,-136.89 z M 4107.66,1987 H 3868.4 l -73.39,78.43 125.74,647.81 h 167.14 l -111.59,-575.1 c -2.23,-11.44 2.52,-16.67 15.51,-16.67 h 43.72 c 13,0 19.88,5.23 22.21,16.67 l 111.58,575.1 h 167.91 l -125.74,-647.81 z m -289.58,-157.92 8.14,40.71 h 176.06 l -6.3,-33.64 -85.02,-94.04 -13.29,-68.54 h -60.29 l 14.15,73.39 71.84,82.12 z m -194.09,3.1 7.27,37.61 h 102.19 l -31.22,-158.41 h 41.88 l -7.27,-37.81 h -144.16 l 7.27,37.81 h 41.98 l 23.56,120.8 z m 110.91,-345.81 137.28,0.09 -591.09,-288.22 c -4.17,20.26 -9.41,40.04 -15.51,59.43 z m -495.3,-828.62 -41.01,109.172 c 13.47,20.648 25.78,42.07 36.64,64.469 l 106.94,-287.739 -241.31,109.547 c 16.1,14.442 31.41,29.762 45.76,45.953 z m -75.53,617.08 c 21.23,-26.76 36.65,-55.56 45.28,-85.9 6.01,-31.12 9.3,-63.21 9.3,-95.98 0,-64.47 -12.31,-126.028 -34.41,-182.649 0.39,72.418 -24.43,142.709 -58.94,208.049 -35.49,67.19 -81.44,129.14 -121,182.65 -34.41,46.63 -69.8,87.06 -80.66,120.9 104.12,-30.16 189.15,-82.31 240.43,-147.07 m -285.02,214.25 c -43.63,9.02 -89.39,14.45 -136.8,15.9 v 89.87 c 73.2,-3.78 142.23,-23.36 203.88,-55.16 -33.64,-5.92 -55.16,-27.73 -67.08,-50.61 m 245.66,-103.83 c -53.9,39.07 -120.02,70.48 -194.28,91.32 5.62,7.95 12.99,13.48 21.23,17.07 17.94,7.85 45.28,8.14 69.71,-1.65 39.55,-30.25 74.35,-66.31 103.34,-106.74 m 200.88,316.82 27.14,139.22 33.16,28.5 h 125.74 l 33.93,-28.5 -27.53,-139.22 -32.87,-28.5 h -126.03 z m 245.57,-211.92 -333.31,-162 c -8.34,17.64 -17.55,34.9 -27.53,51.48 l 119.73,59.52 h -160.93 c -14.06,17.84 -29.09,34.9 -45.08,51 z m -355.32,342.03 h -53.61 l -4.27,-3.69 -4.16,-20.16 h -60.3 l 6.59,34.71 31.21,26.75 h 118.96 l 32.87,-27.63 -14.16,-72.22 -28.21,-24.43 h -92.88 l -5.33,-4.27 -5.72,-28.99 h 120.7 l -7.56,-38.68 h -181 l 17.06,87.84 28.5,24.43 h 92.88 l 5.33,4.26 7.56,38.39 z m 279.79,-947.758 -26.56,71.637 672.62,-259.239 -35.48,1172.97 h 57.3 l 38.1,-1257.411 z m 862.26,-490.852 -35.58,929.25 c 600.2,246.82 985.47,628.8 985.47,1057.69 0,299.28 -187.69,575.58 -504.91,799.24 v 88.41 755.23 h -488.61 l 3.59,-167.82 h -76.69 l -10.47,501.41 c -1.84,28.7 -7.66,52.06 -15.42,76.4 -44.59,140.57 -176.25,242.76 -331.36,242.76 -155.12,0 -286.87,-102.19 -331.47,-242.76 -7.75,-24.34 -12.69,-49.93 -14.93,-76.4 h -145.42 l 3.78,-74.16 123.61,-135.15 88.22,-1005.05 c -50.7,5.33 -104.41,10.37 -156.08,14.73 -134.17,11.44 -271.55,19.68 -411.64,24.82 v 135.92 c 0,95.59 -41.78,180.81 -107.9,239.56 -13.67,12.12 -28.31,23.17 -43.92,32.86 -49.15,30.64 -106.93,48.48 -168.88,48.48 -144.07,0 -265.83,-94.82 -306.36,-225.5 -1.65,-5.04 -3.1,-10.08 -4.36,-15.22 -2.62,-10.28 -4.75,-20.65 -6.4,-31.32 -2.42,-15.9 -3.68,-32.28 -3.68,-48.86 v -135.72 c -142.8,-5.14 -282.99,-13.48 -419.69,-25.11 -51.57,-4.46 -102.76,-9.31 -153.47,-14.64 l 93.65,1005.05 118.19,128.75 4.16,80.56 h -160.83 v 76.4 236.26 h -82.5 v 156.28 h -515.38 v -156.28 h -82.6 v -236.26 l -14.25,-622.12 -73.48,130.4 -178.874,317.6 -305.289,-546.3 v -445.28 -88.42 C 311.391,2955.7 123.992,2679.5 123.992,2380.51 c 0,-428.89 385.172,-810.87 985.468,-1057.69 l -35.48,-929.148 796.04,312.168 -35.1,-94.719 -209.4,-565.1015 996.91,449.6405 c 30.44,-4.851 61.65,-7.269 93.55,-7.269 31.7,0 62.92,2.418 93.46,7.269 L 3806.25,46.0195 3596.94,611.121 3561.75,705.84 4357.89,393.57" /><path
         id="path58"
         style="fill:#100f0d;fill-opacity:1;fill-rule:nonzero;stroke:none"
         d="m 3483.68,2121.51 h 48.86 c 12.8,0 19.68,5.23 21.91,16.67 l 82.31,424.15 c 2.04,11.15 -2.81,16.48 -15.61,16.48 h -48.76 c -12.8,0 -19.88,-5.33 -22.01,-16.48 l -82.31,-424.15 c -2.23,-11.44 2.62,-16.67 15.61,-16.67" /><path
         id="path60"
         style="fill:#100f0d;fill-opacity:1;fill-rule:nonzero;stroke:none"
         d="m 1559.05,1831.66 -23.37,-120.02 h 61.37 l 8.63,7.18 20.85,105.77 -8.83,7.07 h -58.65" /><path
         id="path62"
         style="fill:#100f0d;fill-opacity:1;fill-rule:nonzero;stroke:none"
         d="m 2282.39,2868.42 8.24,7.17 20.55,105.68 -8.44,7.17 h -54.67 l -8.63,-7.17 -20.56,-105.68 8.54,-7.17 h 54.97" /><path
         id="path64"
         style="fill:#100f0d;fill-opacity:1;fill-rule:nonzero;stroke:none"
         d="m 4636.77,2401.64 31.21,161.32 c 2.23,11.34 -2.62,16.58 -15.61,16.58 H 4569 l -37.62,-194.09 h 83.38 c 12.89,0 19.78,5.13 22.01,16.19" /><path
         id="path66"
         style="fill:#100f0d;fill-opacity:1;fill-rule:nonzero;stroke:none"
         d="m 4830.16,2184.5 c 5.23,0 8.53,1.17 8.34,6.3 0,5.14 -6.5,5.14 -11.06,5.14 h -10.95 l 0.38,-11.44 h 13.29" /><path
         id="path68"
         style="fill:#100f0d;fill-opacity:1;fill-rule:nonzero;stroke:none"
         d="m 3883.94,4510.3 c -90.55,0 -165.68,-66.5 -179.65,-153.17 h 359.2 c -13.96,86.67 -89,153.17 -179.55,153.17" /><path
         id="path70"
         style="fill:#49a1de;fill-opacity:1;fill-rule:nonzero;stroke:none"
         d="m 1073.99,393.672 35.49,929.148 c -600.304,246.82 -985.476,628.8 -985.476,1057.69 0,298.99 187.398,575.19 504.125,798.75 v 88.42 c -44.594,-25.89 -75.617,-48.86 -75.617,-48.86 C 222.016,2975.77 47.7031,2686.58 47.7031,2380.51 c 0,-435.97 357.7379,-837.82 983.8269,-1107.82 l -37.327,-991.67 840.737,330.101 35.09,94.719 -796.04,-312.168" /><path
         id="path72"
         style="fill:#49a1de;fill-opacity:1;fill-rule:nonzero;stroke:none"
         d="m 4241.21,3855.59 h 76.69 l -3.59,167.33 -9.02,410.48 h -90.06 c 7.75,-24.44 13.57,-47.7 15.41,-76.4 l 10.57,-501.41" /><path
         id="path74"
         style="fill:#49a1de;fill-opacity:1;fill-rule:nonzero;stroke:none"
         d="m 1200.06,4433.41 h -76.59 l -11.15,-491.72 73.39,-130.4 14.35,622.12" /><path
         id="path76"
         style="fill:#49a1de;fill-opacity:1;fill-rule:nonzero;stroke:none"
         d="m 3392.14,4357.03 h 145.43 c 2.13,26.37 7.17,51.97 14.92,76.4 h -164.22 l 0.67,-14.06 3.2,-62.34" /><path
         id="path78"
         style="fill:#49a1de;fill-opacity:1;fill-rule:nonzero;stroke:none"
         d="m 2041.31,4357.03 3.97,76.4 h -164.81 v -76.4 h 160.84" /><path
         id="path80"
         style="fill:#49a1de;fill-opacity:1;fill-rule:nonzero;stroke:none"
         d="m 5384.11,2380.52 c 0,306.07 -174.32,595.26 -504.81,838.31 0,0 -31.32,23.26 -76.4,49.34 v -88.41 c 317.22,-223.66 504.81,-499.96 504.81,-799.24 0,-428.89 -385.17,-810.87 -985.38,-1057.79 l 35.49,-929.148 -796.04,312.27 35.1,-94.723 840.82,-330.199 -37.52,991.77 c 626.19,270 983.93,671.85 983.93,1107.82" /><path
         id="path82"
         style="fill:#89cf2b;fill-opacity:1;fill-rule:nonzero;stroke:none"
         d="m 2919.45,3239.92 v 78.24 c 0,3.98 -0.39,7.85 -0.59,11.73 -66.89,2.52 -134.56,3.88 -203,3.88 -66.12,0 -131.56,-1.36 -196.32,-3.59 -0.2,-4.07 -0.58,-8.04 -0.58,-12.12 v -77.94 c 65.05,2.03 130.68,3.2 196.9,3.2 68.54,0 136.4,-1.17 203.59,-3.4" /><path
         id="path84"
         style="fill:#89cf2b;fill-opacity:1;fill-rule:nonzero;stroke:none"
         d="m 3388.18,812.813 -95.79,258.457 c -0.87,-44.88 -6.69,-88.508 -17.25,-130.391 l 199.9,-539.508 -443.14,198.738 c -21.14,-13.859 -43.24,-26.558 -66.32,-37.617 l 618.53,-278.429 -195.93,528.75" /><path
         id="path86"
         style="fill:#89cf2b;fill-opacity:1;fill-rule:nonzero;stroke:none"
         d="m 3872.16,1486.48 -137.28,-0.1 -469.32,-228.69 c 6.11,-19.39 11.34,-39.27 15.51,-59.43 l 591.09,288.22" /><path
         id="path88"
         style="fill:#89cf2b;fill-opacity:1;fill-rule:nonzero;stroke:none"
         d="m 3169.09,1439.15 h 160.93 l -119.63,-59.53 c 9.98,-16.57 19.1,-33.83 27.43,-51.47 l 333.31,161.99 h -447.12 c 16.09,-16.09 31.02,-33.15 45.08,-50.99" /><path
         id="path90"
         style="fill:#89cf2b;fill-opacity:1;fill-rule:nonzero;stroke:none"
         d="m 3100.9,653.16 241.31,-109.461 -106.94,287.653 c -10.86,-22.301 -23.17,-43.821 -36.64,-64.383 l 41.01,-109.258 -92.98,41.398 C 3132.22,682.922 3117,667.602 3100.9,653.16" /><path
         id="path92"
         style="fill:#89cf2b;fill-opacity:1;fill-rule:nonzero;stroke:none"
         d="m 2166.33,1257.62 -470,228.89 h -136.7 l 591.19,-288.32 c 4.07,20.26 9.3,40.04 15.51,59.43" /><path
         id="path94"
         style="fill:#89cf2b;fill-opacity:1;fill-rule:nonzero;stroke:none"
         d="m 2307.87,1490.16 h -447.22 l 333.41,-162 c 8.33,17.64 17.45,34.8 27.43,51.47 l -119.73,59.53 h 161.03 c 14.06,17.84 29.09,34.9 45.08,51" /><path
         id="path96"
         style="fill:#89cf2b;fill-opacity:1;fill-rule:nonzero;stroke:none"
         d="m 2330.97,653.18 c -16.1,14.441 -31.32,29.761 -45.76,45.949 l -93.07,-41.387 41.1,109.348 c -13.47,20.551 -25.79,41.98 -36.64,64.371 L 2089.56,543.629 2330.97,653.18" /><path
         id="path98"
         style="fill:#89cf2b;fill-opacity:1;fill-rule:nonzero;stroke:none"
         d="m 4106.22,1869.74 35.48,-1172.869 -672.62,259.238 26.56,-71.64 705.97,-272.039 -38.1,1257.31 h -57.29" /><path
         id="path100"
         style="fill:#89cf2b;fill-opacity:1;fill-rule:nonzero;stroke:none"
         d="m 1962.73,956.109 -672.72,-259.238 35.48,1172.869 h -57.29 l -38.01,-1257.31 705.98,272.039 26.56,71.64" /><path
         id="path102"
         style="fill:#89cf2b;fill-opacity:1;fill-rule:nonzero;stroke:none"
         d="m 1364.78,4504.21 h 83.27 v 156.18 h 184.5 v -156.18 h 83.27 v -569.86 h 57.01 v 627.15 h -82.99 v 156.18 H 1390.76 V 4561.5 h -82.99 V 3469.58 h 57.01 v 1034.63" /><path
         id="path104"
         style="fill:#89cf2b;fill-opacity:1;fill-rule:nonzero;stroke:none"
         d="m 3874.24,3203.88 c -50.71,12.31 -102.58,23.85 -155.61,34.51 l 7.57,-81.34 c 373.54,-66.89 701.7,-169.75 960.36,-298.11 v 15.61 c -107.81,72.42 -237.52,138.44 -385.17,196.41 v 619.11 h 177.99 v 167.82 h 158.03 v -794 l 2.23,1.25 c -0.39,-0.77 -0.88,-1.45 -1.26,-2.13 309.94,-200.39 479.98,-441.21 479.98,-682.51 0,-334.85 -312.75,-641.89 -802.14,-855.66 l 1.75,-58.26 c 521.86,224.82 857.69,554.15 857.69,913.92 0,254.78 -170.43,505.78 -481.44,714.02 l 0.48,0.29 v 820.37 h -272.62 v -167.81 h -177.99 v -654.69 c -97.43,35.77 -201.94,68.25 -312.56,96.85 v 285.9 h 204.85 v 57.29 h -0.29 l 0.19,-1.26 h -262.04 v -327.58" /><path
         id="path106"
         style="fill:#89cf2b;fill-opacity:1;fill-rule:nonzero;stroke:none"
         d="m 313.363,2380.52 c 0,240.43 161.805,473.78 468.063,674.95 l 12.894,8.44 -0.679,0.38 c 0.386,-0.09 0.773,-0.19 1.257,-0.38 v 605.82 l 139.317,249.25 138.825,-247.31 0.49,-623.76 C 949.242,2995.65 838.914,2937.49 745.266,2874.57 v -15.61 c 258.554,128.36 586.824,231.22 960.264,298.01 l 7.56,81.34 c -155.99,-31.41 -302.28,-69.9 -436.55,-114.59 v 180.32 h 241.49 v 232.48 h 174.22 v 232.39 h 87.45 l 5.33,57.29 h -150.08 v -232.38 h -174.21 v -232.48 h -241.5 v -257.2 c -29.96,-10.67 -59.24,-21.62 -87.83,-32.77 v 615.62 l -197.195,350.17 -197.676,-352.11 0.484,-590.32 C 422.332,2884.46 256.066,2637.72 256.066,2380.52 c 0,-359.87 335.829,-689.1 857.694,-914.02 l 1.75,58.36 c -489.397,213.77 -802.147,520.8 -802.147,855.66" /><path
         id="path108"
         style="fill:#89cf2b;fill-opacity:1;fill-rule:nonzero;stroke:none"
         d="m 3883.94,4510.3 c 90.55,0 165.59,-66.5 179.55,-153.17 h -359.2 c 13.97,86.67 89.1,153.17 179.65,153.17 m -152.89,-366.36 v -800.3 l 8.44,-1.75 c 16.48,-3.29 32.57,-6.78 48.86,-10.27 v 841.79 c -44.21,27.44 -75.72,73.1 -84.15,126.42 h 359.38 c -8.43,-53.32 -39.94,-98.98 -84.05,-126.42 v -533.7 h 57.3 v 504.23 c 52.83,43.92 86.47,110.13 86.47,184.3 0,132.14 -107.12,239.36 -239.36,239.36 -132.24,0 -239.46,-107.22 -239.46,-239.36 0,-74.17 33.64,-140.38 86.57,-184.3" /><path
         id="path110"
         style="fill:#89cf2b;fill-opacity:1;fill-rule:nonzero;stroke:none"
         d="m 1956.79,401.332 200,539.699 c -10.57,41.891 -16.48,85.609 -17.35,130.499 l -20.46,-55.17 -26.56,-71.641 h 0.09 L 1847.62,284.02 2466.25,562.551 c -23.17,11.148 -45.47,23.949 -66.9,38 L 1956.79,401.332" /><path
         id="path112"
         style="fill:#89cf2b;fill-opacity:1;fill-rule:nonzero;stroke:none"
         d="m 1913.85,2830.32 55.16,149.3 1.17,-149.3 h 73.77 l 72.71,196.12 h -51.67 l -47.12,-147.84 -0.48,147.84 h -76.1 l -54.49,-147.84 6.88,147.84 h -58.65 v -196.12 h 78.82" /><path
         id="path114"
         style="fill:#89cf2b;fill-opacity:1;fill-rule:nonzero;stroke:none"
         d="m 2239.43,2981.32 8.63,7.07 h 54.68 l 8.43,-7.07 -20.46,-105.77 -8.33,-7.08 h -54.97 l -8.53,7.08 z m 75.62,-150.95 32.77,28.4 27.53,139.32 -33.84,28.4 h -125.74 l -33.15,-28.4 -27.24,-139.32 33.54,-28.4 h 126.13" /><path
         id="path116"
         style="fill:#89cf2b;fill-opacity:1;fill-rule:nonzero;stroke:none"
         d="m 2511.07,2992.39 8.33,-162.1 h 69.71 l 72.51,161.81 -31.6,-161.81 h 57.68 l 38.49,196.22 h -94.23 l -67.48,-151.82 -5.91,151.82 h -91.52 l -38.49,-196.22 h 50.9 l 31.61,162.1" /><path
         id="path118"
         style="fill:#89cf2b;fill-opacity:1;fill-rule:nonzero;stroke:none"
         d="m 2777.41,2830.32 h 159.58 l 7.56,37.81 h -99.18 l 8.53,43.24 h 88.52 l 7.17,37.81 h -88.52 l 7.95,39.55 h 97.82 l 7.28,37.71 H 2815.9 l -38.49,-196.12" /><path
         id="path120"
         style="fill:#89cf2b;fill-opacity:1;fill-rule:nonzero;stroke:none"
         d="m 3098.66,2953.14 48.77,-122.83 h 63.69 l 38.49,196.12 h -53.32 l -24.04,-119.05 -48.67,119.05 h -64.37 l -38.49,-196.12 h 53.32 l 24.62,122.83" /><path
         id="path122"
         style="fill:#89cf2b;fill-opacity:1;fill-rule:nonzero;stroke:none"
         d="m 3370.95,2962.56 12.99,63.88 h -54 l -9.21,-45.37 h 20.46 l -2.23,-10.85 -2.91,-2.62 h -17.74 l -4.46,-21.53 h 37.81 l 19.29,16.49" /><path
         id="path124"
         style="fill:#89cf2b;fill-opacity:1;fill-rule:nonzero;stroke:none"
         d="m 3575.37,2830.32 32.18,27.63 12.02,60.79 -28.11,23.94 -84.93,10.76 -2.71,2.23 5.62,29.86 4.36,3.78 h 52.55 l 4.75,-4.07 -4.07,-20.16 h 60.69 l 6.98,34.7 -31.9,26.66 h -118.95 l -32.29,-27.53 -11.63,-59.91 28.11,-23.66 85.32,-11.05 2.33,-2.04 -5.92,-30.63 -4.36,-3.78 h -54.58 l -4.46,3.78 4.17,20.16 h -60.69 l -6.69,-34.7 31.89,-26.76 h 120.32" /><path
         id="path126"
         style="fill:#89cf2b;fill-opacity:1;fill-rule:nonzero;stroke:none"
         d="m 1605.69,1718.79 -8.63,-7.08 h -61.36 l 23.36,119.92 h 58.65 l 8.83,-7.07 z m 84.35,122.54 -33.93,28.4 h -149.79 l -38.58,-196.12 h 162 l 33.15,28.41 27.15,139.31" /><path
         id="path128"
         style="fill:#89cf2b;fill-opacity:1;fill-rule:nonzero;stroke:none"
         d="m 1862.92,1838.73 7.07,-87.83 h -48.28 z m -77.47,-165.2 18.04,38.68 h 69.7 l 3.1,-38.68 h 62.05 l -25.21,196.22 h -88.51 l -99.86,-196.22 h 60.69" /><path
         id="path130"
         style="fill:#89cf2b;fill-opacity:1;fill-rule:nonzero;stroke:none"
         d="m 2028.39,1869.74 -38.49,-196.12 h 145.81 l 7.57,39.46 h -85.13 l 30.54,156.66 h -60.3" /><path
         id="path132"
         style="fill:#89cf2b;fill-opacity:1;fill-rule:nonzero;stroke:none"
         d="m 2237.84,1869.74 -38.49,-196.12 h 145.81 l 7.56,39.46 h -85.12 l 30.54,156.66 h -60.3" /><path
         id="path134"
         style="fill:#89cf2b;fill-opacity:1;fill-rule:nonzero;stroke:none"
         d="m 2544.53,1838.73 7.08,-87.83 h -48.28 z m -59.43,-126.52 h 69.71 l 3.1,-38.68 h 62.05 l -25.21,196.22 h -88.51 l -99.86,-196.22 h 60.69 l 18.03,38.68" /><path
         id="path136"
         style="fill:#89cf2b;fill-opacity:1;fill-rule:nonzero;stroke:none"
         d="m 3207.39,1785.86 h -92.88 l -28.5,-24.43 -17.06,-87.83 h 181 l 7.66,38.68 h -120.7 l 5.62,28.99 5.33,4.17 h 92.88 l 28.21,24.53 14.15,72.22 -32.86,27.53 h -118.95 l -31.22,-26.75 -6.59,-34.61 h 60.3 l 4.17,20.16 4.26,3.69 h 53.61 l 4.46,-3.69 -7.56,-38.39 -5.33,-4.27" /><path
         id="path138"
         style="fill:#89cf2b;fill-opacity:1;fill-rule:nonzero;stroke:none"
         d="m 3460.88,1718.79 -8.24,-7.08 h -55.07 l -8.43,7.08 20.45,105.77 8.63,7.07 h 54.68 l 8.44,-7.07 z m 57.2,-16.77 27.43,139.31 -33.83,28.4 h -125.74 l -33.16,-28.4 -27.14,-139.31 33.54,-28.41 h 126.03 l 32.87,28.41" /><path
         id="path140"
         style="fill:#89cf2b;fill-opacity:1;fill-rule:nonzero;stroke:none"
         d="m 3599.97,1711.4 -7.27,-37.81 h 144.16 l 7.27,37.81 h -41.88 l 31.22,158.31 h -102.19 l -7.27,-37.51 h 41.5 l -23.56,-120.8 h -41.98" /><path
         id="path142"
         style="fill:#89cf2b;fill-opacity:1;fill-rule:nonzero;stroke:none"
         d="m 3837.39,1673.58 h 60.3 l 13.28,68.54 85.02,94.04 6.3,33.55 h -176.05 l -8.15,-40.63 h 105.29 l -71.84,-82.21 -14.15,-73.29" /><path
         id="path144"
         style="fill:#89cf2b;fill-opacity:1;fill-rule:nonzero;stroke:none"
         d="m 2858.25,1701.16 12.02,60.89 -28.12,23.84 -84.93,10.86 -2.71,2.23 5.62,29.86 4.27,3.69 h 52.64 l 4.75,-3.98 -4.07,-20.26 h 60.69 l 6.88,34.71 -31.8,26.75 h -119.05 l -32.18,-27.63 -11.64,-59.91 28.12,-23.65 85.31,-11.06 2.33,-2.03 -6.01,-30.64 -4.27,-3.68 h -54.58 l -4.46,3.68 4.07,20.17 h -60.69 l -6.59,-34.71 31.8,-26.66 h 120.41 l 32.19,27.53" /><path
         id="path146"
         style="fill:#ffffff;fill-opacity:1;fill-rule:nonzero;stroke:none"
         d="m 2201.76,2025.99 h -80.86 l 11.05,131.84 h -177.51 l -40.33,-131.84 h -74.75 l 97.44,285.99 c 21.81,1.07 43.62,2.04 65.63,3 l -33.74,-110.61 h 167.14 l 9.6,116.04 c 22.59,0.78 45.17,1.46 67.86,2.23 z m -74.17,560.93 -28.41,-343.58 h -76.49 z m 101.89,126.33 h -198.45 l -247.6,-726.24 h 141.64 c 11.63,0 19.77,5.33 24.23,15.71 l 35.29,116.14 h 104.32 l -9.7,-116.14 c 0.29,-10.38 6.3,-15.71 18.13,-15.71 h 142.51 l 26.86,690.37 c -0.78,19.68 -17.35,35.87 -37.23,35.87" /><path
         id="path148"
         style="fill:#ffffff;fill-opacity:1;fill-rule:nonzero;stroke:none"
         d="m 3461.27,2313.68 -31.9,-165.01 c -4.46,-22.3 3.69,-37.52 11.25,-46.53 7.75,-8.92 21.91,-19.59 46.34,-19.59 h 48.76 c 30.35,0 51.87,16.77 57.59,45.18 l 34.42,177.51 c 27.53,-1.45 54.97,-3.2 82.4,-4.75 l -41.01,-211.34 -83.47,-63.21 h -212.22 l -45.76,48.86 46.93,242.56 c 28.98,-1.16 57.87,-2.42 86.67,-3.68 m 6.78,-175.58 82.31,424.15 c 2.23,11.25 9.21,16.48 22.1,16.48 h 48.67 c 12.8,0 17.65,-5.23 15.61,-16.48 l -82.3,-424.15 c -2.24,-11.43 -9.12,-16.57 -21.92,-16.57 h -48.86 c -12.99,0 -17.84,5.14 -15.61,16.57 M 3358.5,1987.06 h 243.05 l 103.83,78.33 110.52,569.57 -73.39,78.33 h -243.14 l -103.83,-78.33 -110.52,-569.57 73.48,-78.33" /><path
         id="path150"
         style="fill:#ffffff;fill-opacity:1;fill-rule:nonzero;stroke:none"
         d="m 712.051,2033.53 c -0.485,-3.3 -5.238,-7.08 -7.66,-7.56 h -78.239 l 33.645,173.63 c 28.793,4.07 57.683,8.04 86.766,12.02 z m 307.999,545.13 c 19.97,0 39.26,16 43.04,35.87 l 19.3,98.7 H 718.543 L 577.777,1987.09 h 129.911 c 19.968,0 39.359,16.19 43.234,35.97 l 52.355,270.97 h 98.207 c 14.348,0 27.243,8.62 31.024,19.87 l 34.898,104.61 H 827.512 l 31.121,160.15 h 161.417" /><path
         id="path152"
         style="fill:#ffffff;fill-opacity:1;fill-rule:nonzero;stroke:none"
         d="m 3029.65,2326.56 -56.72,-293.07 c -0.67,-3.2 -5.43,-7.08 -7.85,-7.47 h -78.04 l 58.56,301.9 c 28.01,-0.29 56.03,-0.78 84.05,-1.36 m -61.18,-339.51 c 19.88,0 39.17,16.19 43.05,36.07 l 52.74,270.87 h 97.82 c 14.44,0 27.34,8.62 31.12,19.87 l 35,104.7 h -139.8 l 31.02,160.06 h 161.52 c 19.87,0 39.26,16.1 43.04,35.87 l 19.1,98.7 h -363.65 l -140.86,-726.14 h 129.9" /><path
         id="path154"
         style="fill:#ffffff;fill-opacity:1;fill-rule:nonzero;stroke:none"
         d="m 2500.12,2328.24 -47.5,-245.57 h 155.21 l -9.5,-49.15 c -0.78,-3.2 -5.34,-7.18 -7.76,-7.56 h -233.64 l 58.46,301.02 c 28.21,0.48 56.42,0.77 84.73,1.26 m 93.75,-341.16 c 19.97,0 39.26,16.19 43.24,36.07 l 19.1,98.49 H 2500.9 l 114.68,591.67 h -166.07 l -140.86,-726.23 h 285.22" /><path
         id="path156"
         style="fill:#ffffff;fill-opacity:1;fill-rule:nonzero;stroke:none"
         d="m 1153.87,2033.53 c -0.59,-3.3 -5.24,-7.18 -7.86,-7.56 h -73.39 l 44.11,227.14 c 26.96,2.81 54,5.53 81.35,8.24 z m 11.24,679.7 -140.86,-726.14 h 125.16 c 19.87,0 39.36,16.19 43.14,35.97 l 133.98,690.17 h -161.42" /><path
         id="path158"
         style="fill:#ffffff;fill-opacity:1;fill-rule:nonzero;stroke:none"
         d="m 1680.97,2025.99 -80.56,0.09 -41.88,264.57 c 16.96,1.16 34.22,2.33 51.28,3.59 l 23.95,-155.12 30.63,158.9 c 23.27,1.36 46.73,2.81 70.09,4.26 z m -278.72,7.56 c -0.78,-3.49 -5.43,-7.37 -7.56,-7.56 h -62.92 l 48.47,250.31 c 23.36,2.04 46.73,4.08 70.29,5.92 z m 235.29,336.11 -49.54,322.64 c -3.59,14.35 -15.22,21.33 -31.41,21.33 l -132.24,-0.09 -140.86,-726.53 h 114.39 c 19.98,0 39.27,16.29 43.15,36.07 l 66.31,341.74 56.42,-356.48 c 3.78,-14.15 15.32,-21.33 31.22,-21.33 h 119.15 l 140.86,726.53 h -150.65 l -66.8,-343.88" /><path
         id="path160"
         style="fill:#ffffff;fill-opacity:1;fill-rule:nonzero;stroke:none"
         d="m 4334.45,2025.99 42.94,221.33 c 28.51,-3.01 56.62,-6.21 84.74,-9.41 l -39.17,-202.62 c -2.13,-3.49 -12.02,-9.11 -16.87,-9.3 z m 234.51,553.57 h 83.38 c 13.08,0 17.84,-5.24 15.6,-16.58 l -31.21,-161.32 c -2.13,-11.06 -9.02,-16.19 -22.01,-16.19 h -83.37 z m 132.24,-553.57 h -82.99 l -35.48,197.67 c 28.21,-3.59 56.23,-7.27 84.15,-10.86 z m -240.24,-3.11 45.86,236.36 h 30.05 l 48.86,-272.23 h 123.81 c 20.06,0 34.22,16.29 31.6,36.07 l -45.47,247.99 87.84,66.02 57.97,298.21 -73.19,77.95 h -341.16 l -140.96,-726.24 h 123.12 c 19.97,0 47.99,16 51.67,35.87" /><path
         id="path162"
         style="fill:#ffffff;fill-opacity:1;fill-rule:nonzero;stroke:none"
         d="m 4175.3,2089.13 -83.57,-63.12 h -208.34 l -45.67,48.77 41.6,215.32 c 28.4,-1.94 56.52,-4.07 84.44,-6.4 l -26.27,-135.05 c -4.37,-22.3 3.87,-37.52 11.34,-46.43 7.56,-8.92 21.91,-19.69 46.34,-19.69 h 43.62 c 30.45,0 52.07,16.87 57.79,45.18 l 27.63,142.42 c 28.3,-2.33 56.61,-5.04 84.73,-7.76 z m -5.92,624.15 -111.58,-575.1 c -2.33,-11.44 -9.21,-16.67 -22.2,-16.67 h -43.73 c -12.99,0 -17.84,5.23 -15.61,16.67 l 111.59,575.1 h -167.14 l -125.64,-647.91 73.39,-78.33 h 239.17 l 103.93,78.33 125.64,647.91 h -167.82" /><path
         id="path164"
         style="fill:#ffffff;fill-opacity:1;fill-rule:nonzero;stroke:none"
         d="m 1438.02,3701.94 h 44.69 v 728.85 h -44.69 v -728.85" /><path
         id="path166"
         style="fill:#ffffff;fill-opacity:1;fill-rule:nonzero;stroke:none"
         d="m 868.133,3539.3 v -437.43 c 14.637,7.46 29.57,14.83 44.695,22.1 v 335.73 l -44.695,79.6" /><path
         id="path168"
         style="fill:#ffffff;fill-opacity:1;fill-rule:nonzero;stroke:none"
         d="m 1635.98,3330.02 v 133.1 h -44.7 v -142.9 c 14.74,3.4 29.77,6.6 44.7,9.8" /><path
         id="path170"
         style="fill:#ffffff;fill-opacity:1;fill-rule:nonzero;stroke:none"
         d="m 4419.29,3136.99 v 479.8 h -44.7 V 3155.8 c 15.03,-6.2 29.96,-12.41 44.7,-18.81" /><path
         id="path172"
         style="fill:#ffffff;fill-opacity:1;fill-rule:nonzero;stroke:none"
         d="m 4049.46,3266.96 v 135.05 h -44.7 v -122.54 c 15.03,-4.07 29.87,-8.24 44.7,-12.51" /><path
         id="path174"
         style="fill:#ffffff;fill-opacity:1;fill-rule:nonzero;stroke:none"
         d="m 3906.28,4144.36 c -7.37,-0.88 -14.74,-1.56 -22.3,-1.56 -7.66,0 -15.13,0.68 -22.4,1.56 v -504.62 h 44.7 v 504.62" /><path
         id="path176"
         style="fill:#b1a871;fill-opacity:1;fill-rule:nonzero;stroke:none"
         d="m 4825.1,2216.27 c 19.58,0 35.77,-15.22 36.35,-35.67 0.39,-20.36 -15.03,-35.68 -34.61,-35.68 -19.49,0 -35.68,15.32 -36.26,35.68 -0.48,20.45 14.93,35.67 34.52,35.67 m -44.41,-35.67 c 0.58,-25.31 21.14,-45.57 46.44,-45.57 25.4,0 44.89,20.26 44.21,45.57 -0.68,25.4 -21.14,45.56 -46.54,45.56 -25.3,0 -44.79,-20.16 -44.11,-45.56" /><path
         id="path178"
         style="fill:#b1a871;fill-opacity:1;fill-rule:nonzero;stroke:none"
         d="m 4827.42,2195.98 c 4.66,0 11.06,0 11.15,-5.14 0.1,-5.13 -3.1,-6.3 -8.43,-6.3 h -13.28 l -0.39,11.44 z m -9.98,-38.78 -0.49,18.81 h 8.44 l 11.44,-18.81 h 10.86 l -12.03,18.81 c 8.34,0.58 12.7,5.33 12.51,13.96 -0.29,12.51 -7.76,14.54 -18.71,14.54 h -22.98 l 1.17,-47.31 h 9.79" /><path
         id="path180"
         style="fill:#b1a871;fill-opacity:1;fill-rule:nonzero;stroke:none"
         d="m 2135.78,2204.35 h -167.14 l 33.74,110.62 c -22.01,-0.97 -43.72,-1.94 -65.54,-3.01 l -97.53,-286 h 74.85 l 40.33,131.85 h 177.41 l -10.95,-131.85 h 80.75 l 11.54,296.66 c -22.69,-0.67 -45.28,-1.45 -67.86,-2.23 l -9.6,-116.04" /><path
         id="path182"
         style="fill:#b1a871;fill-opacity:1;fill-rule:nonzero;stroke:none"
         d="m 3373.46,2025.99 h 212.22 l 83.37,63.11 41.01,211.34 c -27.34,1.65 -54.77,3.3 -82.3,4.75 l -34.42,-177.41 c -5.72,-28.41 -27.34,-45.18 -57.59,-45.18 h -48.76 c -24.43,0 -38.69,10.67 -46.34,19.59 -7.66,8.91 -15.71,24.23 -11.25,46.53 l 31.9,165 c -28.8,1.26 -57.69,2.43 -86.67,3.69 l -46.93,-242.56 45.76,-48.86" /><path
         id="path184"
         style="fill:#b1a871;fill-opacity:1;fill-rule:nonzero;stroke:none"
         d="m 626.176,2025.99 h 78.23 c 2.426,0.48 7.078,4.26 7.66,7.56 l 34.512,178.09 c -29.18,-3.98 -58.07,-7.95 -86.765,-12.02 l -33.637,-173.63" /><path
         id="path186"
         style="fill:#b1a871;fill-opacity:1;fill-rule:nonzero;stroke:none"
         d="m 2965.08,2025.99 c 2.42,0.48 7.17,4.26 7.85,7.56 l 56.72,292.97 c -28.02,0.58 -56.04,1.07 -84.06,1.46 l -58.55,-301.99 h 78.04" /><path
         id="path188"
         style="fill:#b1a871;fill-opacity:1;fill-rule:nonzero;stroke:none"
         d="m 2590.53,2025.99 c 2.52,0.38 7.08,4.26 7.76,7.56 l 9.5,49.15 h -155.21 l 47.5,245.57 c -28.21,-0.49 -56.42,-0.78 -84.64,-1.26 l -58.46,-301.02 h 233.55" /><path
         id="path190"
         style="fill:#b1a871;fill-opacity:1;fill-rule:nonzero;stroke:none"
         d="m 1116.7,2253.11 -44.11,-227.14 h 73.48 c 2.62,0.38 7.27,4.26 7.76,7.56 l 44.21,227.82 c -27.25,-2.71 -54.29,-5.43 -81.34,-8.24" /><path
         id="path192"
         style="fill:#b1a871;fill-opacity:1;fill-rule:nonzero;stroke:none"
         d="m 1633.74,2139.08 -23.95,155.11 c -17.06,-1.16 -34.32,-2.42 -51.28,-3.49 l 41.88,-264.57 80.56,-0.19 53.51,276.3 c -23.36,-1.46 -46.82,-2.81 -69.99,-4.27 l -30.73,-158.89" /><path
         id="path194"
         style="fill:#b1a871;fill-opacity:1;fill-rule:nonzero;stroke:none"
         d="m 1331.79,2025.99 h 62.91 c 2.04,0.19 6.79,4.07 7.57,7.56 l 48.27,248.67 c -23.55,-1.84 -46.92,-3.88 -70.28,-5.92 l -48.47,-250.31" /><path
         id="path196"
         style="fill:#b1a871;fill-opacity:1;fill-rule:nonzero;stroke:none"
         d="m 4422.94,2035.28 39.17,202.62 c -28.12,3.2 -56.24,6.4 -84.64,9.41 l -43.05,-221.33 h 71.65 c 4.85,0.19 14.74,5.81 16.87,9.3" /><path
         id="path198"
         style="fill:#b1a871;fill-opacity:1;fill-rule:nonzero;stroke:none"
         d="m 4582.74,2223.64 35.48,-197.67 h 82.89 l -34.32,186.91 c -27.82,3.59 -55.84,7.17 -84.05,10.76" /><path
         id="path200"
         style="fill:#b1a871;fill-opacity:1;fill-rule:nonzero;stroke:none"
         d="m 4096.53,2127.74 c -5.72,-28.4 -27.34,-45.18 -57.69,-45.18 h -43.72 c -24.34,0 -38.78,10.67 -46.34,19.59 -7.37,8.92 -15.71,24.23 -11.34,46.53 l 26.27,135.05 c -27.92,2.23 -55.94,4.36 -84.35,6.4 l -41.68,-215.32 45.66,-48.86 h 208.34 l 83.57,63.21 33.64,173.14 c -28.02,2.82 -56.33,5.53 -84.64,7.86 l -27.72,-142.42" /><path
         id="path202"
         style="fill:#b1a871;fill-opacity:1;fill-rule:nonzero;stroke:none"
         d="m 2631.81,4469.48 c 13.18,7.75 27.72,13.77 43.43,16.87 -15.71,-3.1 -30.25,-9.12 -43.43,-16.87" /><path
         id="path204"
         style="fill:#b1a871;fill-opacity:1;fill-rule:nonzero;stroke:none"
         d="m 2428.43,4488.35 59.91,-140.87 -59.91,140.87 h -85.8 l -16.1,-57.01 16.1,57.01 h 85.8" /><path
         id="path206"
         style="fill:#b1a871;fill-opacity:1;fill-rule:nonzero;stroke:none"
         d="m 2596.01,4488.35 v 0 l -91.42,0.38 -16.09,-57.39 16.09,57.39 91.42,-0.38" /><path
         id="path208"
         style="fill:#b1a871;fill-opacity:1;fill-rule:nonzero;stroke:none"
         d="m 2557.46,4332.8 c 0,9.4 0.77,18.8 2.32,28.01 -1.55,-9.21 -2.32,-18.61 -2.32,-28.01" /><path
         id="path210"
         style="fill:#b1a871;fill-opacity:1;fill-rule:nonzero;stroke:none"
         d="m 2374.3,4269.63 c 8.34,30.25 20.17,73.3 24.43,88.8 0,0 -0.09,0 -0.09,0.11 -4.17,-15.52 -16,-58.66 -24.34,-88.91" /><path
         id="path212"
         style="fill:#b1a871;fill-opacity:1;fill-rule:nonzero;stroke:none"
         d="m 2037.12,4276.39 v 0 l -58.27,-1119.16 c 136.7,11.63 276.79,20.07 419.59,25.11 -34.22,-1.17 -68.35,-2.52 -102.28,-4.17 v 173.34 c 0,232.87 188.76,421.53 421.33,421.53 13.96,0 27.73,-0.78 41.3,-2.13 -139.6,90.35 -282.21,203 -417.26,337.95 l 0.1,0.1 c 0,0.1 0.1,0.1 0.1,0.2 0.19,-0.3 0.38,-0.39 0.58,-0.59 -96.95,95.98 -157.06,229.19 -157.06,376.55 0,292.68 237.23,530.11 530.02,530.11 147.26,0 280.46,-60.11 376.54,-157.15 -0.1,0.19 -0.29,0.29 -0.39,0.48 v 0.1 c 125.55,-125.74 226.18,-273.98 296.18,-412.42 l 1.35,-26.85 -0.68,14.06 -37.9,762.87 H 2085.01 l -39.75,-762.87 -3.97,-76.4 -4.17,-80.66" /><path
         id="path214"
         style="fill:#b1a871;fill-opacity:1;fill-rule:nonzero;stroke:none"
         d="m 2559.8,4304.35 c 0.97,-5.72 2.62,-11.15 4.75,-16.29 -2.13,5.14 -3.78,10.57 -4.75,16.29" /><path
         id="path216"
         style="fill:#b1a871;fill-opacity:1;fill-rule:nonzero;stroke:none"
         d="m 2412.89,3413.52 c 40.62,130.68 162.38,225.5 306.45,225.5 -144.07,0 -265.83,-94.82 -306.45,-225.5" /><path
         id="path218"
         style="fill:#b1a871;fill-opacity:1;fill-rule:nonzero;stroke:none"
         d="m 2634.21,4338.35 c 0,13.09 4.46,28.11 11.53,42.36 -7.07,-14.15 -11.53,-29.27 -11.53,-42.36" /><path
         id="path220"
         style="fill:#b1a871;fill-opacity:1;fill-rule:nonzero;stroke:none"
         d="m 3451.62,3157.35 v 0" /><path
         id="path222"
         style="fill:#b1a871;fill-opacity:1;fill-rule:nonzero;stroke:none"
         d="m 3006.24,3631.9 -74.06,-74.26 c -13.68,12.21 -28.41,23.17 -44.02,32.87 15.61,-9.7 30.25,-20.66 43.92,-32.87 66.12,-58.75 107.9,-143.97 107.9,-239.46 v -136.02 c 140.09,-5.14 277.47,-13.38 411.64,-24.82 l -17.55,352.7 c -113.81,2.91 -263.4,44.21 -427.83,121.86" /><path
         id="path224"
         style="fill:#756d4f;fill-opacity:1;fill-rule:nonzero;stroke:none"
         d="m 2037.12,4276.39 -118.18,-128.75 -93.56,-1005.05 c 50.61,5.33 101.8,10.27 153.47,14.64 l 58.27,1119.16" /><path
         id="path226"
         style="fill:#756d4f;fill-opacity:1;fill-rule:nonzero;stroke:none"
         d="m 2972.54,4488.7 9.5,-165.01 42.75,67.86 -42.75,-67.86 -9.5,165.01 h -139.51 l -15.81,-57.01 15.81,57.01 h 139.51" /><path
         id="path228"
         style="fill:#756d4f;fill-opacity:1;fill-rule:nonzero;stroke:none"
         d="m 2701.47,4489.07 c -9.02,0 -17.74,-0.96 -26.18,-2.71 8.44,1.75 17.16,2.71 26.18,2.71" /><path
         id="path230"
         style="fill:#756d4f;fill-opacity:1;fill-rule:nonzero;stroke:none"
         d="m 2804.38,4488.73 -102.57,0.38 102.57,-0.38" /><path
         id="path232"
         style="fill:#756d4f;fill-opacity:1;fill-rule:nonzero;stroke:none"
         d="m 3044.86,4488.73 -4.56,-16.19 4.56,16.19 h 137.47 l 15.32,-223.47 -15.32,223.47 h -137.47" /><path
         id="path234"
         style="fill:#756d4f;fill-opacity:1;fill-rule:nonzero;stroke:none"
         d="m 3062.62,4334.8 v 0 l 30.73,46.63 z" /><path
         id="path236"
         style="fill:#756d4f;fill-opacity:1;fill-rule:nonzero;stroke:none"
         d="m 2721.22,4430.06 h 0.29 c -0.87,-3.2 -2.03,-7.46 -3.2,-11.83 1.17,4.37 2.33,8.63 3.2,11.83 h -0.29" /><path
         id="path238"
         style="fill:#756d4f;fill-opacity:1;fill-rule:nonzero;stroke:none"
         d="m 3232.35,4150.95 c -22.4,0 -41.31,17.16 -41.31,40.62 0,23.36 18.91,40.52 41.31,40.52 22.19,0 41,-17.16 41,-40.52 0,-23.46 -18.81,-40.62 -41,-40.62 m 155.31,295.3 c -70,138.45 -170.63,286.68 -296.28,412.42 v -0.1 c 0.2,-0.19 0.29,-0.29 0.39,-0.48 94.91,-95.79 153.56,-227.54 153.56,-372.96 0,-78.53 -17.15,-152.89 -47.69,-219.88 l -13.48,-27.44 c -88.8,-168.2 -265.54,-282.6 -468.93,-282.6 -145.42,0 -277.08,58.56 -372.86,153.37 -0.2,0.2 -0.49,0.29 -0.68,0.58 0,-0.09 -0.1,-0.09 -0.1,-0.19 v -0.1 c 134.95,-134.95 277.66,-247.6 417.26,-337.96 -13.67,1.36 -27.43,2.14 -41.39,2.14 -232.48,0 -421.34,-188.66 -421.34,-421.53 v -173.34 c 33.93,1.64 68.06,3 102.38,4.17 v 135.72 c 0,16.58 1.26,32.96 3.68,48.86 1.65,10.67 3.78,21.14 6.4,31.32 1.26,5.14 2.72,10.27 4.27,15.32 40.62,130.58 162.38,225.4 306.45,225.4 61.95,0 119.73,-17.84 168.88,-48.47 15.61,-9.7 30.25,-20.65 43.92,-32.87 l 74.16,74.26 c 164.43,-77.65 314.02,-118.86 427.83,-121.76 l 17.55,-352.8 c 51.67,-4.36 105.38,-9.4 155.99,-14.73 l -88.13,1005.05 -123.6,135.15 -3.79,74.26 -3.1,62.34 -1.35,26.85" /><path
         id="path240"
         style="fill:#756d4f;fill-opacity:1;fill-rule:nonzero;stroke:none"
         d="m 2564.58,4288.11 v 0 c 13.18,-31.02 47.12,-50.32 83.86,-50.32 h 0.1 c -36.84,0 -70.78,19.39 -83.96,50.32" /><path
         id="path242"
         style="fill:#756d4f;fill-opacity:1;fill-rule:nonzero;stroke:none"
         d="m 3115.59,4415.04 2.81,-80.27 -2.81,80.27" /><path
         id="path244"
         style="fill:#756d4f;fill-opacity:1;fill-rule:nonzero;stroke:none"
         d="m 3244.33,4168.1 -12.41,20.26 h -8.24 v -20.26 h -6.89 v 46.82 h 17.65 c 11.05,0 16.58,-4.16 16.58,-13.38 0,-8.33 -5.34,-11.92 -12.12,-12.79 l 13.28,-20.65 z m -12.02,57.2 c -18.52,0 -33.06,-14.54 -33.06,-33.74 0,-19.49 14.54,-33.93 33.06,-33.93 18.42,0 32.96,14.44 32.96,33.93 0,19.2 -14.54,33.74 -32.96,33.74" /><path
         id="path246"
         style="fill:#756d4f;fill-opacity:1;fill-rule:nonzero;stroke:none"
         d="m 3243.58,4201.96 c 0,5.92 -5.14,6.89 -10.18,6.89 h -9.69 v -14.45 h 8.43 c 6.11,0 11.44,0.39 11.44,7.56" /><path
         id="path248"
         style="fill:#b1a871;fill-opacity:1;fill-rule:nonzero;stroke:none"
         d="m 3232.35,4157.66 c -18.62,0 -33.16,14.35 -33.16,33.93 0,19.19 14.54,33.74 33.16,33.74 18.41,0 32.86,-14.55 32.86,-33.74 0,-19.58 -14.45,-33.93 -32.86,-33.93 m 0,74.45 c -22.4,0 -41.31,-17.25 -41.31,-40.52 0,-23.46 18.91,-40.62 41.31,-40.62 22.19,0 41,17.16 41,40.62 0,23.27 -18.81,40.52 -41,40.52" /><path
         id="path250"
         style="fill:#b1a871;fill-opacity:1;fill-rule:nonzero;stroke:none"
         d="m 3223.67,4194.4 v 14.45 h 9.69 c 5.04,0 10.18,-0.97 10.18,-6.89 0,-7.17 -5.33,-7.56 -11.44,-7.56 z m 27.34,7.17 c 0,9.21 -5.53,13.29 -16.58,13.29 h -17.65 v -46.73 h 6.89 v 20.26 h 8.24 l 12.41,-20.26 h 7.95 l -13.38,20.65 c 6.88,0.77 12.12,4.46 12.12,12.79" /><path
         id="path252"
         style="fill:#b1a871;fill-opacity:1;fill-rule:nonzero;stroke:none"
         d="m 1687.91,2989.83 c -231.03,-35 -444.79,-81.15 -635,-136.89 h 622.2 l 12.8,136.89" /><path
         id="path254"
         style="fill:#b1a871;fill-opacity:1;fill-rule:nonzero;stroke:none"
         d="m 3750.65,2989.81 12.79,-136.89 h 622.11 c -190.11,55.74 -403.88,101.99 -634.9,136.89" /></g></g></svg>