<?xml version="1.0" encoding="UTF-8" standalone="no"?>
<!-- Created with Inkscape (http://www.inkscape.org/) -->

<svg
   xmlns:dc="http://purl.org/dc/elements/1.1/"
   xmlns:cc="http://creativecommons.org/ns#"
   xmlns:rdf="http://www.w3.org/1999/02/22-rdf-syntax-ns#"
   xmlns:svg="http://www.w3.org/2000/svg"
   xmlns="http://www.w3.org/2000/svg"
   xmlns:sodipodi="http://sodipodi.sourceforge.net/DTD/sodipodi-0.dtd"
   xmlns:inkscape="http://www.inkscape.org/namespaces/inkscape"
   width="104"
   height="118"
   viewBox="0 0 104 118"
   id="svg21988"
   version="1.1"
   inkscape:version="0.91 r13725"
   sodipodi:docname="2002 ncaa womens final four.svg">
  <defs
     id="defs21990">
    <clipPath
       id="clipPath5234"
       clipPathUnits="userSpaceOnUse">
      <path
         style="clip-rule:evenodd"
         inkscape:connector-curvature="0"
         id="path5236"
         d="m 93.553,118.517 105.954,0 0,-126.005 -105.954,0 0,126.005 z" />
    </clipPath>
    <clipPath
       id="clipPath5240"
       clipPathUnits="userSpaceOnUse">
      <path
         inkscape:connector-curvature="0"
         id="path5242"
         d="M 0,792 612,792 612,0 0,0 0,792 Z" />
    </clipPath>
    <clipPath
       id="clipPath5246"
       clipPathUnits="userSpaceOnUse">
      <path
         inkscape:connector-curvature="0"
         id="path5248"
         d="m 0,792.06 612,0 0,-792 -612,0 0,792 z" />
    </clipPath>
    <clipPath
       id="clipPath5254"
       clipPathUnits="userSpaceOnUse">
      <path
         inkscape:connector-curvature="0"
         id="path5256"
         d="m 0,0.06 612,0 0,792 -612,0 0,-792 z" />
    </clipPath>
    <clipPath
       id="clipPath5262"
       clipPathUnits="userSpaceOnUse">
      <path
         style="clip-rule:evenodd"
         inkscape:connector-curvature="0"
         id="path5264"
         d="m 93.553,118.517 105.954,0 0,-126.005 -105.954,0 0,126.005 z" />
    </clipPath>
    <clipPath
       id="clipPath5268"
       clipPathUnits="userSpaceOnUse">
      <path
         inkscape:connector-curvature="0"
         id="path5270"
         d="M 0,792 612,792 612,0 0,0 0,792 Z" />
    </clipPath>
    <clipPath
       id="clipPath5274"
       clipPathUnits="userSpaceOnUse">
      <path
         inkscape:connector-curvature="0"
         id="path5276"
         d="m 0,792.06 612,0 0,-792 -612,0 0,792 z" />
    </clipPath>
    <clipPath
       id="clipPath5284"
       clipPathUnits="userSpaceOnUse">
      <path
         inkscape:connector-curvature="0"
         id="path5286"
         d="m -1.276,-0.103 7.417,0 0,8.461001 -7.417,0 0,-8.461001 z" />
    </clipPath>
    <clipPath
       id="clipPath5302"
       clipPathUnits="userSpaceOnUse">
      <path
         inkscape:connector-curvature="0"
         id="path5304"
         d="M 1,1 0,1 0,0 1,0 1,1 Z" />
    </clipPath>
    <clipPath
       id="clipPath5318"
       clipPathUnits="userSpaceOnUse">
      <path
         inkscape:connector-curvature="0"
         id="path5320"
         d="M 1,1 0,1 0,0 1,0 1,1 Z" />
    </clipPath>
    <clipPath
       id="clipPath5354"
       clipPathUnits="userSpaceOnUse">
      <path
         inkscape:connector-curvature="0"
         id="path5356"
         d="M 1,1 0,1 0,0 1,0 1,1 Z" />
    </clipPath>
    <linearGradient
       id="linearGradient5378"
       spreadMethod="pad"
       gradientTransform="matrix(0,0.214417,0.243223,0,0.303558,0.078292)"
       gradientUnits="userSpaceOnUse"
       y2="0"
       x2="1"
       y1="0"
       x1="0">
      <stop
         id="stop5380"
         offset="0"
         style="stop-opacity:1;stop-color:#f5822a" />
      <stop
         id="stop5382"
         offset="1"
         style="stop-opacity:1;stop-color:#ffd659" />
    </linearGradient>
    <linearGradient
       id="linearGradient5396"
       spreadMethod="pad"
       gradientTransform="matrix(0,0.135748,0.153985,0,0.49066,0.160953)"
       gradientUnits="userSpaceOnUse"
       y2="0"
       x2="1"
       y1="0"
       x1="0">
      <stop
         id="stop5398"
         offset="0"
         style="stop-opacity:1;stop-color:#f5822a" />
      <stop
         id="stop5400"
         offset="1"
         style="stop-opacity:1;stop-color:#ffd659" />
    </linearGradient>
    <linearGradient
       id="linearGradient5414"
       spreadMethod="pad"
       gradientTransform="matrix(0,0.132773,0.150611,0,0.700934,0.16095)"
       gradientUnits="userSpaceOnUse"
       y2="0"
       x2="1"
       y1="0"
       x1="0">
      <stop
         id="stop5416"
         offset="0"
         style="stop-opacity:1;stop-color:#f5822a" />
      <stop
         id="stop5418"
         offset="1"
         style="stop-opacity:1;stop-color:#ffd659" />
    </linearGradient>
    <linearGradient
       id="linearGradient5432"
       spreadMethod="pad"
       gradientTransform="matrix(0,0.132773,0.150611,0,0.898889,0.163927)"
       gradientUnits="userSpaceOnUse"
       y2="0"
       x2="1"
       y1="0"
       x1="0">
      <stop
         id="stop5434"
         offset="0"
         style="stop-opacity:1;stop-color:#f5822a" />
      <stop
         id="stop5436"
         offset="1"
         style="stop-opacity:1;stop-color:#ffd659" />
    </linearGradient>
    <linearGradient
       id="linearGradient5450"
       spreadMethod="pad"
       gradientTransform="matrix(0,0.189266,0.214692,0,0.266681,0.313516)"
       gradientUnits="userSpaceOnUse"
       y2="0"
       x2="1"
       y1="0"
       x1="0">
      <stop
         id="stop5452"
         offset="0"
         style="stop-opacity:1;stop-color:#f5822a" />
      <stop
         id="stop5454"
         offset="1"
         style="stop-opacity:1;stop-color:#ffd659" />
    </linearGradient>
    <linearGradient
       id="linearGradient5468"
       spreadMethod="pad"
       gradientTransform="matrix(0,0.132773,0.15061,0,0.420245,0.313516)"
       gradientUnits="userSpaceOnUse"
       y2="0"
       x2="1"
       y1="0"
       x1="0">
      <stop
         id="stop5470"
         offset="0"
         style="stop-opacity:1;stop-color:#f5822a" />
      <stop
         id="stop5472"
         offset="1"
         style="stop-opacity:1;stop-color:#ffd659" />
    </linearGradient>
    <linearGradient
       id="linearGradient5486"
       spreadMethod="pad"
       gradientTransform="matrix(0,0.135744,0.153981,0,0.619005,0.310542)"
       gradientUnits="userSpaceOnUse"
       y2="0"
       x2="1"
       y1="0"
       x1="0">
      <stop
         id="stop5488"
         offset="0"
         style="stop-opacity:1;stop-color:#f5822a" />
      <stop
         id="stop5490"
         offset="1"
         style="stop-opacity:1;stop-color:#ffd659" />
    </linearGradient>
    <linearGradient
       id="linearGradient5504"
       spreadMethod="pad"
       gradientTransform="matrix(0,0.212571,0.241129,0,0.760237,0.313513)"
       gradientUnits="userSpaceOnUse"
       y2="0"
       x2="1"
       y1="0"
       x1="0">
      <stop
         id="stop5506"
         offset="0"
         style="stop-opacity:1;stop-color:#f5822a" />
      <stop
         id="stop5508"
         offset="1"
         style="stop-opacity:1;stop-color:#ffd659" />
    </linearGradient>
    <linearGradient
       id="linearGradient5522"
       spreadMethod="pad"
       gradientTransform="matrix(0,0.214426,0.243233,0,0.142989,0.311673)"
       gradientUnits="userSpaceOnUse"
       y2="0"
       x2="1"
       y1="0"
       x1="0">
      <stop
         id="stop5524"
         offset="0"
         style="stop-opacity:1;stop-color:#f5822a" />
      <stop
         id="stop5526"
         offset="1"
         style="stop-opacity:1;stop-color:#ffd659" />
    </linearGradient>
  </defs>
  <sodipodi:namedview
     id="base"
     pagecolor="#ffffff"
     bordercolor="#666666"
     borderopacity="1.0"
     inkscape:pageopacity="0.0"
     inkscape:pageshadow="2"
     inkscape:zoom="4.6016949"
     inkscape:cx="52"
     inkscape:cy="59"
     inkscape:document-units="px"
     inkscape:current-layer="layer1"
     showgrid="false"
     units="px"
     inkscape:window-width="1280"
     inkscape:window-height="744"
     inkscape:window-x="-4"
     inkscape:window-y="-4"
     inkscape:window-maximized="1" />
  <metadata
     id="metadata21993">
    <rdf:RDF>
      <cc:Work
         rdf:about="">
        <dc:format>image/svg+xml</dc:format>
        <dc:type
           rdf:resource="http://purl.org/dc/dcmitype/StillImage" />
        <dc:title></dc:title>
      </cc:Work>
    </rdf:RDF>
  </metadata>
  <g
     inkscape:label="Layer 1"
     inkscape:groupmode="layer"
     id="layer1"
     transform="translate(0,-934.36216)">
    <g
       id="g5230"
       transform="matrix(1.25,0,0,-1.25,-131.16394,1064.0071)">
      <g
         id="g5232"
         clip-path="url(#clipPath5234)">
        <g
           id="g5238"
           clip-path="url(#clipPath5240)">
          <g
             id="g5244"
             clip-path="url(#clipPath5246)">
            <g
               id="g5250">
              <g
                 id="g5252"
                 clip-path="url(#clipPath5254)">
                <g
                   id="g5258">
                  <g
                     id="g5260"
                     clip-path="url(#clipPath5262)">
                    <g
                       id="g5266"
                       clip-path="url(#clipPath5268)">
                      <g
                         id="g5272"
                         clip-path="url(#clipPath5274)">
                        <g
                           id="g5278"
                           transform="matrix(82.5163,0,0,93.6019,105.273,9.715)">
                          <g
                             id="g5280">
                            <g
                               id="g5282"
                               clip-path="url(#clipPath5284)">
                              <path
                                 d="m 0.96429,0.41333 c 0,-0.22215 -0.20303,-0.402244 -0.45348,-0.402244 -0.25044,0 -0.453473,0.180094 -0.453473,0.402244 0,0.22215 0.203033,0.40224 0.453473,0.40224 0.25045,0 0.45348,-0.18009 0.45348,-0.40224"
                                 style="fill:#e1393e;fill-opacity:1;fill-rule:nonzero;stroke:none"
                                 id="path5288"
                                 inkscape:connector-curvature="0" />
                              <path
                                 d="M 0.43387,0.95252 C 0.38498,0.93116 0.34845,0.8943 0.33101,0.84872 0.31358,0.80315 0.31733,0.75433 0.34155,0.71123 0.39158,0.62228 0.51437,0.58576 0.61527,0.62984 0.71617,0.67392 0.75758,0.78217 0.70758,0.87115 0.65757,0.9601 0.53478,0.9966 0.43387,0.95252"
                                 style="fill:#231f20;fill-opacity:1;fill-rule:nonzero;stroke:none"
                                 id="path5290"
                                 inkscape:connector-curvature="0" />
                              <path
                                 d="M 0.43387,0.95252 C 0.38498,0.93116 0.34845,0.8943 0.33101,0.84872 0.31358,0.80315 0.31733,0.75433 0.34155,0.71123 0.39158,0.62228 0.51437,0.58576 0.61527,0.62984 0.71617,0.67392 0.75758,0.78217 0.70758,0.87115 0.65757,0.9601 0.53478,0.9966 0.43387,0.95252 Z"
                                 style="fill:none;stroke:#231f20;stroke-width:0.00906686;stroke-linecap:butt;stroke-linejoin:miter;stroke-miterlimit:4;stroke-dasharray:none;stroke-opacity:1"
                                 id="path5292"
                                 inkscape:connector-curvature="0" />
                              <path
                                 d="M 0.44724,0.93322 C 0.35432,0.89265 0.31636,0.79337 0.36238,0.7115 0.40842,0.62959 0.52104,0.59611 0.61393,0.63669 0.70682,0.67726 0.74481,0.77655 0.69877,0.85843 0.65272,0.94032 0.54014,0.9738 0.44724,0.93322"
                                 style="fill:#f5822a;fill-opacity:1;fill-rule:nonzero;stroke:none"
                                 id="path5294"
                                 inkscape:connector-curvature="0" />
                              <path
                                 d="M 0.58878,0.79732 C 0.68286,0.78599 0.74894,0.75771 0.74894,0.75771 0.69562,0.78941 0.64076,0.80724 0.58895,0.81636 0.59424,0.84662 0.62404,0.88125 0.69674,0.91901 l -0.0199,0.01815 c 0,0 -0.0935,-0.055 -0.10846,-0.11762 C 0.54512,0.82267 0.52262,0.82415 0.50133,0.82442 0.5095,0.87723 0.53775,0.93641 0.60096,0.99855 l -0.05775,0.0014 c 0,0 -0.06211,-0.07639 -0.0679,-0.17578 C 0.46218,0.82375 0.44963,0.82292 0.43779,0.82181 0.42043,0.88616 0.33998,0.94611 0.33998,0.94611 L 0.31828,0.92839 C 0.38135,0.88648 0.40988,0.85027 0.41727,0.81954 0.36171,0.81243 0.32608,0.80013 0.32608,0.80013 L 0.33069,0.76955 C 0.36008,0.78088 0.38961,0.78871 0.41865,0.79385 0.40823,0.72011 0.27429,0.68529 0.27429,0.68529 0.40075,0.70905 0.44041,0.75253 0.44105,0.79728 0.4525,0.79878 0.46384,0.7999 0.47504,0.80065 0.4773,0.73722 0.50457,0.66658 0.58485,0.60134 c 0,0 -0.09199,0.0814 -0.08586,0.20041 0.02343,5.8e-4 0.04604,-2.9e-4 0.06747,-0.00213 0.00211,-0.03906 0.04051,-0.07913 0.15492,-0.10928 0,0 -0.12219,0.04088 -0.1326,0.10698"
                                 style="fill:#231f20;fill-opacity:1;fill-rule:nonzero;stroke:none"
                                 id="path5296"
                                 inkscape:connector-curvature="0" />
                              <g
                                 id="g5298">
                                <g
                                   id="g5300"
                                   clip-path="url(#clipPath5302)">
                                <path
                                   d="M 0.58878,0.79732 C 0.68286,0.78599 0.74894,0.75771 0.74894,0.75771 0.69562,0.78941 0.64076,0.80724 0.58895,0.81636 0.59424,0.84662 0.62404,0.88125 0.69674,0.91901 l -0.0199,0.01815 c 0,0 -0.0935,-0.055 -0.10846,-0.11762 C 0.54512,0.82267 0.52262,0.82415 0.50133,0.82442 0.5095,0.87723 0.53775,0.93641 0.60096,0.99855 l -0.05775,0.0014 c 0,0 -0.06211,-0.07639 -0.0679,-0.17578 C 0.46218,0.82375 0.44963,0.82292 0.43779,0.82181 0.42043,0.88616 0.33998,0.94611 0.33998,0.94611 L 0.31828,0.92839 C 0.38135,0.88648 0.40988,0.85027 0.41727,0.81954 0.36171,0.81243 0.32608,0.80013 0.32608,0.80013 L 0.33069,0.76955 C 0.36008,0.78088 0.38961,0.78871 0.41865,0.79385 0.40823,0.72011 0.27429,0.68529 0.27429,0.68529 0.40075,0.70905 0.44041,0.75253 0.44105,0.79728 0.4525,0.79878 0.46384,0.7999 0.47504,0.80065 0.4773,0.73722 0.50457,0.66658 0.58485,0.60134 c 0,0 -0.09199,0.0814 -0.08586,0.20041 0.02343,5.8e-4 0.04604,-2.9e-4 0.06747,-0.00213 0.00211,-0.03906 0.04051,-0.07913 0.15492,-0.10928 0,0 -0.12219,0.04088 -0.1326,0.10698 z"
                                   style="fill:none;stroke:#231f20;stroke-width:0.00906686;stroke-linecap:butt;stroke-linejoin:miter;stroke-miterlimit:4;stroke-dasharray:none;stroke-opacity:1"
                                   id="path5306"
                                   inkscape:connector-curvature="0" />
                                </g>
                              </g>
                              <path
                                 d="m 0.073728,0.40271 c 0,0.22239 0.203062,0.40267 0.453562,0.40267 0.09115,0 0.17601,-0.02389 0.2471,-0.06497 -0.07735,0.05442 -0.17515,0.08694 -0.2815,0.08694 -0.2505,0 -0.453567,-0.18028 -0.453567,-0.40267 0,-0.14146 0.082187,-0.26587 0.206467,-0.337694 C 0.14097,0.16075 0.073728,0.27475 0.073728,0.40271"
                                 style="fill:#231f20;fill-opacity:1;fill-rule:nonzero;stroke:none"
                                 id="path5308"
                                 inkscape:connector-curvature="0" />
                              <path
                                 d="m 0.073728,0.40271 c 0,0.22239 0.203062,0.40267 0.453562,0.40267 0.09115,0 0.17601,-0.02389 0.2471,-0.06497 -0.07735,0.05442 -0.17515,0.08694 -0.2815,0.08694 -0.2505,0 -0.453567,-0.18028 -0.453567,-0.40267 0,-0.14146 0.082187,-0.26587 0.206467,-0.337694 C 0.14097,0.16075 0.073728,0.27475 0.073728,0.40271 Z"
                                 style="fill:none;stroke:#231f20;stroke-width:0.00906686;stroke-linecap:butt;stroke-linejoin:miter;stroke-miterlimit:4;stroke-dasharray:none;stroke-opacity:1"
                                 id="path5310"
                                 inkscape:connector-curvature="0" />
                              <path
                                 d="M 0.77439,0.74041 C 0.8792,0.66666 0.94645,0.55264 0.94645,0.42468 c 0,-0.22239 -0.20307,-0.402667 -0.45356,-0.402667 -0.09115,0 -0.17601,0.023891 -0.2471,0.064973 0.07734,-0.054427 0.17514,-0.08694 0.2815,-0.08694 0.2505,0 0.45357,0.180284 0.45357,0.402664 0,0.14147 -0.08219,0.26588 -0.20647,0.3377"
                                 style="fill:#231f20;fill-opacity:1;fill-rule:nonzero;stroke:none"
                                 id="path5312"
                                 inkscape:connector-curvature="0" />
                              <g
                                 id="g5314">
                                <g
                                   id="g5316"
                                   clip-path="url(#clipPath5318)">
                                <path
                                   d="M 0.77439,0.74041 C 0.8792,0.66666 0.94645,0.55264 0.94645,0.42468 c 0,-0.22239 -0.20307,-0.402667 -0.45356,-0.402667 -0.09115,0 -0.17601,0.023891 -0.2471,0.064973 0.07734,-0.054427 0.17514,-0.08694 0.2815,-0.08694 0.2505,0 0.45357,0.180284 0.45357,0.402664 0,0.14147 -0.08219,0.26588 -0.20647,0.3377 z"
                                   style="fill:none;stroke:#231f20;stroke-width:0.00906686;stroke-linecap:butt;stroke-linejoin:miter;stroke-miterlimit:4;stroke-dasharray:none;stroke-opacity:1"
                                   id="path5322"
                                   inkscape:connector-curvature="0" />
                                </g>
                              </g>
                              <path
                                 d="m 0.78318,0.30772 0,0.33447 -0.09265,0 0,0.01824 c 0,0 -0.10365,0.00561 -0.10656,0.07995 l -0.03464,0 C 0.54558,0.75939 0.52692,0.77385 0.50441,0.77385 0.48188,0.77385 0.46322,0.75939 0.45946,0.74038 l -0.03249,0 C 0.42404,0.66604 0.3204,0.66043 0.3204,0.66043 l 0,-0.01824 -0.08972,0 0,-0.33446 0.5525,-1e-5"
                                 style="fill:#9d3594;fill-opacity:1;fill-rule:nonzero;stroke:none"
                                 id="path5324"
                                 inkscape:connector-curvature="0" />
                              <path
                                 d="m 0.45946,0.73353 0.00653,0 0.00113,0.00568 c 0.00318,0.0161 0.01886,0.02778 0.03729,0.02778 0.01841,0 0.03408,-0.01168 0.03726,-0.02778 L 0.5428,0.73353 c 0,0 0.02537,0 0.03424,0 0.00753,-0.06191 0.08208,-0.07625 0.10572,-0.07918 0,-0.00541 0,-0.01901 0,-0.01901 0,0 0.0796,0 0.09265,0 0,-0.01287 0,-0.3079 0,-0.32077 -0.0149,0 -0.52207,1e-5 -0.53696,1e-5 0,0.01287 0,0.30789 0,0.32076 0.01297,0 0.08972,0 0.08972,0 0,0 0,0.0136 0,0.01901 0.02364,0.00293 0.09818,0.01727 0.10572,0.07918 0.00858,0 0.02557,0 0.02557,0 z m -0.00594,0.0137 c -0.00793,0 -0.03406,0 -0.03406,0 L 0.4192,0.74062 C 0.41655,0.67345 0.32385,0.66749 0.31991,0.66727 L 0.31263,0.66686 c 0,0 -1e-5,-0.01247 -1e-5,-0.01781 -0.01296,0 -0.08971,0 -0.08971,0 l 0,-0.34817 0.56804,-10e-6 0,0.34818 c 0,0 -0.07961,0 -0.09265,0 0,0.00534 0,0.01781 0,0.01781 L 0.69101,0.66727 C 0.68707,0.66749 0.59437,0.67345 0.59173,0.74062 l -2.6e-4,0.00661 c 0,0 -0.02805,0 -0.0362,0 C 0.54848,0.76689 0.52814,0.7807 0.50441,0.7807 0.48066,0.7807 0.46032,0.76689 0.45352,0.74723"
                                 style="fill:#231f20;fill-opacity:1;fill-rule:nonzero;stroke:none"
                                 id="path5326"
                                 inkscape:connector-curvature="0" />
                              <path
                                 d="m 0.45946,0.73353 0.00653,0 0.00113,0.00568 c 0.00318,0.0161 0.01886,0.02778 0.03729,0.02778 0.01841,0 0.03408,-0.01168 0.03726,-0.02778 L 0.5428,0.73353 c 0,0 0.02537,0 0.03424,0 0.00753,-0.06191 0.08208,-0.07625 0.10572,-0.07918 0,-0.00541 0,-0.01901 0,-0.01901 0,0 0.0796,0 0.09265,0 0,-0.01287 0,-0.3079 0,-0.32077 -0.0149,0 -0.52207,1e-5 -0.53696,1e-5 0,0.01287 0,0.30789 0,0.32076 0.01297,0 0.08972,0 0.08972,0 0,0 0,0.0136 0,0.01901 0.02364,0.00293 0.09818,0.01727 0.10572,0.07918 0.00858,0 0.02557,0 0.02557,0 z m -0.00594,0.0137 c -0.00793,0 -0.03406,0 -0.03406,0 L 0.4192,0.74062 C 0.41655,0.67345 0.32385,0.66749 0.31991,0.66727 L 0.31263,0.66686 c 0,0 -1e-5,-0.01247 -1e-5,-0.01781 -0.01296,0 -0.08971,0 -0.08971,0 l 0,-0.34817 0.56804,-10e-6 0,0.34818 c 0,0 -0.07961,0 -0.09265,0 0,0.00534 0,0.01781 0,0.01781 L 0.69101,0.66727 C 0.68707,0.66749 0.59437,0.67345 0.59173,0.74062 l -2.6e-4,0.00661 c 0,0 -0.02805,0 -0.0362,0 C 0.54848,0.76689 0.52814,0.7807 0.50441,0.7807 0.48066,0.7807 0.46032,0.76689 0.45352,0.74723 Z"
                                 style="fill:none;stroke:#231f20;stroke-width:0.00906686;stroke-linecap:butt;stroke-linejoin:miter;stroke-miterlimit:4;stroke-dasharray:none;stroke-opacity:1"
                                 id="path5328"
                                 inkscape:connector-curvature="0" />
                              <path
                                 d="m 0.6644,0.55816 -0.00622,0.08012 -0.04979,0 -0.00586,-0.01831 c 0,0 0.00761,0 0.00771,0 L 0.58567,0.58561 0.5822,0.63828 l -0.05049,0 -0.00573,-0.01823 0.00769,-8e-5 -0.03298,-0.04411 -0.02715,10e-5 c -0.00285,0 -0.01381,0.00231 -0.01381,0.0143 0,0.01199 0.01294,0.02939 0.02609,0.02939 L 0.49134,0.61953 C 0.49041,0.61658 0.48846,0.61044 0.48846,0.61044 l 0.02418,0 0.0087,0.02784 -0.03739,1.2e-4 C 0.46213,0.63858 0.44218,0.6237 0.43627,0.60863 l 0.00971,0.02963 -0.03319,2e-5 -0.00585,-0.01831 0.00858,4e-5 -0.00863,-0.02681 -0.02167,0.04497 -0.03106,0 -0.00583,-0.0182 0.00851,0 -0.01923,-0.06178 0.02481,0 c 0,0 0.00957,0.03062 0.01203,0.0385 0.00348,-0.00745 0.01806,-0.0385 0.01806,-0.0385 l 0.02763,1e-5 0.01264,0.03923 C 0.43166,0.59159 0.4316,0.58546 0.43277,0.57943 0.43521,0.56657 0.44939,0.55819 0.46488,0.55819 l 0.05014,0 0.00861,0.01149 0.03537,0 7.1e-4,-0.01137 0.03137,0 0.00798,0.01137 0.03618,0 0.00141,-0.01149 0.02775,-3e-5 z m -0.04955,0.03097 0.01918,0.02564 9.8e-4,-0.02564 -0.02016,0 z m -0.07697,-3.4e-4 0.01921,0.02573 0.00104,-0.02573 -0.02025,0"
                                 style="fill:#ffffff;fill-opacity:1;fill-rule:nonzero;stroke:none"
                                 id="path5330"
                                 inkscape:connector-curvature="0" />
                              <path
                                 d="m 0.075502,0.43848 c 2e-6,1e-5 3.3e-5,2.4e-4 3.3e-5,2.4e-4 0,0 -1.9e-5,-1.3e-4 -3.3e-5,-2.4e-4"
                                 style="fill:#231f20;fill-opacity:1;fill-rule:nonzero;stroke:none"
                                 id="path5332"
                                 inkscape:connector-curvature="0" />
                              <path
                                 d="m 0.075502,0.43848 c 2e-6,1e-5 3.3e-5,2.4e-4 3.3e-5,2.4e-4 0,0 -1.9e-5,-1.3e-4 -3.3e-5,-2.4e-4 z"
                                 style="fill:none;stroke:#231f20;stroke-width:0.00906686;stroke-linecap:butt;stroke-linejoin:miter;stroke-miterlimit:4;stroke-dasharray:none;stroke-opacity:1"
                                 id="path5334"
                                 inkscape:connector-curvature="0" />
                              <path
                                 d="m 0.075502,0.43848 c -7e-6,-6e-5 -2.9e-5,-10e-5 -3.4e-5,-1.6e-4 -3e-6,-3e-5 -2.9e-5,-3.3e-4 -2.9e-5,-3.3e-4 0,0 3.6e-5,2.7e-4 6.3e-5,4.9e-4"
                                 style="fill:#231f20;fill-opacity:1;fill-rule:nonzero;stroke:none"
                                 id="path5336"
                                 inkscape:connector-curvature="0" />
                              <path
                                 d="m 0.075502,0.43848 c -7e-6,-6e-5 -2.9e-5,-10e-5 -3.4e-5,-1.6e-4 -3e-6,-3e-5 -2.9e-5,-3.3e-4 -2.9e-5,-3.3e-4 0,0 3.6e-5,2.7e-4 6.3e-5,4.9e-4 z"
                                 style="fill:none;stroke:#231f20;stroke-width:0.00906686;stroke-linecap:butt;stroke-linejoin:miter;stroke-miterlimit:4;stroke-dasharray:none;stroke-opacity:1"
                                 id="path5338"
                                 inkscape:connector-curvature="0" />
                              <path
                                 d="m 0.075502,0.38503 c 2e-6,1e-5 3.3e-5,2.5e-4 3.3e-5,2.5e-4 0,0 -1.9e-5,-1.4e-4 -3.3e-5,-2.5e-4"
                                 style="fill:#231f20;fill-opacity:1;fill-rule:nonzero;stroke:none"
                                 id="path5340"
                                 inkscape:connector-curvature="0" />
                              <path
                                 d="m 0.075502,0.38503 c 2e-6,1e-5 3.3e-5,2.5e-4 3.3e-5,2.5e-4 0,0 -1.9e-5,-1.4e-4 -3.3e-5,-2.5e-4 z"
                                 style="fill:none;stroke:#231f20;stroke-width:0.00906686;stroke-linecap:butt;stroke-linejoin:miter;stroke-miterlimit:4;stroke-dasharray:none;stroke-opacity:1"
                                 id="path5342"
                                 inkscape:connector-curvature="0" />
                              <path
                                 d="m 0.075502,0.38503 c -7e-6,-5e-5 -2.9e-5,-10e-5 -3.4e-5,-1.5e-4 -3e-6,-3e-5 -2.9e-5,-3.4e-4 -2.9e-5,-3.4e-4 0,0 3.6e-5,2.8e-4 6.3e-5,4.9e-4"
                                 style="fill:#231f20;fill-opacity:1;fill-rule:nonzero;stroke:none"
                                 id="path5344"
                                 inkscape:connector-curvature="0" />
                              <path
                                 d="m 0.075502,0.38503 c -7e-6,-5e-5 -2.9e-5,-10e-5 -3.4e-5,-1.5e-4 -3e-6,-3e-5 -2.9e-5,-3.4e-4 -2.9e-5,-3.4e-4 0,0 3.6e-5,2.8e-4 6.3e-5,4.9e-4 z"
                                 style="fill:none;stroke:#231f20;stroke-width:0.00906686;stroke-linecap:butt;stroke-linejoin:miter;stroke-miterlimit:4;stroke-dasharray:none;stroke-opacity:1"
                                 id="path5346"
                                 inkscape:connector-curvature="0" />
                              <path
                                 d="m 0.98183,0.30146 c -0.01097,0.0065 -0.02507,0.01316 -0.04645,0.01316 -0.00707,0 -0.01359,-0.00107 -0.01965,-0.00298 -0.00484,0 -0.06951,0 -0.09774,0 l 0,0.23238 -0.11552,0 0,-0.01859 c -0.00821,0 -0.01893,0 -0.01908,0 -0.00261,5.8e-4 -0.00511,0.00102 -0.00741,0.00102 -0.00227,0 -0.00469,-2.8e-4 -0.00709,-7.1e-4 4.7e-4,0.0044 0.00149,0.01404 0.00149,0.01404 l -0.04694,0 c 0,0 0.00101,-0.00981 0.00148,-0.01445 -0.00285,7e-4 -0.00579,0.00112 -0.00873,0.00112 -0.00271,0 -0.00541,-4.5e-4 -0.00808,-0.00102 -3e-5,0 -0.03956,0 -0.03956,0 0,0 0,-2e-4 0,-2.2e-4 C 0.56515,0.52597 0.56159,0.52645 0.55781,0.52645 0.5485,0.52645 0.54012,0.52356 0.53347,0.51843 0.52784,0.52357 0.52016,0.52645 0.51112,0.52645 0.50638,0.52645 0.50198,0.52539 0.49784,0.5237 0.49376,0.52538 0.4893,0.52645 0.48432,0.52645 c -0.00277,0 -0.00554,-4.4e-4 -0.00826,-0.00102 -2e-5,0 -0.04,0 -0.04,0 0,0 0,-4.4e-4 0,-5.6e-4 -0.00378,9.5e-4 -0.00773,0.00158 -0.01197,0.00158 -0.00193,0 -0.00386,-1.7e-4 -0.0058,-4.3e-4 0,0.00434 0,0.01376 0,0.01376 l -0.11835,0 0,-0.02747 c -0.00966,0.00527 -0.02126,0.0084 -0.03359,0.0084 -0.01021,0 -0.02001,-0.00232 -0.02861,-0.0063 l 0,0.02962 -0.188864,0 0,-2.6e-4 C 0.045645,0.54444 0.042177,0.5448 0.038458,0.5448 0.017589,0.5448 0.002941,0.53212 0.002008,0.51325 l 1.18e-4,-0.01865 -1.39e-4,-0.00806 0,-0.02601 3.95e-4,0 C 8.8e-4,0.45615 5.3e-5,0.45129 5.3e-5,0.44596 5.3e-5,0.44008 6.07e-4,0.43134 0.0054,0.42339 0.006416,0.42165 0.007628,0.42007 0.008922,0.41856 0.00325,0.41204 5.3e-5,0.40316 5.3e-5,0.39251 5.3e-5,0.38663 6.07e-4,0.37789 0.0054,0.36995 0.006365,0.36829 0.007501,0.36678 0.008716,0.36535 0.004752,0.36073 0.002366,0.35497 0.002008,0.34836 l 1.18e-4,-0.01703 -1.39e-4,-0.00737 0,-0.03216 0.046889,0 0,-1.7e-4 0.118494,0 c 0,0 0,0.07368 0,0.10049 0.01004,0 0.02696,0 0.04154,0 l 0,-0.08149 -1e-4,0 0,-0.252399 0.11913,0 c 0,0 0,0.008796 0,0.020932 0.00624,0 0.02159,0 0.02328,0 0.00335,-7.75e-4 0.00643,-8.24e-4 0.00834,-8.24e-4 0.00452,0 0.00859,5.91e-4 0.01217,0.001701 l 0,-8.77e-4 0.3175,0 0,0.015364 C 0.69518,0.084359 0.7067,0.078339 0.72186,0.078339 c 0.00848,0 0.01583,0.00188 0.0217,0.005314 l 0,-0.00449 0.10658,0 0,0.005053 C 0.85615,0.08044 0.86379,0.078339 0.8727,0.078339 c 0.02255,0 0.03713,0.013282 0.03713,0.033821 0,0.00989 -0.0034,0.01806 -0.00941,0.02391 l 0.02005,0.0078 0,0.07497 c 0,0.00544 0.00134,0.00752 0.0016,0.00771 4.3e-4,3e-4 0.00247,0.00108 0.00674,0.00108 0.00538,0 0.00717,-4.6e-4 0.00987,-0.00114 l 0.02235,-0.00547 0.0088,0.0163 0.0301,0.05341 -0.0181,0.01073"
                                 style="fill:#231f20;fill-opacity:1;fill-rule:nonzero;stroke:none"
                                 id="path5348"
                                 inkscape:connector-curvature="0" />
                              <g
                                 id="g5350">
                                <g
                                   id="g5352"
                                   clip-path="url(#clipPath5354)">
                                <path
                                   d="m 0.98183,0.30146 c -0.01097,0.0065 -0.02507,0.01316 -0.04645,0.01316 -0.00707,0 -0.01359,-0.00107 -0.01965,-0.00298 -0.00484,0 -0.06951,0 -0.09774,0 l 0,0.23238 -0.11552,0 0,-0.01859 c -0.00821,0 -0.01893,0 -0.01908,0 -0.00261,5.8e-4 -0.00511,0.00102 -0.00741,0.00102 -0.00227,0 -0.00469,-2.8e-4 -0.00709,-7.1e-4 4.7e-4,0.0044 0.00149,0.01404 0.00149,0.01404 l -0.04694,0 c 0,0 0.00101,-0.00981 0.00148,-0.01445 -0.00285,7e-4 -0.00579,0.00112 -0.00873,0.00112 -0.00271,0 -0.00541,-4.5e-4 -0.00808,-0.00102 -3e-5,0 -0.03956,0 -0.03956,0 0,0 0,-2e-4 0,-2.2e-4 C 0.56515,0.52597 0.56159,0.52645 0.55781,0.52645 0.5485,0.52645 0.54012,0.52356 0.53347,0.51843 0.52784,0.52357 0.52016,0.52645 0.51112,0.52645 0.50638,0.52645 0.50198,0.52539 0.49784,0.5237 0.49376,0.52538 0.4893,0.52645 0.48432,0.52645 c -0.00277,0 -0.00554,-4.4e-4 -0.00826,-0.00102 -2e-5,0 -0.04,0 -0.04,0 0,0 0,-4.4e-4 0,-5.6e-4 -0.00378,9.5e-4 -0.00773,0.00158 -0.01197,0.00158 -0.00193,0 -0.00386,-1.7e-4 -0.0058,-4.3e-4 0,0.00434 0,0.01376 0,0.01376 l -0.11835,0 0,-0.02747 c -0.00966,0.00527 -0.02126,0.0084 -0.03359,0.0084 -0.01021,0 -0.02001,-0.00232 -0.02861,-0.0063 l 0,0.02962 -0.188864,0 0,-2.6e-4 C 0.045645,0.54444 0.042177,0.5448 0.038458,0.5448 0.017589,0.5448 0.002941,0.53212 0.002008,0.51325 l 1.18e-4,-0.01865 -1.39e-4,-0.00806 0,-0.02601 3.95e-4,0 C 8.8e-4,0.45615 5.3e-5,0.45129 5.3e-5,0.44596 5.3e-5,0.44008 6.07e-4,0.43134 0.0054,0.42339 0.006416,0.42165 0.007628,0.42007 0.008922,0.41856 0.00325,0.41204 5.3e-5,0.40316 5.3e-5,0.39251 5.3e-5,0.38663 6.07e-4,0.37789 0.0054,0.36995 0.006365,0.36829 0.007501,0.36678 0.008716,0.36535 0.004752,0.36073 0.002366,0.35497 0.002008,0.34836 l 1.18e-4,-0.01703 -1.39e-4,-0.00737 0,-0.03216 0.046889,0 0,-1.7e-4 0.118494,0 c 0,0 0,0.07368 0,0.10049 0.01004,0 0.02696,0 0.04154,0 l 0,-0.08149 -1e-4,0 0,-0.252399 0.11913,0 c 0,0 0,0.008796 0,0.020932 0.00624,0 0.02159,0 0.02328,0 0.00335,-7.75e-4 0.00643,-8.24e-4 0.00834,-8.24e-4 0.00452,0 0.00859,5.91e-4 0.01217,0.001701 l 0,-8.77e-4 0.3175,0 0,0.015364 C 0.69518,0.084359 0.7067,0.078339 0.72186,0.078339 c 0.00848,0 0.01583,0.00188 0.0217,0.005314 l 0,-0.00449 0.10658,0 0,0.005053 C 0.85615,0.08044 0.86379,0.078339 0.8727,0.078339 c 0.02255,0 0.03713,0.013282 0.03713,0.033821 0,0.00989 -0.0034,0.01806 -0.00941,0.02391 l 0.02005,0.0078 0,0.07497 c 0,0.00544 0.00134,0.00752 0.0016,0.00771 4.3e-4,3e-4 0.00247,0.00108 0.00674,0.00108 0.00538,0 0.00717,-4.6e-4 0.00987,-0.00114 l 0.02235,-0.00547 0.0088,0.0163 0.0301,0.05341 -0.0181,0.01073 z"
                                   style="fill:none;stroke:#231f20;stroke-width:0.00906686;stroke-linecap:butt;stroke-linejoin:miter;stroke-miterlimit:4;stroke-dasharray:none;stroke-opacity:1"
                                   id="path5358"
                                   inkscape:connector-curvature="0" />
                                </g>
                              </g>
                              <path
                                 d="m 0.017541,0.50794 c 5.07e-4,0.0091 0.00776,0.01409 0.019907,0.01409 0.004724,0 0.010037,-6.9e-4 0.013833,-0.00297 0.003459,-0.00209 0.005482,-0.006 0.005482,-0.00929 0,-0.0055 -0.004048,-0.00929 -0.008518,-0.01334 C 0.043437,0.4922 0.038208,0.48815 0.032725,0.48442 0.031375,0.48348 0.030026,0.48259 0.028591,0.48171 l 0.0194,0 0,0.00663 0.009533,0 0,-0.01232 -0.039983,0 0,0.00828 c 0.00405,0.00291 0.008099,0.00588 0.012063,0.00885 0.003373,0.00259 0.006831,0.00518 0.009784,0.00802 0.0027,0.0026 0.005567,0.00531 0.005567,0.00873 0,0.00335 -0.002699,0.00638 -0.007507,0.00638 -0.006158,0 -0.008435,-0.00436 -0.008435,-0.00834 l -0.011472,0"
                                 style="fill:#ffd659;fill-opacity:1;fill-rule:nonzero;stroke:none"
                                 id="path5360"
                                 inkscape:connector-curvature="0" />
                              <path
                                 d="m 0.037786,0.42181 c 0.003458,0 0.007505,8.9e-4 0.010375,0.00228 0.006831,0.00341 0.009193,0.01018 0.009867,0.01599 2.54e-4,0.00164 4.22e-4,0.00322 4.22e-4,0.00487 0,0.00543 -4.22e-4,0.01068 -0.003542,0.01561 -0.00135,0.00221 -0.003796,0.00449 -0.006495,0.00588 -0.003374,0.0017 -0.006157,0.00215 -0.010205,0.00215 -0.016871,0 -0.020583,-0.01239 -0.020583,-0.02263 0,-0.00506 5.07e-4,-0.01068 0.00329,-0.0153 0.003206,-0.0055 0.008604,-0.00885 0.016871,-0.00885 z m 1.68e-4,0.04115 c 0.002867,0 0.004892,-8.8e-4 0.006157,-0.00284 C 0.045377,0.45809 0.046052,0.45512 0.046388,0.45291 0.04681,0.45051 0.04698,0.44804 0.04698,0.44564 0.04698,0.444 0.046895,0.44236 0.04681,0.44071 0.046726,0.43926 0.046558,0.4378 0.046388,0.43635 0.045798,0.43288 0.044365,0.4277 0.038208,0.4277 c -0.005821,0 -0.007592,0.00435 -0.008351,0.00783 -6.76e-4,0.0031 -8.44e-4,0.00537 -8.44e-4,0.00847 0,0.00379 2.54e-4,0.00759 0.001181,0.01131 6.74e-4,0.00316 0.002447,0.00765 0.00776,0.00765"
                                 style="fill:#ffd659;fill-opacity:1;fill-rule:nonzero;stroke:none"
                                 id="path5362"
                                 inkscape:connector-curvature="0" />
                              <path
                                 d="m 0.037786,0.36837 c 0.003458,0 0.007505,8.8e-4 0.010375,0.00228 0.006831,0.00341 0.009193,0.01017 0.009867,0.01599 2.54e-4,0.00164 4.22e-4,0.00322 4.22e-4,0.00486 0,0.00544 -4.22e-4,0.01068 -0.003542,0.01561 C 0.053558,0.40933 0.051112,0.4116 0.048413,0.41299 0.045039,0.4147 0.042256,0.41514 0.038208,0.41514 c -0.016871,0 -0.020583,-0.01239 -0.020583,-0.02263 0,-0.00505 5.07e-4,-0.01068 0.00329,-0.01529 0.003206,-0.0055 0.008604,-0.00885 0.016871,-0.00885 z m 1.68e-4,0.04115 c 0.002867,0 0.004892,-8.9e-4 0.006157,-0.00285 C 0.045377,0.40465 0.046052,0.40168 0.046388,0.39947 0.04681,0.39707 0.04698,0.3946 0.04698,0.3922 0.04698,0.39055 0.046895,0.38891 0.04681,0.38727 0.046726,0.38581 0.046558,0.38436 0.046388,0.38291 0.045798,0.37943 0.044365,0.37425 0.038208,0.37425 c -0.005821,0 -0.007592,0.00436 -0.008351,0.00784 -6.76e-4,0.00309 -8.44e-4,0.00537 -8.44e-4,0.00846 0,0.0038 2.54e-4,0.00759 0.001181,0.01132 6.74e-4,0.00316 0.002447,0.00765 0.00776,0.00765"
                                 style="fill:#ffd659;fill-opacity:1;fill-rule:nonzero;stroke:none"
                                 id="path5364"
                                 inkscape:connector-curvature="0" />
                              <path
                                 d="m 0.017541,0.3476 c 5.07e-4,0.00911 0.00776,0.0141 0.019907,0.0141 0.004724,0 0.010037,-7e-4 0.013833,-0.00297 C 0.05474,0.35664 0.056763,0.35272 0.056763,0.34944 0.056763,0.34394 0.052715,0.34015 0.048245,0.3361 0.043437,0.33186 0.038208,0.32782 0.032725,0.32409 0.031375,0.32314 0.030026,0.32226 0.028591,0.32137 l 0.0194,0 0,0.00664 0.009533,0 0,-0.01233 -0.039983,0 0,0.00828 c 0.00405,0.00291 0.008099,0.00588 0.012063,0.00886 0.003373,0.00259 0.006831,0.00518 0.009784,0.00802 0.0027,0.00259 0.005567,0.00531 0.005567,0.00872 0,0.00335 -0.002699,0.00639 -0.007507,0.00639 -0.006158,0 -0.008435,-0.00437 -0.008435,-0.00835 l -0.011472,0"
                                 style="fill:#ffd659;fill-opacity:1;fill-rule:nonzero;stroke:none"
                                 id="path5366"
                                 inkscape:connector-curvature="0" />
                              <g
                                 id="g5368">
                                <g
                                   id="g5370">
                                <g
                                   id="g5376">
                                <path
                                   d="m 0.37343,0.25623 -0.07037,0 0,-0.04312 0.06905,0 0,-0.03246 -0.06905,0 0,-0.100489 -0.06937,0 0,0.208529 0.13974,0 0,-0.03246"
                                   style="fill:url(#linearGradient5378);stroke:none"
                                   id="path5384"
                                   inkscape:connector-curvature="0" />
                                </g>
                                </g>
                              </g>
                              <g
                                 id="g5386">
                                <g
                                   id="g5388">
                                <g
                                   id="g5394">
                                <path
                                   d="m 0.49049,0.16283 c 0.05655,0 0.09471,0.028 0.09471,0.06641 0,0.04014 -0.04637,0.06344 -0.09471,0.06344 -0.04834,0 -0.09437,-0.0233 -0.09437,-0.06344 0,-0.03841 0.03814,-0.06641 0.09437,-0.06641 z m 0,0.10779 c 0.02137,0 0.02796,-0.02279 0.02796,-0.04138 0,-0.01957 -0.00593,-0.04436 -0.02796,-0.04436 -0.02202,0 -0.02762,0.02479 -0.02762,0.04436 0,0.01859 0.00625,0.04138 0.02762,0.04138"
                                   style="fill:url(#linearGradient5396);stroke:none"
                                   id="path5402"
                                   inkscape:connector-curvature="0" />
                                </g>
                                </g>
                              </g>
                              <g
                                 id="g5404">
                                <g
                                   id="g5406">
                                <g
                                   id="g5412">
                                <path
                                   d="m 0.72363,0.1829 -6.7e-4,0 C 0.70916,0.16977 0.69174,0.16283 0.66773,0.16283 c -0.0342,0 -0.05458,0.01587 -0.05458,0.04708 l 0,0.07979 0.06575,0 0,-0.07532 c 0,-0.00818 0.00593,-0.01835 0.02106,-0.01835 0.00656,0 0.023,0.00298 0.023,0.02305 l 0,0.07062 0.06576,0 0,-0.1239 -0.06509,0 0,0.0171"
                                   style="fill:url(#linearGradient5414);stroke:none"
                                   id="path5420"
                                   inkscape:connector-curvature="0" />
                                </g>
                                </g>
                              </g>
                              <g
                                 id="g5422">
                                <g
                                   id="g5424">
                                <g
                                   id="g5430">
                                <path
                                   d="m 0.8956,0.25774 6.6e-4,0 0.00494,0.0099 c 0.00295,0.00546 0.01019,0.02504 0.03418,0.02504 0.01415,0 0.02336,-0.00397 0.03256,-0.00942 L 0.94756,0.24708 C 0.94328,0.24807 0.93934,0.24956 0.92881,0.24956 0.9137,0.24956 0.8956,0.24411 0.8956,0.21884 l 0,-0.05304 -0.06576,0 0,0.1239 0.06576,0 0,-0.03196"
                                   style="fill:url(#linearGradient5432);stroke:none"
                                   id="path5438"
                                   inkscape:connector-curvature="0" />
                                </g>
                                </g>
                              </g>
                              <g
                                 id="g5440">
                                <g
                                   id="g5442">
                                <g
                                   id="g5448">
                                <path
                                   d="m 0.23183,0.47325 c 0,0.01338 0.0171,0.02553 0.03452,0.02553 0.01777,0 0.03518,-0.0114 0.03518,-0.02553 0,-0.01487 -0.01741,-0.02601 -0.0355,-0.02601 -0.0171,0 -0.0342,0.01114 -0.0342,0.02601 z M 0.2338,0.4393 l 0.065762,0 0,-0.1239 -0.065762,0 0,0.1239 z"
                                   style="fill:url(#linearGradient5450);stroke:none"
                                   id="path5456"
                                   inkscape:connector-curvature="0" />
                                </g>
                                </g>
                              </g>
                              <g
                                 id="g5458">
                                <g
                                   id="g5460">
                                <g
                                   id="g5466">
                                <path
                                   d="m 0.39591,0.42542 c 0.01382,0.01141 0.03025,0.01686 0.05491,0.01686 0.03847,0 0.05886,-0.01586 0.05886,-0.04708 l 0,-0.0798 -0.06577,0 0,0.07781 c 0,0.00818 -0.00624,0.01809 -0.02102,0.01809 -0.01712,0 -0.02634,-0.00818 -0.02634,-0.02354 l 0,-0.07236 -0.06575,0 0,0.1239 0.06511,0 0,-0.01388"
                                   style="fill:url(#linearGradient5468);stroke:none"
                                   id="path5474"
                                   inkscape:connector-curvature="0" />
                                </g>
                                </g>
                              </g>
                              <g
                                 id="g5476">
                                <g
                                   id="g5478">
                                <g
                                   id="g5484">
                                <path
                                   d="m 0.63364,0.32879 c 0,-0.00446 0.00132,-0.01066 0.00297,-0.01339 l 0.06839,0 C 0.70072,0.32408 0.69942,0.33523 0.69942,0.34563 l 0,0.04486 c 0,0.04212 -0.03914,0.05179 -0.0786,0.05179 -0.02237,0 -0.04671,-0.00322 -0.07333,-0.01686 l 0.01808,-0.0223 c 0.01118,0.00745 0.02533,0.01339 0.04342,0.01339 0.01085,0 0.02268,-0.0057 0.02696,-0.0124 L 0.59813,0.39718 C 0.55309,0.38875 0.53302,0.37586 0.53302,0.34935 c 0,-0.02205 0.02499,-0.03692 0.04768,-0.03692 0.01511,0 0.03091,0.00768 0.04374,0.01263 l 0.0092,0.00373 z m 0.00197,0.05748 c 0.0023,-0.0332 -0.01447,-0.0446 -0.02598,-0.0446 -0.00853,0 -0.0171,0.00619 -0.0171,0.01438 0,0.01165 0.01021,0.02106 0.02434,0.02478 l 0.01874,0.00544"
                                   style="fill:url(#linearGradient5486);stroke:none"
                                   id="path5492"
                                   inkscape:connector-curvature="0" />
                                </g>
                                </g>
                              </g>
                              <g
                                 id="g5494">
                                <g
                                   id="g5496">
                                <g
                                   id="g5502">
                                <path
                                   d="m 0.79311,0.3154 -0.065759,0 0,0.20669 0.065759,0 0,-0.20669 z"
                                   style="fill:url(#linearGradient5504);stroke:none"
                                   id="path5510"
                                   inkscape:connector-curvature="0" />
                                </g>
                                </g>
                              </g>
                              <g
                                 id="g5512">
                                <g
                                   id="g5514">
                                <g
                                   id="g5520">
                                <path
                                   d="m 0.21286,0.48963 -0.07036,0 0,-0.04312 0.06905,0 0,-0.03246 -0.06905,0 0,-0.10049 -0.069383,0 0,0.20854 0.139743,0 0,-0.03247"
                                   style="fill:url(#linearGradient5522);stroke:none"
                                   id="path5528"
                                   inkscape:connector-curvature="0" />
                                </g>
                                </g>
                              </g>
                              <path
                                 d="m 0.36453,0.13952 0.01147,0 0,-0.01572 -0.01193,0 c 0,0.0039 -0.00155,0.00861 -0.00829,0.00861 -0.00427,0 -0.00737,-0.0015 -0.00737,-0.00451 0,-0.00348 0.0021,-0.00424 0.01442,-0.00848 0.00938,-0.00321 0.01442,-0.00587 0.01442,-0.01462 0,-0.010518 -0.00744,-0.015035 -0.01915,-0.015035 -0.00535,0 -0.00953,6.85e-4 -0.01248,0.004855 l -1.5e-4,0 0,-0.004031 -0.01194,0 0,0.016941 0.01271,0 c 0,-0.00279 3.9e-4,-0.00525 0.00194,-0.00704 0.00155,-0.001768 0.00387,-0.002797 0.00752,-0.002797 0.00372,0 0.00666,0.001918 0.00666,0.005337 0,0.00369 -0.00217,0.00492 -0.01418,0.00853 -0.00705,0.00213 -0.01419,0.00513 -0.01419,0.01313 0,0.01059 0.00613,0.01565 0.01806,0.01565 0.00411,0 0.01023,-9.7e-4 0.01233,-0.00458 l 1.5e-4,0 0,0.00376"
                                 style="fill:#ffd659;fill-opacity:1;fill-rule:nonzero;stroke:none"
                                 id="path5530"
                                 inkscape:connector-curvature="0" />
                              <path
                                 d="m 0.4191,0.098517 -0.00573,0 0,-0.007928 0.02441,0 0,0.007928 -0.00318,0 -0.01697,0.041003 -0.01721,0 -0.01713,-0.041003 -0.00333,0 0,-0.007928 0.02232,0 0,0.007928 -0.00597,0 0.00233,0.006083 0.01821,0 0.00225,-0.006083 z m -0.0055,0.013593 -0.01171,0 0.00582,0.01729 1.5e-4,0 0.00574,-0.01729"
                                 style="fill:#ffd659;fill-opacity:1;fill-rule:nonzero;stroke:none"
                                 id="path5532"
                                 inkscape:connector-curvature="0" />
                              <path
                                 d="m 0.48212,0.13159 -0.00597,0 0,0.00793 0.02194,0 0,-0.00793 -0.0045,0 0,-0.041001 -0.01852,0 -0.01806,0.037861 -1.6e-4,0 0,-0.029933 0.00612,0 0,-0.007928 -0.02271,0 0,0.007928 0.00512,0 0,0.033073 -0.00512,0 0,0.00793 0.02473,0 0.01698,-0.03684 1.5e-4,0 0,0.02891"
                                 style="fill:#ffd659;fill-opacity:1;fill-rule:nonzero;stroke:none"
                                 id="path5534"
                                 inkscape:connector-curvature="0" />
                              <path
                                 d="m 0.5584,0.098517 -0.00573,0 0,-0.007928 0.02441,0 0,0.007928 -0.00318,0 -0.01697,0.041003 -0.01721,0 -0.01713,-0.041003 -0.00333,0 0,-0.007928 0.02232,0 0,0.007928 -0.00597,0 0.00233,0.006083 0.01822,0 0.00224,-0.006083 z m -0.0055,0.013593 -0.01171,0 0.00581,0.01729 1.6e-4,0 0.00574,-0.01729"
                                 style="fill:#ffd659;fill-opacity:1;fill-rule:nonzero;stroke:none"
                                 id="path5536"
                                 inkscape:connector-curvature="0" />
                              <path
                                 d="m 0.62142,0.13159 -0.00597,0 0,0.00793 0.02194,0 0,-0.00793 -0.0045,0 0,-0.041001 -0.01852,0 -0.01807,0.037861 -1.5e-4,0 0,-0.029933 0.00613,0 0,-0.007928 -0.02272,0 0,0.007928 0.00512,0 0,0.033073 -0.00512,0 0,0.00793 0.02473,0 0.01697,-0.03684 1.6e-4,0 0,0.02891"
                                 style="fill:#ffd659;fill-opacity:1;fill-rule:nonzero;stroke:none"
                                 id="path5538"
                                 inkscape:connector-curvature="0" />
                              <path
                                 d="m 0.67808,0.13159 -0.0062,0 0,-0.033073 0.0062,0 0,-0.007928 -0.02728,0 0,0.007928 0.0062,0 0,0.033073 -0.0062,0 0,-0.00943 -0.01194,0 0,0.01736 0.05116,0 0,-0.01736 -0.01194,0 0,0.00943"
                                 style="fill:#ffd659;fill-opacity:1;fill-rule:nonzero;stroke:none"
                                 id="path5540"
                                 inkscape:connector-curvature="0" />
                              <path
                                 d="m 0.74784,0.11505 c 0,0.01469 -0.00938,0.02529 -0.02744,0.02529 -0.01806,0 -0.02744,-0.0106 -0.02744,-0.02529 0,-0.01469 0.00938,-0.025285 0.02744,-0.025285 0.01806,0 0.02744,0.010595 0.02744,0.025285 z m -0.0155,0 c 0,-0.00656 -0.00155,-0.017357 -0.01194,-0.017357 -0.01038,0 -0.01194,0.010797 -0.01194,0.017357 0,0.00656 0.00156,0.01736 0.01194,0.01736 0.01039,0 0.01194,-0.0108 0.01194,-0.01736"
                                 style="fill:#ffd659;fill-opacity:1;fill-rule:nonzero;stroke:none"
                                 id="path5542"
                                 inkscape:connector-curvature="0" />
                              <path
                                 d="m 0.79365,0.13159 -0.00597,0 0,0.00793 0.02194,0 0,-0.00793 -0.0045,0 0,-0.041001 -0.01852,0 -0.01807,0.037861 -1.5e-4,0 0,-0.029933 0.00612,0 0,-0.007928 -0.02271,0 0,0.007928 0.00512,0 0,0.033073 -0.00512,0 0,0.00793 0.02473,0 0.01698,-0.03684 1.5e-4,0 0,0.02891"
                                 style="fill:#ffd659;fill-opacity:1;fill-rule:nonzero;stroke:none"
                                 id="path5544"
                                 inkscape:connector-curvature="0" />
                              <path
                                 d="m 0.81853,0.13159 -0.00558,0 0,0.00793 0.02604,0 0,-0.00793 -0.00558,0 0,-0.033073 0.00558,0 0,-0.007928 -0.02604,0 0,0.007928 0.00558,0 0,0.033073"
                                 style="fill:#ffd659;fill-opacity:1;fill-rule:nonzero;stroke:none"
                                 id="path5546"
                                 inkscape:connector-curvature="0" />
                              <path
                                 d="m 0.89868,0.11505 c 0,0.01469 -0.00938,0.02529 -0.02744,0.02529 -0.01806,0 -0.02744,-0.0106 -0.02744,-0.02529 0,-0.01469 0.00938,-0.025285 0.02744,-0.025285 0.01806,0 0.02744,0.010595 0.02744,0.025285 z m -0.0155,0 c 0,-0.00656 -0.00155,-0.017357 -0.01194,-0.017357 -0.01039,0 -0.01194,0.010797 -0.01194,0.017357 0,0.00656 0.00155,0.01736 0.01194,0.01736 0.01039,0 0.01194,-0.0108 0.01194,-0.01736"
                                 style="fill:#ffd659;fill-opacity:1;fill-rule:nonzero;stroke:none"
                                 id="path5548"
                                 inkscape:connector-curvature="0" />
                              <path
                                 d="m 0.95438,0.19963 c 0,-0.00637 -0.00514,-0.01064 -0.0112,-0.01064 l 0,3e-5 c -0.00623,-3e-5 -0.01126,0.00424 -0.01126,0.01061 0,0.00637 0.00503,0.01061 0.01126,0.01061 0.00606,0 0.0112,-0.00424 0.0112,-0.01061 z m 0.00453,0 c 0,0.00875 -0.00743,0.01383 -0.01573,0.01383 -0.00834,0 -0.01577,-0.00508 -0.01577,-0.01383 0,-0.00874 0.00743,-0.01383 0.01577,-0.01383 0.0083,0 0.01573,0.00509 0.01573,0.01383 z m -0.01834,-0.00117 0.00169,0 0.0039,-0.00626 0.00427,0 -0.00431,0.00651 c 0.00225,1.6e-4 0.00407,0.00114 0.00407,0.00389 0,0.0034 -0.00257,0.0045 -0.00693,0.0045 l -0.00631,0 0,-0.0149 0.00362,0 0,0.00626 z m 0,0.00253 0,0.00358 0.00253,0 c 0.00136,0 0.00323,-1.1e-4 0.00323,-0.00165 0,-0.00164 -9.6e-4,-0.00193 -0.00258,-0.00193 l -0.00318,0"
                                 style="fill:#231f20;fill-opacity:1;fill-rule:nonzero;stroke:none"
                                 id="path5550"
                                 inkscape:connector-curvature="0" />
                              <path
                                 d="m 0.70781,0.48242 10e-6,-3.1e-4 c 0,1e-4 0,2.1e-4 -10e-6,3.1e-4"
                                 style="fill:#231f20;fill-opacity:1;fill-rule:nonzero;stroke:none"
                                 id="path5552"
                                 inkscape:connector-curvature="0" />
                              <path
                                 d="m 0.70781,0.48242 10e-6,-3.1e-4 c 0,1e-4 0,2.1e-4 -10e-6,3.1e-4 z"
                                 style="fill:none;stroke:#231f20;stroke-width:0.00906686;stroke-linecap:butt;stroke-linejoin:miter;stroke-miterlimit:4;stroke-dasharray:none;stroke-opacity:1"
                                 id="path5554"
                                 inkscape:connector-curvature="0" />
                              <path
                                 d="m 0.31626,0.52538 0.02397,0 0,-0.00702 -0.0077,0 0.00885,-0.03742 9e-5,0 0.01132,0.04444 0.01433,0 0.01026,-0.04444 9e-5,0 0.0099,0.03742 -0.00787,0 0,0.00702 0.02247,0 0,-0.00702 -0.00389,0 -0.01318,-0.0488 -0.01468,0 -0.01044,0.04436 -9e-5,0 -0.01185,-0.04436 -0.01477,0 -0.01256,0.0488 -0.00425,0 0,0.00702"
                                 style="fill:#e1393e;fill-opacity:1;fill-rule:nonzero;stroke:none"
                                 id="path5556"
                                 inkscape:connector-curvature="0" />
                              <path
                                 d="m 0.42444,0.46862 c 0.01451,0 0.02292,0.00959 0.02292,0.0216 0,0.01255 -0.00815,0.02183 -0.02327,0.02183 C 0.41808,0.51205 0.4118,0.51002 0.40764,0.50612 0.40304,0.50176 0.40145,0.49646 0.40145,0.49061 c 0,-0.00538 0.0015,-0.01084 0.00539,-0.01513 0.00399,-0.00437 0.01124,-0.00686 0.0176,-0.00686 z m 0,0.03657 c 0.00398,0 0.00682,-0.00226 0.0085,-0.00515 C 0.4347,0.49693 0.43506,0.49396 0.43506,0.49053 0.43506,0.48764 0.4347,0.48406 0.43338,0.48133 0.43179,0.47813 0.42887,0.47548 0.42462,0.47548 c -0.00398,0 -0.00699,0.00227 -0.00867,0.00523 -0.00186,0.00311 -0.00221,0.00623 -0.00221,0.00966 0,0.00577 0.00221,0.01482 0.0107,0.01482"
                                 style="fill:#e1393e;fill-opacity:1;fill-rule:nonzero;stroke:none"
                                 id="path5558"
                                 inkscape:connector-curvature="0" />
                              <path
                                 d="m 0.46955,0.50425 c 0.003,0.0053 0.00796,0.0078 0.01477,0.0078 0.00628,0 0.01088,-0.00211 0.01309,-0.0078 0.00256,0.0053 0.0076,0.0078 0.01371,0.0078 0.00672,0 0.0115,-0.00273 0.0138,-0.0078 0.00115,-0.00257 8e-4,-0.00444 8e-4,-0.00647 l 0,-0.02159 0.00574,0 0,-0.00663 -0.02308,0 0,0.00663 0.00557,0 0,0.01847 c 0,0.00421 -6.2e-4,0.00975 -0.00699,0.00975 C 0.50351,0.50441 0.50104,0.503 0.49953,0.5002 0.49803,0.49747 0.49803,0.49513 0.49803,0.49217 l 0,-0.01598 0.00548,0 0,-0.00663 -0.02264,0 0,0.00663 0.0054,0 0,0.01918 c 0,0.00233 0,0.00413 -0.00116,0.00631 C 0.48423,0.50332 0.48193,0.50441 0.4799,0.50441 0.47495,0.50441 0.47229,0.50176 0.47097,0.49786 0.47035,0.49583 0.47035,0.49388 0.47035,0.49178 l 0,-0.01559 0.00566,0 0,-0.00663 -0.02362,0 0,0.00663 0.00619,0 0,0.02822 -0.00619,0 0,0.00663 0.01716,0 0,-0.00679"
                                 style="fill:#e1393e;fill-opacity:1;fill-rule:nonzero;stroke:none"
                                 id="path5560"
                                 inkscape:connector-curvature="0" />
                              <path
                                 d="m 0.57958,0.48819 c 0,2.4e-4 8e-5,3.9e-4 8e-5,6.2e-4 1.8e-4,0.00117 0,0.00235 -8e-5,0.00359 C 0.57931,0.49708 0.57816,0.50293 0.57436,0.50651 0.57002,0.51057 0.56409,0.51205 0.55781,0.51205 c -0.01423,0 -0.02157,-0.00998 -0.02157,-0.02136 0,-0.00523 0.00142,-0.01068 0.00513,-0.0149 C 0.5434,0.47338 0.54544,0.47182 0.54853,0.47057 0.55127,0.46948 0.55534,0.46862 0.55835,0.46862 c 0.00955,0 0.01981,0.00444 0.02061,0.01357 l -0.01123,0 C 0.56693,0.47821 0.56366,0.4754 0.55896,0.4754 c -0.00804,0 -0.01087,0.00687 -0.01078,0.01279 l 0.0314,0 z M 0.54844,0.4942 c 5.4e-4,0.00545 0.00292,0.01138 0.01035,0.01138 0.00672,0 0.00885,-0.00671 0.00894,-0.01138 l -0.01929,0"
                                 style="fill:#e1393e;fill-opacity:1;fill-rule:nonzero;stroke:none"
                                 id="path5562"
                                 inkscape:connector-curvature="0" />
                              <path
                                 d="m 0.60204,0.50425 c 0.00301,0.0053 0.00752,0.0078 0.01415,0.0078 0.00725,0 0.01274,-0.00397 0.0138,-0.0078 6.2e-4,-0.00218 6.2e-4,-0.00382 6.2e-4,-0.00561 l 0,-0.02245 0.00583,0 0,-0.00663 -0.02308,0 0,0.00663 0.00548,0 0,0.01863 c 0,0.00202 9e-5,0.00366 -6.2e-4,0.00569 -7.9e-4,0.00249 -0.00318,0.00437 -0.00627,0.00437 -0.00858,0 -0.00911,-0.0071 -0.00911,-0.01287 l 0,-0.01582 0.00566,0 0,-0.00663 -0.02362,0 0,0.00663 0.00619,0 0,0.02822 -0.00619,0 0,0.00663 0.01716,0 0,-0.00679"
                                 style="fill:#e1393e;fill-opacity:1;fill-rule:nonzero;stroke:none"
                                 id="path5564"
                                 inkscape:connector-curvature="0" />
                              <path
                                 d="m 0.64361,0.503 -0.0023,0.02238 0.01114,0 -0.00239,-0.02238 -0.00645,0"
                                 style="fill:#e1393e;fill-opacity:1;fill-rule:nonzero;stroke:none"
                                 id="path5566"
                                 inkscape:connector-curvature="0" />
                              <path
                                 d="m 0.68677,0.4977 c -5.3e-4,0.00445 -0.00239,0.00811 -0.00805,0.00811 -0.0038,0 -0.00734,-0.00148 -0.00734,-0.0053 0,-0.00133 4.4e-4,-0.00218 0.00142,-0.0032 C 0.67359,0.49677 0.67457,0.49653 0.67545,0.49614 0.68049,0.4949 0.68996,0.49427 0.69349,0.49037 0.69588,0.4878 0.69676,0.48538 0.69676,0.48211 0.69685,0.47969 0.69561,0.47595 0.69384,0.47377 0.69172,0.47119 0.68659,0.46862 0.67996,0.46862 c -0.00443,0 -0.0092,0.00179 -0.01159,0.00515 l 0,-0.00421 -0.00849,0 0,0.01442 0.0092,0 C 0.66943,0.47884 0.672,0.47525 0.67828,0.47525 c 0.00327,0 0.00663,0.00203 0.00663,0.00514 0,0.00156 -5.3e-4,0.00343 -0.0023,0.00421 C 0.67731,0.48687 0.67085,0.48632 0.66581,0.48928 0.66147,0.49193 0.6598,0.49552 0.6598,0.50012 0.65936,0.50355 0.66165,0.50605 0.66289,0.5076 c 0.00177,0.00219 0.0076,0.00445 0.01309,0.00445 0.00407,0 0.00867,-0.00156 0.01114,-0.00445 l 0,0.00344 0.00831,0 0,-0.01334 -0.00866,0"
                                 style="fill:#e1393e;fill-opacity:1;fill-rule:nonzero;stroke:none"
                                 id="path5568"
                                 inkscape:connector-curvature="0" />
                            </g>
                          </g>
                        </g>
                      </g>
                    </g>
                  </g>
                </g>
              </g>
            </g>
          </g>
        </g>
      </g>
    </g>
  </g>
</svg>
