<?xml version="1.0" encoding="UTF-8" standalone="no"?>
<!-- Created with Inkscape (http://www.inkscape.org/) -->

<svg
   xmlns:dc="http://purl.org/dc/elements/1.1/"
   xmlns:cc="http://creativecommons.org/ns#"
   xmlns:rdf="http://www.w3.org/1999/02/22-rdf-syntax-ns#"
   xmlns:svg="http://www.w3.org/2000/svg"
   xmlns="http://www.w3.org/2000/svg"
   xmlns:sodipodi="http://sodipodi.sourceforge.net/DTD/sodipodi-0.dtd"
   xmlns:inkscape="http://www.inkscape.org/namespaces/inkscape"
   width="210"
   height="161"
   viewBox="0 0 210 161"
   id="svg39582"
   version="1.1"
   inkscape:version="0.91 r13725"
   sodipodi:docname="2010 ncaa womens final four.svg">
  <defs
     id="defs39584">
    <clipPath
       id="clipPath28417"
       clipPathUnits="userSpaceOnUse">
      <path
         inkscape:connector-curvature="0"
         id="path28419"
         d="m 411.2,617.586 181.8,0 0,127.614 -181.8,0 0,-127.614 z" />
    </clipPath>
    <clipPath
       id="clipPath28397"
       clipPathUnits="userSpaceOnUse">
      <path
         inkscape:connector-curvature="0"
         id="path28399"
         d="m 411.2,617.586 167.143,0 0,127.614 -167.143,0 0,-127.614 z" />
    </clipPath>
    <clipPath
       id="clipPath28293"
       clipPathUnits="userSpaceOnUse">
      <path
         inkscape:connector-curvature="0"
         id="path28295"
         d="m 411.2,617.586 181.8,0 0,127.614 -181.8,0 0,-127.614 z" />
    </clipPath>
  </defs>
  <sodipodi:namedview
     id="base"
     pagecolor="#ffffff"
     bordercolor="#666666"
     borderopacity="1.0"
     inkscape:pageopacity="0.0"
     inkscape:pageshadow="2"
     inkscape:zoom="3.3726708"
     inkscape:cx="105"
     inkscape:cy="80.5"
     inkscape:document-units="px"
     inkscape:current-layer="layer1"
     showgrid="false"
     units="px"
     inkscape:window-width="1280"
     inkscape:window-height="744"
     inkscape:window-x="-4"
     inkscape:window-y="-4"
     inkscape:window-maximized="1" />
  <metadata
     id="metadata39587">
    <rdf:RDF>
      <cc:Work
         rdf:about="">
        <dc:format>image/svg+xml</dc:format>
        <dc:type
           rdf:resource="http://purl.org/dc/dcmitype/StillImage" />
        <dc:title></dc:title>
      </cc:Work>
    </rdf:RDF>
  </metadata>
  <g
     inkscape:label="Layer 1"
     inkscape:groupmode="layer"
     id="layer1"
     transform="translate(0,-891.36216)">
    <g
       id="g28289"
       transform="matrix(1.25,0,0,-1.25,-513.46425,1823.6034)">
      <g
         id="g28291"
         clip-path="url(#clipPath28293)">
        <g
           id="g28297"
           transform="translate(572.0774,660.8208)">
          <path
             d="m 0,0 c 2.23,2.571 3.513,5.711 4.249,9.07 l 0.003,0.007 c 0.379,1.719 0.591,3.418 0.591,5.108 0.025,3.581 -1.042,7.206 -3.334,10.025 -0.282,0.35 -0.58,0.68 -0.889,0.999 l 1.499,0 4.146,21.928 -7.063,0 3.759,17.012 -7.452,-0.001 c -0.002,0.378 -0.018,0.847 -0.111,1.403 -0.022,0.119 -0.046,0.244 -0.076,0.373 l 0,2.041 0,0.278 c -0.001,0.286 -0.002,0.664 -0.044,1.112 -0.056,0.455 -0.096,0.965 -0.451,1.732 -0.332,0.694 -0.837,1.209 -1.312,1.556 -0.725,0.52 -1.399,0.742 -2,0.89 -0.606,0.141 -1.145,0.191 -1.653,0.193 -0.474,-0.003 -1.009,-0.04 -1.584,-0.179 l -5.723,0 -2.583,0 -0.31,0 -5.267,0 -5.591,0 -10e-4,-0.007 c -0.68,0.003 -1.332,0.007 -2.074,0.007 l -1.231,0 c -0.518,0.125 -1.034,0.177 -1.528,0.179 -0.496,-0.002 -1.02,-0.052 -1.55,-0.179 l -0.421,0 0,0 -5.563,0 -3.563,0 -5.543,0 0.132,-0.262 c -0.724,0.287 -1.484,0.428 -2.24,0.429 -0.453,0 -0.951,-0.044 -1.468,-0.167 l -4.661,0 -0.666,-0.866 c -0.302,0.207 -0.618,0.381 -0.939,0.521 -0.788,0.35 -1.627,0.511 -2.459,0.512 -0.859,0 -1.885,-0.16 -2.888,-0.72 -0.975,0.536 -2.006,0.716 -2.965,0.72 -0.645,-0.001 -1.331,-0.096 -2.008,-0.343 l 0.147,0.66 -33.584,0 -0.433,-2.037 c -3.426,7.316 -10.851,12.385 -19.463,12.385 -11.866,0 -21.484,-9.618 -21.484,-21.483 0,-6.819 3.18,-12.892 8.133,-16.827 l -5.739,0 -15.622,-67.8 29.487,0 4.99,22.116 4.043,0 c 0,-0.023 -0.001,-0.045 -0.001,-0.069 0.016,-5.696 1.42,-11.143 4.696,-15.465 1.286,-1.686 2.838,-3.123 4.56,-4.252 3.227,-2.126 7.064,-3.139 11.055,-3.216 l 0.073,-0.002 c 0.152,-0.002 0.306,-0.003 0.458,-0.003 l 0.077,0 c 5.535,0 10.484,1.718 14.4,4.431 2.059,1.42 3.839,3.089 5.384,4.9 0.434,-0.784 0.93,-1.535 1.5,-2.242 0.974,-1.211 2.124,-2.275 3.403,-3.159 3.844,-2.653 8.554,-3.667 13.747,-3.672 l 0.065,0 c 5.773,0 11.131,1.342 15.589,4.11 l -0.771,-3.48 53.317,0 -8.021,19.14 C -1.797,-1.843 -0.847,-0.984 0,0"
             style="fill:#000a18;fill-opacity:1;fill-rule:nonzero;stroke:none"
             id="path28299"
             inkscape:connector-curvature="0" />
        </g>
        <g
           id="g28301"
           transform="translate(470.067,638.2021)">
          <path
             d="m 0,0 c -0.013,0 -0.025,0.001 -0.037,0.002 l -0.006,0 L 0,0 Z"
             style="fill:#000a18;fill-opacity:1;fill-rule:nonzero;stroke:none"
             id="path28303"
             inkscape:connector-curvature="0" />
        </g>
        <g
           id="g28305"
           transform="translate(572.2723,642.1976)">
          <path
             d="m 0,0 0,0.412 0.31,0 C 0.472,0.412 0.641,0.385 0.641,0.219 0.641,0.014 0.468,0 0.277,0 L 0,0 Z m 0,-0.17 0.263,0 0.402,-0.577 0.259,0 -0.436,0.59 c 0.226,0.021 0.393,0.123 0.393,0.361 0,0.261 -0.175,0.38 -0.532,0.38 l -0.578,0 0,-1.331 0.229,0 0,0.577 z m 0.278,-1.064 c 0.715,0 1.33,0.487 1.33,1.154 0,0.664 -0.615,1.151 -1.33,1.151 -0.723,0 -1.338,-0.487 -1.338,-1.151 0,-0.667 0.615,-1.154 1.338,-1.154 m -1.074,1.154 c 0,0.545 0.473,0.959 1.074,0.959 0.593,0 1.064,-0.414 1.064,-0.959 0,-0.551 -0.471,-0.961 -1.064,-0.961 -0.601,0 -1.074,0.41 -1.074,0.961"
             style="fill:#ffffff;fill-opacity:1;fill-rule:nonzero;stroke:none"
             id="path28307"
             inkscape:connector-curvature="0" />
        </g>
        <g
           id="g28309"
           transform="translate(498.572,646.2939)">
          <path
             d="m 0,0 c 0.228,-0.204 0.809,-0.71 1.263,-1.024 2.553,-1.778 6.097,-2.681 10.573,-2.681 5.645,0 10.386,1.442 14.067,4.19 3.959,2.959 6.688,7.434 7.976,13.269 l 0.275,1.235 5.131,23.207 -1.342,1.346 -15.574,0 -4.817,-21.775 c 0,0 -1.159,-4.599 -2.136,-5.366 -0.546,-0.424 -1.248,-0.635 -2.211,-0.635 -0.25,0 -0.472,0.015 -0.671,0.041 -0.081,0.917 0.633,4.169 0.633,4.169 l 4.918,22.22 -1.345,1.346 -15.578,0 -5.319,-24.045 C -5.403,9.873 -4.779,5.462 -2.308,2.384 -2.308,2.384 -0.895,0.738 0,0"
             style="fill:#861a10;fill-opacity:1;fill-rule:nonzero;stroke:none"
             id="path28311"
             inkscape:connector-curvature="0" />
        </g>
        <g
           id="g28313"
           transform="translate(455.7817,680.2938)">
          <path
             d="m 0,0 -9.94,0 1.096,4.82 13.128,0 3.269,14.783 -1.346,1.346 -30.822,0 -13.058,-56.674 1.346,-1.346 17.996,0 4.997,22.145 11.671,0 L 1.346,-1.345 0,0 Z"
             style="fill:#104076;fill-opacity:1;fill-rule:nonzero;stroke:none"
             id="path28315"
             inkscape:connector-curvature="0" />
        </g>
        <g
           id="g28317"
           transform="translate(463.3245,644.6356)">
          <path
             d="m 0,0 c 2.235,-1.467 4.955,-2.235 8.14,-2.302 4.63,-0.078 8.514,1.257 11.7,3.448 6.061,4.172 9.602,11.447 10.943,18.035 l 0,0.006 c 1.296,6.511 -0.003,13.226 -3.381,17.523 -0.457,0.577 -0.944,1.108 -1.466,1.596 l -1.318,1.319 c -0.528,0.496 -1.089,0.945 -1.681,1.348 -2.572,1.743 -5.74,2.594 -9.359,2.499 C 9.17,43.325 5.249,41.906 1.989,39.391 -2.832,35.672 -6.215,29.555 -7.609,21.61 -8.827,14.883 -7.676,8.421 -4.54,4.326 -1.908,0.893 0,0 0,0"
             style="fill:#104076;fill-opacity:1;fill-rule:nonzero;stroke:none"
             id="path28319"
             inkscape:connector-curvature="0" />
        </g>
        <g
           id="g28321"
           transform="translate(552.3759,643.2202)">
          <path
             d="m 0,0 17.891,0 -5.902,14.086 c -0.346,0.804 -0.777,1.372 -1.198,1.838 5.329,1.972 7.865,4.914 9.11,10.528 0.305,1.387 0.461,2.692 0.461,3.907 0,2.598 -0.703,4.783 -2.105,6.526 l -2.28,2.345 C 13.568,41.449 9.81,42.615 4.992,42.615 l -17.286,0 L -21.428,1.346 -20.081,0 -4.795,0 -4.801,0.003 -2.99,8.757 -1.347,1.346 0,0 Z"
             style="fill:#861a10;fill-opacity:1;fill-rule:nonzero;stroke:none"
             id="path28323"
             inkscape:connector-curvature="0" />
        </g>
        <g
           id="g28325"
           transform="translate(486.3845,691.5698)">
          <path
             d="m 0,0 5.831,27.776 10.062,0 1.347,-1.347 -5.827,-27.775 -10.066,0 L 0,0 Z"
             style="fill:#104076;fill-opacity:1;fill-rule:nonzero;stroke:none"
             id="path28327"
             inkscape:connector-curvature="0" />
        </g>
        <g
           id="g28329"
           transform="translate(500.7348,690.2654)">
          <path
             d="M 0,0 9.386,0 11.672,10.773 14.79,1.345 16.136,0 l 8.88,0 10.52,-0.042 1.937,4.497 0,-0.001 3.896,0 0.075,-3.15 1.346,-1.346 9.998,0.036 -0.002,-0.01 0.014,0 -0.002,-0.012 0.017,0 -0.002,-0.014 17.422,0 2.032,10.743 -1.347,1.347 -5.643,0 3.465,15.685 -1.344,1.347 -10.073,0 -4.703,-22.298 -2.381,20.951 -1.346,1.347 -10.624,0 -11.146,-21.171 4.169,19.808 -1.344,1.346 -9.331,0 -2.187,-10.407 -3.159,9.061 -1.346,1.346 -9.384,0 L -1.344,1.345 0,0 Z"
             style="fill:#bfbebe;fill-opacity:1;fill-rule:nonzero;stroke:none"
             id="path28331"
             inkscape:connector-curvature="0" />
        </g>
        <g
           id="g28333"
           transform="translate(463.6357,690.2654)">
          <path
             d="m 0,0 12.614,0 2.637,12.476 8.429,0 2.119,9.894 -1.347,1.346 -6.764,0 0.618,3.229 9.383,0 2.391,10.686 -1.346,1.345 -22.088,0 L -1.347,1.345 0,0 Z"
             style="fill:#104076;fill-opacity:1;fill-rule:nonzero;stroke:none"
             id="path28335"
             inkscape:connector-curvature="0" />
        </g>
        <g
           id="g28337"
           transform="translate(553.8455,674.3633)">
          <path
             d="M 0,0 C 0.819,0.126 1.444,0.069 1.924,-0.1 2.212,-0.886 2.1,-1.685 2.1,-1.685 1.778,-5.193 -0.001,-6.117 -1.364,-6.297 L 0,0 Z"
             style="fill:#000a18;fill-opacity:1;fill-rule:nonzero;stroke:none"
             id="path28339"
             inkscape:connector-curvature="0" />
        </g>
        <g
           id="g28341"
           transform="translate(542.2671,702.626)">
          <path
             d="M 0,0 -1.079,0 -0.055,2.373 0,0 Z"
             style="fill:#000a18;fill-opacity:1;fill-rule:nonzero;stroke:none"
             id="path28343"
             inkscape:connector-curvature="0" />
        </g>
        <g
           id="g28345"
           transform="translate(486.4259,691.6287)">
          <path
             d="m 0,0 10.053,0 5.819,27.74 -10.049,0 L 0,0 Z"
             style="fill:#1476c6;fill-opacity:1;fill-rule:nonzero;stroke:none"
             id="path28347"
             inkscape:connector-curvature="0" />
        </g>
        <g
           id="g28349"
           transform="translate(508.7869,691.6701)">
          <path
             d="m 0,0 2.636,12.418 0,-0.005 L 6.742,0 l 9.313,0 5.825,27.681 -9.318,0 -2.513,-11.96 -4.17,11.96 -9.372,0 L -9.373,0 0,0 Z"
             style="fill:#ffffff;fill-opacity:1;fill-rule:nonzero;stroke:none"
             id="path28351"
             inkscape:connector-curvature="0" />
        </g>
        <g
           id="g28353"
           transform="translate(531.3628,662.7253)">
          <path
             d="m 0,0 5.128,23.177 -0.003,0 -15.552,0 -4.811,-21.746 -0.204,-0.914 c -0.492,-2.217 -0.952,-3.68 -1.926,-4.444 -0.545,-0.425 -1.248,-0.636 -2.211,-0.636 -0.906,0 -1.457,0.173 -1.733,0.515 -0.088,0.111 -0.152,0.252 -0.202,0.411 -0.267,0.898 0.078,2.463 0.364,3.761 l 0.192,0.861 4.91,22.192 0,0 -15.557,0 L -36.732,0 -36.918,-0.837 c -1.245,-5.616 -0.62,-10.02 1.847,-13.097 0.63,-0.782 1.37,-1.47 2.221,-2.059 2.553,-1.775 6.09,-2.676 10.56,-2.676 5.639,0 10.374,1.439 14.048,4.184 3.956,2.956 6.68,7.423 7.967,13.251 L 0,0 Z"
             style="fill:#ef2e31;fill-opacity:1;fill-rule:nonzero;stroke:none"
             id="path28355"
             inkscape:connector-curvature="0" />
        </g>
        <g
           id="g28357"
           transform="translate(477.5926,704.1302)">
          <path
             d="m 0,0 8.419,0 2.115,9.881 -8.356,0 0.874,4.57 9.37,0 2.388,10.671 -22.059,0 -7.983,-37.582 12.599,0 L 0,0 Z"
             style="fill:#1476c6;fill-opacity:1;fill-rule:nonzero;stroke:none"
             id="path28359"
             inkscape:connector-curvature="0" />
        </g>
        <g
           id="g28361"
           transform="translate(455.8623,680.3676)">
          <path
             d="m 0,0 -11.517,0 -0.069,-0.043 1.41,6.2 13.11,0 3.265,14.764 -30.782,0 -13.041,-56.6 17.973,0 4.99,22.116 11.656,0 L 0,0 Z"
             style="fill:#1476c6;fill-opacity:1;fill-rule:nonzero;stroke:none"
             id="path28363"
             inkscape:connector-curvature="0" />
        </g>
        <g
           id="g28365"
           transform="translate(486.3019,685.6748)">
          <path
             d="m 0,0 c -2.568,1.74 -5.733,2.592 -9.346,2.497 -4.403,-0.148 -8.318,-1.565 -11.575,-4.076 -4.815,-3.715 -8.193,-9.824 -9.586,-17.758 -1.215,-6.718 -0.066,-13.172 3.065,-17.261 0.918,-1.199 1.984,-2.184 3.191,-2.977 2.233,-1.465 4.948,-2.235 8.13,-2.299 4.624,-0.078 8.503,1.253 11.685,3.443 6.054,4.168 9.59,11.433 10.93,18.011 l 0,0.006 C 7.785,-13.911 6.489,-7.205 3.114,-2.913 2.207,-1.761 1.167,-0.79 0,0"
             style="fill:#1476c6;fill-opacity:1;fill-rule:nonzero;stroke:none"
             id="path28367"
             inkscape:connector-curvature="0" />
        </g>
        <g
           id="g28369"
           transform="translate(555.9457,672.6877)">
          <path
             d="m 0,0 c -0.535,-5.822 -5.081,-4.529 -5.081,-4.529 l 1.638,7.557 C 0.51,3.637 0,0 0,0 m 14.915,-1.584 c 0.306,1.386 0.462,2.689 0.462,3.901 0,2.595 -0.702,4.778 -2.101,6.519 -2.303,2.863 -6.417,4.379 -11.906,4.379 l -17.263,0 -9.122,-41.217 15.269,0 -0.007,0.003 2.311,11.183 2.482,-11.186 17.868,0 -5.894,14.065 c -0.344,0.806 -0.775,1.373 -1.195,1.838 5.322,1.97 7.853,4.906 9.096,10.515"
             style="fill:#ef2e31;fill-opacity:1;fill-rule:nonzero;stroke:none"
             id="path28371"
             inkscape:connector-curvature="0" />
        </g>
        <g
           id="g28373"
           transform="translate(539.2636,702.6345)">
          <path
             d="M 0,0 2.848,6.6 3.003,0 0,0 Z m 25.044,-0.277 3.76,17.011 -10.061,0 -5.47,-25.938 -2.949,25.938 -10.61,0 -14.58,-27.698 10.504,-0.042 1.936,4.491 0,-0.003 5.202,0 0.107,-4.488 10.017,0.036 -0.007,-0.036 0.04,0.036 0.003,0 -0.043,-0.036 17.401,0 2.028,10.729 -7.278,0 z"
             style="fill:#ffffff;fill-opacity:1;fill-rule:nonzero;stroke:none"
             id="path28375"
             inkscape:connector-curvature="0" />
        </g>
        <g
           id="g28377"
           transform="translate(460.5903,723.5073)">
          <path
             d="m 0,0 -4.312,0 -0.51,-1.798 0.67,0 -2.13,-3.376 L -6.58,0 l -4.375,0 -0.498,-1.79 0.668,-0.008 -2.857,-4.335 -2.352,0.01 c -0.246,0 -1.197,0.228 -1.197,1.405 0,1.178 1.121,2.888 2.261,2.888 l 0.477,-0.011 c -0.081,-0.291 -0.248,-0.894 -0.248,-0.894 l 2.094,0 0.754,2.735 -3.229,0.012 c -2.007,0 -3.629,-1.443 -4.141,-2.925 l 0.836,2.904 -2.871,0.009 -0.505,-1.798 0.742,0.003 -0.747,-2.633 -1.878,4.419 -2.689,0 -0.505,-1.79 0.737,0 -1.666,-6.07 2.151,0 c 0,0 0.826,3.008 1.04,3.783 0.302,-0.733 1.565,-3.783 1.565,-3.783 l 2.393,0 1.095,3.855 c -0.097,-0.574 -0.102,-1.174 -0.001,-1.768 0.211,-1.263 1.439,-2.087 2.781,-2.087 l 4.343,0 0.747,1.129 3.064,0 0.061,-1.117 2.717,0 0.691,1.117 3.134,0 0.123,-1.129 1.922,0 0.425,0.861 L 0,0 Z"
             style="fill:#ffffff;fill-opacity:1;fill-rule:nonzero;stroke:none"
             id="path28379"
             inkscape:connector-curvature="0" />
        </g>
        <g
           id="g28381"
           transform="translate(461.8337,714.3143)">
          <path
             d="m 0,0 0,0.457 0.306,0 C 0.461,0.457 0.627,0.424 0.627,0.242 0.627,0.015 0.458,0 0.268,0 L 0,0 Z m 0,-0.189 0.258,0 0.389,-0.64 0.251,0 -0.42,0.651 c 0.217,0.027 0.383,0.141 0.383,0.406 0,0.291 -0.174,0.42 -0.521,0.42 l -0.563,0 0,-1.477 0.223,0 0,0.64 z m 0.272,-1.182 c 0.698,0 1.294,0.542 1.294,1.284 0,0.735 -0.596,1.276 -1.294,1.276 -0.705,0 -1.301,-0.541 -1.301,-1.276 0,-0.742 0.596,-1.284 1.301,-1.284 m -1.043,1.284 c 0,0.606 0.456,1.064 1.043,1.064 0.579,0 1.036,-0.458 1.036,-1.064 0,-0.616 -0.457,-1.071 -1.036,-1.071 -0.587,0 -1.043,0.455 -1.043,1.071"
             style="fill:#1476c6;fill-opacity:1;fill-rule:nonzero;stroke:none"
             id="path28383"
             inkscape:connector-curvature="0" />
        </g>
        <g
           id="g28385"
           transform="translate(456.8355,718.679)">
          <path
             d="M 0,0 1.664,2.519 1.748,0 0,0 Z m -6.666,-0.034 1.665,2.528 0.089,-2.528 -1.754,0 z"
             style="fill:#1476c6;fill-opacity:1;fill-rule:nonzero;stroke:none"
             id="path28387"
             inkscape:connector-curvature="0" />
        </g>
        <g
           id="g28389"
           transform="translate(458.7252,715.6383)">
          <path
             d="m 0,0 -0.123,1.129 -3.134,0 -0.691,-1.117 -2.717,0 -0.061,1.117 -3.064,0 L -10.537,0 -14.88,0 c -1.342,0 -2.57,0.824 -2.781,2.087 -0.101,0.594 -0.095,1.194 0.001,1.768 L -18.755,0 -21.148,0 c 0,0 -1.263,3.05 -1.565,3.783 C -22.927,3.008 -23.753,0 -23.753,0 l -2.151,0 1.666,6.07 -0.737,0 0.505,1.79 2.689,0 1.878,-4.419 0.747,2.633 -0.742,-0.003 0.506,1.798 2.87,-0.009 -0.836,-2.904 c 0.512,1.482 2.135,2.925 4.142,2.925 l 3.228,-0.012 -0.754,-2.735 -2.094,0 c 0,0 0.167,0.603 0.248,0.894 l -0.477,0.011 c -1.14,0 -2.261,-1.71 -2.261,-2.888 0,-1.177 0.951,-1.405 1.197,-1.405 l 2.352,-0.01 2.858,4.335 -0.668,0.008 0.497,1.79 4.375,0 0.299,-5.174 2.129,3.376 -0.67,0 0.51,1.798 4.312,0 0.482,-7.008 c 0.959,2.101 1.494,4.436 1.494,6.896 0,9.181 -7.443,16.625 -16.624,16.625 -9.182,0 -16.626,-7.444 -16.626,-16.625 0,-9.182 7.444,-16.625 16.626,-16.625 6.379,0 11.919,3.595 14.706,8.868 L 0,0 Z"
             style="fill:#1476c6;fill-opacity:1;fill-rule:nonzero;stroke:none"
             id="path28391"
             inkscape:connector-curvature="0" />
        </g>
      </g>
    </g>
    <g
       id="g28393"
       transform="matrix(1.25,0,0,-1.25,-513.46425,1823.6034)">
      <g
         id="g28395"
         clip-path="url(#clipPath28397)">
        <g
           id="g28401"
           transform="translate(454.9156,622.6642)">
          <path
             d="m 0,0 c -9.525,0 -19.045,-0.625 -28.565,-2.308 l -0.548,-0.096 0,0.558 0,13.216 0,13.214 0,0.391 0.384,0.069 c 9.6,1.7 19.189,2.33 28.768,2.33 27.272,-0.004 54.468,-5.082 81.627,-5.079 9.523,0 19.04,0.623 28.556,2.302 l 0.548,0.097 0,-0.557 0,-26.431 0,-0.391 -0.385,-0.069 C 100.791,-4.452 91.204,-5.078 81.627,-5.078 54.356,-5.075 27.158,0.002 0,0"
             style="fill:#000a18;fill-opacity:1;fill-rule:nonzero;stroke:none"
             id="path28403"
             inkscape:connector-curvature="0" />
        </g>
        <g
           id="g28405"
           transform="translate(564.6527,620.4792)">
          <path
             d="m 0,0 c -45.965,-8.133 -91.85,8.568 -137.818,0.443 0.001,8.739 0.001,17.477 0.001,26.216 45.965,8.14 91.851,-8.565 137.819,-0.442 C 0.002,17.477 0.002,8.738 0,0"
             style="fill:#8f8b8d;fill-opacity:1;fill-rule:nonzero;stroke:none"
             id="path28407"
             inkscape:connector-curvature="0" />
        </g>
        <g
           id="g28409"
           transform="translate(551.1714,628.6605)">
          <path
             d="m 0,0 c -9.863,0.254 -44.08,3.162 -77.763,6.092 -33.685,2.928 -36.369,-1.464 -40.519,1.222 -2.036,1.316 -3.776,6.449 -5.023,11.337 -0.343,-0.058 -0.689,-0.113 -1.031,-0.173 0,-8.739 0,-17.478 -0.001,-26.216 45.969,8.125 91.853,-8.576 137.818,-0.443 0.002,8.737 0.002,17.477 0.002,26.217 C 13.376,18.015 13.268,17.999 13.161,17.981 10.489,12.073 8.317,-0.212 0,0"
             style="fill:#696566;fill-opacity:1;fill-rule:nonzero;stroke:none"
             id="path28411"
             inkscape:connector-curvature="0" />
        </g>
      </g>
    </g>
    <g
       id="g28413"
       transform="matrix(1.25,0,0,-1.25,-513.46425,1823.6034)">
      <g
         id="g28415"
         clip-path="url(#clipPath28417)">
        <g
           id="g28421"
           transform="translate(560.9691,632.983)">
          <path
             d="m 0,0 c 0,-1.119 -0.906,-2.023 -2.024,-2.023 -1.119,0 -2.024,0.904 -2.024,2.023 0,1.117 0.905,2.021 2.024,2.021 C -0.906,2.021 0,1.117 0,0"
             style="fill:#484546;fill-opacity:1;fill-rule:nonzero;stroke:none"
             id="path28423"
             inkscape:connector-curvature="0" />
        </g>
        <g
           id="g28425"
           transform="translate(560.9691,632.983)">
          <path
             d="m 0,0 c 0,-1.119 -0.906,-2.023 -2.024,-2.023 -1.119,0 -2.024,0.904 -2.024,2.023 0,1.117 0.905,2.021 2.024,2.021 C -0.906,2.021 0,1.117 0,0 Z"
             style="fill:none;stroke:#656263;stroke-width:0.44600001;stroke-linecap:butt;stroke-linejoin:miter;stroke-miterlimit:4;stroke-dasharray:none;stroke-opacity:1"
             id="path28427"
             inkscape:connector-curvature="0" />
        </g>
        <g
           id="g28429"
           transform="translate(560.3011,633.2261)">
          <path
             d="m 0,0 c 0,-0.838 -0.679,-1.517 -1.517,-1.517 -0.838,0 -1.519,0.679 -1.519,1.517 0,0.839 0.681,1.518 1.519,1.518 C -0.679,1.518 0,0.839 0,0"
             style="fill:#ffffff;fill-opacity:1;fill-rule:nonzero;stroke:none"
             id="path28431"
             inkscape:connector-curvature="0" />
        </g>
        <g
           id="g28433"
           transform="translate(435.2764,635.1038)">
          <path
             d="m 0,0 c 0,-1.118 -0.905,-2.023 -2.023,-2.023 -1.117,0 -2.024,0.905 -2.024,2.023 0,1.118 0.907,2.021 2.024,2.021 C -0.905,2.021 0,1.118 0,0"
             style="fill:#484546;fill-opacity:1;fill-rule:nonzero;stroke:none"
             id="path28435"
             inkscape:connector-curvature="0" />
        </g>
        <g
           id="g28437"
           transform="translate(435.2764,635.1038)">
          <path
             d="m 0,0 c 0,-1.118 -0.905,-2.023 -2.023,-2.023 -1.117,0 -2.024,0.905 -2.024,2.023 0,1.118 0.907,2.021 2.024,2.021 C -0.905,2.021 0,1.118 0,0 Z"
             style="fill:none;stroke:#656263;stroke-width:0.44600001;stroke-linecap:butt;stroke-linejoin:miter;stroke-miterlimit:4;stroke-dasharray:none;stroke-opacity:1"
             id="path28439"
             inkscape:connector-curvature="0" />
        </g>
        <g
           id="g28441"
           transform="translate(434.6099,635.3469)">
          <path
             d="m 0,0 c 0,-0.838 -0.679,-1.517 -1.517,-1.517 -0.838,0 -1.519,0.679 -1.519,1.517 0,0.839 0.681,1.519 1.519,1.519 C -0.679,1.519 0,0.839 0,0"
             style="fill:#ffffff;fill-opacity:1;fill-rule:nonzero;stroke:none"
             id="path28443"
             inkscape:connector-curvature="0" />
        </g>
        <g
           id="g28445"
           transform="translate(516.4271,641.0994)">
          <path
             d="M 0,0 0,0 0,0.001 0,0 Z m -31.313,-13.413 c -0.005,0.698 -0.008,1.197 -0.012,1.832 0.003,-0.001 0.008,-0.001 0.012,-0.001 l 0,-1.831 z m 53.574,-1.897 0,11.827 c 0.374,0.739 0.584,1.157 0.981,1.941 0.104,0.208 0.094,0.457 -0.029,0.655 -0.122,0.198 -0.34,0.32 -0.572,0.32 -0.556,-0.002 -1.058,-0.002 -1.526,-0.002 -1.587,0 -2.768,0.009 -4.227,0.039 -0.055,0.016 -0.112,0.024 -0.171,0.026 -1.846,0.04 -2.761,0.069 -4.608,0.145 -0.181,0.007 -0.361,-0.061 -0.492,-0.187 -0.132,-0.126 -0.207,-0.303 -0.207,-0.485 l 0,-3.017 c -0.315,0.988 -0.64,2.012 -1.058,3.324 -0.085,0.269 -0.327,0.455 -0.608,0.469 -1.838,0.085 -2.749,0.137 -4.59,0.25 C 4.913,0.011 4.686,-0.102 4.553,-0.303 4.42,-0.502 4.403,-0.756 4.509,-0.971 4.907,-1.783 5.117,-2.209 5.493,-2.978 l 0,-1.15 C 5.48,-4.015 5.464,-3.902 5.446,-3.788 5.231,-2.371 4.52,-1.259 3.535,-0.529 2.553,0.205 1.331,0.576 0.049,0.671 -0.165,0.686 -0.379,0.695 -0.59,0.695 c -1.174,0 -2.283,-0.253 -3.176,-0.888 -0.546,-0.385 -0.989,-0.915 -1.296,-1.568 l 0,1.883 c 0,0.35 -0.267,0.641 -0.615,0.67 -3.471,0.294 -5.204,0.453 -8.676,0.776 -0.034,0.003 -0.068,0.004 -0.101,0.002 -0.034,0.009 -0.067,0.015 -0.103,0.018 -1.848,0.172 -2.77,0.261 -4.619,0.437 -0.188,0.017 -0.376,-0.046 -0.516,-0.172 -0.14,-0.128 -0.218,-0.308 -0.218,-0.498 l 0,-2.951 c -0.316,1.004 -0.642,2.044 -1.06,3.377 -0.08,0.258 -0.31,0.443 -0.579,0.469 -1.838,0.173 -2.758,0.26 -4.597,0.43 -0.241,0.022 -0.475,-0.088 -0.613,-0.286 -0.139,-0.199 -0.159,-0.457 -0.055,-0.675 0.399,-0.826 0.609,-1.261 0.987,-2.042 0,-2.647 -10e-4,-5.294 -10e-4,-7.942 0,-0.699 -0.001,-1.397 0,-2.097 -0.622,4.23 -1.241,8.448 -1.86,12.668 -0.046,0.308 -0.295,0.543 -0.604,0.571 -2.448,0.224 -3.677,0.335 -6.129,0.54 -0.356,0.03 -0.674,-0.225 -0.722,-0.579 -0.571,-4.228 -1.141,-8.456 -1.711,-12.687 -0.023,-0.197 -0.329,-2.792 -0.549,-3.216 -0.103,-0.2 -0.099,-0.438 0.009,-0.635 0.109,-0.197 0.311,-0.325 0.534,-0.343 1.929,-0.154 2.889,-0.235 4.819,-0.402 0.189,-0.017 0.374,0.047 0.514,0.176 0.124,0.114 0.2,0.269 0.214,0.436 l 0,-0.063 c 0,-0.348 0.265,-0.637 0.613,-0.669 1.774,-0.156 2.744,-0.246 4.385,-0.397 0.014,-0.003 0.029,-0.004 0.045,-0.006 1.838,-0.171 2.758,-0.257 4.595,-0.429 0.19,-0.018 0.376,0.044 0.516,0.172 0.141,0.127 0.22,0.307 0.22,0.496 l 0,2.671 c 0.264,-0.911 0.543,-1.873 0.889,-3.07 0.076,-0.265 0.307,-0.457 0.582,-0.483 1.914,-0.18 2.873,-0.272 4.787,-0.448 0.241,-0.022 0.476,0.086 0.613,0.286 0.139,0.199 0.159,0.458 0.053,0.676 -0.407,0.841 -0.62,1.283 -1.006,2.086 l 0,10.26 c 0.1,-0.207 0.302,-0.357 0.543,-0.379 0.656,-0.062 1.068,-0.1 1.598,-0.149 l 0,-10.043 c -0.378,-0.716 -0.592,-1.12 -0.994,-1.883 -0.105,-0.198 -0.104,-0.435 0.004,-0.633 0.107,-0.197 0.305,-0.327 0.528,-0.349 2.54,-0.235 3.813,-0.351 6.355,-0.568 0.241,-0.02 0.473,0.09 0.611,0.29 0.137,0.199 0.157,0.455 0.051,0.673 -0.39,0.803 -0.595,1.229 -0.964,1.991 l 0,10.021 c 0.482,-0.04 0.886,-0.075 1.499,-0.127 0.083,-0.006 0.164,0.002 0.243,0.025 -0.035,-0.512 -0.034,-1.018 -0.035,-1.491 0,-0.018 10e-4,-0.033 10e-4,-0.042 l 0,-4.076 c 0,-0.463 -0.012,-0.936 -0.012,-1.42 0.002,-0.722 0.022,-1.466 0.145,-2.223 0.449,-2.878 2.838,-4.37 5.398,-4.526 0.207,-0.015 0.41,-0.023 0.612,-0.023 1.181,0.001 2.29,0.267 3.178,0.909 0.89,0.639 1.504,1.659 1.706,2.959 0.018,0.111 0.034,0.222 0.047,0.334 l 0,-1.32 c -0.372,-0.716 -0.58,-1.117 -0.976,-1.873 -0.106,-0.2 -0.102,-0.444 0.01,-0.642 0.112,-0.197 0.317,-0.325 0.544,-0.34 1.841,-0.114 2.767,-0.167 4.61,-0.253 0.184,-0.01 0.362,0.057 0.496,0.185 0.133,0.126 0.207,0.301 0.207,0.485 l 0,2.736 c 0.264,-0.897 0.542,-1.843 0.889,-3.021 0.081,-0.276 0.329,-0.469 0.617,-0.482 1.915,-0.078 2.88,-0.109 4.797,-0.156 0.021,0 0.042,0 0.064,0.002 1.907,-0.045 3.119,-0.064 4.915,-0.064 0.307,0 0.629,0.002 0.976,0.002 0.233,0 0.451,0.122 0.573,0.321 0.122,0.199 0.131,0.448 0.027,0.656 -0.399,0.78 -0.607,1.194 -0.981,1.935"
             style="fill:#000a18;fill-opacity:1;fill-rule:nonzero;stroke:none"
             id="path28447"
             inkscape:connector-curvature="0" />
        </g>
        <g
           id="g28449"
           transform="translate(551.0223,637.4394)">
          <path
             d="M 0,0 -0.663,-0.106 0,0.001 C -0.239,1.543 -1.018,2.717 -2.102,3.44 -3.183,4.165 -4.521,4.462 -5.929,4.464 -6.046,4.464 -6.164,4.462 -6.286,4.458 -7.792,4.406 -9.214,4.05 -10.351,3.25 c -1.139,-0.797 -1.946,-2.062 -2.188,-3.72 -0.129,-0.882 -0.128,-1.776 -0.128,-2.592 0,-0.011 0,-0.019 0,-0.026 l 0,-4.787 c 0,-0.546 -0.013,-1.108 -0.013,-1.68 0,-0.835 0.026,-1.691 0.167,-2.55 0.248,-1.554 1.02,-2.763 2.102,-3.531 1.08,-0.772 2.432,-1.116 3.86,-1.116 0.106,0 0.209,0.002 0.309,0.003 1.531,0.054 2.95,0.454 4.075,1.294 1.125,0.836 1.914,2.122 2.167,3.771 0.147,0.955 0.175,1.934 0.176,2.865 l 0,5.953 C 0.175,-1.939 0.152,-0.965 0,0"
             style="fill:#000a18;fill-opacity:1;fill-rule:nonzero;stroke:none"
             id="path28451"
             inkscape:connector-curvature="0" />
        </g>
        <g
           id="g28453"
           transform="translate(453.2672,636.4329)">
          <path
             d="m 0,0 c -0.741,1.042 -2.046,1.851 -3.232,2.594 -0.355,0.219 -0.699,0.427 -1.01,0.623 1.56,0.043 2.465,0.056 4.155,0.069 0.369,0.003 0.667,0.303 0.667,0.671 0,0.162 0.001,0.342 0.001,0.535 -0.013,1.141 0.004,2.664 -0.503,3.757 -0.499,1.013 -1.458,1.604 -2.45,1.959 -1.001,0.355 -2.077,0.486 -2.977,0.488 -0.096,0 -0.194,-0.002 -0.296,-0.006 -1.094,-0.038 -2.252,-0.243 -3.312,-0.783 -1.137,-0.573 -1.878,-1.39 -2.272,-2.332 -0.398,-0.941 -0.479,-1.961 -0.48,-3.031 -0.005,-1.749 0.34,-2.993 1.095,-3.959 0.751,-0.962 1.787,-1.59 3.085,-2.388 0.082,-0.05 0.194,-0.118 0.325,-0.198 -1.294,-0.053 -2.194,-0.102 -3.707,-0.199 -0.354,-0.022 -0.629,-0.315 -0.629,-0.67 l 0,-0.965 c 0.007,-1.126 0.007,-2.634 0.482,-3.84 0.463,-1.148 1.425,-1.863 2.454,-2.265 1.037,-0.406 2.175,-0.539 3.189,-0.541 0.121,0 0.237,0.003 0.348,0.006 1.87,0.072 4.371,0.638 5.476,2.726 0.522,1.05 0.572,2.341 0.58,3.321 C 0.977,-3.105 0.901,-1.326 0,0"
             style="fill:#000a18;fill-opacity:1;fill-rule:nonzero;stroke:none"
             id="path28455"
             inkscape:connector-curvature="0" />
        </g>
        <g
           id="g28457"
           transform="translate(476.9981,643.9714)">
          <path
             d="M 0,0 C 0.105,0.201 0.102,0.441 -0.008,0.639 -0.118,0.838 -0.32,0.967 -0.547,0.983 -2.393,1.117 -3.323,1.182 -5.173,1.296 -5.357,1.308 -5.539,1.241 -5.674,1.115 -5.809,0.988 -5.886,0.811 -5.886,0.625 l 0,-2.993 c -0.315,0.994 -0.64,2.022 -1.058,3.339 -0.085,0.268 -0.324,0.453 -0.604,0.467 -1.839,0.103 -2.767,0.15 -4.608,0.225 -0.238,0.011 -0.461,-0.106 -0.591,-0.304 -0.13,-0.2 -0.144,-0.451 -0.039,-0.664 0.397,-0.804 0.607,-1.228 0.982,-1.987 l 0,-10.1 c -0.62,4.194 -1.24,8.379 -1.86,12.563 -0.048,0.322 -0.317,0.562 -0.642,0.573 -2.45,0.083 -3.687,0.112 -6.139,0.137 -0.339,0.004 -0.629,-0.247 -0.674,-0.583 -0.569,-4.271 -1.14,-8.543 -1.71,-12.815 -0.023,-0.197 -0.024,-0.424 -0.025,-0.726 0,-0.493 0.014,-1.116 0.018,-1.453 -0.201,-0.404 -0.325,-0.649 -0.547,-1.095 -0.105,-0.209 -0.093,-0.456 0.03,-0.654 0.123,-0.198 0.339,-0.318 0.573,-0.318 l 0.406,0 c 1.665,0 2.615,-0.012 4.404,-0.047 0.182,-0.005 0.356,0.066 0.485,0.193 0.114,0.111 0.183,0.258 0.198,0.414 0.017,-0.349 0.3,-0.629 0.653,-0.638 1.792,-0.045 2.757,-0.078 4.422,-0.148 1.838,-0.076 2.752,-0.122 4.589,-0.226 0.185,-0.011 0.366,0.056 0.5,0.183 0.134,0.126 0.21,0.303 0.21,0.488 l 0,2.718 c 0.264,-0.901 0.542,-1.852 0.889,-3.035 0.079,-0.274 0.319,-0.466 0.603,-0.483 1.913,-0.119 2.864,-0.184 4.777,-0.323 0.016,-0.002 0.032,-0.002 0.048,-0.002 0.222,0 0.431,0.11 0.557,0.296 0.135,0.198 0.176,0.467 0.048,0.671 -1.006,1.591 -1.004,4.637 -1.004,5.925 0,2.627 0,5.253 0,7.877 0.379,0.724 0.593,1.133 0.995,1.9"
             style="fill:#000a18;fill-opacity:1;fill-rule:nonzero;stroke:none"
             id="path28459"
             inkscape:connector-curvature="0" />
        </g>
        <g
           id="g28461"
           transform="translate(458.7357,635.1367)">
          <path
             d="m 0,0 c 0.166,2.285 0.793,6.829 0.804,6.829 0,0 0.372,-4.567 0.618,-6.84 C 0.855,-0.004 0.57,-0.001 0,0 m 17.423,9.635 c -1.847,0.134 -2.772,0.199 -4.618,0.313 l 0,-7.341 C 11.856,5.603 11.382,7.1 10.434,10.091 8.595,10.193 7.673,10.239 5.835,10.315 6.255,9.464 6.466,9.039 6.887,8.187 l 0,-12.147 C 6.542,-4.624 6.337,-5.024 6.042,-5.593 5.762,-4.803 5.65,-2.875 5.609,-2.563 4.97,1.756 4.33,6.075 3.69,10.395 c -2.45,0.083 -3.674,0.113 -6.125,0.138 -0.57,-4.273 -1.14,-8.544 -1.71,-12.816 -0.042,-0.33 -0.371,-2.99 -0.618,-3.485 1.93,0.002 2.895,-0.011 4.825,-0.048 -0.008,1.171 -0.013,1.757 -0.022,2.929 0.545,-0.011 0.817,-0.017 1.362,-0.031 l 0,-2.929 c 1.792,-0.045 2.766,-0.077 4.434,-0.148 l -0.001,0 c 1.838,-0.076 2.76,-0.122 4.599,-0.227 l 0,7.405 c 0.883,-3.01 1.322,-4.517 2.205,-7.533 1.913,-0.119 2.871,-0.184 4.784,-0.325 -1.137,1.778 -1.071,10.243 -1.072,14.264 0.429,0.817 0.643,1.228 1.072,2.046"
             style="fill:#ffffff;fill-opacity:1;fill-rule:nonzero;stroke:none"
             id="path28463"
             inkscape:connector-curvature="0" />
        </g>
        <g
           id="g28465"
           transform="translate(484.1391,633.6296)">
          <path
             d="m 0,0 c 0.165,2.276 0.793,6.777 0.804,6.774 0,0 0.372,-4.587 0.618,-6.877 C 0.853,-0.06 0.57,-0.041 0,0 m 17.424,8.878 c -1.848,0.171 -2.772,0.259 -4.62,0.436 l 0,-7.343 c -0.947,3.027 -1.422,4.541 -2.37,7.567 -1.84,0.174 -2.759,0.26 -4.598,0.431 0.42,-0.873 0.631,-1.309 1.052,-2.18 0,-4.047 -0.001,-8.098 0,-12.144 C 6.543,-5.007 6.336,-5.395 6.043,-5.95 5.911,-5.673 5.798,-5.438 5.63,-5.084 5.63,-4.692 5.649,-3.21 5.609,-2.897 4.969,1.458 4.331,5.812 3.691,10.167 1.243,10.39 0.017,10.5 -2.433,10.706 -3.004,6.479 -3.574,2.25 -4.144,-1.981 -4.185,-2.303 -4.516,-4.94 -4.762,-5.417 c 1.929,-0.152 2.893,-0.232 4.824,-0.401 -0.009,1.171 -0.013,1.758 -0.021,2.931 0.545,-0.05 0.817,-0.074 1.361,-0.121 l 0,-2.929 c 1.794,-0.159 2.766,-0.25 4.434,-0.402 l 0,-0.002 c 1.839,-0.17 2.758,-0.258 4.598,-0.43 l 0,7.398 c 0.883,-3.043 1.322,-4.563 2.206,-7.611 1.913,-0.179 2.87,-0.271 4.784,-0.448 -0.429,0.888 -0.643,1.333 -1.072,2.224 l 0,12.062 c 0.429,0.809 0.643,1.213 1.072,2.024"
             style="fill:#ffffff;fill-opacity:1;fill-rule:nonzero;stroke:none"
             id="path28467"
             inkscape:connector-curvature="0" />
        </g>
        <g
           id="g28469"
           transform="translate(501.7688,639.1261)">
          <path
             d="m 0,0 c 0.882,-0.083 1.323,-0.124 2.207,-0.204 l 0,-10.825 c -0.429,-0.811 -0.645,-1.216 -1.073,-2.027 2.54,-0.235 3.81,-0.35 6.35,-0.567 -0.412,0.852 -0.618,1.277 -1.032,2.129 l 0,10.909 C 7.344,-0.663 7.79,-0.701 8.68,-0.775 l 0,3.358 C 5.209,2.877 3.472,3.038 0,3.36 L 0,0 Z"
             style="fill:#ffffff;fill-opacity:1;fill-rule:nonzero;stroke:none"
             id="path28471"
             inkscape:connector-curvature="0" />
        </g>
        <g
           id="g28473"
           transform="translate(516.1611,627.3406)">
          <path
             d="M 0,0 C -0.247,0.021 -0.466,0.144 -0.556,0.392 -0.621,0.574 -0.64,1.657 -0.64,1.924 l 0,7.857 c 0,0.349 0.038,1.188 0.186,1.45 0.113,0.194 0.269,0.247 0.497,0.231 0.72,-0.054 0.639,-1.056 0.639,-1.572 l 0,-8.125 C 0.682,1.229 0.806,-0.058 0,0 m 0.021,14.247 c -2.432,0.18 -4.419,-0.713 -4.804,-3.253 -0.105,-0.692 -0.104,-1.436 -0.104,-2.136 l 0,-4.103 c 0,-1.176 -0.064,-2.368 0.124,-3.536 0.408,-2.525 2.414,-3.789 4.784,-3.962 2.433,-0.179 4.383,0.763 4.784,3.282 0.12,0.753 0.144,1.558 0.144,2.341 l 0,5.095 c 0,0.783 -0.021,1.587 -0.144,2.38 -0.391,2.518 -2.412,3.719 -4.784,3.892"
             style="fill:#ffffff;fill-opacity:1;fill-rule:nonzero;stroke:none"
             id="path28475"
             inkscape:connector-curvature="0" />
        </g>
        <g
           id="g28477"
           transform="translate(533.5249,626.1675)">
          <path
             d="m 0,0 c -0.345,-0.675 -0.552,-1.077 -0.846,-1.655 -0.303,0.606 -0.513,1.027 -0.868,1.739 0,4.021 10e-4,8.04 0,12.061 0.353,0.687 0.563,1.097 0.863,1.683 C -0.553,13.232 -0.348,12.822 0,12.126 L 0,0 Z M 5.299,14.181 C 2.784,14.175 1.34,14.178 -0.65,14.223 c 0.003,0.007 0.006,0.013 0.009,0.02 -1.847,0.042 -2.771,0.071 -4.619,0.146 l 0,-7.342 c -0.946,2.976 -1.421,4.464 -2.37,7.445 -1.84,0.087 -2.758,0.14 -4.599,0.253 0.422,-0.859 0.631,-1.287 1.053,-2.146 l 0,-12.145 c -0.422,-0.809 -0.631,-1.213 -1.053,-2.019 1.841,-0.114 2.759,-0.165 4.599,-0.253 l 0,7.405 c 0.882,-3.004 1.324,-4.505 2.207,-7.5 1.913,-0.079 2.87,-0.11 4.785,-0.156 l -0.003,0.002 C 1.632,-2.122 2.9,-2.137 5.299,-2.13 4.878,-1.3 4.668,-0.883 4.245,-0.05 l 0,12.148 c 0.423,0.83 0.633,1.248 1.054,2.083"
             style="fill:#ffffff;fill-opacity:1;fill-rule:nonzero;stroke:none"
             id="path28479"
             inkscape:connector-curvature="0" />
        </g>
        <g
           id="g28481"
           transform="translate(446.9036,640.7968)">
          <path
             d="m 0,0 c -0.216,0.401 -0.241,0.979 -0.241,1.437 0,0.604 0.097,1.451 0.893,1.479 C 1.471,2.943 1.398,1.998 1.398,1.42 1.408,0.852 1.413,0.568 1.423,0 3.266,0.053 4.185,0.07 6.027,0.083 6.027,1.193 6.068,3.1 5.592,4.08 4.794,5.726 2.17,6.199 0.505,6.142 -0.531,6.107 -1.59,5.914 -2.531,5.433 -4.577,4.389 -4.917,2.74 -4.917,0.669 c 0,-3.352 1.257,-4.185 3.858,-5.774 0.479,-0.292 2.032,-1.228 2.313,-1.602 0.412,-0.552 0.458,-1.529 0.458,-2.203 0,-0.652 -0.145,-1.522 -0.988,-1.55 -0.29,-0.009 -0.506,0.006 -0.676,0.24 -0.287,0.401 -0.192,3.297 -0.192,3.708 -1.843,-0.07 -2.763,-0.117 -4.605,-0.234 l 0,-0.964 c 0,-1.109 0.026,-2.578 0.434,-3.588 0.797,-1.975 3.397,-2.443 5.351,-2.381 1.761,0.054 4.023,0.647 4.894,2.358 0.431,0.847 0.506,2.077 0.506,3.017 0,1.279 -0.119,2.97 -0.868,4.044 C 4.369,-2.536 0.532,-0.988 0,0"
             style="fill:#ffffff;fill-opacity:1;fill-rule:nonzero;stroke:none"
             id="path28483"
             inkscape:connector-curvature="0" />
        </g>
        <g
           id="g28485"
           transform="translate(544.4957,625.0547)">
          <path
             d="m 0,0 c -0.289,-0.008 -0.544,0.112 -0.65,0.39 -0.076,0.204 -0.096,1.466 -0.096,1.783 l 0,9.183 c 0,0.408 0.043,1.394 0.217,1.717 0.131,0.242 0.312,0.324 0.579,0.333 0.843,0.031 0.746,-1.152 0.746,-1.754 l 0,-9.498 C 0.796,1.526 0.942,0.036 0,0 M 5.619,12.767 C 5.159,15.652 2.796,16.756 0.024,16.658 -2.818,16.563 -5.14,15.313 -5.59,12.303 -5.713,11.484 -5.711,10.615 -5.711,9.795 l 0,-4.797 c 0,-1.372 -0.077,-2.776 0.144,-4.12 0.474,-2.908 2.82,-4.179 5.591,-4.081 2.845,0.097 5.125,1.493 5.595,4.497 0.138,0.897 0.166,1.843 0.166,2.759 l 0,5.953 c 0,0.917 -0.023,1.857 -0.166,2.761"
             style="fill:#ffffff;fill-opacity:1;fill-rule:nonzero;stroke:none"
             id="path28487"
             inkscape:connector-curvature="0" />
        </g>
        <g
           id="g28489"
           transform="translate(503.5128,727.7289)">
          <path
             d="m 0,0 c -0.245,-0.503 -0.534,-0.98 -0.823,-1.448 -0.446,-0.721 -0.913,-1.424 -1.39,-2.126 l 2.402,0 0,-1.502 -4.83,0 0.012,1.247 c 0.545,0.89 1.079,1.769 1.603,2.671 0.321,0.556 0.655,1.1 0.945,1.68 0.189,0.389 0.4,0.867 0.4,1.302 0,0.335 -0.077,0.712 -0.489,0.712 -0.489,0 -0.5,-0.512 -0.5,-0.879 l 0,-0.935 -1.971,0 c 0.012,0.49 -0.022,1.013 0.078,1.492 0.246,1.157 1.169,1.68 2.304,1.68 C -0.79,3.894 0.4,3.171 0.4,1.579 0.4,1.012 0.244,0.499 0,0"
             style="fill:#ffffff;fill-opacity:1;fill-rule:nonzero;stroke:none"
             id="path28491"
             inkscape:connector-curvature="0" />
        </g>
        <g
           id="g28493"
           transform="translate(507.4854,730.0867)">
          <path
             d="m 0,0 c -0.057,0.144 -0.179,0.178 -0.323,0.178 -0.456,0 -0.411,-0.567 -0.411,-0.891 l 0,-4.561 c 0,-0.157 0.01,-0.713 0.065,-0.823 0.058,-0.123 0.202,-0.156 0.324,-0.156 0.444,0 0.401,0.6 0.401,0.923 l 0,4.617 c 0,0.147 0,0.591 -0.056,0.713 M 2.159,-6.009 C 2.08,-6.331 1.903,-6.609 1.692,-6.855 1.202,-7.421 0.511,-7.601 -0.212,-7.601 c -0.768,0 -1.624,0.134 -2.136,0.758 -0.189,0.234 -0.357,0.5 -0.445,0.8 -0.122,0.4 -0.135,0.947 -0.135,1.358 l 0,3.183 c 0,1.034 0.045,2.082 1.046,2.672 0.457,0.267 0.979,0.366 1.503,0.366 0.445,0 0.89,-0.089 1.292,-0.267 1.344,-0.589 1.335,-1.591 1.335,-2.883 l 0,-3.349 c 0,-0.345 0,-0.7 -0.089,-1.046"
             style="fill:#ffffff;fill-opacity:1;fill-rule:nonzero;stroke:none"
             id="path28495"
             inkscape:connector-curvature="0" />
        </g>
        <g
           id="g28497"
           transform="translate(511.1133,722.6531)">
          <path
             d="M 0,0 0.59,1.336 C 0.6,2.605 0.6,3.884 0.6,5.152 c 0,0.534 0.079,1.07 -0.567,1.169 -0.311,0.057 -0.646,0.044 -0.959,0.044 l 0.012,1.024 C 0.033,7.601 0.89,8.023 1.491,8.803 l 1.29,0 0,-7.49 L 3.359,0 0,0 Z"
             style="fill:#ffffff;fill-opacity:1;fill-rule:nonzero;stroke:none"
             id="path28499"
             inkscape:connector-curvature="0" />
        </g>
        <g
           id="g28501"
           transform="translate(517.6782,730.0867)">
          <path
             d="m 0,0 c -0.057,0.144 -0.178,0.178 -0.323,0.178 -0.456,0 -0.412,-0.567 -0.412,-0.891 l 0,-4.561 c 0,-0.157 0.012,-0.713 0.066,-0.823 0.057,-0.123 0.201,-0.156 0.324,-0.156 0.444,0 0.4,0.6 0.4,0.923 l 0,4.617 c 0,0.147 0,0.591 -0.055,0.713 m 2.157,-6.009 c -0.077,-0.322 -0.255,-0.6 -0.466,-0.846 -0.49,-0.566 -1.18,-0.746 -1.903,-0.746 -0.768,0 -1.625,0.134 -2.136,0.758 -0.19,0.234 -0.356,0.5 -0.445,0.8 -0.123,0.4 -0.133,0.947 -0.133,1.358 l 0,3.183 c 0,1.034 0.043,2.082 1.044,2.672 0.457,0.267 0.98,0.366 1.503,0.366 0.446,0 0.89,-0.089 1.292,-0.267 1.345,-0.589 1.335,-1.591 1.335,-2.883 l 0,-3.349 c 0,-0.345 0,-0.7 -0.091,-1.046"
             style="fill:#ffffff;fill-opacity:1;fill-rule:nonzero;stroke:none"
             id="path28503"
             inkscape:connector-curvature="0" />
        </g>
        <g
           id="g28505"
           transform="translate(532.944,730.7778)">
          <path
             d="m 0,0 c 0,-0.258 0.034,-0.924 0.011,-1.146 l -0.733,-6.979 -2.862,0 c -0.29,1.525 -0.512,3.061 -0.69,4.607 -0.187,-1.535 -0.411,-3.071 -0.632,-4.607 l -2.84,0 -0.745,6.979 c -0.024,0.233 0,0.888 0,1.156 l -0.334,0.668 2.282,0 0.479,-6.043 c 0.1,2.026 0.355,4.039 0.622,6.043 l 2.382,0 c 0.122,-0.969 0.167,-1.936 0.245,-2.904 l 0.256,-3.339 c 0.077,1.268 0.201,2.538 0.344,3.806 0.09,0.812 0.167,1.625 0.29,2.437 l 2.27,0 L 0,0 Z"
             style="fill:#ffffff;fill-opacity:1;fill-rule:nonzero;stroke:none"
             id="path28507"
             inkscape:connector-curvature="0" />
        </g>
        <g
           id="g28509"
           transform="translate(536.0591,730.1322)">
          <path
             d="m 0,0 c -0.124,0 -0.202,-0.035 -0.268,-0.144 -0.077,-0.158 -0.1,-0.602 -0.1,-0.792 l 0,-4.239 c 0,-0.144 0.011,-0.724 0.044,-0.824 0.056,-0.133 0.168,-0.188 0.302,-0.188 0.433,0 0.366,0.689 0.366,0.979 l 0,4.384 C 0.344,-0.546 0.39,0 0,0 M 2.648,-4.452 C 2.648,-4.874 2.636,-5.309 2.57,-5.721 2.358,-7.1 1.301,-7.669 -0.011,-7.669 c -1.281,0 -2.36,0.591 -2.583,1.938 -0.099,0.622 -0.066,1.268 -0.066,1.902 l 0,2.214 c 0,0.379 0,0.781 0.055,1.158 0.213,1.391 1.28,1.959 2.594,1.959 1.278,0 2.369,-0.578 2.581,-1.924 0.066,-0.424 0.078,-0.858 0.078,-1.282 l 0,-2.748 z"
             style="fill:#ffffff;fill-opacity:1;fill-rule:nonzero;stroke:none"
             id="path28511"
             inkscape:connector-curvature="0" />
        </g>
        <g
           id="g28513"
           transform="translate(544.4368,722.6531)">
          <path
             d="M 0,0 0,5.944 -0.8,0 -2.226,0 -3.059,5.798 -3.059,0 -5.63,0 l 0.567,1.125 0,6.554 -0.567,1.124 c 1.224,0 2.215,-0.011 3.528,-0.011 0.233,-1.358 0.4,-2.739 0.588,-4.107 l 0.524,4.118 3.561,0 -0.579,-1.146 0,-6.511 L 2.571,0 0,0 Z"
             style="fill:#ffffff;fill-opacity:1;fill-rule:nonzero;stroke:none"
             id="path28515"
             inkscape:connector-curvature="0" />
        </g>
        <g
           id="g28517"
           transform="translate(546.7846,722.6531)">
          <path
             d="m 0,0 0.568,1.125 0,6.554 L 0,8.803 l 4.273,0 0,-1.814 -1.414,0 0,-1.625 1.425,0 0,-1.669 -1.425,0 0,-1.847 1.67,0 L 4.529,0 0,0 Z"
             style="fill:#ffffff;fill-opacity:1;fill-rule:nonzero;stroke:none"
             id="path28519"
             inkscape:connector-curvature="0" />
        </g>
        <g
           id="g28521"
           transform="translate(554.8741,722.6531)">
          <path
             d="m 0,0 -1.19,3.996 0,-3.996 -2.482,0 0.567,1.125 0,6.554 -0.567,1.124 2.482,0 1.277,-3.961 0,3.961 2.496,0 -0.581,-1.146 0,-6.511 L 2.583,0 0,0 Z"
             style="fill:#ffffff;fill-opacity:1;fill-rule:nonzero;stroke:none"
             id="path28523"
             inkscape:connector-curvature="0" />
        </g>
        <g
           id="g28525"
           transform="translate(557.5437,728.6075)">
          <path
             d="m 0,0 -0.011,0.623 c 0.2,0.11 0.343,0.268 0.379,0.5 l -0.368,0 0,1.725 1.468,0 0,-0.802 C 1.468,1.001 1.078,0.232 0,0"
             style="fill:#ffffff;fill-opacity:1;fill-rule:nonzero;stroke:none"
             id="path28527"
             inkscape:connector-curvature="0" />
        </g>
        <g
           id="g28529"
           transform="translate(564.4434,723.5204)">
          <path
             d="m 0,0 c -0.401,-0.789 -1.447,-1.045 -2.258,-1.045 -0.903,0 -2.105,0.279 -2.472,1.212 -0.189,0.48 -0.199,1.158 -0.199,1.67 l 0,0.445 2.125,0 c 0,-0.189 -0.046,-1.525 0.089,-1.713 0.077,-0.112 0.178,-0.123 0.311,-0.123 0.39,0 0.456,0.401 0.456,0.7 0,0.313 -0.021,0.757 -0.21,1.025 -0.135,0.178 -0.848,0.634 -1.069,0.779 -1.203,0.79 -1.781,1.214 -1.781,2.76 0,0.958 0.156,1.702 1.102,2.136 0.434,0.2 0.923,0.268 1.402,0.268 0.767,0 1.98,-0.234 2.347,-1.001 C 0.066,6.655 0.044,5.778 0.044,5.266 l -2.125,0 -0.013,0.655 c 0,0.269 0.035,0.701 -0.344,0.701 -0.366,0 -0.412,-0.389 -0.412,-0.667 0,-0.213 0.014,-0.479 0.112,-0.668 C -2.493,4.819 -0.725,4.062 -0.167,3.26 0.178,2.76 0.232,1.98 0.232,1.39 0.232,0.956 0.199,0.392 0,0"
             style="fill:#ffffff;fill-opacity:1;fill-rule:nonzero;stroke:none"
             id="path28531"
             inkscape:connector-curvature="0" />
        </g>
        <g
           id="g28533"
           transform="translate(477.808,682.1487)">
          <path
             d="m 0,0 -0.434,2.785 -6.063,-13.052 -13.199,0.654 1.284,-1.185 13.095,-0.648 L 0,0 Z"
             style="fill:#bfbebe;fill-opacity:1;fill-rule:nonzero;stroke:none"
             id="path28535"
             inkscape:connector-curvature="0" />
        </g>
        <g
           id="g28537"
           transform="translate(467.5354,663.7517)">
          <path
             d="m 0,0 -6.032,-12.987 2.464,1.586 L 1.209,-1.116 0,0 Z"
             style="fill:#bfbebe;fill-opacity:1;fill-rule:nonzero;stroke:none"
             id="path28539"
             inkscape:connector-curvature="0" />
        </g>
        <g
           id="g28541"
           transform="translate(459.3962,671.3511)">
          <path
             d="M 0,0 8.139,-7.599 8.169,-7.536 0,0 Z"
             style="fill:#ffffff;fill-opacity:1;fill-rule:nonzero;stroke:none"
             id="path28543"
             inkscape:connector-curvature="0" />
        </g>
        <g
           id="g28545"
           transform="translate(482.8651,649.7064)">
          <path
             d="m 0,0 -2.097,13.456 10.287,6.622 -10.405,0.514 -1.179,1.18 -1.663,10.67 -5.317,-11.446 -13.095,0.649 L -14.12,12.93 -18.898,2.644 -9.457,8.72 0,0 Z"
             style="fill:#ffffff;fill-opacity:1;fill-rule:nonzero;stroke:none"
             id="path28547"
             inkscape:connector-curvature="0" />
        </g>
        <g
           id="g28549"
           transform="translate(479.4708,671.4788)">
          <path
             d="M 0,0 1.18,-1.18 11.584,-1.694 13.202,-0.653 0,0 Z"
             style="fill:#bdbcbc;fill-opacity:1;fill-rule:nonzero;stroke:none"
             id="path28551"
             inkscape:connector-curvature="0" />
        </g>
      </g>
    </g>
  </g>
</svg>
