<?xml version="1.0" encoding="UTF-8" standalone="no"?>
<!-- Created with Inkscape (http://www.inkscape.org/) -->

<svg
   xmlns:dc="http://purl.org/dc/elements/1.1/"
   xmlns:cc="http://creativecommons.org/ns#"
   xmlns:rdf="http://www.w3.org/1999/02/22-rdf-syntax-ns#"
   xmlns:svg="http://www.w3.org/2000/svg"
   xmlns="http://www.w3.org/2000/svg"
   xmlns:sodipodi="http://sodipodi.sourceforge.net/DTD/sodipodi-0.dtd"
   xmlns:inkscape="http://www.inkscape.org/namespaces/inkscape"
   width="226"
   height="214"
   viewBox="0 0 226 214"
   id="svg5294"
   version="1.1"
   inkscape:version="0.91 r13725"
   sodipodi:docname="2016 ncaa womens final four.svg">
  <defs
     id="defs5296" />
  <sodipodi:namedview
     id="base"
     pagecolor="#ffffff"
     bordercolor="#666666"
     borderopacity="1.0"
     inkscape:pageopacity="0.0"
     inkscape:pageshadow="2"
     inkscape:zoom="2.5373832"
     inkscape:cx="113"
     inkscape:cy="107"
     inkscape:document-units="px"
     inkscape:current-layer="layer1"
     showgrid="false"
     units="px"
     inkscape:window-width="1280"
     inkscape:window-height="744"
     inkscape:window-x="-4"
     inkscape:window-y="-4"
     inkscape:window-maximized="1" />
  <metadata
     id="metadata5299">
    <rdf:RDF>
      <cc:Work
         rdf:about="">
        <dc:format>image/svg+xml</dc:format>
        <dc:type
           rdf:resource="http://purl.org/dc/dcmitype/StillImage" />
        <dc:title></dc:title>
      </cc:Work>
    </rdf:RDF>
  </metadata>
  <g
     inkscape:label="Layer 1"
     inkscape:groupmode="layer"
     id="layer1"
     transform="translate(0,-838.36216)">
    <g
       id="g5662"
       transform="translate(-438.42857,252.99996)">
      <g
         transform="matrix(1.25,0,0,-1.25,651.85982,659.6186)"
         id="g3482">
        <path
           inkscape:connector-curvature="0"
           id="path3484"
           style="fill:#afa66f;fill-opacity:1;fill-rule:nonzero;stroke:none"
           d="m 0,0 c -10.42,-3.835 -24.792,0.4 -24.792,0.4 l -1.104,32.976 -108.898,0 -1.104,-32.976 c 0,0 -14.373,-4.235 -24.792,-0.4 0,0 -9.535,-14.634 -9.535,-34.208 0,-19.573 9.535,-34.207 9.535,-34.207 7.882,2.901 18.022,1.185 22.495,0.177 l -1.432,-42.786 35.085,13.397 c 4.996,-8.045 13.886,-13.419 24.052,-13.419 10.213,0 19.136,5.424 24.119,13.53 l 35.308,-13.508 -1.432,42.786 c 4.473,1.008 14.612,2.724 22.495,-0.177 0,0 9.535,14.634 9.535,34.207 C 9.535,-14.634 0,0 0,0" />
      </g>
      <g
         transform="matrix(1.25,0,0,-1.25,581.79402,772.0356)"
         id="g3486">
        <path
           inkscape:connector-curvature="0"
           id="path3488"
           style="fill:#2a3781;fill-opacity:1;fill-rule:nonzero;stroke:none"
           d="m 0,0 c 0.675,2.287 1.053,4.701 1.053,7.203 0,2.234 -0.318,4.389 -0.861,6.452 9.327,2.713 18.193,6.258 26.763,8.783 L 27.957,-10.568 0,0 Z m -76.541,-10.568 1.005,33.137 c 8.491,-2.509 17.269,-6.049 26.498,-8.785 -0.564,-2.104 -0.893,-4.302 -0.893,-6.581 0,-2.539 0.385,-4.988 1.079,-7.304 l -27.689,-10.467 z m 3.872,127.611 96.75,0 0.824,-27.119 c -15.145,4.74 -31.237,12.205 -49.2,12.205 -17.97,0 -34.054,-7.572 -49.201,-12.336 l 0.827,27.25 z M 54.926,87.279 C 46.473,85.063 37.908,86.245 29.043,88.704 l -0.986,32.439 -104.703,0 -0.987,-32.574 c -8.861,-2.462 -17.427,-3.615 -25.889,-1.301 -5.367,-9.568 -8.374,-20.258 -8.374,-31.541 0,-11.203 2.963,-21.819 8.256,-31.331 7.871,2.186 15.832,1.37 24.037,-0.71 l -1.221,-40.254 33.48,12.656 c 4.14,-8.496 12.838,-14.379 22.907,-14.379 10.103,0 18.828,5.926 22.949,14.473 l 33.729,-12.75 -1.22,40.121 c 8.206,2.08 16.164,2.926 24.024,0.834 5.298,9.511 8.263,20.134 8.263,31.34 0,11.289 -3.008,21.986 -8.382,31.552" />
      </g>
      <g
         transform="matrix(1.25,0,0,-1.25,506.13972,627.9438)"
         id="g3490">
        <path
           inkscape:connector-curvature="0"
           id="path3492"
           style="fill:#a41a34;fill-opacity:1;fill-rule:nonzero;stroke:none"
           d="M 0,0 -10.429,0 -10.656,-7.472 0,-7.472 0,0 Z" />
      </g>
      <g
         transform="matrix(1.25,0,0,-1.25,520.20222,627.9438)"
         id="g3494">
        <path
           inkscape:connector-curvature="0"
           id="path3496"
           style="fill:#a41a34;fill-opacity:1;fill-rule:nonzero;stroke:none"
           d="m 0,0 -9.626,0 0,-7.472 6.812,0 0.457,4.903 L 0,0 Z" />
      </g>
      <g
         transform="matrix(1.25,0,0,-1.25,586.29602,637.2822)"
         id="g3498">
        <path
           inkscape:connector-curvature="0"
           id="path3500"
           style="fill:#a41a34;fill-opacity:1;fill-rule:nonzero;stroke:none"
           d="m 0,0 6.666,0 0,7.471 -9.473,0 2.35,-2.57 L 0,0 Z" />
      </g>
      <g
         transform="matrix(1.25,0,0,-1.25,609.74932,627.9438)"
         id="g3502">
        <path
           inkscape:connector-curvature="0"
           id="path3504"
           style="fill:#a41a34;fill-opacity:1;fill-rule:nonzero;stroke:none"
           d="m 0,0 -10.47,0 0,-7.472 10.698,0 L 0,0 Z" />
      </g>
      <g
         transform="matrix(1.25,0,0,-1.25,501.71582,651.1103)"
         id="g3506">
        <path
           inkscape:connector-curvature="0"
           id="path3508"
           style="fill:#a41a34;fill-opacity:1;fill-rule:nonzero;stroke:none"
           d="m 0,0 -7.453,0 -0.193,-6.369 c 2.521,0.821 5.067,1.707 7.646,2.614 L 0,0 Z" />
      </g>
      <g
         transform="matrix(1.25,0,0,-1.25,503.74832,651.1103)"
         id="g3510">
        <path
           inkscape:connector-curvature="0"
           id="path3512"
           style="fill:#a41a34;fill-opacity:1;fill-rule:nonzero;stroke:none"
           d="M 0,0 0,-3.183 C 3.052,-2.107 6.149,-1.023 9.297,0 L 0,0 Z" />
      </g>
      <g
         transform="matrix(1.25,0,0,-1.25,599.05112,651.1103)"
         id="g3514">
        <path
           inkscape:connector-curvature="0"
           id="path3516"
           style="fill:#a41a34;fill-opacity:1;fill-rule:nonzero;stroke:none"
           d="M 0,0 -9.044,0 C -5.982,-0.988 -2.971,-2.031 0,-3.066 L 0,0 Z" />
      </g>
      <g
         transform="matrix(1.25,0,0,-1.25,610.45362,651.1103)"
         id="g3518">
        <path
           inkscape:connector-curvature="0"
           id="path3520"
           style="fill:#a41a34;fill-opacity:1;fill-rule:nonzero;stroke:none"
           d="m 0,0 -7.496,0 0,-3.634 c 2.592,-0.903 5.151,-1.786 7.685,-2.608 L 0,0 Z" />
      </g>
      <g
         transform="matrix(1.25,0,0,-1.25,492.75102,639.5235)"
         id="g3522">
        <path
           inkscape:connector-curvature="0"
           id="path3524"
           style="fill:#a41a34;fill-opacity:1;fill-rule:nonzero;stroke:none"
           d="m 0,0 -0.228,-7.507 1.459,0 0.061,0 16.987,0 L 18.979,0 0,0 Z" />
      </g>
      <g
         transform="matrix(1.25,0,0,-1.25,608.34912,648.907)"
         id="g3526">
        <path
           inkscape:connector-curvature="0"
           id="path3528"
           style="fill:#a41a34;fill-opacity:1;fill-rule:nonzero;stroke:none"
           d="M 0,0 1.63,0 1.401,7.507 0,7.507 -17.475,7.507 -16.774,0 0,0 Z" />
      </g>
      <g
         transform="matrix(1.25,0,0,-1.25,489.45872,748.0207)"
         id="g3530">
        <path
           inkscape:connector-curvature="0"
           id="path3532"
           style="fill:#a41a34;fill-opacity:1;fill-rule:nonzero;stroke:none"
           d="M 0,0 8.575,0 C 5.71,0.997 2.882,1.961 0.086,2.827 L 0,0 Z" />
      </g>
      <g
         transform="matrix(1.25,0,0,-1.25,613.39672,748.0207)"
         id="g3534">
        <path
           inkscape:connector-curvature="0"
           id="path3536"
           style="fill:#a41a34;fill-opacity:1;fill-rule:nonzero;stroke:none"
           d="M 0,0 -0.082,2.698 C -2.774,1.868 -5.499,0.95 -8.256,0 L 0,0 Z" />
      </g>
      <g
         transform="matrix(1.25,0,0,-1.25,489.04012,761.8476)"
         id="g3538">
        <path
           inkscape:connector-curvature="0"
           id="path3540"
           style="fill:#a41a34;fill-opacity:1;fill-rule:nonzero;stroke:none"
           d="m 0,0 -0.229,-7.505 11.237,0 0,7.505 L 0,0 Z" />
      </g>
      <g
         transform="matrix(1.25,0,0,-1.25,519.44172,761.8476)"
         id="g3542">
        <path
           inkscape:connector-curvature="0"
           id="path3544"
           style="fill:#a41a34;fill-opacity:1;fill-rule:nonzero;stroke:none"
           d="m 0,0 -11.535,0 0,-7.505 9.535,0 2.587,0.978 c -0.404,1.798 -0.636,3.662 -0.636,5.58 0,0.32 0.036,0.631 0.049,0.947" />
      </g>
      <g
         transform="matrix(1.25,0,0,-1.25,582.34932,769.8811)"
         id="g3546">
        <path
           inkscape:connector-curvature="0"
           id="path3548"
           style="fill:#a41a34;fill-opacity:1;fill-rule:nonzero;stroke:none"
           d="m 0,0 2.852,-1.077 9.49,0 0,7.504 -11.781,0 C 0.571,6.11 0.608,5.8 0.608,5.479 0.608,3.597 0.389,1.767 0,0" />
      </g>
      <g
         transform="matrix(1.25,0,0,-1.25,599.99962,761.8476)"
         id="g3550">
        <path
           inkscape:connector-curvature="0"
           id="path3552"
           style="fill:#a41a34;fill-opacity:1;fill-rule:nonzero;stroke:none"
           d="m 0,0 0,-7.505 11.282,0 L 11.054,0 0,0 Z" />
      </g>
      <g
         transform="matrix(1.25,0,0,-1.25,489.39162,750.2582)"
         id="g3554">
        <path
           inkscape:connector-curvature="0"
           id="path3556"
           style="fill:#a41a34;fill-opacity:1;fill-rule:nonzero;stroke:none"
           d="m 0,0 -0.229,-7.511 18.801,0 0,5.868 C 16.955,-1.103 15.351,-0.554 13.759,0 L 0,0 Z" />
      </g>
      <g
         transform="matrix(1.25,0,0,-1.25,514.64062,752.9866)"
         id="g3558">
        <path
           inkscape:connector-curvature="0"
           id="path3560"
           style="fill:#a41a34;fill-opacity:1;fill-rule:nonzero;stroke:none"
           d="m 0,0 0,-5.327 3.94,0 c 0.141,1.324 0.408,2.61 0.744,3.867 C 3.11,-0.993 1.548,-0.505 0,0" />
      </g>
      <g
         transform="matrix(1.25,0,0,-1.25,582.92432,759.6467)"
         id="g3562">
        <path
           inkscape:connector-curvature="0"
           id="path3564"
           style="fill:#a41a34;fill-opacity:1;fill-rule:nonzero;stroke:none"
           d="m 0,0 3.933,0 0,5.165 C 2.396,4.672 0.851,4.194 -0.71,3.739 -0.391,2.522 -0.136,1.28 0,0" />
      </g>
      <g
         transform="matrix(1.25,0,0,-1.25,589.87012,759.6467)"
         id="g3566">
        <path
           inkscape:connector-curvature="0"
           id="path3568"
           style="fill:#a41a34;fill-opacity:1;fill-rule:nonzero;stroke:none"
           d="m 0,0 19.104,0 -0.228,7.511 -13.49,0 C 3.606,6.897 1.812,6.288 0,5.692 L 0,0 Z" />
      </g>
      <g
         transform="matrix(1.25,0,0,-1.25,488.42852,782.0076)"
         id="g3570">
        <path
           inkscape:connector-curvature="0"
           id="path3572"
           style="fill:#a41a34;fill-opacity:1;fill-rule:nonzero;stroke:none"
           d="M 0,0 18.109,6.846 0.208,6.846 0,0 Z" />
      </g>
      <g
         transform="matrix(1.25,0,0,-1.25,591.79032,773.4492)"
         id="g3574">
        <path
           inkscape:connector-curvature="0"
           id="path3576"
           style="fill:#a41a34;fill-opacity:1;fill-rule:nonzero;stroke:none"
           d="M 0,0 18.112,-6.847 17.904,0 0,0 Z" />
      </g>
      <g
         transform="matrix(1.25,0,0,-1.25,505.56352,659.9994)"
         id="g3578">
        <path
           inkscape:connector-curvature="0"
           id="path3580"
           style="fill:#ffffff;fill-opacity:1;fill-rule:nonzero;stroke:none"
           d="m 0,0 c -11.268,-3.972 -21.913,-7.722 -32.868,-7.722 -2.363,0 -4.681,0.184 -6.932,0.545 -4.179,-8.466 -6.296,-17.436 -6.296,-26.725 0,-9.202 2.079,-18.099 6.185,-26.498 l 1.364,2.533 c -3.474,7.631 -5.232,15.683 -5.232,23.965 0,8.366 1.795,16.5 5.339,24.197 1.825,-0.221 3.692,-0.333 5.572,-0.333 11.357,0 22.18,3.817 33.639,7.852 0.743,0.263 1.488,0.526 2.236,0.788 L 3.243,1.139 C 2.159,0.76 1.077,0.38 0,0" />
      </g>
      <g
         transform="matrix(1.25,0,0,-1.25,638.68732,669.5319)"
         id="g3582">
        <path
           inkscape:connector-curvature="0"
           id="path3584"
           style="fill:#ffffff;fill-opacity:1;fill-rule:nonzero;stroke:none"
           d="m 0,0 c -10.971,0 -21.646,3.724 -32.947,7.668 -1.101,0.384 -2.207,0.769 -3.316,1.152 l 0.236,-2.531 c 0.775,-0.268 1.549,-0.539 2.321,-0.808 11.488,-4.009 22.342,-7.796 33.706,-7.796 1.779,0 3.553,0.1 5.292,0.294 L 6.657,0.496 C 4.493,0.168 2.267,0 0,0" />
      </g>
      <g
         transform="matrix(1.25,0,0,-1.25,511.49372,672.8828)"
         id="g3586">
        <path
           inkscape:connector-curvature="0"
           id="path3588"
           style="fill:#ee651b;fill-opacity:1;fill-rule:nonzero;stroke:none"
           d="M 0,0 2.2,0 1.873,-5.68 3.985,0 6.838,0 6.788,-5.68 8.623,0 10.56,0 7.744,-7.537 l -2.765,0 0.024,5.735 -2.137,-5.735 -2.954,0 L 0,0 Z" />
      </g>
      <g
         transform="matrix(1.25,0,0,-1.25,531.90512,680.4731)"
         id="g3590">
        <path
           inkscape:connector-curvature="0"
           id="path3592"
           style="fill:#ee651b;fill-opacity:1;fill-rule:nonzero;stroke:none"
           d="M 0,0 0.314,0.272 1.131,4.336 0.818,4.608 -1.23,4.608 -1.558,4.336 -2.376,0.272 -2.061,0 0,0 Z m -4.764,-0.373 1.081,5.353 1.257,1.092 4.714,0 1.257,-1.092 -1.094,-5.353 -1.244,-1.092 -4.726,0 -1.245,1.092 z" />
      </g>
      <g
         transform="matrix(1.25,0,0,-1.25,540.20222,672.8828)"
         id="g3594">
        <path
           inkscape:connector-curvature="0"
           id="path3596"
           style="fill:#ee651b;fill-opacity:1;fill-rule:nonzero;stroke:none"
           d="M 0,0 3.432,0 3.582,-5.833 6.186,0 9.717,0 8.185,-7.537 l -2.164,0 1.257,6.217 -2.79,-6.217 -2.615,0 -0.239,6.226 -1.256,-6.226 -1.911,0 L 0,0 Z" />
      </g>
      <g
         transform="matrix(1.25,0,0,-1.25,556.08852,672.8828)"
         id="g3598">
        <path
           inkscape:connector-curvature="0"
           id="path3600"
           style="fill:#ee651b;fill-opacity:1;fill-rule:nonzero;stroke:none"
           d="m 0,0 5.934,0 -0.289,-1.453 -3.67,0 -0.316,-1.518 3.32,0 -0.29,-1.452 -3.319,0 -0.339,-1.661 3.72,0 -0.301,-1.453 -5.982,0 L 0,0 Z" />
      </g>
      <g
         transform="matrix(1.25,0,0,-1.25,567.02472,672.8828)"
         id="g3602">
        <path
           inkscape:connector-curvature="0"
           id="path3604"
           style="fill:#ee651b;fill-opacity:1;fill-rule:nonzero;stroke:none"
           d="M 0,0 2.413,0 4.187,-4.576 5.142,0 7.141,0 5.607,-7.537 l -2.388,0 -1.773,4.719 -0.98,-4.719 -1.998,0 L 0,0 Z" />
      </g>
      <g
         transform="matrix(1.25,0,0,-1.25,578.66902,675.71)"
         id="g3606">
        <path
           inkscape:connector-curvature="0"
           id="path3608"
           style="fill:#ee651b;fill-opacity:1;fill-rule:nonzero;stroke:none"
           d="m 0,0 0.666,0 0.113,0.099 0.088,0.416 -0.766,0 0.365,1.747 2.023,0 -0.514,-2.458 -0.73,-0.634 -1.421,0 L 0,0 Z" />
      </g>
      <g
         transform="matrix(1.25,0,0,-1.25,583.05252,681.02)"
         id="g3610">
        <path
           inkscape:connector-curvature="0"
           id="path3612"
           style="fill:#ee651b;fill-opacity:1;fill-rule:nonzero;stroke:none"
           d="m 0,0 0.264,1.332 2.275,0 -0.163,-0.775 0.163,-0.143 2.049,0 L 4.752,0.557 4.99,1.736 4.902,1.812 1.71,2.24 0.667,3.146 1.132,5.449 2.351,6.51 6.812,6.51 7.995,5.484 7.718,4.15 5.443,4.15 5.606,4.927 5.43,5.078 3.457,5.078 3.293,4.937 3.068,3.791 3.168,3.703 6.348,3.287 7.391,2.371 6.914,0.033 5.695,-1.026 1.182,-1.026 0,0 Z" />
      </g>
      <g
         transform="matrix(1.25,0,0,-1.25,485.49152,722.7375)"
         id="g3614">
        <path
           inkscape:connector-curvature="0"
           id="path3616"
           style="fill:#ee651b;fill-opacity:1;fill-rule:nonzero;stroke:none"
           d="m 0,0 3.64,0 -0.209,-1.165 -1.011,0 -0.695,-3.9 1.02,0 -0.207,-1.166 -3.641,0 0.208,1.166 0.995,0 0.675,3.9 -0.983,0 L 0,0 Z" />
      </g>
      <g
         transform="matrix(1.25,0,0,-1.25,492.52402,722.7375)"
         id="g3618">
        <path
           inkscape:connector-curvature="0"
           id="path3620"
           style="fill:#ee651b;fill-opacity:1;fill-rule:nonzero;stroke:none"
           d="M 0,0 1.734,0 3.007,-3.784 3.694,0 5.13,0 4.028,-6.231 l -1.716,0 -1.274,3.901 -0.704,-3.901 -1.437,0 L 0,0 Z" />
      </g>
      <g
         transform="matrix(1.25,0,0,-1.25,504.61502,729.0143)"
         id="g3622">
        <path
           inkscape:connector-curvature="0"
           id="path3624"
           style="fill:#ee651b;fill-opacity:1;fill-rule:nonzero;stroke:none"
           d="m 0,0 0.233,0.226 0.598,3.36 -0.235,0.225 -1.581,0 L -1.653,0 0,0 Z m -2.394,5.022 4.037,0 L 2.546,4.118 1.77,-0.308 0.867,-1.21 l -4.362,0 1.101,6.232 z" />
      </g>
      <g
         transform="matrix(1.25,0,0,-1.25,510.38282,722.7375)"
         id="g3626">
        <path
           inkscape:connector-curvature="0"
           id="path3628"
           style="fill:#ee651b;fill-opacity:1;fill-rule:nonzero;stroke:none"
           d="m 0,0 3.641,0 -0.208,-1.165 -1.012,0 -0.695,-3.9 1.019,0 -0.207,-1.166 -3.64,0 0.208,1.166 0.995,0 0.676,3.9 -0.985,0 L 0,0 Z" />
      </g>
      <g
         transform="matrix(1.25,0,0,-1.25,518.74832,727.4567)"
         id="g3630">
        <path
           inkscape:connector-curvature="0"
           id="path3632"
           style="fill:#ee651b;fill-opacity:1;fill-rule:nonzero;stroke:none"
           d="M 0,0 1.3,0 1.138,2.79 0,0 Z m 0.116,3.774 2.385,0 0.614,-6.23 -1.671,0 -0.071,1.228 -1.88,0 -0.495,-1.228 -1.636,0 2.754,6.23 z" />
      </g>
      <g
         transform="matrix(1.25,0,0,-1.25,526.09702,722.7375)"
         id="g3634">
        <path
           inkscape:connector-curvature="0"
           id="path3636"
           style="fill:#ee651b;fill-opacity:1;fill-rule:nonzero;stroke:none"
           d="M 0,0 1.734,0 3.007,-3.784 3.694,0 5.13,0 4.028,-6.231 l -1.715,0 -1.275,3.901 -0.704,-3.901 -1.436,0 L 0,0 Z" />
      </g>
      <g
         transform="matrix(1.25,0,0,-1.25,536.52782,727.4567)"
         id="g3638">
        <path
           inkscape:connector-curvature="0"
           id="path3640"
           style="fill:#ee651b;fill-opacity:1;fill-rule:nonzero;stroke:none"
           d="M 0,0 1.3,0 1.138,2.79 0,0 Z m 0.116,3.774 2.385,0 0.614,-6.23 -1.671,0 -0.071,1.228 -1.88,0 -0.495,-1.228 -1.636,0 2.754,6.23 z" />
      </g>
      <g
         transform="matrix(1.25,0,0,-1.25,545.23152,726.5645)"
         id="g3642">
        <path
           inkscape:connector-curvature="0"
           id="path3644"
           style="fill:#ee651b;fill-opacity:1;fill-rule:nonzero;stroke:none"
           d="m 0,0 1.698,0 0.18,0.172 0.28,1.607 -0.171,0.18 -1.644,0 L 0,0 Z m -1.084,3.062 4.073,0 0.876,-0.876 -0.434,-2.448 -0.876,-0.877 -2.753,0 -0.353,-2.031 -1.636,0 1.103,6.232 z" />
      </g>
      <g
         transform="matrix(1.25,0,0,-1.25,555.68562,729.0143)"
         id="g3646">
        <path
           inkscape:connector-curvature="0"
           id="path3648"
           style="fill:#ee651b;fill-opacity:1;fill-rule:nonzero;stroke:none"
           d="m 0,0 0.225,0.226 0.587,3.36 -0.226,0.225 -1.471,0 L -1.12,3.586 -1.707,0.226 -1.481,0 0,0 Z m -3.423,-0.308 0.777,4.426 0.903,0.904 3.386,0 0.903,-0.904 -0.785,-4.426 -0.894,-0.902 -3.396,0 -0.894,0.902 z" />
      </g>
      <g
         transform="matrix(1.25,0,0,-1.25,562.58132,728.957)"
         id="g3650">
        <path
           inkscape:connector-curvature="0"
           id="path3652"
           style="fill:#ee651b;fill-opacity:1;fill-rule:nonzero;stroke:none"
           d="m 0,0 2.294,0 -0.216,-1.256 -3.929,0 1.102,6.232 1.625,0 L 0,0 Z" />
      </g>
      <g
         transform="matrix(1.25,0,0,-1.25,568.55422,722.7375)"
         id="g3654">
        <path
           inkscape:connector-curvature="0"
           id="path3656"
           style="fill:#ee651b;fill-opacity:1;fill-rule:nonzero;stroke:none"
           d="m 0,0 3.64,0 -0.208,-1.165 -1.011,0 -0.696,-3.9 1.02,0 -0.207,-1.166 -3.641,0 0.208,1.166 0.995,0 0.675,3.9 -0.983,0 L 0,0 Z" />
      </g>
      <g
         transform="matrix(1.25,0,0,-1.25,574.18662,729.4661)"
         id="g3658">
        <path
           inkscape:connector-curvature="0"
           id="path3660"
           style="fill:#ee651b;fill-opacity:1;fill-rule:nonzero;stroke:none"
           d="m 0,0 0.19,1.103 1.634,0 -0.117,-0.642 0.117,-0.117 1.473,0 L 3.414,0.461 3.586,1.437 3.522,1.5 1.228,1.853 0.479,2.601 l 0.334,1.906 0.875,0.876 3.207,0 0.849,-0.849 -0.199,-1.101 -1.635,0 0.118,0.64 -0.127,0.125 -1.417,0 L 2.367,4.082 2.204,3.134 2.276,3.062 4.561,2.719 5.31,1.96 4.967,0.026 4.091,-0.849 0.849,-0.849 0,0 Z" />
      </g>
      <g
         transform="matrix(1.25,0,0,-1.25,587.41772,727.0393)"
         id="g3662">
        <path
           inkscape:connector-curvature="0"
           id="path3664"
           style="fill:#ee651b;fill-opacity:1;fill-rule:nonzero;stroke:none"
           d="m 0,0 0.776,0.777 2.501,0 0.146,0.136 0.217,1.219 -0.118,0.117 -1.445,0 L 1.96,2.132 1.843,1.491 l -1.626,0 0.189,1.102 0.85,0.847 3.206,0 0.875,-0.875 -0.406,-2.294 -0.767,-0.777 -2.502,0 -0.145,-0.135 -0.163,-0.921 3.251,0 -0.215,-1.228 -4.878,0 L 0,0 Z" />
      </g>
      <g
         transform="matrix(1.25,0,0,-1.25,599.85672,729.0143)"
         id="g3666">
        <path
           inkscape:connector-curvature="0"
           id="path3668"
           style="fill:#ee651b;fill-opacity:1;fill-rule:nonzero;stroke:none"
           d="m 0,0 0.227,0.226 0.586,3.36 -0.226,0.225 -1.472,0 L -1.12,3.586 -1.707,0.226 -1.48,0 0,0 Z m -3.422,-0.308 0.776,4.426 0.905,0.904 3.386,0 0.902,-0.904 -0.785,-4.426 -0.895,-0.902 -3.394,0 -0.895,0.902 z" />
      </g>
      <g
         transform="matrix(1.25,0,0,-1.25,604.49782,729.0253)"
         id="g3670">
        <path
           inkscape:connector-curvature="0"
           id="path3672"
           style="fill:#ee651b;fill-opacity:1;fill-rule:nonzero;stroke:none"
           d="m 0,0 1.129,0 0.677,3.838 -1.119,0 0.207,1.192 2.754,0 L 2.755,0 3.884,0 3.676,-1.201 l -3.885,0 L 0,0 Z" />
      </g>
      <g
         transform="matrix(1.25,0,0,-1.25,613.82162,727.3555)"
         id="g3674">
        <path
           inkscape:connector-curvature="0"
           id="path3676"
           style="fill:#ee651b;fill-opacity:1;fill-rule:nonzero;stroke:none"
           d="m 0,0 -0.208,-1.201 0.154,-0.153 1.634,0 0.154,0.153 0.226,1.246 -0.153,0.154 -1.608,0 L 0,0 Z m -1.914,-1.662 0.785,4.48 0.876,0.876 3.487,0 L 4.082,2.846 3.901,1.869 2.276,1.869 2.367,2.385 2.24,2.51 0.614,2.51 0.407,2.304 0.163,0.939 l 0.433,0.434 2.349,0 0.749,-0.75 -0.406,-2.285 -0.877,-0.875 -3.458,0 -0.867,0.875 z" />
      </g>
      <g
         transform="matrix(1.25,0,0,-1.25,521.85262,706.982)"
         id="g3678">
        <path
           inkscape:connector-curvature="0"
           id="path3680"
           style="fill:#ffffff;fill-opacity:1;fill-rule:nonzero;stroke:none"
           d="M 0,0 3.615,11.843 2.635,0 0,0 Z m 7.12,16.193 -6.833,0 -8.528,-25.029 4.877,0 c 0.403,0 0.681,0.186 0.836,0.541 l 1.217,4.002 3.588,0 -0.33,-4.002 C 1.958,-8.65 2.163,-8.836 2.569,-8.836 l 4.911,0 0.924,23.793 C 8.377,15.642 7.81,16.193 7.12,16.193" />
      </g>
      <g
         transform="matrix(1.25,0,0,-1.25,587.79732,711.5168)"
         id="g3682">
        <path
           inkscape:connector-curvature="0"
           id="path3684"
           style="fill:#ffffff;fill-opacity:1;fill-rule:nonzero;stroke:none"
           d="m 0,0 c -0.078,-0.394 -0.316,-0.577 -0.756,-0.577 l -1.683,0 c -0.445,0 -0.614,0.183 -0.536,0.577 l 2.835,14.626 c 0.074,0.382 0.312,0.566 0.758,0.566 l 1.676,0 c 0.443,0 0.609,-0.184 0.54,-0.566 L 0,0 Z m -1.898,19.821 -3.578,-2.694 -3.805,-19.634 2.529,-2.7 8.376,0 3.575,2.7 3.806,19.634 -2.53,2.694 -8.373,0 z" />
      </g>
      <g
         transform="matrix(1.25,0,0,-1.25,459.64562,718.0268)"
         id="g3686">
        <path
           inkscape:connector-curvature="0"
           id="path3688"
           style="fill:#ffffff;fill-opacity:1;fill-rule:nonzero;stroke:none"
           d="m 0,0 4.479,0 c 0.683,0 1.354,0.56 1.483,1.246 l 1.808,9.334 3.376,0 c 0.498,0 0.944,0.299 1.072,0.685 l 1.205,3.616 -4.819,0 1.072,5.514 5.56,0 c 0.689,0 1.349,0.552 1.481,1.235 l 0.667,3.399 -12.53,0 L 0,0 Z" />
      </g>
      <g
         transform="matrix(1.25,0,0,-1.25,556.97582,718.0268)"
         id="g3690">
        <path
           inkscape:connector-curvature="0"
           id="path3692"
           style="fill:#ffffff;fill-opacity:1;fill-rule:nonzero;stroke:none"
           d="M 0,0 4.476,0 C 5.159,0 5.825,0.56 5.96,1.246 l 1.811,9.334 3.373,0 c 0.499,0 0.942,0.299 1.071,0.685 l 1.202,3.616 -4.814,0 1.069,5.514 5.562,0 c 0.687,0 1.353,0.552 1.482,1.235 l 0.663,3.399 -12.525,0 L 0,0 Z" />
      </g>
      <g
         transform="matrix(1.25,0,0,-1.25,547.37872,686.7402)"
         id="g3694">
        <path
           inkscape:connector-curvature="0"
           id="path3696"
           style="fill:#ffffff;fill-opacity:1;fill-rule:nonzero;stroke:none"
           d="m 0,0 -5.722,0 -4.848,-25.028 9.82,0 c 0.688,0 1.354,0.559 1.488,1.245 l 0.658,3.391 -5.346,0 L 0,0 Z" />
      </g>
      <g
         transform="matrix(1.25,0,0,-1.25,484.93362,686.7402)"
         id="g3698">
        <path
           inkscape:connector-curvature="0"
           id="path3700"
           style="fill:#ffffff;fill-opacity:1;fill-rule:nonzero;stroke:none"
           d="m 0,0 -4.854,-25.028 4.315,0 c 0.685,0 1.35,0.559 1.483,1.245 L 5.557,0 0,0 Z" />
      </g>
      <g
         transform="matrix(1.25,0,0,-1.25,508.14412,686.7256)"
         id="g3702">
        <path
           inkscape:connector-curvature="0"
           id="path3704"
           style="fill:#ffffff;fill-opacity:1;fill-rule:nonzero;stroke:none"
           d="M 0,0 -2.295,-11.843 -4.005,-0.73 C -4.13,-0.24 -4.526,0.006 -5.086,0.006 L -9.64,0 l -4.852,-25.041 3.941,0 c 0.69,0 1.353,0.561 1.487,1.245 l 2.281,11.786 1.943,-12.296 c 0.131,-0.489 0.527,-0.735 1.079,-0.735 l 4.102,0 L 5.189,0 0,0 Z" />
      </g>
      <g
         transform="matrix(1.25,0,0,-1.25,631.47302,692.4933)"
         id="g3706">
        <path
           inkscape:connector-curvature="0"
           id="path3708"
           style="fill:#ffffff;fill-opacity:1;fill-rule:nonzero;stroke:none"
           d="M 0,0 2.873,0 C 3.322,0 3.486,-0.18 3.411,-0.571 L 2.335,-6.126 C 2.261,-6.508 2.021,-6.685 1.577,-6.685 l -2.871,0 L 0,0 Z m 5.93,-19.181 -1.563,8.545 3.022,2.28 1.998,10.277 -2.525,2.682 -11.748,0 -4.856,-25.029 4.244,0 c 0.686,0 1.65,0.552 1.777,1.236 l 1.582,8.148 1.035,0 1.682,-9.384 4.263,0 c 0.693,0 1.179,0.56 1.089,1.245" />
      </g>
      <g
         transform="matrix(1.25,0,0,-1.25,609.46362,711.5168)"
         id="g3710">
        <path
           inkscape:connector-curvature="0"
           id="path3712"
           style="fill:#ffffff;fill-opacity:1;fill-rule:nonzero;stroke:none"
           d="m 0,0 c -0.078,-0.394 -0.319,-0.577 -0.764,-0.577 l -1.505,0 c -0.448,0 -0.612,0.183 -0.535,0.577 l 3.844,19.821 -5.756,0 -4.332,-22.328 2.527,-2.7 8.241,0 3.576,2.7 4.329,22.328 -5.779,0 L 0,0 Z" />
      </g>
      <g
         transform="matrix(1.25,0,0,-1.25,517.18102,716.3471)"
         id="g3714">
        <path
           inkscape:connector-curvature="0"
           id="path3716"
           style="fill:#afa66f;fill-opacity:1;fill-rule:nonzero;stroke:none"
           d="M 0,0 1.386,4.543 7.5,4.543 7.122,0 9.904,0 10.302,10.225 C 9.522,10.2 8.741,10.172 7.966,10.146 l -0.334,-4.003 -5.753,0 1.157,3.81 C 2.282,9.926 1.533,9.887 0.78,9.85 L -2.576,0 0,0 Z" />
      </g>
      <g
         transform="matrix(1.25,0,0,-1.25,580.00072,716.3471)"
         id="g3718">
        <path
           inkscape:connector-curvature="0"
           id="path3720"
           style="fill:#afa66f;fill-opacity:1;fill-rule:nonzero;stroke:none"
           d="m 0,0 7.31,0 2.874,2.172 1.413,7.287 C 10.652,9.514 9.71,9.571 8.76,9.622 L 7.574,3.504 C 7.381,2.528 6.637,1.949 5.592,1.949 l -1.68,0 C 3.071,1.949 2.581,2.316 2.316,2.623 2.052,2.93 1.777,3.455 1.927,4.225 L 3.025,9.914 C 2.039,9.953 1.041,10.002 0.045,10.039 L -1.574,1.68 0,0 Z" />
      </g>
      <g
         transform="matrix(1.25,0,0,-1.25,465.09602,716.3471)"
         id="g3722">
        <path
           inkscape:connector-curvature="0"
           id="path3724"
           style="fill:#afa66f;fill-opacity:1;fill-rule:nonzero;stroke:none"
           d="m 0,0 c 0.087,0.014 0.247,0.146 0.265,0.254 l 1.19,6.139 C 0.452,6.254 -0.545,6.116 -1.533,5.979 L -2.692,0 0,0 Z" />
      </g>
      <g
         transform="matrix(1.25,0,0,-1.25,562.42512,716.3471)"
         id="g3726">
        <path
           inkscape:connector-curvature="0"
           id="path3728"
           style="fill:#afa66f;fill-opacity:1;fill-rule:nonzero;stroke:none"
           d="m 0,0 c 0.082,0.014 0.244,0.146 0.267,0.254 l 1.959,10.102 c -0.966,0.023 -1.93,0.04 -2.9,0.05 L -2.688,0 0,0 Z" />
      </g>
      <g
         transform="matrix(1.25,0,0,-1.25,546.29712,716.3471)"
         id="g3730">
        <path
           inkscape:connector-curvature="0"
           id="path3732"
           style="fill:#afa66f;fill-opacity:1;fill-rule:nonzero;stroke:none"
           d="m 0,0 c 0.09,0.012 0.242,0.146 0.271,0.254 l 0.328,1.699 -5.347,0 1.638,8.467 C -4.083,10.402 -5.059,10.391 -6.029,10.372 L -8.043,0 0,0 Z" />
      </g>
      <g
         transform="matrix(1.25,0,0,-1.25,484.11212,716.3471)"
         id="g3734">
        <path
           inkscape:connector-curvature="0"
           id="path3736"
           style="fill:#afa66f;fill-opacity:1;fill-rule:nonzero;stroke:none"
           d="M 0,0 C 0.09,0.012 0.248,0.146 0.271,0.254 L 1.79,8.112 C 0.852,8.021 -0.082,7.928 -1.011,7.83 L -2.53,0 0,0 Z" />
      </g>
      <g
         transform="matrix(1.25,0,0,-1.25,503.67262,716.3422)"
         id="g3738">
        <path
           inkscape:connector-curvature="0"
           id="path3740"
           style="fill:#afa66f;fill-opacity:1;fill-rule:nonzero;stroke:none"
           d="M 0,0 2.771,-0.004 4.618,9.518 C 3.812,9.469 3.006,9.418 2.207,9.368 L 1.147,3.889 0.322,9.235 C -0.264,9.198 -0.858,9.156 -1.441,9.119 L 0,0 Z" />
      </g>
      <g
         transform="matrix(1.25,0,0,-1.25,494.81522,716.3471)"
         id="g3742">
        <path
           inkscape:connector-curvature="0"
           id="path3744"
           style="fill:#afa66f;fill-opacity:1;fill-rule:nonzero;stroke:none"
           d="M 0,0 C 0.071,0.008 0.235,0.143 0.261,0.254 L 1.925,8.829 C 1.112,8.771 0.311,8.696 -0.497,8.629 L -2.163,0 0,0 Z" />
      </g>
      <g
         transform="matrix(1.25,0,0,-1.25,624.45872,716.3471)"
         id="g3746">
        <path
           inkscape:connector-curvature="0"
           id="path3748"
           style="fill:#afa66f;fill-opacity:1;fill-rule:nonzero;stroke:none"
           d="m 0,0 c 0.17,0.004 0.509,0.196 0.581,0.318 l 1.35,6.983 C 0.965,7.414 -0.005,7.524 -0.983,7.629 L -2.466,0 0,0 Z" />
      </g>
      <g
         transform="matrix(1.25,0,0,-1.25,633.59212,716.3471)"
         id="g3750">
        <path
           inkscape:connector-curvature="0"
           id="path3752"
           style="fill:#afa66f;fill-opacity:1;fill-rule:nonzero;stroke:none"
           d="M 0,0 2.859,0 1.675,6.435 C 0.715,6.559 -0.247,6.686 -1.221,6.807 L 0,0 Z" />
      </g>
      <g
         transform="matrix(1.25,0,0,-1.25,601.95762,716.3471)"
         id="g3754">
        <path
           inkscape:connector-curvature="0"
           id="path3756"
           style="fill:#afa66f;fill-opacity:1;fill-rule:nonzero;stroke:none"
           d="m 0,0 7.176,0 2.879,2.172 1.157,5.975 C 10.245,8.242 9.27,8.336 8.295,8.416 L 7.341,3.504 C 7.141,2.523 6.401,1.949 5.354,1.949 l -1.505,0 C 3.01,1.949 2.512,2.316 2.255,2.623 1.995,2.93 1.712,3.455 1.862,4.225 l 0.904,4.66 C 1.806,8.963 0.838,9.033 -0.139,9.105 L -1.573,1.68 0,0 Z" />
      </g>
      <g
         transform="matrix(1.25,0,0,-1.25,643.00612,708.2942)"
         id="g3758">
        <path
           inkscape:connector-curvature="0"
           id="path3760"
           style="fill:#afa66f;fill-opacity:1;fill-rule:nonzero;stroke:none"
           d="M 0,0 C 0.181,0 0.289,0.039 0.287,0.217 0.282,0.396 0.062,0.396 -0.099,0.396 l -0.374,0 L -0.461,0 0,0 Z m 0.602,-0.938 -0.376,0 -0.392,0.647 -0.286,0 0.015,-0.647 -0.34,0 -0.041,1.625 0.791,0 c 0.376,0 0.631,-0.066 0.641,-0.499 0.011,-0.3 -0.137,-0.459 -0.429,-0.479 l 0.417,-0.647 z m -1.967,0.805 c 0.019,-0.699 0.577,-1.229 1.248,-1.229 0.677,0 1.206,0.53 1.189,1.229 -0.018,0.702 -0.578,1.226 -1.251,1.226 -0.671,0 -1.204,-0.524 -1.186,-1.226 m -0.337,0 c -0.026,0.871 0.645,1.568 1.516,1.568 0.873,0 1.58,-0.697 1.598,-1.568 C 1.435,-1.006 0.765,-1.7 -0.107,-1.7 c -0.874,0 -1.58,0.694 -1.595,1.567" />
      </g>
      <g
         transform="matrix(1.25,0,0,-1.25,549.47712,775.6831)"
         id="g3762">
        <path
           inkscape:connector-curvature="0"
           id="path3764"
           style="fill:#ee651b;fill-opacity:1;fill-rule:nonzero;stroke:none"
           d="m 0,0 c -4.511,0.629 -8.07,4.192 -8.696,8.707 l -11.569,0 c 0.406,-6.248 3.441,-11.783 8.03,-15.496 3.593,2.896 7.822,4.597 12.235,4.894 L 0,0 Z" />
      </g>
      <g
         transform="matrix(1.25,0,0,-1.25,565.07162,739.6601)"
         id="g3766">
        <path
           inkscape:connector-curvature="0"
           id="path3768"
           style="fill:#ee651b;fill-opacity:1;fill-rule:nonzero;stroke:none"
           d="m 0,0 c -2.862,1.699 -6.137,2.756 -9.645,2.983 l 0,-6.626 C -6.207,-3.367 -2.898,-2.115 0,0" />
      </g>
      <g
         transform="matrix(1.25,0,0,-1.25,549.47712,750.3877)"
         id="g3770">
        <path
           inkscape:connector-curvature="0"
           id="path3772"
           style="fill:#ee651b;fill-opacity:1;fill-rule:nonzero;stroke:none"
           d="m 0,0 0,2.104 c -4.358,0.294 -8.536,1.959 -12.103,4.791 -4.661,-3.711 -7.752,-9.289 -8.162,-15.594 l 11.569,0 C -8.07,-4.19 -4.511,-0.627 0,0" />
      </g>
      <g
         transform="matrix(1.25,0,0,-1.25,549.47712,735.9321)"
         id="g3774">
        <path
           inkscape:connector-curvature="0"
           id="path3776"
           style="fill:#ee651b;fill-opacity:1;fill-rule:nonzero;stroke:none"
           d="M 0,0 C -3.513,-0.228 -6.795,-1.287 -9.659,-2.992 -6.755,-5.106 -3.438,-6.358 0,-6.629 L 0,0 Z" />
      </g>
      <g
         transform="matrix(1.25,0,0,-1.25,578.34672,764.8005)"
         id="g3778">
        <path
           inkscape:connector-curvature="0"
           id="path3780"
           style="fill:#ee651b;fill-opacity:1;fill-rule:nonzero;stroke:none"
           d="m 0,0 -11.562,0 c -0.626,-4.515 -4.189,-8.08 -8.703,-8.706 l 0,-1.898 c 4.411,-0.305 8.628,-2.01 12.215,-4.909 C -3.45,-11.8 -0.406,-6.257 0,0" />
      </g>
      <g
         transform="matrix(1.25,0,0,-1.25,553.01712,750.3877)"
         id="g3782">
        <path
           inkscape:connector-curvature="0"
           id="path3784"
           style="fill:#ee651b;fill-opacity:1;fill-rule:nonzero;stroke:none"
           d="m 0,0 c 4.513,-0.626 8.075,-4.189 8.702,-8.699 l 11.562,0 C 19.854,-2.384 16.754,3.199 12.082,6.911 8.522,4.078 4.357,2.409 0,2.107 L 0,0 Z" />
      </g>
      <g
         transform="matrix(1.25,0,0,-1.25,537.22002,786.2788)"
         id="g3786">
        <path
           inkscape:connector-curvature="0"
           id="path3788"
           style="fill:#ee651b;fill-opacity:1;fill-rule:nonzero;stroke:none"
           d="m 0,0 c 2.899,-1.758 6.232,-2.852 9.806,-3.082 l 0,6.832 C 6.309,3.476 2.939,2.18 0,0" />
      </g>
      <g
         transform="matrix(1.25,0,0,-1.25,553.01712,790.1313)"
         id="g3790">
        <path
           inkscape:connector-curvature="0"
           id="path3792"
           style="fill:#ee651b;fill-opacity:1;fill-rule:nonzero;stroke:none"
           d="M 0,0 C 3.565,0.23 6.893,1.32 9.788,3.07 6.855,5.252 3.495,6.549 0,6.83 L 0,0 Z" />
      </g>
      <g
         transform="matrix(1.25,0,0,-1.25,560.21322,763.0171)"
         id="g3794">
        <path
           inkscape:connector-curvature="0"
           id="path3796"
           style="fill:#ee651b;fill-opacity:1;fill-rule:nonzero;stroke:none"
           d="m 0,0 c 0,-3.905 -3.165,-7.07 -7.067,-7.07 -3.904,0 -7.064,3.165 -7.064,7.07 0,3.9 3.16,7.062 7.064,7.062 C -3.165,7.062 0,3.9 0,0" />
      </g>
      <g
         transform="matrix(1.25,0,0,-1.25,551.39602,756.8891)"
         id="g3798">
        <path
           inkscape:connector-curvature="0"
           id="path3800"
           style="fill:#ffffff;fill-opacity:1;fill-rule:nonzero;stroke:none"
           d="m 0,0 1.09,-3.389 3.563,0 -2.881,-2.09 1.1,-3.385 -2.872,2.093 -2.886,-2.093 1.1,3.385 -2.884,2.09 3.56,0 L 0,0 Z" />
      </g>
      <g
         transform="matrix(1.25,0,0,-1.25,533.34552,665.2558)"
         id="g3802">
        <path
           inkscape:connector-curvature="0"
           id="path3804"
           style="fill:#afa66f;fill-opacity:1;fill-rule:nonzero;stroke:none"
           d="m 0,0 c 0,7.988 6.477,14.461 14.457,14.461 4.072,0 7.74,-1.68 10.367,-4.381 0.009,-0.008 0.016,-0.018 0.024,-0.027 -0.016,0.011 -0.03,0.027 -0.047,0.038 L 21.799,7.09 c 2.263,-2.014 3.694,-4.93 3.694,-8.197 l 0.055,-0.034 -0.029,0 0,-1.647 13.871,0 -3.272,65.954 -43.307,0 L -10.624,-2.788 0,-2.788 0,0 Z" />
      </g>
      <g
         transform="matrix(1.25,0,0,-1.25,522.31032,625.6465)"
         id="g3806">
        <path
           inkscape:connector-curvature="0"
           id="path3808"
           style="fill:#736d4e;fill-opacity:1;fill-rule:nonzero;stroke:none"
           d="m 0,0 -4.044,-4.408 -2.805,-30.068 5.054,0 L 0,0 Z" />
      </g>
      <g
         transform="matrix(1.25,0,0,-1.25,537.76682,666.6475)"
         id="g3810">
        <path
           inkscape:connector-curvature="0"
           id="path3812"
           style="fill:#736d4e;fill-opacity:1;fill-rule:nonzero;stroke:none"
           d="m 0,0 c 0,6.07 4.911,10.984 10.979,10.984 2.792,0 5.344,-1.056 7.283,-2.782 l 2.539,2.539 C 26.428,8.084 31.546,6.672 35.444,6.573 l 0.409,-8.248 5.318,0 -2.805,30.069 -4.229,4.625 -0.283,5.595 c -2.396,4.737 -5.839,9.808 -10.14,14.112 L -1.949,27.066 c 4.62,-4.619 9.5,-8.474 14.278,-11.564 -0.464,0.045 -0.933,0.071 -1.409,0.071 -7.96,0 -14.422,-6.456 -14.422,-14.427 l 0,-2.821 3.502,0 L 0,0 Z" />
      </g>
      <g
         transform="matrix(1.25,0,0,-1.25,573.07082,629.1621)"
         id="g3814">
        <path
           inkscape:connector-curvature="0"
           id="path3816"
           style="fill:#afa66f;fill-opacity:1;fill-rule:nonzero;stroke:none"
           d="m 0,0 0,0.494 0.333,0 c 0.172,0 0.35,-0.035 0.35,-0.234 C 0.683,0.012 0.498,0 0.289,0 L 0,0 Z m 0,-0.207 0.28,0 0.426,-0.694 0.272,0 -0.457,0.707 c 0.234,0.03 0.416,0.153 0.416,0.438 0,0.316 -0.189,0.457 -0.569,0.457 l -0.602,0 0,-1.602 0.234,0 0,0.694 z m 0.298,-1.28 c 0.76,0 1.404,0.586 1.404,1.391 0,0.797 -0.644,1.385 -1.404,1.385 -0.767,0 -1.412,-0.588 -1.412,-1.385 0,-0.805 0.645,-1.391 1.412,-1.391 m -1.135,1.391 c 0,0.656 0.498,1.154 1.135,1.154 0.63,0 1.125,-0.498 1.125,-1.154 0,-0.67 -0.495,-1.162 -1.125,-1.162 -0.637,0 -1.135,0.492 -1.135,1.162" />
      </g>
      <g
         transform="matrix(1.25,0,0,-1.25,568.75682,627.3066)"
         id="g3818">
        <path
           inkscape:connector-curvature="0"
           id="path3820"
           style="fill:#2b5cae;fill-opacity:1;fill-rule:nonzero;stroke:none"
           d="m 0,0 -0.135,1.233 -3.421,0 -0.752,-1.219 -2.966,0 -0.066,1.219 -3.344,0 -0.813,-1.233 -4.74,0 c -1.465,0 -2.807,0.897 -3.035,2.279 -0.11,0.649 -0.106,1.305 0,1.932 L -20.467,0.002 -23.077,0 c 0,0 -1.378,3.33 -1.711,4.131 C -25.021,3.283 -25.923,0 -25.923,0 l -2.346,0 1.821,6.625 -0.809,0 0.553,1.951 2.934,0 2.05,-4.822 0.817,2.877 -0.811,-0.006 0.553,1.965 3.128,-0.014 -0.908,-3.168 c 0.558,1.617 2.327,3.194 4.518,3.194 l 3.522,-0.012 -0.823,-2.984 -2.282,0 c 0,0 0.181,0.657 0.27,0.976 l -0.523,0.012 c -1.245,0 -2.467,-1.867 -2.467,-3.152 0,-1.287 1.036,-1.537 1.308,-1.537 l 2.564,-0.009 3.118,4.729 -0.726,0.012 0.541,1.953 4.776,0 0.326,-5.648 2.321,3.683 -0.728,0 0.557,1.965 4.704,0 0.528,-7.652 c 1.043,2.295 1.631,4.841 1.631,7.527 0,10.02 -8.125,18.145 -18.145,18.145 -10.02,0 -18.144,-8.125 -18.144,-18.145 0,-10.021 8.124,-18.139 18.144,-18.139 6.961,0 13.009,3.92 16.05,9.674 L 0,0 Z" />
      </g>
      <g
         transform="matrix(1.25,0,0,-1.25,571.96122,626.1323)"
         id="g3822">
        <path
           inkscape:connector-curvature="0"
           id="path3824"
           style="fill:#ffffff;fill-opacity:1;fill-rule:nonzero;stroke:none"
           d="m 0,0 -0.528,7.65 -4.704,0 -0.556,-1.964 0.726,0 -2.321,-3.684 -0.324,5.648 -4.777,0 -0.541,-1.953 0.725,-0.011 -3.118,-4.729 -2.563,0.01 c -0.273,0 -1.307,0.248 -1.307,1.535 0,1.285 1.221,3.151 2.466,3.151 l 0.522,-0.01 c -0.089,-0.32 -0.269,-0.975 -0.269,-0.975 l 2.283,0 0.821,2.982 -3.521,0.012 c -2.192,0 -3.96,-1.576 -4.519,-3.193 l 0.908,3.168 -3.128,0.013 -0.552,-1.964 0.81,0.005 -0.817,-2.877 -2.048,4.823 -2.936,0 -0.552,-1.951 0.808,0 -1.82,-6.625 2.346,0 c 0,0 0.902,3.283 1.134,4.13 0.333,-0.8 1.711,-4.13 1.711,-4.13 l 2.611,0.002 1.194,4.208 c -0.105,-0.627 -0.109,-1.283 0,-1.931 0.229,-1.381 1.57,-2.279 3.035,-2.279 l 4.74,0 0.815,1.234 3.343,0 0.065,-1.221 2.968,0 0.752,1.221 3.42,0 0.135,-1.234 2.098,0 L 0,0 Z m -4.625,2.381 1.814,2.748 0.095,-2.748 -1.909,0 z m -7.276,-0.037 1.819,2.76 0.096,-2.76 -1.915,0 z" />
      </g>
      <g
         transform="matrix(1.25,0,0,-1.25,566.18002,623.1562)"
         id="g3826">
        <path
           inkscape:connector-curvature="0"
           id="path3828"
           style="fill:#2b5cae;fill-opacity:1;fill-rule:nonzero;stroke:none"
           d="M 0,0 1.814,2.75 1.909,0 0,0 Z m -7.275,-0.037 1.819,2.76 0.094,-2.76 -1.913,0 z" />
      </g>
      <g
         transform="matrix(1.25,0,0,-1.25,506.54132,741.6328)"
         id="g3830">
        <path
           inkscape:connector-curvature="0"
           id="path3832"
           style="fill:#2b5cae;fill-opacity:1;fill-rule:nonzero;stroke:none"
           d="m 0,0 c -11.448,4.005 -22.262,7.789 -33.599,7.789 -1.934,0 -3.854,-0.116 -5.73,-0.35 l -1.364,-2.533 c 2.3,0.377 4.674,0.568 7.094,0.568 10.945,0 21.578,-3.724 32.839,-7.661 4.377,-1.532 8.811,-3.084 13.317,-4.426 0.326,0.718 0.681,1.421 1.071,2.103 C 9.021,-3.154 4.48,-1.568 0,0" />
      </g>
      <g
         transform="matrix(1.25,0,0,-1.25,647.00762,668.9118)"
         id="g3834">
        <path
           inkscape:connector-curvature="0"
           id="path3836"
           style="fill:#2b5cae;fill-opacity:1;fill-rule:nonzero;stroke:none"
           d="m 0,0 -1.363,-2.517 c 3.563,-7.713 5.369,-15.865 5.369,-24.256 0,-8.305 -1.77,-16.376 -5.262,-24.023 -1.791,0.209 -3.618,0.315 -5.455,0.315 -11.345,0 -22.185,-3.757 -33.686,-7.741 -4.604,-1.596 -9.271,-3.209 -14.008,-4.578 0.385,-0.684 0.736,-1.388 1.059,-2.109 4.647,1.357 9.214,2.939 13.723,4.502 11.288,3.911 21.954,7.611 32.912,7.611 2.327,0 4.607,-0.176 6.824,-0.52 4.122,8.41 6.208,17.326 6.208,26.543 C 6.321,-17.468 4.196,-8.478 0,0" />
      </g>
    </g>
  </g>
</svg>
