<?xml version="1.0" encoding="UTF-8" standalone="no"?>
<!-- Created with Inkscape (http://www.inkscape.org/) -->

<svg
   xmlns:dc="http://purl.org/dc/elements/1.1/"
   xmlns:cc="http://creativecommons.org/ns#"
   xmlns:rdf="http://www.w3.org/1999/02/22-rdf-syntax-ns#"
   xmlns:svg="http://www.w3.org/2000/svg"
   xmlns="http://www.w3.org/2000/svg"
   xmlns:sodipodi="http://sodipodi.sourceforge.net/DTD/sodipodi-0.dtd"
   xmlns:inkscape="http://www.inkscape.org/namespaces/inkscape"
   id="svg2"
   version="1.1"
   inkscape:version="0.91 r13725"
   width="600"
   height="600"
   viewBox="0 0 600 600"
   sodipodi:docname="20160504233513!RTX_logo.svg">
  <metadata
     id="metadata8">
    <rdf:RDF>
      <cc:Work
         rdf:about="">
        <dc:format>image/svg+xml</dc:format>
        <dc:type
           rdf:resource="http://purl.org/dc/dcmitype/StillImage" />
        <dc:title />
      </cc:Work>
    </rdf:RDF>
  </metadata>
  <defs
     id="defs6" />
  <sodipodi:namedview
     pagecolor="#ffffff"
     bordercolor="#666666"
     borderopacity="1"
     objecttolerance="10"
     gridtolerance="10"
     guidetolerance="10"
     inkscape:pageopacity="0"
     inkscape:pageshadow="2"
     inkscape:window-width="1665"
     inkscape:window-height="972"
     id="namedview4"
     showgrid="false"
     showguides="true"
     inkscape:zoom="2.8284271"
     inkscape:cx="187.03981"
     inkscape:cy="308.1661"
     inkscape:window-x="3"
     inkscape:window-y="0"
     inkscape:window-maximized="0"
     inkscape:current-layer="svg2">
    <inkscape:grid
       type="xygrid"
       id="grid3342" />
  </sodipodi:namedview>
  <path
     style="fill:#000000"
     d="m 76,202 0,45 105,0 c 0,0 21,0 21,21 0,21 -21,21 -21,21 l -89.5,0 0,106.5 49,0 0,-62.5 24,0 42.5,62.5 57,0 -48.4,-71.4 c 0,0 48,-19.5 33.5,-77.1 l 24.9,0 0,149 49,0 0,-149 45.5,0 -7.53,-45"
     id="RT"
     inkscape:connector-curvature="0"
     sodipodi:nodetypes="cscccc" />
  <path
     style="fill-opacity:0;stroke:#000000;stroke-width:6px;stroke-linecap:butt;stroke-linejoin:miter;stroke-opacity:1"
     d="m 360.31,183.03 34,202.94 34.63,-50.16 39.05,55.84 36.8,-23.47 -39.5,-57.5575 63.3175,-10.1925 z"
     id="cursorStroke"
     inkscape:connector-curvature="0"
     sodipodi:nodetypes="cccccccc" />
  <path
     style="fill:#000000"
     d="M 464.36914,202 438.1582,240.13657 478.71484,268.42759 524.36914,202 Z"
     id="xTopRight"
     inkscape:connector-curvature="0" />
  <path
     style="fill:#000000"
     d="M 383.81445,319.20718 331.03711,396 l 60,0 4.53711,-6.59947 z"
     id="xBottomLeft"
     inkscape:connector-curvature="0" />
  <path
     style="fill:#000000"
     d="m 508.89453,369.12109 -41.71484,26.60352 0.18945,0.27539 60,0 -18.47461,-26.87891 z"
     id="xBottomRight"
     inkscape:connector-curvature="0" />
</svg>
