<?xml version="1.0" encoding="UTF-8" standalone="no"?>
<svg xmlns="http://www.w3.org/2000/svg" version="1.1" width="1000" height="1000">
  <path style="fill:#ff7f00" d="M 500,0 A 500,500 0 0 0 0,500 500,500 0 0 0 500,1000 500,500 0 0 0 1000,500 500,500 0 0 0 500,0 Z m 0,53 A 447,447 0 0 1 947,500 447,447 0 0 1 500,947 447,447 0 0 1 53,500 447,447 0 0 1 500,53 Z" />
  <path style="fill:#ff7f00" d="M 500 89 A 411 411 0 0 0 89 500 A 411 411 0 0 0 500 911 A 411 411 0 0 0 911 500 A 411 411 0 0 0 500 89 z M 222 295 L 544 295 L 544 397 L 398 397 L 398 451 L 487 451 L 487 549 L 398 549 L 398 603 L 454 603 L 454 705 L 222 705 L 222 603 L 278 603 L 278 397 L 222 397 L 222 295 z M 598 295 L 776 295 L 776 397 L 722 397 L 722 603 L 776 603 L 776 705 L 544 705 L 544 603 L 598 603 L 598 549 L 540 549 L 540 451 L 598 451 L 598 295 z"/>
</svg>
